<svg xmlns="http://www.w3.org/2000/svg" viewBox="0 0 600 350"><defs><style>.cls-1{fill:#f8c341;}.cls-2{fill:#e8e8e8;}.cls-3{fill:#fae7e7;}.cls-4{fill:#27b5f7;}.cls-5{fill:#f56977;}.cls-6{fill:#fff;}.cls-7{fill:#f0f0f0;}</style></defs><g id="圖層_3" data-name="圖層 3"><path d="M554.94,247.35h0a.67.67,0,0,1-.66-.67c0-9-5.95-10-6.2-10a.68.68,0,0,1-.58-.67.69.69,0,0,1,.58-.67c4.71-.7,5.69-7.47,5.7-7.54a.68.68,0,0,1,.69-.59.69.69,0,0,1,.66.62c.52,6.12,6.48,7.47,6.74,7.52a.67.67,0,0,1,.53.7.66.66,0,0,1-.6.63c-5.65.63-6.17,10-6.17,10.06A.68.68,0,0,1,554.94,247.35Zm.68-.67h0ZM550.25,236a9.57,9.57,0,0,1,4.8,6.17c.7-2.38,2-5.08,4.49-6.28a9.94,9.94,0,0,1-5.13-5.21A9.3,9.3,0,0,1,550.25,236Z"/><path d="M340.31,74.62h0a.67.67,0,0,1-.66-.67c0-9-5.95-10-6.2-10a.66.66,0,0,1-.57-.67.68.68,0,0,1,.57-.67c4.71-.7,5.69-7.47,5.7-7.54a.68.68,0,0,1,1.35,0c.52,6.12,6.49,7.47,6.74,7.52a.68.68,0,0,1-.07,1.34C341.51,64.55,341,73.88,341,74A.67.67,0,0,1,340.31,74.62ZM341,74h0Zm-5.37-10.66a9.51,9.51,0,0,1,4.8,6.18c.7-2.39,2-5.09,4.5-6.29A9.91,9.91,0,0,1,339.78,58,9.3,9.3,0,0,1,335.62,63.29Z"/><path d="M407.65,323.53h0a.68.68,0,0,1-.66-.68c0-9-6-10-6.2-10a.68.68,0,0,1,0-1.34c4.72-.7,5.69-7.48,5.7-7.55a.69.69,0,0,1,.69-.58.68.68,0,0,1,.66.62c.52,6.14,6.67,7.5,6.74,7.52a.67.67,0,0,1-.07,1.33c-5.65.62-6.17,10-6.17,10.05A.69.69,0,0,1,407.65,323.53Zm.68-.68h0ZM403,312.2a9.54,9.54,0,0,1,4.8,6.17c.7-2.39,2-5.08,4.49-6.29a9.9,9.9,0,0,1-5.13-5.21A9.36,9.36,0,0,1,403,312.2Z"/><path d="M117.71,65.21h0a.67.67,0,0,1-.66-.67c0-9-5.94-10-6.19-10a.68.68,0,0,1-.58-.67.69.69,0,0,1,.58-.67c4.71-.7,5.69-7.47,5.7-7.54a.71.71,0,0,1,.69-.59.69.69,0,0,1,.66.62c.52,6.12,6.48,7.47,6.74,7.52a.68.68,0,0,1-.07,1.34c-5.65.62-6.17,10-6.17,10A.68.68,0,0,1,117.71,65.21Zm.68-.67h0ZM113,53.89a9.54,9.54,0,0,1,4.8,6.17c.7-2.39,2-5.08,4.49-6.29a9.94,9.94,0,0,1-5.13-5.21A9.4,9.4,0,0,1,113,53.89Z"/></g><g id="圖"><polygon class="cls-1" points="315.1 255.78 314.6 258.78 315.28 261.72 315.8 264.66 316.35 267.63 317.85 270.27 319.06 273 320.7 275.5 322.28 278.05 324.55 280.02 326.36 282.42 328.7 284.29 331.17 285.97 333.52 287.87 336.49 288.61 339.19 289.86 341.93 291.14 344.98 291.2 347.89 291.9 350.89 291.9 353.88 291.83 356.86 291.54 359.73 290.69 362.67 290.08 365.38 288.82 367.94 287.28 370.44 285.7 373.14 284.36 375.11 282.08 377.37 280.15 379.57 278.1 381.44 275.74 382.98 273.14 383.79 270.21 385.19 267.55 385.88 264.64 386.17 261.67 386.5 258.73 387.36 255.78 386.93 252.79 386.18 249.88 386.22 246.83 385.18 244 383.66 241.4 382.98 238.41 381.17 235.99 379.55 233.47 377.33 231.44 375.49 229.05 372.96 227.42 370.5 225.76 368.22 223.75 365.33 222.86 362.54 221.84 359.67 221.11 356.82 220.26 353.88 219.67 350.89 219.91 347.89 219.58 344.96 220.26 341.94 220.46 339.1 221.44 336.33 222.59 333.86 224.3 331.16 225.58 328.91 227.54 326.57 229.36 324.15 231.17 322.14 233.41 320.4 235.86 318.85 238.44 317.93 241.32 316.43 243.95 315.86 246.91 315.14 249.81 314.8 252.78 315.1 255.78"/><polygon class="cls-2" points="24.18 75.02 24.36 76.75 24.68 78.44 24.66 80.22 25.45 81.79 25.82 83.53 26.82 84.97 27.72 86.47 28.7 87.91 29.83 89.25 31.19 90.36 32.6 91.39 34.21 92.08 35.58 93.2 37.25 93.72 38.92 94.19 40.6 94.62 42.31 95.01 44.06 95.11 45.8 94.94 47.52 94.62 49.26 94.43 50.79 93.51 52.56 93.25 54.04 92.31 55.4 91.22 56.91 90.33 57.99 88.95 59.43 87.92 60.49 86.53 61.4 85.03 62.3 83.53 62.59 81.77 63.13 80.13 63.57 78.46 64 76.77 64.05 75.02 63.96 73.28 63.79 71.54 63.36 69.85 62.77 68.21 62.13 66.59 61.14 65.16 60.49 63.51 59.15 62.36 58.11 60.97 56.77 59.87 55.59 58.55 54.02 57.76 52.48 56.95 50.83 56.42 49.19 55.87 47.48 55.61 45.8 55.05 44.06 55.01 42.33 55.31 40.57 55.26 38.92 55.86 37.24 56.29 35.7 57.1 34.01 57.62 32.63 58.7 31.39 59.92 29.98 60.95 28.99 62.38 27.9 63.71 27.01 65.18 26.22 66.71 25.56 68.29 24.7 69.83 24.6 71.59 24.15 73.28 24.18 75.02"/><path class="cls-3" d="M69.53,142.67c-3.82-36.28,17.34-51.16,39.66-52.84,23.21-1.75,40.34,12.51,46.31,48.58,3.16,19.09-6.09,38.69-21.22,45.21a1.18,1.18,0,0,0-.22.17,4.7,4.7,0,0,0-1.46,4.64l2.86,12.6a11.62,11.62,0,0,1-11.19,12l-18.61.61A10,10,0,0,1,95.39,204l2-14.48a4.75,4.75,0,0,0-1.57-4.27,3.8,3.8,0,0,0-.48-.35C81.64,177,71.55,161.89,69.53,142.67Z"/><path class="cls-3" d="M172.55,271.24c3.19,1.74,6.4,3,8.38-.07l9.66-13.66c6.49-10.11,13.62-20.66,17.57-32.09a96.24,96.24,0,0,0,2.56-11c8.59,10.81,20.75,19.62,30.78,26.51a44.27,44.27,0,0,0,16.06,6.83q-5.17,4.8-10.18,9.77a109.47,109.47,0,0,0-9.08,10.26c-8.87,11.42-23.16,28.65-37.86,41.57-9.18,8.08-19.9,9.35-30.37,2.77L90.23,242.29,109.53,209Z"/><path class="cls-4" d="M64.15,212.25c15.77-18.36,25.66-18.86,30.67-19.48,21.35,7.21,38.59,1.32,41.5-1.12l.91.27c25.88,7.8,45.52,30.24,51.48,58.22,7.47,35,11.42,73.3,13.44,99.86H55.44C46.63,285,39.48,241,64.15,212.25Z"/><path class="cls-3" d="M242.22,255.64c7.25.56,17.33-.69,21.33-1.48s9.39-2.69,11.49-8.61a9.19,9.19,0,0,0-1.65-8.84,1.75,1.75,0,0,1,.18-2.38c7.28-6.33,3.81-12.63,2.05-15a1.73,1.73,0,0,1,0-2c5.08-7.37.42-13.12-1.84-15.27a1.74,1.74,0,0,1-.34-2,9.68,9.68,0,0,0,0-8.76c-2.71-6-9-5.86-12.67-5.56s-2.28.63-14.91,1.48c-4.5.3.27,1.93-2.61,0-3.12-2.07-8.16-2.1-12.38-1.15-16.17,3.62-25.49,28.27-19.92,45C219.81,257.75,242.22,255.64,242.22,255.64Z"/><path class="cls-3" d="M63.34,310.68l1.14,15.6s3.36,14,8.12,23.72h45.63S99,325.42,96.08,318.76c0,0-1.06-6-1.75-10.48a3,3,0,0,0-3.2-2.67C85.66,306.39,73.12,308.29,63.34,310.68Z"/><polygon class="cls-5" points="235.52 118.62 242.39 114.27 248.9 109.51 255.86 105.45 262.75 101.29 269.32 96.62 276.11 92.3 283.05 88.21 289.64 83.57 296.47 79.76 297.89 87.98 299.16 96.46 300.87 104.87 302.26 113.33 303.45 121.83 304.75 130.3 306.49 138.71 307.99 147.16 309 155.68 310.38 164.15 312.14 172.55 313.58 181.01 314.78 189.42 307 187.72 299.18 185.83 291.34 184.02 283.57 181.91 275.74 180.05 267.87 178.32 260.05 176.4 252.23 174.47 244.46 172.67 236.88 175.84 229.25 179.06 221.93 182.99 214.35 186.32 206.75 189.52 205.14 181.26 204.12 172.86 202.51 164.55 201.44 156.16 199.79 147.86 198.31 139.53 197.26 131.13 195.77 122.8 194.19 114.42 202.5 115.18 210.71 116.34 218.97 116.88 227.23 117.5 235.52 118.62"/><path class="cls-6" d="M251.24,135.86c.84,5.08,3.07,10.37,8.59,9.45s5.95-6.41,5.07-11.72-4.34-7.23-8.12-6.6S250.39,130.77,251.24,135.86Z"/><path d="M255.06,134.17c.56,3.37,2,6.87,5.69,6.27s3.95-4.25,3.36-7.78-2.87-4.79-5.37-4.37S254.5,130.79,255.06,134.17Z"/><path class="cls-6" d="M216.16,141.68c.84,5.09,3.07,10.37,8.58,9.46s6-6.41,5.08-11.73-4.34-7.22-8.12-6.6S215.31,136.59,216.16,141.68Z"/><path d="M220,140c.56,3.37,2,6.88,5.69,6.27s4-4.25,3.36-7.78-2.87-4.79-5.38-4.37S219.42,136.61,220,140Z"/><polygon class="cls-5" points="260.75 243.35 255.21 243.74 249.69 244.13 244.19 244.71 238.86 244.69 237.9 239.41 237.7 233.86 237.23 228.32 237.08 222.77 236.67 217.23 236.32 211.68 236.14 206.12 235.28 200.61 235.03 195.06 234.47 189.53 234.78 183.94 233.71 178.43 233.53 172.69 239.2 172.08 244.74 171.98 250.27 171.68 255.81 171.22 256.12 176.8 256.57 182.34 256.99 187.88 257.05 193.44 257.86 198.95 258.06 204.5 258.46 210.05 258.5 215.61 259.32 221.13 259.93 226.65 259.54 232.25 260.37 237.77 260.75 243.35"/><path d="M243.66,158a16.08,16.08,0,0,1-6.4-1.47,1.07,1.07,0,0,1,.94-1.92c.35.17,8.58,4.08,11.92-2.76a1.07,1.07,0,1,1,1.92.94,8.75,8.75,0,0,1-5.09,4.69A10,10,0,0,1,243.66,158Z"/><path class="cls-5" d="M256.48,241.78a7.35,7.35,0,0,0,7.86,6.8c4.82-.35,9.47,2.8,10.3,7.57A9.24,9.24,0,0,1,266.2,267l-14,1A12.32,12.32,0,0,1,239,256.6l-3.74-51,18.45-1.34Z"/><path class="cls-3" d="M261.86,193.09a9.37,9.37,0,0,1,1.41,11.24c-2.88,4.72-9.37,5.82-14.82,4.88-4.45-.78-9-2.58-13.35-1.27-.62,5.66-6.21,9.92-11.89,10.28a6.08,6.08,0,0,1-4.51-1.17c-1.64-1.49-1.63-4-1.48-6.22.48-7.48,1.43-15.71,6.95-20.78s12.86-7.28,19.67-5.51c3.09.81,5.84,2.92,8.14,3.82C255.33,189.67,259.21,190.5,261.86,193.09Z"/><path class="cls-3" d="M265.24,253.67a12.22,12.22,0,0,1-14-8.3,8.37,8.37,0,0,1,.37-6.52c1.08-2,2.95-4.66,5.48-4.51-2-1.19-2.83-1.79-3.85-3.91a10.29,10.29,0,0,1-1-6.85,6.29,6.29,0,0,1,4.68-4.75,7,7,0,0,1-6.32-10,4.76,4.76,0,0,1,.88-1.29,7.59,7.59,0,0,1,1.57-1.12,87.78,87.78,0,0,0,7.52-5,17,17,0,0,0,4.6-4.54c.83-1.34,1.44-3,2.87-3.64.71,9.15,3.48,18.22,2.91,27.38-.41,6.48,4.47,25.49,2.77,27.63C270.84,251.82,269.43,252.55,265.24,253.67Z"/><ellipse cx="111.62" cy="130.15" rx="2.04" ry="4.32" transform="translate(-13.14 12.54) rotate(-6.07)"/><ellipse cx="133.56" cy="127.77" rx="2.04" ry="4.32" transform="translate(-12.77 14.85) rotate(-6.07)"/><path d="M125.19,139.58a1.24,1.24,0,0,1-1.23-1.06L121.32,121a1.24,1.24,0,1,1,2.46-.37l2.64,17.56a1.26,1.26,0,0,1-1,1.42Z"/><path d="M120.51,152.74a16.65,16.65,0,0,1-3.06-.25,1.24,1.24,0,0,1-1-1.48,1.23,1.23,0,0,1,1.47-.95c.49.1,11.41,2.25,15.95-8.67a1.24,1.24,0,1,1,2.29,1C132.46,151.38,124.8,152.74,120.51,152.74Z"/><polygon class="cls-2" points="189.02 40.74 188.42 43.28 188.06 45.88 188.18 48.51 188.57 51.11 189.35 53.62 190.7 55.88 191.71 58.31 193.63 60.12 195.1 62.32 197.28 63.79 199.6 64.97 201.96 66 204.42 66.69 206.91 67.35 209.47 67.59 212.06 67.62 214.69 67.52 217.04 66.28 219.54 65.54 221.91 64.41 223.97 62.77 225.7 60.8 227.14 58.65 228.48 56.45 229.92 54.27 230.64 51.77 230.89 49.18 231.45 46.63 230.95 44.06 230.82 41.47 229.83 39.07 228.97 36.63 227.66 34.41 226.11 32.34 224.2 30.61 222.38 28.75 220.01 27.66 217.83 26.24 215.36 25.41 212.81 24.91 210.21 25.05 207.63 24.96 205.11 25.52 202.56 26 200.27 27.23 197.91 28.32 195.8 29.84 193.82 31.56 192.6 33.91 190.93 35.91 190.08 38.37 189.02 40.74"/><path d="M247.94,67.1h-.06L245.19,67h-.13l-2.64-.43L239.78,66l-.09,0-2.44-.66L234.74,65l-.13,0-2.53-.63-2.5-.46-.17,0L226.93,63l-.17-.07-2.28-1.17-2.32-.8-2.49-.6-.2-.07-2.4-1-2.39-1-2.4-.75-2.49-.69-.15-.05-2.41-1L204.84,55a1.13,1.13,0,0,1-.27-.13l-2-1.34-2.37-.61-.23-.08-2.34-1.14-2.35-1.29L193.06,49l-2.35-.83a.8.8,0,0,1-.16-.08l-2.26-1.18-2.37-1a1.44,1.44,0,0,1-.31-.19l-1.9-1.57-2.26-.94a1.44,1.44,0,0,1-.31-.19l-1.92-1.61L177,40.26a1.19,1.19,0,0,1-.23-.16l-5.85-5.18a1.07,1.07,0,0,1-.2-.23l-1.4-2.08-1.74-2a1.21,1.21,0,0,1-.3-.83l.09-2.74a1.24,1.24,0,0,1,.74-1.08l2.48-1.05a1.17,1.17,0,0,1,.64-.09l2.61.34,2.65.11.21,0,2.62.59a.66.66,0,0,1,.2.06l2.44,1,2.51.75a.92.92,0,0,1,.23.09L187,29l2.47.61a1.22,1.22,0,0,1-.59,2.37l-2.63-.65a1.48,1.48,0,0,1-.29-.12L183.66,30l-2.44-.73-.11,0-2.4-1-2.42-.53-2.59-.12h-.11l-2.33-.3-1.46.62,0,1.48,1.47,1.7a.47.47,0,0,1,.09.12l1.35,2,5.63,5,2.18,1.17a.77.77,0,0,1,.21.14l1.88,1.57,2.25.94a1.23,1.23,0,0,1,.31.19l1.9,1.57,2.25.93.1.05,2.23,1.17,2.39.85.23.11,2.23,1.38,2.24,1.23,2.18,1.06,2.44.63a1.1,1.1,0,0,1,.37.16l2.09,1.36,2.33.81,2.4,1,2.46.69,2.53.79L218,57l2.33,1,2.45.59.11,0,2.46.85.16.07,2.28,1.17,2.31.77,2.49.47,2.54.63,2.52.35a.41.41,0,0,1,.16,0l2.46.67,2.56.47,2.55.42,2.38.13,1.54-.54-.09-1.47-1.28-1.71-2.08-1.37-2.17-1.7-2-1.44-2.32-1.09-.1-.06L237,53.91l-2.29-1.61a1.22,1.22,0,0,1,1.41-2l2.21,1.56,2.15,1.28,2.36,1.11a.87.87,0,0,1,.18.11l2.17,1.53,2.13,1.68L249.46,59a1,1,0,0,1,.3.28l1.64,2.17a1.36,1.36,0,0,1,.24.67l.16,2.77a1.22,1.22,0,0,1-.82,1.22l-2.64.91A1.34,1.34,0,0,1,247.94,67.1Z"/><polyline class="cls-4" points="460.92 216.5 454.95 216.98 449 216.42 443.22 214.86 437.19 214.47 431.59 212.31 425.83 210.64 420.83 207.23 415.11 205.31 410.36 201.64 405.38 198.38 401.14 194.17 396.86 190.08 391.98 186.5 387.85 182.14 384.82 176.93 381.46 171.98 379.69 166.17 376.25 161.23 373.79 155.79 372.91 149.81 371.44 144.08 368.84 138.54 368.53 132.54 369.03 126.54 368.57 120.63 368.59 114.63 369.07 108.64 369.16 102.55 371.6 96.91 372.82 91.02 375.11 85.45 376.45 79.45 380.38 74.68 382.34 68.83 386.12 64.08 390.24 59.65 393.86 54.8 398.32 50.73 403.12 47.09 407.31 42.66 412.92 40.2 418.2 37.4 423.5 34.64 428.53 31.14 434.06 28.62 440.31 28.55 446.02 26.6 451.92 25.38 457.99 25.82 463.96 24.13 469.95 25.38 475.95 25.74 481.75 27.41 487.79 27.82 493.58 29.46 499 32.12 505.13 33.13 510.44 36.08 515.48 39.45 520.42 42.92 524.5 47.44 529.86 50.46 533.75 55.09 537.46 59.83 541.04 64.63 544.1 69.78 548.1 74.38 550.94 79.7 552.91 85.41 555.78 90.8 555.96 97.01 557.89 102.71 558.66 108.67 559.45 114.62 559.37 120.63 559.85 126.67 559.09 132.65 558.57 138.68 556.96 144.51 554.22 149.96 552.24 155.59 549.92 161.08 547.89 166.78 545.18 172.18 541.08 176.67 537.85 181.76 533.9 186.31 529.93 190.88 525.05 194.49 520.76 198.82 514.99 201.06 510.33 204.98 504.37 206.52 499.43 210.22 493.76 212.35 487.99 214.22 482.04 215.4 475.88 215 470.03 217.19 463.96 217.07"/><path class="cls-7" d="M475.14,90.37c-4.07-.89-8.67-.36-11.82,2.37a20.59,20.59,0,0,0-3.85,5.06l-6.4,10.57A106.92,106.92,0,0,0,446.19,121a18.22,18.22,0,0,0-1.78,6.71c-.12,4.29,2.26,8.24,5,11.56s5.9,6.31,7.93,10.09c.74,1.37,1.44,3,2.88,3.55,1.59.65,3.47-.28,4.49-1.65a13.27,13.27,0,0,0,1.83-4.78c3.52-13.67,11.49-26,14.43-39.77,1.21-5.69,1.15-12.53-3.34-16.23"/><path class="cls-7" d="M471.19,42.46c-1.58-1.65-3.93-1-6-.82-9.49,1-18.12-8.32-27.63-7.75a21.17,21.17,0,0,1-5.08.23C431,33.85,428.33,32,426.56,31c-34.53,14.5-60.67,49.88-60.67,89.67a100.69,100.69,0,0,0,8,39.6c5.73,2.91,17.83,3.1,21.69-.31,5.16-4.55,8.09-12.7,7.38-20.51a54.59,54.59,0,0,1-.6-6.75c.23-5.68,4-10.21,7.93-13s8.45-4.63,12-8.16c5.14-5.06,7.9-13.61,7-21.68-.33-3-1.11-6-.33-8.87.87-3.2,3.47-5.12,6-6.49a40.73,40.73,0,0,1,17.53-5.11c5.9-.31,12.48.46,17-4.25,4.32-4.51,5-12.74,3.22-19.39A7.5,7.5,0,0,0,471.19,42.46Z"/><path class="cls-7" d="M490.44,159a105.67,105.67,0,0,0-24.29,13.08c-3.23,2.32-6.66,5.59-6.14,9.56.4,3.15,3.17,5.36,5.71,7.23l7.37,5.38a6.65,6.65,0,0,0,2.68,1.4,7.29,7.29,0,0,0,3.54-.6,46.34,46.34,0,0,1,19.52-2.16c6.88.71,14.53,2.79,20.19-1.21,2.68-1.89,4.39-4.86,5.76-7.84,1.54-3.33,2.77-7.11,1.72-10.63-1.78-6-8.9-8.16-15-9.41l-20.73-4.29"/><path d="M219.49,226.7a1.23,1.23,0,0,1-1.21-1,1.24,1.24,0,0,1,1-1.47c.36-.07,8.8-1.87,11.22-10.06a1.25,1.25,0,0,1,1.55-.84,1.26,1.26,0,0,1,.84,1.55c-2.86,9.65-12.7,11.71-13.12,11.79A1,1,0,0,1,219.49,226.7Z"/><path d="M254.53,211.94a1.25,1.25,0,0,1-.08-2.49,12.3,12.3,0,0,0,10.85-10.53,1.24,1.24,0,0,1,1.45-1,1.25,1.25,0,0,1,1,1.45,15,15,0,0,1-13.13,12.56Z"/><path d="M264.11,220.32c-1.3,0-2.6,0-3.87-.06A1.23,1.23,0,0,1,259,219a1.25,1.25,0,0,1,1.24-1.22h0c2.21,0,4.49.11,6.74,0,1.75-.09,3.52-.28,5.23-.46a1.24,1.24,0,1,1,.27,2.47c-1.75.19-3.55.38-5.38.47C266.14,220.3,265.12,220.32,264.11,220.32Z"/><path d="M267.11,236.74a35.34,35.34,0,0,1-7.25-.75,1.24,1.24,0,1,1,.51-2.43,32.8,32.8,0,0,0,9.53.57,1.24,1.24,0,1,1,.21,2.48C269.11,236.7,268.11,236.74,267.11,236.74Z"/><path d="M105.42,299.47a1.25,1.25,0,0,1-1.23-1.07,315.27,315.27,0,0,1-2.84-49.32,1.24,1.24,0,0,1,1.24-1.21h0a1.25,1.25,0,0,1,1.22,1.27,311.45,311.45,0,0,0,2.82,48.92,1.24,1.24,0,0,1-1.06,1.4Z"/><path d="M490.87,299.82c.82,0,1.15.4,1,1.18l-.8,3.46a1.36,1.36,0,0,1-1.49,1.18H478.32v6a9.3,9.3,0,0,1-.68,4,4.3,4.3,0,0,1-2.47,2.11c-1.78.65-4.74,1-8.91.92-1.15,0-1.79-.33-1.91-1.11l-.69-4q-.18-1.17.93-1.11h5.32a2,2,0,0,0,1-.25.87.87,0,0,0,.31-.8v-5.75H453.77l5.69,4.88c.62.54.58,1-.12,1.42l-4,2.6a1.36,1.36,0,0,1-1.86-.25,16,16,0,0,0-2.47-2.35c-1.77-1.56-2.58-2.22-2.41-2q-2.91-2.18-.31-4.33H437.14c-.83,0-1.16-.39-1-1.18L437,301a1.34,1.34,0,0,1,1.43-1.18h32.83v-2.28Q451.29,298,441,298c-1.56,0-2.37-1-2.41-3a1.91,1.91,0,0,1,2.17-2.28h19.47v-2.23H445.42a2.62,2.62,0,0,1-3-3V275.71a2.62,2.62,0,0,1,3-3h14.84v-2.22H438.81c-.83,0-1.16-.4-1-1.18l.8-3.21a1.36,1.36,0,0,1,1.49-1.18h20.15v-2.66c0-.82.4-1.17,1.18-1.05l4.82.93a1.28,1.28,0,0,1,1.18,1.42V265h21.33c.82,0,1.15.39,1,1.18l-.81,3.21a1.36,1.36,0,0,1-1.48,1.18h-20v2.22h15.7a2.63,2.63,0,0,1,3,3v11.87a2.63,2.63,0,0,1-3,3H482l6.92,4.33q1,.62,0,1.17l-3.4,1.86a1.77,1.77,0,0,1-2-.19l-.62-.49-4.51.12v2.47Zm-39.94-22.63a1.42,1.42,0,0,0-1.61,1.61v.68h10.94v-2.29Zm-1.61,7.24a1.42,1.42,0,0,0,1.61,1.61h9.33v-2.35H449.32Zm29.62-5.63a1.4,1.4,0,0,0-1.55-1.61h-9.95v2.29h11.5ZM467.44,286h9.95a1.4,1.4,0,0,0,1.55-1.61v-.74h-11.5Zm0,4.51v2.16l7.79-.06c-1.69-.74-2.13-1.44-1.3-2.1Z"/><path d="M516.9,303v5.69q0,1.61,1.11,1.92,3.4,1.05,12.62,1.05,21.07,0,25.6-.19.56-.06-.06,1l-2.42,4a2,2,0,0,1-1.85,1.05H530.63a57.49,57.49,0,0,1-15.21-1.61,16.26,16.26,0,0,1-9-6.31q-1.42,6-3.71,8.6c-.41.62-.82.58-1.24-.12l-2.34-3.84a1.81,1.81,0,0,1,0-2c.7-.66,1.33-2.53,1.91-5.63a62.46,62.46,0,0,0,1-9.95c0-1,.45-1.4,1.24-1.24l3.46.87a1.28,1.28,0,0,1,1.11,1.48,36.53,36.53,0,0,1-.24,4.14l3.15,4.89v-14.1h-10.2q-1.25,0-1-1.17l.8-3a1.37,1.37,0,0,1,1.48-1.18h23.93c.83,0,1.16.4,1,1.18l-.8,3a1.36,1.36,0,0,1-1.48,1.17H516.9v5.07h7.67c.82,0,1.15.39,1,1.18l-.8,3a1.36,1.36,0,0,1-1.49,1.18Zm4.39-39.63a2.62,2.62,0,0,1,3,3v14.47a2.63,2.63,0,0,1-3,3H505a2.63,2.63,0,0,1-3-3V266.37a2.62,2.62,0,0,1,3-3Zm-3.83,7.79v-1.3a1.43,1.43,0,0,0-1.61-1.61h-5.63a1.42,1.42,0,0,0-1.6,1.61v1.3Zm-1.61,7.66a1.42,1.42,0,0,0,1.61-1.6v-1.43h-8.84v1.43a1.41,1.41,0,0,0,1.6,1.6Zm16.88,22.76a1.44,1.44,0,0,1,2-.43l3,1.79c.7.41.76.95.18,1.61a22.91,22.91,0,0,1-7.91,6.3,1.21,1.21,0,0,1-1.79-.37l-2-2.9c-.46-.66-.27-1.22.55-1.67A15.4,15.4,0,0,0,532.73,301.62ZM528.65,275a2.63,2.63,0,0,1,3-3h4.94l1.06-3.34H528c-.83,0-1.15-.39-1-1.17l.8-2.78a1.36,1.36,0,0,1,1.49-1.18h24.55c.82,0,1.15.39,1,1.18l-.8,2.78a1.35,1.35,0,0,1-1.48,1.17h-8.29l-1.48,3.34h7.54a2.63,2.63,0,0,1,3,3v22.14a2.62,2.62,0,0,1-3,3H531.62a2.62,2.62,0,0,1-3-3Zm17.75,4.82v-1.3c0-1-.54-1.54-1.61-1.54h-8c-1.07,0-1.61.51-1.61,1.54v1.3Zm0,7.61v-2.85H535.14v2.85Zm-1.61,7.67a1.43,1.43,0,0,0,1.61-1.61v-1.36H535.14v1.36a1.43,1.43,0,0,0,1.61,1.61Zm-1.24,8.65q-1.23-.93-.06-1.23l4-1.12a2.85,2.85,0,0,1,2.41.56,22.28,22.28,0,0,1,5.75,5.19c.5.54.37.93-.37,1.18l-3.83,1.42a1.65,1.65,0,0,1-1.92-.56A25.61,25.61,0,0,0,543.55,303.78Z"/></g></svg>