<svg width="20" height="27" viewBox="0 0 20 27" fill="none" xmlns="http://www.w3.org/2000/svg">
<path d="M2.5417 8.58341C3.94545 8.58341 5.08341 7.44545 5.08341 6.0417C5.08341 4.63796 3.94545 3.5 2.5417 3.5C1.13796 3.5 0 4.63796 0 6.0417C0 7.44545 1.13796 8.58341 2.5417 8.58341Z" fill="#27B5F7"/>
<path d="M7.61133 6.04172H18.4569" stroke="#8E8E8E" stroke-width="2" stroke-miterlimit="10" stroke-linecap="round"/>
<path d="M2.5417 17.5382C3.94545 17.5382 5.08341 16.4003 5.08341 14.9965C5.08341 13.5928 3.94545 12.4548 2.5417 12.4548C1.13796 12.4548 0 13.5928 0 14.9965C0 16.4003 1.13796 17.5382 2.5417 17.5382Z" fill="#27B5F7"/>
<path d="M7.61133 14.9966H18.4569" stroke="#8E8E8E" stroke-width="2" stroke-miterlimit="10" stroke-linecap="round"/>
<path d="M2.5417 26.5C3.94545 26.5 5.08341 25.362 5.08341 23.9583C5.08341 22.5546 3.94545 21.4166 2.5417 21.4166C1.13796 21.4166 0 22.5546 0 23.9583C0 25.362 1.13796 26.5 2.5417 26.5Z" fill="#27B5F7"/>
<path d="M7.61133 23.9583H18.4569" stroke="#8E8E8E" stroke-width="2" stroke-miterlimit="10" stroke-linecap="round"/>
</svg>
