<svg width="120" height="121" viewBox="0 0 120 121" fill="none" xmlns="http://www.w3.org/2000/svg">
<g clip-path="url(#clip0_1668_11716)">
<path d="M118.742 60.4962C118.742 92.9409 92.4409 119.242 59.9962 119.242C27.5516 119.242 1.25 92.9409 1.25 60.4962C1.25 28.0516 27.5516 1.75 59.9962 1.75C92.4409 1.75 118.742 28.0516 118.742 60.4962Z" fill="white" stroke="#27B5F7" stroke-width="2.5"/>
<path d="M56.8098 41.5477C56.0742 43.9371 54.9623 46.1939 53.5161 48.2332C53.9608 49.5447 54.4884 50.3135 55.0989 50.3135C55.4984 50.3135 55.7019 49.3412 55.8074 46.9971C56.3478 47.5459 56.994 47.9792 57.7068 48.2709C57.3827 51.7983 56.6591 52.6651 54.8728 52.6651C53.5764 52.6651 52.6116 51.7757 51.8579 50.2532C50.9696 51.1737 49.984 51.995 48.9184 52.7028C48.4894 52.0134 47.9495 51.3997 47.3205 50.8863H45.4362V52.6877H43.3258V50.8863H39.3536V49.1452H43.3258V48.3538H40.0018V43.3717H43.2805V42.5803H39.6401V40.8995H43.2805V40.0101H39.0898V38.0203H43.2428V36.95H39.9491V35.126H43.2127V33.7693H45.5191V35.126H48.7601V36.95H45.5191V38.0203H49.7776C49.7475 36.6259 49.7475 35.2089 49.7475 33.7693H52.1744C52.1744 35.2315 52.1744 36.6485 52.1744 38.0203H57.4505V40.0101H52.2574C52.3518 41.7476 52.5405 43.4787 52.8226 45.1957C53.6049 43.8332 54.2247 42.3837 54.6693 40.8769L56.8098 41.5477ZM41.6826 45.3163H43.5067V44.5626H41.6826V45.3163ZM41.6826 47.2006H43.5067V46.4469H41.6826V47.2006ZM47.1094 45.3163V44.5626H45.2251V45.3163H47.1094ZM47.1094 47.2006V46.4469H45.2251V47.2006H47.1094ZM49.137 49.6125C49.8052 49.0741 50.4233 48.4762 50.9836 47.8262C50.3679 45.2703 50.0068 42.6598 49.9057 40.0327H45.4513V40.8995H49.1596V42.5803H45.4513V43.3717H48.8731V48.3538H45.4286V49.1452H49.137V49.6125ZM55.2572 37.9223C54.5574 36.8688 53.7407 35.8978 52.8226 35.028L54.5864 33.8522C55.5305 34.6765 56.3844 35.5987 57.1339 36.6033L55.2572 37.9223Z" fill="#232323"/>
<path d="M73.1101 34.8848C73.1101 38.7137 73.6528 46.1077 81.1071 50.5019C80.3739 51.1261 79.7139 51.8316 79.1399 52.6048C75.4896 50.3296 72.8286 46.7646 71.6856 42.6179C70.1782 47.1403 67.7361 50.517 64.2162 52.6274C63.5305 51.9171 62.7923 51.2595 62.0078 50.6602C66.2211 48.5347 68.6255 44.6304 69.741 39.3016L70.9771 39.5202C70.8339 38.7664 70.7585 38.0127 70.6982 37.3344H66.0628V34.8848H73.1101Z" fill="#232323"/>
<path d="M49.3386 70.5961C49.0709 71.6413 48.5536 72.606 47.8311 73.4075C50.4993 74.3119 53.8157 74.3647 57.9235 74.3647C57.4055 75.0742 57.0527 75.8906 56.8909 76.754C52.4967 76.656 48.7733 76.347 45.8715 75.0732C44.1556 75.9969 42.3033 76.6407 40.3844 76.9801C39.9884 76.2077 39.4999 75.4864 38.9297 74.832C40.4983 74.6108 42.0345 74.2008 43.5048 73.611C42.7051 72.9715 42.013 72.2081 41.4547 71.3498L43.3013 70.5961H41.1155V62.3051H47.1453V61.1067H39.3518V58.9586H57.0944V61.1067H49.6401V62.3051H55.8432V70.5961H49.3386ZM43.3842 65.5085H47.1076V64.2422H43.3842V65.5085ZM43.3842 68.6289H47.0925C47.0925 68.4103 47.0925 68.1842 47.0925 67.9656V67.3174H43.3842V68.6289ZM43.5877 70.5961C44.135 71.2919 44.7979 71.8885 45.5474 72.3598C46.0792 71.8767 46.4853 71.2713 46.7307 70.5961H43.5877ZM53.4464 67.3174H49.6778V67.9807C49.6778 68.1842 49.6778 68.4103 49.6778 68.6289H53.4991L53.4464 67.3174ZM49.6778 64.2121V65.5085H53.4464V64.2422L49.6778 64.2121Z" fill="#232323"/>
<path d="M80.4235 67.6265C77.9739 73.6562 72.1326 76.0305 65.2134 76.9877C64.9729 76.2113 64.6334 75.469 64.2034 74.7793C66.9202 74.5522 69.585 73.9037 72.1024 72.8573C71.157 72.0679 70.1487 71.357 69.0875 70.7318C68.1448 71.1948 67.1758 71.6025 66.1857 71.9528C65.7984 71.2451 65.2879 70.6121 64.6783 70.0836C68.5675 68.9153 71.3261 67.1667 72.9692 65.4105C70.1047 67.1902 66.932 68.4174 63.6155 69.0284C63.3402 68.292 62.9649 67.5971 62.5 66.9632C64.8393 66.5913 67.1199 65.9148 69.2835 64.9507C68.4196 64.3095 67.513 63.7278 66.5701 63.2096C65.8169 63.6104 65.039 63.9629 64.2411 64.2649C63.791 63.5957 63.245 62.9964 62.6206 62.4861C66.2083 61.348 68.7031 59.6445 70.0975 57.9637L72.7129 58.514C72.4039 58.8531 72.0798 59.1998 71.7406 59.5466H75.7881L76.1951 59.441L77.7026 60.338C76.6804 62.1799 75.2525 63.765 73.5269 64.9734L75.9615 65.5386C75.5695 66.0086 75.1492 66.4542 74.7028 66.8727H78.3884L78.7955 66.7748L80.4235 67.6265ZM69.389 61.5515L68.6353 62.0791C69.6226 62.5628 70.5593 63.1435 71.4316 63.8126C72.4665 63.1957 73.4081 62.4343 74.2279 61.5515H69.389ZM72.2984 68.9078C71.9592 69.149 71.6125 69.3675 71.2281 69.5937C72.303 70.1739 73.3136 70.8662 74.243 71.6589C75.3522 70.9412 76.3036 70.0051 77.0393 68.9078H72.2984Z" fill="#232323"/>
<path d="M69.4538 89.7406L59.9946 99.1169L50.543 89.7406" stroke="#27B5F7" stroke-width="4" stroke-linecap="round" stroke-linejoin="round"/>
</g>
<defs>
<clipPath id="clip0_1668_11716">
<rect width="120" height="120" fill="white" transform="translate(0 0.5)"/>
</clipPath>
</defs>
</svg>
