<svg xmlns="http://www.w3.org/2000/svg" viewBox="0 0 200 200"><defs><style>.cls-1{fill:#f56977;}.cls-2{fill:#fff;}.cls-3{fill:#f8c341;}.cls-4{fill:#27b5f7;}</style></defs><g id="圖"><path class="cls-1" d="M95.28,179.22a4.14,4.14,0,0,1-4.12,4.17,5.42,5.42,0,0,0-5.47,4.71,5.23,5.23,0,0,0,5.23,5.74l7.93-.05a7,7,0,0,0,6.92-7l-.14-28.88L95.18,158Z"/><path class="cls-1" d="M132.14,179.22a4.15,4.15,0,0,0,4.13,4.17,5.41,5.41,0,0,1,5.46,4.71,5.23,5.23,0,0,1-5.22,5.74l-7.94-.05a7,7,0,0,1-6.92-7l.15-28.88,10.44.06Z"/><polygon class="cls-1" points="113.02 105.98 105.63 102.87 98.53 99.31 91.1 96.5 83.72 93.58 76.58 90.11 69.28 87.02 61.86 84.18 54.7 80.75 47.45 78.15 47.41 86.37 47.55 94.82 47.27 103.27 47.29 111.72 47.52 120.18 47.64 128.63 47.32 137.08 47.24 145.53 47.65 153.98 47.69 162.44 47.34 170.89 47.33 179.34 47.53 187.71 54.81 184.8 62.11 181.68 69.44 178.65 76.64 175.32 83.95 172.24 91.31 169.28 98.6 166.14 105.88 162.99 113.14 159.97 121.02 161.81 128.97 163.69 136.72 166.32 144.63 168.32 152.54 170.2 152.76 161.91 152.37 153.57 152.59 145.24 152.26 136.91 152.51 128.57 152.58 120.24 152.24 111.9 152.33 103.57 152.49 95.16 144.54 97.26 136.75 99.72 128.81 101.6 120.89 103.54 113.02 105.98"/><path class="cls-2" d="M100.57,126.2c0,5.09-1.29,10.59-6.8,10.59s-6.83-5.25-6.84-10.56,3-7.73,6.81-7.74S100.56,121.12,100.57,126.2Z"/><path d="M98.27,128.55c0,3.37-.85,7-4.51,7s-4.53-3.49-4.53-7,2-5.13,4.51-5.13S98.27,125.18,98.27,128.55Z"/><path class="cls-2" d="M135.62,126.14c0,5.08-1.3,10.58-6.81,10.59S122,131.47,122,126.16s3-7.72,6.81-7.73S135.61,121.06,135.62,126.14Z"/><path d="M133.32,128.55c0,3.37-.86,7-4.51,7s-4.53-3.49-4.54-7,2-5.13,4.52-5.13S133.31,125.18,133.32,128.55Z"/><path d="M112.25,145.66a20.23,20.23,0,0,1-8.08-1.67,1.07,1.07,0,1,1,.84-2,18.67,18.67,0,0,0,14.86-.12,1.07,1.07,0,0,1,1.44.46,1.06,1.06,0,0,1-.46,1.43A20.16,20.16,0,0,1,112.25,145.66Z"/><path d="M121.94,146.32a1.08,1.08,0,0,1-.94-.55l-2.45-4.44a1.06,1.06,0,1,1,1.86-1l2.46,4.45a1.06,1.06,0,0,1-.93,1.57Z"/><path d="M103.27,146.58a1.11,1.11,0,0,1-.43-.09,1.06,1.06,0,0,1-.54-1.4l2.06-4.71a1.07,1.07,0,0,1,2,.86l-2.07,4.7A1.05,1.05,0,0,1,103.27,146.58Z"/><path d="M87.27,76.26a1.06,1.06,0,0,1-.89-.48c-.2-.3-.39-.6-.57-.91S85.27,74,85,73.6s-.61-.74-1-1.13-.49-.54-.73-.83a9,9,0,0,1-.78-1.15,5.63,5.63,0,0,0-.68-1c-.46-.5-1-1-1.44-1.44l-.4-.38a7.92,7.92,0,0,0-1-.8c-.35-.25-.7-.49-1-.77-.49-.42-1-.8-1.51-1.19l-.52-.39a10.16,10.16,0,0,1-1-.85,8.05,8.05,0,0,0-1-.84c-.67-.45-1.4-.87-2.1-1.28l-.11-.07c-.3-.17-.59-.36-.89-.55-.45-.29-.88-.56-1.32-.79a15.75,15.75,0,0,0-2.41-1,2.71,2.71,0,0,0-.58-.11c.31.54.58,1,.81,1.5.15.3.31.58.46.87a13.14,13.14,0,0,1,.86,1.72,14.78,14.78,0,0,1,.54,1.81c.08.33.16.66.26,1a13.66,13.66,0,0,1,.41,1.89c.06.32.11.63.18.94a1.54,1.54,0,0,0,.08.19,2.05,2.05,0,0,1,.22,1.35c-.17.78-.79,1.72-2.71,1.85A5.39,5.39,0,0,1,65,71.8,12.26,12.26,0,0,1,63,70.51l-.31-.23a10.75,10.75,0,0,1-2-2c-.15-.18-.31-.35-.47-.52a5.42,5.42,0,0,1-1.32-1.86,5.09,5.09,0,0,1-.13-2.4c0-.22.05-.43.06-.64a6.74,6.74,0,0,1,.63-2.93,5.68,5.68,0,0,1,2.14-2.28,4.28,4.28,0,0,1,1.25-.51l-.18-.26c-.48-.65-1-1.26-1.57-1.9l-.16-.18c-.58-.66-1.17-1.28-1.76-1.83a11.62,11.62,0,0,0-1.38-1.05c-.22-.14-.43-.29-.63-.44A14.89,14.89,0,0,0,55,50.24l-.26-.12a10,10,0,0,0-1.95-.8l-.6-.16a7.2,7.2,0,0,0-1.72-.31,8.32,8.32,0,0,0-2.1.42l-.23.06c-.34.1-.69.2-1,.32l.41.76.57,1c.28.46.56.91.81,1.38s.48,1,.71,1.47c.15.32.3.64.46,1s.43.95.63,1.43.28.71.44,1a10.28,10.28,0,0,0,.56,1A11.84,11.84,0,0,1,52.46,60a10.28,10.28,0,0,1,.48,1.49,9.38,9.38,0,0,0,.33,1.09l.14.36a7.53,7.53,0,0,1,.65,2.09,6.42,6.42,0,0,1-.26,2.76,3,3,0,0,1-2.39,2,3.53,3.53,0,0,1-2.88-.39,8.87,8.87,0,0,1-1.92-1.59l-.3-.34c-.56-.63-1.14-1.29-1.67-2a13.54,13.54,0,0,1-1.16-1.89c-.14-.26-.28-.52-.43-.78A16.28,16.28,0,0,1,41.76,60a12.27,12.27,0,0,1-.52-3.12l0-.53a8.24,8.24,0,0,1,.07-2.75,8.31,8.31,0,0,1,1.52-3l.14-.2a9.64,9.64,0,0,1,1.31-1.58c-.28-.45-.57-.9-.86-1.35l-.38-.6a10.85,10.85,0,0,0-.78-1,10.59,10.59,0,0,1-.86-1.09l-.35-.5c-.37-.56-.75-1.12-1.14-1.67l-.43-.6a15.29,15.29,0,0,0-1.33-1.74A8.26,8.26,0,0,0,36,38.61l-.18-.1a5.6,5.6,0,0,0-1.78-.71,7.52,7.52,0,0,0-2.17.22,8.33,8.33,0,0,0-2.1.71h0c.07.16.15.31.22.46l.37.68c.31.58.63,1.17.92,1.78.16.34.35.67.54,1a14.26,14.26,0,0,1,.75,1.46l.23.53c.29.68.57,1.36.83,2.05s.37,1.12.53,1.66c.09.34.19.67.29,1s.27.73.41,1.08A14.77,14.77,0,0,1,35.4,52a15.56,15.56,0,0,1,.34,1.79c0,.33.09.66.16,1a12.94,12.94,0,0,1,.19,2c0,.3,0,.6,0,.88a13.55,13.55,0,0,1,.08,2.94c-.09.62-.34,2.52-2.26,2.8l-.34.06a4.58,4.58,0,0,1-2.95-.22,6.5,6.5,0,0,1-2-2l-.21-.28a9.21,9.21,0,0,1-1-1.78c-.11-.24-.22-.48-.34-.71s-.36-.6-.57-.92a8.67,8.67,0,0,1-.84-1.43c-.18-.41-.34-.83-.49-1.24s-.3-.83-.47-1.2-.24-.46-.37-.7a8.19,8.19,0,0,1-.78-1.72,7.3,7.3,0,0,1-.22-1.86c0-.28,0-.55-.05-.82s-.06-.47-.1-.71a8,8,0,0,1-.14-2,6.86,6.86,0,0,1,.51-1.91c.09-.23.18-.47.25-.71s.13-.47.18-.72a6.34,6.34,0,0,1,.67-1.91,8.27,8.27,0,0,1,1.64-1.82l.5-.45.27-.25a3.24,3.24,0,0,0-.17-.32,12.37,12.37,0,0,0-.92-1.24c-.23-.29-.47-.58-.68-.87A17.45,17.45,0,0,0,24,34l-.3-.32c-.21-.25-.42-.5-.62-.76a9.43,9.43,0,0,0-.92-1A8.55,8.55,0,0,0,20.84,31l-.62-.38a9.46,9.46,0,0,0-2-.91,8.43,8.43,0,0,1-.83-.33,3.31,3.31,0,0,0-1.2-.37h0a3.63,3.63,0,0,0-1.42.5c-.14.07-.28.15-.42.21A5.08,5.08,0,0,0,12.8,30.9a3.94,3.94,0,0,0-1,1.59,2.39,2.39,0,0,0,.1,1.65,1.07,1.07,0,0,1-.57,1.39A1.05,1.05,0,0,1,10,35a4.53,4.53,0,0,1-.2-3,6,6,0,0,1,1.44-2.48,7.15,7.15,0,0,1,2.23-1.66l.39-.19a5.25,5.25,0,0,1,2.37-.73h0a5,5,0,0,1,2.05.55c.22.09.43.19.65.26a11,11,0,0,1,2.44,1.14l.56.34a9.75,9.75,0,0,1,1.64,1.12,10.66,10.66,0,0,1,1.17,1.29c.18.23.35.45.54.66l.29.31a23.25,23.25,0,0,1,1.55,1.85c.18.26.39.52.6.77a16.17,16.17,0,0,1,1.08,1.48l.08.14a10.56,10.56,0,0,1,2.58-.86,9.22,9.22,0,0,1,2.85-.25,7.23,7.23,0,0,1,2.53.93l.18.1a10,10,0,0,1,2.65,2.15,16.32,16.32,0,0,1,1.53,2l.4.58c.41.56.8,1.14,1.19,1.72l.34.5a10.7,10.7,0,0,0,.71.9,10.06,10.06,0,0,1,1,1.23l.37.58c.31.47.61.95.91,1.42.49-.19,1-.34,1.48-.48l.22-.07a10,10,0,0,1,2.65-.5,9.07,9.07,0,0,1,2.32.39l.55.15a11.71,11.71,0,0,1,2.37.94l.26.13a15.94,15.94,0,0,1,2.41,1.42l.58.4a13.43,13.43,0,0,1,1.64,1.25c.65.61,1.29,1.28,1.91,2l.16.18c.57.65,1.15,1.32,1.68,2,.32.43.62.86.91,1.28h0a7.42,7.42,0,0,1,2.52.22,17.58,17.58,0,0,1,2.73,1.13c.54.27,1,.59,1.51.89.27.17.54.35.82.51l.1.06c.73.43,1.49.87,2.21,1.35a9.53,9.53,0,0,1,1.26,1.06,9,9,0,0,0,.81.7l.51.39c.53.4,1.09.82,1.62,1.27a7.67,7.67,0,0,0,.86.64,10.77,10.77,0,0,1,1.29,1l.4.38c.52.5,1,1,1.53,1.54a7.31,7.31,0,0,1,1,1.34,7.39,7.39,0,0,0,.59.9c.22.26.44.51.67.76.36.4.74.82,1.09,1.29s.64,1,.93,1.42c.17.28.35.57.53.84a1.07,1.07,0,0,1-.3,1.48A1,1,0,0,1,87.27,76.26ZM64.07,59.07a3.31,3.31,0,0,0-1.47.4,3.43,3.43,0,0,0-1.34,1.45,4.94,4.94,0,0,0-.38,2c0,.25-.05.5-.08.76a3.47,3.47,0,0,0,0,1.41,4,4,0,0,0,.87,1.15c.2.21.39.41.57.63a9.31,9.31,0,0,0,1.63,1.63l.33.24a10,10,0,0,0,1.69,1.08,3.69,3.69,0,0,0,1.59.16,1.82,1.82,0,0,0,.72-.15l0-.06A2.46,2.46,0,0,1,68,69.2c-.07-.33-.13-.67-.19-1a14.76,14.76,0,0,0-.35-1.64c-.11-.36-.21-.73-.3-1.1a12.54,12.54,0,0,0-.44-1.53,16,16,0,0,0-.75-1.49c-.17-.31-.34-.62-.5-.93-.35-.71-.77-1.46-1.33-2.37ZM68.26,70ZM45.32,50.8c-.22.26-.44.56-.66.87l-.14.21a6.43,6.43,0,0,0-1.18,2.21,6.55,6.55,0,0,0,0,2.08l0,.52a10.34,10.34,0,0,0,.41,2.61,13.88,13.88,0,0,0,1.12,2.5c.16.28.31.56.46.84a11.73,11.73,0,0,0,1,1.6c.48.64,1,1.27,1.57,1.87l.3.34a7.82,7.82,0,0,0,1.48,1.22,1.42,1.42,0,0,0,1.23.1c.66-.15.79-.38.87-.63A4.32,4.32,0,0,0,52,65.31a6.07,6.07,0,0,0-.5-1.53l-.15-.38a10.44,10.44,0,0,1-.42-1.35,8.63,8.63,0,0,0-.37-1.18,9.06,9.06,0,0,0-.62-1.12c-.23-.38-.46-.77-.67-1.2s-.33-.76-.48-1.15-.35-.86-.56-1.28-.32-.67-.48-1-.43-.92-.67-1.37-.49-.85-.74-1.27-.41-.67-.61-1ZM28.06,40.12l-.26.24a6.43,6.43,0,0,0-1.25,1.34A4.48,4.48,0,0,0,26.14,43c-.07.3-.14.59-.22.87s-.19.57-.3.85A4.94,4.94,0,0,0,25.24,46a6.63,6.63,0,0,0,.12,1.49c0,.27.09.53.11.8s.05.65.06,1a6,6,0,0,0,.14,1.34,7.34,7.34,0,0,0,.6,1.29c.15.27.3.54.43.81.21.44.38.92.55,1.38s.28.75.44,1.12a6.79,6.79,0,0,0,.65,1.09,11.54,11.54,0,0,1,.7,1.14c.13.26.26.53.38.79a7.7,7.7,0,0,0,.75,1.38l.22.3a5,5,0,0,0,1.29,1.36,3,3,0,0,0,1.62,0l.36-.05c.13,0,.32,0,.45-1A11.75,11.75,0,0,0,34,57.8q0-.49-.06-1a9.52,9.52,0,0,0-.15-1.6c-.07-.36-.12-.73-.18-1.11a12.89,12.89,0,0,0-.28-1.53,13.23,13.23,0,0,0-.48-1.3c-.16-.4-.32-.81-.46-1.23s-.21-.7-.32-1.06-.29-1-.48-1.51c-.24-.66-.52-1.31-.79-2l-.23-.54A12,12,0,0,0,30,43.72c-.22-.38-.43-.76-.62-1.16-.27-.57-.57-1.13-.86-1.67l-.38-.7Z"/><path d="M126.26,92.73a1,1,0,0,1-.29,0,1.07,1.07,0,0,1-.73-1.32,8.78,8.78,0,0,0,.21-1,10.1,10.1,0,0,1,.3-1.36c.16-.52.34-1,.52-1.51.1-.27.19-.53.28-.79l.21-.6q.28-.87.6-1.71c.12-.3.22-.6.33-.91.16-.47.32-.94.52-1.39l.28-.66q.33-.83.69-1.59A13.72,13.72,0,0,1,130,78.5c.17-.27.33-.53.48-.8a8.72,8.72,0,0,1,.87-1.26,7.56,7.56,0,0,0,.55-.75c.16-.26.3-.56.45-.87A7.45,7.45,0,0,1,133,73.5a10.12,10.12,0,0,1,1-1.18l.62-.66c.2-.25.37-.51.55-.78a8,8,0,0,1,.93-1.23c.6-.61,1.24-1.16,1.85-1.68a7,7,0,0,1,1.33-.86,6.35,6.35,0,0,0,.79-.46,5.37,5.37,0,0,0,.65-.63A5.54,5.54,0,0,1,142,65a6,6,0,0,1,1.47-.59,4.41,4.41,0,0,0,.87-.31l.46-.23c.56-.29,1.13-.58,1.75-.85.82-.34,1.56-.63,2.29-.89.57-.19,1.14-.36,1.73-.52l.62-.18c.63-.19,1.28-.35,1.94-.51l.42-.1a5.62,5.62,0,0,0,.91-.33,8.15,8.15,0,0,1,1.42-.47c.18,0,.37-.06.56-.09.31-.49.64-1,1-1.42l.81-1.15c.34-.48.67-1,1-1.43a9.23,9.23,0,0,0,.57-.82,10.34,10.34,0,0,1,.88-1.22,6.82,6.82,0,0,1,1.15-1,7.68,7.68,0,0,0,.77-.63,8.68,8.68,0,0,0,.63-.77,9.1,9.1,0,0,1,1-1.13,8,8,0,0,1,1.19-.89,8.12,8.12,0,0,0,.81-.6,6.61,6.61,0,0,0,.67-.71,7.46,7.46,0,0,1,1-1l.71-.59c.37-.32.74-.64,1.13-.94s.51-.41.76-.62.73-.6,1.11-.88a6.21,6.21,0,0,1,1.32-.69,4.11,4.11,0,0,0,.84-.41l.59-.42,1.35-1a5.14,5.14,0,0,0,.7-.65,6,6,0,0,1,1.08-1,9.47,9.47,0,0,1,1.2-.65,6.42,6.42,0,0,0,.91-.47c.31-.2.6-.42.9-.63s.69-.51,1-.74a10.9,10.9,0,0,1,1.15-.63,8.46,8.46,0,0,0,.94-.5c.31-.2.6-.42.9-.64s.68-.51,1-.73a9.18,9.18,0,0,0,.85-.65,10.51,10.51,0,0,1,1-.79c.38-.24.76-.43,1.13-.62a9.24,9.24,0,0,0,.95-.51,1.06,1.06,0,0,1,1.47.31,1.05,1.05,0,0,1-.3,1.47,12.4,12.4,0,0,1-1.17.64,10.36,10.36,0,0,0-.93.5,8.84,8.84,0,0,0-.83.64,11.29,11.29,0,0,1-1.06.8c-.31.2-.61.42-.9.64s-.68.51-1,.73a8.48,8.48,0,0,1-1.14.62,10.19,10.19,0,0,0-.94.51c-.33.21-.64.44-.95.66s-.65.48-1,.7a9.35,9.35,0,0,1-1.16.62,7.32,7.32,0,0,0-.93.49,4.7,4.7,0,0,0-.72.66,6,6,0,0,1-1,.94l-1.31.93-.6.43a6.51,6.51,0,0,1-1.26.64,4.29,4.29,0,0,0-.86.43c-.36.26-.69.53-1,.81l-.82.66c-.36.28-.7.57-1.05.87l-.74.63a5.43,5.43,0,0,0-.73.77,9.61,9.61,0,0,1-.89.93,9.84,9.84,0,0,1-1,.77,6.18,6.18,0,0,0-.9.66,7.49,7.49,0,0,0-.75.88,11.39,11.39,0,0,1-.8,1,8.55,8.55,0,0,1-1,.84,6.77,6.77,0,0,0-.83.7,8.64,8.64,0,0,0-.68,1,9.81,9.81,0,0,1-.7,1c-.33.42-.64.87-.95,1.31l-.85,1.19h0a9.06,9.06,0,0,1,1.64,0,7.66,7.66,0,0,1,2.47.91,4.34,4.34,0,0,1,2.17,2c.7,1.61-.14,3.13-.74,4.24a16.55,16.55,0,0,1-1.3,2l-.42.62a8,8,0,0,1-1,1.3,10.78,10.78,0,0,1-1.32,1.08l-.54.4c-.2.16-.4.34-.59.52a7.15,7.15,0,0,1-1.24,1,20.66,20.66,0,0,1-2.1,1.1,3.87,3.87,0,0,1-2.89.25,3.23,3.23,0,0,1-1.67-3.64,17.06,17.06,0,0,1,.42-1.84c.06-.21.12-.42.17-.63l.18-.76a13.94,13.94,0,0,1,.45-1.71,6.38,6.38,0,0,1,.78-1.42,4.43,4.43,0,0,0,.49-.8c.31-.7.6-1.31.89-1.88a8.64,8.64,0,0,1-.94.32l-.43.1c-.62.15-1.24.3-1.84.48l-.64.18c-.54.16-1.08.31-1.6.49-.69.24-1.4.52-2.17.84-.54.24-1.06.5-1.61.78l-.47.24a7.14,7.14,0,0,1-1.23.45,4.49,4.49,0,0,0-1,.36,4.3,4.3,0,0,0-.75.7,6.47,6.47,0,0,1-1,.91,7.5,7.5,0,0,1-1,.62,5.23,5.23,0,0,0-.94.59c-.58.5-1.18,1-1.72,1.56a6.34,6.34,0,0,0-.68.91,9.67,9.67,0,0,1-.69,1c-.23.27-.48.53-.74.79a8.68,8.68,0,0,0-.83.93,7.33,7.33,0,0,0-.53,1,8.68,8.68,0,0,1-.56,1.09c-.21.32-.44.63-.68.94a6.35,6.35,0,0,0-.68,1c-.17.31-.36.61-.55.91a11.93,11.93,0,0,0-.65,1.12c-.23.48-.44,1-.65,1.49l-.29.68c-.17.4-.31.82-.46,1.25s-.23.65-.35,1c-.21.52-.39,1.07-.58,1.62l-.21.62c-.09.27-.19.54-.29.81-.17.47-.34.94-.49,1.43a9.06,9.06,0,0,0-.23,1.07,10.17,10.17,0,0,1-.27,1.26A1,1,0,0,1,126.26,92.73Zm31.45-30.81-.33.65-.31.58c-.33.62-.66,1.29-1,2.11a6.23,6.23,0,0,1-.67,1.14,4.74,4.74,0,0,0-.53.92,14.27,14.27,0,0,0-.39,1.47c-.06.28-.12.55-.19.82s-.11.44-.17.67a13,13,0,0,0-.38,1.62c-.09.53,0,1.2.34,1.32a2,2,0,0,0,1.23-.2,19.88,19.88,0,0,0,1.9-1,5.42,5.42,0,0,0,.87-.72c.24-.23.49-.46.74-.66l.6-.44a8.78,8.78,0,0,0,1.06-.86,6.32,6.32,0,0,0,.72-1,8,8,0,0,1,.51-.74,15.43,15.43,0,0,0,1.12-1.73c.53-1,.92-1.77.66-2.38a2.62,2.62,0,0,0-1.21-1,5.68,5.68,0,0,0-1.79-.68,7.19,7.19,0,0,0-1.54,0l-1,0Z"/><path d="M112.6,87.56a1.07,1.07,0,0,1-1.06-1,6.5,6.5,0,0,0-.12-.75,6.64,6.64,0,0,1-.17-1c0-.27-.06-.53-.1-.8a8.55,8.55,0,0,1-.13-1,5.08,5.08,0,0,1,.07-1.13,4.47,4.47,0,0,0,0-.69c0-.28,0-.56-.07-.83s-.08-.65-.09-1-.06-.52-.1-.78a7.25,7.25,0,0,1-.13-1c0-.34,0-.68,0-1s0-.54,0-.8,0-.68,0-1,0-.54,0-.81c0-.61,0-1.21,0-1.81,0-.34,0-.69,0-1s0-.53,0-.78a3.26,3.26,0,0,0-.12-.68,4.8,4.8,0,0,1-.17-1.14,6.19,6.19,0,0,1,.12-1.11,5,5,0,0,0,.08-.7c0-.35,0-.7,0-1s0-.52,0-.78a6.3,6.3,0,0,0,0-.75A7.27,7.27,0,0,1,110.6,63c0-.43,0-.87.05-1.3l0-.51c0-.35.06-.7.1-1s.06-.52.07-.77a9.48,9.48,0,0,1,.14-1.07c0-.25.08-.49.1-.74,0-.45.07-.89.11-1.33l0-.48c0-.26,0-.51,0-.76s0-.71.09-1.06a6.45,6.45,0,0,0,0-.76,7.92,7.92,0,0,1,0-1.08,9.71,9.71,0,0,1,.23-1.08,6,6,0,0,0,.16-.71c0-.25.07-.5.1-.74s.09-.72.15-1.07.06-.51.08-.76a9.2,9.2,0,0,1,.13-1.07c0-.1,0-.19.07-.29l-.18.17a8.75,8.75,0,0,1-.84.72q-.32.23-.63.48c-.29.22-.57.44-.87.64a10.5,10.5,0,0,1-.9.57l-.69.43c-.22.15-.43.32-.64.48a10.77,10.77,0,0,1-.86.65c-.23.14-.45.3-.67.46s-.58.41-.87.6-.63.35-1,.51-.48.23-.71.37-.62.35-.93.52l-.71.38-.69.43c-.3.19-.6.38-.91.55a5.82,5.82,0,0,0-.66.44c-.3.2-.6.41-.92.58a5.69,5.69,0,0,1-1.08.42,4.17,4.17,0,0,0-.69.26l-.34.18a7.94,7.94,0,0,1-1.34.62,6,6,0,0,1-2,.4A3.52,3.52,0,0,1,91,56.33a3.81,3.81,0,0,1-1.25-2.76,7.47,7.47,0,0,1,.34-2.17l.09-.35a4.87,4.87,0,0,0,.09-.72,5.89,5.89,0,0,1,.19-1.18,7.45,7.45,0,0,1,.42-1.07,7,7,0,0,0,.28-.71c.08-.25.14-.5.2-.76a7.08,7.08,0,0,1,.29-1.09,7.71,7.71,0,0,1,.45-1c.11-.24.23-.48.32-.72a8.37,8.37,0,0,1,.48-1c.12-.24.25-.47.35-.71a4.27,4.27,0,0,0,.18-.69,5.73,5.73,0,0,1,.32-1.15c.14-.32.3-.64.47-1l.18-.36-.72.23c-.23.07-.47.14-.7.23-.59.23-1.19.46-1.8.66l-.44.15c-.46.16-.92.32-1.38.45l-.66.2c-.39.13-.79.25-1.19.34a5.9,5.9,0,0,1-1.21.12,4.17,4.17,0,0,0-.71.05c-.24,0-.48.1-.71.16a9.66,9.66,0,0,1-1.17.24,10.55,10.55,0,0,1-1.36.06l-.69,0a6.06,6.06,0,0,0-.73.09,6.91,6.91,0,0,1-1.35.12,6.8,6.8,0,0,1-1.37-.26,5.73,5.73,0,0,0-.69-.16,5.05,5.05,0,0,0-.68-.06,6.34,6.34,0,0,1-1.43-.21A5.65,5.65,0,0,1,74,40.66a4.09,4.09,0,0,0-1.14-.55,5.09,5.09,0,0,1-1.41-.69,4.87,4.87,0,0,1-1-1.13,4.21,4.21,0,0,0-.35-.48l-.41-.42a6,6,0,0,1-1-1.12,8.61,8.61,0,0,1-.64-1.39c-.06-.16-.12-.32-.19-.48a14.59,14.59,0,0,1-.63-1.9c0-.19-.11-.38-.17-.57a9,9,0,0,1-.34-1.38A12.21,12.21,0,0,1,66.72,29v-.42c0-.58,0-1.18.07-2s.1-1.32.2-1.95c.07-.43.18-.85.28-1.27,0-.21.11-.42.15-.63.14-.62.29-1.24.46-1.86.1-.37.24-.72.37-1.08s.19-.48.26-.72.15-.53.22-.79.18-.69.29-1a1.08,1.08,0,0,1,1.35-.68A1.06,1.06,0,0,1,71,17.91c-.1.3-.18.6-.26.9s-.15.59-.24.89-.2.57-.31.86a8.14,8.14,0,0,0-.31.87c-.16.58-.3,1.17-.43,1.77,0,.23-.11.45-.17.68A9.87,9.87,0,0,0,69.09,25c-.09.55-.13,1.11-.18,1.7-.06.8-.08,1.34-.07,1.85V29a9.22,9.22,0,0,0,.06,1.31,6.32,6.32,0,0,0,.26,1c.07.22.14.43.19.65a12.1,12.1,0,0,0,.55,1.64l.21.53a7.87,7.87,0,0,0,.46,1,4.09,4.09,0,0,0,.64.72c.17.17.35.35.51.53a8.16,8.16,0,0,1,.5.66,3,3,0,0,0,.55.67,3.17,3.17,0,0,0,.8.36,5.67,5.67,0,0,1,.84.34c.25.12.49.27.73.41a3.92,3.92,0,0,0,.85.45,4.22,4.22,0,0,0,.94.12,8.65,8.65,0,0,1,.89.09,6.1,6.1,0,0,1,.92.21,5,5,0,0,0,.91.18,5.18,5.18,0,0,0,.91-.09c.32-.05.65-.1,1-.12h.77c.4,0,.78,0,1.13,0a6.8,6.8,0,0,0,.89-.19,8.63,8.63,0,0,1,.88-.2,7.58,7.58,0,0,1,1-.08,3.78,3.78,0,0,0,.8-.07,8.38,8.38,0,0,0,1-.29l.73-.22c.43-.12.85-.26,1.27-.41l.46-.16c.57-.19,1.13-.4,1.7-.63a8,8,0,0,1,.87-.28,5.61,5.61,0,0,0,.85-.3c.56-.24,1.11-.5,1.65-.77l.2-.11c.12-.28.24-.54.36-.81s.3-.59.46-.88.25-.47.37-.71.22-.47.32-.71.26-.63.41-.93a10.33,10.33,0,0,1,.57-.91,5,5,0,0,0,.4-.62q.42-.8.87-1.59a6.44,6.44,0,0,0,.3-.65,7.33,7.33,0,0,1,.47-1,9,9,0,0,1,.62-.9,6.36,6.36,0,0,0,.43-.59c.2-.31.42-.61.64-.9l.42-.58a5.45,5.45,0,0,0,.32-.6,5.46,5.46,0,0,1,.57-1c.36-.49.75-1,1.14-1.44s.58-.67.88-1l.35-.38c.35-.39.73-.76,1.11-1.13l.19-.19c.44-.43.88-.86,1.35-1.26l.41-.37c.32-.29.65-.58,1-.85a5.65,5.65,0,0,1,2.85-1.06c1.36-.16,2.93.41,3.28,1.78a3.55,3.55,0,0,1-.55,2.52l-.06.11c-.23.44-.48.88-.74,1.32l-.2.35c-.12.21-.23.43-.34.66s-.35.7-.56,1l-.11.16c-.31.48-.62,1-1,1.45s-.49.64-.75.95l-.44.55c-.3.38-.61.75-.92,1.11l-.31.37c-.41.48-.83,1-1.26,1.44-.28.3-.58.58-.88.87l-.49.47-.44.45c-.3.31-.6.61-.92.9l-.35.33c-.35.32-.7.65-1.07.95s-1,.81-1.5,1.2l-.52.4c-.33.27-.66.53-1,.77s-.86.57-1.3.84l-.32.2a7,7,0,0,1-1.07.52,5.06,5.06,0,0,0-.67.3c-.21.12-.41.27-.61.41l0,0-.19.42L97,38.4c-.16.34-.32.67-.47,1s-.27.56-.41.83-.29.56-.41.84a4.35,4.35,0,0,0-.19.72,5.45,5.45,0,0,1-.29,1.08c-.13.31-.29.6-.44.89a8,8,0,0,0-.38.78c-.11.29-.25.58-.39.87a8.5,8.5,0,0,0-.36.82,7.79,7.79,0,0,0-.22.83c-.07.32-.14.65-.24,1s-.24.61-.37.91a5.55,5.55,0,0,0-.32.8,4.9,4.9,0,0,0-.11.77,6,6,0,0,1-.15,1.05l-.1.38a5.64,5.64,0,0,0-.26,1.54,1.66,1.66,0,0,0,.54,1.26,1.4,1.4,0,0,0,.88.41,5.7,5.7,0,0,0,1.24-.28,6.19,6.19,0,0,0,1-.49l.39-.2a5.58,5.58,0,0,1,1-.4,4.3,4.3,0,0,0,.7-.26,6.62,6.62,0,0,0,.71-.46,9.23,9.23,0,0,1,.84-.54L100,52c.26-.17.51-.33.77-.48l.79-.43c.28-.14.55-.29.82-.45a9.17,9.17,0,0,1,.88-.46c.26-.13.51-.25.75-.4s.52-.35.77-.53.49-.35.75-.52.47-.34.7-.52.51-.4.77-.58l.79-.49c.26-.16.52-.31.77-.49s.53-.39.79-.59l.68-.52a6.31,6.31,0,0,0,.62-.54,9.72,9.72,0,0,1,.77-.67l.69-.5c.27-.19.54-.38.8-.58l.21-.17c.06-.23.11-.47.16-.71s.16-.73.27-1.07a6,6,0,0,1,.49-1.08,4.92,4.92,0,0,0,.3-.61c.14-.38.3-.75.47-1.12l.25-.57a5.89,5.89,0,0,0,.21-.68,5.85,5.85,0,0,1,.37-1.09,9.76,9.76,0,0,1,.58-1c.13-.19.25-.39.36-.59s.21-.44.3-.66a7.36,7.36,0,0,1,.5-1,10.31,10.31,0,0,1,.68-.95c.14-.18.28-.36.41-.55s.47-.62.71-.92.3-.36.43-.54c.37-.49.75-1,1.14-1.45.15-.19.3-.39.44-.59a9.32,9.32,0,0,1,.66-.86,14.6,14.6,0,0,1,1.35-1.37,6.43,6.43,0,0,1,1.77-1.2,4.56,4.56,0,0,1,2.31-.19,3.4,3.4,0,0,1,3.08,3.88,6.4,6.4,0,0,1-.8,2.42,8.67,8.67,0,0,1-1.23,1.52l-.26.28c-.18.2-.35.41-.52.62s-.45.56-.7.82-.5.51-.76.75l-.58.56-.39.4-.92.94-.56.56c-.25.26-.5.52-.76.77a5.14,5.14,0,0,1-1,.69,4.43,4.43,0,0,0-.58.4l-.56.53c-.27.25-.53.51-.81.75s-.56.49-.84.72l-.58.49a7.4,7.4,0,0,0-.56.56,8,8,0,0,1-.78.76c-.28.23-.59.43-.89.63s-.45.29-.65.45l-.6.49,0,0c0,.12,0,.24-.08.36s-.1.51-.16.76-.15.54-.23.81-.17.59-.24.9a7,7,0,0,0-.09.8,8.23,8.23,0,0,1-.11,1c0,.31-.09.63-.13,1s-.06.53-.1.8-.13.61-.21.92a5.68,5.68,0,0,0-.17.82,3.84,3.84,0,0,0,0,.76,7.09,7.09,0,0,1,0,1c0,.32,0,.65-.07,1l-.06.8,0,.49c0,.42-.07.85-.1,1.29s-.07.62-.12.94a5.71,5.71,0,0,0-.11.83q0,.45-.09.9c0,.29-.07.59-.08.88l0,.52c0,.42,0,.84,0,1.27a5,5,0,0,0,.06.76,6.63,6.63,0,0,1,.07,1c0,.27,0,.54,0,.82s0,.64,0,1a5.61,5.61,0,0,1-.12,1,4.16,4.16,0,0,0-.08.74,3.11,3.11,0,0,0,.11.66,5.34,5.34,0,0,1,.18,1.14c0,.31,0,.62,0,.94s0,.57,0,.85c0,.59,0,1.19,0,1.8,0,.3,0,.61,0,.91s0,.59,0,.89,0,.61,0,.92,0,.59,0,.88a6.76,6.76,0,0,0,.1.77,8.89,8.89,0,0,1,.13,1c0,.28.05.56.08.84s.07.63.09,1a6.24,6.24,0,0,1-.07,1.09,3.94,3.94,0,0,0-.06.72c0,.26.06.53.1.79a8.28,8.28,0,0,1,.13,1,6.37,6.37,0,0,0,.13.74,7.58,7.58,0,0,1,.16,1,1.06,1.06,0,0,1-1,1.14Zm13.8-61.23a1.78,1.78,0,0,0-.59.09,4.67,4.67,0,0,0-1.17.84,11.47,11.47,0,0,0-1.15,1.16,7.38,7.38,0,0,0-.54.71c-.17.24-.34.47-.53.7q-.54.68-1.08,1.38c-.15.21-.32.41-.48.61a8.84,8.84,0,0,0-.6.77c-.15.22-.32.44-.5.66s-.37.49-.54.75-.23.47-.35.74a9.28,9.28,0,0,1-.39.85c-.13.24-.28.47-.43.71a9,9,0,0,0-.46.79,4.38,4.38,0,0,0-.23.72,8.12,8.12,0,0,1-.31,1c-.09.21-.18.42-.28.63s-.28.64-.41,1a1.94,1.94,0,0,1-.15.36l.25-.26a9.66,9.66,0,0,1,.72-.71l.6-.51.8-.68c.26-.22.5-.46.75-.7l.59-.56a6.25,6.25,0,0,1,.92-.65,3.11,3.11,0,0,0,.6-.41c.24-.23.47-.47.7-.71l.59-.6.89-.9.41-.41c.2-.21.41-.41.62-.61s.47-.44.69-.68a7.44,7.44,0,0,0,.58-.68c.2-.25.4-.49.61-.73l.29-.3a6.92,6.92,0,0,0,.94-1.14,4.3,4.3,0,0,0,.52-1.61,1.29,1.29,0,0,0-.34-1.11,1.4,1.4,0,0,0-.9-.39A4.37,4.37,0,0,0,126.4,26.33ZM113,17h-.2a3.48,3.48,0,0,0-1.8.65c-.3.22-.59.48-.87.73s-.29.27-.44.39c-.43.38-.84.78-1.25,1.18l-.19.19c-.35.34-.7.68-1,1l-.36.4c-.27.29-.55.58-.8.89s-.73.9-1.08,1.36a4.77,4.77,0,0,0-.35.65,5.69,5.69,0,0,1-.49.89c-.15.22-.31.44-.47.65s-.38.51-.54.77-.35.5-.54.75a6.41,6.41,0,0,0-.48.68,5.42,5.42,0,0,0-.34.72,8.76,8.76,0,0,1-.4.88c-.29.51-.57,1-.85,1.54a7.52,7.52,0,0,1-.53.85,5.54,5.54,0,0,0-.42.65c-.13.26-.24.52-.35.79l-.18.42h0c.4-.25.81-.51,1.2-.78s.6-.44.89-.68l.56-.44c.48-.36,1-.74,1.43-1.13s.66-.58,1-.89l.36-.33c.29-.26.56-.54.82-.81l.47-.48.53-.51c.27-.25.53-.5.77-.76.42-.45.81-.91,1.2-1.38l.32-.37c.29-.34.58-.68.85-1l.49-.6c.22-.27.45-.54.65-.83.31-.44.61-.91.9-1.37l.1-.15c.17-.27.31-.56.45-.84s.26-.52.41-.77l.2-.36c.24-.41.48-.81.69-1.23l.06-.11a2.65,2.65,0,0,0,.38-1A1.22,1.22,0,0,0,113,17Z"/><path class="cls-3" d="M173.37,86.75c-3.16.93-14.22,2.07-14.92-.31s9.23-7.39,12.39-8.31,6.29.25,7,2.64S176.53,85.83,173.37,86.75Z"/><path class="cls-3" d="M89.05,12.11c.46,2.47.48,11-1.39,11.32s-4.9-7.6-5.36-10.07S83,8.6,84.84,8.25,88.59,9.63,89.05,12.11Z"/><path class="cls-4" d="M98.78,83.08c1.85,1.86,6.87,9.15,5.47,10.54S95.57,90,93.72,88.14s-2.22-4.49-.82-5.89S96.93,81.23,98.78,83.08Z"/><path class="cls-1" d="M47.8,24.39c1.59,1.67,5.85,8.17,4.59,9.36s-7.55-3.36-9.13-5-1.86-4-.6-5.18S46.22,22.73,47.8,24.39Z"/><path class="cls-4" d="M150.37,42.5c-2.7,3.54-13.85,13.62-16.55,11.56s4.1-15.47,6.8-19,7.07-4.73,9.77-2.67S153.07,39,150.37,42.5Z"/></g></svg>