<svg xmlns="http://www.w3.org/2000/svg" viewBox="0 0 200 200"><defs><style>.cls-1{fill:#ff0012;}.cls-2{fill:#27b5f7;}.cls-3{fill:#fff;}.cls-4{fill:#f56977;}.cls-5{fill:#f8c341;}</style></defs><g id="_12" data-name="12"><path class="cls-1" d="M227.56,276.22H-18.69V-36.5H227.56Zm-240.72-5.53H222V-31H-13.16Z"/></g><g id="圖"><path class="cls-2" d="M95.28,179.26a4.14,4.14,0,0,1-4.12,4.17,5.43,5.43,0,0,0-5.47,4.72,5.21,5.21,0,0,0,5.23,5.73l7.93,0a7,7,0,0,0,6.92-7L105.63,158,95.18,158Z"/><path class="cls-2" d="M132.14,179.26a4.15,4.15,0,0,0,4.13,4.17,5.42,5.42,0,0,1,5.46,4.72,5.21,5.21,0,0,1-5.22,5.73l-7.94,0a7,7,0,0,1-6.92-7L121.8,158l10.44.06Z"/><polygon class="cls-2" points="113.02 106.03 105.63 102.92 98.53 99.36 91.1 96.55 83.72 93.63 76.58 90.16 69.28 87.06 61.86 84.22 54.7 80.79 47.45 78.2 47.41 86.42 47.55 94.87 47.27 103.32 47.29 111.77 47.52 120.22 47.64 128.67 47.32 137.12 47.24 145.58 47.65 154.03 47.69 162.48 47.34 170.94 47.33 179.39 47.53 187.76 54.81 184.84 62.11 181.73 69.44 178.69 76.64 175.37 83.95 172.28 91.31 169.32 98.6 166.18 105.88 163.04 113.14 160.01 121.02 161.85 128.97 163.74 136.72 166.37 144.63 168.37 152.54 170.24 152.76 161.95 152.37 153.62 152.59 145.28 152.26 136.95 152.51 128.62 152.58 120.28 152.24 111.95 152.33 103.61 152.49 95.2 144.54 97.31 136.75 99.76 128.81 101.64 120.89 103.59 113.02 106.03"/><path class="cls-3" d="M100.57,126.25c0,5.08-1.29,10.58-6.8,10.59s-6.83-5.26-6.84-10.57,3-7.73,6.81-7.73S100.56,121.16,100.57,126.25Z"/><path d="M97.6,124.76c0,3.37-.86,7-4.51,7s-4.53-3.49-4.53-7,2-5.12,4.51-5.13S97.6,121.38,97.6,124.76Z"/><path class="cls-3" d="M135.62,126.19c0,5.08-1.3,10.58-6.81,10.59S122,131.52,122,126.21s3-7.73,6.81-7.74S135.61,121.1,135.62,126.19Z"/><path d="M132.65,124.76c0,3.37-.86,7-4.51,7s-4.53-3.49-4.54-7,2-5.12,4.51-5.13S132.64,121.38,132.65,124.76Z"/><path d="M113.1,145.48a1.15,1.15,0,0,1-.61-.19l-6-4.16a1.06,1.06,0,0,1,1.21-1.75l5.41,3.74,5.51-3.74a1.07,1.07,0,0,1,1.2,1.76l-6.12,4.15A1,1,0,0,1,113.1,145.48Z"/><polygon class="cls-4" points="62.32 18.5 59.24 20.3 56.23 22.09 53.46 24.24 51.67 27.32 51.13 33.37 48.72 36.67 45.52 39.37 41.37 40.07 37.31 41.08 33.39 41.97 29.46 42.87 25.66 44.17 21.83 45.35 23.78 48.58 24.93 52.23 26.95 55.49 28.34 59.03 29.47 62.66 30.44 66.33 31.61 69.93 32.98 73.31 36.73 72.08 40.43 70.3 44.51 69.86 48.52 69.2 52.57 68.83 56.64 69.01 60.66 68.24 64.27 66.43 67.61 63.52 70.3 59.93 73.38 54.97 76.43 52.7 79.57 50.56 83.21 49.41 86.75 47.95 85.31 44.33 83.52 40.86 82.36 37.12 80.44 33.71 78.84 30.17 77.17 26.65 75.71 23.04 74.14 19.47 72.95 15.72 69.35 16.5 65.86 17.54 62.32 18.5"/><path d="M100,93.68a1.07,1.07,0,0,1-1-.74c-.21-.65-.37-1.34-.53-2s-.31-1.31-.51-2-.38-1.34-.54-2-.32-1.31-.52-2-.39-1.27-.57-1.93-.38-1.31-.59-2a12.35,12.35,0,0,0-.74-1.7,15.4,15.4,0,0,1-.89-2.06c-.19-.62-.43-1.24-.66-1.86s-.49-1.31-.71-2a12,12,0,0,1-.42-2.17A11,11,0,0,0,92,69.54c-.21-.63-.4-1.26-.59-1.9s-.41-1.33-.62-2a17.17,17.17,0,0,0-.74-1.77,19.91,19.91,0,0,1-.82-2c-.23-.68-.46-1.36-.7-2s-.41-1.2-.61-1.81-.46-1.22-.72-1.86-.53-1.27-.76-1.94S86,53,85.85,52.32s-.4-1.32-.62-2a12.56,12.56,0,0,1-.48-2.18,11.76,11.76,0,0,0-.4-1.83c-.23-.65-.49-1.29-.75-1.92s-.5-1.25-.72-1.88A13.46,13.46,0,0,0,82,40.83a13.71,13.71,0,0,1-1-2c-.22-.61-.42-1.22-.63-1.82s-.46-1.36-.71-2a12,12,0,0,1-.52-2.21A9.82,9.82,0,0,0,78.81,31a8.07,8.07,0,0,0-1-1.6,9.55,9.55,0,0,1-1.15-1.94q-.77-1.92-1.53-3.75a15.82,15.82,0,0,1-.66-2.06,13.73,13.73,0,0,0-.59-1.81c-.33-.75-.69-1.47-1-2.18l-.71-1.46a1.06,1.06,0,1,1,1.93-.9q.33.71.69,1.41c.36.74.74,1.49,1.08,2.28a15.15,15.15,0,0,1,.69,2.1,15.79,15.79,0,0,0,.57,1.8c.52,1.23,1,2.49,1.55,3.78a7.76,7.76,0,0,0,.91,1.51,9.21,9.21,0,0,1,1.2,2.06,10.36,10.36,0,0,1,.53,2.2,9.42,9.42,0,0,0,.42,1.81c.25.69.49,1.38.73,2.08s.4,1.19.61,1.78a12,12,0,0,0,.82,1.65,13.74,13.74,0,0,1,1,2c.21.6.45,1.19.7,1.79s.54,1.34.78,2a13.6,13.6,0,0,1,.49,2.2,10.82,10.82,0,0,0,.39,1.82c.23.67.44,1.36.65,2.05s.36,1.23.57,1.84.45,1.19.7,1.81.54,1.31.77,2,.41,1.19.61,1.79.48,1.37.71,2.06A14,14,0,0,0,92,63a19.91,19.91,0,0,1,.82,2c.22.68.43,1.36.63,2s.38,1.25.58,1.86a13.11,13.11,0,0,1,.44,2.23,10.28,10.28,0,0,0,.34,1.8c.2.64.44,1.26.67,1.88s.49,1.31.7,2a12.73,12.73,0,0,0,.77,1.76,15.64,15.64,0,0,1,.86,2q.32,1,.6,2c.18.63.36,1.25.56,1.87s.39,1.4.56,2.08.31,1.27.49,1.85.4,1.42.56,2.11.3,1.25.49,1.83a1.07,1.07,0,0,1-.69,1.34A1.26,1.26,0,0,1,100,93.68Z"/><polygon class="cls-2" points="148.71 9.22 145.27 10.14 141.89 11.08 138.65 12.42 136.11 14.93 134.01 20.62 130.81 23.17 127.01 24.93 122.82 24.52 118.64 24.42 114.62 24.25 110.6 24.08 106.58 24.34 102.58 24.47 103.61 28.1 103.76 31.93 104.85 35.6 105.27 39.38 105.4 43.18 105.37 46.98 105.55 50.76 105.99 54.38 109.93 54.18 113.97 53.44 118.02 54.08 122.06 54.51 126.06 55.21 129.94 56.45 134.02 56.76 137.98 55.98 141.97 54.04 145.51 51.28 149.79 47.31 153.32 45.93 156.91 44.69 160.73 44.53 164.53 44.06 164.09 40.18 163.28 36.36 163.14 32.45 162.19 28.66 161.57 24.82 160.89 20.98 160.43 17.12 159.86 13.26 159.7 9.33 156.02 9.14 152.37 9.22 148.71 9.22"/><path d="M110.51,96.75a1.06,1.06,0,0,1-1.05-1,15.67,15.67,0,0,1-.12-2.09,14.92,14.92,0,0,0-.1-1.87,17.48,17.48,0,0,1-.12-2.08,17.86,17.86,0,0,0-.11-1.88c-.11-1-.15-1.51-.18-2s-.06-1-.17-1.93a7.06,7.06,0,0,0-.37-1.73,9.69,9.69,0,0,1-.46-2.16c-.1-1-.18-1.41-.26-1.89s-.18-1-.29-2a7.85,7.85,0,0,1,0-2.26,6,6,0,0,0,0-1.74c-.1-1-.14-1.49-.18-2s-.08-1-.19-1.95a10.78,10.78,0,0,0-.33-1.79,12.34,12.34,0,0,1-.4-2.12c-.1-1-.16-1.46-.23-1.95s-.12-1-.23-2a15.77,15.77,0,0,0-.29-1.86,20.71,20.71,0,0,1-.31-2.06c-.11-1-.14-1.53-.17-2s-.06-1-.16-1.91a8.24,8.24,0,0,1,0-2.25,6.08,6.08,0,0,0,0-1.75c-.1-.95-.18-1.42-.26-1.9s-.18-1-.28-2a6.9,6.9,0,0,0-.39-1.72,8.92,8.92,0,0,1-.48-2.17c-.11-1-.14-1.51-.18-2s-.07-1-.17-1.93a7.37,7.37,0,0,1,.07-2.28,5.67,5.67,0,0,0,.05-1.72,4.32,4.32,0,0,0-.46-1.61,6.28,6.28,0,0,1-.63-2.27l-.43-3.95a1.07,1.07,0,1,1,2.12-.22l.42,3.94a4.2,4.2,0,0,0,.46,1.61,6.28,6.28,0,0,1,.63,2.27,7.89,7.89,0,0,1-.06,2.29,5,5,0,0,0,0,1.71c.1,1,.14,1.51.17,2s.07,1,.18,1.94a6.35,6.35,0,0,0,.38,1.72,9.15,9.15,0,0,1,.48,2.18c.1,1,.18,1.42.27,1.89s.17,1,.28,2a8.18,8.18,0,0,1,0,2.24,6.08,6.08,0,0,0,0,1.75c.11,1,.13,1.52.16,2s.06,1,.16,1.92a15.77,15.77,0,0,0,.29,1.86,20,20,0,0,1,.32,2.06c.1,1,.17,1.46.23,2s.12,1,.23,2a9.81,9.81,0,0,0,.33,1.79,12.14,12.14,0,0,1,.4,2.12c.1,1,.15,1.5.19,2s.08,1,.18,1.94a7.77,7.77,0,0,1,0,2.25,6.31,6.31,0,0,0,0,1.74c.1,1,.19,1.41.27,1.89s.18,1,.29,2a7,7,0,0,0,.37,1.74,9.56,9.56,0,0,1,.46,2.16c.1,1,.14,1.51.17,2s.07,1,.17,1.93a17.59,17.59,0,0,1,.12,2.08,18.56,18.56,0,0,0,.12,1.88,17.17,17.17,0,0,1,.11,2.09,15,15,0,0,0,.1,1.88,1.07,1.07,0,0,1-.94,1.17Z"/><polygon class="cls-5" points="180.84 82.61 178.64 80.76 176.19 78.89 173.76 76.95 171.18 75.23 168.3 74.05 165.5 72.69 162.4 72.24 159.44 71.24 156.35 70.88 153.35 70.09 150.49 68.87 147.65 67.6 145.04 65.89 142.37 64.3 140.22 62.02 137.59 60.04 138.92 56.99 140.37 54.07 141.86 51.16 143.11 48.15 144.02 45 145.7 42.16 146.61 39 148.19 36.23 150.13 38.31 152.66 40.12 155.06 42.12 157.82 43.56 160.73 44.65 163.63 45.7 166.57 46.66 169.6 47.31 172.59 48.2 175.63 48.83 178.42 50.2 181.31 51.32 183.96 52.93 186.64 54.51 188.83 56.72 191.3 58.75 190.09 61.81 188.92 64.86 187.6 67.83 186.35 70.84 184.78 73.72 183.43 76.69 182.21 79.72 180.84 82.61"/><path d="M121.54,95.62a1.12,1.12,0,0,1-.44-.09,1.07,1.07,0,0,1-.53-1.41,12.25,12.25,0,0,1,.82-1.6,13.57,13.57,0,0,0,.71-1.41,16.64,16.64,0,0,1,.81-1.59c.2-.36.39-.7.72-1.42s.54-1.18.73-1.56.37-.74.7-1.49a5.8,5.8,0,0,0,.46-1.4,8.22,8.22,0,0,1,.6-1.82c.32-.74.46-1.12.6-1.5s.31-.83.67-1.63a6.81,6.81,0,0,1,1-1.68,4.74,4.74,0,0,0,.75-1.23c.35-.78.53-1.17.72-1.56s.35-.75.69-1.51a7.45,7.45,0,0,0,.51-1.43,11.24,11.24,0,0,1,.62-1.75c.34-.77.51-1.15.67-1.53l.68-1.57a12.4,12.4,0,0,0,.58-1.48,17.23,17.23,0,0,1,.65-1.67c.36-.8.56-1.18.75-1.57s.37-.73.71-1.48a7.19,7.19,0,0,1,1-1.68,4.66,4.66,0,0,0,.75-1.24c.33-.74.47-1.12.61-1.5s.31-.82.67-1.63a5.83,5.83,0,0,0,.44-1.39,7.64,7.64,0,0,1,.58-1.84c.36-.79.55-1.18.74-1.57s.36-.74.7-1.49a6.49,6.49,0,0,1,1.05-1.7A4.16,4.16,0,0,0,143,45a3.59,3.59,0,0,0,.34-1.32,5.58,5.58,0,0,1,.51-2l1.38-3.09a8.65,8.65,0,0,1,.93-1.66,6.83,6.83,0,0,0,.74-1.31,1.06,1.06,0,0,1,1.94.87,8.49,8.49,0,0,1-.93,1.65,7.54,7.54,0,0,0-.74,1.31l-1.38,3.1a3.36,3.36,0,0,0-.33,1.32,5.75,5.75,0,0,1-.52,2,6.3,6.3,0,0,1-1.05,1.69,4.39,4.39,0,0,0-.75,1.2c-.35.79-.54,1.18-.73,1.57s-.37.74-.7,1.49a5.68,5.68,0,0,0-.45,1.4,7.64,7.64,0,0,1-.58,1.84c-.33.74-.47,1.12-.61,1.5s-.31.83-.67,1.63a7.19,7.19,0,0,1-1,1.68,4.66,4.66,0,0,0-.75,1.24c-.35.79-.55,1.18-.75,1.57s-.37.73-.7,1.48a12.4,12.4,0,0,0-.58,1.48,17.23,17.23,0,0,1-.65,1.67c-.34.76-.51,1.15-.67,1.53l-.68,1.56a7.73,7.73,0,0,0-.51,1.44,11.24,11.24,0,0,1-.62,1.75c-.35.79-.54,1.17-.72,1.56s-.36.75-.7,1.51a7.14,7.14,0,0,1-1,1.68,4.83,4.83,0,0,0-.75,1.22c-.33.75-.47,1.12-.61,1.51s-.3.82-.66,1.63a6.3,6.3,0,0,0-.46,1.4,8.81,8.81,0,0,1-.59,1.82c-.36.79-.55,1.18-.74,1.56s-.37.74-.7,1.49a14.55,14.55,0,0,1-.81,1.59,15.17,15.17,0,0,0-.71,1.42,17.09,17.09,0,0,1-.82,1.61,11.21,11.21,0,0,0-.72,1.4A1.06,1.06,0,0,1,121.54,95.62Z"/></g></svg>