<svg xmlns="http://www.w3.org/2000/svg" viewBox="0 0 200 200"><defs><style>.cls-1{fill:#f8c341;}.cls-2{fill:#fff;}.cls-3{fill:#f56977;}.cls-4{fill:#27b5f7;}</style></defs><g id="圖"><path class="cls-1" d="M95.28,179.26a4.14,4.14,0,0,1-4.12,4.17,5.43,5.43,0,0,0-5.47,4.72,5.21,5.21,0,0,0,5.23,5.73l7.93,0a7,7,0,0,0,6.92-7L105.63,158,95.18,158Z"/><path class="cls-1" d="M132.14,179.26a4.15,4.15,0,0,0,4.13,4.17,5.42,5.42,0,0,1,5.46,4.72,5.21,5.21,0,0,1-5.22,5.73l-7.94,0a7,7,0,0,1-6.92-7L121.8,158l10.44.06Z"/><polygon class="cls-1" points="113.02 106.03 105.63 102.92 98.53 99.36 91.1 96.55 83.72 93.63 76.58 90.16 69.28 87.06 61.86 84.22 54.7 80.79 47.45 78.2 47.41 86.42 47.55 94.87 47.27 103.32 47.29 111.77 47.52 120.22 47.64 128.67 47.32 137.12 47.24 145.58 47.65 154.03 47.69 162.48 47.34 170.94 47.33 179.39 47.53 187.76 54.81 184.84 62.11 181.73 69.44 178.69 76.64 175.37 83.95 172.28 91.31 169.32 98.6 166.18 105.88 163.04 113.14 160.01 121.02 161.85 128.97 163.74 136.72 166.37 144.63 168.37 152.54 170.24 152.76 161.95 152.37 153.62 152.59 145.28 152.26 136.95 152.51 128.62 152.58 120.28 152.24 111.95 152.33 103.61 152.49 95.2 144.54 97.31 136.75 99.76 128.81 101.64 120.89 103.59 113.02 106.03"/><path class="cls-2" d="M100.57,126.25c0,5.08-1.29,10.58-6.8,10.59s-6.83-5.26-6.84-10.57,3-7.73,6.81-7.73S100.56,121.16,100.57,126.25Z"/><path d="M99.51,126.73c0,3.37-.86,7-4.52,7s-4.52-3.49-4.53-7,2-5.13,4.51-5.13S99.5,123.36,99.51,126.73Z"/><path class="cls-2" d="M135.62,126.19c0,5.08-1.3,10.58-6.81,10.59S122,131.52,122,126.21s3-7.73,6.81-7.74S135.61,121.1,135.62,126.19Z"/><path d="M134.55,126.73c0,3.37-.86,7-4.51,7s-4.53-3.49-4.54-7,2-5.13,4.52-5.13S134.54,123.36,134.55,126.73Z"/><path d="M112.91,146.93a15.47,15.47,0,0,1-8-2.41,1.07,1.07,0,0,1,1.22-1.75h0c.29.21,7.24,4.92,13.48-.66a1.06,1.06,0,1,1,1.42,1.58A12,12,0,0,1,112.91,146.93Z"/><path d="M121.53,146a1.07,1.07,0,0,1-.93-.54l-2.33-4.16a1.06,1.06,0,1,1,1.85-1l2.34,4.16a1.08,1.08,0,0,1-.41,1.45A1.11,1.11,0,0,1,121.53,146Z"/><polygon class="cls-3" points="69.13 53.46 64.93 54.73 60.89 56.23 56.96 58.02 52.72 58.97 48.73 60.62 44.61 61.86 40.73 63.82 36.49 64.76 32.63 66.79 28.25 68.22 27.31 63.67 25.77 59.65 23.85 55.76 22.38 51.71 20.95 47.64 19.5 43.59 18.51 39.37 16.9 35.36 15.15 31.41 14.15 27.31 17.96 25.54 22.11 24.35 26.08 22.66 30.21 21.42 34.2 19.78 38.24 18.27 42.48 17.36 46.33 15.31 50.62 14.48 54.71 12.57 56.01 16.88 57.53 20.9 58.89 25 60.17 29.11 62 33.03 63.09 37.22 64.56 41.27 66.5 45.15 67.7 49.31 69.13 53.46"/><polygon class="cls-1" points="191.57 24.62 189.48 27.73 186.8 30.78 183.8 33.57 181.45 36.91 178.94 40.11 176.05 42.99 173.82 46.44 171.16 49.52 168.28 52.4 165.66 55.52 163.31 58.86 160.26 61.61 157.71 64.79 155.16 68.13 153.8 64 152.27 60.05 150.62 56.15 149.15 52.17 147.43 48.29 146.05 44.28 144.5 40.34 142.87 36.42 141.7 32.33 140.12 28.4 138.1 24.63 137.09 20.47 135.66 16.48 133.48 12.4 137.85 13.88 142.08 14.34 146.26 15 150.46 15.64 154.53 16.87 158.71 17.6 162.81 18.72 167.07 19.04 171.11 20.45 175.35 20.84 179.4 22.2 183.55 23.11 187.82 23.43 191.57 24.62"/><polygon class="cls-4" points="133.94 61.98 134.06 66.67 132.28 71.02 130.8 75.47 127.69 78.97 124.55 82.38 120.88 85.27 116.5 86.89 112.07 88.26 107.44 89.02 102.73 88.68 98.21 87.31 93.98 85.28 90.4 82.29 86.88 79.23 84.53 75.2 82.28 71.14 81.19 66.61 80.48 61.98 81.33 57.38 82.08 52.75 83.99 48.45 86.58 44.48 89.99 41.19 93.84 38.44 98.29 36.84 102.81 35.76 107.44 35.28 112.09 35.6 116.7 36.51 120.97 38.54 124.73 41.37 128.2 44.55 131.01 48.37 132.45 52.88 133.9 57.31 133.94 61.98"/><path d="M41.32,101.19a1.06,1.06,0,0,1-.89-.48,11.87,11.87,0,0,1-1-1.88,10.39,10.39,0,0,0-.88-1.6c-.56-.85-.82-1.29-1.07-1.74s-.48-.83-1-1.63a7.22,7.22,0,0,0-1.12-1.36,8.49,8.49,0,0,1-1.42-1.71,13.76,13.76,0,0,1-1-1.85,12.6,12.6,0,0,0-.9-1.61c-.56-.83-.82-1.26-1.09-1.68s-.52-.83-1.06-1.65a15.75,15.75,0,0,1-1.06-1.81,17.67,17.67,0,0,0-.95-1.62,6.61,6.61,0,0,1-.85-2.1c-.21-.76-.24-.89-.5-.91,0,.17.05.37.07.53a6.1,6.1,0,0,1,.05,2.27,6,6,0,0,0-.17,1.49,8.75,8.75,0,0,1-.22,1.9,4.56,4.56,0,0,0,0,1.33,2.75,2.75,0,0,1-.44,2.14,2.13,2.13,0,0,1-1.55.66,2.72,2.72,0,0,1-2.95-2.07,4.32,4.32,0,0,0-.8-1.4c-.73-.8-1.08-1.21-1.43-1.63s-.67-.79-1.37-1.56-1.05-1.1-1.44-1.46-.79-.76-1.53-1.57a21,21,0,0,1-1.43-1.69c-.32-.41-.63-.81-1.31-1.56s-1.06-1.08-1.44-1.44-.82-.75-1.57-1.57a14.86,14.86,0,0,1-1.42-1.77A13,13,0,0,0,6.21,68.6a1.06,1.06,0,0,1,.06-1.5,1.07,1.07,0,0,1,1.51.07A14.86,14.86,0,0,1,9.2,68.94a12.34,12.34,0,0,0,1.24,1.55c.69.75,1.05,1.09,1.44,1.45s.82.75,1.57,1.57,1.09,1.26,1.42,1.69.63.8,1.32,1.55,1,1.1,1.43,1.47.8.76,1.54,1.57,1.08,1.21,1.43,1.62.67.8,1.37,1.56a6.36,6.36,0,0,1,1.2,2c.31.77.31.77.87.74h0c0-.15,0-.35,0-.51a6.51,6.51,0,0,1,.07-1.94,7,7,0,0,0,.17-1.49,8.87,8.87,0,0,1,.22-1.9,4.5,4.5,0,0,0-.07-1.49A2.84,2.84,0,0,1,24.72,76a1.89,1.89,0,0,1,1.52-.61h0c2.08,0,2.48,1.5,2.74,2.5a4.92,4.92,0,0,0,.57,1.47,14.93,14.93,0,0,1,1.06,1.81,17.67,17.67,0,0,0,.95,1.62l1.09,1.68c.26.42.52.83,1.06,1.65a13.13,13.13,0,0,1,1,1.86,10.93,10.93,0,0,0,.9,1.6A7.19,7.19,0,0,0,36.79,91a9.13,9.13,0,0,1,1.42,1.71c.56.85.81,1.3,1.07,1.74s.48.83,1,1.63a11.86,11.86,0,0,1,1,1.89,9.58,9.58,0,0,0,.88,1.59A1.08,1.08,0,0,1,41.9,101,1,1,0,0,1,41.32,101.19Z"/><path d="M158.46,102.51a1.08,1.08,0,0,1-.87-.45,1.06,1.06,0,0,1,.25-1.48c.82-.58,1.19-.89,1.59-1.21s.84-.69,1.71-1.31a10.19,10.19,0,0,1,2-1.13,7.42,7.42,0,0,0,1.63-.92c.86-.61,1.3-.9,1.74-1.19s.85-.56,1.68-1.14a7.08,7.08,0,0,0,1.37-1.24,9,9,0,0,1,1.73-1.55,14.1,14.1,0,0,1,1.88-1.16,13.78,13.78,0,0,0,1.65-1,19.88,19.88,0,0,1,1.82-1.17,19.22,19.22,0,0,0,1.66-1.07,15.74,15.74,0,0,0,1.54-1.21,16.39,16.39,0,0,1,1.71-1.36,6.23,6.23,0,0,1,2.1-.92,3,3,0,0,0,.63-.21h0a.14.14,0,0,0,0-.07l-.07,0A5.9,5.9,0,0,1,182,83a6.55,6.55,0,0,0-1.49,0,8.47,8.47,0,0,1-1.92,0,4.25,4.25,0,0,0-1.24.1,2.31,2.31,0,0,1-2-.22,2.14,2.14,0,0,1-.74-1.57,2.43,2.43,0,0,1,1.82-2.87,4.2,4.2,0,0,0,1.24-.69c.8-.66,1.22-1,1.65-1.28s.78-.58,1.53-1.2A15.06,15.06,0,0,0,182.31,74a19.63,19.63,0,0,1,1.57-1.43c.8-.67,1.23-1,1.65-1.28s.79-.57,1.53-1.18,1.15-1,1.52-1.29.77-.67,1.55-1.31a11.14,11.14,0,0,1,1.79-1.26,10.65,10.65,0,0,0,1.51-1.07,1.07,1.07,0,1,1,1.36,1.64A11.84,11.84,0,0,1,193,68.08a10.39,10.39,0,0,0-1.51,1.06c-.76.64-1.14,1-1.51,1.29l-1.56,1.31c-.8.67-1.23,1-1.65,1.28s-.79.57-1.54,1.19a18.23,18.23,0,0,0-1.41,1.29,19,19,0,0,1-1.56,1.43c-.8.66-1.22,1-1.64,1.28s-.79.57-1.54,1.2a6.37,6.37,0,0,1-1.81,1,2.28,2.28,0,0,0-.49.23,1.45,1.45,0,0,0,0,.41l.2,0a6.46,6.46,0,0,1,1.86-.13,6,6,0,0,0,1.49,0,8.64,8.64,0,0,1,1.92,0,3.82,3.82,0,0,0,1.42-.24,2.32,2.32,0,0,1,2.16.08,1.81,1.81,0,0,1,.66,1.56A2.53,2.53,0,0,1,184.22,85a4,4,0,0,0-1.43.59,17.13,17.13,0,0,0-1.54,1.22,16.39,16.39,0,0,1-1.71,1.36,19.88,19.88,0,0,1-1.82,1.17c-.44.26-.86.5-1.66,1.06a14.1,14.1,0,0,1-1.88,1.16,13.78,13.78,0,0,0-1.65,1,6.52,6.52,0,0,0-1.37,1.24,9.31,9.31,0,0,1-1.73,1.55c-.86.61-1.3.9-1.74,1.19s-.85.56-1.68,1.15a10.19,10.19,0,0,1-2,1.13,7.42,7.42,0,0,0-1.63.92c-.81.58-1.19.88-1.59,1.21s-.83.68-1.71,1.3A1,1,0,0,1,158.46,102.51Z"/></g></svg>