<svg xmlns="http://www.w3.org/2000/svg" viewBox="0 0 340 400"><defs><style>.cls-1{fill:#f56977;}.cls-2{fill:#231815;}.cls-3{fill:#fae7e7;}.cls-4{fill:#fff;}.cls-5{fill:#27b5f7;}.cls-6{fill:#f8c341;}</style></defs><g id="圖"><rect class="cls-1" width="340" height="400" rx="31.55"/><path class="cls-2" d="M72.39,359.16c0,1.63-.35,2.45-1.37,2.91s-2.61.56-4.9.53a12.14,12.14,0,0,0-1-2.91c1.43.08,3.11.06,3.57.06s.66-.16.66-.62v-3.82H64v7.11H60.94v-7.11H55.73a14.65,14.65,0,0,1-3.21,7.57,11.43,11.43,0,0,0-2.4-2c2.78-3.06,3-7.6,3-11.18v-9.1H72.39Zm-11.45-6.71v-3.14h-4.8v.46c0,.82,0,1.73-.08,2.68Zm-4.8-8.93v3h4.8v-3Zm13.24,0H64v3h5.38Zm0,8.93v-3.14H64v3.14Z"/><path class="cls-2" d="M83.44,350.82a34.07,34.07,0,0,1-1.81,6.86c.43.25.94.64,1.65,1,1.77,1,4.21,1.2,7.23,1.2a101.85,101.85,0,0,0,10.46-.63,10.91,10.91,0,0,0-.87,3c-2.07.1-6.71.28-9.72.28-3.42,0-5.61-.26-7.5-1.31-1.1-.61-2-1.45-2.55-1.45s-1.2,1.74-1.66,3.16l-1.94-2.8a10.89,10.89,0,0,1,2.52-2.53,24.91,24.91,0,0,0,1.25-4.49H77.7c.51-1.5,1.09-3.54,1.58-5.53h-2v-2.71h5.21c-.46,1.79-1,3.83-1.51,5.61h.92l.39-.07Zm-3.75-6.69c-.28-1.15-.84-3-1.23-4.39l2.32-.69c.44,1.38,1,3.12,1.33,4.27Zm5.64.59h-2.1v-2.5h3.24a25.17,25.17,0,0,0-.76-2.55l2.73-.49a27.47,27.47,0,0,1,1,3h2.35v1.43a19.76,19.76,0,0,0,2-4.85l2.55.69c-.2.66-.43,1.3-.66,2h4.92V344h-6c-.28.56-.56,1.05-.84,1.53h4.8l.48-.15,1.61,1.25a25.38,25.38,0,0,1-2.83,3v1h3v2.39h-3v3c0,1.2-.16,1.92-1,2.33a7.49,7.49,0,0,1-3.29.43,7.94,7.94,0,0,0-.84-2.5c.94,0,1.89,0,2.17,0s.38-.07.38-.3v-3H92.34v-2.39H95.2V349a11.65,11.65,0,0,0,1.3-1.25H93v-1.6c-.49-.44-1.25-1-1.74-1.38H87.8v1.86h4v1.05c-.16,6.86-.31,9.39-.9,10.18a1.85,1.85,0,0,1-1.45.94,14.41,14.41,0,0,1-2.25.1,6.24,6.24,0,0,0-.66-2.42,13.48,13.48,0,0,0,1.51.07.65.65,0,0,0,.63-.33c.31-.46.44-2.22.54-7.11H87.77c-.1,3.06-.68,6.86-3.08,9.44a9.83,9.83,0,0,0-1.76-1.77c2.17-2.5,2.4-6.3,2.4-9Z"/><path class="cls-2" d="M107.5,350c0,3.6-.31,9-2,12.5a11.11,11.11,0,0,0-2-1.61c1.4-3.16,1.53-7.65,1.53-10.89v-6.91h4.72v-4.16h2.81v1.27h5.25v1.94h-5.25v.95h3.85l.36-.08,1.81.31a34.81,34.81,0,0,1-1,4l-2.14-.39c.13-.51.28-1.22.41-2h-3.11v1.07l2.24-.18.2,1.51-2.44.23v.18c0,.53,0,.76.61.76h1.83a8.36,8.36,0,0,0,1.79-.15,16.23,16.23,0,0,0,.18,1.66,6.42,6.42,0,0,1-1.84.17h-2.73c-1.89,0-2.27-.84-2.27-2.42l-2.37.23-.2-1.56,2.57-.23V345H107.5Zm19.82-.18a27.2,27.2,0,0,1-3.42,7.5c.33,1.12.74,1.79,1.15,1.81s.64-1.2.76-3.34a8.54,8.54,0,0,0,2.1,1.71c-.64,4.24-1.89,5.21-2.89,5.18-1.32-.05-2.32-1.05-3.11-2.78a15.19,15.19,0,0,1-2.37,2.14,10.27,10.27,0,0,0-1.66-1.63v1c-3.72.33-7.63.66-10.49.84l-.28-2.2,2.76-.18c-.15-.61-.38-1.32-.59-1.91l2-.36a15.15,15.15,0,0,1,.72,2.12l1.38-.1a22.71,22.71,0,0,0,.89-2.17l2.5.36c-.33.58-.67,1.12-1,1.66l2.07-.16v.39a15.3,15.3,0,0,0,3.09-2.91,54.92,54.92,0,0,1-1.07-8.14l-1.59.2-.35-2.65,1.76-.23c-.11-2.17-.18-4.49-.23-7h2.78c0,2.3.08,4.52.18,6.61l4.92-.66.33,2.63-5.1.69c.15,1.91.33,3.69.54,5.17a24,24,0,0,0,1.93-4.87ZM118,352.65H108v-1.86h10Zm-9.44,4.77v-4.05h8.88v4.05Zm2.27-1.42H115v-1.18h-4.21Zm14.29-11.38a45.17,45.17,0,0,0-2.27-4.21l2.22-1.1c.82,1.27,1.89,3,2.4,4.06Z"/><path class="cls-2" d="M138.62,349.74c1,1,3.32,3.7,3.88,4.39l-1.74,2.53c-.48-.87-1.3-2.14-2.14-3.34v9.41h-3.06v-9.08a22.72,22.72,0,0,1-3.57,6.1,13.09,13.09,0,0,0-1.53-2.86,23,23,0,0,0,4.36-7.58H131V346.5h4.54v-3.31c-1.25.2-2.48.38-3.65.53a10.1,10.1,0,0,0-.82-2.37,45.61,45.61,0,0,0,9.37-2.19l2,2.37a32.74,32.74,0,0,1-3.8,1.07v3.9h3.7v2.81h-3.7Zm14.57-8.41v20h-3.14v-1.83H146v2h-3v-20.2Zm-3.14,15.28V344.23H146v12.38Z"/><path class="cls-2" d="M161.38,350.59a16.83,16.83,0,0,0-4-2.45l1.66-2.22a15,15,0,0,1,4.08,2.22Zm2.19,3.72c-.84,2.73-2,5.66-3,8.16l-2.73-1.55a78.21,78.21,0,0,0,3.29-8.19ZM162.32,344a15.87,15.87,0,0,0-3.95-2.57l1.71-2.25a18.23,18.23,0,0,1,4,2.37Zm5.61,13.58a19.72,19.72,0,0,1-3.44,5.3,18.24,18.24,0,0,0-2.37-1.55,14.15,14.15,0,0,0,3.06-4.52Zm4.24-1h-7.71V339.92h7.71Zm-2.65-14H167v2.14h2.5Zm0,4.57H167v2.17h2.5Zm0,4.61H167v2.2h2.5Zm1.53,4.83a26.41,26.41,0,0,1,2.67,3.9l-2.39,1.43a28.8,28.8,0,0,0-2.58-4.06Zm5-.31h-2.63V341.5h2.63Zm4.34-17.3v20.39c0,1.55-.28,2.34-1.17,2.8a9.29,9.29,0,0,1-4.21.59,12.62,12.62,0,0,0-.87-2.91c1.3.05,2.52.05,2.93.05s.56-.15.56-.53V339Z"/><path class="cls-2" d="M184.08,360.46a30.72,30.72,0,0,0,1-5.51l1.5.53a33,33,0,0,1-.91,5.54Zm15.26-5.13c-.15.67-.33,1.33-.54,2a12.21,12.21,0,0,1,2.4,1.86l-1.48,2a15.78,15.78,0,0,0-1.81-1.58,12.19,12.19,0,0,1-2.19,3.24,16.33,16.33,0,0,0-1.92-1.63,1.63,1.63,0,0,1-.25.56,1.82,1.82,0,0,1-1.41.84,10.24,10.24,0,0,1-2.11.1,6.2,6.2,0,0,0-.59-2.24,11.2,11.2,0,0,0,1.43.08.64.64,0,0,0,.64-.29,6.56,6.56,0,0,0,.35-2.19l-.89.33a21.82,21.82,0,0,0-1-3.29l1.07-.36a20.91,20.91,0,0,1,.9,2.48c.05-.82.07-1.84.12-3.06h-6.66V339.9h8.83v2.47h-2.6v1.68h2.19v.59a18.49,18.49,0,0,0,6.53-6l2.71.94a7.11,7.11,0,0,1-.51.79,20,20,0,0,0,5.71,3.44,11.65,11.65,0,0,0-1.12,2.78,21,21,0,0,1-2.37-1.4v1.69h-7.5v-1.28c-.59.38-1.18.74-1.76,1.1a12,12,0,0,0-1.69-1.76v1.4h-2.19v1.51h2.27V350h-2.27v1.6h2.83s0,.67,0,1c-.13,4.75-.26,7.2-.57,8.37a11.25,11.25,0,0,0,2.94-6.07Zm-11.18.05c.13,1.46.21,3.37.21,4.65l-1.33.15c.05-1.28,0-3.22-.13-4.7Zm-.43-13v1.68h1.58v-1.68Zm1.58,3.93h-1.58v1.51h1.58Zm-1.58,5.33h1.58V350h-1.58Zm1.91,3.47a35,35,0,0,1,.74,4.11l-1.27.25a29.88,29.88,0,0,0-.69-4.15Zm5.46-6.91h5.46v6.2H195.1Zm2,4.28h1.4v-2.39h-1.4Zm6.78-7.93c-1-.74-2-1.51-2.83-2.3a17.94,17.94,0,0,1-2.45,2.3Zm1.87,10.69a21.32,21.32,0,0,1-.72,3,24.91,24.91,0,0,1,3,2.24l-1.76,2.07a17.37,17.37,0,0,0-2.22-1.91,10.7,10.7,0,0,1-1.5,2.19,13.83,13.83,0,0,0-2.2-1.68,11.22,11.22,0,0,0,2.73-6.33Zm-4.34-7H207v6.2h-5.66Zm2,4.28H205v-2.39h-1.6Z"/><path class="cls-2" d="M234.44,358.09H224.7v1.83c0,1.36-.31,2-1.35,2.43a14.56,14.56,0,0,1-4.37.38,9.7,9.7,0,0,0-.92-2.55c1.2.05,2.73.05,3.12,0s.53-.07.53-.38v-1.73H211.38v-2.4h10.33V355a19,19,0,0,0,2.81-1.48h-8.19v-2.12h11.1l.64-.15,1.7,1.55a34.53,34.53,0,0,1-4.87,2.94h9.54Zm-19.72-4.8h-2.88v-5.23h1.91l-.46-7.58a34.25,34.25,0,0,0,5.16-1.43l1.22,1.76a22.62,22.62,0,0,1-3.47,1l.05.74h3.24v1.89h-3.14l.06.87h3.13v1.3a19.06,19.06,0,0,0,1.79-1c-.48-.31-1-.59-1.43-.84l1.4-1.2c.51.26,1,.56,1.59.87a11.12,11.12,0,0,0,1-1.07l2,.58a10.22,10.22,0,0,1-1.36,1.53,10.08,10.08,0,0,1,1.54,1.18L224.57,348a16.72,16.72,0,0,0-1.48-1.25,18.46,18.46,0,0,1-2.07,1.33h8.27l.1-.89h-3v-1.89h3.19l.05-.87h-3.11v-1.89h3.24l.05-.84h-3.44v-1.91h6.4c-.13,2.68-.31,5.92-.54,8.29h1.89v5.23h-3v-3H214.72Zm1.84-5.23h4.13a13.91,13.91,0,0,0-1.15-1.17v.28h-3Zm7.91-4.69a13,13,0,0,0-1.33-1.08,12.91,12.91,0,0,1-2.07,1.28,12.66,12.66,0,0,0-1.58-1.35,11.13,11.13,0,0,0,1.94-1c-.48-.28-.92-.53-1.38-.76l1.36-1.18c.48.23,1,.51,1.55.82a7.92,7.92,0,0,0,.92-1l2,.59a9.74,9.74,0,0,1-1.27,1.4c.51.36,1,.71,1.32,1Z"/><path class="cls-2" d="M242.27,355.59a24.27,24.27,0,0,1-2.57,5.23,18.41,18.41,0,0,0-2-1.38,18,18,0,0,0,2.24-4.52Zm3.58-1.48v8.47h-2.94v-8.47h-4.74v-2.55h4.74v-2H238v-2.5h2.48a15.29,15.29,0,0,0-.74-2.65l2.09-.51H238.4v-2.48h4.36c-.23-.69-.51-1.4-.77-2l3-.74c.38.84.84,1.88,1.15,2.75h3.65v2.48h-3.19l2.06.41c-.38,1-.76,2-1.14,2.75h2.65v2.5h-4.36v2h4v2.55Zm-3.68-10.18a12.42,12.42,0,0,1,.85,2.65l-1.84.51h3.67a31.15,31.15,0,0,0,1.1-3.16Zm19.42,6.2h-2.37v12.52h-3V350.13h-2.38v.3c0,3.75-.33,9-2.5,12.28a11.52,11.52,0,0,0-2.34-1.82,10.14,10.14,0,0,0,1.14-2.47l-1.81,1.12a30.81,30.81,0,0,0-2-3.83l2-1.07a26.48,26.48,0,0,1,1.92,3.34,27.69,27.69,0,0,0,.79-7.55v-9.08a36.18,36.18,0,0,0,7.73-2.17l2.32,2.22a39.75,39.75,0,0,1-7.25,1.92v4h7.71Z"/><path class="cls-2" d="M272.35,351.86c-.05.36-.1.72-.18,1.05,1.33,1.3,4.09,4.49,4.8,5.33l-2,2.55a59.59,59.59,0,0,0-3.55-4.79,13.57,13.57,0,0,1-4.82,6.68,11.51,11.51,0,0,0-2.17-2.3,11.91,11.91,0,0,0,4.9-8.52h-4.51V349h4.72V345h-1a17.32,17.32,0,0,1-1.73,3.42,16.75,16.75,0,0,0-2.45-1.76,19,19,0,0,0,2.86-7.68l2.91.58c-.18.9-.39,1.76-.64,2.63h6.73V345h-3.59V349h4.18v2.86Zm14.8-10.74v20.51h-3.09v-1.45h-3.7V362h-2.93v-20.9Zm-3.09,16.2V344h-3.7v13.34Z"/><path class="cls-2" d="M49.46,365v-1.27H290.54V365Z"/><path class="cls-3" d="M334.4,258.77c-8.7-14.69-12.95-36.42-13.61-49.77,0-.07,0-.14,0-.21-.68-10.72,3.25-23.42-3.33-33.06-5.72-8.39-19.91-10.62-22.47,1.33-1.26,5.87-.72,20-10.7,14.4-5.66-3.2-9.16-9.66-13.44-14.29-6.05-6.51-12.38-17.79-22.81-17.17-6.75.39-7.59,8-12.72,10.83-2.55,1.4-5.88,1.21-8.64,2.3A11.68,11.68,0,0,0,220,179.3c-.49,1.16-.86,2.38-1.45,3.49-1.39,2.61-4.1,2.79-6.51,4.16a10.38,10.38,0,0,0-4.83,5.17c-2,4.73.89,7.63,3,11.69,1,1.93-.09,2.7-2,2.85a10.44,10.44,0,0,0-4,1,17.06,17.06,0,0,0-1.75,1c-13.64,9.23,6.79,26.6,13.29,33.66,5.22,5.65,19.33,19.91,25.64,24.36l.27.19a529.33,529.33,0,0,1,43.24,33.25c11.45,12.29,32.65,34,55.14,51.65V268C338.06,264.87,336.2,261.82,334.4,258.77Z"/><path d="M236.77,235.54a1.44,1.44,0,0,1-1-.41c-.55-.55-1-1.09-1.47-1.61s-.69-.79-1-1.14-.9-.83-1.35-1.22a15.28,15.28,0,0,1-1.4-1.27,12.83,12.83,0,0,1-1.38-1.78,10,10,0,0,0-.89-1.19,10.32,10.32,0,0,0-1.18-1,14,14,0,0,1-1.57-1.45,10.13,10.13,0,0,1-1.14-1.62,10,10,0,0,0-1-1.42,9.85,9.85,0,0,0-1.34-1.17,12.29,12.29,0,0,1-1.62-1.4,12.57,12.57,0,0,1-1.29-1.71,10.51,10.51,0,0,0-1.07-1.42,12.83,12.83,0,0,0-1.39-1.18,17.94,17.94,0,0,1-1.6-1.37c-.5-.5-.94-1-1.37-1.56s-.8-1-1.22-1.39a1.42,1.42,0,0,1,2-2c.52.52,1,1.07,1.41,1.6s.78.95,1.19,1.36a14.2,14.2,0,0,0,1.34,1.13,15.89,15.89,0,0,1,1.67,1.45,12.13,12.13,0,0,1,1.39,1.81,11.18,11.18,0,0,0,1,1.36,10.85,10.85,0,0,0,1.27,1.08,12.46,12.46,0,0,1,1.75,1.54,13.22,13.22,0,0,1,1.28,1.81,8.34,8.34,0,0,0,.84,1.22,10.78,10.78,0,0,0,1.26,1.14,15,15,0,0,1,1.47,1.33,13,13,0,0,1,1.14,1.51,9.86,9.86,0,0,0,1.09,1.42,14.3,14.3,0,0,0,1.18,1.07,18.81,18.81,0,0,1,1.54,1.4c.38.38.76.81,1.15,1.26s.85,1,1.33,1.46a1.42,1.42,0,0,1-1,2.42Z"/><path d="M246.63,221.87a1.38,1.38,0,0,1-1-.45c-.4-.43-.83-.84-1.25-1.25s-1-1-1.56-1.57c-.7-.78-1.41-1.57-2.12-2.38l-.52-.59a16.24,16.24,0,0,1-1.32-1.77,15.35,15.35,0,0,0-1.06-1.44,16,16,0,0,0-1.24-1.22,17.11,17.11,0,0,1-1.6-1.59,17.81,17.81,0,0,1-1.28-1.83,14.09,14.09,0,0,0-1-1.45l-.88-1.07c-.55-.67-1.1-1.34-1.63-2A10.55,10.55,0,0,0,229,202a11.52,11.52,0,0,1-1.59-1.67,11.9,11.9,0,0,1-1.16-2.07,9.46,9.46,0,0,0-.78-1.46c-.34-.48-.7-.93-1.06-1.37s-.94-1.17-1.37-1.82c-.31-.48-.66-.93-1-1.38a20.4,20.4,0,0,1-1.34-1.88,1.42,1.42,0,0,1,2.43-1.47,15.83,15.83,0,0,0,1.16,1.62c.38.49.76,1,1.13,1.55s.77,1.05,1.21,1.6.79,1,1.16,1.52a11.75,11.75,0,0,1,1,1.89,9.4,9.4,0,0,0,.86,1.58,11.31,11.31,0,0,0,1.24,1.28,12.46,12.46,0,0,1,1.51,1.56c.52.67,1.06,1.32,1.59,2l.89,1.08a18.31,18.31,0,0,1,1.19,1.72,13.23,13.23,0,0,0,1.06,1.53,14.87,14.87,0,0,0,1.32,1.31,15.84,15.84,0,0,1,1.49,1.47,20.65,20.65,0,0,1,1.26,1.7,12.61,12.61,0,0,0,1.09,1.48l.52.59c.71.8,1.4,1.59,2.1,2.35.45.49.94,1,1.42,1.44s.93.89,1.36,1.36a1.42,1.42,0,0,1-1,2.38Z"/><path d="M261.58,212.08a1.43,1.43,0,0,1-1.1-.52c-.33-.41-.69-.82-1-1.23-.56-.65-1.13-1.31-1.67-2l-1-1.26c-.54-.68-1.09-1.36-1.61-2.06s-.87-1.31-1.26-1.95-.66-1.11-1-1.61c-.82-1.14-1.62-2.3-2.42-3.45l-1-1.35c-.5-.7-1-1.39-1.46-2.09a12.84,12.84,0,0,0-1.21-1.44,13.45,13.45,0,0,1-1.5-1.82,13.06,13.06,0,0,1-1.1-2.27,9.57,9.57,0,0,0-.73-1.57,13.44,13.44,0,0,0-1.18-1.54,12.25,12.25,0,0,1-1.39-1.85,13.31,13.31,0,0,1-1.08-2.63,10.06,10.06,0,0,0-.5-1.37c-.3-.59-.59-1.12-.85-1.59a6.56,6.56,0,0,1-1.12-2.8,1.42,1.42,0,0,1,2.83-.11,10.2,10.2,0,0,0,.77,1.54c.27.5.59,1.07.9,1.69a12.16,12.16,0,0,1,.67,1.77,10.41,10.41,0,0,0,.84,2.08,9.75,9.75,0,0,0,1.09,1.44,16.52,16.52,0,0,1,1.44,1.88,13.92,13.92,0,0,1,.94,2,10.59,10.59,0,0,0,.85,1.79,11.38,11.38,0,0,0,1.2,1.43,14.83,14.83,0,0,1,1.48,1.79c.46.68.93,1.35,1.42,2l1,1.39c.79,1.13,1.58,2.28,2.39,3.4.44.6.8,1.22,1.16,1.82a19.2,19.2,0,0,0,1.09,1.7c.51.68,1,1.34,1.55,2l1,1.3c.51.66,1.05,1.29,1.58,1.9l1.08,1.28a1.42,1.42,0,0,1-.19,2A1.48,1.48,0,0,1,261.58,212.08Z"/><path d="M288.39,249.07a1.41,1.41,0,0,1-1.28-.82l-.54-1.1c-.35-.73-.72-1.48-1-2.27a10.69,10.69,0,0,0-.65-1.32,9.64,9.64,0,0,1-.95-2.08,34.28,34.28,0,0,1-.79-3.47l0-.22a9,9,0,0,1,0-2.47,10.29,10.29,0,0,0,0-1.33,7.15,7.15,0,0,0-.32-1.34,7.51,7.51,0,0,1-.42-2.44,28.23,28.23,0,0,1,.38-3.83,11.41,11.41,0,0,1,.77-2.42c.16-.4.32-.81.45-1.22l.07-.24a28.08,28.08,0,0,1,1.19-3.35,13.37,13.37,0,0,1,1.27-2.12c.24-.36.49-.72.72-1.1s.39-.76.59-1.19a12.17,12.17,0,0,1,1.18-2.15l.09-.11c.69-.94,1.41-1.91,2.24-2.85a1.42,1.42,0,0,1,2.12,1.88c-.75.85-1.43,1.77-2.09,2.65l-.08.12a8.77,8.77,0,0,0-.88,1.64,14.31,14.31,0,0,1-.74,1.46c-.25.43-.54.84-.82,1.25a12.37,12.37,0,0,0-1,1.68,26.81,26.81,0,0,0-1.06,3l-.07.24c-.15.51-.35,1-.53,1.45a9.57,9.57,0,0,0-.61,1.83,27.77,27.77,0,0,0-.34,3.46,5.12,5.12,0,0,0,.31,1.53,9.58,9.58,0,0,1,.42,1.91,10.73,10.73,0,0,1,0,1.8,6.89,6.89,0,0,0,0,1.7l.05.22a32.17,32.17,0,0,0,.73,3.2,8.56,8.56,0,0,0,.71,1.53,12.35,12.35,0,0,1,.82,1.67c.26.66.58,1.32.93,2,.19.38.37.76.56,1.16a1.41,1.41,0,0,1-.69,1.88A1.44,1.44,0,0,1,288.39,249.07Z"/><path class="cls-4" d="M241.3,120.44c-1,.52-.86-.93-1.75-1.6s-1.13-.35-2-1-.74-.85-1.62-1.53-.85-.72-1.73-1.39-.84-.73-1.73-1.4-1-.47-1.91-1.14-1-.5-1.89-1.17-.45-1.24-1.33-1.91-1-.59-1.83-1.26-1.07-.42-2-1.09-.78-.81-1.66-1.48-1.14-.34-2-1-.54-1.13-1.42-1.8-1.15-.32-2-1-.76-.83-1.65-1.5-1-.47-1.92-1.15-.68-.93-1.57-1.6-1-.55-1.86-1.22-1-.49-1.91-1.16-.93-.61-1.81-1.29-.8-.79-1.68-1.46-.86-.72-1.74-1.39-.91-.64-1.79-1.31-.77-.83-1.66-1.5-.69-.92-1.57-1.6-1.2-.26-2.08-.93-.61-1.05-1.49-1.72-1-.47-1.92-1.15-.8-.78-1.69-1.46-.9-.64-1.79-1.32-.85-.71-1.74-1.39-1.1-.4-2-1.08-1.19-.49-1.68-1.49-.27-1.15-.27-2.28.06-1.13.06-2.26.18-1.12.18-2.25-.19-1.13-.19-2.26.6-1.13.6-2.26-.58-1.13-.58-2.26.23-1.13.23-2.26,0-1.13,0-2.26.14-1.13.14-2.26-.07-1.13-.07-2.26.07-1.13.07-2.26.13-1.13.13-2.26-.34-1.14-.34-2.27-.94-1.74.06-2.27.8.79,1.68,1.46,1,.56,1.85,1.24,1,.46,1.93,1.13.79.79,1.68,1.46.72.88,1.6,1.55,1.18.28,2.06.95.78.81,1.66,1.48.86.69,1.75,1.36.57,1.08,1.45,1.75,1.28.15,2.16.82.88.68,1.77,1.36.56,1.08,1.44,1.75,1.1.4,2,1.07,1,.51,1.89,1.18.52,1.15,1.41,1.82.87.69,1.75,1.36.86.71,1.74,1.38,1.27.17,2.15.84.59,1.06,1.47,1.74,1.13.35,2,1,.76.84,1.65,1.51,1.05.45,1.94,1.12.56,1.11,1.44,1.78,1.13.35,2,1,.71.89,1.6,1.56,1.18.29,2.06,1,.79.8,1.67,1.48.7.92,1.58,1.59.92.63,1.81,1.31.79.78,1.68,1.46.78.81,1.67,1.48,1,.51,1.91,1.18,1.7.07,2.19,1.07-.43,1.29-.43,2.42-.08,1.13-.08,2.26.3,1.13.3,2.25-.29,1.13-.29,2.26.24,1.13.24,2.26.17,1.13.17,2.26-.09,1.13-.09,2.26-.25,1.13-.25,2.26.11,1.13.11,2.26-.09,1.13-.09,2.26,0,1.13,0,2.26.25,1.13.25,2.26-.71,1.25-.43,2.34C241.29,119.4,242.3,119.92,241.3,120.44Z"/><path class="cls-5" d="M241.23,89.72c-1.11,0-.79-1-1.68-1.62s-1.13-.35-2-1-.74-.86-1.62-1.53-.85-.72-1.73-1.39-.84-.73-1.73-1.4-1-.48-1.91-1.15-1-.49-1.89-1.16-.45-1.24-1.33-1.91-1-.59-1.83-1.26-1.07-.42-2-1.09-.78-.81-1.66-1.48-1.14-.34-2-1-.54-1.12-1.42-1.79-1.15-.32-2-1-.76-.82-1.65-1.5-1-.47-1.92-1.14-.68-.93-1.57-1.61-1-.54-1.86-1.21-1-.49-1.91-1.16-.93-.62-1.81-1.29-.8-.79-1.68-1.46-.86-.72-1.74-1.39-.91-.64-1.79-1.32-.77-.82-1.66-1.5-.69-.92-1.57-1.59-1.2-.26-2.08-.93-.61-1-1.49-1.72-1-.48-1.92-1.15-.8-.79-1.69-1.46-.9-.65-1.79-1.32-.85-.71-1.74-1.39-1.1-.4-2-1.08-2-.47-1.68-1.52,1.15-.3,2.27-.31,1.12,0,2.24,0,1.12.17,2.24.16,1.12-.2,2.24-.21,1.13.6,2.25.59,1.11-.59,2.24-.6,1.12.22,2.24.22h2.24c1.12,0,1.12.13,2.24.12s1.12-.08,2.24-.09,1.12.06,2.24,0,1.12.13,2.25.12,1.11-.36,2.24-.36,1.12,0,2.24,0,1.12.14,2.24.13,1.12-.15,2.24-.16,1.12-.27,2.24-.28,1.12.14,2.25.13,1.12.25,2.24.25,1.12-.51,2.24-.52,1.12.17,2.24.16,1.12,0,2.24,0,1.13.5,2.25.49,1.12-.66,2.24-.67h2.24c1.12,0,1.13.51,2.25.51s1.12-.36,2.24-.37,1.12-.21,2.24-.22,1.13.58,2.25.57,1.12,0,2.25,0,1.12,0,2.24,0,1.11-.65,2.23-.66,1.12.48,2.24.48,1.12-.41,2.24-.42,1.13.19,2.25.19,1.12-.29,2.24-.3,1.12.53,2.25.52,1.11-.42,2.24-.43,1.12.27,2.24.26,1.12-.5,2.24-.51,1.13.16,2.25.15,1.13.3,2.25.29,1.12-.06,2.24-.07,1.13.14,2.25.13,1.13.16,2.25.15,1.12-.23,2.24-.23,1.12-.53,2.24-.54,1.13.46,2.25.45,1.13.07,2.25.06,1.12-.3,2.25-.31,1.13.27,2.25.27,1.93-1.28,2.31-.22-.8.89-1.68,1.58-.94.61-1.82,1.3-1,.49-1.92,1.18-.81.77-1.7,1.46-.93.61-1.82,1.3-.89.67-1.77,1.36-.73.88-1.61,1.56-1.15.34-2,1-.47,1.21-1.35,1.89-1.14.37-2,1-1.05.48-1.93,1.17-.55,1.12-1.43,1.8-.81.78-1.69,1.46-1.33.12-2.21.8-.78.83-1.66,1.51-.72.9-1.6,1.59-.87.7-1.76,1.39-1,.49-1.91,1.18-.83.75-1.72,1.44-.86.72-1.74,1.41-.67,1-1.56,1.65-1.07.43-2,1.12-1,.54-1.88,1.22-1,.57-1.87,1.26-.82.75-1.71,1.44-.83.76-1.71,1.44-.92.65-1.8,1.33-.81.79-1.69,1.48-1.07.45-2,1.14l-1.75,1.39c-.89.69-.84.75-1.73,1.44s-1.19.48-1.91,1.34S242.35,89.71,241.23,89.72Z"/><path class="cls-6" d="M299.48,44.4c-1-.51-.9.41-1.79,1.09s-.63,1-1.51,1.67-1,.48-1.91,1.16-.92.62-1.8,1.29-.93.62-1.81,1.29-.73.87-1.61,1.54-.75.84-1.63,1.51-1.32.11-2.2.78-.82.75-1.7,1.42-.69.93-1.57,1.6-1,.54-1.87,1.21-.63,1-1.51,1.67-1.23.22-2.11.9-.62,1-1.5,1.68-1,.52-1.89,1.2-.73.87-1.61,1.54-1.08.41-2,1.09-.78.8-1.67,1.47-.74.86-1.62,1.53-.84.73-1.73,1.41-1,.55-1.86,1.22-.91.64-1.79,1.31-.86.71-1.75,1.38-1,.52-1.89,1.19-1.07.42-2,1.1-.57,1.08-1.46,1.75-1.16.31-2.05,1-.73.87-1.62,1.55-1,.56-1.85,1.23-.87.7-1.75,1.38-.92.63-1.81,1.3-.67,1-1.56,1.63-1.38.21-1.87,1.21.27,1.11.27,2.24-.06,1.13-.06,2.26-.18,1.13-.18,2.25.19,1.13.19,2.26-.6,1.13-.6,2.26.58,1.13.58,2.26-.23,1.13-.23,2.26,0,1.13,0,2.26-.13,1.13-.13,2.26.07,1.13.07,2.26-.07,1.13-.07,2.26-.13,1.13-.13,2.26.34,1.14.34,2.27-1.07,1.74-.06,2.27,1-.56,1.85-1.24.8-.78,1.68-1.45.73-.88,1.61-1.55,1-.56,1.85-1.23,1-.47,1.93-1.14.58-1.06,1.46-1.73,1-.53,1.87-1.2.89-.65,1.77-1.32,1.19-.27,2.08-.94.48-1.2,1.36-1.87l1.78-1.33c.88-.68,1.2-.26,2.08-.93s.67-.95,1.55-1.62.76-.84,1.64-1.51,1.25-.2,2.13-.87.9-.65,1.78-1.33.91-.63,1.8-1.31.49-1.18,1.38-1.85,1.18-.28,2.06-1,.64-1,1.53-1.66,1-.51,1.89-1.18.71-.9,1.6-1.57,1.21-.25,2.09-.92.64-1,1.53-1.67,1-.46,1.93-1.13.58-1.06,1.47-1.74,1-.54,1.87-1.21,1.07-.43,1.95-1.1.86-.72,1.74-1.39,1-.56,1.86-1.23,1-.54,1.88-1.22.75-.85,1.64-1.52a4.4,4.4,0,0,0,1.79-3.74c0-1.13.08-1.13.08-2.26s-.3-1.12-.3-2.25.29-1.13.29-2.26-.24-1.13-.24-2.26-.17-1.13-.17-2.26.09-1.13.09-2.26.25-1.13.25-2.26-.11-1.13-.11-2.26.09-1.13.09-2.26,0-1.13,0-2.26-.25-1.13-.25-2.26a6.19,6.19,0,0,1,.43-2.2C300.11,45.44,300.49,44.93,299.48,44.4Z"/><path class="cls-4" d="M131.16,258.51c-1.1,1.17.09,1.61.09,3.22s-.15,1.61-.15,3.21.2,1.61.2,3.22.12,1.61.12,3.22-.23,1.61-.23,3.22-.13,1.61-.13,3.22.12,1.61.12,3.22.25,1.61.25,3.22-.43,1.61-.43,3.22.14,1.61.14,3.22.15,1.61.15,3.22-.15,1.61-.15,3.22.11,1.61.11,3.22S131,302,131,303.59s.42,1.61.42,3.23h-.3c1.05,0,2.09-.29,3.12-.34s2.11.08,3.14,0,2.13,0,3.16-.14,2-.82,3-1,2.07-.33,3.07-.6,2-.54,3-.87,2-.77,2.91-1.15,2-.71,2.91-1.16,1.81-1.06,2.71-1.57,2-.82,2.82-1.39,1.74-1.21,2.54-1.85,1.42-1.56,2.17-2.28,1.64-1.34,2.3-2.12a28,28,0,0,0,2-2.44,25.12,25.12,0,0,0,1.2-2.91,22.15,22.15,0,0,0,1.17-2.87,19.48,19.48,0,0,0,.79-3,19.72,19.72,0,0,0,.29-3.09c0-1.62,0-1.62,0-3.24s-.1-1.62-.1-3.24.51-1.62.51-3.25-.53-1.62-.53-3.24.2-1.63.2-3.25,1.17-2,.06-3.22-1.48.21-3,.21-1.52,0-3,0-1.52-.12-3-.12-1.52-.06-3-.06h-3c-1.52,0-1.52-.1-3-.1s-1.51.08-3,.08-1.52.06-3,.06h-3c-1.52,0-1.52.1-3,.1s-1.52,0-3,0-1.52-.35-3-.35-1.59.65-3.08.32S132.21,257.41,131.16,258.51Z"/><path class="cls-6" d="M88.49,258.31c-1.11,1.18.24,1.82.24,3.44S89,263.37,89,265s-.43,1.62-.43,3.25.13,1.62.13,3.24.27,1.63.27,3.25-.14,1.63-.14,3.25a20.28,20.28,0,0,0,.13,3.13,21.29,21.29,0,0,0,.73,3.06,22.86,22.86,0,0,0,1,3,25.45,25.45,0,0,0,2,2.46,25.66,25.66,0,0,0,1.57,2.73,28.75,28.75,0,0,0,2.11,2.34c.74.71,1.74,1.17,2.57,1.83s1.63,1.27,2.51,1.86,1.66,1.25,2.58,1.78,1.73,1.19,2.69,1.65,1.9.89,2.88,1.28,2,.69,3,1,2.08.33,3.1.6,2,.77,3,1,2.06.32,3.11.48,2.09,0,3.14.15,2.06.33,3.12.39,2,.06,3,.06c.5-1.53-.18-1.57-.18-3.18s.38-1.61.38-3.22.11-1.6.11-3.21S131,295.56,131,294s.2-1.61.2-3.22-.28-1.61-.28-3.22.19-1.61.19-3.22.14-1.61.14-3.22v-3.22c0-1.61-.17-1.61-.17-3.22s0-1.61,0-3.22-.11-1.61-.11-3.22.25-1.61.25-3.23-.06-1.61-.06-3.22,1-2-.08-3.17-1.45.19-3,.19-1.51-.21-3-.21-1.51.17-3,.17-1.52-.1-3-.1-1.52,0-3,0-1.52.07-3,.07-1.52-.49-3-.49-1.51.07-3,.07-1.52-.06-3-.06-1.52.27-3,.27-1.52-.26-3-.26-1.51.06-3,.06-1.5.29-3-.07C90.11,257.82,89.53,257.2,88.49,258.31Z"/><path class="cls-5" d="M173.33,258.51a16.81,16.81,0,0,1-.45,6.25,22.49,22.49,0,0,1-1.58,2.76,24.22,24.22,0,0,1-1.43,2.77,26,26,0,0,1-1.68,2.68,31.48,31.48,0,0,1-2.26,2.2,30,30,0,0,1-2.44,2c-.8.65-1.64,1.26-2.53,1.85s-1.83,1-2.76,1.49-1.59,1.45-2.54,1.91-2.06.51-3,.91-2,.68-3,1-1.9.93-2.92,1.2-2,.5-3.07.71-2.08.25-3.12.41-2.09.06-3.14.16-2.07.16-3.12.21-2.07.14-3.13.14-2.11.28-3.15.23-2.07-.4-3.11-.5-2.09-.15-3.12-.31-2.12-.1-3.14-.31-2-.61-3-.88-2.06-.48-3-.8-2.06-.54-3-.92-1.81-1.16-2.74-1.6-1.83-1-2.72-1.54-2-.76-2.87-1.34-1.62-1.37-2.42-2S97,276,96.26,275.3a30.23,30.23,0,0,1-2-2.43,27.12,27.12,0,0,1-1.77-2.6,23.62,23.62,0,0,1-1.55-2.71,20.46,20.46,0,0,1-1.34-2.85,21,21,0,0,1-.7-3.07,11.71,11.71,0,0,1,.13-6.25,21.41,21.41,0,0,1,.67-3.06,22.73,22.73,0,0,1,1.09-3,23.34,23.34,0,0,1,1.43-2.82,28.64,28.64,0,0,1,2.06-2.39,30.6,30.6,0,0,1,2-2.42c.74-.71,1.61-1.34,2.44-2s1.64-1.29,2.53-1.88,1.72-1.2,2.64-1.72,2-.55,3-1,1.85-.92,2.84-1.31,2-.68,3-1,1.9-.88,2.93-1.16,2.07-.25,3.1-.47,2-.45,3.07-.61,2.06-.21,3.11-.32,2-.46,3.11-.52,2.08-.16,3.14-.16,2.1.17,3.13.22,2.12-.06,3.15,0,2.12.11,3.15.27,2,.58,3,.79,2,.57,3,.84,2.05.47,3,.79,2.08.46,3,.84,1.78,1.21,2.71,1.66,1.95.81,2.84,1.32,1.9.94,2.76,1.52,1.64,1.33,2.45,2,1.69,1.27,2.43,2a29.79,29.79,0,0,1,2,2.43,29.72,29.72,0,0,1,2.23,2.27,24.84,24.84,0,0,1,1.32,2.88,23.38,23.38,0,0,1,1.42,2.83,21.86,21.86,0,0,1,.53,3.12A20.72,20.72,0,0,1,173.33,258.51Z"/><path class="cls-6" d="M142.58,208.86c-1,.53-.88-.94-1.78-1.63s-1.15-.35-2.05-1-.76-.87-1.66-1.55-.86-.74-1.76-1.42-.85-.75-1.75-1.43-1.05-.48-2-1.17-1-.5-1.93-1.18-.46-1.27-1.36-1.95-1-.6-1.85-1.28-1.1-.43-2-1.11-.8-.83-1.7-1.51-1.15-.35-2.05-1-.55-1.15-1.45-1.83-1.17-.33-2.07-1-.78-.84-1.68-1.53-1.05-.47-2-1.16-.7-1-1.6-1.64-1-.55-1.9-1.23-1-.5-2-1.19-.94-.62-1.84-1.31-.81-.8-1.71-1.49-.87-.73-1.77-1.41-.93-.66-1.83-1.34-.78-.85-1.68-1.53-.71-.94-1.61-1.62-1.22-.27-2.12-1-.61-1.06-1.51-1.74-1.06-.49-2-1.17-.82-.81-1.72-1.49-.92-.66-1.82-1.35-.87-.73-1.78-1.41-1.11-.41-2-1.1-1.21-.51-1.72-1.53-.27-1.16-.27-2.31.06-1.15.06-2.3.18-1.15.18-2.3-.19-1.16-.19-2.31.61-1.15.61-2.3-.59-1.15-.59-2.3.23-1.15.23-2.3,0-1.15,0-2.3.14-1.15.14-2.3-.08-1.15-.08-2.31.08-1.15.08-2.3.13-1.15.13-2.31-.35-1.15-.35-2.3-1-1.78.07-2.32.81.81,1.71,1.49,1,.57,1.88,1.26,1.06.47,2,1.15.81.81,1.71,1.49.74.9,1.64,1.58,1.2.28,2.1,1,.79.83,1.69,1.51.88.7,1.78,1.38.58,1.1,1.48,1.78,1.3.16,2.2.84l1.8,1.38c.9.68.57,1.11,1.47,1.79s1.12.4,2,1.08,1,.53,1.92,1.21.53,1.17,1.43,1.85.89.71,1.79,1.39.87.72,1.77,1.41,1.29.17,2.19.85.6,1.08,1.5,1.77,1.15.36,2.05,1,.78.86,1.68,1.54,1.07.46,2,1.15.57,1.12,1.47,1.81,1.16.35,2.06,1,.73.9,1.63,1.59,1.2.28,2.1,1,.8.82,1.7,1.51.71.93,1.61,1.62.94.64,1.84,1.33.81.8,1.71,1.49.8.82,1.71,1.51,1,.52,1.94,1.2,1.73.07,2.24,1.09-.44,1.31-.44,2.46-.09,1.15-.09,2.31.31,1.15.31,2.3-.29,1.15-.29,2.3.24,1.15.24,2.3.17,1.15.17,2.3-.09,1.15-.09,2.3-.25,1.15-.25,2.3.11,1.15.11,2.3-.09,1.16-.09,2.31,0,1.15,0,2.3.25,1.15.25,2.31-.73,1.26-.44,2.38C142.56,207.8,143.6,208.33,142.58,208.86Z"/><path class="cls-5" d="M142.51,177.56c-1.13,0-.81-1-1.71-1.65s-1.15-.35-2.05-1-.76-.87-1.66-1.55-.86-.74-1.76-1.42-.85-.74-1.75-1.43-1.05-.48-2-1.16-1-.51-1.93-1.19-.46-1.26-1.36-2-1-.6-1.85-1.28-1.1-.43-2-1.11-.8-.82-1.7-1.51-1.15-.35-2.05-1-.55-1.15-1.45-1.83-1.17-.33-2.07-1-.78-.84-1.68-1.52-1.05-.48-2-1.17-.7-.95-1.6-1.63-1-.56-1.9-1.24-1-.5-2-1.19-.94-.62-1.84-1.31-.81-.8-1.71-1.49-.87-.73-1.77-1.41-.93-.65-1.83-1.34-.78-.84-1.68-1.53-.71-.94-1.61-1.62-1.22-.27-2.12-.95-.61-1.07-1.51-1.75-1.06-.49-2-1.17-.82-.81-1.72-1.49-.92-.66-1.82-1.34-.87-.73-1.78-1.42-1.11-.41-2-1.1-1.72-.41-1.72-1.54.74-1,1.64-1.69.94-.67,1.84-1.39,1-.58,1.91-1.31.78-.88,1.68-1.6,1.28-.24,2.18-1,.53-1.18,1.43-1.91,1-.53,1.94-1.26.91-.71,1.8-1.43,1-.61,1.89-1.33.85-.78,1.75-1.5,1-.67,1.85-1.4,1-.61,1.88-1.33.68-1,1.57-1.72,1-.67,1.84-1.4,1-.61,1.9-1.33.81-.83,1.71-1.56.73-.93,1.63-1.65,1-.61,1.89-1.33,1.07-.52,2-1.24.59-1.12,1.49-1.84,1-.59,1.91-1.31.92-.7,1.82-1.43,1.23-.32,2.13-1,.48-1.25,1.38-2,.91-.71,1.8-1.44,1.24-.31,2.14-1,.68-1,1.58-1.73.77-.88,1.67-1.61,1.28-.25,2.18-1,.92-.7,1.82-1.42.93-.7,1.84-1.42.5-1.23,1.4-2,.84-1,2-1,1,.34,1.92,1,.77.87,1.67,1.58,1.08.49,2,1.2.56,1.14,1.46,1.85,1.15.38,2.05,1.09.73.92,1.62,1.63,1.21.31,2.11,1,.79.84,1.69,1.55.7,1,1.6,1.66.93.67,1.83,1.38.81.82,1.71,1.53.79.84,1.69,1.55,1,.54,1.94,1.25,1.22.29,2.12,1,.61,1.08,1.51,1.79.85.78,1.75,1.49,1.09.47,2,1.17.73.94,1.63,1.65,1,.52,1.95,1.23,1,.58,1.9,1.29.85.78,1.75,1.49.74.91,1.64,1.62,1,.62,1.88,1.33.84.78,1.74,1.49l1.79,1.42c.91.71,1.06.52,2,1.23s.63,1.06,1.53,1.77,1.32.18,2.22.89.64,1,1.55,1.74.73.93,1.63,1.64,1.25.27,2.15,1,1,.63,1.88,1.34,1.21.57,1.22,1.72-.65.55-1.55,1.25-.73.91-1.63,1.61-.88.72-1.78,1.42-1,.5-1.95,1.2-.85.77-1.75,1.47-.87.73-1.77,1.42-.68,1-1.58,1.68-1.09.44-2,1.14-1,.54-1.91,1.24-1,.58-1.9,1.27-.84.78-1.74,1.47-.84.78-1.74,1.47-.94.66-1.84,1.35-.82.81-1.71,1.5-1.09.46-2,1.16-.89.72-1.79,1.42-.85.76-1.75,1.46-1,.6-1.87,1.3-.46,1.28-1.36,2-1.24.25-2.14,1-.58,1.12-1.48,1.82-1.2.32-2.1,1-.57,1.12-1.47,1.82-1.34.14-2.24.84-.72.93-1.62,1.63-1,.6-1.88,1.3-.59,1.1-1.49,1.8-1.3.19-2.2.89-.74.9-1.65,1.6-.75.89-1.65,1.59-1.1.45-2,1.15-1.08.56-1.81,1.44S143.65,177.55,142.51,177.56Z"/><path class="cls-4" d="M201.85,131.4c-1-.53-.92.42-1.82,1.1s-.65,1-1.55,1.7-1,.5-1.94,1.18-.94.64-1.84,1.33-.94.62-1.84,1.31-.74.88-1.64,1.56-.76.86-1.66,1.55-1.34.1-2.23.78-.84.77-1.74,1.45-.7.95-1.6,1.63-1,.55-1.9,1.24-.65,1-1.55,1.7-1.25.23-2.14.91-.63,1-1.53,1.72-1,.53-1.92,1.22-.75.89-1.65,1.57-1.1.42-2,1.1-.8.82-1.7,1.51-.76.87-1.66,1.56-.85.74-1.75,1.43-1,.56-1.9,1.25-.93.64-1.83,1.33-.88.72-1.78,1.4-1,.53-1.92,1.22-1.09.43-2,1.11-.58,1.11-1.48,1.8-1.19.3-2.09,1-.75.89-1.65,1.57-1,.57-1.89,1.26-.88.72-1.78,1.4-.94.65-1.84,1.34-.69,1-1.6,1.65-1.4.21-1.9,1.23.27,1.13.27,2.28-.06,1.15-.06,2.31-.18,1.15-.18,2.3.2,1.15.2,2.3-.62,1.15-.62,2.3.59,1.15.59,2.3-.23,1.15-.23,2.3,0,1.15,0,2.3-.14,1.15-.14,2.3.08,1.16.08,2.31-.07,1.15-.07,2.3-.14,1.15-.14,2.31.35,1.15.35,2.31-1.09,1.77-.06,2.3,1-.57,1.88-1.25.82-.8,1.71-1.48.74-.9,1.64-1.58,1-.57,1.89-1.26,1.06-.47,2-1.15.59-1.09,1.49-1.77,1-.54,1.9-1.22.92-.67,1.81-1.35,1.22-.27,2.12-.95.49-1.22,1.39-1.91.91-.67,1.81-1.36,1.22-.26,2.12-.94.68-1,1.58-1.66.77-.84,1.67-1.53,1.27-.2,2.17-.89.91-.66,1.81-1.35.93-.65,1.83-1.33.51-1.2,1.41-1.89,1.2-.29,2.1-1,.65-1,1.55-1.7,1-.52,1.93-1.21.73-.91,1.63-1.59,1.23-.25,2.14-.94.65-1,1.55-1.7,1.06-.46,2-1.15.6-1.08,1.5-1.77,1-.55,1.9-1.24,1.1-.43,2-1.12.87-.73,1.77-1.41,1-.57,1.89-1.26,1-.55,1.91-1.24.78-.86,1.68-1.55a3.07,3.07,0,0,0,1.38-1.67,3.11,3.11,0,0,0,.44-2.13c0-1.15.09-1.15.09-2.3s-.31-1.15-.31-2.3.29-1.16.29-2.31-.24-1.15-.24-2.3-.17-1.15-.17-2.3.09-1.15.09-2.3.25-1.15.25-2.3-.11-1.15-.11-2.3.09-1.15.09-2.31,0-1.15,0-2.3-.25-1.15-.25-2.31a6.51,6.51,0,0,1,.44-2.24C202.49,132.45,202.87,131.93,201.85,131.4Z"/><path class="cls-3" d="M122,176.54c-6-.6-20,1.5-15.48-9,2.55-6,8.58-10.17,12.7-14.95,5.81-6.72,16.32-14.26,14.55-24.57-1.13-6.65-8.82-6.65-12.17-11.44-1.67-2.38-1.85-5.71-3.24-8.33a11.7,11.7,0,0,0-6.87-6c-1.21-.36-2.46-.59-3.63-1-2.74-1.09-3.23-3.77-4.85-6A10.4,10.4,0,0,0,97.36,91c-4.91-1.43-7.48,1.73-11.29,4.29-1.79,1.22-2.69.22-3-1.7a10.59,10.59,0,0,0-1.47-3.86,19.2,19.2,0,0,0-1.22-1.63c-10.69-12.53-25.69,9.69-32,16.93C43.3,110.8,30.7,126.41,27,133.16l-.16.3Q14.48,156.36,0,177.94v89.42c15.23-17.24,32.27-32.87,45.18-42.59,13.64-10.27,34.77-16.9,48-19l.2,0c10.58-1.86,23.64.64,32.49-7C133.55,192.12,134.19,177.76,122,176.54Z"/><path d="M58.89,126.43a1.44,1.44,0,0,1-.89-.31,1.42,1.42,0,0,1-.22-2c.49-.61,1-1.13,1.43-1.64s.71-.77,1-1.15.73-1,1.07-1.48a16.44,16.44,0,0,1,1.1-1.53A13.84,13.84,0,0,1,64,116.76a9.75,9.75,0,0,0,1.08-1,10.15,10.15,0,0,0,.92-1.29,13.69,13.69,0,0,1,1.26-1.72,11.46,11.46,0,0,1,1.49-1.32,10.46,10.46,0,0,0,1.31-1.15,9.53,9.53,0,0,0,1-1.46,13.14,13.14,0,0,1,1.21-1.76,13.54,13.54,0,0,1,1.57-1.48,10.13,10.13,0,0,0,1.29-1.22,14,14,0,0,0,1-1.5,14.42,14.42,0,0,1,1.18-1.74c.45-.56.93-1.06,1.4-1.54s.88-.91,1.25-1.37A1.42,1.42,0,0,1,82.21,100c-.45.57-.95,1.08-1.42,1.57s-.87.89-1.23,1.34a14.25,14.25,0,0,0-1,1.46,15.55,15.55,0,0,1-1.25,1.82,12.19,12.19,0,0,1-1.65,1.58,11.68,11.68,0,0,0-1.24,1.15,11.18,11.18,0,0,0-.93,1.39,13.36,13.36,0,0,1-1.33,1.9,12.75,12.75,0,0,1-1.67,1.47,9.44,9.44,0,0,0-1.12,1,11.5,11.5,0,0,0-1,1.37,12.73,12.73,0,0,1-1.16,1.61,13.85,13.85,0,0,1-1.37,1.3,10.89,10.89,0,0,0-1.29,1.24,15,15,0,0,0-.93,1.29c-.35.52-.75,1.11-1.22,1.69-.34.42-.73.84-1.13,1.28s-.88,1-1.3,1.49A1.43,1.43,0,0,1,58.89,126.43Z"/><path d="M73.57,134.72a1.41,1.41,0,0,1-1.08-2.34c.38-.44.74-.91,1.1-1.38s.89-1.15,1.39-1.72l2.2-2.45.46-.51a17.57,17.57,0,0,1,1.62-1.51,17.13,17.13,0,0,0,1.31-1.2,14.69,14.69,0,0,0,1.07-1.38,17.16,17.16,0,0,1,1.41-1.75A15.35,15.35,0,0,1,84.73,119a15.51,15.51,0,0,0,1.33-1.15l1-1c.6-.62,1.2-1.24,1.82-1.84a10.6,10.6,0,0,0,1.08-1.32,9.46,9.46,0,0,1,3.41-3.15,9.37,9.37,0,0,0,1.37-.94c.44-.38.84-.79,1.24-1.2a22.58,22.58,0,0,1,1.66-1.56c.44-.37.85-.77,1.26-1.16a21.38,21.38,0,0,1,1.72-1.54,1.42,1.42,0,0,1,1.73,2.25c-.5.39-1,.85-1.49,1.33s-.9.88-1.41,1.3-1,.88-1.45,1.37-.9.91-1.38,1.33A12.36,12.36,0,0,1,94.83,113a9.71,9.71,0,0,0-1.47,1,9,9,0,0,0-1.13,1.38A14.14,14.14,0,0,1,90.84,117c-.6.59-1.19,1.19-1.77,1.79-.33.34-.66.68-1,1a16.55,16.55,0,0,1-1.57,1.37,14.4,14.4,0,0,0-1.4,1.22,14.89,14.89,0,0,0-1.16,1.46,16.06,16.06,0,0,1-1.29,1.65A20.33,20.33,0,0,1,81.1,127a13.91,13.91,0,0,0-1.36,1.25l-.46.51-2.17,2.42c-.44.5-.86,1-1.27,1.58s-.79,1-1.2,1.5A1.42,1.42,0,0,1,73.57,134.72Z"/><path d="M85,148.49a1.42,1.42,0,0,1-1-2.41l1.11-1.17c.58-.63,1.17-1.27,1.81-1.88L88,141.89c.61-.61,1.23-1.23,1.87-1.82s1.2-1,1.8-1.47,1-.78,1.48-1.19c1-.94,2.1-1.87,3.16-2.79l1.24-1.1c.64-.57,1.27-1.14,1.92-1.68a12.2,12.2,0,0,0,1.29-1.37,13.8,13.8,0,0,1,1.65-1.69,12.26,12.26,0,0,1,2.13-1.34,11.13,11.13,0,0,0,1.48-.9,12.44,12.44,0,0,0,1.39-1.34,13.45,13.45,0,0,1,1.69-1.59,13.26,13.26,0,0,1,2.5-1.36,10.46,10.46,0,0,0,1.3-.65c.56-.36,1-.72,1.49-1a6.63,6.63,0,0,1,2.66-1.42,1.42,1.42,0,0,1,.42,2.8,11.74,11.74,0,0,0-1.44.93c-.47.34-1,.71-1.59,1.09a11.56,11.56,0,0,1-1.68.86,11.16,11.16,0,0,0-2,1.07,10.5,10.5,0,0,0-1.3,1.24,15.12,15.12,0,0,1-1.72,1.64,13.06,13.06,0,0,1-1.87,1.15,10.58,10.58,0,0,0-1.69,1,10.39,10.39,0,0,0-1.29,1.34A14.87,14.87,0,0,1,101.3,134c-.63.53-1.24,1.07-1.86,1.63l-1.27,1.12c-1,.92-2.09,1.84-3.12,2.77-.54.49-1.12.92-1.68,1.34s-1.1.84-1.57,1.28-1.21,1.17-1.79,1.75c-.39.4-.78.79-1.18,1.17-.6.58-1.16,1.19-1.71,1.78-.39.42-.77.83-1.16,1.22A1.41,1.41,0,0,1,85,148.49Z"/></g></svg>