<svg xmlns="http://www.w3.org/2000/svg" viewBox="0 0 200 200"><defs><style>.cls-1{fill:#27b5f7;}.cls-2{fill:#fff;}.cls-3{fill:#efefef;}.cls-4{fill:#f8c341;}.cls-5{fill:#f56977;}.cls-6{fill:#fae7e7;}</style></defs><g id="圖"><path class="cls-1" d="M95.28,179.22a4.14,4.14,0,0,1-4.12,4.17,5.42,5.42,0,0,0-5.47,4.71,5.23,5.23,0,0,0,5.23,5.74l7.93-.05a7,7,0,0,0,6.92-7l-.14-28.88L95.18,158Z"/><path class="cls-1" d="M132.14,179.22a4.15,4.15,0,0,0,4.13,4.17,5.41,5.41,0,0,1,5.46,4.71,5.23,5.23,0,0,1-5.22,5.74l-7.94-.05a7,7,0,0,1-6.92-7l.15-28.88,10.44.06Z"/><polygon class="cls-1" points="113.02 105.98 105.63 102.87 98.53 99.31 91.1 96.5 83.72 93.58 76.58 90.11 69.28 87.02 61.86 84.18 54.7 80.75 47.45 78.15 47.41 86.37 47.55 94.82 47.27 103.27 47.29 111.72 47.52 120.18 47.64 128.63 47.32 137.08 47.24 145.53 47.65 153.98 47.69 162.44 47.34 170.89 47.33 179.34 47.53 187.71 54.81 184.8 62.11 181.68 69.44 178.65 76.64 175.32 83.95 172.24 91.31 169.28 98.6 166.14 105.88 162.99 113.14 159.97 121.02 161.81 128.97 163.69 136.72 166.32 144.63 168.32 152.54 170.2 152.76 161.91 152.37 153.57 152.59 145.24 152.26 136.91 152.51 128.57 152.58 120.24 152.24 111.9 152.33 103.57 152.49 95.16 144.54 97.26 136.75 99.72 128.81 101.6 120.89 103.54 113.02 105.98"/><path class="cls-2" d="M100.57,126.2c0,5.09-1.29,10.59-6.8,10.59s-6.83-5.25-6.84-10.56,3-7.73,6.81-7.74S100.56,121.12,100.57,126.2Z"/><path d="M97.34,126.63c0,3.37-.86,7-4.51,7s-4.53-3.49-4.54-7,2-5.12,4.51-5.13S97.33,123.26,97.34,126.63Z"/><path class="cls-2" d="M135.62,126.14c0,5.08-1.3,10.58-6.81,10.59S122,131.47,122,126.16s3-7.72,6.81-7.73S135.61,121.06,135.62,126.14Z"/><path d="M132.38,126.63c0,3.37-.86,7-4.51,7s-4.53-3.49-4.54-7,2-5.12,4.52-5.13S132.37,123.26,132.38,126.63Z"/><path class="cls-3" d="M117.31,17c13,11.86-8.65,13.05-9.82,30.6-.88,13.23-11.67,31.32-27.57,23.79s-17-24.65-9.51-40.55C80.54,9.4,105.17,5.9,117.31,17Z"/><circle class="cls-2" cx="108.02" cy="23" r="4.55"/><path class="cls-1" d="M81.55,51.1c3.37.74,6.81,3.4,6.07,6.77S82.23,64,78.86,63.3a6.25,6.25,0,1,1,2.69-12.2Z"/><path class="cls-4" d="M82.52,33.92c3.12,1.48,6.21,5,4.74,8.1s-7,4.67-10.08,3.2a6.25,6.25,0,1,1,5.34-11.3Z"/><path class="cls-5" d="M93,20.25c3.12,1.48,5.52,6.7,4,9.82s-6.27,3-9.39,1.47A6.25,6.25,0,0,1,93,20.25Z"/><ellipse class="cls-5" cx="44.92" cy="51.94" rx="6.99" ry="5.03" transform="translate(-23.68 48.9) rotate(-46.61)"/><path class="cls-5" d="M50.21,47.43,48.6,48.57,27.9,19.19a.94.94,0,0,1,.31-1.28h0a.93.93,0,0,1,1.31.14Z"/><path class="cls-5" d="M39.94,21.09c-2.23-.27-7.34.5-10.44-3.06l0,0,5.11,7.25s7.91-3.55,11.18,1.1a10.75,10.75,0,0,1,1.89,7,.69.69,0,0,0,.78.67h0a.92.92,0,0,0,.84-.74c.25-1.59.59-5.6-1.66-8.78S42.32,21.39,39.94,21.09Z"/><path class="cls-4" d="M133.58,87.47l-6.42,3.94-.25.1a.86.86,0,0,1-.89-.05,1.49,1.49,0,0,0-.15-.4l-4.49-7.36L121,84a.77.77,0,0,0-.59.37l-.09.13a5.08,5.08,0,0,1-.7.35l-.07,0,0,0a4.6,4.6,0,0,1-.64.51,4.83,4.83,0,0,1-6.27-1.22,4,4,0,0,1-.36-.52,5.73,5.73,0,0,1-.8-2.72c0-.23,0-.46,0-.71a1.81,1.81,0,0,1,.14-.61,5.5,5.5,0,0,1,2.18-2.61,5.26,5.26,0,0,1,.71-.36l.07,0,0,0,.43-.36a3,3,0,0,1,.43-.06.75.75,0,0,0,.65-.46l.36-.13-4.55-7.47a1.33,1.33,0,0,0-.21-.26.85.85,0,0,1,.39-.82L118.85,63l.11,0,.05,0a.86.86,0,0,1,1.28.8A5.82,5.82,0,0,0,123.82,69a5.33,5.33,0,0,0,1.47.29,5.34,5.34,0,0,0,5-3.07,5.18,5.18,0,0,0,.42-1.44,5.83,5.83,0,0,0-3.07-5.54.86.86,0,0,1-.12-1.51l0,0,.09-.08,6.75-4.14a.86.86,0,0,1,1.18.3L140,60.92a.81.81,0,0,0,1-.31,5.05,5.05,0,0,1,1.7-1.71c3.4-2.07,8.32.35,8.11,5.54a2.06,2.06,0,0,1-.18.77A5.45,5.45,0,0,1,146,68.78a.81.81,0,0,0-.75.71l4.36,7.12a.86.86,0,0,1-.24,1.17l-.21.19-6.43,3.91"/><polygon class="cls-5" points="145.07 9.59 141.25 11.63 138.26 15.23 157.83 51.94 169.31 45.82 149.73 9.11 145.07 9.59"/><polygon class="cls-6" points="157.83 51.94 160.82 48.34 164.65 46.3 169.31 45.82 168.23 57.62 157.83 51.94"/><polygon points="164.99 55.85 165.92 54.73 167.11 54.09 168.56 53.94 168.23 57.62 164.99 55.85"/><rect class="cls-1" x="150.78" y="8.16" width="4.33" height="41.6" transform="translate(4.36 75.38) rotate(-28.07)"/><path d="M41.82,89.31a1.09,1.09,0,0,1-1-.75c-.14-.48-.31-1-.48-1.42s-.35-1-.5-1.45-.35-.91-.56-1.39-.41-.93-.57-1.41-.4-1-.63-1.58-.34-.79-.5-1.19a7.32,7.32,0,0,1-.36-1.69,4.34,4.34,0,0,0-.28-1.27l-.27-.6a22.43,22.43,0,0,0-1-2.09,7.36,7.36,0,0,0-1-1.23,11.83,11.83,0,0,1-.9-1.07,6.47,6.47,0,0,0-1.11-1.11c-.32-.28-.65-.56-1-.89a8.08,8.08,0,0,1-.89-1.2,4.73,4.73,0,0,0-.88-1.11,5.55,5.55,0,0,0-1.36-.65,12.36,12.36,0,0,1-1.26-.55,12,12,0,0,1-1.3-.83,7.14,7.14,0,0,0-1.49-.89,5.81,5.81,0,0,0-1.43-.22,7.21,7.21,0,0,1-1.94-.32,12.92,12.92,0,0,1-1.95-.91A12.16,12.16,0,0,0,18,62.88c-.32-.14-.65-.26-1-.39A10.68,10.68,0,0,1,14.7,61.4a5.84,5.84,0,0,1-1.52-1.64,8.92,8.92,0,0,0-.65-.83l-.65-.62a11,11,0,0,1-1.56-1.69,26,26,0,0,1-1.69-2.69c-.16-.31-.34-.62-.51-.93a14.78,14.78,0,0,1-1-1.86,18.78,18.78,0,0,1-.62-1.83c-.12-.37-.23-.75-.36-1.11-.23-.66-.44-1.32-.64-2l-.3-.92a1.07,1.07,0,0,1,2-.66l.3.95c.2.64.4,1.28.62,1.92.14.39.26.79.38,1.19.18.58.35,1.13.56,1.65a15.33,15.33,0,0,0,.83,1.6c.19.34.39.67.56,1a23.93,23.93,0,0,0,1.55,2.46,8.7,8.7,0,0,0,1.26,1.34l.72.69a10.42,10.42,0,0,1,.86,1.08,4.4,4.4,0,0,0,1,1.12,9.06,9.06,0,0,0,1.88.86c.37.14.73.27,1.08.43a14.61,14.61,0,0,1,1.37.69,11.24,11.24,0,0,0,1.62.77,5.65,5.65,0,0,0,1.4.21,7.46,7.46,0,0,1,2,.35,8.68,8.68,0,0,1,2,1.14,10.51,10.51,0,0,0,1.06.69,10,10,0,0,0,1,.44,7.08,7.08,0,0,1,1.9,1,6,6,0,0,1,1.36,1.63,6.05,6.05,0,0,0,.66.89,9.59,9.59,0,0,0,.81.75,8.49,8.49,0,0,1,1.45,1.48,9.52,9.52,0,0,0,.75.88,8.89,8.89,0,0,1,1.24,1.62c.41.73.76,1.51,1.1,2.26l.26.58a6.49,6.49,0,0,1,.45,1.88,4.9,4.9,0,0,0,.24,1.2c.14.38.3.75.46,1.12.24.55.49,1.13.69,1.73.15.43.33.84.51,1.25a14.4,14.4,0,0,1,.63,1.6c.15.46.31.92.48,1.37s.36,1,.51,1.51a1,1,0,0,1-.7,1.33A1.12,1.12,0,0,1,41.82,89.31Z"/><path d="M158.8,95.3a1.06,1.06,0,0,1-.7-1.86,9.12,9.12,0,0,1,1.12-.82,6.51,6.51,0,0,0,1.08-.83l.54-.56a18.86,18.86,0,0,0,1.31-1.45,20,20,0,0,0,1.25-1.85l.27-.44a6.12,6.12,0,0,0,.55-1.26,12,12,0,0,1,.51-1.27c.15-.3.32-.59.48-.89a12.67,12.67,0,0,0,.76-1.52c.14-.37.29-.73.45-1.09a16.23,16.23,0,0,0,.68-1.76c.18-.6.34-1.2.49-1.8l.33-1.22a11.92,11.92,0,0,0,.25-1.32,13.79,13.79,0,0,1,.39-1.82,7.93,7.93,0,0,1,1-1.83,9.08,9.08,0,0,0,.61-1,20.64,20.64,0,0,1,1.58-2.87,5.38,5.38,0,0,0,.45-1,6,6,0,0,1,1-1.78l.44-.49a22,22,0,0,1,1.64-1.73,5.42,5.42,0,0,1,1.66-.93,3.88,3.88,0,0,0,1-.5q.53-.42,1-.87c.4-.34.79-.68,1.2-1a5.88,5.88,0,0,0,.86-1,8.37,8.37,0,0,1,1.06-1.2l.65-.55c.52-.44,1-.85,1.44-1.3a21.32,21.32,0,0,0,1.72-2.13l.35-.47A17.14,17.14,0,0,0,187.45,51a10.2,10.2,0,0,1,.81-1.24,7.09,7.09,0,0,0,.78-1.26c.2-.47.36-1,.53-1.48s.3-.91.47-1.35a9.53,9.53,0,0,0,.41-1.45,10.9,10.9,0,0,1,.51-1.76,8,8,0,0,1,1-1.67,6.78,6.78,0,0,0,.73-1.24,1.06,1.06,0,0,1,2,.78,8.47,8.47,0,0,1-1,1.67,6.06,6.06,0,0,0-.73,1.24,11,11,0,0,0-.42,1.46,12.19,12.19,0,0,1-.5,1.75c-.16.4-.29.82-.43,1.23s-.36,1.1-.59,1.66A9.06,9.06,0,0,1,190,51a8.58,8.58,0,0,0-.66,1,16.77,16.77,0,0,1-1.44,2.15l-.34.46a20.91,20.91,0,0,1-1.9,2.34,21.27,21.27,0,0,1-1.59,1.45c-.21.18-.42.35-.63.54a5.84,5.84,0,0,0-.78.89,7.67,7.67,0,0,1-1.2,1.32c-.39.31-.77.64-1.15,1l-1.06.9a6.33,6.33,0,0,1-1.55.83,3.52,3.52,0,0,0-1,.53A20.07,20.07,0,0,0,175.18,66l-.45.5a4.11,4.11,0,0,0-.59,1.15,7.17,7.17,0,0,1-.65,1.34,16.9,16.9,0,0,0-1.41,2.56,10.19,10.19,0,0,1-.77,1.34,6,6,0,0,0-.72,1.33,9.46,9.46,0,0,0-.31,1.5,13,13,0,0,1-.31,1.56c-.11.39-.22.79-.32,1.19-.16.62-.33,1.25-.51,1.86a16.93,16.93,0,0,1-.77,2c-.14.34-.29.67-.42,1a14.74,14.74,0,0,1-.88,1.78l-.44.82a7.87,7.87,0,0,0-.4,1,8,8,0,0,1-.76,1.7l-.27.43a23.18,23.18,0,0,1-1.37,2,19.2,19.2,0,0,1-1.46,1.63l-.52.54a8,8,0,0,1-1.45,1.14,10,10,0,0,0-.9.64A1,1,0,0,1,158.8,95.3Z"/><path class="cls-2" d="M115.44,141.71a8,8,0,0,1,.43,2.73c-.07,3.2-1.93,5.75-4.18,5.71s-4-2.67-4-5.87a8.07,8.07,0,0,1,.43-2.45"/><path d="M111.75,151.21h-.08A4.57,4.57,0,0,1,108,149a8.14,8.14,0,0,1-1.29-4.73,8.87,8.87,0,0,1,.49-2.78,1.06,1.06,0,1,1,2,.71,7,7,0,0,0-.37,2.11,6.16,6.16,0,0,0,.93,3.5,2.64,2.64,0,0,0,2,1.29,2.53,2.53,0,0,0,2-1.21,6,6,0,0,0,1.06-3.46,6.79,6.79,0,0,0-.36-2.36,1,1,0,0,1,.65-1.35,1.06,1.06,0,0,1,1.36.65,8.84,8.84,0,0,1,.48,3.1,8.28,8.28,0,0,1-1.47,4.68A4.61,4.61,0,0,1,111.75,151.21Z"/><path d="M111.49,143.24a14.89,14.89,0,0,1-6.38-1.33A1.06,1.06,0,0,1,106,140a14.66,14.66,0,0,0,11.15.05,1.06,1.06,0,0,1,.79,2A17.64,17.64,0,0,1,111.49,143.24Z"/></g></svg>