<svg xmlns="http://www.w3.org/2000/svg" xmlns:xlink="http://www.w3.org/1999/xlink" viewBox="0 0 340 400"><defs><style>.cls-1{fill:none;}.cls-2{fill:#f8c341;}.cls-3{fill:#231815;}.cls-4{fill:#fff;}.cls-5{fill:#27b5f7;}.cls-6{fill:#f56977;}.cls-7{fill:#e6e6e7;}.cls-8{fill:#fae7e7;}.cls-9{fill:#e3e3e3;}.cls-10{fill:#c8c8c8;}.cls-11{fill:#d4f0fd;}.cls-12{clip-path:url(#clip-path);}</style><clipPath id="clip-path"><path class="cls-1" d="M237.81,161.11a36.56,36.56,0,1,1,7.27-51.19A36.61,36.61,0,0,1,237.81,161.11Z"/></clipPath></defs><g id="圖"><rect class="cls-2" width="340" height="400" rx="31.55"/><path class="cls-3" d="M49.94,350.61A30.77,30.77,0,0,0,51.19,344l2.17.28a33.57,33.57,0,0,1-1.15,7.17Zm7.6-1.61a22.49,22.49,0,0,0-1.14-3.44v17.17h-3v-23.8h3v4.79l1.37-.58a28.42,28.42,0,0,1,2,4.82Zm8.78,4.14a14.09,14.09,0,0,1-7.12,9.74,13.34,13.34,0,0,0-2.14-2.34,10.72,10.72,0,0,0,6.2-7.4H58.18v-2.89h5.49c.07-.81.07-1.58.07-2.34v-2.32H59.35v-2.81h4.39v-3.85h3.07v3.85h5.53v7.47H74v2.89Zm2.65.1c1.66,2.47,4,5.84,5.11,7.86l-2.76,1.55a93.36,93.36,0,0,0-4.87-8.13Zm-2.16-5.31c0,.77,0,1.53-.08,2.32h2.65v-4.66H66.81Z"/><path class="cls-3" d="M84.54,351.15a21.81,21.81,0,0,1-2.12,6.4c.38.23.84.51,1.43.84,1.76,1,4.18,1.15,7.09,1.15a82.31,82.31,0,0,0,10.36-.69,12.6,12.6,0,0,0-.9,3.22c-2.09.15-6.6.3-9.59.3-3.34,0-5.51-.28-7.37-1.3-1.07-.56-2-1.32-2.48-1.32s-1.55,1.65-2.22,3l-2-2.93a10.88,10.88,0,0,1,2.42-2.15,14.36,14.36,0,0,0,2.15-4.59H77.72c.67-1.5,1.41-3.54,2.1-5.53H77.26v-2.71h6.41c-.61,1.81-1.35,3.85-2,5.61h.69l.45-.07Zm-4.34-7c-.44-1.17-1.33-3-1.89-4.41l2.63-1c.61,1.38,1.48,3.11,2,4.21Zm10.53-.51h-6.3v-2.52h6.3V339h3v2.17h6.66v2.52H93.69v1.38h5.82v6.86H94.74a37.75,37.75,0,0,1,5.56,3.91l-1.86,2.06a28.87,28.87,0,0,0-4.75-3.67v4.46h-3v-4.59a15.48,15.48,0,0,1-5,4.19,11.34,11.34,0,0,0-1.91-2.3,14.18,14.18,0,0,0,5.59-4.06H85.15v-6.86h5.58ZM88,349.62h2.78v-2.25H88Zm5.74-2.25v2.25h2.86v-2.25Z"/><path class="cls-3" d="M127,359.34h-9.77v.79c0,1.38-.38,2-1.45,2.32a18,18,0,0,1-4.7.33,8.37,8.37,0,0,0-1-2.29c1.41.07,3.14.07,3.57.05s.62-.13.62-.51v-.69h-9.75v-2h9.75v-1.07H106v-2h8.27v-.94c-2.35.1-4.75.13-7,.1a7,7,0,0,0-.53-1.91,117.65,117.65,0,0,0,15.94-.89l1.84,1.76c-2.09.35-4.62.61-7.3.79v1.09h8.47v2h-8.47v1.07H127Zm-19.44-11.66h-2.83V342h3.73a15.21,15.21,0,0,0-1.38-2.16l2.65-1.05a13.31,13.31,0,0,1,1.81,2.68l-1.22.53h3.88V338.9h3.06V342h3.85l-1.35-.48a19.27,19.27,0,0,0,2-2.68l3.17.94a29,29,0,0,1-2.2,2.22h4.19v5.67h-3v-3.19H107.57Zm1.05,2.75v-4.95h14.29v4.95Zm2.81-1.81H120v-1.3h-8.52Z"/><path class="cls-3" d="M136,353.32v5.89c0,1.4-.23,2.19-1,2.65a6.55,6.55,0,0,1-3.47.61,9.93,9.93,0,0,0-.77-2.85c.87,0,1.69,0,2,0s.41-.1.41-.41v-5l-2.07.59-.66-2.91c.79-.18,1.71-.41,2.73-.67v-4.62h-2.32v-2.8h2.32v-4.82H136v4.82h2.38v2.8H136v3.88l2.2-.61.38,2.73Zm18.55,6.6v2.38H140.46v-2.38h5.69V358h-4.24v-2.27h4.24v-1.51a12,12,0,0,0-3.29.49v-.1s0,.07,0,.1a18.33,18.33,0,0,0-.94-2.45,2.89,2.89,0,0,0,1.27-.84,13.74,13.74,0,0,0,1.56-1.94H142c-.15,4.29-.81,9.62-3,13.32a11.78,11.78,0,0,0-2.55-1.48c2.45-4.11,2.65-10.05,2.65-14.19v-7.27h14.55v6.2H142.06v1.12H154v2.3h-2.62a16.58,16.58,0,0,1,2.8,4.18l-2.37,1a5.31,5.31,0,0,0-.36-.86l-2.29.17v1.74h4.44V358h-4.44v1.91Zm-12.48-17.7v1.5h8.53v-1.5Zm6,7.27a25.08,25.08,0,0,1-2.07,2.45l4.06-.23a13.2,13.2,0,0,0-1-1.33l2.17-.89Z"/><path class="cls-3" d="M161.91,355.59a24.74,24.74,0,0,1-2.57,5.23,18.41,18.41,0,0,0-2-1.38,18.34,18.34,0,0,0,2.24-4.52Zm3.57-1.48v8.47h-2.93v-8.47h-4.74v-2.55h4.74v-2h-4.9v-2.5h2.48a16.23,16.23,0,0,0-.74-2.65l2.09-.51H158v-2.48h4.37c-.23-.69-.51-1.4-.77-2l3-.74c.38.84.84,1.89,1.15,2.75h3.64v2.48h-3.19l2.07.41c-.38,1-.76,2-1.15,2.75h2.66v2.5h-4.37v2h4v2.55Zm-3.67-10.18a12.94,12.94,0,0,1,.84,2.65l-1.83.51h3.67a31.15,31.15,0,0,0,1.1-3.16Zm19.42,6.2h-2.38v12.52h-3V350.13h-2.37v.3c0,3.75-.33,9-2.5,12.28a11.31,11.31,0,0,0-2.35-1.82,9.8,9.8,0,0,0,1.15-2.47L168,359.54a32.23,32.23,0,0,0-2-3.83l2-1.07a25.19,25.19,0,0,1,1.91,3.34,27.31,27.31,0,0,0,.79-7.55v-9.08a35.85,35.85,0,0,0,7.73-2.17l2.33,2.22a40,40,0,0,1-7.25,1.92v4h7.71Z"/><path class="cls-3" d="M188.42,348.16v14.55h-3v-23h9.82v8.47Zm0-6.45V343h4v-1.25Zm4,4.46V344.9h-4v1.27Zm8.36,13.12V362h-2.73v-2.73h-8.72v-2.07h2.06V351.1h-1.47V349H202.3v2.07h-1.51v6.12h1.84v2.07Zm-6.73-8.19V352h4v-.89Zm0,3.49h4v-.92h-4Zm4,2.63v-.94h-4v.94Zm8.91,2.42c0,1.38-.26,2-1.07,2.53a8,8,0,0,1-3.55.51,9.06,9.06,0,0,0-.84-2.63c.84,0,1.76,0,2.06,0s.41-.13.41-.43V348.16h-7v-8.47h10Zm-7.12-17.93V343H204v-1.25Zm4.13,4.46V344.9h-4.13v1.27Z"/><path class="cls-3" d="M221.84,352a24,24,0,0,1,1.07,2.81l-1,.35h.38v2.45c0,2-.51,3.91-3.72,5a6.94,6.94,0,0,0-1.3-1.69,4,4,0,0,0,2.47-1.5h-2.88v-3.85h1.84v2.16h1.53v-2.6h1.12c-.05-.18-.1-.4-.15-.63-3.5.43-4.11.56-4.52.73v0a14.75,14.75,0,0,0-.51-1.68,3.45,3.45,0,0,0,1.33-.69c.2-.16.61-.49,1.09-.95a5.94,5.94,0,0,0-1.81.31v0a12.53,12.53,0,0,0-.61-1.73A1.45,1.45,0,0,0,217,350a7.29,7.29,0,0,0,1.51-1.81h-3.37v14.57h-2.91V339.9h9.85v8.29h-2.58l.95.51a14.38,14.38,0,0,1-1.76,1.89l1.32,0c.34-.39.64-.8.95-1.18l1.48,1a24.49,24.49,0,0,1-3.32,3l1.58-.15a7.26,7.26,0,0,0-.3-.82Zm-6.71-10.05v1.2h4.08v-1.2Zm0,4.21h4.08V345h-4.08Zm18.65,13.11c0,1.45-.2,2.3-1.07,2.81s-2,.56-3.75.56a11.35,11.35,0,0,0-.64-2.48H227.1v-.71h-1.54v3h-2.11v-7.27h.05c-.13-.4-.36-1.15-.54-1.58a2.52,2.52,0,0,0,1.35-.69,13,13,0,0,0,1.08-.94,6,6,0,0,0-1.81.3,12.14,12.14,0,0,0-.62-1.73,1.88,1.88,0,0,0,.85-.46,9.82,9.82,0,0,0,1.5-1.86h-1.56V339.9h10Zm-4.75.43a10.12,10.12,0,0,0,1.38,0c.33,0,.44-.12.44-.45V348.19h-4.62l1,.53a12.7,12.7,0,0,1-1.71,1.87l1.25,0a14.33,14.33,0,0,0,1.05-1.23l1.46,1.05a31.34,31.34,0,0,1-3.3,3l1.56-.15c-.13-.28-.23-.56-.36-.82l1.43-.46a25.56,25.56,0,0,1,1.2,2.81l-1.5.59c-.08-.23-.18-.54-.26-.84-2.65.33-3.65.51-4.16.63h1.68v2.6h1.54v-2.16H229Zm-2.39-17.75v1.2h4.21v-1.2Zm0,4.21h4.21V345h-4.21Z"/><path class="cls-3" d="M251.54,348.06a34.26,34.26,0,0,1-1.36,9.06c1.84,2.14,4.32,2.7,7.07,2.7.77,0,3.52,0,4.54,0a9.43,9.43,0,0,0-.81,2.47h-3.91c-3.16,0-5.81-.61-7.86-2.78a9.7,9.7,0,0,1-2.85,3.34,9.36,9.36,0,0,0-1.38-2,5,5,0,0,0,.92-.74c-2.58.72-5.28,1.41-7.35,2l-.49-2.73,3.35-.67V352.3h-3.06v-2.58h3.06v-1.86h-1.86V347c-.29.31-.54.59-.82.85a24.43,24.43,0,0,0-.92-3.12,16.55,16.55,0,0,0,4.24-5.92l1.83,1c-.13.31-.25.62-.41.92a21.21,21.21,0,0,1,3.32,2.83l-1,2.53a22.5,22.5,0,0,0-3.36-3.16,24.47,24.47,0,0,1-1.56,2.42h4.24v2.53h-1.61v1.86h2.32v2.58h-2.32v5.89l2.32-.51.15,2.35a8.43,8.43,0,0,0,1.79-2.68,18.13,18.13,0,0,1-1.66-4.29l1.94-.76a15.43,15.43,0,0,0,.64,2,29.55,29.55,0,0,0,.61-4.06h-3.32c.77-1.89,1.69-4.62,2.43-7.17h-1.92v-2.58h5c-.71,2.35-1.6,5.13-2.39,7.43h.71l.36,0Zm-11.18,5.15a33.82,33.82,0,0,1,.79,4.37l-1.66.58a33.86,33.86,0,0,0-.68-4.44Zm3.24,4.06a38,38,0,0,0,.74-4.29l1.81.59c-.41,1.51-.79,3.19-1.09,4.26Zm11-14.26H252v-2.17h2.58v-1.91h2.27v1.91h3.39v3.34h1.33v2.2h-1.33v3.39h-3.39v1.15h3.65v2.37h-3.65v1.23H261v2.34h-4.13v2.3h-2.27v-2.3h-3.17v-2.34h3.17v-1.23h-2.68v-2.37h2.68v-1.15H252V347.6h2.58v-1.22h-3.5v-2.2h3.5Zm2.27,0v1.17h1.32V343Zm1.32,3.37h-1.32v1.22h1.32Z"/><path class="cls-3" d="M287.64,355.43h-9.52v3.86c0,1.63-.38,2.45-1.63,2.9a14.21,14.21,0,0,1-4.95.52,11,11,0,0,0-1.33-3.09c1.58.05,3.5.05,4,.05s.66-.1.66-.46v-3.78h-9.47v-2.88h9.47V351.2a17.82,17.82,0,0,0,3.11-2.09h-8.21v-2.84h11.27l.69-.15,2,1.58a25.76,25.76,0,0,1-5.64,4.42v.43h9.52Zm-19.11-8.24h-3v-5.84h9.54a12.82,12.82,0,0,0-1-1.68l3-.92a11,11,0,0,1,1.56,2.6h8.78v5.84h-3.14v-3H268.53Z"/><path class="cls-3" d="M49.46,365v-1.27H290.54V365Z"/><path class="cls-4" d="M297.13,299.82c-1,1-1.62-.2-3.06-.2s-1.44-.11-2.89-.11-1.44.39-2.88.39-1.44.06-2.88.06-1.44-.14-2.89-.14-1.44.07-2.88.07-1.44-.66-2.88-.66-1.44.45-2.89.45l-2.88,0c-1.44,0-1.44.32-2.89.32s-1.44,0-2.88,0-1.44-.11-2.88-.11-1.45-.49-2.89-.49-1.44.38-2.88.38-1.44-.43-2.88-.43-1.45.5-2.89.5-1.44-.49-2.88-.49-1.45.18-2.89.18-1.44-.33-2.88-.33-1.45.08-2.89.08-1.44.68-2.88.68-1.44,0-2.89,0-1.43.12-2.87.12-1.44-.95-2.88-.95l-2.88,0c-1.44,0-1.44.22-2.88.22s-1.44.73-2.88.73-1.44-.81-2.88-.81-1.44-.09-2.88-.09-1.44.29-2.89.29-1.44.09-2.88.09-1.44-.3-2.89-.3-1.44.06-2.88.06-1.44.61-2.88.61-1.44-.37-2.88-.37-1.44-.23-2.89-.23-1.44.33-2.88.33-1.44.34-2.88.34-1.44-.17-2.88-.17-1.44.07-2.89.07-1.44-.59-2.88-.59-1.45.36-2.89.36-1.44.11-2.88.11-1.44-.29-2.88-.29-1.45-.07-2.89-.07-1.44.49-2.88.49-1.44-.22-2.89-.22-1.44-.21-2.88-.21-1.44.24-2.89.24-1.44.28-2.88.28-1.45-.45-2.89-.45-1.44.05-2.88.05-1.44.45-2.89.45-1.44-.12-2.88-.12-1.45-.38-2.89-.38-1.44.05-2.89.05-1.44-.26-2.88-.26-1.44.34-2.89.34-1.44.12-2.88.12-1.45.16-2.89.16-1.44-.22-2.89-.22-1.44-.4-2.88-.4-1.45,0-2.89,0-1.45.69-2.89.69-1.44-.82-2.89-.82-1.44.68-2.88.68-1.45.09-2.89.09-1.44-.29-2.89-.29-1.44-.25-2.89-.25-1.44.39-2.88.39-1.45-.07-2.89-.07-1.44-.29-2.88-.29-1.44.56-2.89.56-1.44-.06-2.89-.06-1.44,0-2.88,0-1.45-.21-2.89-.21-1.44-.44-2.89-.44-1.44-.21-2.89-.21-1.44.23-2.89.23-1.44.32-2.89.32-1.44-.28-2.89-.28-1.44.23-2.89.23-1.44-.16-2.89-.16-1.44-.13-2.89-.13-1.44.56-2.89.56-1.44-.14-2.89-.14l-2.9,0c-1.44,0-1.62.61-2.65-.4s.19-1.19.19-2.62-.56-1.44-.56-2.87.49-1.43.49-2.86,0-1.43,0-2.86-.71-1.44-.71-2.87.75-1.43.75-2.86-.36-1.43-.36-2.86,0-1.43,0-2.86,0-1.43,0-2.87.28-1.43.28-2.86-.84-1.43-.84-2.86.5-1.44.5-2.87-.35-1.43-.35-2.86,0-1.43,0-2.86.54-1.44.54-2.87,0-1.43,0-2.86.18-1.43.18-2.86-.77-1.43-.77-2.87.17-1.43.17-2.86.42-1.43.42-2.87-.6-1.43-.6-2.86.32-1.43.32-2.86.55-1.43.55-2.86-.12-1.43-.12-2.86-.74-1.43-.74-2.86.14-1.43.14-2.86-.06-1.43-.06-2.86.15-1.43.15-2.86-.19-1.43-.19-2.86.06-1.43.06-2.86.4-1.43.4-2.86.27-1.43.27-2.86-.82-1.44-.82-2.87.22-1.43.22-2.86.35-1.43.35-2.86.29-1.43.29-2.86.13-1.43.13-2.86-.83-1.43-.83-2.86-.07-1.43-.07-2.87.62-1.43.62-2.86-.16-1.43-.16-2.86.26-1.43.26-2.87.14-1.43.14-2.86-.1-1.43-.1-2.86-.26-1.44-.26-2.87-.4-1.43-.4-2.86-.12-1.43-.12-2.86.89-1.43.89-2.86-.43-1.44-.43-2.87.07-1.43.07-2.87.09-1.43.09-2.86.08-1.43.08-2.86-.13-1.44-.13-2.87.08-1.43.08-2.86.13-1.43.13-2.87-.54-1.43-.54-2.86,0-1.44,0-2.87.65-1.43.65-2.86-.59-1.43-.59-2.87.32-1.43.32-2.86-.38-1.44-.38-2.87.51-1.43.51-2.87-.5-1.43-.5-2.86.54-1.43.54-2.87-.65-1.43-.65-2.86.74-1.44.74-2.87-.18-1.43-.18-2.87.08-1.43.08-2.86-.28-1.44-.28-2.87-.27-1.43-.27-2.87,0-1.43,0-2.86.19-1.44.19-2.87-.42-1.43-.42-2.86.91-1.43.91-2.87,0-1.43,0-2.86-.9-1.44-.9-2.87.54-1.43.54-2.87-.07-1.43-.07-2.86-.51-1.44-.51-2.87.72-1.44.72-2.87-.48-1.43-.48-2.87.09-1.43.09-2.87-.25-1.43-.25-2.87V59.07c0-1.43.87-1.43.87-2.87s-.64-1.43-.64-2.87.21-1.43.21-2.87-.34-1.43-.34-2.87-1-2.17,0-3.19,1.75.61,3.19.61,1.44-.73,2.89-.73,1.44.6,2.88.6,1.44-.05,2.88-.05,1.44-.26,2.88-.26,1.45.28,2.89.28,1.44.21,2.88.21,1.44-.41,2.89-.41S67.56,45,69,45s1.44-.59,2.89-.59,1.44.5,2.88.5,1.44.17,2.88.17,1.45.1,2.89.1,1.44.06,2.88.06,1.44-.78,2.88-.78,1.45.78,2.89.78,1.44-.54,2.88-.54,1.45.06,2.89.06,1.44.36,2.88.36,1.45-.81,2.89-.81,1.44,0,2.88,0,1.44,0,2.88,0,1.44.62,2.88.62,1.44.06,2.88.06,1.44-.52,2.88-.52,1.44.18,2.88.18,1.44-.39,2.88-.39,1.44.58,2.88.58,1.44-.36,2.88-.36,1.44.63,2.89.63,1.44-.67,2.88-.67,1.44.51,2.89.51,1.44-.52,2.88-.52,1.44.36,2.88.36,1.44-.43,2.88-.43,1.44,0,2.89,0,1.44.68,2.88.68,1.44-.17,2.88-.17,1.44-.2,2.88-.2,1.44,0,2.89,0,1.44-.05,2.88-.05,1.45-.24,2.89-.24,1.44.28,2.88.28,1.44-.29,2.88-.29,1.45.58,2.89.58,1.44-.45,2.88-.45,1.44-.07,2.88-.07,1.45,0,2.89,0,1.44.81,2.89.81,1.44-.31,2.88-.31,1.44-.41,2.89-.41,1.44-.07,2.88-.07,1.44.68,2.89.68,1.44-.09,2.88-.09,1.45-.55,2.89-.55,1.44.33,2.89.33h2.88c1.44,0,1.44-.38,2.89-.38s1.44-.08,2.88-.08,1.45.28,2.89.28,1.44,0,2.89,0,1.44.35,2.88.35h2.89c1.44,0,1.44-.45,2.89-.45s1.44.57,2.89.57,1.44-.34,2.88-.34,1.45.43,2.89.43,1.44,0,2.89,0,1.44-.17,2.89-.17,1.44-.6,2.88-.6,1.45.49,2.89.49,1.44-.3,2.88-.3,1.44.22,2.89.22,1.44-.4,2.89-.4,1.44-.2,2.88-.2,1.45.67,2.89.67,1.44.1,2.89.1H268c1.44,0,1.44.09,2.89.09s1.44.07,2.89.07,1.44-.54,2.89-.54,1.44.43,2.89.43,1.44-.7,2.89-.7,1.44.14,2.89.14,1.44.15,2.89.15,1.44.17,2.89.17,1.45-.32,2.9-.32,1.59-.52,2.62.5-.2,1.15-.2,2.59.66,1.43.66,2.86-.62,1.43-.62,2.86.62,1.43.62,2.87-.32,1.43-.32,2.86.58,1.43.58,2.86-.77,1.43-.77,2.86.18,1.43.18,2.86-.31,1.44-.31,2.87.75,1.43.75,2.86,0,1.43,0,2.87-.54,1.43-.54,2.86.65,1.43.65,2.86S297,83.36,297,84.8s0,1.43,0,2.86-.12,1.43-.12,2.86-.37,1.43-.37,2.86.18,1.44.18,2.87,0,1.43,0,2.86.44,1.43.44,2.87-.2,1.43-.2,2.86,0,1.43,0,2.86-.16,1.43-.16,2.87.21,1.43.21,2.85.46,1.43.46,2.86-.94,1.43-.94,2.86.4,1.43.4,2.86-.36,1.43-.36,2.86.6,1.43.6,2.86.33,1.43.33,2.86S297,132,297,133.44s-.3,1.43-.3,2.87.25,1.43.25,2.86.19,1.43.19,2.86,0,1.43,0,2.86-.45,1.43-.45,2.86.19,1.44.19,2.87-.07,1.43-.07,2.86-.39,1.43-.39,2.86.76,1.43.76,2.86-.66,1.43-.66,2.86.63,1.44.63,2.87.24,1.43.24,2.86-.1,1.43-.1,2.87,0,1.43,0,2.86-.15,1.43-.15,2.86.16,1.43.16,2.86-.7,1.43-.7,2.87.77,1.43.77,2.86-.41,1.43-.41,2.87-.53,1.43-.53,2.86,0,1.43,0,2.86.91,1.44.91,2.87-.37,1.43-.37,2.86-.18,1.44-.18,2.87-.17,1.43-.17,2.86.19,1.44.19,2.87v2.86c0,1.44-.29,1.44-.29,2.87s.81,1.43.81,2.87,0,1.43,0,2.86-.44,1.43-.44,2.87-.29,1.43-.29,2.86.09,1.44.09,2.87.32,1.43.32,2.87-.56,1.43-.56,2.86,0,1.44,0,2.87.87,1.43.87,2.87-.51,1.43-.51,2.86.39,1.44.39,2.87S297,246.58,297,248s.13,1.44.13,2.87-.18,1.43-.18,2.86-.35,1.44-.35,2.87.27,1.43.27,2.87-.41,1.43-.41,2.86.84,1.43.84,2.87-.43,1.43-.43,2.86.07,1.44.07,2.87,0,1.44,0,2.87-.29,1.44-.29,2.87.5,1.43.5,2.87-.6,1.43-.6,2.87.39,1.43.39,2.87.48,1.43.48,2.87-1,1.43-1,2.87.14,1.43.14,2.87.31,1.4.65,2.8C297.64,298.29,298.14,298.81,297.13,299.82Z"/><path class="cls-5" d="M160.4,122.71c-1.36,1.41-2.19.08-4.16.08s-2-.18-3.93-.18-2-.24-3.93-.24-2-.22-3.93-.22-2,.12-3.93.12h-3.93c-2,0-2,.47-3.93.47s-2-.57-3.93-.57-2,.41-3.93.41-2-.16-3.93-.16-2-.11-3.93-.11-2,0-3.93,0-2,.16-3.92.16-2,.2-3.93.2-2-.4-3.93-.4-2,.25-3.93.25-2-.06-3.93-.06-2,.29-3.94.29-2-.53-3.93-.53-2,0-3.93,0-2,.36-3.94.36-2-.18-3.93-.18-2,.12-3.93.12-2-.28-3.93-.28-2,.18-3.94.18-2.8,1.69-4.16.28.25-2.25.25-4.29.09-2,.09-4.07,0-2,0-4.07,0-2,0-4.07.12-2,.12-4.07-.07-2-.07-4.07,0-2,0-4.08-.38-2-.38-4.07.46-2,.46-4.08-.19-2-.19-4.07-.21-2-.21-4.08.4-2,.4-4.07-.54-2-.54-4.08.18-2,.18-4.08-1.47-2.78-.06-4.25,2.14.06,4.11.06,2-.12,3.92-.12,2,.31,3.93.31,2-.24,3.93-.24,2,0,3.93,0,2-.14,3.93-.14,2,.49,3.93.49,2,.12,3.93.12,2-.57,3.93-.57,2-.11,3.93-.11,2,.49,3.93.49,2-.09,3.94-.09,2-.23,3.92-.23,2,0,3.93,0,2-.12,3.93-.12,2,.34,3.93.34,2-.4,3.93-.4,2,.05,3.93.05,2,.37,3.94.37,2-.07,3.93-.07,2-.16,3.93-.16,2,0,3.93,0,2,.38,3.94.38,2,.06,3.93.06,2-.59,3.94-.59,2.55-1.12,3.92.29.36,2,.36,4-.34,2-.34,4.07,0,2,0,4.07-.05,2-.05,4.07-.18,2-.18,4.08.1,2,.1,4.07.35,2,.35,4.07-.46,2-.46,4.08.47,2,.47,4.07-.36,2-.36,4.08.17,2,.17,4.07-.11,2-.11,4.08.1,2,.1,4.07-.86,2.17-.39,4.16C160.38,120.71,161.81,121.23,160.4,122.71Z"/><path class="cls-6" d="M278.63,280.19c-1.54,1.57-2.17,0-4.37,0s-2.2-.06-4.4-.06-2.2.08-4.4.08-2.2-.07-4.4-.07-2.2.16-4.41.16-2.2.23-4.4.23-2.2-.22-4.4-.22-2.2,0-4.41,0-2.2.3-4.4.3-2.2-.51-4.4-.51-2.2-.13-4.41-.13-2.2.39-4.4.39-2.2.25-4.4.25-2.21-.1-4.41-.1-2.2-.06-4.4-.06-2.2.18-4.41.18-2.2-.66-4.4-.66-2.2.16-4.41.16-2.2.19-4.4.19-2.2-.2-4.41-.2-2.2.39-4.4.39-2.21.06-4.41.06-2.2-.55-4.41-.55-2.2,0-4.4,0-2.2.4-4.4.4-2.21-.42-4.41-.42-2.2.19-4.4.19-2.21-.12-4.41-.12-2.2.3-4.41.3-2.2-.3-4.41-.3-2.2.09-4.4.09-2.21,0-4.41,0-2.2.37-4.41.37-2.2-.18-4.41-.18-2.21-.17-4.41-.17-2.72,1.61-4.28,0-.52-2.09-.52-4.32.09-2.23.09-4.45.54-2.23.54-4.46-.49-2.23-.49-4.45.45-2.23.45-4.46.15-2.23.15-4.46-.71-2.23-.71-4.45.28-2.23.28-4.46.14-2.23.14-4.46-.12-2.23-.12-4.47-1.63-3-.06-4.57,2.31.15,4.51.15,2.21-.14,4.41-.14,2.2-.25,4.4-.25,2.2.6,4.4.6,2.2-.29,4.4-.29,2.2-.19,4.41-.19,2.2-.12,4.4-.12,2.2.36,4.4.36,2.2-.15,4.41-.15,2.2.22,4.4.22,2.2-.31,4.4-.31,2.21.1,4.41.1,2.2-.1,4.4-.1,2.2.54,4.41.54,2.2-.29,4.4-.29,2.2.2,4.4.2,2.21.06,4.41.06,2.2-.15,4.4-.15,2.21-.38,4.41-.38,2.2,0,4.41,0h4.4c2.2,0,2.2.06,4.41.06s2.2.31,4.4.31,2.21-.46,4.41-.46,2.2.36,4.4.36,2.2.34,4.41.34,2.2-.65,4.4-.65,2.2.09,4.41.09,2.2.31,4.41.31,2.2.08,4.4.08,2.21-.15,4.41-.15,2.2-.18,4.41-.18,2.2.53,4.41.53,2.2-.56,4.41-.56,2.2.54,4.41.54,2.66-1.71,4.22-.14.53,2,.53,4.26-.12,2.22-.12,4.45-.24,2.23-.24,4.46.29,2.22.29,4.45-.16,2.23-.16,4.46.05,2.23.05,4.46-.07,2.22-.07,4.45-.15,2.23-.15,4.46,0,2.23,0,4.46a14.17,14.17,0,0,0,.39,4.4C279.47,278,280.2,278.6,278.63,280.19Z"/><path class="cls-7" d="M113,151.73a17.48,17.48,0,0,1-3.11-.25,4.66,4.66,0,0,0-.89-.07,10.38,10.38,0,0,0-1.3.07,25.3,25.3,0,0,1-2.7.13,19.18,19.18,0,0,1-3-.21,5.81,5.81,0,0,0-1-.07H97a23.25,23.25,0,0,1-2.71-.14,10.68,10.68,0,0,0-1.29-.06h-.18l-.12,0a14.17,14.17,0,0,1-3.71.46,15.39,15.39,0,0,1-3.34-.33,2.5,2.5,0,0,0-.66-.06,6.73,6.73,0,0,0-1.11.07,21.86,21.86,0,0,1-2.89.18,21.44,21.44,0,0,1-2.84-.17,7.24,7.24,0,0,0-1.16-.07H73c-.78,0-1.16,0-1.55.05-.54,0-1.22.08-2.45.08a11.13,11.13,0,0,0-1.32.06,24.94,24.94,0,0,1-2.69.13c-1.27,0-2-.06-2.55-.1s-.72-.06-1.45-.06a7.09,7.09,0,0,1,0-14.17c1.28,0,2,.06,2.56.1s.72.06,1.44.06a10.75,10.75,0,0,0,1.32-.07A24.94,24.94,0,0,1,69,137.2c.77,0,1.15,0,1.54,0,.55,0,1.23-.08,2.46-.08h4a21.44,21.44,0,0,1,2.84.17,8.64,8.64,0,0,0,1.16.07,6.86,6.86,0,0,0,1.12-.07,19.82,19.82,0,0,1,2.88-.19,15.57,15.57,0,0,1,3.35.33,2.42,2.42,0,0,0,.65.06h.18l.12,0a14.17,14.17,0,0,1,3.71-.46,23.4,23.4,0,0,1,2.71.14,10.2,10.2,0,0,0,1.29.07h4a19.68,19.68,0,0,1,3,.2,4.79,4.79,0,0,0,1,.08,10.69,10.69,0,0,0,1.31-.07,25.08,25.08,0,0,1,2.69-.13,18.6,18.6,0,0,1,3.11.24,4,4,0,0,0,.89.08h.25l.2-.05a15.14,15.14,0,0,1,3.56-.39c1.12,0,1.68,0,2.24,0s.88,0,1.76,0,1.35,0,1.81,0,1.09,0,2.19,0a19.93,19.93,0,0,1,2.87.18,9.24,9.24,0,0,0,2.27,0,20,20,0,0,1,2.87-.18,21.2,21.2,0,0,1,2.84.17,7.38,7.38,0,0,0,1.17.07c1.23,0,1.92,0,2.47.08.38,0,.76.05,1.53.05l2.11,0h1.89l.11,0a13.51,13.51,0,0,1,3.9-.53,19.28,19.28,0,0,1,3,.2,6.14,6.14,0,0,0,1,.07c1.21,0,1.88,0,2.42.07s.8.05,1.59.05a7.09,7.09,0,1,1,0,14.17c-1.21,0-1.88,0-2.42-.07s-.79,0-1.59,0a19.14,19.14,0,0,1-3-.21,6.06,6.06,0,0,0-1-.07l-.11,0a13.33,13.33,0,0,1-3.9.54l-2.1,0h-1.9c-1.24,0-1.92,0-2.47-.09-.38,0-.77-.05-1.53-.05a21.49,21.49,0,0,1-2.85-.17,8.53,8.53,0,0,0-1.16-.07,8.43,8.43,0,0,0-1.14.07,22.89,22.89,0,0,1-5.73,0,8.43,8.43,0,0,0-1.14-.07c-.9,0-1.36,0-1.81,0s-1.1,0-2.19,0-1.69,0-2.25,0-.88,0-1.75,0h-.25l-.2,0A15.1,15.1,0,0,1,113,151.73Z"/><path class="cls-7" d="M77.6,169.92l-2,0c-.48,0-1,0-1.93,0a11.36,11.36,0,0,1-2.21-.19,7.65,7.65,0,0,0-1.72-.16,8.15,8.15,0,0,0-1.7.16,10.35,10.35,0,0,1-2.23.21,8,8,0,0,1-2.31-.3,5.65,5.65,0,0,0-1.61-.2c-1,0-1.56,0-2.07-.08s-.93-.07-1.86-.07a1.42,1.42,0,1,1,0-2.83c1,0,1.56,0,2.06.07s.94.07,1.87.07a8,8,0,0,1,2.31.3,5.26,5.26,0,0,0,1.61.21,8.27,8.27,0,0,0,1.71-.16,10.31,10.31,0,0,1,2.22-.21,10.48,10.48,0,0,1,2.22.2,8.42,8.42,0,0,0,1.71.15c1,0,1.5,0,2,0s1,0,1.93,0a7.55,7.55,0,0,0,1.71-.16,11.2,11.2,0,0,1,2.22-.2,11.8,11.8,0,0,0,1.78-.12,13.94,13.94,0,0,1,2.15-.14c1,0,1.56,0,2.07.07s.93.07,1.86.07a12.33,12.33,0,0,1,2.2.18,10.76,10.76,0,0,0,3.46,0,11.44,11.44,0,0,1,2.2-.18c.94,0,1.41,0,1.88-.06s1-.07,2.05-.07a7.7,7.7,0,0,1,2.33.31,5.54,5.54,0,0,0,1.61.21H109c1,0,1.51,0,2,0s1,0,1.91,0a11.49,11.49,0,0,0,1.76-.12,12.41,12.41,0,0,1,2.17-.16,13.94,13.94,0,0,1,2.15.14,11.8,11.8,0,0,0,1.78.12,9.75,9.75,0,0,0,1.75-.14,12.3,12.3,0,0,1,2.18-.17,12.5,12.5,0,0,1,2.17.16,11.49,11.49,0,0,0,1.76.12,8.77,8.77,0,0,0,1.74-.14,12.33,12.33,0,0,1,2.2-.18h7.86c1,0,1.56,0,2.07.07s.93.07,1.87.07a7,7,0,0,0,1.66-.18,9,9,0,0,1,2.27-.25,7,7,0,0,1,2.4.38,4,4,0,0,0,1.53.25,15.94,15.94,0,0,0,1.85-.08c.51,0,1-.09,2.09-.09a8.65,8.65,0,0,0,1.73-.15,11.19,11.19,0,0,1,2.21-.19,1.42,1.42,0,1,1,0,2.83,8.45,8.45,0,0,0-1.72.15,10.48,10.48,0,0,1-2.22.2c-.92,0-1.37,0-1.85.08s-1,.09-2.09.09a6.89,6.89,0,0,1-2.4-.39,4.21,4.21,0,0,0-1.53-.25,7.05,7.05,0,0,0-1.67.18,9,9,0,0,1-2.26.25c-1,0-1.56,0-2.07-.07s-.93-.07-1.87-.07h-7.86a8.77,8.77,0,0,0-1.74.14,12.33,12.33,0,0,1-2.2.18,13.36,13.36,0,0,1-2.16-.16,11.75,11.75,0,0,0-1.77-.12,10,10,0,0,0-1.75.13,12.3,12.3,0,0,1-2.18.17,15.49,15.49,0,0,1-2.15-.14,11.8,11.8,0,0,0-1.78-.12,10.09,10.09,0,0,0-1.76.13,13.51,13.51,0,0,1-2.17.16c-1,0-1.51,0-2,0s-1,0-1.91,0h-3.92a8.12,8.12,0,0,1-2.33-.3,5.26,5.26,0,0,0-1.61-.21c-.93,0-1.4,0-1.87.06s-1,.06-2.06.06a8.65,8.65,0,0,0-1.73.15,13.47,13.47,0,0,1-4.39,0,8.85,8.85,0,0,0-1.74-.14c-1,0-1.56,0-2.07-.08s-.93-.07-1.86-.07a11.64,11.64,0,0,0-1.77.12,14.1,14.1,0,0,1-2.16.14,8.27,8.27,0,0,0-1.71.16A11.2,11.2,0,0,1,77.6,169.92Z"/><path class="cls-7" d="M160.17,185.68a16.49,16.49,0,0,1-2.12-.11,14.49,14.49,0,0,0-1.82-.1,9.11,9.11,0,0,1-2.26-.24,7.08,7.08,0,0,0-1.68-.18,4.61,4.61,0,0,0-1.57.24,7.5,7.5,0,0,1-2.36.34c-1.05,0-1.58,0-2.09-.08a18.38,18.38,0,0,0-1.84-.08c-1,0-1.5,0-2,0h-1.95a11.2,11.2,0,0,1-2.22-.2,7.62,7.62,0,0,0-1.71-.16,5.81,5.81,0,0,0-1.63.2,8.54,8.54,0,0,1-2.3.28,8.12,8.12,0,0,1-2.34-.31,5.89,5.89,0,0,0-3.19,0,7.65,7.65,0,0,1-2.34.32,12.5,12.5,0,0,1-2.17-.16,10.32,10.32,0,0,0-1.76-.12,15.49,15.49,0,0,1-2.15-.14,11.48,11.48,0,0,0-1.78-.12,6.38,6.38,0,0,0-1.66.19,9,9,0,0,1-2.27.25,10.3,10.3,0,0,1-2.24-.22,7.3,7.3,0,0,0-1.69-.17c-.93,0-1.38,0-1.86.07s-1,.08-2.06.08-1.44,0-1.92,0-1,0-2,0a10,10,0,0,0-1.75.13,12.55,12.55,0,0,1-2.18.16,18.93,18.93,0,0,1-2.1-.1,15,15,0,0,0-1.83-.09,10.42,10.42,0,0,1-2.23-.21,7.4,7.4,0,0,0-1.7-.17c-1,0-1.43,0-1.91,0s-1,0-2,0-1.42,0-1.9,0-1,0-2,0-1.57,0-2.08-.08-.92-.08-1.85-.08H73.67a3.87,3.87,0,0,0-1.51.26,6.65,6.65,0,0,1-2.42.41c-1,0-1.52,0-2,0s-.95-.05-1.9-.05a10.3,10.3,0,0,1-2.24-.22,7.2,7.2,0,0,0-1.68-.17,14.3,14.3,0,0,0-1.81.1,16,16,0,0,1-2.12.12,1.42,1.42,0,1,1,0-2.83,12.11,12.11,0,0,0,1.8-.11,16.1,16.1,0,0,1,2.13-.12,9.63,9.63,0,0,1,2.24.23,7.2,7.2,0,0,0,1.68.17c1,0,1.53,0,2,0s1,0,1.9,0a3.87,3.87,0,0,0,1.51-.26,6.79,6.79,0,0,1,2.42-.4H77.6c1,0,1.57.05,2.09.09a18.38,18.38,0,0,0,1.84.08c1,0,1.43,0,1.9-.05s1,0,2,0,1.44,0,1.92,0,1,0,2,0a10.54,10.54,0,0,1,2.24.21,7.3,7.3,0,0,0,1.69.17,19,19,0,0,1,2.11.1,17.37,17.37,0,0,0,1.82.09,10.09,10.09,0,0,0,1.76-.13,12.5,12.5,0,0,1,2.17-.16c1,0,1.44,0,1.92,0s1,0,2,0,1.37,0,1.85-.07,1-.08,2.07-.08a9.56,9.56,0,0,1,2.24.23,7.36,7.36,0,0,0,1.69.17,6.38,6.38,0,0,0,1.66-.19,9,9,0,0,1,2.27-.25,14,14,0,0,1,2.15.14,11.89,11.89,0,0,0,1.78.11,12.41,12.41,0,0,1,2.17.16,10.09,10.09,0,0,0,1.76.13,5.11,5.11,0,0,0,1.59-.22,8.85,8.85,0,0,1,4.68,0,5.13,5.13,0,0,0,1.6.22,5.81,5.81,0,0,0,1.63-.2,8.54,8.54,0,0,1,2.3-.28,10.48,10.48,0,0,1,2.22.2,8.42,8.42,0,0,0,1.71.15c1,0,1.49,0,2,0h2c1,0,1.57.05,2.08.09s.92.08,1.85.08a4.58,4.58,0,0,0,1.56-.23,7.27,7.27,0,0,1,2.37-.35,9.66,9.66,0,0,1,2.27.24,6.5,6.5,0,0,0,1.67.18,18.6,18.6,0,0,1,2.12.11,14.49,14.49,0,0,0,1.82.1,1.42,1.42,0,1,1,0,2.83Z"/><path class="cls-7" d="M109,201.43l-2,0c-.48,0-1,0-1.92,0s-1.53,0-2,0-1-.05-1.9-.05l-1.93,0-2,0a9.06,9.06,0,0,1-2.29-.27,5.84,5.84,0,0,0-1.64-.2c-.95,0-1.42,0-1.9,0s-1,.05-2,.05a10,10,0,0,0-1.75.13,12.55,12.55,0,0,1-2.18.16,9.76,9.76,0,0,1-2.24-.22,8,8,0,0,0-1.69-.16c-.92,0-1.38,0-1.85.07s-1,.08-2.08.08a14.11,14.11,0,0,0-1.8.1,14.17,14.17,0,0,1-2.13.13H69.74c-.93,0-1.4,0-1.87.06s-1,.06-2.06.06H61.89c-1,0-1.52,0-2,0s-1,0-1.9,0a1.42,1.42,0,1,1,0-2.83c1,0,1.51,0,2,0s1,0,1.91,0h3.92c.94,0,1.41,0,1.88-.06s1-.07,2-.07h3.93a14.43,14.43,0,0,0,1.81-.1,16,16,0,0,1,2.12-.12c.93,0,1.38,0,1.86-.08s1-.08,2.07-.08a10.3,10.3,0,0,1,2.24.22,7.36,7.36,0,0,0,1.69.17,10.09,10.09,0,0,0,1.76-.13,12.16,12.16,0,0,1,2.17-.17c1,0,1.43,0,1.91,0s1,0,2,0a8.64,8.64,0,0,1,2.3.27,5.88,5.88,0,0,0,1.63.19l1.94,0,2,0c1,0,1.53,0,2,.06s1,.05,1.9.05l2,0c.48,0,1,0,1.92,0a8.89,8.89,0,0,0,1.75-.14,12.55,12.55,0,0,1,2.18-.16,18.46,18.46,0,0,0,1.85-.08c.51,0,1-.08,2.08-.08a16,16,0,0,1,2.12.12,14.43,14.43,0,0,0,1.81.1c1,0,1.43,0,1.9,0s1,0,2,0l2,0c.48,0,1,0,1.93,0a13.67,13.67,0,0,1,2.16.15,10.6,10.6,0,0,0,1.78.12,8.45,8.45,0,0,0,1.72-.15,12.47,12.47,0,0,1,2.21-.18h3.93a16.49,16.49,0,0,1,2.12.11,14.49,14.49,0,0,0,1.82.1,11.59,11.59,0,0,0,1.78-.12,15.91,15.91,0,0,1,2.15-.13c.94,0,1.41,0,1.88-.06s1-.06,2-.06a7.75,7.75,0,0,1,2.33.31,5.59,5.59,0,0,0,1.61.21,14.55,14.55,0,0,0,1.83-.1,19.14,19.14,0,0,1,2.11-.1,1.42,1.42,0,1,1,0,2.83,14.68,14.68,0,0,0-1.83.1,19,19,0,0,1-2.11.1,8.17,8.17,0,0,1-2.33-.3,5.26,5.26,0,0,0-1.61-.21c-.94,0-1.41,0-1.88.05s-1,.06-2,.06a11.63,11.63,0,0,0-1.79.12,15.61,15.61,0,0,1-2.14.13,18.6,18.6,0,0,1-2.12-.11,14.49,14.49,0,0,0-1.82-.1h-3.93a8.65,8.65,0,0,0-1.73.15,11.15,11.15,0,0,1-2.2.19,13.67,13.67,0,0,1-2.16-.15,10.6,10.6,0,0,0-1.78-.12c-1,0-1.49,0-2,0s-1,0-1.94,0-1.42,0-1.9.05-1,0-2,0a18.6,18.6,0,0,1-2.12-.11,12.37,12.37,0,0,0-1.81-.11,18.46,18.46,0,0,0-1.85.08c-.51,0-1,.08-2.08.08a10,10,0,0,0-1.75.13A12.3,12.3,0,0,1,109,201.43Z"/><path class="cls-7" d="M85.46,217.16a11,11,0,0,1-2.19-.19,9.71,9.71,0,0,0-1.74-.14c-.94,0-1.42,0-1.89,0s-1,.05-2,.05-1.51,0-2,0-1,0-1.91,0a18.54,18.54,0,0,1-2.11-.11,14.49,14.49,0,0,0-1.82-.1,7,7,0,0,0-1.66.18,9,9,0,0,1-2.27.25H61.89a8.49,8.49,0,0,1-2.29-.27,6,6,0,0,0-1.64-.19,1.42,1.42,0,0,1,0-2.84,9.06,9.06,0,0,1,2.29.27,5.84,5.84,0,0,0,1.64.2l1.94,0h2a6.56,6.56,0,0,0,1.67-.18,9.63,9.63,0,0,1,2.26-.24,16.49,16.49,0,0,1,2.12.11,14.43,14.43,0,0,0,1.81.1c1,0,1.52,0,2,0s1,0,1.91,0,1.42,0,1.9,0,1-.05,2-.05a11.35,11.35,0,0,1,2.2.18,8.81,8.81,0,0,0,1.73.14,17.37,17.37,0,0,0,1.82-.09,16.43,16.43,0,0,1,2.11-.11c1,0,1.43,0,1.91,0s1,0,2,0a9.75,9.75,0,0,0,1.75-.14,12.3,12.3,0,0,1,2.18-.17c1,0,1.54,0,2,.06s.94.05,1.88.05a16.23,16.23,0,0,1,2.13.12,14.17,14.17,0,0,0,1.81.1,18.18,18.18,0,0,1,2.1.11,15,15,0,0,0,1.82.09c1,0,1.44,0,1.92,0s1,0,2,0a18.14,18.14,0,0,0,1.83-.08,18.93,18.93,0,0,1,2.1-.1h3.93a10.09,10.09,0,0,0,1.76-.13,12.41,12.41,0,0,1,2.17-.16,15.66,15.66,0,0,1,2.15.13,10.6,10.6,0,0,0,1.78.12,14.49,14.49,0,0,0,1.82-.1,18.6,18.6,0,0,1,2.12-.11,16,16,0,0,1,2.12.12,14.17,14.17,0,0,0,1.81.1c.95,0,1.43,0,1.91,0s1,0,2,0a11.2,11.2,0,0,1,2.22.2,7.65,7.65,0,0,0,1.72.16A5.11,5.11,0,0,0,146,214a7.65,7.65,0,0,1,2.34-.32,8.18,8.18,0,0,1,2.34.31,4.78,4.78,0,0,0,1.59.22,7.62,7.62,0,0,0,1.71-.16,10.35,10.35,0,0,1,2.23-.21,11.19,11.19,0,0,1,2.21.19,8.65,8.65,0,0,0,1.73.15,1.42,1.42,0,1,1,0,2.83,11.28,11.28,0,0,1-2.21-.19,8.65,8.65,0,0,0-1.73-.15,8.08,8.08,0,0,0-1.7.16,10.38,10.38,0,0,1-2.24.22,7.76,7.76,0,0,1-2.34-.32,5.86,5.86,0,0,0-3.18,0,7.76,7.76,0,0,1-2.34.32,10.51,10.51,0,0,1-2.23-.2,8.34,8.34,0,0,0-1.71-.15c-1,0-1.43,0-1.91,0s-1,0-2,0a18.6,18.6,0,0,1-2.12-.11,14.43,14.43,0,0,0-1.81-.1,15,15,0,0,0-1.82.09,16.49,16.49,0,0,1-2.12.11,15.91,15.91,0,0,1-2.15-.13,10.51,10.51,0,0,0-1.78-.12,10.18,10.18,0,0,0-1.76.13,12.32,12.32,0,0,1-2.17.16H116.9a17.44,17.44,0,0,0-1.83.09,18.93,18.93,0,0,1-2.1.1c-1,0-1.44,0-1.92,0s-1,0-2,0a18.54,18.54,0,0,1-2.11-.11,14.76,14.76,0,0,0-1.81-.09,16.1,16.1,0,0,1-2.13-.12,14.17,14.17,0,0,0-1.81-.1c-1,0-1.53,0-2-.06s-.94-.05-1.89-.05a9.83,9.83,0,0,0-1.74.13,12.44,12.44,0,0,1-2.19.17c-.95,0-1.43,0-1.9,0s-1,0-2,0a14.17,14.17,0,0,0-1.81.1A18.6,18.6,0,0,1,85.46,217.16Z"/><path class="cls-7" d="M90.89,232.38c-.73,0-1.1,0-1.46-.06a11.76,11.76,0,0,0-1.28-.06l-1.4,0H85.4a7.26,7.26,0,0,1-1.56-.15,5.29,5.29,0,0,0-1.19-.12H77.16a6.94,6.94,0,0,0-1.23.09,9.48,9.48,0,0,1-1.52.11,6.69,6.69,0,0,0-1.22.1,9.48,9.48,0,0,1-1.52.11,5.18,5.18,0,0,1-1.62-.22,3.82,3.82,0,0,0-1.12-.15c-.67,0-1,0-1.34,0s-.7,0-1.41,0-1,0-1.33,0l-1.41,0a5.56,5.56,0,0,0-1.21.11,8.1,8.1,0,0,1-1.53.13H58a1,1,0,1,1,0-1.92H60.7a6.65,6.65,0,0,0,1.21-.1,7.93,7.93,0,0,1,1.53-.13c.67,0,1,0,1.33,0s.71,0,1.41,0,1,0,1.33,0,.71,0,1.42,0a5.58,5.58,0,0,1,1.62.21,3.37,3.37,0,0,0,1.12.16,6.82,6.82,0,0,0,1.23-.1,9.33,9.33,0,0,1,1.51-.11,7.07,7.07,0,0,0,1.24-.09,8.2,8.2,0,0,1,1.51-.11h5.49a7.26,7.26,0,0,1,1.56.15,5.42,5.42,0,0,0,1.19.11l1.39,0h1.36a14.41,14.41,0,0,1,1.46.07,11.76,11.76,0,0,0,1.28.06,5.26,5.26,0,0,0,1.18-.12,6.56,6.56,0,0,1,1.57-.16,7.2,7.2,0,0,1,1.54.14,5.67,5.67,0,0,0,1.2.1,3.24,3.24,0,0,0,1.1-.16,5.11,5.11,0,0,1,1.65-.25,11.28,11.28,0,0,1,1.49.09,8.75,8.75,0,0,0,1.26.08,9.48,9.48,0,0,1,1.52.11,8.53,8.53,0,0,0,1.24.08,1,1,0,0,1,0,1.92,9.22,9.22,0,0,1-1.51-.11,8.58,8.58,0,0,0-1.25-.08,11.54,11.54,0,0,1-1.49-.09,8.64,8.64,0,0,0-1.26-.08,3.32,3.32,0,0,0-1.1.16,5,5,0,0,1-1.65.25,7.2,7.2,0,0,1-1.54-.14,5.53,5.53,0,0,0-1.2-.11,5.19,5.19,0,0,0-1.18.12A6.63,6.63,0,0,1,90.89,232.38Z"/><path class="cls-7" d="M82.65,248.12a7.11,7.11,0,0,1-1.56-.16,5.26,5.26,0,0,0-1.18-.12,11.83,11.83,0,0,0-1.29.06c-.37,0-.73.06-1.46.06a8.14,8.14,0,0,1-1.54-.13,5.71,5.71,0,0,0-1.21-.1c-.64,0-1,0-1.28.05a12,12,0,0,1-1.46.07,7,7,0,0,0-1.23.09,8.06,8.06,0,0,1-1.51.12H66.18a9.18,9.18,0,0,1-1.5-.11,8.53,8.53,0,0,0-1.24-.08c-.72,0-1.09,0-1.45-.06s-.65-.05-1.29-.05a9.33,9.33,0,0,0-1.28.07,14.41,14.41,0,0,1-1.46.07A1,1,0,1,1,58,246a11.26,11.26,0,0,0,1.27-.07,12,12,0,0,1,1.47-.07c.72,0,1.08,0,1.44.05a12.9,12.9,0,0,0,1.3,0,9.18,9.18,0,0,1,1.5.11,8.53,8.53,0,0,0,1.24.08h2.75a6.89,6.89,0,0,0,1.22-.09,9.19,9.19,0,0,1,1.52-.12c.64,0,1,0,1.29-.05a11.73,11.73,0,0,1,1.45-.07,8.14,8.14,0,0,1,1.54.13,5.71,5.71,0,0,0,1.21.11,12,12,0,0,0,1.29-.06c.36,0,.73-.06,1.46-.06a7.26,7.26,0,0,1,1.56.15,4.72,4.72,0,0,0,1.18.12,4,4,0,0,0,1.15-.14,6,6,0,0,1,1.6-.19h1.39c.34,0,.68,0,1.36,0h2.74c.67,0,1,0,1.34,0s.7,0,1.41,0,1.09,0,1.45.06.65.05,1.29.05,1,0,1.34,0,.71,0,1.41,0h2.75c.72,0,1.07,0,1.43,0s.66,0,1.33,0a1,1,0,1,1,0,1.91c-.71,0-1.07,0-1.43,0s-.66,0-1.33,0H99.13c-.67,0-1,0-1.33,0s-.71,0-1.42,0-1.08,0-1.45-.06a12,12,0,0,0-1.29-.06c-.67,0-1,0-1.34,0s-.71,0-1.41,0H85.4a4,4,0,0,0-1.15.14A6,6,0,0,1,82.65,248.12Z"/><path class="cls-7" d="M74.41,263.89a5.56,5.56,0,0,1-1.61-.21,3.84,3.84,0,0,0-1.13-.15c-.65,0-1,0-1.29.05s-.73.06-1.45.06a7.12,7.12,0,0,0-1.25.09,10.9,10.9,0,0,1-1.5.1,8.1,8.1,0,0,1-1.53-.13,6.47,6.47,0,0,0-1.21-.1,9.33,9.33,0,0,0-1.28.07,14.41,14.41,0,0,1-1.46.07H58a1,1,0,0,1,0-1.92H60.7a11.84,11.84,0,0,0,1.27-.06,11.49,11.49,0,0,1,1.47-.08,8.1,8.1,0,0,1,1.53.13,5.78,5.78,0,0,0,1.21.1,8.81,8.81,0,0,0,1.25-.08,9.48,9.48,0,0,1,1.5-.1c.64,0,1,0,1.29-.05s.72-.06,1.45-.06a5.9,5.9,0,0,1,1.61.2,3.53,3.53,0,0,0,1.13.15c.67,0,1,0,1.33,0s.71,0,1.42,0,1,0,1.32,0,.71-.05,1.43-.05,1.06,0,1.42,0,.66,0,1.32,0h5.5a11.76,11.76,0,0,0,1.28-.06,11.92,11.92,0,0,1,1.46-.07,8.32,8.32,0,0,1,1.53.12,5.89,5.89,0,0,0,1.22.1,4.72,4.72,0,0,0,1.18-.12,7.11,7.11,0,0,1,1.56-.16,9.48,9.48,0,0,1,1.52.11,6.94,6.94,0,0,0,1.23.09h5.51a1,1,0,0,1,0,1.92H99.13a9.43,9.43,0,0,1-1.51-.11,7.07,7.07,0,0,0-1.24-.09,5.26,5.26,0,0,0-1.18.12,7.11,7.11,0,0,1-1.56.16,8,8,0,0,1-1.53-.13,6.69,6.69,0,0,0-1.22-.1,11.76,11.76,0,0,0-1.28.06,11.92,11.92,0,0,1-1.46.07h-5.5c-.71,0-1.06,0-1.42,0s-.66,0-1.32,0-1,0-1.32,0-.72,0-1.43,0-1,0-1.33,0S75.12,263.89,74.41,263.89Z"/><path class="cls-7" d="M93.64,279.63a6.56,6.56,0,0,1-1.57-.16,5.19,5.19,0,0,0-1.18-.12c-.73,0-1.09,0-1.46-.06a11.76,11.76,0,0,0-1.28-.06c-.66,0-1,0-1.31,0s-.72.05-1.44.05a7.16,7.16,0,0,0-1.24.09,9.22,9.22,0,0,1-1.51.11,9.74,9.74,0,0,1-1.51-.1,7,7,0,0,0-1.23-.09,5.53,5.53,0,0,0-1.2.11,7.07,7.07,0,0,1-1.55.15c-.71,0-1.07,0-1.43,0s-.66,0-1.32,0a11.92,11.92,0,0,1-1.46-.07,11.91,11.91,0,0,0-1.28-.06l-1.34,0-1.4,0-1.35,0-1.4,0c-.7,0-1.06,0-1.41,0s-.67,0-1.33,0a9.48,9.48,0,0,1-1.52-.11,6.69,6.69,0,0,0-1.22-.1,8.64,8.64,0,0,0-1.26.08,11.09,11.09,0,0,1-1.48.09,1,1,0,0,1,0-1.92,8.93,8.93,0,0,0,1.25-.07,9.65,9.65,0,0,1,1.49-.09,9.33,9.33,0,0,1,1.51.11,6.82,6.82,0,0,0,1.23.1c.7,0,1.06,0,1.41,0l1.33,0,1.34,0c.35,0,.7,0,1.41,0l1.34,0,1.4,0a14.65,14.65,0,0,1,1.47.07,9.27,9.27,0,0,0,1.27.07c.72,0,1.07,0,1.43,0s.66,0,1.32,0a5.29,5.29,0,0,0,1.19-.12,7.26,7.26,0,0,1,1.56-.15,9.18,9.18,0,0,1,1.5.11,7.16,7.16,0,0,0,1.24.09,6.94,6.94,0,0,0,1.23-.09,8.42,8.42,0,0,1,1.52-.11c.65,0,1,0,1.3-.05s.72-.05,1.45-.05,1.09,0,1.45.06a12,12,0,0,0,1.29.06,6.63,6.63,0,0,1,1.57.16,5.19,5.19,0,0,0,1.18.12,7.16,7.16,0,0,0,1.24-.09,9.18,9.18,0,0,1,1.5-.11c.73,0,1.09,0,1.45.05a12.76,12.76,0,0,0,1.3.05l1.4,0h1.35a4.66,4.66,0,0,0,1.18-.12,6.54,6.54,0,0,1,1.58-.17,1,1,0,1,1,0,1.92,4.72,4.72,0,0,0-1.18.12,6.47,6.47,0,0,1-1.58.17l-1.39,0H99.13c-.72,0-1.08,0-1.44-.05a13,13,0,0,0-1.31-.05,7,7,0,0,0-1.23.09A9.74,9.74,0,0,1,93.64,279.63Z"/><path class="cls-7" d="M237.33,75.15a13.86,13.86,0,0,1-3.82-.5l-.11,0h-.28l-.14,0a14.46,14.46,0,0,1-3.66.44,16.18,16.18,0,0,1-3.34-.32,2.47,2.47,0,0,0-.66-.07c-1.1,0-1.66,0-2.21,0s-.89,0-1.79,0c-.71,0-1,0-1.43.06s-1.29.1-2.57.1h-4c-.84,0-1.26,0-1.69,0s-1.15,0-2.31,0-1.8,0-2.4-.07c-.4,0-.8,0-1.61,0-1.32,0-2.06-.07-2.65-.12a11.18,11.18,0,0,0-1.35-.07h-4a13.14,13.14,0,0,0-1.44.06c-.57,0-1.28.1-2.56.1a23.52,23.52,0,0,1-2.76-.15,9.67,9.67,0,0,0-1.24-.07c-.79,0-1.18,0-1.58,0s-1.21.07-2.43.07a5.55,5.55,0,0,0-1,.07,18.26,18.26,0,0,1-3,.22,7.09,7.09,0,0,1,0-14.17,5.6,5.6,0,0,0,1-.07,18.21,18.21,0,0,1,3-.22c.79,0,1.18,0,1.58,0s1.21-.07,2.43-.07a21.45,21.45,0,0,1,2.76.15,10,10,0,0,0,1.24.06c.72,0,1,0,1.43-.05s1.29-.11,2.57-.11h4c1.33,0,2.06.07,2.65.12a11.31,11.31,0,0,0,1.35.07c1.2,0,1.8,0,2.4.06.4,0,.8.05,1.61.05s1.26,0,1.68,0c.58,0,1.16-.05,2.32-.05h4a13.14,13.14,0,0,0,1.44-.06c.57,0,1.28-.1,2.56-.1,1.11,0,1.66,0,2.21,0s.9,0,1.79,0a16.18,16.18,0,0,1,3.34.32,2.52,2.52,0,0,0,.66.07h.2l.15,0a14.44,14.44,0,0,1,3.65-.44,13.41,13.41,0,0,1,3.82.51l.11,0h.08a4,4,0,0,0,.8-.06,17,17,0,0,1,3.2-.28h4c1.13,0,1.7,0,2.26,0s.87,0,1.75,0c.7,0,1,0,1.4-.06s1.3-.11,2.6-.11h4a17,17,0,0,1,3.2.28,3.91,3.91,0,0,0,.8.07c1.16,0,1.74,0,2.32,0,.42,0,.84,0,1.69,0s1.27,0,1.69,0c.58,0,1.15,0,2.31,0,1,0,1.44,0,1.91,0h2.1c.75,0,1.06,0,1.49,0s1.26-.1,2.52-.1a7.09,7.09,0,1,1,0,14.18c-.74,0-1.05,0-1.48,0s-1.27.09-2.53.09l-1.91,0h-2.1c-.84,0-1.27,0-1.69,0-.58,0-1.16.05-2.31.05s-1.74,0-2.32-.05c-.42,0-.85,0-1.69,0a17,17,0,0,1-3.2-.28,4,4,0,0,0-.8-.06h-4a12.33,12.33,0,0,0-1.4.06c-.58,0-1.3.11-2.6.11-1.13,0-1.7,0-2.26,0s-.87,0-1.75,0h-4a3.44,3.44,0,0,0-.81.07A18,18,0,0,1,237.33,75.15Z"/><path class="cls-7" d="M186.09,91.17a9.6,9.6,0,0,1-2.25-.24,7.05,7.05,0,0,0-1.67-.18,15.61,15.61,0,0,1-2.14-.13,12.05,12.05,0,0,0-1.79-.11,1.42,1.42,0,1,1,0-2.83,15.61,15.61,0,0,1,2.14.13,12,12,0,0,0,1.79.11,9.53,9.53,0,0,1,2.25.24,7.16,7.16,0,0,0,1.67.17,11.64,11.64,0,0,0,1.77-.12,12.37,12.37,0,0,1,2.16-.16c1,0,1.5,0,2,0s1,0,1.93,0,1.53,0,2,0,1,0,1.9,0h3.93a5.84,5.84,0,0,0,1.64-.2,8.4,8.4,0,0,1,2.29-.28,7.34,7.34,0,0,1,2.38.35,4.47,4.47,0,0,0,1.55.24A4.21,4.21,0,0,0,211.2,88a6.66,6.66,0,0,1,2.4-.4c1,0,1.52,0,2,0s1,0,1.91,0a12.37,12.37,0,0,1,2.16.16,11.54,11.54,0,0,0,1.77.12l2,0c.48,0,1,0,1.94,0a7.51,7.51,0,0,0,1.7-.16,11.2,11.2,0,0,1,2.22-.2,16.19,16.19,0,0,1,2.11.11,15,15,0,0,0,1.82.09c1,0,1.53,0,2,.05s.94,0,1.89,0,1.38,0,1.86-.07,1-.08,2.07-.08a18.38,18.38,0,0,0,1.84-.08,18.71,18.71,0,0,1,2.09-.1,18.93,18.93,0,0,1,2.1.1,17.61,17.61,0,0,0,1.83.09,8.57,8.57,0,0,1,2.31.28,5.71,5.71,0,0,0,1.63.2c.94,0,1.4,0,1.87-.06s1-.07,2.06-.07a7.62,7.62,0,0,0,1.71-.16,11.2,11.2,0,0,1,2.22-.2A12.34,12.34,0,0,1,263,88a9,9,0,0,0,1.75.14,10.09,10.09,0,0,0,1.76-.13,13.82,13.82,0,0,1,2.17-.15,8.61,8.61,0,0,1,2.29.27,6.32,6.32,0,0,0,1.64.19,8.61,8.61,0,0,0,1.74-.15,12.33,12.33,0,0,1,2.2-.18,8.85,8.85,0,0,0,1.74-.14,11.35,11.35,0,0,1,2.2-.18,1.42,1.42,0,1,1,0,2.83,9.58,9.58,0,0,0-1.73.14,11.28,11.28,0,0,1-2.21.19,8.85,8.85,0,0,0-1.74.14,11.35,11.35,0,0,1-2.2.18,9,9,0,0,1-2.28-.26,6,6,0,0,0-1.65-.2,10.32,10.32,0,0,0-1.77.13,13.77,13.77,0,0,1-2.16.15,12.34,12.34,0,0,1-2.19-.17,9.84,9.84,0,0,0-1.75-.14,7.51,7.51,0,0,0-1.7.16,10.35,10.35,0,0,1-2.23.21c-.94,0-1.41,0-1.88.06s-1,.06-2.05.06a8.57,8.57,0,0,1-2.31-.28,5.71,5.71,0,0,0-1.63-.2,18.71,18.71,0,0,1-2.09-.1,18.38,18.38,0,0,0-1.84-.08,18.14,18.14,0,0,0-1.83.08,18.93,18.93,0,0,1-2.1.1c-.93,0-1.38,0-1.86.07s-1,.07-2.07.07-1.52,0-2,0-1,0-1.9,0a18.54,18.54,0,0,1-2.11-.11,14.49,14.49,0,0,0-1.82-.1,8.08,8.08,0,0,0-1.7.16,10.48,10.48,0,0,1-2.22.2c-1,0-1.5,0-2,0l-1.93,0a13.82,13.82,0,0,1-2.17-.15,11.49,11.49,0,0,0-1.76-.12c-1,0-1.52,0-2,0s-.95,0-1.91,0a4,4,0,0,0-1.52.25,7,7,0,0,1-2.41.39,7.27,7.27,0,0,1-2.37-.35,4.5,4.5,0,0,0-1.56-.24,5.81,5.81,0,0,0-1.63.2,8.48,8.48,0,0,1-2.3.28h-3.93c-1,0-1.52,0-2,0s-.95,0-1.9,0l-2,0c-.49,0-1,0-1.94,0a10.32,10.32,0,0,0-1.76.12A12.41,12.41,0,0,1,186.09,91.17Z"/><path class="cls-7" d="M178.24,106.91a1.42,1.42,0,1,1,0-2.83,5.11,5.11,0,0,0,1.59-.22,7.7,7.7,0,0,1,2.34-.32,9,9,0,0,1,2.28.26,5.91,5.91,0,0,0,1.64.19,7.36,7.36,0,0,0,1.69-.17,9.56,9.56,0,0,1,2.24-.23c1,0,1.54,0,2.06.06s.93.06,1.87.06a10.09,10.09,0,0,0,1.76-.13,12.5,12.5,0,0,1,2.17-.16c1,0,1.56,0,2.07.07s.93.07,1.86.07a19.21,19.21,0,0,1,2.09.09c.48,0,.92.08,1.84.08a9,9,0,0,0,1.75-.14,12.3,12.3,0,0,1,2.18-.17,8.18,8.18,0,0,1,2.32.29,5.59,5.59,0,0,0,1.61.21h3.94c.93,0,1.4,0,1.87-.06s1-.07,2.06-.07a11.89,11.89,0,0,0,1.78-.11,13.84,13.84,0,0,1,2.15-.14c1,0,1.57,0,2.08.09s.92.08,1.84.08a8.85,8.85,0,0,0,1.74-.14,12.1,12.1,0,0,1,2.19-.18,6.68,6.68,0,0,1,2.41.4,4,4,0,0,0,1.52.25,5.26,5.26,0,0,0,1.61-.21,8.09,8.09,0,0,1,2.32-.3H249a10.48,10.48,0,0,1,2.22.2,8.45,8.45,0,0,0,1.72.15h5.92c.48,0,1,0,1.94,0h3.94a8.45,8.45,0,0,0,1.72-.15,11.28,11.28,0,0,1,2.21-.19h3.93c1,0,1.44,0,1.92,0s1,0,2,0a9.76,9.76,0,0,1,2.26.23,7.2,7.2,0,0,0,1.68.17,1.42,1.42,0,1,1,0,2.83,9.66,9.66,0,0,1-2.25-.23,7.3,7.3,0,0,0-1.69-.17c-1,0-1.44,0-1.92,0s-1,0-2,0h-3.93a8.45,8.45,0,0,0-1.72.15,10.44,10.44,0,0,1-2.21.2h-11.8a11.4,11.4,0,0,1-2.22-.19,8.3,8.3,0,0,0-1.72-.16h-7.86a5.26,5.26,0,0,0-1.61.21,8.09,8.09,0,0,1-2.32.3,6.68,6.68,0,0,1-2.41-.4,3.89,3.89,0,0,0-1.52-.26,8.49,8.49,0,0,0-1.73.15,12.33,12.33,0,0,1-2.2.18c-1,0-1.57,0-2.09-.09a15.15,15.15,0,0,0-1.83-.09,11.63,11.63,0,0,0-1.79.12,15.61,15.61,0,0,1-2.14.13c-.94,0-1.41,0-1.87.07s-1,.07-2.06.07-1.49,0-2,0h-2a8.48,8.48,0,0,1-2.31-.29,5.28,5.28,0,0,0-1.62-.21,8.85,8.85,0,0,0-1.74.14,12.34,12.34,0,0,1-2.19.17,19.13,19.13,0,0,1-2.08-.09c-.48,0-.93-.08-1.85-.08s-1.56,0-2.06-.07-.94-.07-1.87-.07a10,10,0,0,0-1.75.13,12.55,12.55,0,0,1-2.18.16c-1,0-1.53,0-2-.06s-.94-.06-1.88-.06a7.26,7.26,0,0,0-1.68.17,9.59,9.59,0,0,1-2.25.23,8.62,8.62,0,0,1-2.28-.26,6.32,6.32,0,0,0-1.64-.19,5.06,5.06,0,0,0-1.59.22A7.76,7.76,0,0,1,178.24,106.91Z"/><path class="cls-7" d="M190,122.64c-1,0-1.51,0-2,0s-1,0-1.92,0a12.28,12.28,0,0,1-2.16-.16,10.09,10.09,0,0,0-1.76-.13,14.12,14.12,0,0,1-2.14-.13,13.62,13.62,0,0,0-1.79-.11,1.42,1.42,0,1,1,0-2.83,15.43,15.43,0,0,1,2.13.13,12.21,12.21,0,0,0,1.8.11,12.5,12.5,0,0,1,2.17.16,10.27,10.27,0,0,0,1.75.12c1,0,1.52,0,2,0s1,0,1.91,0a7.2,7.2,0,0,0,1.68-.17,9.73,9.73,0,0,1,2.25-.23,18.46,18.46,0,0,0,1.85-.08,19.13,19.13,0,0,1,2.08-.09c1,0,1.54,0,2.06.06s.93.06,1.87.06a18.93,18.93,0,0,1,2.1.1,18.3,18.3,0,0,0,1.83.08,14.3,14.3,0,0,0,1.81-.1,17.51,17.51,0,0,1,4.26,0,12.05,12.05,0,0,0,1.79.11c1,0,1.57,0,2.08.08s.93.08,1.86.08h3.93a5.11,5.11,0,0,0,1.59-.22,7.78,7.78,0,0,1,2.34-.31,11.15,11.15,0,0,1,2.2.19,8.53,8.53,0,0,0,1.72.15c1,0,1.53,0,2,0s.94,0,1.89,0a5.81,5.81,0,0,0,1.63-.2,8.07,8.07,0,0,1,2.3-.29l2,0h1.94a8.94,8.94,0,0,1,2.28.26,6,6,0,0,0,1.65.19,6.56,6.56,0,0,0,1.67-.18,9.63,9.63,0,0,1,2.26-.24,7.83,7.83,0,0,1,2.34.31,5.18,5.18,0,0,0,1.6.21,7.36,7.36,0,0,0,1.69-.17,10.3,10.3,0,0,1,2.24-.22h3.93a10.46,10.46,0,0,1,2.24.21,7.4,7.4,0,0,0,1.7.17,5.11,5.11,0,0,0,1.59-.22,7.7,7.7,0,0,1,2.34-.32,9.73,9.73,0,0,1,2.25.23,7.2,7.2,0,0,0,1.68.17,10.09,10.09,0,0,0,1.76-.13,12.3,12.3,0,0,1,2.18-.17,8.72,8.72,0,0,1,2.32.28,5.28,5.28,0,0,0,1.62.21,1.42,1.42,0,1,1,0,2.83,8.57,8.57,0,0,1-2.31-.28,5.4,5.4,0,0,0-1.63-.21,8.89,8.89,0,0,0-1.75.14,13.71,13.71,0,0,1-2.19.16,10.49,10.49,0,0,1-2.25-.22,6.59,6.59,0,0,0-1.68-.18,5.06,5.06,0,0,0-1.59.22,7.76,7.76,0,0,1-2.34.32,9.69,9.69,0,0,1-2.24-.22,8.15,8.15,0,0,0-1.7-.16h-3.93a7.3,7.3,0,0,0-1.69.17,9.56,9.56,0,0,1-2.24.23,8.18,8.18,0,0,1-2.34-.31A5.08,5.08,0,0,0,249,122a6.47,6.47,0,0,0-1.66.18,9.14,9.14,0,0,1-2.27.24,8.56,8.56,0,0,1-2.28-.26,6.41,6.41,0,0,0-1.65-.19h-3.93a5.68,5.68,0,0,0-1.62.2,8.57,8.57,0,0,1-2.31.28c-1,0-1.52,0-2,0s-.95,0-1.9,0a11.17,11.17,0,0,1-2.21-.2,8.42,8.42,0,0,0-1.71-.15,5.13,5.13,0,0,0-1.6.22,8,8,0,0,1-2.33.31h-3.93c-1,0-1.57,0-2.08-.08s-.93-.08-1.86-.08a16,16,0,0,1-2.13-.12,12.11,12.11,0,0,0-1.8-.11,14.24,14.24,0,0,0-1.8.1,16.1,16.1,0,0,1-2.13.12,19.35,19.35,0,0,1-2.09-.09,17.67,17.67,0,0,0-1.84-.09c-1,0-1.53,0-2.05-.06s-.94-.06-1.88-.06a18.38,18.38,0,0,0-1.84.08,19.21,19.21,0,0,1-2.09.09,7.16,7.16,0,0,0-1.67.17A9.76,9.76,0,0,1,190,122.64Z"/><path class="cls-7" d="M225.4,138.37c-1,0-1.54,0-2.05-.06s-.94-.05-1.88-.05-1.43,0-1.91,0-1,0-2,0-1.53,0-2-.05-.95,0-1.9,0a12.5,12.5,0,0,1-2.17-.16,11.49,11.49,0,0,0-1.76-.12c-.95,0-1.42,0-1.9,0s-1,.05-2,.05a13.51,13.51,0,0,1-2.15-.15,10.36,10.36,0,0,0-1.78-.13,5.84,5.84,0,0,0-1.64.2,9.1,9.1,0,0,1-2.29.26c-.93,0-1.38,0-1.86.07s-1,.07-2.07.07a8.07,8.07,0,0,1-2.3-.29,5.81,5.81,0,0,0-1.63-.2,7.2,7.2,0,0,0-1.68.17,10.41,10.41,0,0,1-2.25.22c-1,0-1.43,0-1.91,0s-1,0-2,0h-3.93a1.42,1.42,0,1,1,0-2.84h3.93c1,0,1.43,0,1.91,0s1,0,2,0a7.23,7.23,0,0,0,1.69-.17,9.76,9.76,0,0,1,2.24-.22,8.57,8.57,0,0,1,2.31.28,5.73,5.73,0,0,0,1.62.2c.94,0,1.39,0,1.87-.06s1-.08,2.06-.08a6,6,0,0,0,1.65-.19,9,9,0,0,1,2.28-.26,13.67,13.67,0,0,1,2.16.15,11.75,11.75,0,0,0,1.77.12c.95,0,1.43,0,1.9,0s1,0,2,0a13.4,13.4,0,0,1,2.17.16,10.18,10.18,0,0,0,1.76.13c1,0,1.53,0,2,.05s1,0,1.9,0,1.43,0,1.9,0,1-.05,2-.05,1.53,0,2,.06.94.06,1.89.06a9.8,9.8,0,0,0,1.74-.14,12.3,12.3,0,0,1,2.18-.17,9.62,9.62,0,0,0,1.74-.14,12.29,12.29,0,0,1,2.19-.18c1,0,1.53,0,2,.05s.95,0,1.9,0a16.1,16.1,0,0,1,2.13.12,14.11,14.11,0,0,0,1.8.1,18.6,18.6,0,0,1,2.12.11,14.17,14.17,0,0,0,1.81.1c1,0,1.44,0,1.92,0s1,0,2,0,1.45,0,1.93,0,1,0,2,0a11.49,11.49,0,0,0,1.76-.12,12.41,12.41,0,0,1,2.17-.16,13.66,13.66,0,0,1,2.18.16,9,9,0,0,0,1.75.14h2c.49,0,1,0,1.95,0h3.93a8.45,8.45,0,0,0,1.72-.15,11.36,11.36,0,0,1,2.21-.19,16,16,0,0,1,2.14.12,12.11,12.11,0,0,0,1.8.11,15.54,15.54,0,0,1,2.16.14,10.6,10.6,0,0,0,1.78.12,1.42,1.42,0,1,1,0,2.84,15.25,15.25,0,0,1-2.15-.14,10.73,10.73,0,0,0-1.79-.12,15.73,15.73,0,0,1-2.14-.13,12.11,12.11,0,0,0-1.8-.11,8.45,8.45,0,0,0-1.72.15,11.08,11.08,0,0,1-2.21.2h-5.92c-.49,0-1,0-2,0a12.55,12.55,0,0,1-2.18-.16,8.89,8.89,0,0,0-1.75-.14,10.09,10.09,0,0,0-1.76.13,13.62,13.62,0,0,1-2.17.16c-1,0-1.45,0-1.93,0s-1,0-2,0-1.44,0-1.92,0-1,0-2,0a16.43,16.43,0,0,1-2.11-.11,15,15,0,0,0-1.82-.09,14.37,14.37,0,0,1-2.13-.13,14.11,14.11,0,0,0-1.8-.1c-1,0-1.52,0-2-.05s-1,0-1.9,0a8.85,8.85,0,0,0-1.74.14,12.34,12.34,0,0,1-2.19.17,9.71,9.71,0,0,0-1.74.14A12.3,12.3,0,0,1,225.4,138.37Z"/><path class="cls-7" d="M182.17,154.18A11.48,11.48,0,0,1,180,154a8.45,8.45,0,0,0-1.72-.15,1.42,1.42,0,0,1,0-2.84,11.15,11.15,0,0,1,2.2.19,8.49,8.49,0,0,0,1.73.15c.93,0,1.4,0,1.87-.06s1-.07,2.05-.07a9.75,9.75,0,0,0,1.75-.14,12.06,12.06,0,0,1,2.18-.18,18.78,18.78,0,0,1,2.1.1,15.15,15.15,0,0,0,1.83.09c.93,0,1.38,0,1.86-.08s1-.08,2.07-.08,1.5,0,2,0,1,0,1.94,0,1.44,0,1.92,0,1,0,2,0a12.3,12.3,0,0,1,2.18.17,10,10,0,0,0,1.75.13,7.55,7.55,0,0,0,1.71-.16,10.31,10.31,0,0,1,2.22-.21,16.1,16.1,0,0,1,2.13.12,14.17,14.17,0,0,0,1.81.1,14.37,14.37,0,0,0,1.8-.1,14.17,14.17,0,0,1,2.13-.13c1,0,1.56,0,2.07.08s.93.07,1.86.07h3.92a10.09,10.09,0,0,0,1.76-.13,13.93,13.93,0,0,1,2.17-.15c1,0,1.51,0,2,0s.95,0,1.91,0,1.44,0,1.92,0,1,0,2,0a7.27,7.27,0,0,1,2.37.35,4.58,4.58,0,0,0,1.56.23,10.36,10.36,0,0,0,1.78-.13A15.25,15.25,0,0,1,249,151a8.65,8.65,0,0,0,1.73-.15,10.29,10.29,0,0,1,2.21-.2,6.69,6.69,0,0,1,2.42.41,3.87,3.87,0,0,0,1.51.26,12,12,0,0,0,1.79-.11,15.73,15.73,0,0,1,2.14-.13,6.56,6.56,0,0,0,1.67-.18,9.66,9.66,0,0,1,2.27-.24,16.35,16.35,0,0,1,2.13.12,13.68,13.68,0,0,0,1.8.11,12.55,12.55,0,0,1,2.18.16,10,10,0,0,0,1.75.13c1,0,1.45,0,1.93,0s1,0,2,0a14.17,14.17,0,0,0,1.81-.1,16.35,16.35,0,0,1,2.13-.12,1.42,1.42,0,1,1,0,2.83,14.43,14.43,0,0,0-1.81.1,16.1,16.1,0,0,1-2.13.12c-1,0-1.45,0-1.93,0s-1,0-2,0a12.3,12.3,0,0,1-2.18-.17,10,10,0,0,0-1.75-.13,16.1,16.1,0,0,1-2.13-.12,12.21,12.21,0,0,0-1.8-.11,6.5,6.5,0,0,0-1.67.18,9,9,0,0,1-2.27.25A12.05,12.05,0,0,0,259,154a15.61,15.61,0,0,1-2.14.13,6.65,6.65,0,0,1-2.42-.41,3.76,3.76,0,0,0-1.51-.26,8.45,8.45,0,0,0-1.72.15,11.4,11.4,0,0,1-2.22.19,11.75,11.75,0,0,0-1.77.12,13.77,13.77,0,0,1-2.16.15,7.55,7.55,0,0,1-2.36-.34,4.65,4.65,0,0,0-1.57-.23c-1,0-1.44,0-1.92,0s-1,0-2,0-1.51,0-2,0-1,0-1.92,0a10.09,10.09,0,0,0-1.76.13,13.82,13.82,0,0,1-2.17.15H225.4c-1,0-1.57,0-2.08-.08s-.93-.08-1.85-.08a13.68,13.68,0,0,0-1.8.11,15.55,15.55,0,0,1-2.13.13,16.1,16.1,0,0,1-2.13-.12,14.17,14.17,0,0,0-1.81-.1,7.51,7.51,0,0,0-1.7.16,11.24,11.24,0,0,1-2.23.2,12.41,12.41,0,0,1-2.17-.16,9.88,9.88,0,0,0-1.76-.14c-1,0-1.43,0-1.91,0s-1,0-2,0l-2,0-1.94,0c-.92,0-1.37,0-1.85.08s-1,.08-2.08.08a18.71,18.71,0,0,1-2.09-.1,18.38,18.38,0,0,0-1.84-.08,8.85,8.85,0,0,0-1.74.14,12.34,12.34,0,0,1-2.19.17c-.93,0-1.4,0-1.86.07S183.2,154.18,182.17,154.18Z"/><path class="cls-7" d="M237.18,169.9a7.61,7.61,0,0,1-2.36-.34,4.65,4.65,0,0,0-1.57-.23c-.95,0-1.42,0-1.9,0s-1,0-2,0a7.45,7.45,0,0,0-1.7.16,10.48,10.48,0,0,1-2.22.2h-3.93c-1,0-1.44,0-1.92,0s-1,0-2,0-1.54,0-2-.06-.94-.05-1.89-.05a9,9,0,0,1-2.28-.26,5.94,5.94,0,0,0-1.65-.19c-.92,0-1.37,0-1.85.07s-1,.08-2.08.08-1.51,0-2,0-.95,0-1.91,0a10.6,10.6,0,0,0-1.78.12,15.25,15.25,0,0,1-2.15.14,12.06,12.06,0,0,1-2.18-.18,10,10,0,0,0-1.75-.13,5.16,5.16,0,0,0-1.59.21,7.65,7.65,0,0,1-2.34.32,9.56,9.56,0,0,1-2.24-.23,7.36,7.36,0,0,0-1.69-.17c-.93,0-1.4,0-1.87.06s-1,.06-2.05.06-1.53,0-2-.05-.95-.05-1.89-.05a1.42,1.42,0,1,1,0-2.83c1,0,1.52,0,2,0s.95,0,1.9,0,1.41,0,1.88-.05,1-.06,2-.06a9.59,9.59,0,0,1,2.25.23A7.33,7.33,0,0,0,190,167a5.13,5.13,0,0,0,1.6-.22,7.62,7.62,0,0,1,2.33-.32,12.34,12.34,0,0,1,2.19.17,8.85,8.85,0,0,0,1.74.14,12,12,0,0,0,1.78-.11,13.72,13.72,0,0,1,2.15-.15c1,0,1.52,0,2,0s.95,0,1.9,0,1.38,0,1.86-.07,1-.08,2.07-.08a8.55,8.55,0,0,1,2.29.27,6.32,6.32,0,0,0,1.64.19c1,0,1.54,0,2.05,0s.94.06,1.89.06,1.43,0,1.91,0,1,0,2,0h3.93a7.51,7.51,0,0,0,1.7-.16,11.2,11.2,0,0,1,2.22-.2c1,0,1.43,0,1.9,0s1-.05,2-.05a7.55,7.55,0,0,1,2.36.34,4.65,4.65,0,0,0,1.57.23A11.8,11.8,0,0,0,239,167a13.51,13.51,0,0,1,2.15-.15,14.17,14.17,0,0,0,1.81-.1,16,16,0,0,1,2.12-.12,16.35,16.35,0,0,1,2.13.12,14.11,14.11,0,0,0,1.8.1,18.6,18.6,0,0,1,2.12.11,14.49,14.49,0,0,0,1.82.1,7,7,0,0,0,1.66-.18,9,9,0,0,1,2.27-.25c1,0,1.44,0,1.92,0s1,0,2,0,1.52,0,2,0,.95,0,1.91,0a11.23,11.23,0,0,1,2.19.18,9.71,9.71,0,0,0,1.74.14,8.65,8.65,0,0,0,1.73-.15,12.23,12.23,0,0,1,2.2-.18,10.54,10.54,0,0,1,2.24.21,8.08,8.08,0,0,0,1.7.16c1,0,1.43,0,1.91,0s1,0,2,0a1.42,1.42,0,1,1,0,2.83c-.95,0-1.43,0-1.9.05s-1,0-2,0a10.35,10.35,0,0,1-2.23-.21,8.27,8.27,0,0,0-1.71-.16,8.65,8.65,0,0,0-1.73.15,12.83,12.83,0,0,1-4.4,0,9.67,9.67,0,0,0-1.73-.14c-1,0-1.52,0-2,0s-.95,0-1.91,0-1.43,0-1.91,0-1,0-2,0a6.89,6.89,0,0,0-1.66.18,9.09,9.09,0,0,1-2.27.25,16.49,16.49,0,0,1-2.12-.11,14.83,14.83,0,0,0-1.82-.09,16,16,0,0,1-2.12-.12,16.43,16.43,0,0,0-3.62,0,16,16,0,0,1-2.12.12,10.37,10.37,0,0,0-1.77.12A15.54,15.54,0,0,1,237.18,169.9Z"/><path class="cls-7" d="M194,185.68a18.93,18.93,0,0,1-2.1-.1,14.55,14.55,0,0,0-1.83-.1c-1,0-1.51,0-2,0s-.95,0-1.91,0-1.43,0-1.91,0-1,0-2,0a11.35,11.35,0,0,1-2.2-.18,8.81,8.81,0,0,0-1.73-.14,1.42,1.42,0,0,1,0-2.84,11.24,11.24,0,0,1,2.2.19,9.49,9.49,0,0,0,1.73.14c1,0,1.43,0,1.91,0s1,0,2,0,1.52,0,2,0,.95,0,1.9,0a16.31,16.31,0,0,1,2.11.11,17.37,17.37,0,0,0,1.82.09,7.23,7.23,0,0,0,1.69-.17,9.63,9.63,0,0,1,2.24-.23,15.61,15.61,0,0,1,2.14.13,12.05,12.05,0,0,0,1.79.11c.93,0,1.38,0,1.86-.07s1-.08,2.07-.08,1.54,0,2,.06.94.06,1.88.06a8.27,8.27,0,0,0,1.71-.16,10.16,10.16,0,0,1,2.22-.22,10.35,10.35,0,0,1,2.23.21,7.55,7.55,0,0,0,1.71.16,8.42,8.42,0,0,0,1.71-.15,10.31,10.31,0,0,1,2.22-.21,7.73,7.73,0,0,1,2.33.32,5.18,5.18,0,0,0,1.6.21,4,4,0,0,0,1.52-.25,6.66,6.66,0,0,1,2.4-.39c1,0,1.53,0,2,0s.94.05,1.89.05a10.48,10.48,0,0,1,2.22.2,8.27,8.27,0,0,0,1.71.16,10.09,10.09,0,0,0,1.76-.13,12.5,12.5,0,0,1,2.17-.16H249a8.52,8.52,0,0,1,2.3.27,5.84,5.84,0,0,0,1.64.2,4,4,0,0,0,1.53-.25,7,7,0,0,1,2.4-.38,8.09,8.09,0,0,1,2.32.3,5.59,5.59,0,0,0,1.61.21c.93,0,1.38,0,1.86-.08s1-.08,2.08-.08a18.33,18.33,0,0,1,2.1.11,17.44,17.44,0,0,0,1.83.09h3.93a10.09,10.09,0,0,0,1.76-.13,12.3,12.3,0,0,1,2.18-.17c.93,0,1.38,0,1.86-.07s1-.09,2.08-.09a1.42,1.42,0,1,1,0,2.84c-.92,0-1.38,0-1.85.07a19.35,19.35,0,0,1-2.09.09,10.18,10.18,0,0,0-1.76.13,12.3,12.3,0,0,1-2.18.17h-3.93a19.14,19.14,0,0,1-2.11-.1,15,15,0,0,0-1.82-.09c-.93,0-1.38,0-1.86.07s-1,.08-2.08.08a8.15,8.15,0,0,1-2.32-.3,5.26,5.26,0,0,0-1.61-.21,4.21,4.21,0,0,0-1.53.25,6.94,6.94,0,0,1-2.4.39,8.54,8.54,0,0,1-2.3-.28,5.84,5.84,0,0,0-1.64-.2h-7.86a10.09,10.09,0,0,0-1.76.13,12.41,12.41,0,0,1-2.17.16,11.2,11.2,0,0,1-2.22-.2,7.55,7.55,0,0,0-1.71-.16c-1,0-1.52,0-2-.05s-.95-.05-1.9-.05a4.19,4.19,0,0,0-1.52.25,6.66,6.66,0,0,1-2.4.4,7.76,7.76,0,0,1-2.34-.32,5.11,5.11,0,0,0-1.59-.21,7.55,7.55,0,0,0-1.71.16,11.2,11.2,0,0,1-2.22.2,10.35,10.35,0,0,1-2.23-.21,9.16,9.16,0,0,0-3.41,0,10.35,10.35,0,0,1-2.23.21c-1,0-1.53,0-2-.06s-.94-.05-1.89-.05-1.38,0-1.85.07-1,.08-2.08.08a15.55,15.55,0,0,1-2.13-.13,12.11,12.11,0,0,0-1.8-.11,7.2,7.2,0,0,0-1.68.17A10.41,10.41,0,0,1,194,185.68Z"/><path class="cls-7" d="M209.67,201.45h-3.93a15.49,15.49,0,0,1-2.15-.14,10.6,10.6,0,0,0-1.78-.12c-1,0-1.51,0-2,0s-1,0-1.92,0-1.42,0-1.9,0-1,0-2,0a18.38,18.38,0,0,0-1.84.08c-.51,0-1,.09-2.09.09a15.55,15.55,0,0,1-2.13-.13,13.68,13.68,0,0,0-1.8-.11l-1.93,0-2,0a19.21,19.21,0,0,1-2.09-.09c-.47,0-.92-.07-1.84-.07a1.42,1.42,0,1,1,0-2.84c1,0,1.57,0,2.08.09s.93.08,1.85.08l1.93,0,2,0a15.61,15.61,0,0,1,2.14.13,14,14,0,0,0,1.79.1c.93,0,1.38,0,1.85-.07a19.13,19.13,0,0,1,2.08-.09c1,0,1.43,0,1.91,0s1-.05,2-.05,1.52,0,2,0,1,0,1.91,0a13.77,13.77,0,0,1,2.16.15,11.54,11.54,0,0,0,1.77.12h3.93a4.71,4.71,0,0,0,1.58-.22,7.65,7.65,0,0,1,2.35-.33h2c.5,0,1,0,2,0a13.36,13.36,0,0,1,2.16.16,10.32,10.32,0,0,0,1.77.13c1,0,1.58.05,2.09.09a15.22,15.22,0,0,0,1.84.09h2c.49,0,1,0,1.94,0a8.89,8.89,0,0,0,1.75-.14,12.3,12.3,0,0,1,2.18-.17,13.77,13.77,0,0,1,2.16.15,11.54,11.54,0,0,0,1.77.12c.92,0,1.37,0,1.85-.08s1-.09,2.08-.09H245c1,0,1.57,0,2.08.08s.93.08,1.85.08a10.23,10.23,0,0,0,1.77-.13,13.51,13.51,0,0,1,2.17-.16,10.55,10.55,0,0,0,1.77-.12,13.67,13.67,0,0,1,2.16-.15c1,0,1.53,0,2,.05s.95.05,1.89.05a8.18,8.18,0,0,1,2.32.29,5.28,5.28,0,0,0,1.62.21c1,0,1.42,0,1.9,0s1,0,2,0a8.85,8.85,0,0,0,1.74-.14,11.23,11.23,0,0,1,2.19-.18,8.57,8.57,0,0,1,2.31.28,5.83,5.83,0,0,0,1.63.19,4.58,4.58,0,0,0,1.56-.23,7.28,7.28,0,0,1,2.38-.36,1.42,1.42,0,1,1,0,2.83,4.58,4.58,0,0,0-1.56.24,7.23,7.23,0,0,1-2.38.36,8.54,8.54,0,0,1-2.3-.28,5.84,5.84,0,0,0-1.64-.2,8.57,8.57,0,0,0-1.73.15,12.33,12.33,0,0,1-2.2.18c-.95,0-1.43,0-1.91,0s-1,0-2,0a8.12,8.12,0,0,1-2.32-.29,5.28,5.28,0,0,0-1.62-.21c-1,0-1.52,0-2,0s-.95-.05-1.9-.05a10.32,10.32,0,0,0-1.77.13,13.77,13.77,0,0,1-2.16.15,10.32,10.32,0,0,0-1.77.13,13.82,13.82,0,0,1-2.17.15c-1,0-1.56,0-2.08-.08a18.46,18.46,0,0,0-1.85-.08h-3.93a18.38,18.38,0,0,0-1.84.08,19.35,19.35,0,0,1-2.09.09,13.84,13.84,0,0,1-2.15-.14,10.6,10.6,0,0,0-1.78-.12,8.77,8.77,0,0,0-1.74.14,13.92,13.92,0,0,1-2.19.16h-2l-1.94,0c-1.05,0-1.59-.05-2.1-.09a15.15,15.15,0,0,0-1.83-.09,12.41,12.41,0,0,1-2.17-.16,11.49,11.49,0,0,0-1.76-.12H213.6a4.76,4.76,0,0,0-1.58.23A7.55,7.55,0,0,1,209.67,201.45Z"/><path class="cls-7" d="M194,217.19a7,7,0,0,1-2.38-.37,4.33,4.33,0,0,0-1.55-.24,4.62,4.62,0,0,0-1.56.23,7.27,7.27,0,0,1-2.37.35,11.11,11.11,0,0,1-2.19-.19,9.67,9.67,0,0,0-1.73-.14l-1.94,0-2,0a1.42,1.42,0,1,1,0-2.83l1.93,0,2,0a11.23,11.23,0,0,1,2.19.18,8.81,8.81,0,0,0,1.73.14,4.65,4.65,0,0,0,1.57-.23,7.61,7.61,0,0,1,2.36-.34,7,7,0,0,1,2.39.37,4.31,4.31,0,0,0,1.54.24h3.93a4.12,4.12,0,0,0,1.55-.25,7.17,7.17,0,0,1,2.38-.37,9.63,9.63,0,0,1,2.26.24,7.16,7.16,0,0,0,1.67.17,19.13,19.13,0,0,1,2.08.09c.48,0,.93.07,1.85.07h3.93a18.46,18.46,0,0,0,1.85-.08c.52,0,1-.09,2.09-.09s1.5,0,2,0,1,0,1.92,0,1.51,0,2,.05.95,0,1.91,0a7.2,7.2,0,0,0,1.68-.17,9.76,9.76,0,0,1,2.24-.22,16.49,16.49,0,0,1,2.12.11,14.43,14.43,0,0,0,1.81.1l1.94,0c.5,0,1,0,2,0A14.17,14.17,0,0,0,239,214a16,16,0,0,1,2.12-.12,8.09,8.09,0,0,1,2.32.3,5.26,5.26,0,0,0,1.61.21,4,4,0,0,0,1.54-.25,7.24,7.24,0,0,1,2.39-.37c1,0,1.57,0,2.09.08a18.46,18.46,0,0,0,1.85.08,10.38,10.38,0,0,1,2.24.22,7.3,7.3,0,0,0,1.69.17,4.65,4.65,0,0,0,1.57-.23,7.61,7.61,0,0,1,2.36-.34h3.94c1,0,1.5,0,2,0s1,0,1.93,0a9.53,9.53,0,0,1,2.27.25,6.38,6.38,0,0,0,1.66.19,7.76,7.76,0,0,0,1.73-.16,11.28,11.28,0,0,1,2.21-.19c.94,0,1.41,0,1.88-.06s1-.07,2.06-.07a1.42,1.42,0,1,1,0,2.83c-.94,0-1.4,0-1.87.07s-1,.07-2.07.07a8.45,8.45,0,0,0-1.72.15,11.4,11.4,0,0,1-2.22.19,9.09,9.09,0,0,1-2.27-.25,6.41,6.41,0,0,0-1.66-.18c-1,0-1.51,0-2,0s-1,0-1.92,0h-3.94a4.65,4.65,0,0,0-1.57.23,7.55,7.55,0,0,1-2.36.34,9.69,9.69,0,0,1-2.24-.22,7.36,7.36,0,0,0-1.69-.17c-1,0-1.57,0-2.09-.08a18.46,18.46,0,0,0-1.85-.08,4.17,4.17,0,0,0-1.53.25,7.36,7.36,0,0,1-2.4.37,8.23,8.23,0,0,1-2.32-.29,5.21,5.21,0,0,0-1.61-.21,14.43,14.43,0,0,0-1.81.1,16.49,16.49,0,0,1-2.12.11c-1,0-1.45,0-1.93,0l-2,0a16.49,16.49,0,0,1-2.12-.11,14.17,14.17,0,0,0-1.81-.1,7.36,7.36,0,0,0-1.69.17,10.19,10.19,0,0,1-2.23.22c-1,0-1.52,0-2,0s-1,0-1.9,0-1.51,0-2,0-1,0-1.92,0-1.38,0-1.85.07a19.35,19.35,0,0,1-2.09.09h-3.93c-1,0-1.56,0-2.07-.09s-.93-.07-1.86-.07a9.53,9.53,0,0,1-2.25-.24,7.2,7.2,0,0,0-1.68-.17,4.31,4.31,0,0,0-1.54.24,7,7,0,0,1-2.39.37H194Z"/><path class="cls-8" d="M329.38,181.49C328,165.5,312,164.2,312,164.2c-4.24-12.7-22.37-7.15-22.37-7.15-12.16-14.19-27.1-14.81-34.32,15.08a12,12,0,0,1-11.59,9.28c-9.5,0-21.33,4.56-11.41,30.71,4.34,11.44,24.7,34.5,41.74,46.63,23.43,16.68,47,45.57,66,68.85V201.85C337.15,184.21,329.38,181.49,329.38,181.49Z"/><path class="cls-8" d="M148.46,204.28c6.52-6,17.79-12.37,17.18-22.81-.39-6.74-8-7.59-10.84-12.72-1.39-2.55-1.21-5.88-2.29-8.63a11.75,11.75,0,0,0-6.18-6.7c-1.16-.49-2.37-.85-3.48-1.44-2.61-1.39-2.79-4.1-4.16-6.52a10.3,10.3,0,0,0-5.18-4.82c-4.72-2-7.62.89-11.69,3-1.92,1-2.7-.09-2.84-2a10.58,10.58,0,0,0-1-4,16.2,16.2,0,0,0-1-1.76c-9.24-13.63-26.61,6.79-33.66,13.3-5.66,5.21-19.91,19.33-24.36,25.63l-.19.27a527.77,527.77,0,0,1-33.25,43.25C18.94,224.38,9.79,233.18,0,243.45v70.13c8.44-3.65,16.05-7.5,19.56-10.75a258,258,0,0,1,47.3-35c14.7-8.7,36.42-13,49.78-13.62h.2c10.73-.68,23.43,3.25,33.07-3.33,8.38-5.72,10.61-19.92-1.34-22.48-5.86-1.25-20-.72-14.39-10.69C137.38,212.07,143.84,208.57,148.46,204.28Z"/><path d="M91.51,171.64a1.4,1.4,0,0,1-1-.41,1.43,1.43,0,0,1,0-2c.55-.54,1.09-1,1.6-1.46s.79-.69,1.15-1,.83-.9,1.21-1.35A17,17,0,0,1,95.75,164a14.58,14.58,0,0,1,1.78-1.38,10.06,10.06,0,0,0,1.18-.88,12.41,12.41,0,0,0,1.06-1.18,13.92,13.92,0,0,1,1.44-1.58,12.22,12.22,0,0,1,1.62-1.14,10.3,10.3,0,0,0,1.43-1,9.39,9.39,0,0,0,1.17-1.35,12.87,12.87,0,0,1,1.39-1.62,13.53,13.53,0,0,1,1.72-1.29,9.74,9.74,0,0,0,1.42-1.07,12.84,12.84,0,0,0,1.18-1.38,16.72,16.72,0,0,1,1.36-1.6,19.46,19.46,0,0,1,1.57-1.37c.5-.42,1-.81,1.39-1.22a1.41,1.41,0,1,1,2,2,18.53,18.53,0,0,1-1.59,1.4c-.49.41-1,.79-1.37,1.2a15.41,15.41,0,0,0-1.13,1.33,16.92,16.92,0,0,1-1.44,1.68,11.71,11.71,0,0,1-1.82,1.39,9.89,9.89,0,0,0-1.35,1,10.89,10.89,0,0,0-1.09,1.27,11.71,11.71,0,0,1-1.53,1.74,12.46,12.46,0,0,1-1.82,1.28,9.9,9.9,0,0,0-1.22.85,10.87,10.87,0,0,0-1.14,1.26,13.6,13.6,0,0,1-1.32,1.46,14,14,0,0,1-1.51,1.15A11.38,11.38,0,0,0,97.7,166c-.34.33-.69.75-1.06,1.19s-.87,1-1.4,1.54-.82.76-1.26,1.15-1,.85-1.46,1.33A1.41,1.41,0,0,1,91.51,171.64Z"/><path d="M105.19,181.51a1.42,1.42,0,0,1-1-2.46c.43-.4.84-.82,1.25-1.25s1-1,1.57-1.55c.77-.71,1.57-1.41,2.37-2.12l.6-.53a16.48,16.48,0,0,1,1.76-1.32,16.93,16.93,0,0,0,1.45-1.05,16.22,16.22,0,0,0,1.22-1.25,16.91,16.91,0,0,1,1.58-1.59,16.08,16.08,0,0,1,1.84-1.28,17.43,17.43,0,0,0,1.45-1l1.06-.87c.67-.55,1.35-1.1,2-1.64a11.39,11.39,0,0,0,1.22-1.2,12.09,12.09,0,0,1,1.67-1.59,11.47,11.47,0,0,1,2.06-1.15,10.55,10.55,0,0,0,1.47-.79c.47-.33.92-.69,1.37-1.05a20.93,20.93,0,0,1,1.81-1.37c.48-.32.94-.67,1.39-1a20.4,20.4,0,0,1,1.88-1.34,1.42,1.42,0,1,1,1.47,2.42,19.09,19.09,0,0,0-1.63,1.16c-.49.38-1,.77-1.55,1.13s-1,.77-1.59,1.21-1,.8-1.52,1.17a11.68,11.68,0,0,1-1.89,1,9.34,9.34,0,0,0-1.58.87,10.37,10.37,0,0,0-1.28,1.23,12.52,12.52,0,0,1-1.56,1.52c-.67.52-1.33,1.06-2,1.59l-1.08.88a17.63,17.63,0,0,1-1.71,1.19,15.92,15.92,0,0,0-1.54,1.06,16.31,16.31,0,0,0-1.3,1.32,18.73,18.73,0,0,1-1.47,1.49,17.41,17.41,0,0,1-1.71,1.26,16.51,16.51,0,0,0-1.47,1.09l-.6.53c-.79.7-1.58,1.4-2.35,2.1-.49.44-1,.94-1.43,1.42s-.9.93-1.36,1.36A1.42,1.42,0,0,1,105.19,181.51Z"/><path d="M115,196.45a1.43,1.43,0,0,1-1.1-.52,1.4,1.4,0,0,1,.2-2q.61-.51,1.23-1.05c.65-.55,1.31-1.12,2-1.67.42-.32.84-.66,1.26-1,.67-.54,1.35-1.08,2.06-1.61a20.67,20.67,0,0,1,2-1.25c.57-.34,1.11-.66,1.61-1,1.14-.82,2.29-1.63,3.44-2.43.47-.32.93-.65,1.38-1,.69-.49,1.38-1,2.07-1.45a12.84,12.84,0,0,0,1.44-1.21,14.25,14.25,0,0,1,1.82-1.5,13,13,0,0,1,2.27-1.09,10.88,10.88,0,0,0,1.56-.73,12.63,12.63,0,0,0,1.54-1.18,12.87,12.87,0,0,1,1.86-1.39,12.51,12.51,0,0,1,2.63-1.08,11.29,11.29,0,0,0,1.36-.51c.59-.29,1.13-.59,1.6-.85a6.56,6.56,0,0,1,2.8-1.12,1.45,1.45,0,0,1,1.45,1.38,1.42,1.42,0,0,1-1.34,1.45,10.73,10.73,0,0,0-1.54.77c-.5.28-1.07.59-1.7.91a13.85,13.85,0,0,1-1.76.67,10.46,10.46,0,0,0-2.09.83,10.58,10.58,0,0,0-1.43,1.1,15.8,15.8,0,0,1-1.89,1.43,12,12,0,0,1-2,.94,11,11,0,0,0-1.79.85,10.71,10.71,0,0,0-1.43,1.2,15.71,15.71,0,0,1-1.79,1.49c-.67.45-1.33.92-2,1.4l-1.41,1c-1.14.79-2.28,1.59-3.41,2.4a21,21,0,0,1-1.81,1.15c-.61.37-1.19.71-1.71,1.1-.68.5-1.33,1-2,1.54-.43.35-.86.7-1.29,1-.66.52-1.29,1-1.9,1.58-.43.37-.86.74-1.29,1.09A1.43,1.43,0,0,1,115,196.45Z"/><path class="cls-9" d="M260.76,178.41c-.47,4.86-6.77,10.48-12.56,9.94l-12.78-17,12.88-9.67Z"/><circle class="cls-10" cx="215.85" cy="131.88" r="48.2"/><path class="cls-11" d="M237.81,161.11a36.56,36.56,0,1,1,7.27-51.19A36.61,36.61,0,0,1,237.81,161.11Z"/><path d="M254.23,194.75a1.4,1.4,0,0,1-1.22-.7,10,10,0,0,0-1.83-1.91l-.44-.39a12.17,12.17,0,0,0-2-1.36l-.83-.51a17.53,17.53,0,0,0-2.92-1.56,1.42,1.42,0,1,1,1-2.66,20,20,0,0,1,3.43,1.82l.78.48a15.11,15.11,0,0,1,2.43,1.68l.43.38a11.81,11.81,0,0,1,2.37,2.58,1.43,1.43,0,0,1-.49,2A1.48,1.48,0,0,1,254.23,194.75Z"/><path d="M249.91,190.66a1.41,1.41,0,0,1-.28-2.8,44.9,44.9,0,0,0,4.41-2.05c.22-.12.48-.24.76-.37a8,8,0,0,0,1.8-1,5,5,0,0,0,1.07-1.71,5.24,5.24,0,0,1,.25-.53,12,12,0,0,0,1.44-5,1.42,1.42,0,1,1,2.82.26,14.78,14.78,0,0,1-1.72,5.95l-.22.47a7.29,7.29,0,0,1-1.81,2.7A10.48,10.48,0,0,1,256,188l-.63.3a39.66,39.66,0,0,1-5.16,2.32A1.43,1.43,0,0,1,249.91,190.66Z"/><g class="cls-12"><path d="M198.77,110.84a2.84,2.84,0,0,1,0-5.67A3.71,3.71,0,0,0,200,105a9.45,9.45,0,0,1,2.7-.36c1.05,0,1.57,0,2.09,0s.92,0,1.84,0c1.09,0,1.67,0,2.18.09s.88.06,1.75.06a7.82,7.82,0,0,0,1.5-.12,13.07,13.07,0,0,1,2.43-.2h1.94c.49,0,1,0,2,0a14,14,0,0,1,2.4.19,8.18,8.18,0,0,0,1.53.12h3.93a12.41,12.41,0,0,0,1.65-.09,18.29,18.29,0,0,1,2.28-.12c.89,0,1.33,0,1.78-.06s1.08-.07,2.15-.07a17.94,17.94,0,0,1,2.32.14,10.28,10.28,0,0,0,1.61.1,15.61,15.61,0,0,1,2.31.15A12.23,12.23,0,0,0,242,105c1.06,0,1.58,0,2.11.06s.91,0,1.82,0a9.22,9.22,0,0,0,1.54-.11,14.11,14.11,0,0,1,2.39-.18,10,10,0,0,0,1.6-.11,15.83,15.83,0,0,1,2.33-.15,20.09,20.09,0,0,1,2.26.12,12.88,12.88,0,0,0,1.67.09,17,17,0,0,0,1.72-.07,20.46,20.46,0,0,1,2.21-.1,14.22,14.22,0,0,1,2.41.19,8,8,0,0,0,1.52.12,15.91,15.91,0,0,1,2.35.16,9.69,9.69,0,0,0,1.58.11,9.45,9.45,0,0,0,1.55-.11,14.07,14.07,0,0,1,2.38-.18,14.43,14.43,0,0,0,1.65-.09,17.85,17.85,0,0,1,2.29-.13c1,0,1.57,0,2.09,0s.92,0,1.84,0,1.37,0,1.82,0,1.06-.05,2.11-.05a18,18,0,0,1,2.27.12,12.7,12.7,0,0,0,1.66.09c1.11,0,1.69,0,2.21.09a16.46,16.46,0,0,0,1.73.08c1,0,1.44,0,1.92,0l2,0a5.24,5.24,0,0,0,1.37-.15,11,11,0,0,1,2.57-.27,2.84,2.84,0,0,1,0,5.67,5.33,5.33,0,0,0-1.38.15,11,11,0,0,1-2.56.27c-1,0-1.44,0-1.92,0s-1,0-2,0a20.46,20.46,0,0,1-2.21-.1,17.13,17.13,0,0,0-1.73-.07,20.47,20.47,0,0,1-2.27-.12,12.59,12.59,0,0,0-1.66-.09c-.91,0-1.37,0-1.82,0s-1.06.06-2.11.06-1.57,0-2.1-.05-.92,0-1.83,0a12.41,12.41,0,0,0-1.65.09,18,18,0,0,1-2.29.13,9.22,9.22,0,0,0-1.54.11,14.32,14.32,0,0,1-2.39.18,14.51,14.51,0,0,1-2.35-.16,9.69,9.69,0,0,0-1.58-.11,13.14,13.14,0,0,1-2.41-.19,8,8,0,0,0-1.52-.12,16.77,16.77,0,0,0-1.73.08c-.51,0-1.1.09-2.2.09a18,18,0,0,1-2.27-.12,12.7,12.7,0,0,0-1.66-.09,10,10,0,0,0-1.6.11,16.06,16.06,0,0,1-2.33.15,9.22,9.22,0,0,0-1.54.11,14.21,14.21,0,0,1-2.39.18c-1.05,0-1.58,0-2.11,0s-.91,0-1.82,0a16.1,16.1,0,0,1-2.31-.14,11.87,11.87,0,0,0-1.62-.1,16.27,16.27,0,0,1-2.32-.14,10.28,10.28,0,0,0-1.61-.1c-.89,0-1.34,0-1.78.06s-1.08.07-2.15.07a12.41,12.41,0,0,0-1.65.09,18.29,18.29,0,0,1-2.28.12h-3.93a13,13,0,0,1-2.4-.19,8.18,8.18,0,0,0-1.53-.12h-1.94c-.49,0-1,0-2,0a7.82,7.82,0,0,0-1.5.12,13.07,13.07,0,0,1-2.43.2c-1.09,0-1.67,0-2.18-.08s-.87-.07-1.75-.07c-1,0-1.57,0-2.09,0s-.92,0-1.84,0a3.72,3.72,0,0,0-1.22.16A9,9,0,0,1,198.77,110.84Z"/><path d="M265.58,126.59a11.74,11.74,0,0,1-2.54-.25,5.42,5.42,0,0,0-1.39-.15h-3.93a16.09,16.09,0,0,0-1.7.08,22,22,0,0,1-4.49,0,12.88,12.88,0,0,0-1.67-.09c-1.08,0-1.66,0-2.16-.07s-.88-.07-1.77-.07a9.69,9.69,0,0,0-1.58.11,14.51,14.51,0,0,1-2.35.16,14.32,14.32,0,0,1-2.39-.18,10.91,10.91,0,0,0-3.09,0,14.07,14.07,0,0,1-2.38.18,13.2,13.2,0,0,1-2.45-.21,6.75,6.75,0,0,0-1.48-.13,3.51,3.51,0,0,0-1.18.17,8.75,8.75,0,0,1-2.75.4,12.13,12.13,0,0,1-2.5-.24,5.8,5.8,0,0,0-1.43-.14c-1.06,0-1.59,0-2.12-.06s-.91,0-1.81,0-1.55,0-2.07,0-.93,0-1.86,0-1.27,0-1.74.07-1.09.09-2.19.09a9.36,9.36,0,0,0-1.55.11,14.07,14.07,0,0,1-2.38.18H202.7a10.4,10.4,0,0,1-2.6-.3,5.07,5.07,0,0,0-1.33-.15,2.84,2.84,0,0,1,0-5.67,9.81,9.81,0,0,1,2.6.3,5.07,5.07,0,0,0,1.33.15h3.93a8.19,8.19,0,0,0,1.55-.12,15.58,15.58,0,0,1,2.38-.17c.87,0,1.27,0,1.74-.07s1.09-.09,2.19-.09,1.55,0,2.07,0,.93,0,1.86,0,1.59,0,2.12.06.91,0,1.81,0a11.53,11.53,0,0,1,2.5.24,6.33,6.33,0,0,0,1.43.14,3.51,3.51,0,0,0,1.18-.17,8.7,8.7,0,0,1,2.75-.4,12.16,12.16,0,0,1,2.44.21,7.63,7.63,0,0,0,1.49.13,8.11,8.11,0,0,0,1.55-.12,14.36,14.36,0,0,1,2.38-.17,14.11,14.11,0,0,1,2.39.18,9.22,9.22,0,0,0,1.54.11,9.93,9.93,0,0,0,1.58-.1,14.32,14.32,0,0,1,2.35-.17c1.08,0,1.65,0,2.16.08s.88.06,1.77.06a17.91,17.91,0,0,1,2.26.12,12.77,12.77,0,0,0,1.67.09,15.72,15.72,0,0,0,1.69-.08,20.45,20.45,0,0,1,2.24-.11h3.93a11.39,11.39,0,0,1,2.53.26,5.53,5.53,0,0,0,1.4.14,17,17,0,0,0,1.72-.07c.52,0,1.1-.09,2.21-.09s1.57,0,2.09,0,.92,0,1.84,0,1.28,0,1.75-.07,1.09-.08,2.19-.08h3.93a5.76,5.76,0,0,0,1.42-.14,11.33,11.33,0,0,1,2.51-.25c1.05,0,1.58,0,2.1,0s.92,0,1.83,0,1.42,0,1.9,0,1,0,2,0a11.66,11.66,0,0,1,2.49.23,6.44,6.44,0,0,0,1.45.13,12.88,12.88,0,0,0,1.67-.09,21,21,0,0,1,2.27-.11,2.84,2.84,0,0,1,0,5.67,15.65,15.65,0,0,0-1.68.08,17.91,17.91,0,0,1-2.26.12,12.2,12.2,0,0,1-2.49-.23,6.51,6.51,0,0,0-1.45-.13l-1.9,0c-.51,0-1,0-2,0s-1.57,0-2.1,0-.91,0-1.83,0a5.68,5.68,0,0,0-1.42.15,11.49,11.49,0,0,1-2.51.24h-3.93c-.88,0-1.28,0-1.75.07s-1.1.08-2.19.08-1.56,0-2.09-.05-.92,0-1.84,0a17,17,0,0,0-1.72.07C267.27,126.54,266.68,126.59,265.58,126.59Z"/><path d="M242,142.32a9.12,9.12,0,0,1-2.73-.38,3.6,3.6,0,0,0-1.2-.17c-1.07,0-1.6,0-2.13-.06s-.9-.06-1.8-.06-1.39,0-1.85,0-1,0-2.08,0h-3.93c-.9,0-1.34,0-1.79.06s-1.07.06-2.14.06a17.37,17.37,0,0,0-1.74.07c-.52,0-1.1.09-2.19.09s-1.66,0-2.17-.08-.88-.06-1.76-.06a9.78,9.78,0,0,0-1.58.11,15.79,15.79,0,0,1-2.35.16,9.38,9.38,0,0,1-2.67-.34,4.2,4.2,0,0,0-1.26-.16c-.88,0-1.29,0-1.76.06s-1.08.08-2.17.08h-3.93a2.84,2.84,0,0,1,0-5.67h3.93c.88,0,1.29,0,1.76-.06s1.09-.08,2.17-.08a9.77,9.77,0,0,1,2.67.34,4.2,4.2,0,0,0,1.26.16,9.78,9.78,0,0,0,1.58-.11,15.79,15.79,0,0,1,2.35-.16c1.08,0,1.66,0,2.17.08s.88.06,1.76.06,1.27,0,1.74-.07,1.1-.09,2.19-.09c.89,0,1.34,0,1.79,0s1.07-.07,2.14-.07h3.93c.92,0,1.39,0,1.85,0s1-.05,2.08-.05,1.6,0,2.13.07.9,0,1.8,0a9.06,9.06,0,0,1,2.73.38,3.6,3.6,0,0,0,1.2.17,3.53,3.53,0,0,0,1.19-.17,8.7,8.7,0,0,1,2.74-.39h1.93l2,0a16.06,16.06,0,0,1,2.33.15,10,10,0,0,0,1.6.11,14.07,14.07,0,0,1,2.36.17,9.64,9.64,0,0,0,1.57.11,4.45,4.45,0,0,0,1.3-.16,10,10,0,0,1,2.63-.31,20.69,20.69,0,0,1,2.22.1,16.16,16.16,0,0,0,1.71.08c.89,0,1.34,0,1.79-.06s1.07-.07,2.14-.07a15.89,15.89,0,0,1,2.32.15,11.69,11.69,0,0,0,1.61.1c.88,0,1.28,0,1.75-.07s1.09-.09,2.19-.09c.93,0,1.39,0,1.86,0s1,0,2.07,0,1.59,0,2.12.06.91.05,1.81.05a15.79,15.79,0,0,1,2.35.16,11.47,11.47,0,0,0,3.17,0,15.91,15.91,0,0,1,2.35-.16c1.06,0,1.59,0,2.12.06s.91,0,1.82,0a10.23,10.23,0,0,0,1.6-.1,14.37,14.37,0,0,1,2.34-.16,2.84,2.84,0,0,1,0,5.67,10,10,0,0,0-1.6.11,16.11,16.11,0,0,1-2.34.15c-1.07,0-1.6,0-2.13-.06s-.9-.05-1.81-.05a9.73,9.73,0,0,0-1.59.11,14.51,14.51,0,0,1-2.35.16,15.91,15.91,0,0,1-2.35-.16,9.69,9.69,0,0,0-1.58-.11c-1.06,0-1.59,0-2.12-.06s-.91,0-1.81,0-1.4,0-1.86,0-1,0-2.07,0c-.88,0-1.28,0-1.75.07s-1.09.09-2.19.09a15.61,15.61,0,0,1-2.31-.15,12,12,0,0,0-1.62-.1c-.9,0-1.34,0-1.79.06s-1.07.07-2.14.07a20,20,0,0,1-2.22-.11,17,17,0,0,0-1.71-.07,4.52,4.52,0,0,0-1.31.15,9.84,9.84,0,0,1-2.62.32,15.42,15.42,0,0,1-2.37-.17,9.4,9.4,0,0,0-1.56-.11,15.83,15.83,0,0,1-2.33-.15,10,10,0,0,0-1.6-.11h-1.93l-2,0a3.27,3.27,0,0,0-1.18.17A9.14,9.14,0,0,1,242,142.32Z"/><path d="M206.63,158.06c-1,0-1.52,0-2,0s-.95,0-1.9,0a16.08,16.08,0,0,1-2.36-.16,9.54,9.54,0,0,0-1.57-.11,2.84,2.84,0,0,1,0-5.67,14.66,14.66,0,0,1,2.36.16,9.64,9.64,0,0,0,1.57.11c1,0,1.53,0,2,0s.94,0,1.89,0a5.24,5.24,0,0,0,1.37-.15,11,11,0,0,1,2.56-.27c1,0,1.56,0,2.08,0s.92,0,1.85,0h3.93a13,13,0,0,1,2.4.19,8.18,8.18,0,0,0,1.53.12,13,13,0,0,0,1.68-.09,20.52,20.52,0,0,1,2.25-.11h3.93c1,0,1.58,0,2.11.06s.91,0,1.82,0a6.71,6.71,0,0,0,1.47-.13,13.23,13.23,0,0,1,2.46-.21,13.07,13.07,0,0,1,2.43.2,7.82,7.82,0,0,0,1.5.12,17,17,0,0,0,1.72-.07,20.46,20.46,0,0,1,2.21-.1c1,0,1.57,0,2.09.05s.92,0,1.84,0a5.42,5.42,0,0,0,1.39-.15,11.5,11.5,0,0,1,2.54-.26,10.94,10.94,0,0,1,2.53.26,6,6,0,0,0,1.4.14c1.09,0,1.67,0,2.18.08s.87.07,1.75.07a15.65,15.65,0,0,0,1.68-.08,17.71,17.71,0,0,1,2.25-.12c1.07,0,1.6,0,2.13.07s.9.05,1.8.05,1.36,0,1.81-.05,1.06,0,2.12,0c.9,0,1.35,0,1.8-.06s1.07-.06,2.14-.06a15.26,15.26,0,0,1,2.36.17,9.64,9.64,0,0,0,1.57.11h3.93a6.2,6.2,0,0,0,1.41-.14,10.77,10.77,0,0,1,2.52-.26,13,13,0,0,1,2.42.2,8,8,0,0,0,1.52.12,6.4,6.4,0,0,0,1.45-.14,13.92,13.92,0,0,1,4.93,0,7.82,7.82,0,0,0,1.5.12,2.84,2.84,0,0,1,0,5.67,13.2,13.2,0,0,1-2.44-.2,7,7,0,0,0-1.5-.13,7.1,7.1,0,0,0-1.45.13,11.42,11.42,0,0,1-2.49.24,13,13,0,0,1-2.42-.2,8,8,0,0,0-1.52-.12,6.1,6.1,0,0,0-1.4.14,10.8,10.8,0,0,1-2.53.26h-3.93a14.21,14.21,0,0,1-2.37-.17,9.5,9.5,0,0,0-1.56-.11c-.9,0-1.35,0-1.8.05s-1.07.07-2.14.07c-.9,0-1.36,0-1.81.05s-1.06,0-2.12,0-1.6,0-2.14-.06-.89-.06-1.79-.06a13,13,0,0,0-1.68.09,20.68,20.68,0,0,1-2.25.11c-1.09,0-1.67,0-2.19-.08a17.37,17.37,0,0,0-1.74-.07,10.8,10.8,0,0,1-2.53-.26,6,6,0,0,0-1.4-.14,5.42,5.42,0,0,0-1.39.15,11.57,11.57,0,0,1-2.54.26c-1.05,0-1.57,0-2.09-.05s-.92,0-1.84,0a16.54,16.54,0,0,0-1.72.08c-.51,0-1.1.09-2.21.09a13.07,13.07,0,0,1-2.43-.2,7.82,7.82,0,0,0-1.5-.12,6.71,6.71,0,0,0-1.47.13,13.23,13.23,0,0,1-2.46.21c-1,0-1.58,0-2.11-.05s-.91,0-1.82,0h-3.93a15.65,15.65,0,0,0-1.68.08,17.71,17.71,0,0,1-2.25.12,14,14,0,0,1-2.4-.19,8.18,8.18,0,0,0-1.53-.12h-3.93c-1,0-1.56,0-2.08,0s-.92,0-1.85,0a5.24,5.24,0,0,0-1.37.15A11,11,0,0,1,206.63,158.06Z"/></g><path class="cls-4" d="M239.65,152.4a1.94,1.94,0,0,1-1.34-.55,1.91,1.91,0,0,1,0-2.7c4.87-5,7.26-12.5,6.39-20.19A29.4,29.4,0,0,0,234.5,109.5a1.9,1.9,0,1,1,2.47-2.9,33.06,33.06,0,0,1,11.5,21.93c1,8.82-1.79,17.53-7.46,23.29A1.91,1.91,0,0,1,239.65,152.4Z"/><path class="cls-4" d="M229.85,106.42a1.94,1.94,0,0,1-1.24-.46,7.38,7.38,0,0,0-2.55-1.28,1.91,1.91,0,0,1,1-3.69,11.46,11.46,0,0,1,4,2.07,1.91,1.91,0,0,1-1.24,3.36Z"/></g></svg>