<svg xmlns="http://www.w3.org/2000/svg" viewBox="0 0 700 400"><defs><style>.cls-1{fill:#fae7e7;}.cls-2{fill:#d3d4d4;}.cls-3{fill:#f56977;}.cls-4{fill:#fff;}.cls-5{fill:#27b5f7;}.cls-6{fill:#f8c341;}</style></defs><g id="圖"><path d="M217.8,69.13c.37-.66.88-.76,1.54-.31l3.83,2.6a1.16,1.16,0,0,1,.38,1.73,51.51,51.51,0,0,1-9,11.32q2.65,7.61,5.44,7.6c1.28,0,2-2.65,2.23-8,.08-1.53.39-2,.92-1.43L227.38,87a2.78,2.78,0,0,1,.56,2.42,14.51,14.51,0,0,1-2.35,7.35c-1.28,1.86-3.36,2.78-6.25,2.78q-6.36,0-10.63-9.76a53.41,53.41,0,0,1-10.39,6.92,1.08,1.08,0,0,1-1.67-.43L194.11,92a1,1,0,0,1,.44-1.61,53.19,53.19,0,0,0,11.62-7.67A119.22,119.22,0,0,1,203,66.1H190.47v7.05l8.34-1.54c.79-.13,1.16.22,1.12,1l-.56,4.45a1.44,1.44,0,0,1-1.3,1.48l-7.6,1.55V90.71a11.33,11.33,0,0,1-.75,4.64,5.06,5.06,0,0,1-2.59,2.54c-2.06,1-5.22,1.5-9.46,1.42-1.12,0-1.73-.39-1.86-1.18l-.8-4.94c-.13-.79.27-1.18,1.17-1.18a50.17,50.17,0,0,0,5.38-.06,2,2,0,0,0,1.18-.25,1.46,1.46,0,0,0,.31-1v-9l-9.9,2c-.78.12-1.17-.23-1.17-1.06l-.06-5.19c0-.82.53-1.32,1.6-1.48,3.88-.62,7-1.16,9.53-1.61V66.1H172.6q-1.24,0-1-1.17l.92-4.64a1.28,1.28,0,0,1,1.43-1.17h9.15v-7c-2.68.45-5.51.86-8.47,1.23-1,.09-1.45-.28-1.49-1.11l-.49-3.89c0-.83.41-1.3,1.36-1.43a119.5,119.5,0,0,0,20.53-4.45,1.24,1.24,0,0,1,1.66.68l2.6,4.45c.37.71.15,1.14-.68,1.3l-7.6,1.92v8.35h11.87q-.61-7.11-.74-15.52c0-1,.39-1.36,1.17-1.24l5.32.93a1.24,1.24,0,0,1,1.17,1.36,134.2,134.2,0,0,0,.68,14.47h15.58c.83,0,1.18.39,1.06,1.17l-.93,4.64a1.28,1.28,0,0,1-1.42,1.17H210.69q.74,5.57,1.79,10.45A49,49,0,0,0,217.8,69.13Zm7.79-16.88a.89.89,0,0,1-.37,1.49l-4.39,2.16a1.21,1.21,0,0,1-1.74-.43c0-.17-.78-1.22-2.47-3.15a50.89,50.89,0,0,0-4.2-4.39c-.58-.54-.5-1,.24-1.24l4.58-1.79a2,2,0,0,1,2.22.61A27.84,27.84,0,0,1,225.59,52.25Z"/><path d="M244.69,42.24l4.27,2.1a1.25,1.25,0,0,1,.62,1.73l-3.84,9.65V98.07q0,1.25-1.17,1.05l-4.64-.93a1.27,1.27,0,0,1-1.17-1.42V68.39a37,37,0,0,1-3.1,4.21c-.49.57-.86.47-1.11-.31l-2-6.43a2.09,2.09,0,0,1,.31-2q6.38-7.37,10.33-20.66C243.48,42.17,244,41.87,244.69,42.24Zm19.79,2.66c2,0,3,1,3,3V65.49c0,2-1,3-3,3h-7.67V98q0,1.23-1.17,1l-4.46-.93A1.27,1.27,0,0,1,250,96.65V47.86c0-2,1-3,3-3Zm-2.6,7.17a1.42,1.42,0,0,0-1.61-1.61h-1.85a1.43,1.43,0,0,0-1.61,1.61V54h5.07Zm-5.07,10.82h3.46a1.42,1.42,0,0,0,1.61-1.61v-2h-5.07Zm28.81-18c2,0,3,1,3,3V90.78a11.49,11.49,0,0,1-.74,4.69,4.8,4.8,0,0,1-2.6,2.42c-1.93.9-5.42,1.33-10.45,1.29-1.19,0-1.83-.33-1.91-1.11l-.74-4.64q-.13-1.17,1.17-1.11c1.61.08,3.81.06,6.62-.06a1.9,1.9,0,0,0,1.23-.31,1.7,1.7,0,0,0,.37-1.24V68.45H273.2c-2,0-3-1-3-3V47.86c0-2,1-3,3-3Zm-4.08,7.17a1.42,1.42,0,0,0-1.6-1.61h-2.29A1.43,1.43,0,0,0,276,52.07V54h5.5ZM276,61.28a1.43,1.43,0,0,0,1.61,1.61h3.89V59.24H276Z"/><path d="M328.29,85.4v6h4.95q15.33.19,19.1.07c.41,0,.43.28.06,1l-2.59,4.89a1.94,1.94,0,0,1-1.86,1H332.87A49.53,49.53,0,0,1,318,96.53a18,18,0,0,1-9.27-6.87A25.48,25.48,0,0,1,301,98.75a1.05,1.05,0,0,1-1.67-.18l-3-4a1,1,0,0,1,.25-1.67q7.23-4.34,9.15-15.71c.2-1.07.7-1.48,1.48-1.23l4.76,1.48a1.1,1.1,0,0,1,.87,1.49,32.42,32.42,0,0,1-.87,3.4q2.67,5.75,7.24,7.17c1.11.37,1.67,0,1.67-1.05V74.39H297.93q-1.24,0-1.05-1.17l.93-4.15a1.27,1.27,0,0,1,1.42-1.17H350q1.25,0,1.05,1.17l-.92,4.15a1.28,1.28,0,0,1-1.43,1.17h-20.4V79h17.87q1.17,0,.93,1.17l-.81,4a1.36,1.36,0,0,1-1.48,1.18Zm14.1-41.68c2,0,3,1,3,3V62.21c0,2-1,3-3,3h-37a2.63,2.63,0,0,1-3-3V46.69a2.63,2.63,0,0,1,3-3ZM337.87,52V50.52a1.41,1.41,0,0,0-1.6-1.6H311.16a1.42,1.42,0,0,0-1.61,1.6V52Zm-1.6,8a1.41,1.41,0,0,0,1.6-1.6V56.83H309.55v1.55a1.42,1.42,0,0,0,1.61,1.6Z"/><path d="M379.73,52.56c.83,0,1.16.4,1,1.18l-.8,3.83a1.37,1.37,0,0,1-1.49,1.18H356.86c-.83,0-1.16-.4-1-1.18l.8-3.83a1.36,1.36,0,0,1,1.48-1.18h8.78l-3.71-7.23c-.37-.7-.16-1.16.62-1.36l4.27-1.11a1.46,1.46,0,0,1,1.79.74l2.23,4q1.49,2.6-1.18,4l-1.73.92Zm-3.65,27q3,0,3,2.91v14a2.63,2.63,0,0,1-3,3H361.31c-2,0-3-1-3-2.9v-14a2.63,2.63,0,0,1,3-3Zm1.37-17.87c.82,0,1.15.4,1,1.18l-.8,3.58a1.35,1.35,0,0,1-1.48,1.18H359.7c-.83,0-1.15-.39-1-1.18l.8-3.58a1.34,1.34,0,0,1,1.43-1.18Zm0,8.78c.82,0,1.15.4,1,1.18l-.8,3.59a1.35,1.35,0,0,1-1.48,1.17H359.7c-.83,0-1.15-.39-1-1.17l.8-3.59a1.34,1.34,0,0,1,1.43-1.18Zm-5.14,16.88c0-1-.53-1.54-1.6-1.54H366.5A1.36,1.36,0,0,0,365,87.37v4.21a1.42,1.42,0,0,0,1.6,1.61h4.21c1,0,1.54-.54,1.54-1.61Zm43.29,4.27c.82,0,1.17.39,1,1.18l-.93,4.88a1.28,1.28,0,0,1-1.42,1.18H387.15c-2,0-3-1-3-3V70l-1.55,2c-.5.66-.85.6-1.05-.19l-1.92-6a2.49,2.49,0,0,1,.31-2.11,45.51,45.51,0,0,0,4.89-9.09A74.61,74.61,0,0,0,389,43.16c.2-.78.68-1,1.42-.68l4.76,2.29a1.18,1.18,0,0,1,.68,1.67l-2.6,7h7.73L397.6,46c-.33-.74-.1-1.2.68-1.36l4.7-1.24a1.44,1.44,0,0,1,1.73.87l2.11,4.26c.86,1.78.41,3.07-1.37,3.9l-2.1,1h11.32q1.23,0,1.05,1.17l-.93,4.7a1.27,1.27,0,0,1-1.42,1.18h-7.61v5.69h7.67q1.24,0,1.05,1.17L413.56,72a1.28,1.28,0,0,1-1.43,1.17h-6.37v5.51h7.73q1.25,0,1.05,1.17l-.92,4.7a1.29,1.29,0,0,1-1.42,1.18h-6.44v5.93ZM398.78,66.17V60.48h-7.55v5.69Zm0,12.49V73.15h-7.55v5.51Zm-7.55,7V90a1.42,1.42,0,0,0,1.61,1.61h5.94V85.71Z"/><path class="cls-1" d="M485.27,211.55l-89.18,68.76c-4.38,1.73-8.72,2.9-11-1.2l-11.35-18.23c-7.53-13.41-15.87-27.46-19.93-42.15a112.65,112.65,0,0,1-2.15-36.92,1.23,1.23,0,0,1,0-.19c.94-10,6.36-21.17,1.78-31-4-8.52-16.54-12.51-20.61-1.83-2,5.24-3.56,18.38-11.8,11.82-4.68-3.73-6.92-10.16-10.14-15-4.54-6.84-8.65-18.1-18.22-19-6.18-.56-8.06,6.37-13.13,8.26-2.52.94-5.51.32-8.17.94a11,11,0,0,0-7,4.79c-.61,1-1.12,2.07-1.82,3-1.64,2.22-4.13,2-6.52,3a9.64,9.64,0,0,0-5.14,4.11c-2.47,4.09-.3,7.16,1.05,11.2.63,1.91-.48,2.48-2.26,2.35a9.35,9.35,0,0,0-3.79.41,15.47,15.47,0,0,0-1.74.71c-13.73,6.66,2.29,25.47,7.18,32.87,3.91,5.92,14.66,21,19.73,26l.23.22A481.51,481.51,0,0,1,305.73,261c9.76,14.63,29.16,42.16,49.84,62.75,11.29,11.24,25.27,14.25,39.71,7.5l112.08-75.84Z"/><path d="M298.06,169.22a1.25,1.25,0,0,1-1.06-.59,202.7,202.7,0,0,1-15-29.41,1.24,1.24,0,0,1,2.3-.94,200.8,200.8,0,0,0,14.78,29.05,1.24,1.24,0,0,1-.41,1.71A1.28,1.28,0,0,1,298.06,169.22Z"/><path d="M280,177.11a1.24,1.24,0,0,1-1-.51,127.13,127.13,0,0,1-15.84-28.52,1.25,1.25,0,0,1,2.32-.92,123.75,123.75,0,0,0,15.52,28,1.25,1.25,0,0,1-.26,1.74A1.2,1.2,0,0,1,280,177.11Z"/><path d="M272.47,195.23a1.25,1.25,0,0,1-.85-.34A99.51,99.51,0,0,1,252,169.5a1.24,1.24,0,0,1,2.18-1.19,96.88,96.88,0,0,0,19.19,24.76,1.25,1.25,0,0,1-.85,2.16Z"/><path d="M325.26,224.88a1.23,1.23,0,0,1-.75-.25c-7.18-5.45-12.05-14.25-13.38-24.14a22.8,22.8,0,0,1,.15-8.16c1.2-5.37,5.11-9.74,8.25-13.25a1.25,1.25,0,0,1,1.76-.09,1.24,1.24,0,0,1,.09,1.75c-3.1,3.47-6.61,7.4-7.68,12.14a20.51,20.51,0,0,0-.1,7.28c1.23,9.24,5.76,17.44,12.41,22.49a1.24,1.24,0,0,1,.24,1.74A1.23,1.23,0,0,1,325.26,224.88Z"/><path class="cls-1" d="M598,127.16c3.16-47.11-24.94-65.31-53.9-66.39-30.11-1.12-51.55,18.17-57.5,65.12-3.15,24.84,9.78,49.74,29.67,57.43a1.17,1.17,0,0,1,.3.21,6.11,6.11,0,0,1,2.12,5.93l-3.09,16.43a15,15,0,0,0,15.07,14.92l24.09-.12a12.89,12.89,0,0,0,12.82-12.95l-3.34-18.63a6.14,6.14,0,0,1,1.82-5.6,4.49,4.49,0,0,1,.6-.48C584,172.11,596.32,152.12,598,127.16Z"/><path class="cls-2" d="M611.33,221.7c-21.78-23.76-35.44-24.41-42.37-25.21-29.5,9.33-53.31,1.71-57.34-1.46l-1.26.36a101.44,101.44,0,0,0-71.13,75.36c-10.31,45.32-18.38,94.88-21.17,129.25H623.37c3.11-21.49,6.18-59.18,6.18-59.18l6.58.28C640.92,293.67,635,247.54,611.33,221.7Z"/><ellipse cx="508.02" cy="107.98" rx="6.21" ry="2.93" transform="translate(357.71 605.12) rotate(-85.18)"/><ellipse cx="540.28" cy="110.7" rx="6.21" ry="2.93" transform="translate(384.54 639.76) rotate(-85.18)"/><path d="M523.06,125.47H523a1.24,1.24,0,0,1-1.14-1.34l2.25-26.66a1.24,1.24,0,0,1,2.48.21l-2.25,26.66A1.24,1.24,0,0,1,523.06,125.47Z"/><path d="M520.36,142.38a26.79,26.79,0,0,1-9.33-1.66,1.25,1.25,0,0,1-.66-1.63,1.24,1.24,0,0,1,1.63-.66c.65.27,15.9,6.49,25.53-8.11a1.25,1.25,0,0,1,2.08,1.37C533.9,140.33,526.29,142.38,520.36,142.38Z"/><path class="cls-2" d="M511.62,195c-62.89,18.8-110.76,61.08-110.76,61.08l32.85,45.83,60.11-46.21Z"/><path class="cls-1" d="M587.71,358.94s.38-9,.52-15.61c0-2.53,1.88-4.66,4.09-4.59,10.92.35,40.06,2.08,40.06,2.08v19.94a37.61,37.61,0,0,1-.27,4.5c-.75,6.05-3,22.55-7,34.74H566.93C572.41,390.45,585.54,366.8,587.71,358.94Z"/><path class="cls-3" d="M253.81,347.56a7.56,7.56,0,0,1-8.05,7c-5-.35-9.73,2.91-10.56,7.81a9.5,9.5,0,0,0,8.7,11.11l14.4,1a12.66,12.66,0,0,0,13.51-11.76l3.66-52.38-19-1.31Z"/><path class="cls-3" d="M199.35,343.58a7.56,7.56,0,0,1-8,7c-5-.35-9.73,2.91-10.56,7.81a9.5,9.5,0,0,0,8.7,11.11l14.4,1a12.66,12.66,0,0,0,13.51-11.76L221,306.33l-19-1.31Z"/><polygon class="cls-3" points="244.38 213.42 231.41 206.78 219 199.35 205.92 193.24 192.92 186.95 180.44 179.67 167.6 173.07 154.54 166.91 142.01 159.71 129.2 154.02 128.01 168.93 127.13 184.28 125.47 199.58 124.36 214.91 123.63 230.28 122.7 245.63 120.97 260.92 119.68 276.25 119.27 291.63 118.2 306.97 116.42 322.27 115.25 337.61 114.48 352.82 128.08 348.51 141.74 343.85 155.45 339.34 168.97 334.29 182.65 329.68 196.41 325.31 210.06 320.61 223.7 315.88 237.28 311.38 251.33 315.8 265.49 320.3 279.19 326.11 293.28 330.82 307.37 335.3 308.89 320.28 309.33 305.11 310.85 290.02 311.39 274.86 312.97 259.77 314.24 244.66 314.74 229.49 316.05 214.38 317.48 199.15 302.77 201.88 288.31 205.28 273.64 207.61 259 210.06 244.38 213.42"/><path class="cls-4" d="M219.06,248.42c-.67,9.22-3.78,19-13.78,18.29s-11.68-10.47-11-20.1,6.56-13.61,13.4-13.11S219.74,239.19,219.06,248.42Z"/><path d="M217.14,247.17c-.45,6.12-2.51,12.61-9.14,12.13s-7.74-6.94-7.28-13.33,4.36-9,8.89-8.69S217.59,241.05,217.14,247.17Z"/><path class="cls-4" d="M282.65,253.06c-.67,9.23-3.79,19-13.78,18.3s-11.68-10.47-11-20.11,6.57-13.6,13.41-13.11S283.33,243.84,282.65,253.06Z"/><path d="M280.72,251.66c-.44,6.12-2.51,12.61-9.13,12.13s-7.75-6.94-7.28-13.33,4.35-9,8.89-8.69S281.17,245.54,280.72,251.66Z"/><path d="M237.12,288.24q-.7,0-1.44-.06a18.74,18.74,0,0,1-14.07-7.95,2.24,2.24,0,0,1,3.79-2.39,14.45,14.45,0,0,0,21.95,1.6,2.24,2.24,0,0,1,3.4,2.92A18.71,18.71,0,0,1,237.12,288.24Z"/><path d="M440.41,289.55a1.22,1.22,0,0,1-.41-.07,1.24,1.24,0,0,1-.76-1.59,213.27,213.27,0,0,1,17.92-38.37,1.24,1.24,0,1,1,2.13,1.28,211.34,211.34,0,0,0-17.71,37.92A1.23,1.23,0,0,1,440.41,289.55Z"/><polygon class="cls-3" points="427.87 199.29 426.31 199.11 424.86 198.91 423.39 198.93 421.94 198.72 420.49 198.5 419.03 198.46 417.58 198.19 416.13 198 414.68 197.81 413.2 197.89 411.73 197.86 410.31 197.42 408.85 197.37 407.39 197.19 405.93 197.06 404.46 197.11 403 196.95 401.55 196.73 400.1 196.44 398.62 196.48 397.07 196.43 396.7 194.9 396.14 193.54 395.47 192.22 395.01 190.81 394.35 189.49 393.79 188.13 393.24 186.76 392.58 185.43 391.95 184.1 391.44 182.71 390.79 181.39 390.45 179.93 389.71 178.64 389.18 177.26 388.52 175.93 388.04 174.53 387.61 173.11 386.79 171.84 386.33 170.45 387.77 170.5 389.22 170.66 390.66 170.97 392.12 171.05 393.58 171.16 395.04 171.29 396.49 171.51 397.96 171.47 399.42 171.58 400.88 171.69 402.32 172.03 403.79 172.04 405.23 172.3 406.69 172.44 408.14 172.64 409.61 172.59 411.05 172.94 412.54 172.78 414 172.95 415.44 173.31 416.88 173.39 417.6 174.66 418.15 176.03 418.62 177.43 419.06 178.84 419.62 180.21 420.36 181.5 421.05 182.81 421.56 184.19 422.14 185.55 422.63 186.94 423.12 188.34 423.63 189.72 424.24 191.07 424.98 192.36 425.44 193.77 425.95 195.16 426.62 196.48 427.22 197.84 427.87 199.29"/><polygon class="cls-5" points="472.23 71.79 472.07 70.41 472.03 68.9 471.91 67.4 471.78 65.89 472.05 64.37 471.73 62.88 471.64 61.37 471.64 59.86 471.57 58.35 471.75 56.84 471.52 55.33 471.51 53.83 471.55 52.32 471.53 50.81 471.32 49.3 471.18 47.8 471.39 46.28 471.06 44.78 471.01 43.27 471.08 41.74 470.97 40.21 472.37 39.54 473.63 38.69 474.87 37.79 476.21 37.07 477.62 36.47 478.83 35.53 480.26 34.95 481.56 34.17 482.88 33.41 484.22 32.69 485.5 31.88 486.84 31.15 488.13 30.35 489.35 29.4 490.8 28.86 492.06 28 493.35 27.19 494.72 26.51 496.06 25.52 496.21 27.14 496.22 28.65 496.28 30.16 496.08 31.68 496.36 33.17 496.38 34.68 496.5 36.19 496.58 37.69 496.45 39.21 496.47 40.72 496.49 42.23 496.76 43.73 496.76 45.23 496.76 46.74 496.91 48.25 496.7 49.77 496.77 51.28 496.98 52.78 497.02 54.3 497.23 55.8 497.26 57.39 495.88 58.17 494.55 58.92 493.29 59.77 491.83 60.29 490.59 61.17 489.23 61.86 487.92 62.64 486.56 63.33 485.31 64.21 484.04 65.03 482.72 65.79 481.42 66.59 480.09 67.32 478.83 68.18 477.4 68.78 476.04 69.46 474.89 70.51 473.48 71.14 472.23 71.79"/><polygon class="cls-3" points="615.92 79.06 614.96 77.21 614.17 75.28 613.65 73.25 613.52 71.15 613.41 69.05 613.74 66.97 614.01 64.86 614.7 62.85 615.74 61 616.66 59.11 617.87 57.39 618.91 55.55 620.4 54.05 621.62 52.3 623.12 50.8 624.76 49.47 626.53 48.29 628.35 47.23 630 45.85 631.97 45.05 633.84 44.04 635.98 43.72 637.91 42.84 639.94 42.25 642.03 41.91 644.15 41.84 646.27 41.55 648.36 42.07 650.48 42.11 652.53 42.61 654.5 43.39 656.36 44.36 658.11 45.49 659.9 46.62 661.35 48.15 662.54 49.9 663.48 51.77 664.13 53.77 664.96 55.74 665.08 57.87 665.03 59.99 664.62 62.07 664.14 64.12 663.48 66.12 662.77 68.11 661.61 69.88 660.7 71.79 659.57 73.59 657.92 74.96 656.49 76.5 655.2 78.2 653.46 79.41 651.72 80.61 650.17 82.09 648.13 82.8 646.42 84.08 644.34 84.59 642.45 85.54 640.42 86.14 638.4 86.79 636.27 86.85 634.18 87.02 632.08 87.25 629.96 87.22 627.9 86.72 625.79 86.47 623.8 85.76 621.97 84.69 620.24 83.52 618.6 82.24 617.01 80.86 615.92 79.06"/><polygon class="cls-5" points="326.26 375.38 325.37 374.3 324.65 373.1 323.78 371.96 323.57 370.54 323.05 369.21 323.15 367.78 322.99 366.38 323.09 364.97 323.24 363.56 323.76 362.23 324.15 360.87 324.79 359.61 325.37 358.32 325.95 357.02 326.92 355.97 327.8 354.88 328.58 353.69 329.52 352.63 330.51 351.61 331.7 350.83 332.76 349.89 334.06 349.31 335.17 348.41 336.44 347.79 337.77 347.3 339.13 346.92 340.49 346.55 341.85 346.15 343.27 346.07 344.69 346 346.09 346.26 347.5 346.46 348.83 346.96 350.01 347.74 351.25 348.41 352.42 349.23 353.16 350.45 354 351.58 354.67 352.82 355.15 354.16 355.49 355.54 355.62 356.96 355.35 358.37 355.22 359.75 355.13 361.16 354.66 362.49 354.27 363.84 353.73 365.14 353.31 366.51 352.53 367.7 351.65 368.81 350.91 370.02 350.03 371.13 349.03 372.14 347.96 373.06 346.8 373.88 345.78 374.88 344.63 375.71 343.27 376.18 342.01 376.78 340.71 377.32 339.43 377.9 338.08 378.38 336.65 378.38 335.26 378.64 333.85 378.7 332.46 378.4 331.05 378.26 329.72 377.77 328.48 377.08 327.29 376.33 326.26 375.38"/><polygon class="cls-6" points="38.8 174.51 38.21 172.32 37.85 170.1 37.66 167.84 37.88 165.58 38.7 163.46 39.34 161.32 40.28 159.29 41.4 157.35 42.43 155.34 43.77 153.52 45.45 152 47.19 150.58 48.78 148.98 50.48 147.49 52.5 146.46 54.57 145.55 56.43 144.24 58.61 143.6 60.76 142.96 62.85 142.11 65.04 141.56 67.26 141.16 69.5 140.8 71.76 140.79 74.02 140.93 76.29 140.93 78.48 141.54 80.64 142.17 82.82 142.76 84.96 143.53 86.77 144.93 88.52 146.32 90.12 147.87 91.55 149.57 93.06 151.27 93.73 153.43 94.64 155.5 94.98 157.74 94.76 159.99 94.81 162.24 94.16 164.4 93.79 166.64 92.47 168.52 91.68 170.65 90.34 172.47 89.12 174.39 87.43 175.91 85.67 177.31 84.14 179 82.29 180.3 80.32 181.41 78.39 182.57 76.25 183.32 74.29 184.47 72.04 184.87 69.93 185.63 67.77 186.29 65.52 186.46 63.3 186.91 61.04 187.07 58.78 187.01 56.56 186.57 54.32 186.33 52.19 185.57 50.08 184.83 48.05 183.9 45.93 183.08 44.06 181.79 42.6 180.04 40.88 178.54 39.77 176.55 38.8 174.51"/><polygon class="cls-5" points="89.05 269.11 85.85 266.78 83.5 263.86 80.86 261.24 77.72 259.17 74.94 256.7 72.52 253.85 69.88 251.23 66.89 248.99 64.27 246.35 61.5 243.87 58.75 241.37 55.98 238.87 53.63 236.39 53.46 239.76 52.63 243.38 52.32 247.05 52.29 250.75 51.46 254.37 51.3 258.06 50.44 261.68 50.53 265.39 49.76 269.02 49.27 272.67 49.59 276.41 48.9 280.05 48.85 283.75 48.38 287.4 47.35 291 47.53 294.72 47.33 298.41 46.42 302.02 46.14 305.7 45.58 309.34 45.28 313.02 45.32 316.73 44.89 320.4 44.32 324.05 44.15 327.74 43.3 331.36 42.94 335.03 42.37 338.68 42.46 342.03 44.45 339.47 46.14 336.27 47.98 333.16 49.97 330.15 52.07 327.2 53.65 323.93 55.63 320.91 57.8 318.02 59.39 314.76 61.76 311.98 63.34 308.71 65.53 305.82 67.61 302.86 69.63 299.87 71.25 296.62 73.11 293.52 74.89 290.37 77.09 287.48 78.82 284.3 80.89 281.34 82.99 278.39 84.89 275.31 86.57 272.08 89.05 269.11"/><polygon class="cls-3" points="89.12 40.24 86.22 41.42 83.27 42.76 80.17 43.78 77.09 44.81 74.25 46.45 71.21 47.58 68.06 48.44 65.18 49.99 62 50.78 59.12 52.32 56.16 53.67 52.92 54.33 50.06 55.81 52.95 57.15 55.52 59.12 58.39 60.59 60.91 62.66 63.78 64.12 66.57 65.74 69.32 67.41 72.13 68.99 74.97 70.51 77.81 72.02 80.33 74.08 83.17 75.61 85.93 77.26 88.59 79.08 91.37 80.7 94.13 82.36 96.86 84.07 99.82 85.4 102.67 86.91 105.29 88.81 108.11 90.38 110.65 92.41 113.67 93.64 116.18 95.72 119.02 97.25 121.98 98.59 124.71 100.31 127.46 101.99 130.02 103.6 128.63 101 126.7 98.49 125.3 95.64 123.45 93.08 121.88 90.34 119.97 87.82 117.93 85.39 116.63 82.47 114.75 79.93 113.38 77.06 111.18 74.73 109.8 71.86 108.09 69.21 106.43 66.52 104.72 63.87 102.59 61.49 100.94 58.8 99.22 56.15 97.67 53.4 95.91 50.77 94.11 48.17 92.36 45.54 91 42.65 89.12 40.24"/><polygon class="cls-6" points="667.57 164.48 664.15 163.45 660.53 163.45 657.13 162.28 653.52 162.22 650.02 161.59 646.56 160.73 643.1 159.85 639.61 159.15 636.04 158.86 632.57 158.1 629.06 157.48 625.58 156.66 621.94 155.93 623.63 159.2 625.6 162.16 627.12 165.34 628.37 168.67 629.75 171.92 631.69 174.9 633.26 178.06 634.5 181.38 636.37 184.4 638.18 187.44 639.74 190.61 640.87 193.99 642.63 197.05 644.08 200.27 646.2 203.16 647.65 206.38 648.73 209.78 650.66 212.76 652.1 216 653.64 219.17 655.62 222.13 657.16 225.31 658.62 228.54 660.03 231.78 661.8 234.85 663.33 238.03 665.16 241.07 666.77 244.22 668.15 247.85 668.19 244.07 668.22 240.61 668.04 237.15 668 233.69 667.78 230.23 667.63 226.77 668.01 223.31 667.95 219.85 668.23 216.4 667.47 212.94 667.69 209.48 667.47 206.03 667.71 202.57 667.5 199.11 667.51 195.65 668.02 192.18 668.1 188.72 667.89 185.26 667.9 181.8 667.46 178.34 667.25 174.88 667.77 171.41 667.81 167.95 667.57 164.48"/></g></svg>