<svg xmlns="http://www.w3.org/2000/svg" viewBox="0 0 135 159"><defs><style>.cls-1{fill:#d3d4d4;}.cls-2{fill:#ccf1ff;}.cls-3{fill:#fff;}.cls-4{fill:#f8c341;}.cls-5{fill:#f56977;}.cls-6{fill:#27b5f7;}</style></defs><g id="圖"><rect class="cls-1" x="7.5" y="13.97" width="118.63" height="131.06" rx="3.79"/><rect class="cls-2" x="6.95" y="25.84" width="119.74" height="107.31" rx="1.9" transform="translate(146.32 12.68) rotate(90)"/><rect class="cls-3" x="23.21" y="28.06" width="25.69" height="7.76" rx="1.26"/><path class="cls-3" d="M97.65,34.45H85.3a.9.9,0,0,1,0-1.79H97.65a.9.9,0,0,1,0,1.79Z"/><path class="cls-3" d="M97.65,31.5H85.3a.9.9,0,0,1,0-1.79H97.65a.9.9,0,0,1,0,1.79Z"/><rect class="cls-3" x="102.91" y="28.06" width="7.76" height="7.76" rx="1.26"/><rect class="cls-4" x="39.01" y="104.46" width="55.22" height="13.58" rx="2.53"/><path d="M43.91,113.42l.4-.85a2.65,2.65,0,0,0,1.68.56c.42,0,.94-.2.94-.6s-.45-.49-.9-.6c-1-.22-1.94-.55-1.94-1.61s.92-1.47,1.9-1.47a3.2,3.2,0,0,1,1.86.54l-.4.85a2.79,2.79,0,0,0-1.46-.41c-.27,0-.77.11-.77.49s.37.45.87.57c.91.21,2,.55,2,1.64S47,114.11,46,114.11A3,3,0,0,1,43.91,113.42Z"/><path d="M49.48,112v-3.07h1.1v3a1.11,1.11,0,1,0,2.21,0v-3h1.1V112a2.21,2.21,0,0,1-4.41,0Z"/><path d="M55.44,108.93h2.41c.84,0,1.59.35,1.59,1.33a1.09,1.09,0,0,1-.5.9,1.29,1.29,0,0,1,1,1.29c0,1.08-.85,1.58-2,1.58H55.44Zm2.33,1.95c.39,0,.58-.19.58-.5s-.19-.51-.6-.51h-1.2v1Zm.11,2.2c.52,0,.88-.19.88-.64s-.33-.67-.82-.67H56.55v1.31Z"/><path d="M61.13,113.42l.4-.85a2.65,2.65,0,0,0,1.68.56c.42,0,.94-.2.94-.6s-.45-.49-.9-.6c-1-.22-1.94-.55-1.94-1.61s.92-1.47,1.9-1.47a3.2,3.2,0,0,1,1.86.54l-.4.85a2.79,2.79,0,0,0-1.46-.41c-.27,0-.77.11-.77.49s.37.45.87.57c.91.21,2,.55,2,1.64s-1.07,1.58-2.09,1.58A3,3,0,0,1,61.13,113.42Z"/><path d="M66.56,111.47a2.6,2.6,0,0,1,2.69-2.62,2.72,2.72,0,0,1,1.79.64l-.68.74a1.62,1.62,0,1,0-1.09,2.88,1.62,1.62,0,0,0,1.22-.52l.69.77a2.73,2.73,0,0,1-1.93.75A2.61,2.61,0,0,1,66.56,111.47Z"/><path d="M72.38,108.93h2.19a2,2,0,0,1,2.29,2,1.81,1.81,0,0,1-1,1.62L77,114H75.68l-.78-1.2a3.27,3.27,0,0,1-.44,0h-1V114h-1.1Zm2.22,3a1,1,0,1,0,0-2.07H73.48v2.07Z"/><path d="M78.24,108.93h1.1V114h-1.1Z"/><path d="M81,108.93h2.4c.85,0,1.59.35,1.59,1.33a1.07,1.07,0,0,1-.5.9,1.29,1.29,0,0,1,1,1.29c0,1.08-.85,1.58-2,1.58H81Zm2.33,1.95c.38,0,.57-.19.57-.5s-.19-.51-.6-.51h-1.2v1Zm.1,2.2c.52,0,.88-.19.88-.64s-.33-.67-.82-.67H82.05v1.31Z"/><path d="M86.83,108.93h4v.94H87.93v1h2.74v.94H87.93v1.23h3v1h-4.1Z"/><polygon class="cls-5" points="90.55 111.29 90.86 112 90.94 112.83 91.15 113.63 91.43 114.4 91.67 115.18 91.94 115.96 92.21 116.74 92.61 117.47 92.78 118.28 93.09 119.05 93.23 119.87 93.5 120.64 93.71 121.44 94 122.22 94.2 123.02 94.55 123.82 94.99 123.13 95.33 122.43 95.66 121.72 96.18 121.12 96.61 120.47 96.97 119.77 97.3 119.08 97.78 119.72 98.46 120.21 98.97 120.85 99.56 121.42 100.07 122.08 100.67 122.56 101.34 122.15 101.82 121.55 101.31 120.94 100.7 120.32 100.24 119.58 99.55 119.02 99.1 118.26 98.51 117.66 99.32 117.45 100.16 117.22 100.97 116.87 101.85 116.73 102.68 116.42 103.55 116.14 102.76 115.81 101.95 115.65 101.19 115.35 100.43 115.08 99.66 114.81 98.97 114.34 98.19 114.1 97.37 113.93 96.6 113.67 95.91 113.19 95.13 112.94 94.35 112.69 93.63 112.29 92.81 112.15 92.06 111.79 91.25 111.61 90.55 111.29"/><path class="cls-6" d="M76,91.68a1.53,1.53,0,0,0,1.56,1.51,2,2,0,0,1,2.07,1.7,1.94,1.94,0,0,1-1.89,2.17l-2.94,0a2.58,2.58,0,0,1-2.62-2.54L72,83.88l3.87-.06Z"/><path class="cls-6" d="M61.24,89.36a1.53,1.53,0,0,1-2,.93,2,2,0,0,0-2.5.95,1.94,1.94,0,0,0,1.09,2.66l2.77,1a2.58,2.58,0,0,0,3.3-1.56l3.59-10.08-3.64-1.3Z"/><polygon class="cls-6" points="73.15 64.21 70.67 62.58 68.32 60.8 65.8 59.28 63.31 57.73 60.94 55.98 58.48 54.36 55.98 52.83 53.59 51.1 51.13 49.67 50.56 52.66 50.05 55.75 49.38 58.81 48.82 61.89 48.34 64.98 47.81 68.07 47.13 71.13 46.53 74.2 46.11 77.31 45.56 80.39 44.87 83.45 44.3 86.53 43.81 89.59 46.66 89.02 49.52 88.37 52.4 87.75 55.24 87.03 58.11 86.39 60.99 85.81 63.86 85.15 66.72 84.5 69.57 83.88 72.32 85.08 75.09 86.3 77.73 87.78 80.48 89.04 83.24 90.25 83.87 87.25 84.29 84.19 84.93 81.16 85.37 78.11 86.02 75.09 86.61 72.06 87.04 69 87.63 65.96 88.25 62.91 85.22 63.14 82.22 63.52 79.2 63.67 76.18 63.85 73.15 64.21"/><path class="cls-3" d="M67.26,70.74c-.34,1.85-1.18,3.77-3.19,3.4s-2.14-2.37-1.78-4.31,1.62-2.61,3-2.36A2.54,2.54,0,0,1,67.26,70.74Z"/><path d="M66.39,70.76c-.23,1.23-.79,2.5-2.12,2.26s-1.41-1.58-1.18-2.86a1.66,1.66,0,0,1,2-1.57A1.69,1.69,0,0,1,66.39,70.76Z"/><path class="cls-3" d="M80,73.07c-.34,1.85-1.18,3.77-3.19,3.4s-2.14-2.37-1.78-4.31,1.62-2.61,3-2.36S80.37,71.21,80,73.07Z"/><path d="M79.16,73.09c-.23,1.23-.79,2.5-2.12,2.26s-1.41-1.58-1.18-2.86a1.66,1.66,0,0,1,2-1.57A1.69,1.69,0,0,1,79.16,73.09Z"/><path d="M70.7,79.07a6.13,6.13,0,0,1-.92-.08,4.67,4.67,0,0,1-2.92-1.73.46.46,0,0,1,.12-.64.45.45,0,0,1,.63.12A3.77,3.77,0,0,0,70,78.09a3.73,3.73,0,0,0,2.66-.44.45.45,0,0,1,.63.12.46.46,0,0,1-.11.63A4.54,4.54,0,0,1,70.7,79.07Z"/><path d="M92.46,102.65a.41.41,0,0,1-.19,0A.5.5,0,0,1,92,102s.72-1.7,1.2-3a.49.49,0,0,1,.63-.3.5.5,0,0,1,.3.64c-.49,1.32-1.21,3-1.21,3A.5.5,0,0,1,92.46,102.65Z"/><path d="M94.66,104a.5.5,0,0,1-.35-.84s1.53-1.58,2.93-3.07a.51.51,0,0,1,.71,0,.49.49,0,0,1,0,.7c-1.41,1.51-2.94,3.08-3,3.09A.51.51,0,0,1,94.66,104Z"/><path d="M96.31,105.84a.48.48,0,0,1-.46-.32.5.5,0,0,1,.28-.64c.82-.32,2.83-1.2,2.85-1.21a.49.49,0,0,1,.65.25.51.51,0,0,1-.25.66c-.09,0-2,.9-2.89,1.23A.57.57,0,0,1,96.31,105.84Z"/></g></svg>