<svg xmlns="http://www.w3.org/2000/svg" viewBox="0 0 340 400"><defs><style>.cls-1{fill:#27b5f7;}.cls-2{fill:#231815;}.cls-3{fill:#fff;}.cls-4{fill:#f56977;}.cls-5{fill:#e6e6e7;}.cls-6{fill:#f8c341;}.cls-7{fill:#fae7e7;}</style></defs><g id="圖"><rect class="cls-1" width="340" height="400" rx="31.55"/><path class="cls-2" d="M57.77,351.15a21.24,21.24,0,0,1-2.14,6.38c.38.22.84.53,1.43.86,1.76,1,4.21,1.15,7.09,1.15a82.18,82.18,0,0,0,10.36-.69,12.26,12.26,0,0,0-.92,3.22c-2.07.15-6.58.3-9.57.3-3.31,0-5.51-.28-7.37-1.3-1-.56-1.94-1.32-2.47-1.32s-1.53,1.65-2.22,3l-2-2.93a10.24,10.24,0,0,1,2.42-2.17,14.65,14.65,0,0,0,2.12-4.57H50.94c.66-1.5,1.42-3.54,2.11-5.53H50.5v-2.71h6.38c-.61,1.84-1.33,3.85-2,5.61h.69l.44-.07Zm-4.36-7c-.41-1.17-1.3-3-1.89-4.44l2.63-.94c.64,1.38,1.48,3.09,2,4.21Zm6,6.3a7.61,7.61,0,0,1-.95.39,9.8,9.8,0,0,0-1.76-2.15,17.48,17.48,0,0,0,5.95-3H57.54v-2.27h6.69v-1.27c-1.79.13-3.6.18-5.31.2a7.48,7.48,0,0,0-.61-2,82.84,82.84,0,0,0,12.6-1.15l1.86,2c-1.65.31-3.59.59-5.66.77v1.5h6.71v2.27H68.59a16.74,16.74,0,0,0,5.79,2.66,11,11,0,0,0-1.76,2.22,15.49,15.49,0,0,1-5.51-3.42v2.35H64.23v-2.25a17.16,17.16,0,0,1-3.8,2.68h9.05c-.12.64-.28,1.3-.4,2h4.26s0,.64-.11,1c-.2,2.81-.53,4.19-1.12,4.75a2.58,2.58,0,0,1-1.84.74,20,20,0,0,1-3.08,0,6,6,0,0,0-.72-2.25c1.08.1,2.1.13,2.5.13a1.09,1.09,0,0,0,.85-.23,3.79,3.79,0,0,0,.56-2H66c.18-.54.33-1.18.49-1.87H64.66c-.46,3.19-1.71,5.36-5.81,6.66a6.86,6.86,0,0,0-1.54-2.24c3.22-.87,4.19-2.3,4.57-4.42H59.41Z"/><path class="cls-2" d="M84.28,350.84a31.35,31.35,0,0,1-2,6.63c.41.26.89.62,1.56,1,1.76,1,4.16,1.19,7.14,1.19a86.29,86.29,0,0,0,10.33-.66,11.49,11.49,0,0,0-.89,3.11c-2.09.13-6.61.31-9.59.31-3.4,0-5.54-.28-7.38-1.35-1.07-.59-2-1.43-2.5-1.43s-1.5,1.73-2.14,3.19l-2-2.89a11.52,11.52,0,0,1,2.67-2.44A24.36,24.36,0,0,0,81,353.11H77.75c.59-1.5,1.25-3.54,1.84-5.53h-2.3v-2.71h6c-.54,1.79-1.15,3.83-1.76,5.61h1l.45-.1ZM80,344.13c-.28-1.15-1-3-1.4-4.39l2.68-.81c.48,1.37,1.15,3.08,1.5,4.23Zm7.5,14.44H84.87v-11.1h1.89v-7.8h11v7.8h1.86V356c0,1.19-.2,1.83-1,2.24a7.37,7.37,0,0,1-3.17.41,7.69,7.69,0,0,0-.66-2.2H91v.8H88.8v-6.43h6.65v5.48h1c.28,0,.36-.08.36-.33v-6.2H87.49Zm1.89-11.1h1.43v-4H95v-1.56H89.38Zm3.88,5.28H91v1.79h2.3ZM95,345.36H93v2.11h2Z"/><path class="cls-2" d="M108.11,351.22c-1-.74-2.93-2-4.29-2.78l1.46-2.24c1.3.69,3.34,1.81,4.36,2.47Zm2.88,3.22c-1.2,2.65-2.68,5.53-4.06,8l-2.29-2a81,81,0,0,0,4.36-8Zm-1.56-10.18c-.94-.74-2.9-2-4.25-2.83l1.5-2.2c1.33.72,3.37,1.84,4.36,2.55Zm17.07,10.28a12.76,12.76,0,0,1-4.26,4.54,29.61,29.61,0,0,0,5.62,1.1,12.38,12.38,0,0,0-1.84,2.6,24.45,24.45,0,0,1-7-2,31.65,31.65,0,0,1-7.5,2,11.35,11.35,0,0,0-1.35-2.58,32.13,32.13,0,0,0,5.84-1.14,14.39,14.39,0,0,1-3.14-3h-1.5v-2.37h12.7l.54-.1Zm.34-1.76H111.78v-5.36h15.06Zm-11.64-5.89h-2.58v-7.15h13v7.15h-2.71v-4.95H115.2Zm.84,2.37h-1.68v1.68H116Zm6.46-5h-6.69v-1.45h6.69Zm-6.69.82h6.69v1.53h-6.69Zm.56,11a12.21,12.21,0,0,0,2.76,1.81,11.57,11.57,0,0,0,2.73-1.81Zm3.68-6.76h-1.74v1.68h1.74Zm4,0h-1.78v1.68h1.78Z"/><path class="cls-2" d="M131,360.08h23.16v2H131Zm23.19-9.67v1.86H131v-1.86h9.85v-.9h-8v-1.6h8V347h-7.24v-1.58h7.24v-.92h-9.77v-1.63h9.77V342h-7.12v-1.61h7.12v-1.5H144v1.5h7.53v2.45H154v1.63h-2.55V347H144v.9h8.52v1.6H144v.9Zm-2.71,2.7v6.15H133.9v-6.15Zm-14.61,2.35h4.21v-.89h-4.21Zm0,2.35h4.21v-.95h-4.21Zm11.53-3.24h-4.54v.89h4.54Zm0,2.29h-4.54v.95h4.54Zm-4.47-14h4.49V342H144Zm0,2.55h4.49v-.92H144Z"/><path class="cls-2" d="M180.33,339.77v23h-3v-.89H161.3v.89h-2.81v-23Zm-3,19.59V342.27H161.3v17.09Zm-.76-11.45v1.66H162.17v-1.66H168v-.77h-3.75v-4.05h10.18v4.05h-3.87v.77Zm-13.27,2.4h12v8.21h-12Zm2.32,6.53h7.2V352h-7.2Zm1-11.2h5.23v-1h-5.23Zm.08,7.06h5.18v3.4h-5.18Zm1.61,2.12h1.83V354h-1.83Z"/><path class="cls-2" d="M208.12,358.44h-4.34v4.21H200.9v-4.21h-4.72v-2.6h4.72v-2.29h-2.12a11.21,11.21,0,0,1-1,2,14,14,0,0,0-2-1.07v5.38c0,1.2-.21,2-1,2.4a7.24,7.24,0,0,1-3.4.51,8,8,0,0,0-.86-2.58c1,.05,2,.05,2.32.05s.43-.1.43-.43V356.1h-5.07a16,16,0,0,1-2,6.71,10.11,10.11,0,0,0-2.09-1.35c1.71-2.63,1.83-6.43,1.83-9.29v-3.78a17.07,17.07,0,0,0-2-1.63,17.92,17.92,0,0,0,3.77-7.83l2.68.56a18.82,18.82,0,0,1-.54,1.81h2.33l.38-.13,1.73,1.07a26.64,26.64,0,0,1-1.4,3.22h2.86V347A5.33,5.33,0,0,0,199,342.7h-2.86v-2.47h11.33s0,.64,0,1c-.13,4.05-.33,5.81-.9,6.48a2.26,2.26,0,0,1-1.55.84,19.13,19.13,0,0,1-2.58.08,5.94,5.94,0,0,0-.69-2.45c.79.07,1.48.1,1.84.1a.76.76,0,0,0,.69-.28c.23-.28.36-1.15.46-3.27h-3c-.44,2.66-1.41,4.77-4,6.2l2.27.46c-.1.54-.2,1.1-.35,1.63h1.25V348.7h2.88V351h3.83v2.56h-3.83v2.29h4.34ZM189,343.6c-.28.63-.56,1.27-.87,1.86h2.2c.25-.56.48-1.23.71-1.86Zm-.64,8.57c0,.53,0,1.09,0,1.68h1.48v-2.12h-1.46Zm0-2.58h1.46v-1.91h-1.46Zm3.45,0h1.45v-1.91h-1.45Zm1.45,4.26v-2.12h-1.45v2.12Zm2.48.15a13.93,13.93,0,0,0,1.76-5l-.54.26a7.18,7.18,0,0,0-1.22-1.74Z"/><path class="cls-2" d="M220.51,349.11c-.17.35-.38.68-.58,1h11.94v12.68h-3.06v-.92h-9.24v.92h-2.91v-8.39a19.59,19.59,0,0,1-3.93,3.06,17.18,17.18,0,0,0-1.91-2.45,17.07,17.07,0,0,0,6.22-5.94h-5.43v-2.4h6.71c.18-.36.33-.74.48-1.1h-5.4v-2.29h6.22c.1-.36.2-.72.28-1.1-2.12.07-4.23.1-6.22.07a7.89,7.89,0,0,0-.57-2.27A128.41,128.41,0,0,0,231,339l1.79,2.17a86.32,86.32,0,0,1-9.55.92c-.1.41-.23.82-.35,1.23h10v2.29H222.07c-.13.36-.28.74-.43,1.1h12.63v2.4Zm8.3,3.34h-9.24v1.1h9.24Zm0,3h-9.24v1.13h9.24Zm0,4.19v-1.18h-9.24v1.18Z"/><path class="cls-2" d="M242.27,355.59a24.27,24.27,0,0,1-2.57,5.23,18.41,18.41,0,0,0-2-1.38,18,18,0,0,0,2.24-4.52Zm3.58-1.48v8.47h-2.94v-8.47h-4.74v-2.55h4.74v-2H238v-2.5h2.48a15.29,15.29,0,0,0-.74-2.65l2.09-.51H238.4v-2.48h4.36c-.23-.69-.51-1.4-.77-2l3-.74c.38.84.84,1.89,1.15,2.75h3.65v2.48h-3.19l2.06.41c-.38,1-.76,2-1.14,2.75h2.65v2.5h-4.36v2h4v2.55Zm-3.68-10.18a12.42,12.42,0,0,1,.85,2.65l-1.84.51h3.67a31.15,31.15,0,0,0,1.1-3.16Zm19.42,6.2h-2.37v12.52h-3V350.13h-2.38v.3c0,3.75-.33,9-2.5,12.28a11.52,11.52,0,0,0-2.34-1.82,10.14,10.14,0,0,0,1.14-2.47l-1.81,1.12a30.81,30.81,0,0,0-2-3.83l2-1.07a26.48,26.48,0,0,1,1.92,3.34,27.69,27.69,0,0,0,.79-7.55v-9.08a36.18,36.18,0,0,0,7.73-2.17l2.32,2.22a39.75,39.75,0,0,1-7.25,1.92v4h7.71Z"/><path class="cls-2" d="M268.78,348.16v14.55h-3v-23h9.82v8.47Zm0-6.45V343h4v-1.25Zm4,4.46V344.9h-4v1.27Zm8.36,13.12V362h-2.72v-2.73H269.7v-2.07h2.07V351.1h-1.48V349h12.37v2.07h-1.51v6.12H283v2.07Zm-6.73-8.19V352h4v-.89Zm0,3.49h4v-.92h-4Zm4,2.63v-.94h-4v.94Zm8.9,2.42c0,1.38-.26,2-1.07,2.53a7.94,7.94,0,0,1-3.55.51,9.06,9.06,0,0,0-.84-2.63c.84,0,1.76,0,2.07,0s.4-.13.4-.43V348.16h-7v-8.47h10Zm-7.12-17.93V343h4.13v-1.25Zm4.13,4.46V344.9h-4.13v1.27Z"/><path class="cls-2" d="M49.46,365v-1.27H290.54V365Z"/><path class="cls-3" d="M297.19,299.89c-1,1-1.68-.73-3.12-.73s-1.44.69-2.89.69-1.44-.21-2.88-.21-1.44.23-2.88.23-1.44-.59-2.89-.59-1.44.16-2.88.16l-2.88,0c-1.44,0-1.44-.13-2.89-.13s-1.44.09-2.88.09h-2.89c-1.44,0-1.44.56-2.88.56s-1.44-.32-2.88-.32-1.45-.27-2.89-.27-1.44.54-2.88.54-1.44-.21-2.88-.21-1.45.25-2.89.25-1.44-.72-2.88-.72-1.45.24-2.89.24-1.44.28-2.88.28-1.45.05-2.89.05-1.44,0-2.88,0-1.44-.32-2.89-.32-1.43.58-2.87.58-1.44-.31-2.88-.31-1.44-.12-2.88-.12-1.44.42-2.88.42-1.44-.11-2.88-.11-1.44-.42-2.88-.42-1.44,0-2.88,0-1.44.56-2.89.56-1.44-.29-2.88-.29-1.44,0-2.89,0-1.44-.2-2.88-.2-1.44-.24-2.88-.24-1.44-.06-2.88-.06-1.44.51-2.89.51-1.44-.69-2.88-.69-1.44.85-2.88.85-1.44-.09-2.88-.09-1.44.16-2.89.16h-2.88c-1.45,0-1.45-.48-2.89-.48s-1.44.54-2.88.54-1.44-.83-2.88-.83h-2.89c-1.44,0-1.44.44-2.88.44s-1.44.11-2.89.11-1.44,0-2.88,0-1.44,0-2.89,0-1.44.19-2.88.19H149.9c-1.44,0-1.44-.35-2.88-.35s-1.44-.51-2.89-.51-1.44.35-2.88.35-1.45-.23-2.89-.23-1.44-.11-2.89-.11-1.44.09-2.88.09-1.44.22-2.89.22-1.44-.13-2.89-.13-1.44-.18-2.88-.18-1.44.71-2.89.71-1.44-.71-2.88-.71-1.45.62-2.89.62-1.45.15-2.89.15-1.44-.77-2.89-.77-1.44.28-2.88.28-1.45.42-2.89.42-1.44,0-2.89,0-1.44-.53-2.89-.53-1.44.58-2.88.58H92.17c-1.44,0-1.44-.17-2.88-.17s-1.44-.12-2.89-.12-1.44,0-2.89,0-1.44-.25-2.88-.25-1.45.12-2.89.12-1.44.4-2.89.4-1.44-.35-2.89-.35-1.44-.32-2.89-.32-1.44.31-2.89.31-1.44-.12-2.89-.12-1.44.09-2.89.09-1.44.33-2.89.33-1.44.15-2.89.15-1.44-.66-2.89-.66-1.44.07-2.89.07-1.45.06-2.9.06-1.59.92-2.62-.1-.44-1.15-.44-2.58-.33-1.44-.33-2.87v-2.86c0-1.43.59-1.43.59-2.86s-.27-1.44-.27-2.87,0-1.43,0-2.86-.09-1.43-.09-2.86-.08-1.43-.08-2.86.56-1.43.56-2.87-.5-1.43-.5-2.86.41-1.43.41-2.86,0-1.44,0-2.87.21-1.43.21-2.86-.09-1.43-.09-2.86-.46-1.44-.46-2.87,0-1.43,0-2.86.65-1.43.65-2.86-.35-1.43-.35-2.87.11-1.43.11-2.86-.26-1.43-.26-2.87S43,241,43,239.52s-.16-1.43-.16-2.86.52-1.43.52-2.86-.16-1.43-.16-2.86-.2-1.43-.2-2.86.33-1.43.33-2.86-.28-1.43-.28-2.86.24-1.43.24-2.86-.69-1.43-.69-2.86,0-1.43,0-2.86.69-1.43.69-2.86-.47-1.43-.47-2.86,0-1.44,0-2.87-.16-1.43-.16-2.86.33-1.43.33-2.86,0-1.43,0-2.86.14-1.43.14-2.86,0-1.43,0-2.86.19-1.43.19-2.87.15-1.43.15-2.86-.76-1.43-.76-2.86.42-1.43.42-2.87-.17-1.43-.17-2.86.23-1.43.23-2.86-.54-1.44-.54-2.87,0-1.43,0-2.86.2-1.43.2-2.86.33-1.43.33-2.86-.35-1.44-.35-2.87.52-1.43.52-2.87,0-1.43,0-2.86S43,152.23,43,150.8s0-1.44,0-2.87.18-1.43.18-2.86.12-1.43.12-2.87-.58-1.43-.58-2.86.53-1.44.53-2.87-.49-1.43-.49-2.86.74-1.43.74-2.87-.6-1.43-.6-2.86V125c0-1.43-.29-1.43-.29-2.87s.29-1.43.29-2.86.11-1.43.11-2.87.36-1.43.36-2.86,0-1.44,0-2.87-.63-1.43-.63-2.87.76-1.43.76-2.86,0-1.44,0-2.87-.72-1.43-.72-2.87.19-1.43.19-2.86.59-1.44.59-2.87-.94-1.43-.94-2.86.49-1.43.49-2.87-.25-1.43-.25-2.86-.23-1.44-.23-2.87.64-1.43.64-2.87.15-1.43.15-2.86.1-1.44.1-2.87-.79-1.44-.79-2.87.81-1.43.81-2.87-.11-1.43-.11-2.87-.6-1.43-.6-2.87.44-1.43.44-2.87S43,57.64,43,56.2s-.34-1.43-.34-2.87.4-1.43.4-2.87-.45-1.43-.45-2.87S42,45.72,43,44.7s1.45,0,2.89,0,1.44-.07,2.89-.07,1.44.36,2.88.36,1.44-.1,2.88-.1,1.44.21,2.88.21,1.45-.84,2.89-.84,1.44.11,2.88.11,1.44.11,2.89.11,1.44-.08,2.88-.08,1.44,0,2.89,0,1.44.51,2.88.51,1.44.32,2.88.32S79.1,45,80.54,45s1.44-.55,2.88-.55,1.44.48,2.88.48,1.45-.09,2.89-.09,1.44-.19,2.88-.19,1.45-.32,2.89-.32,1.44.69,2.88.69,1.44-.31,2.89-.31,1.44,0,2.88,0,1.44,0,2.88,0,1.44-.1,2.88-.1,1.44.41,2.88.41,1.44.15,2.88.15,1.44-.42,2.88-.42,1.44.41,2.88.41,1.44-.86,2.88-.86,1.44.69,2.88.69,1.44.22,2.89.22,1.44-.5,2.88-.5,1.44.12,2.89.12,1.44-.55,2.88-.55,1.44.15,2.88.15,1.44.28,2.88.28,1.44-.23,2.89-.23,1.44.67,2.88.67,1.44-.66,2.88-.66,1.44-.17,2.88-.17,1.44.31,2.89.31,1.44-.38,2.88-.38,1.45.68,2.89.68,1.44-.12,2.88-.12,1.44-.16,2.88-.16,1.45.48,2.89.48,1.44-.79,2.88-.79,1.44.09,2.88.09,1.45.33,2.89.33,1.44-.39,2.89-.39,1.44.8,2.88.8,1.44-.83,2.89-.83,1.44.24,2.88.24,1.44.39,2.89.39,1.44.13,2.88.13,1.45-.25,2.89-.25,1.44-.6,2.89-.6,1.44.81,2.88.81,1.44-.67,2.89-.67,1.44.39,2.88.39,1.45-.36,2.89-.36,1.44-.18,2.89-.18,1.44.1,2.88.1,1.45.65,2.89.65,1.44,0,2.89,0,1.44-.31,2.89-.31,1.44-.15,2.88-.15,1.45.42,2.89.42,1.44,0,2.89,0,1.44-.62,2.89-.62,1.44.5,2.88.5,1.45-.32,2.89-.32,1.44-.27,2.88-.27,1.44.14,2.89.14,1.44.59,2.89.59,1.44-.31,2.88-.31,1.45-.13,2.89-.13,1.44.44,2.89.44,1.44-.74,2.89-.74,1.44.91,2.89.91,1.44-.56,2.89-.56,1.44.26,2.89.26,1.44-.14,2.89-.14,1.44-.43,2.89-.43,1.44.51,2.89.51,1.44.08,2.89.08,1.44-.4,2.89-.4,1.45.23,2.9.23,1.61-.8,2.64.22.37,1.17.37,2.61S297,49,297,50.44s-.26,1.43-.26,2.86.57,1.43.57,2.87-.67,1.43-.67,2.86.8,1.43.8,2.86-.5,1.43-.5,2.86-.06,1.43-.06,2.86.38,1.44.38,2.87-.13,1.43-.13,2.86-.18,1.43-.18,2.87.23,1.43.23,2.86.2,1.43.2,2.86.07,1.43.07,2.87-.19,1.43-.19,2.86-.71,1.43-.71,2.86.27,1.43.27,2.86.57,1.44.57,2.87-.87,1.43-.87,2.86.66,1.43.66,2.87.11,1.43.11,2.86-.08,1.43-.08,2.86-.47,1.43-.47,2.87,0,1.43,0,2.85-.24,1.43-.24,2.86.72,1.43.72,2.86-.34,1.43-.34,2.86-.33,1.43-.33,2.86.87,1.43.87,2.86,0,1.43,0,2.86-1,1.43-1,2.86.64,1.43.64,2.87,0,1.43,0,2.86.14,1.43.14,2.86,0,1.43,0,2.86-.24,1.43-.24,2.86-.05,1.44-.05,2.87-.25,1.43-.25,2.86.29,1.43.29,2.86.19,1.43.19,2.86-.29,1.43-.29,2.86.29,1.44.29,2.87-.1,1.43-.1,2.86.43,1.43.43,2.87-.49,1.43-.49,2.86.44,1.43.44,2.86,0,1.43,0,2.86-.24,1.43-.24,2.87.32,1.43.32,2.86-.6,1.43-.6,2.87.53,1.43.53,2.86-.84,1.43-.84,2.86.83,1.44.83,2.87-.72,1.43-.72,2.86.5,1.44.5,2.87-.51,1.43-.51,2.86-.16,1.44-.16,2.87.91,1.43.91,2.86-.06,1.44-.06,2.87-.19,1.43-.19,2.87-.64,1.43-.64,2.86.52,1.43.52,2.87.37,1.43.37,2.86-.3,1.44-.3,2.87-.27,1.43-.27,2.87.59,1.43.59,2.86-.77,1.44-.77,2.87.55,1.43.55,2.87.14,1.43.14,2.86-.66,1.44-.66,2.87,0,1.43,0,2.86.51,1.44.51,2.87.11,1.43.11,2.86.09,1.44.09,2.87-.82,1.43-.82,2.87.25,1.43.25,2.86-.15,1.43-.15,2.87.08,1.43.08,2.86v2.87c0,1.44,0,1.44,0,2.87s.56,1.44.56,2.87-.09,1.43-.09,2.87-.68,1.43-.68,2.87.47,1.43.47,2.87.24,1.43.24,2.87.1,1.43.1,2.87-.81,1.43-.81,2.87a8.27,8.27,0,0,0,.14,2.94C297.09,298.46,298.21,298.87,297.19,299.89Z"/><path class="cls-4" d="M183.41,168.24c-1.11,1.69-1.89.28-3.91.28s-2,.12-4.05.12-2-.18-4-.18-2-.12-4.05-.12-2-.24-4-.24-2,.29-4.05.29-2,0-4.05,0-2-.11-4-.11-2,.42-4.05.42-2-.3-4-.3-2,0-4.05,0-2-.12-4.06-.12-2,0-4.05,0-2-.1-4-.1-2-.17-4-.17-2,.22-4.05.22-2,.18-4,.18-2-.17-4-.17-2,.29-4,.29-2-.44-4-.44-2,.21-4.05.21-2,.06-4,.06-2-.27-4.06-.27-2,.42-4,.42-2-.48-4.06-.48-2,.65-4,.65-2-.36-4-.36-2-.07-4.06-.07-2,.17-4.06.17-2.7,1.44-4.14,0,.3-2.11.3-4.14-.47-2-.47-4.07.14-2,.14-4.07.15-2,.15-4.07,0-2,0-4.06.31-2,.31-4.07-.1-2-.1-4.07-.2-2-.2-4.07,0-2,0-4.07-.16-2-.16-4.07-.13-2-.13-4.07,0-2,0-4.07.28-2,.28-4.06.25-2,.25-4.07-.18-2-.18-4.07-.15-2-.15-4.07-.08-2-.08-4.07.07-2,.07-4.07-.11-2-.11-4.07.41-2,.41-4.07-.26-2-.26-4.08.37-2,.37-4.07-.18-2-.18-4.07.12-2,.12-4.07,0-2,0-4.08-1.94-2.83-.5-4.28,2.23.05,4.27.05,2,.46,4.06.46h4.07c2,0,2-.64,4.07-.64s2,.62,4.06.62,2-.08,4.07-.08,2-.29,4.06-.29h4.07c2,0,2,.39,4.07.39s2-.55,4.07-.55,2,.2,4.07.2,2-.1,4.07-.1,2,.22,4.07.22,2,.15,4.07.15,2-.2,4.07-.2,2,.19,4.07.19,2-.46,4.07-.46,2.5-1.08,4.22,0,.78,2,1.61,3.82,1,1.75,1.82,3.57.59,1.94,1.42,3.76.58,1.94,1.41,3.77,1.25,1.63,2.08,3.45l1.66,3.65c.84,1.83.38,2,1.21,3.86s1.15,1.68,2,3.5.67,1.9,1.51,3.72.81,1.84,1.64,3.66.77,1.86,1.6,3.68.9,1.79,1.74,3.62,1.26,1.63,2.09,3.45.86,1.82,1.69,3.64.48,2,1.31,3.81,1.14,1.68,2,3.5l1.66,3.66c.84,1.82.39,2,1.22,3.85s1.31,1.6,2.14,3.43.87,1.81,1.71,3.63.81,1.83,1.65,3.66.51,2,1.35,3.79,1.08,1.72,1.91,3.54.89,1.8,1.72,3.63.74,1.87,1.57,3.69.37,2,1.2,3.87,1,1.75,1.82,3.58.5,2.07,1.73,3.66S184.51,166.55,183.41,168.24Z"/><path class="cls-5" d="M182.22,170.48a4.33,4.33,0,0,1-1.38-.27,4.15,4.15,0,0,0-1.34-.27c-1,0-1.46,0-1.94.06s-1.06.06-2.11.06a19.58,19.58,0,0,1-2.15-.1c-.49,0-1-.08-1.9-.08s-1.58,0-2.11-.07-1-.06-1.94-.06a17.21,17.21,0,0,1-2.19-.12,13,13,0,0,0-1.86-.11,10.82,10.82,0,0,0-1.82.13,14.43,14.43,0,0,1-2.23.16c-1,0-1.54,0-2.05,0l-2,0c-1,0-1.57,0-2.1-.05s-1-.05-1.95-.05a7.08,7.08,0,0,0-1.74.18,10,10,0,0,1-2.31.24,12.8,12.8,0,0,1-2.23-.17,10.82,10.82,0,0,0-1.82-.13c-1,0-1.5,0-2,0l-2.05,0c-1.06,0-1.59,0-2.11-.06s-1-.05-1.95-.05-1.54,0-2.05,0-1,0-2,0-1.57,0-2.09,0-1,0-2,0-1.61-.05-2.14-.09-1-.08-1.91-.08a15.18,15.18,0,0,0-1.87.1,17,17,0,0,1-2.18.12c-.95,0-1.41,0-1.9.08a19.72,19.72,0,0,1-2.15.1c-1.07,0-1.62-.05-2.14-.09s-1-.08-1.91-.08a11.06,11.06,0,0,0-1.83.13,14.49,14.49,0,0,1-2.22.15,9.44,9.44,0,0,1-2.32-.25,7,7,0,0,0-1.73-.18,15.38,15.38,0,0,0-1.88.1,19.53,19.53,0,0,1-2.17.11c-1,0-1.49,0-2,0l-2.06,0a14.84,14.84,0,0,1-2.22-.14,12.31,12.31,0,0,0-1.84-.12,7.08,7.08,0,0,0-1.74.18,10.08,10.08,0,0,1-2.31.24,9,9,0,0,1-2.36-.28,6.22,6.22,0,0,0-1.7-.2,4.5,4.5,0,0,0-1.59.25,7,7,0,0,1-2.46.4,11.65,11.65,0,0,1-2.27-.2,8.21,8.21,0,0,0-1.78-.16c-1,0-1.56,0-2.08,0s-1,0-2,0-1.42,0-1.91.08-1.08.09-2.15.09a3.8,3.8,0,0,0-1.36.3,3.14,3.14,0,0,1-3.78-.72,3,3,0,0,1-.51-3.81,3,3,0,0,0,.39-1.33,6.28,6.28,0,0,0-.2-1.72,9.43,9.43,0,0,1-.27-2.35c0-1.07,0-1.61.08-2.13s.07-1,.07-1.94,0-1.61.07-2.14.08-1,.08-1.93,0-1.5,0-2,0-1,0-2.06a13,13,0,0,1,.17-2.25,10.59,10.59,0,0,0,.14-1.82c0-1,0-1.48-.05-2s0-1,0-2.1a16.29,16.29,0,0,0-.09-1.9,19.37,19.37,0,0,1-.11-2.17c0-1,0-1.55,0-2.06s0-1,0-2,0-1.43-.07-1.92a20.55,20.55,0,0,1-.09-2.15c0-1,0-1.46-.06-2s-.07-1.06-.07-2.12,0-1.52,0-2,0-1,0-2a14.49,14.49,0,0,1,.15-2.22,11.15,11.15,0,0,0,.13-1.85,14.78,14.78,0,0,1,.14-2.21,12.47,12.47,0,0,0,.12-1.85,19,19,0,0,0-.09-1.91,20,20,0,0,1-.1-2.16c0-1,0-1.44-.07-1.93s-.07-1.07-.07-2.14,0-1.48,0-2,0-1,0-2.09,0-1.57,0-2.09,0-1,0-2,0-1.47-.06-2,0-1.06,0-2.11a10.32,10.32,0,0,1,.23-2.32A7.84,7.84,0,0,0,60.79,87a12.86,12.86,0,0,0-.11-1.86,14.84,14.84,0,0,1-.14-2.22,11.77,11.77,0,0,1,.2-2.28,8.32,8.32,0,0,0,.16-1.79c0-1,0-1.42-.08-1.91a20,20,0,0,1-.1-2.16c0-1.06,0-1.59.07-2.12s.06-1,.06-2,0-1.55,0-2.06,0-1,0-2a3,3,0,0,0-.45-1.36,3,3,0,0,1,.37-3.92,3.22,3.22,0,0,1,3.86-.69,4,4,0,0,0,1.41.32,9,9,0,0,1,2.35.27,6.77,6.77,0,0,0,1.71.19h4.07a4.54,4.54,0,0,0,1.61-.25,7.37,7.37,0,0,1,2.46-.38,7.62,7.62,0,0,1,2.44.36,4.61,4.61,0,0,0,1.62.25c1,0,1.49,0,2,0s1,0,2.09,0a10.87,10.87,0,0,0,1.83-.13A14.43,14.43,0,0,1,90.45,61h4.07a10.18,10.18,0,0,1,2.3.22,8,8,0,0,0,1.77.17,5.17,5.17,0,0,0,1.66-.23,7.75,7.75,0,0,1,2.41-.33,19.37,19.37,0,0,1,2.17.11,16.29,16.29,0,0,0,1.9.09c1,0,1.47,0,2,0s1.06,0,2.11,0a17.5,17.5,0,0,1,2.18.11,15.57,15.57,0,0,0,1.89.1c1.07,0,1.61,0,2.14.08s1,.07,1.93.07a18.51,18.51,0,0,0,1.89-.09,17.5,17.5,0,0,1,2.18-.11,20.32,20.32,0,0,1,2.17.1,15.77,15.77,0,0,0,1.9.1,6.7,6.7,0,0,0,1.72-.2,9,9,0,0,1,2.35-.27,4.65,4.65,0,0,0,1.4-.23,3.84,3.84,0,0,1,3.58.47A3.65,3.65,0,0,1,138,64.18a3.65,3.65,0,0,0,.31,1.34,17.15,17.15,0,0,0,.86,1.68c.25.46.51.93,1,1.9a13.78,13.78,0,0,1,.78,2,13,13,0,0,0,.65,1.71,13.81,13.81,0,0,1,.78,2.07,9.45,9.45,0,0,0,.63,1.7,6.5,6.5,0,0,0,.87,1.46,8.76,8.76,0,0,1,1.21,2l1.66,3.64a8.48,8.48,0,0,1,.71,2.26,5.93,5.93,0,0,0,.5,1.6,9.26,9.26,0,0,0,.87,1.54,10.52,10.52,0,0,1,1.11,2,18.36,18.36,0,0,1,.8,2,18.34,18.34,0,0,0,.71,1.75c.41.91.62,1.37.82,1.83l.82,1.82c.43.94.63,1.42.82,1.89s.37.91.78,1.79.62,1.33.84,1.76.47.92.89,1.86a6.44,6.44,0,0,0,.88,1.45,8.7,8.7,0,0,1,1.22,2c.41.91.62,1.36.84,1.8s.43.92.85,1.84a10.3,10.3,0,0,1,.74,2.16,8.31,8.31,0,0,0,.57,1.65,9,9,0,0,0,.87,1.55,11.25,11.25,0,0,1,1.1,2l1.66,3.65a8.23,8.23,0,0,1,.71,2.25,5.77,5.77,0,0,0,.51,1.6,5.59,5.59,0,0,0,.88,1.41,8,8,0,0,1,1.26,2c.41.9.63,1.34.84,1.79s.44.92.87,1.84.62,1.38.83,1.85.4.91.82,1.81a11.52,11.52,0,0,1,.75,2.12,8.27,8.27,0,0,0,.6,1.67,11.24,11.24,0,0,0,.86,1.61,13.54,13.54,0,0,1,1,1.93c.41.89.62,1.33.84,1.78s.45.92.88,1.85.62,1.43.81,1.91.36.9.76,1.78a8.35,8.35,0,0,1,.71,2.28,5.46,5.46,0,0,0,.49,1.59,17.15,17.15,0,0,0,.86,1.68c.25.46.52.93,1,1.9a13.33,13.33,0,0,1,.64,1.67,4.32,4.32,0,0,0,.92,1.71,7.74,7.74,0,0,0,1,1c.8.73,2.14,1.95.72,4.14h0A2.77,2.77,0,0,1,182.22,170.48Zm1.19-2.24h0Zm-3.91-1.13a6.88,6.88,0,0,1,2.21.4l.39.12.12-.17a.79.79,0,0,0,.1-.16c-.1-.1-.23-.23-.35-.33a10.89,10.89,0,0,1-1.3-1.36,7.19,7.19,0,0,1-1.38-2.58,11.29,11.29,0,0,0-.52-1.36,18.93,18.93,0,0,0-.86-1.69c-.25-.45-.52-.93-1-1.89a8.34,8.34,0,0,1-.7-2.28,5.79,5.79,0,0,0-.49-1.59c-.44-.94-.63-1.43-.82-1.91s-.36-.9-.76-1.78-.63-1.34-.85-1.78-.45-.92-.87-1.85a10.33,10.33,0,0,0-.87-1.6,14.67,14.67,0,0,1-1-1.94,11.52,11.52,0,0,1-.76-2.13,9,9,0,0,0-.59-1.66c-.42-.92-.63-1.38-.83-1.84s-.41-.91-.82-1.82-.63-1.35-.84-1.79-.44-.92-.86-1.84a5.39,5.39,0,0,0-.89-1.41,9.56,9.56,0,0,1-2-4.27,5.72,5.72,0,0,0-.51-1.61l-1.66-3.65a8.59,8.59,0,0,0-.87-1.54,12,12,0,0,1-1.1-2,10.3,10.3,0,0,1-.74-2.16,7.7,7.7,0,0,0-.57-1.65c-.41-.9-.62-1.35-.84-1.8s-.43-.92-.85-1.84a6.31,6.31,0,0,0-.88-1.45,8.76,8.76,0,0,1-1.21-2c-.41-.89-.63-1.33-.85-1.76s-.46-.92-.89-1.86-.62-1.41-.82-1.89-.37-.9-.78-1.79-.62-1.38-.83-1.85-.4-.91-.81-1.81a20.87,20.87,0,0,1-.8-2,17.63,17.63,0,0,0-.7-1.75,8.5,8.5,0,0,0-.88-1.54,11.82,11.82,0,0,1-1.11-2,8.64,8.64,0,0,1-.71-2.26,5.28,5.28,0,0,0-.5-1.6l-1.66-3.65a6.58,6.58,0,0,0-.88-1.45,9.31,9.31,0,0,1-1.2-2,12.82,12.82,0,0,1-.77-2.08,11.31,11.31,0,0,0-.63-1.69,14.22,14.22,0,0,1-.78-2,13.52,13.52,0,0,0-.65-1.71c-.4-.86-.62-1.26-.86-1.68s-.52-.93-1-1.89a6.41,6.41,0,0,1-.55-2.23c-.08-.67-.08-.7-.53-1s-.63-.32-1.3-.13a7.53,7.53,0,0,1-2.16.33,6.34,6.34,0,0,0-1.72.2,9,9,0,0,1-2.35.27,20,20,0,0,1-2.17-.1,18.1,18.1,0,0,0-3.8,0,20.17,20.17,0,0,1-2.17.1c-1.07,0-1.62,0-2.14-.08s-1-.07-1.93-.07a17.69,17.69,0,0,1-2.19-.11,15.38,15.38,0,0,0-1.88-.1c-1,0-1.48,0-2,.05s-1,0-2.1,0a19.75,19.75,0,0,1-2.18-.11,15.71,15.71,0,0,0-1.89-.1,5.42,5.42,0,0,0-1.66.23,7.75,7.75,0,0,1-2.41.33,10.9,10.9,0,0,1-2.3-.22,8,8,0,0,0-1.77-.17H90.45a11,11,0,0,0-1.83.13,14.65,14.65,0,0,1-2.23.15c-1,0-1.48,0-2,0s-1,0-2.09,0a7.62,7.62,0,0,1-2.44-.36,5.34,5.34,0,0,0-3.23,0,7.37,7.37,0,0,1-2.46.38H70.12A9,9,0,0,1,67.77,64a6.25,6.25,0,0,0-1.71-.2,6.78,6.78,0,0,1-2.37-.48,3.11,3.11,0,0,0-.62-.19h0a1.05,1.05,0,0,0-.26.21l-.11.12c.05.12.16.33.25.49a5.61,5.61,0,0,1,.77,2.67c0,1,0,1.54,0,2.06s0,1,0,2,0,1.59-.06,2.12-.06,1-.06,2,0,1.42.08,1.91a20,20,0,0,1,.1,2.16,11,11,0,0,1-.21,2.29,8.91,8.91,0,0,0-.16,1.78,12.63,12.63,0,0,0,.12,1.86A16.36,16.36,0,0,1,63.63,87a10.22,10.22,0,0,1-.23,2.31A7.21,7.21,0,0,0,63.22,91c0,1,0,1.47.05,2s.06,1,.06,2.11,0,1.57,0,2.09,0,1,0,2,0,1.48,0,2,0,1.05,0,2.1,0,1.44.07,1.93.08,1.07.08,2.14,0,1.41.08,1.9a20.17,20.17,0,0,1,.1,2.17,14.78,14.78,0,0,1-.14,2.21,12.58,12.58,0,0,0-.12,1.85,14.54,14.54,0,0,1-.15,2.23,12.53,12.53,0,0,0-.12,1.84c0,1,0,1.52,0,2s0,1,0,2,0,1.46.06,2,.06,1.06.06,2.12,0,1.43.08,1.92.09,1.08.09,2.15,0,1.54,0,2.06,0,1,0,2a15.71,15.71,0,0,0,.1,1.89,19.75,19.75,0,0,1,.11,2.18c0,1,0,1.47,0,2s.05,1.05.05,2.11a13.18,13.18,0,0,1-.17,2.25A10.5,10.5,0,0,0,63.4,148c0,1,0,1.5,0,2s0,1,0,2.06,0,1.62-.08,2.14-.07,1-.07,1.93,0,1.61-.08,2.14-.07,1-.07,1.93a6.68,6.68,0,0,0,.2,1.71,9,9,0,0,1,.28,2.36,5.58,5.58,0,0,1-.66,2.53,3.15,3.15,0,0,0-.19.45,1.27,1.27,0,0,0,.14.16,1.17,1.17,0,0,0,.28.23c.06,0,.33-.11.53-.18a6.65,6.65,0,0,1,2.32-.46c1,0,1.42,0,1.91-.08a20.55,20.55,0,0,1,2.15-.09c1,0,1.56,0,2.08,0s1,0,2,0a11,11,0,0,1,2.27.2,9.08,9.08,0,0,0,1.78.15,4.28,4.28,0,0,0,1.59-.25,7,7,0,0,1,2.46-.4,9,9,0,0,1,2.36.28,6.22,6.22,0,0,0,1.7.2,7.08,7.08,0,0,0,1.74-.18,10,10,0,0,1,2.31-.24,14.34,14.34,0,0,1,2.21.15,12.47,12.47,0,0,0,1.85.12c1,0,1.49,0,2,0l2.07,0a15.18,15.18,0,0,0,1.87-.1,17,17,0,0,1,2.18-.12,10,10,0,0,1,2.32.25,7,7,0,0,0,1.73.19,11,11,0,0,0,1.83-.13,14.17,14.17,0,0,1,2.22-.16c1.07,0,1.62,0,2.14.09s1,.08,1.91.08,1.41,0,1.9-.08a19.72,19.72,0,0,1,2.15-.1,15.31,15.31,0,0,0,1.87-.1,17,17,0,0,1,2.18-.12c1.07,0,1.62.05,2.14.09s1,.08,1.91.08,1.57,0,2.1,0,1,.05,1.95.05,1.55,0,2.06,0l2,0c1.06,0,1.59,0,2.11.06s1,.06,1.95.06l2,0,2.06,0a13.25,13.25,0,0,1,2.23.16,10.82,10.82,0,0,0,1.82.13,7.08,7.08,0,0,0,1.74-.18,10,10,0,0,1,2.31-.24c1,0,1.57,0,2.1.06s1,.05,1.95.05,1.54,0,2.05,0l2,0a10.59,10.59,0,0,0,1.82-.14,14.32,14.32,0,0,1,2.23-.16,16.76,16.76,0,0,1,2.19.13,13,13,0,0,0,1.86.11c1.06,0,1.58,0,2.11.06s1,.06,1.94.06a19.72,19.72,0,0,1,2.15.1,18.92,18.92,0,0,0,1.9.09c1,0,1.45,0,1.94-.06S178.44,167.11,179.5,167.11Z"/><path class="cls-6" d="M279.51,168.44c-1.38,1.42-2.09.1-4.08.1s-2-.12-4-.12-2-.23-4-.23h-4c-2,0-2,.22-4,.22s-2-.18-4-.18-2-.12-4-.12-2,.31-4,.31-2-.25-4-.25-2-.19-4-.19-2,.45-4,.45-2-.33-4-.33-2,.34-4,.34-2-.44-4-.44-2,.66-4,.66-2-.09-4-.09-2-.3-4-.3-2-.14-4-.14-2,.37-4,.37-2-.13-4-.13-2,.27-4,.27-2.29.72-4-.36-1.08-1.68-1.91-3.51-.81-1.83-1.64-3.66-.8-1.83-1.63-3.66-.61-1.92-1.44-3.75-.89-1.8-1.72-3.62-.89-1.8-1.73-3.62-.49-2-1.33-3.8-1.18-1.67-2-3.49-.79-1.85-1.62-3.67-1.12-1.69-2-3.52-.34-2-1.17-3.87-.77-1.85-1.61-3.67-1.08-1.72-1.91-3.54-1-1.77-1.79-3.59-.86-1.82-1.69-3.64-.85-1.82-1.68-3.64-.85-1.81-1.68-3.64-.7-1.88-1.54-3.7-.63-1.92-1.46-3.75-.75-1.86-1.58-3.68-1-1.76-1.82-3.59-1.18-1.66-2-3.48-.59-1.94-1.42-3.77-.57-1.94-1.41-3.77-1-1.74-1.84-3.57-.7-1.88-1.53-3.71-1.15-1.68-2-3.51-.58-1.94-1.42-3.77-2.79-1.85-1.71-3.55,1.92.24,3.91.24,2-.5,4-.5,2,0,4,0,2,.1,4,.1,2,0,4,0,2-.23,4-.23,2,.31,4,.31,2-.28,4-.28,2,.5,4,.5,2,0,4,0,2,.13,4,.13,2-.59,4-.59,2,.65,4,.65,2-.2,4-.2,2-.44,4-.44,2,.16,4,.16,2,.41,4,.41,2-.43,4-.43,2,.38,4,.38,2,.14,4,.14,2-.49,4-.49,2,.3,4,.3,2,.12,4,.12,2-.06,4-.06,2,.11,4,.11,2-.39,4-.39,2-.28,4-.28h4c2,0,2,.3,4,.3s2,.38,4,.38,2-.28,4-.28,2,.26,4,.26,2-.18,4-.18,2.68-1.64,4.08-.21-.25,2.11-.25,4.15.06,2,.06,4.07.11,2,.11,4.06-.12,2-.12,4.07.24,2,.24,4.07-.4,2-.4,4.07.29,2,.29,4.07-.07,2-.07,4.07-.06,2-.06,4.07.14,2,.14,4.07.07,2,.07,4.07.22,2,.22,4.07-.26,2-.26,4.06.13,2,.13,4.07-.31,2-.31,4.07.26,2,.26,4.07,0,2,0,4.07-.22,2-.22,4.07-.2,2-.2,4.07.51,2,.51,4.07-.2,2-.2,4.07-.21,2-.21,4.07.29,2,.29,4.07-.34,2-.34,4.08a12.13,12.13,0,0,0,.53,4C280.2,166.36,280.94,167,279.51,168.44Z"/><path class="cls-5" d="M278.24,170.51a4.79,4.79,0,0,1-1.47-.29,4,4,0,0,0-1.34-.27c-1,0-1.55,0-2.07-.06s-.95-.06-1.9-.06a16.59,16.59,0,0,1-2.15-.12,14.36,14.36,0,0,0-1.82-.1h-4a12.59,12.59,0,0,0-1.83.11,19,19,0,0,1-2.14.11,19.65,19.65,0,0,1-2.11-.09c-.48,0-.93-.08-1.86-.08s-1.56,0-2.08-.07-.94-.06-1.89-.06a10.11,10.11,0,0,0-1.77.14,12.48,12.48,0,0,1-2.2.17,15.84,15.84,0,0,1-2.16-.13,12.37,12.37,0,0,0-1.81-.11,18.6,18.6,0,0,1-2.12-.11,18.07,18.07,0,0,0-1.85-.09,6.59,6.59,0,0,0-1.67.19,8.52,8.52,0,0,1-2.3.27,12.51,12.51,0,0,1-2.22-.18,10.28,10.28,0,0,0-3.5,0,12.51,12.51,0,0,1-2.22.18,9.22,9.22,0,0,1-2.29-.25,7.08,7.08,0,0,0-1.68-.18,4,4,0,0,0-1.54.26,6.81,6.81,0,0,1-2.43.4c-1,0-1.54,0-2.06-.05s-1,0-1.92,0a12.57,12.57,0,0,1-2.2-.17,10.11,10.11,0,0,0-1.77-.14c-1.05,0-1.58,0-2.09-.07s-.94-.07-1.88-.07a7.7,7.7,0,0,0-1.73.17,11.21,11.21,0,0,1-2.25.21c-1,0-1.56,0-2.08-.07s-.94-.06-1.89-.06a12,12,0,0,0-1.8.12,14,14,0,0,1-2.18.15,6.53,6.53,0,0,0-1.3.13,4.15,4.15,0,0,1-3.43-.71,4,4,0,0,1-2-2.86,6.47,6.47,0,0,0-.41-1.26c-.42-.92-.62-1.38-.83-1.85l-.81-1.81c-.42-.92-.62-1.38-.82-1.85s-.4-.91-.81-1.81a13.78,13.78,0,0,1-.78-2,14,14,0,0,0-.66-1.71c-.41-.89-.63-1.33-.84-1.77s-.46-.92-.88-1.85-.63-1.34-.85-1.78-.45-.91-.88-1.84a10.89,10.89,0,0,1-.75-2.15,7.7,7.7,0,0,0-.57-1.65,7.23,7.23,0,0,0-.88-1.51,11.15,11.15,0,0,1-1.14-2c-.43-.93-.63-1.4-.83-1.87s-.38-.91-.79-1.8a9.21,9.21,0,0,0-.87-1.56,13,13,0,0,1-1.09-2,7.84,7.84,0,0,1-.69-2.29,5.25,5.25,0,0,0-.48-1.58c-.43-.93-.62-1.41-.82-1.88s-.38-.91-.78-1.8a12.56,12.56,0,0,0-.87-1.6,14.14,14.14,0,0,1-1.05-1.93c-.39-.87-.62-1.29-.85-1.71s-.5-.93-.93-1.89l-.84-1.79c-.22-.46-.44-.92-.86-1.84s-.62-1.36-.83-1.81-.43-.91-.85-1.83l-.84-1.82c-.21-.45-.43-.91-.84-1.82s-.63-1.46-.81-1.95-.33-.89-.73-1.76a16.45,16.45,0,0,1-.78-2,14.88,14.88,0,0,0-.68-1.73c-.43-.94-.62-1.42-.82-1.9s-.36-.9-.76-1.78-.62-1.27-.86-1.7a19.76,19.76,0,0,1-.95-1.89,7.51,7.51,0,0,0-.88-1.51,10.34,10.34,0,0,1-1.15-2,14.65,14.65,0,0,1-.77-2,12.45,12.45,0,0,0-.65-1.71,12.47,12.47,0,0,1-.77-2.07,10.56,10.56,0,0,0-.64-1.7,15.74,15.74,0,0,0-.86-1.67,21.12,21.12,0,0,1-1-1.9c-.43-1-.62-1.46-.8-2s-.33-.89-.73-1.76a9.26,9.26,0,0,0-.87-1.54,10.82,10.82,0,0,1-1.12-2,14.66,14.66,0,0,1-.77-2.06,12.45,12.45,0,0,0-.65-1.71,3.18,3.18,0,0,0-.89-1,2.67,2.67,0,0,1-.73-3.85c1.33-2.09,3.07-1.22,3.81-.84a3,3,0,0,0,1.3.42,5.58,5.58,0,0,0,1.66-.21,8.69,8.69,0,0,1,2.33-.28c1,0,1.46,0,1.95,0s1,0,2,0,1.55,0,2.07.06,1,0,1.92,0,1.52,0,2,0l2,0a14.74,14.74,0,0,0,1.84-.1,14.59,14.59,0,0,1,2.15-.13,11.6,11.6,0,0,1,2.22.18,10.14,10.14,0,0,0,1.77.13,10.78,10.78,0,0,0,1.8-.12,14,14,0,0,1,2.19-.15,8.34,8.34,0,0,1,2.34.29,5.92,5.92,0,0,0,1.65.2c1,0,1.47,0,2,0s1,0,2,0,1.58,0,2.09.07.95.06,1.9.06a4.73,4.73,0,0,0,1.59-.23,7.49,7.49,0,0,1,2.4-.35,6.86,6.86,0,0,1,2.43.39,4.4,4.4,0,0,0,1.56.25,15.29,15.29,0,0,0,1.85-.09,16.87,16.87,0,0,1,2.14-.11,6.59,6.59,0,0,0,1.69-.19,9.84,9.84,0,0,1,2.3-.25c1.06,0,1.59,0,2.11.09s.94.07,1.88.07a10.59,10.59,0,0,1,2.28.23,6.86,6.86,0,0,0,1.71.18,7.21,7.21,0,0,0,1.7-.18,9.28,9.28,0,0,1,2.29-.25,10.37,10.37,0,0,1,2.26.22,7.86,7.86,0,0,0,1.74.16c1,0,1.57,0,2.09.07s1,.07,1.9.07a6.06,6.06,0,0,0,1.66-.2,8.66,8.66,0,0,1,2.32-.28,12.88,12.88,0,0,1,2.21.16,10.15,10.15,0,0,0,1.78.14c1,0,1.56,0,2.08,0s1,.06,1.91.06,1.47,0,1.95,0,1,0,2,0,1.56,0,2.08.06,1,.06,1.91.06a7.7,7.7,0,0,0,1.73-.17,9.8,9.8,0,0,1,2.27-.23,12.11,12.11,0,0,0,1.8-.12,12.6,12.6,0,0,1,2.19-.16h4a12.62,12.62,0,0,1,2.21.17,10.41,10.41,0,0,0,1.79.13,9.9,9.9,0,0,1,2.26.22,7.82,7.82,0,0,0,1.73.16,12,12,0,0,0,1.8-.12,12.78,12.78,0,0,1,2.19-.16,15.77,15.77,0,0,1,2.18.14,12.1,12.1,0,0,0,1.82.12c.94,0,1.39,0,1.88-.08a19.87,19.87,0,0,1,2.12-.09,3.17,3.17,0,0,0,1.31-.36A3.2,3.2,0,0,1,281,65.23a3.12,3.12,0,0,0-.37,1.34c0,1,0,1.49,0,2s0,1,0,2.08,0,1.47.05,2,.05,1.05.05,2.1,0,1.59-.06,2.12-.05,1-.05,2a13,13,0,0,0,.11,1.87,16.82,16.82,0,0,1,.13,2.2,10.93,10.93,0,0,1-.22,2.31,7.21,7.21,0,0,0-.18,1.76,11,11,0,0,0,.13,1.84,14.21,14.21,0,0,1,.16,2.23c0,1,0,1.56,0,2.08s0,1,0,2,0,1.56,0,2.08,0,1,0,2,0,1.44.06,1.94.07,1.06.07,2.13,0,1.49,0,2,0,1,0,2.09a15.51,15.51,0,0,0,.1,1.88,17.09,17.09,0,0,1,.12,2.19,16.31,16.31,0,0,1-.14,2.21,12.58,12.58,0,0,0-.12,1.85c0,1,0,1.46.06,2s.06,1.06.06,2.12a13.18,13.18,0,0,1-.17,2.25,10.59,10.59,0,0,0-.14,1.82,12.58,12.58,0,0,0,.12,1.85,14.84,14.84,0,0,1,.14,2.22c0,1,0,1.51,0,2s0,1,0,2a17,17,0,0,1-.12,2.18,15.57,15.57,0,0,0-.1,1.89,19.53,19.53,0,0,1-.11,2.17,16.29,16.29,0,0,0-.09,1.9,5.76,5.76,0,0,0,.21,1.69,8.54,8.54,0,0,1,.3,2.38,19.37,19.37,0,0,1-.11,2.17,16.29,16.29,0,0,0-.09,1.9,19.59,19.59,0,0,1-.11,2.18,15.71,15.71,0,0,0-.1,1.89,11,11,0,0,0,.13,1.84,14.32,14.32,0,0,1,.16,2.23,12,12,0,0,1-.19,2.28,9.23,9.23,0,0,0-.15,1.8,8.88,8.88,0,0,0,.31,2.9l.18.79c.1.47.22.85.32,1.19.39,1.3.8,2.65-.88,4.38h0A3.11,3.11,0,0,1,278.24,170.51Zm1.28-2.07Zm-12-1.67a16.59,16.59,0,0,1,2.15.12,12.32,12.32,0,0,0,1.82.11c1,0,1.55,0,2.07.06s1,.06,1.9.06a6.82,6.82,0,0,1,2.21.4,3.33,3.33,0,0,0,.59.16,1.06,1.06,0,0,0,.27-.23h0c.52-.53.52-.53.2-1.59-.12-.39-.25-.84-.37-1.37l-.18-.77a11.52,11.52,0,0,1-.39-3.55,12.07,12.07,0,0,1,.19-2.28,9.23,9.23,0,0,0,.15-1.8,11,11,0,0,0-.13-1.83,14.48,14.48,0,0,1-.16-2.24,17,17,0,0,1,.12-2.18A16,16,0,0,0,278,148a19.53,19.53,0,0,1,.11-2.17,16.29,16.29,0,0,0,.09-1.9,5.76,5.76,0,0,0-.21-1.69,8.54,8.54,0,0,1-.3-2.38,19.75,19.75,0,0,1,.11-2.18,15.71,15.71,0,0,0,.1-1.89,19.81,19.81,0,0,1,.11-2.19,15.38,15.38,0,0,0,.1-1.88c0-1,0-1.52,0-2s0-1,0-2.05a12.63,12.63,0,0,0-.12-1.86,14.68,14.68,0,0,1-.14-2.21,13.08,13.08,0,0,1,.17-2.25,9.66,9.66,0,0,0,.14-1.82c0-1,0-1.46-.06-1.95s-.07-1.06-.07-2.12a14.34,14.34,0,0,1,.15-2.21,12.91,12.91,0,0,0,.11-1.85,15.38,15.38,0,0,0-.1-1.88,17.21,17.21,0,0,1-.12-2.19c0-1,0-1.49,0-2s0-1,0-2.08,0-1.44-.06-1.94-.08-1.07-.08-2.13,0-1.56,0-2.08,0-1,0-2,0-1.56,0-2.08,0-1,0-2a11,11,0,0,0-.13-1.84,14.54,14.54,0,0,1-.15-2.23,11,11,0,0,1,.22-2.31,7.21,7.21,0,0,0,.18-1.76A12.91,12.91,0,0,0,278,81a16.82,16.82,0,0,1-.13-2.2c0-1,0-1.58.06-2.11s.06-1,.06-2,0-1.47-.05-2-.05-1-.05-2.1,0-1.5,0-2,0-1,0-2.08a5.6,5.6,0,0,1,.63-2.5,3.2,3.2,0,0,0,.19-.49l-.16-.17-.16-.15-.46.19a5.76,5.76,0,0,1-2.45.6c-.94,0-1.4,0-1.88.08a19.87,19.87,0,0,1-2.12.09,14.31,14.31,0,0,1-2.18-.14A12.43,12.43,0,0,0,267.4,64a12.11,12.11,0,0,0-1.8.12,12.6,12.6,0,0,1-2.19.16,10.52,10.52,0,0,1-2.26-.22,7.7,7.7,0,0,0-1.73-.17,13,13,0,0,1-2.21-.16,10.41,10.41,0,0,0-1.79-.13h-4a12,12,0,0,0-1.8.12,12.69,12.69,0,0,1-2.19.16,7.53,7.53,0,0,0-1.72.17,10.75,10.75,0,0,1-2.28.22c-1,0-1.55,0-2.07-.06s-1-.06-1.92-.06-1.46,0-1.95,0-1,0-2,0-1.56,0-2.07,0-1-.06-1.92-.06a14,14,0,0,1-2.2-.16,9.37,9.37,0,0,0-1.79-.14,6,6,0,0,0-1.66.2,8.66,8.66,0,0,1-2.32.28c-1.05,0-1.58,0-2.1-.07s-1-.06-1.89-.06a10.56,10.56,0,0,1-2.27-.22,7.69,7.69,0,0,0-1.73-.16,6.83,6.83,0,0,0-1.7.18,11.18,11.18,0,0,1-4.56,0,7.53,7.53,0,0,0-1.72-.17c-1.05,0-1.59-.05-2.11-.09s-.94-.07-1.88-.07a6.68,6.68,0,0,0-1.69.18,9.31,9.31,0,0,1-2.3.25,14.8,14.8,0,0,0-1.85.1,19,19,0,0,1-2.14.11,6.81,6.81,0,0,1-2.43-.4,4.4,4.4,0,0,0-1.56-.25,4.69,4.69,0,0,0-1.59.24,7.79,7.79,0,0,1-2.4.35c-1.05,0-1.58,0-2.09-.07s-1-.07-1.9-.07-1.47,0-2,0-1,0-2,0a8.74,8.74,0,0,1-2.34-.29,5.51,5.51,0,0,0-1.65-.21,10.55,10.55,0,0,0-1.8.13,14,14,0,0,1-2.19.15,12.62,12.62,0,0,1-2.21-.17,9.25,9.25,0,0,0-1.78-.14,14.68,14.68,0,0,0-1.83.1,16.65,16.65,0,0,1-2.16.12l-2,0c-.49,0-1,0-2,0s-1.55,0-2.06,0-1-.05-1.93-.05l-1.95,0c-.51,0-1,0-2,0a5.58,5.58,0,0,0-1.66.21,8.69,8.69,0,0,1-2.33.28,5.37,5.37,0,0,1-2.5-.69h0a5.93,5.93,0,0,1,1.59,2,14.23,14.23,0,0,1,.78,2.07,11,11,0,0,0,.64,1.71,8.68,8.68,0,0,0,.87,1.53,11.6,11.6,0,0,1,1.12,2c.44,1,.62,1.47.81,1.95s.33.9.72,1.76a17.93,17.93,0,0,0,.86,1.67,17.8,17.8,0,0,1,1,1.9,12.82,12.82,0,0,1,.77,2.08,10.54,10.54,0,0,0,.64,1.69,16.55,16.55,0,0,1,.78,2.06,11.76,11.76,0,0,0,.64,1.71,7.82,7.82,0,0,0,.88,1.51,10.44,10.44,0,0,1,1.14,2c.4.86.62,1.26.86,1.69s.52.93,1,1.89.62,1.42.81,1.9.36.9.77,1.78a17.61,17.61,0,0,1,.79,2,15.09,15.09,0,0,0,.67,1.73c.44,1,.63,1.46.81,1.94s.33.9.73,1.76.62,1.35.83,1.8.43.92.85,1.84.62,1.36.83,1.81.43.92.85,1.83.62,1.35.84,1.8.43.91.85,1.84.63,1.29.86,1.71.5.92.93,1.88a10.33,10.33,0,0,0,.87,1.6,14.67,14.67,0,0,1,1,1.94c.43.93.63,1.4.83,1.88s.37.9.78,1.79a8,8,0,0,1,.69,2.3,5.42,5.42,0,0,0,.48,1.58,9.64,9.64,0,0,0,.87,1.56,11.59,11.59,0,0,1,1.09,1.95c.42.93.62,1.4.82,1.87s.39.91.8,1.8a7.58,7.58,0,0,0,.87,1.51,10.44,10.44,0,0,1,1.14,2,10.86,10.86,0,0,1,.75,2.14,8.32,8.32,0,0,0,.58,1.66c.41.89.63,1.33.84,1.76s.46.93.88,1.86.63,1.33.85,1.77.45.92.88,1.85a15.05,15.05,0,0,1,.78,2,12.46,12.46,0,0,0,.66,1.71c.42.93.62,1.39.82,1.86s.4.91.81,1.81.62,1.38.83,1.84.4.91.81,1.81A10,10,0,0,1,192,166a1.29,1.29,0,0,0,.8,1.13,1.41,1.41,0,0,0,1.42.3,10.1,10.1,0,0,1,1.77-.16,10.55,10.55,0,0,0,1.8-.13A14,14,0,0,1,200,167c1,0,1.57,0,2.08.07s.95.06,1.89.06a7.82,7.82,0,0,0,1.73-.16,10.5,10.5,0,0,1,2.25-.21c1,0,1.57,0,2.08.07s1,.07,1.89.07a12.57,12.57,0,0,1,2.2.17,10.32,10.32,0,0,0,1.77.13c1,0,1.54,0,2,.05s1,0,1.93,0a4,4,0,0,0,1.54-.26,6.81,6.81,0,0,1,2.43-.4,9.94,9.94,0,0,1,2.29.24,6.5,6.5,0,0,0,1.68.19,8.8,8.8,0,0,0,1.75-.15,13.06,13.06,0,0,1,4.44,0,8.8,8.8,0,0,0,1.75.15,6.09,6.09,0,0,0,1.67-.2,9.2,9.2,0,0,1,2.3-.26,19.21,19.21,0,0,1,2.12.1,15.55,15.55,0,0,0,1.85.09,14.1,14.1,0,0,1,2.16.14,12.27,12.27,0,0,0,1.81.11,9,9,0,0,0,1.76-.14,12.62,12.62,0,0,1,2.21-.17c1,0,1.55,0,2.07.06s.95.06,1.9.06a19.14,19.14,0,0,1,2.11.1c.48,0,.93.08,1.86.08a14.68,14.68,0,0,0,1.83-.1,16.29,16.29,0,0,1,2.14-.12ZM144.87,63.51Z"/><path class="cls-4" d="M279.25,282.29c-1.38,1.43-1.83.18-3.82.18s-2,.09-4,.09-2-.25-4-.25-2,0-4,0-2,.09-4,.09-2,.27-4,.27-2-.49-4-.49-2,0-4,0-2,.43-4,.43-2,.09-4,.09-2-.19-4-.19h-4c-2,0-2,.14-4,.14s-2-.15-4-.15-2,.06-4,.06-2-.38-4-.38-2,.45-4,.45-2-.12-4-.12-2-.15-4-.15-2,0-4,0-2-.13-4-.13-2.4,1.39-4.07.3-.49-2.08-1.33-3.91-1.38-1.59-2.21-3.42-.44-2-1.28-3.84-1.05-1.73-1.89-3.56-.6-1.94-1.44-3.78-1-1.74-1.87-3.57-.75-1.87-1.59-3.7-.71-1.89-1.55-3.73-1.21-1.66-2.05-3.49-.33-2.07-1.17-3.9-1-1.74-1.86-3.58-.91-1.8-1.75-3.63-1.14-1.7-2-3.53-.65-1.93-1.49-3.76-2.66-2-1.57-3.73,2,0,4,.05,2-.05,4,0,2,.24,4,.26,2,.09,4,.12,2,.14,4,.17,2-.16,4-.13,2-.24,4-.21,2,0,4,.06,2,.12,4,.14,2-.06,4,0,2,.28,4,.3,2-.42,4-.39,2,.08,4,.1,2,.42,4,.45,2-.34,4-.31l4,0c2,0,2,.06,4,.08s2,.43,4,.45,2-.09,4-.07,2-.16,4-.14,2,.33,4,.36,2-.19,4-.16,2,.24,4,.26,2-.17,4-.14,2-.25,4-.23,2,.54,4,.57,2-.17,4-.14,2.49-1.38,3.89.07,0,1.92,0,4-.18,2.06-.18,4.12.52,2.06.52,4.12-.42,2.06-.42,4.12.05,2.06.05,4.13,0,2.06,0,4.12.32,2.07.32,4.13.16,2.06.16,4.13-.57,2.06-.57,4.12.4,2.06.4,4.13.09,2.06.09,4.12-.75,2.13-.35,4.16S280.68,280.8,279.25,282.29Z"/><path class="cls-5" d="M193.1,284.4a3.53,3.53,0,0,1-1.94-.64,3.28,3.28,0,0,1-1.63-3.2,2.75,2.75,0,0,0-.22-1.31,5,5,0,0,0-.88-1.37,7.38,7.38,0,0,1-1.33-2.05,9.08,9.08,0,0,1-.73-2.2,7.2,7.2,0,0,0-.55-1.64,14.62,14.62,0,0,0-.86-1.64,16.61,16.61,0,0,1-1-1.92,15.56,15.56,0,0,1-.78-2.06,13,13,0,0,0-.66-1.72,14.09,14.09,0,0,0-.86-1.65,16.87,16.87,0,0,1-1-1.92c-.44-.95-.63-1.43-.82-1.91s-.37-.91-.77-1.8-.63-1.46-.82-2-.34-.9-.73-1.77a7.15,7.15,0,0,0-.89-1.5,10,10,0,0,1-1.17-2,8.06,8.06,0,0,1-.7-2.32,4.9,4.9,0,0,0-.47-1.58,17.45,17.45,0,0,0-.86-1.66,18.72,18.72,0,0,1-1-1.92c-.41-.89-.63-1.33-.85-1.77s-.47-.92-.9-1.86a9.83,9.83,0,0,0-.87-1.57,11.25,11.25,0,0,1-1.1-2,19,19,0,0,1-.8-2,15.57,15.57,0,0,0-.68-1.75,4.12,4.12,0,0,0-.87-1.12,2.81,2.81,0,0,1-.61-3.95,2.75,2.75,0,0,1,3.86-1,3.63,3.63,0,0,0,1.36.37c1,0,1.47,0,2,0s1,0,2.06,0a17.64,17.64,0,0,1,2.16.14,13.91,13.91,0,0,0,1.85.12c1,0,1.54,0,2.05.06s1,0,2,.06,1.57,0,2.09.09,1,.07,1.92.08,1.4,0,1.88-.06a19,19,0,0,1,2.14-.07,13.3,13.3,0,0,0,1.83-.09,16.71,16.71,0,0,1,2.19-.12l2,0,2,0c1,0,1.56,0,2.08.08s1,.06,1.94.07,1.46,0,1.94,0,1,0,2.08,0a15,15,0,0,1,2.18.16,14.64,14.64,0,0,0,1.83.14,7.33,7.33,0,0,0,1.7-.17,8.33,8.33,0,0,1,2.32-.23c1,0,1.54,0,2,0s1,0,2,.05a10.14,10.14,0,0,1,2.28.26,7.91,7.91,0,0,0,1.73.19,7.66,7.66,0,0,0,1.76-.14,10.68,10.68,0,0,1,2.26-.17l4,0c1,0,1.53,0,2,0s1,0,2,0a10.68,10.68,0,0,1,2.28.26,7.4,7.4,0,0,0,1.73.19c1,0,1.44,0,1.92,0s1.05-.05,2.1,0,1.39,0,1.87-.07a18.51,18.51,0,0,1,2.15-.08,13,13,0,0,1,2.22.2,9.87,9.87,0,0,0,1.79.16,14.29,14.29,0,0,0,1.87-.08,18.6,18.6,0,0,1,2.16-.08,17.64,17.64,0,0,1,2.16.14,13.91,13.91,0,0,0,1.85.12,17.65,17.65,0,0,0,1.88-.06,16.38,16.38,0,0,1,2.14-.08,11.59,11.59,0,0,0,1.82-.1,15.42,15.42,0,0,1,2.21-.12,8,8,0,0,1,2.35.33,5.8,5.8,0,0,0,1.66.23,17,17,0,0,0,1.88-.07,19.1,19.1,0,0,1,2.15-.07,3.16,3.16,0,0,0,1.27-.27,3,3,0,0,1,3.62.77,3,3,0,0,1,.72,3.66,3.37,3.37,0,0,0-.29,1.32,20.39,20.39,0,0,1-.1,2.18c0,.5-.08,1-.08,1.94a5.85,5.85,0,0,0,.22,1.71,8.68,8.68,0,0,1,.3,2.41,10.35,10.35,0,0,1-.24,2.35,7.3,7.3,0,0,0-.18,1.77c0,1,0,1.52,0,2s0,1.05,0,2.1v4.12a10.91,10.91,0,0,0,.14,1.85,13.14,13.14,0,0,1,.18,2.28c0,1,0,1.45.07,1.95s.08,1.09.08,2.18a7.9,7.9,0,0,1-.33,2.43,5.38,5.38,0,0,0-.23,1.69,8.19,8.19,0,0,0,.17,1.79,10.46,10.46,0,0,1,.23,2.34c0,1,0,1.5,0,2s.05,1.06.05,2.12a7.74,7.74,0,0,1-.32,2.26,2.79,2.79,0,0,0-.06,1.63,8.55,8.55,0,0,0,.37,1.27,3.22,3.22,0,0,1-.79,3.94h0a3,3,0,0,1-3.58.86,3.92,3.92,0,0,0-1.26-.24c-1,0-1.44,0-1.92,0s-1,0-2.05,0a16,16,0,0,1-2.16-.13,12.27,12.27,0,0,0-1.81-.11h-4c-1,0-1.44,0-1.92.05s-1,0-2.05,0a10.78,10.78,0,0,0-1.8.12,14.15,14.15,0,0,1-2.17.14,8.6,8.6,0,0,1-2.32-.28,6,6,0,0,0-1.65-.2c-1,0-1.51,0-2,0s-1,0-2,0a7.11,7.11,0,0,0-1.69.18,9.76,9.76,0,0,1-2.28.24c-1,0-1.44,0-1.92.05s-1,.05-2.05.05a19.21,19.21,0,0,1-2.12-.1,15.42,15.42,0,0,0-1.85-.09h-4c-.94,0-1.42,0-1.89.06s-1,.07-2.08.07-1.57,0-2.09-.07-.94-.07-1.88-.07-1.46,0-1.95,0l-2,0a10.5,10.5,0,0,1-2.25-.21,8.49,8.49,0,0,0-1.73-.16,6.47,6.47,0,0,0-1.67.19,9.2,9.2,0,0,1-2.3.26c-1,0-1.56,0-2.08-.06s-.94-.06-1.89-.06-1.58,0-2.09-.08-1-.07-1.89-.07l-1.95,0c-.5,0-1,0-2,0s-1.57,0-2.08-.07-1-.06-1.9-.06a3,3,0,0,0-1.29.32A4.09,4.09,0,0,1,193.1,284.4ZM168,228.32l.31.32a6.44,6.44,0,0,1,1.42,1.94,15.74,15.74,0,0,1,.8,2,14.26,14.26,0,0,0,.69,1.74,9.21,9.21,0,0,0,.87,1.56,11.86,11.86,0,0,1,1.1,2c.41.89.63,1.33.85,1.77s.47.92.9,1.86a14.44,14.44,0,0,0,.86,1.66,18.72,18.72,0,0,1,1,1.92,7.66,7.66,0,0,1,.69,2.32A5.25,5.25,0,0,0,178,249a7.67,7.67,0,0,0,.88,1.5,9.11,9.11,0,0,1,1.17,2c.44,1,.63,1.47.82,1.95s.33.9.73,1.78.63,1.43.83,1.91.36.9.76,1.79a13.79,13.79,0,0,0,.87,1.65,18.72,18.72,0,0,1,1,1.92,15.46,15.46,0,0,1,.79,2.06,12.59,12.59,0,0,0,.65,1.72,14,14,0,0,0,.87,1.63,15.76,15.76,0,0,1,1,1.93,9.12,9.12,0,0,1,.73,2.21,7.2,7.2,0,0,0,.55,1.64,4.75,4.75,0,0,0,.88,1.36,7.38,7.38,0,0,1,1.33,2.05,5.57,5.57,0,0,1,.47,2.5c0,.59,0,.59.34.82s.36.23.92,0a5.68,5.68,0,0,1,2.38-.54c1,0,1.57,0,2.08.07s.95.06,1.9.06,1.46,0,2,0l2,0c1.05,0,1.58,0,2.09.07s1,.07,1.89.07,1.55,0,2.07.07.95.06,1.9.06a6.47,6.47,0,0,0,1.67-.19,8.74,8.74,0,0,1,2.3-.26,10.5,10.5,0,0,1,2.25.21,8.34,8.34,0,0,0,1.73.16c1,0,1.46,0,1.94,0s1,0,2,0,1.57,0,2.09.08.94.07,1.88.07,1.42,0,1.89-.06,1-.07,2.08-.07h4a19.21,19.21,0,0,1,2.12.1,15.55,15.55,0,0,0,1.85.09c1,0,1.44,0,1.92,0s1-.05,2-.05a7.18,7.18,0,0,0,1.69-.18,9.76,9.76,0,0,1,2.28-.24h2l2,0a8.18,8.18,0,0,1,2.32.29,5.92,5.92,0,0,0,1.65.2,12.11,12.11,0,0,0,1.8-.12,14.15,14.15,0,0,1,2.17-.14c1,0,1.44,0,1.92-.05s1,0,2,0h4a14.1,14.1,0,0,1,2.16.14,13.86,13.86,0,0,0,1.81.11c1,0,1.44,0,1.92,0s1-.05,2.05-.05a6.23,6.23,0,0,1,2.14.39l.4.12s.11-.09.26-.25h0a1.66,1.66,0,0,0,.36-.46c0-.06-.11-.34-.19-.55a11.24,11.24,0,0,1-.5-1.71,5.6,5.6,0,0,1,.11-2.9,4.85,4.85,0,0,0,.22-1.52c0-1,0-1.5,0-2s0-1.06,0-2.12a8,8,0,0,0-.18-1.79,10.46,10.46,0,0,1-.23-2.34,7.91,7.91,0,0,1,.34-2.44,5.31,5.31,0,0,0,.23-1.68c0-1,0-1.46-.07-2a20.86,20.86,0,0,1-.09-2.17,10,10,0,0,0-.14-1.85,13.41,13.41,0,0,1-.17-2.28v-4.12c0-1,0-1.52,0-2s0-1,0-2.1A10.32,10.32,0,0,1,278,243a7.29,7.29,0,0,0,.19-1.78,5.85,5.85,0,0,0-.22-1.71,8.71,8.71,0,0,1-.31-2.41,20.47,20.47,0,0,1,.1-2.19c0-.5.08-1,.08-1.93a6.1,6.1,0,0,1,.47-2.31.41.41,0,0,0-.1-.7,1.56,1.56,0,0,0-.23-.21l-.37.13a5.51,5.51,0,0,1-2.29.44c-.93,0-1.39,0-1.88.07a19,19,0,0,1-2.14.07,8.06,8.06,0,0,1-2.36-.33,5.75,5.75,0,0,0-1.66-.23,11.67,11.67,0,0,0-1.82.1,13.76,13.76,0,0,1-2.2.13,17.65,17.65,0,0,0-1.88.06,16.29,16.29,0,0,1-2.14.08,20,20,0,0,1-2.16-.14,13.82,13.82,0,0,0-1.86-.13,14.21,14.21,0,0,0-1.86.08,14.91,14.91,0,0,1-2.16.08,13.28,13.28,0,0,1-2.22-.19,9.9,9.9,0,0,0-1.8-.16,17.66,17.66,0,0,0-1.87.06,16.38,16.38,0,0,1-2.15.08c-1,0-1.44,0-1.93,0s-1,.06-2.08,0a10.17,10.17,0,0,1-2.29-.26,7.33,7.33,0,0,0-1.73-.19l-2,0-2-.05-4,0a9.32,9.32,0,0,0-1.76.14,11.33,11.33,0,0,1-2.26.17,10.1,10.1,0,0,1-2.27-.25,7.5,7.5,0,0,0-1.74-.19c-1,0-1.53,0-2-.05l-2-.06a7.5,7.5,0,0,0-1.71.17,8.58,8.58,0,0,1-2.32.23,15,15,0,0,1-2.18-.16,11.55,11.55,0,0,0-1.83-.14c-1,0-1.46,0-1.94,0s-1,0-2.08,0-1.55,0-2.07-.07-1-.06-1.94-.08l-2,0-2,0a14.68,14.68,0,0,0-1.83.1,14,14,0,0,1-2.19.11,17,17,0,0,0-1.88.07c-.53,0-1.07.08-2.14.06s-1.57-.05-2.09-.09-1-.07-1.92-.08-1.54,0-2-.06-1,0-2,0a17.64,17.64,0,0,1-2.16-.14,13.82,13.82,0,0,0-1.86-.13c-1,0-1.47,0-2,0s-1,0-2.05,0a6,6,0,0,1-2.42-.59l-.36-.14,0,0A.41.41,0,0,0,168,228.32Z"/><path class="cls-6" d="M183.76,282.58c-1.1,1.69-2.24-.35-4.26-.35s-2,0-4.05,0-2,.19-4,.19-2,.27-4.05.27-2-.61-4-.61-2,.23-4.05.23-2-.11-4.05-.11-2,.39-4,.39-2-.07-4.05-.07-2,.16-4,.16-2-.44-4.05-.44-2-.19-4.06-.19-2,.23-4.05.23-2,.28-4,.28-2-.12-4-.12-2,.11-4.05.11-2-.37-4-.37-2-.09-4-.09-2,.57-4,.57-2-.17-4-.17-2,.23-4.05.23-2-.14-4-.14-2-.5-4.06-.5-2,.29-4,.29-2-.21-4.06-.21-2,.54-4,.54-2-.53-4-.53-2,.4-4.06.4H66.05c-2,0-2.85,1.47-4.29,0s-.07-2.27-.07-4.3,0-2,0-4.07.57-2,.57-4.07-.53-2-.53-4.06,0-2,0-4.07.65-2,.65-4.07-.06-2-.06-4.07v-4.07c0-2-.51-2-.51-4.07s.37-2,.37-4.07,0-2,0-4.07-.36-2-.36-4.07,0-2,0-4.06.17-2,.17-4.07-.17-2-.17-4.07,0-2,0-4.07.53-2,.53-4.07-.57-2-.57-4.07.25-2,.25-4.07.09-2,.09-4.07.12-2,.12-4.07.11-2,.11-4.08-.66-2-.66-4.07.49-2,.49-4.07,0-2,0-4.08-1.6-2.6-.16-4.05,2,.28,4,.28,2-.45,4.06-.45h4.07c2,0,2,0,4.07,0s2,.25,4.06.25,2,0,4.07,0,2,.06,4.06.06,2,0,4.07,0,2-.19,4.07-.19,2,.08,4.07.08h4.07c2,0,2-.15,4.07-.15s2,.34,4.07.34,2,0,4.07,0,2-.4,4.07-.4,2,0,4.07,0,2,.43,4.07.43,2.46-1.57,4.18-.48.45,2.1,1.28,3.93.87,1.8,1.71,3.63,1.26,1.62,2.09,3.45.84,1.82,1.67,3.64.63,1.92,1.47,3.74.93,1.78,1.76,3.6.91,1.79,1.75,3.62.58,1.93,1.41,3.76.63,1.92,1.46,3.74,1,1.74,1.85,3.56.8,1.84,1.63,3.67l1.66,3.65c.83,1.82,1,1.74,1.85,3.57s.49,2,1.32,3.8,1.16,1.68,2,3.5.92,1.78,1.76,3.6.87,1.81,1.7,3.64.71,1.88,1.54,3.7.87,1.81,1.7,3.63,1,1.77,1.79,3.6.38,2,1.22,3.85,1.23,1.64,2.06,3.47.48,2,1.31,3.81,1.09,1.72,1.92,3.54.77,1.86,1.6,3.68.66,1.91,1.49,3.73,1.12,1.7,2,3.52.37,2.11,1.63,3.67C183.36,280.57,184.86,280.89,183.76,282.58Z"/><path class="cls-5" d="M63,284.71a3.11,3.11,0,0,1-2.26-1,3.35,3.35,0,0,1-.77-3.88,4.38,4.38,0,0,0,.29-1.42c0-1,0-1.5,0-2s0-1,0-2.08a7.81,7.81,0,0,1,.34-2.42,5.05,5.05,0,0,0,.24-1.65,5.6,5.6,0,0,0-.22-1.67,8,8,0,0,1-.32-2.39v-2c0-.51,0-1,0-2a7,7,0,0,1,.4-2.47,4.35,4.35,0,0,0,.26-1.6c0-1,0-1.5,0-2s0-1,0-2.08v-4.07a5.75,5.75,0,0,0-.22-1.69,8.48,8.48,0,0,1-.3-2.38,11,11,0,0,1,.21-2.29,8.21,8.21,0,0,0,.16-1.78v-4.07a9.19,9.19,0,0,0-.15-1.79,10.84,10.84,0,0,1-.21-2.28c0-1,0-1.53,0-2s0-1,0-2,.05-1.63.09-2.16a16.49,16.49,0,0,0,.09-1.91,16.69,16.69,0,0,0-.09-1.92c0-.53-.09-1.07-.09-2.15v-4.07a8.48,8.48,0,0,1,.31-2.39,5.31,5.31,0,0,0,.22-1.68,5.1,5.1,0,0,0-.23-1.65,7.81,7.81,0,0,1-.34-2.42,14.84,14.84,0,0,1,.14-2.2,14.85,14.85,0,0,0,.11-1.87c0-1,0-1.58,0-2.1s0-1,0-2,0-1.59.07-2.12.06-1,.06-1.95,0-1.59,0-2.12.06-1,.06-2a4.07,4.07,0,0,0-.27-1.59,7.29,7.29,0,0,1-.4-2.48,8.6,8.6,0,0,1,.29-2.37,6.15,6.15,0,0,0,.21-1.7v-2.05c0-.51,0-1,0-2a3,3,0,0,0-.35-1.31,3,3,0,0,1,.6-3.74,2.9,2.9,0,0,1,3.76-.52,2.73,2.73,0,0,0,1.29.38,7,7,0,0,0,1.73-.19,9.47,9.47,0,0,1,2.33-.25h4.07l2.06,0,2,0a14.84,14.84,0,0,1,2.2.14,13,13,0,0,0,1.86.11h4.07c1,0,1.56,0,2.08,0s1,0,2,0,1.51,0,2,0l2.06,0a18.75,18.75,0,0,0,1.9-.09,19.68,19.68,0,0,1,2.17-.11c1,0,1.57,0,2.09.05s1,0,2,0h4.07c1,0,1.43,0,1.93-.07s1.07-.08,2.14-.08a11.94,11.94,0,0,1,2.27.19,9.23,9.23,0,0,0,1.8.15h4.07a7.87,7.87,0,0,0,1.76-.17,10.14,10.14,0,0,1,2.31-.23l2,0h2a10.29,10.29,0,0,1,2.33.24,7,7,0,0,0,1.74.19,2.7,2.7,0,0,0,1.3-.37,3.28,3.28,0,0,1,3.64.12,3.25,3.25,0,0,1,1.62,3.22,2.72,2.72,0,0,0,.19,1.31c.41.89.62,1.33.84,1.78s.44.92.87,1.85a6.34,6.34,0,0,0,.87,1.45,8.7,8.7,0,0,1,1.22,2l1.67,3.65a16.94,16.94,0,0,1,.79,2,15.11,15.11,0,0,0,.67,1.72c.4.88.63,1.3.85,1.73s.49.92.92,1.87.63,1.32.85,1.76.47.92.89,1.86a13.8,13.8,0,0,1,.78,2.06,10.56,10.56,0,0,0,.64,1.7,16.91,16.91,0,0,1,.79,2,13.39,13.39,0,0,0,.67,1.72,17.45,17.45,0,0,0,.86,1.66,18.3,18.3,0,0,1,1,1.9c.42.93.63,1.4.83,1.86s.39.91.8,1.81l1.66,3.65a17.45,17.45,0,0,0,.86,1.66,18.73,18.73,0,0,1,1,1.91,10.68,10.68,0,0,1,.75,2.15,7.7,7.7,0,0,0,.57,1.65,9.26,9.26,0,0,0,.87,1.54,11,11,0,0,1,1.12,2c.4.88.62,1.31.84,1.74s.48.92.91,1.87.63,1.34.84,1.79.45.91.87,1.84.62,1.45.8,1.94.34.89.74,1.76.62,1.34.84,1.79.44.92.86,1.84.63,1.29.85,1.72.5.92.94,1.88a9,9,0,0,1,.71,2.25,5.77,5.77,0,0,0,.51,1.6,6.62,6.62,0,0,0,.87,1.47,9.37,9.37,0,0,1,1.19,2,10.33,10.33,0,0,1,.75,2.17,7.55,7.55,0,0,0,.56,1.65,10.62,10.62,0,0,0,.87,1.59,15.69,15.69,0,0,1,1.05,1.94c.43.94.62,1.41.82,1.89s.37.9.78,1.79a20,20,0,0,1,.79,2,16.75,16.75,0,0,0,.7,1.74,9,9,0,0,0,.87,1.57,12.27,12.27,0,0,1,1.08,2,10.34,10.34,0,0,1,.65,1.82,3.05,3.05,0,0,0,.79,1.54,10.41,10.41,0,0,0,1.07,1.11c.92.87,2.31,2.17.88,4.37s-3.22,1.15-4,.76a3.39,3.39,0,0,0-1.43-.47c-1,0-1.49,0-2,0s-1,0-2.06,0a16.29,16.29,0,0,0-1.9.09,19.72,19.72,0,0,1-2.15.1,11.08,11.08,0,0,0-1.84.12,14.68,14.68,0,0,1-2.21.14,7.54,7.54,0,0,1-2.43-.36,4.65,4.65,0,0,0-1.62-.25,14.66,14.66,0,0,0-1.86.11,16.76,16.76,0,0,1-2.19.13c-1.05,0-1.58,0-2.11-.06s-1-.06-1.94-.06a7.94,7.94,0,0,0-1.76.17,9.93,9.93,0,0,1-2.29.23c-1,0-1.56,0-2.08,0s-1,0-2,0-1.42,0-1.92.07-1.06.08-2.13.08a9.54,9.54,0,0,1-2.33-.25,6.8,6.8,0,0,0-1.72-.19,20,20,0,0,1-2.16-.1,18.92,18.92,0,0,0-1.9-.09,14.66,14.66,0,0,0-1.86.11,16.63,16.63,0,0,1-2.19.13,11,11,0,0,0-1.83.13,14.49,14.49,0,0,1-2.22.15c-1,0-1.58,0-2.11-.06s-1-.06-1.94-.06-1.46,0-2,0-1,.05-2.1.05a11,11,0,0,1-2.28-.2,8,8,0,0,0-1.77-.16c-1,0-1.56,0-2.09,0s-1,0-2,0a5,5,0,0,0-1.64.23,7.8,7.8,0,0,1-2.41.33c-1.07,0-1.61,0-2.14-.08s-1-.08-1.91-.08a13.14,13.14,0,0,0-1.87.11,16.9,16.9,0,0,1-2.18.12c-1.06,0-1.6,0-2.13-.07s-1-.07-1.92-.07a8.48,8.48,0,0,1-2.37-.29,5.76,5.76,0,0,0-1.69-.21,11,11,0,0,0-1.83.13,14.49,14.49,0,0,1-2.22.15,17.5,17.5,0,0,1-2.18-.11,15.38,15.38,0,0,0-1.88-.1,5.21,5.21,0,0,0-1.66.23,8,8,0,0,1-2.39.32,8.48,8.48,0,0,1-2.39-.31,5.47,5.47,0,0,0-1.66-.22,7.87,7.87,0,0,0-1.76.17,10.9,10.9,0,0,1-2.3.22H66.05a4.14,4.14,0,0,0-1.41.31A4.78,4.78,0,0,1,63,284.71Zm-.17-106.87a3.78,3.78,0,0,0,.16.41,5.7,5.7,0,0,1,.58,2.44v2.05c0,.51,0,1,0,2a8.48,8.48,0,0,1-.29,2.37,6.28,6.28,0,0,0-.2,1.7,4.31,4.31,0,0,0,.26,1.6,7,7,0,0,1,.4,2.47c0,1.06,0,1.59-.06,2.12s0,1,0,2,0,1.59-.06,2.12-.06,1-.06,1.95,0,1.57-.05,2.1,0,1,0,2a15.46,15.46,0,0,1-.13,2.21,13,13,0,0,0-.11,1.86,5.17,5.17,0,0,0,.23,1.66,7.68,7.68,0,0,1,.34,2.41,8.48,8.48,0,0,1-.31,2.39,5.36,5.36,0,0,0-.22,1.68v4.07c0,1,0,1.42.08,1.92s.09,1.07.09,2.15-.05,1.62-.09,2.15a16.69,16.69,0,0,0-.09,1.92v2c0,.51,0,1,0,2a8.25,8.25,0,0,0,.16,1.79,11.77,11.77,0,0,1,.2,2.28v4.07a11,11,0,0,1-.21,2.29,8.21,8.21,0,0,0-.16,1.78,5.76,5.76,0,0,0,.21,1.69,8.54,8.54,0,0,1,.3,2.38V254c0,1,0,1.49,0,2s0,1,0,2.08a7,7,0,0,1-.4,2.47,4.31,4.31,0,0,0-.26,1.6c0,1,0,1.52,0,2s0,1,0,2.05a5.29,5.29,0,0,0,.22,1.67,8.12,8.12,0,0,1,.31,2.39,7.71,7.71,0,0,1-.34,2.42,5.14,5.14,0,0,0-.23,1.65c0,1,0,1.5,0,2s0,1,0,2.07a7,7,0,0,1-.42,2.28c-.22.72-.22.72.07,1a.91.91,0,0,0,.28.22,4.86,4.86,0,0,0,.65-.19,6.77,6.77,0,0,1,2.36-.48h4.06a7.87,7.87,0,0,0,1.76-.17,10.11,10.11,0,0,1,2.3-.23,8,8,0,0,1,2.38.32,5.6,5.6,0,0,0,1.67.22,5.21,5.21,0,0,0,1.66-.23,8,8,0,0,1,2.39-.32,19.75,19.75,0,0,1,2.18.11,15.38,15.38,0,0,0,1.88.1,11,11,0,0,0,1.83-.13,14.49,14.49,0,0,1,2.22-.15,8.54,8.54,0,0,1,2.37.29,6.07,6.07,0,0,0,1.69.21c1.06,0,1.6,0,2.12.07s1,.07,1.93.07a14.66,14.66,0,0,0,1.86-.11,17.09,17.09,0,0,1,2.19-.12c1.07,0,1.61,0,2.14.08s1,.08,1.91.08a5.14,5.14,0,0,0,1.65-.23,7.67,7.67,0,0,1,2.4-.33c1,0,1.57,0,2.09,0s1,0,2,0A10.91,10.91,0,0,1,117,281a8,8,0,0,0,1.77.16c1,0,1.46,0,2-.05s1-.06,2.1-.06,1.58,0,2.11.07,1,.05,1.94.05a11.12,11.12,0,0,0,1.83-.12,14.49,14.49,0,0,1,2.22-.15,14.85,14.85,0,0,0,1.87-.11,16.45,16.45,0,0,1,2.18-.13,20,20,0,0,1,2.16.1,16.29,16.29,0,0,0,1.9.09,9.44,9.44,0,0,1,2.32.25,7,7,0,0,0,1.73.19c.95,0,1.42,0,1.91-.08s1.07-.08,2.14-.08,1.55,0,2.07,0,1,0,2,0a7.84,7.84,0,0,0,1.75-.17,10.9,10.9,0,0,1,2.3-.22c1.05,0,1.58,0,2.11.06s1,.05,1.94.05a15.12,15.12,0,0,0,1.86-.1,15,15,0,0,1,2.19-.13,7.54,7.54,0,0,1,2.43.36,4.65,4.65,0,0,0,1.62.25,12.31,12.31,0,0,0,1.84-.12,14.34,14.34,0,0,1,2.21-.15,16,16,0,0,0,1.89-.09c.53,0,1.08-.09,2.16-.09s1.49,0,2,0,1,0,2.07,0a5.88,5.88,0,0,1,2.68.76l.42.19.09-.15a7.36,7.36,0,0,0-.56-.56,12.34,12.34,0,0,1-1.33-1.4,5.85,5.85,0,0,1-1.33-2.59,8.44,8.44,0,0,0-.49-1.38,9.83,9.83,0,0,0-.87-1.57,13.44,13.44,0,0,1-1.08-1.95,19,19,0,0,1-.79-2,17.7,17.7,0,0,0-.7-1.74c-.43-.94-.62-1.41-.82-1.89s-.37-.9-.78-1.79a11.4,11.4,0,0,0-.87-1.6,13.8,13.8,0,0,1-1-1.94,10.15,10.15,0,0,1-.74-2.17,7.9,7.9,0,0,0-.56-1.64,6.72,6.72,0,0,0-.88-1.47,9.81,9.81,0,0,1-1.19-2,8.33,8.33,0,0,1-.71-2.25,6.07,6.07,0,0,0-.51-1.61c-.4-.87-.63-1.29-.85-1.71s-.5-.93-.93-1.88-.63-1.34-.84-1.79-.45-.91-.87-1.84-.63-1.46-.81-1.95-.34-.89-.73-1.76-.63-1.34-.84-1.78-.44-.92-.86-1.85-.63-1.3-.85-1.73-.48-.93-.91-1.87a8.68,8.68,0,0,0-.87-1.53,11.6,11.6,0,0,1-1.12-2,10.89,10.89,0,0,1-.75-2.15,7.57,7.57,0,0,0-.57-1.66,15,15,0,0,0-.86-1.65,18.73,18.73,0,0,1-1-1.91l-1.66-3.65c-.42-.93-.62-1.39-.83-1.86s-.39-.91-.8-1.81a13.41,13.41,0,0,0-.86-1.65,18.73,18.73,0,0,1-1-1.91,16.91,16.91,0,0,1-.79-2,15.11,15.11,0,0,0-.67-1.72,13.81,13.81,0,0,1-.78-2.07,11.75,11.75,0,0,0-.63-1.7c-.41-.88-.63-1.32-.85-1.75s-.47-.92-.9-1.86-.62-1.3-.84-1.73-.49-.92-.92-1.87a16.94,16.94,0,0,1-.79-2,16.44,16.44,0,0,0-.68-1.73l-1.67-3.64a5.89,5.89,0,0,0-.88-1.45,8.65,8.65,0,0,1-1.21-2c-.42-.9-.63-1.34-.85-1.79s-.44-.92-.86-1.83a5.52,5.52,0,0,1-.45-2.54c0-.58,0-.58-.3-.78s-.34-.22-.89,0a5.34,5.34,0,0,1-2.53.65,10.29,10.29,0,0,1-2.33-.24,7,7,0,0,0-1.74-.19H123a8,8,0,0,0-1.77.17,10.11,10.11,0,0,1-2.3.23h-4.07a11.85,11.85,0,0,1-2.27-.19,9.15,9.15,0,0,0-1.8-.16c-1,0-1.44,0-1.93.08s-1.07.07-2.14.07h-4.07c-1,0-1.57,0-2.09,0s-1,0-2,0a16.29,16.29,0,0,0-1.9.09,20,20,0,0,1-2.17.1c-1,0-1.5,0-2,0s-1,0-2.07,0-1.55,0-2.07,0-1,0-2,0H82.32a14.84,14.84,0,0,1-2.2-.14,13,13,0,0,0-1.86-.11l-2.06,0-2,0H70.12a7,7,0,0,0-1.73.19,9.35,9.35,0,0,1-2.33.26,5.56,5.56,0,0,1-2.52-.66l-.37-.17-.15.13A1.48,1.48,0,0,0,62.85,177.84Z"/><path class="cls-1" d="M279.36,221.71c-1.39,1.42-1.95.11-3.95.09s-2,.14-4,.11-2-.59-4-.61-2,.24-4,.22l-4,0c-2,0-2-.09-4-.12s-2,.25-4,.23-2-.34-4-.36-2,.27-4,.25-2-.25-4-.27-2,0-4,0-2,.15-4,.12-2-.41-4-.43-2,.18-4,.16-2,.11-4,.09-2-.12-4-.15-2-.08-4-.11-2,.17-4,.15-2,0-4-.06-2-.22-4-.24-2,.41-4,.38-2-.42-4-.44-2,.35-4,.33-2,0-4,0-2-.07-4-.09-2-.16-4-.18-2-.18-4-.2l-4-.05c-2,0-2.28,1-3.95-.07s-.9-1.74-1.73-3.57-.78-1.85-1.61-3.68-.89-1.8-1.73-3.62-.82-1.84-1.65-3.66-.52-2-1.36-3.8-1.08-1.72-1.91-3.55-.84-1.82-1.67-3.65-1-1.74-1.87-3.56-.93-1.79-1.77-3.61-.46-2-1.29-3.83-1.1-1.71-1.94-3.54-2.78-2.11-1.7-3.81,2.15.39,4.14.39,2-.46,4-.46,2,.33,4,.33,2-.06,4-.06h4c2,0,2-.19,4-.19s2,.05,4,.05,2,.26,4,.26,2-.32,4-.32,2,.21,4,.21,2-.46,4-.46,2,.1,4,.1,2,.41,4,.41,2,.13,4,.13,2-.17,4-.17,2,.07,4,.07,2-.47,4-.47,2,.38,4,.38,2,.06,4,.06,2-.3,4-.3,2-.22,4-.22,2,0,4,0,2,.39,4,.39,2,.22,4,.22,2-.62,4-.62,2,.66,4,.66,2-.54,4-.54,2,.33,4,.33,2-.1,4-.1,2-.16,4-.16,2,.45,4,.45,2-.6,4-.6,2,.45,4,.45,2.73-1.72,4.13-.29-.17,2.18-.17,4.23-.12,2-.12,4.1-.06,2.05-.06,4.1.11,2.05.11,4.11.32,2,.32,4.1.06,2,.06,4.1-.44,2.05-.44,4.1-.1,2.05-.1,4.1.47,2.06.47,4.11-.7,2.11-.28,4.12S280.8,220.24,279.36,221.71Z"/><path class="cls-5" d="M278.12,223.79a4.39,4.39,0,0,1-1.42-.3,4,4,0,0,0-1.3-.28c-.94,0-1.4,0-1.88.06s-1,.08-2.11.06A7.5,7.5,0,0,1,269,223a4.76,4.76,0,0,0-1.6-.24,10.34,10.34,0,0,0-1.81.1,16.53,16.53,0,0,1-2.18.12l-4-.05c-1,0-1.53,0-2,0s-1-.05-1.94-.06a11.12,11.12,0,0,0-1.8.11,15.09,15.09,0,0,1-2.19.12,12,12,0,0,1-2.22-.2,9.52,9.52,0,0,0-1.77-.16,9.81,9.81,0,0,0-1.78.11,13.43,13.43,0,0,1-2.21.14,15.23,15.23,0,0,1-2.15-.15,13.42,13.42,0,0,0-1.83-.13c-2,0-2,0-4,0a17.65,17.65,0,0,0-1.88.06c-.52,0-1.05.07-2.11.06a10.18,10.18,0,0,1-2.27-.25,7.77,7.77,0,0,0-1.71-.19,13.85,13.85,0,0,0-1.85.08,14.75,14.75,0,0,1-2.14.08c-1,0-1.43,0-1.91.05s-1,.06-2.08,0-1.55,0-2.06-.07-1-.06-1.93-.07-1.53,0-2-.06-1,0-1.94-.05-1.38,0-1.86.07a20.81,20.81,0,0,1-2.13.08l-2,0-2,0a17.9,17.9,0,0,1-2.14-.13,13.91,13.91,0,0,0-1.85-.12,7.23,7.23,0,0,0-1.69.17,8.61,8.61,0,0,1-2.3.22,10.1,10.1,0,0,1-2.27-.25,7.3,7.3,0,0,0-1.72-.19,8,8,0,0,0-1.73.14,10.22,10.22,0,0,1-2.26.19c-1,0-1.46,0-1.95,0s-1,0-2,0-1.53,0-2,0l-1.95,0c-1.05,0-1.58-.06-2.1-.1s-1-.08-1.89-.09-1.59,0-2.1-.1-.95-.08-1.89-.09l-2,0-2,0a4.84,4.84,0,0,0-1.3.21,3.58,3.58,0,0,1-3.41-.5,3.71,3.71,0,0,1-1.88-2.89,4.4,4.4,0,0,0-.36-1.28c-.43-.94-.63-1.41-.82-1.89s-.38-.9-.79-1.79-.63-1.33-.84-1.77-.46-.92-.89-1.85-.62-1.38-.83-1.84-.41-.92-.82-1.82a11.79,11.79,0,0,1-.76-2.13,8.49,8.49,0,0,0-.6-1.67,11.07,11.07,0,0,0-.87-1.61,16,16,0,0,1-1-1.94l-1.67-3.65a15.86,15.86,0,0,0-.86-1.65,15.73,15.73,0,0,1-1-1.92c-.4-.88-.62-1.3-.85-1.73s-.48-.93-.92-1.87a10.83,10.83,0,0,1-.74-2.19,6.73,6.73,0,0,0-.55-1.64,9.77,9.77,0,0,0-.87-1.59,13.64,13.64,0,0,1-1.07-2,4,4,0,0,0-.9-1.15c-.69-.69-2-2-.71-4s3.18-1.15,4-.74a3.22,3.22,0,0,0,1.38.48,6.09,6.09,0,0,0,1.67-.2,8.76,8.76,0,0,1,2.32-.27,11.61,11.61,0,0,1,2.23.19,9.84,9.84,0,0,0,1.75.14c1,0,1.47,0,2,0s1,0,2,0h4c.94,0,1.39,0,1.87-.08a19.21,19.21,0,0,1,2.12-.1l2,0c.49,0,1,0,2,0a14.31,14.31,0,0,1,2.18.14,11.84,11.84,0,0,0,1.81.12,10,10,0,0,0,1.77-.14,11.6,11.6,0,0,1,2.22-.18,18.88,18.88,0,0,1,2.14.11,15.06,15.06,0,0,0,1.85.1,6.11,6.11,0,0,0,1.68-.2,9.23,9.23,0,0,1,2.31-.26c1,0,1.55,0,2.07.05s1,0,1.92,0a9.76,9.76,0,0,1,2.28.24,7.5,7.5,0,0,0,1.71.17c1,0,1.58,0,2.09.07s.95.07,1.9.07a15.81,15.81,0,0,0,1.87-.09c.52,0,1.06-.09,2.12-.09s1.54,0,2.05,0,1,0,1.94,0a6.09,6.09,0,0,0,1.67-.2,8.66,8.66,0,0,1,2.32-.28,10.52,10.52,0,0,1,2.26.22,7.82,7.82,0,0,0,1.73.16c1,0,1.53,0,2,0s1,0,2,0a10.36,10.36,0,0,0,1.78-.13,12.62,12.62,0,0,1,2.21-.17,14.87,14.87,0,0,0,1.84-.1,16.75,16.75,0,0,1,2.14-.11h4a10.56,10.56,0,0,1,2.27.22,7.53,7.53,0,0,0,1.72.17,16.65,16.65,0,0,1,2.16.12,12.59,12.59,0,0,0,1.83.11,4.4,4.4,0,0,0,1.58-.25,7,7,0,0,1,2.41-.38,7.13,7.13,0,0,1,2.45.4,3.87,3.87,0,0,0,1.55.26,4.94,4.94,0,0,0,1.62-.22,8,8,0,0,1,2.37-.31,11.65,11.65,0,0,1,2.23.18,8.84,8.84,0,0,0,1.76.15c1,0,1.45,0,1.93-.06s1,0,2.07,0,1.4,0,1.88-.08,1.06-.08,2.11-.08a9.23,9.23,0,0,1,2.31.26,6.5,6.5,0,0,0,1.68.19,4.76,4.76,0,0,0,1.6-.24,7.39,7.39,0,0,1,2.4-.35,9.34,9.34,0,0,1,2.31.25,6.59,6.59,0,0,0,1.69.19,3.09,3.09,0,0,0,1.32-.38,3,3,0,0,1,3.83.53,3.11,3.11,0,0,1,.58,3.83,3.43,3.43,0,0,0-.35,1.38c0,1.07,0,1.6-.06,2.14s-.06,1-.06,2,0,1.57,0,2.09,0,1,0,2,0,1.49,0,2,.06,1.06.06,2.13a9.86,9.86,0,0,0,.14,1.83,13,13,0,0,1,.18,2.27c0,1,0,1.51,0,2s0,1.05,0,2.09a9.67,9.67,0,0,1-.25,2.35,7.07,7.07,0,0,0-.19,1.75c0,1.06,0,1.59-.05,2.12s0,1,0,2a6.89,6.89,0,0,0,.2,1.74,9,9,0,0,1,.28,2.37,7.93,7.93,0,0,1-.29,2.19,2.87,2.87,0,0,0,0,1.64,8.1,8.1,0,0,0,.41,1.33,3.21,3.21,0,0,1-.74,4A3.1,3.1,0,0,1,278.12,223.79Zm-3.06-3.41h.37a6.47,6.47,0,0,1,2.19.43,2.65,2.65,0,0,0,.48.14s.09-.07.25-.23h0a1.47,1.47,0,0,0,.34-.43c0-.06-.13-.36-.21-.59a10.06,10.06,0,0,1-.55-1.76A5.77,5.77,0,0,1,278,215a5.24,5.24,0,0,0,.2-1.51,6.31,6.31,0,0,0-.2-1.73,9.24,9.24,0,0,1-.27-2.38c0-1.06,0-1.59.05-2.12s.05-1,.05-2a9.74,9.74,0,0,1,.25-2.35,7,7,0,0,0,.19-1.75c0-1,0-1.51,0-2s0-1.05,0-2.09a9.7,9.7,0,0,0-.14-1.83,13.1,13.1,0,0,1-.18-2.27c0-1,0-1.49-.05-2s-.06-1.06-.06-2.13,0-1.57,0-2.09,0-1,0-2,0-1.6.07-2.13.06-1,.06-2a6.06,6.06,0,0,1,.56-2.45,3.58,3.58,0,0,0,.2-.56s0-.08-.19-.23a1,1,0,0,0-.15-.12,3.26,3.26,0,0,0-.47.2,5.68,5.68,0,0,1-2.5.63,9.34,9.34,0,0,1-2.31-.25,6.59,6.59,0,0,0-1.69-.19,4.45,4.45,0,0,0-1.59.24,7.51,7.51,0,0,1-2.41.35,8.74,8.74,0,0,1-2.3-.26,6.65,6.65,0,0,0-1.69-.19c-.94,0-1.4,0-1.88.08s-1.06.08-2.11.08-1.44,0-1.92.06-1,.05-2.08.05a12.51,12.51,0,0,1-2.22-.18,9,9,0,0,0-1.77-.15,5.35,5.35,0,0,0-1.63.22,7.86,7.86,0,0,1-2.36.32A6.94,6.94,0,0,1,245,178a4.06,4.06,0,0,0-1.55-.26,4.61,4.61,0,0,0-1.57.24,7,7,0,0,1-2.42.38,16.59,16.59,0,0,1-2.15-.12,14.74,14.74,0,0,0-1.84-.1,9.87,9.87,0,0,1-2.27-.23,7.53,7.53,0,0,0-1.72-.17h-4a14.74,14.74,0,0,0-1.84.1,16.41,16.41,0,0,1-2.14.12,10.41,10.41,0,0,0-1.79.13,12.48,12.48,0,0,1-2.2.17c-1,0-1.53,0-2,0s-1,0-2,0a10.52,10.52,0,0,1-2.26-.22,8.34,8.34,0,0,0-1.73-.16,6.09,6.09,0,0,0-1.67.2,8.76,8.76,0,0,1-2.32.27c-1,0-1.54,0-2.05,0s-1,0-1.94,0a15.81,15.81,0,0,0-1.87.09c-.52,0-1.06.09-2.12.09s-1.58,0-2.09-.07-1-.06-1.9-.06a9.76,9.76,0,0,1-2.28-.24,7.5,7.5,0,0,0-1.71-.17c-1,0-1.55,0-2.07-.06s-1,0-1.92,0a6.11,6.11,0,0,0-1.68.2,9.23,9.23,0,0,1-2.31.26,16.75,16.75,0,0,1-2.14-.11,15.06,15.06,0,0,0-1.85-.1,9,9,0,0,0-1.77.15,12.76,12.76,0,0,1-2.22.17,14.31,14.31,0,0,1-2.18-.14,11.84,11.84,0,0,0-1.81-.12l-2,0-2,0a15.62,15.62,0,0,0-1.86.09,19.29,19.29,0,0,1-2.13.1h-4c-1,0-1.46,0-2,0s-1,0-2,0a11.4,11.4,0,0,1-2.22-.19,8.92,8.92,0,0,0-1.76-.15,6.09,6.09,0,0,0-1.67.2,8.76,8.76,0,0,1-2.32.27,5.67,5.67,0,0,1-2.68-.79l-.31-.16c.09.11.25.27.37.39a6.62,6.62,0,0,1,1.47,2,11.62,11.62,0,0,0,.87,1.59,12.69,12.69,0,0,1,1.07,1.95,9.68,9.68,0,0,1,.74,2.19,6.73,6.73,0,0,0,.55,1.64c.4.87.63,1.3.85,1.73s.49.92.92,1.88a18.3,18.3,0,0,0,.86,1.65,16.2,16.2,0,0,1,1,1.91l1.67,3.66a12.09,12.09,0,0,0,.86,1.6,14.43,14.43,0,0,1,1.05,1.94,11.52,11.52,0,0,1,.76,2.13,8.72,8.72,0,0,0,.6,1.67c.42.92.62,1.38.83,1.84l.82,1.82c.41.89.63,1.33.84,1.77s.46.92.89,1.85.62,1.41.82,1.88.38.91.79,1.8a7.37,7.37,0,0,1,.58,2c.1.59.1.63.63,1s.51.32,1.08.15a5.81,5.81,0,0,1,2.11-.32l2,0,2,0a20.84,20.84,0,0,1,2.1.11c.49,0,.95.08,1.89.09s1.58,0,2.09.1,1,.07,1.9.08,1.51,0,2,.05,1,0,2,0,1.47,0,2,0,1,0,2,0a8.33,8.33,0,0,0,1.74-.14,9,9,0,0,1,2.26-.19,10.18,10.18,0,0,1,2.27.25,7.09,7.09,0,0,0,1.71.2,8.09,8.09,0,0,0,1.7-.17,9.06,9.06,0,0,1,2.3-.22,17.85,17.85,0,0,1,2.13.13,16.46,16.46,0,0,0,1.85.11l2,0,2,0a16.6,16.6,0,0,0,1.86-.07,18.7,18.7,0,0,1,2.13-.07c1,0,1.53,0,2,.05s1,.05,1.95.06,1.54,0,2.06.07,1,.06,1.92.07,1.42,0,1.9,0,1-.07,2.09,0a16.63,16.63,0,0,0,1.85-.07,15.85,15.85,0,0,1,2.14-.09,10.07,10.07,0,0,1,2.26.25,7.88,7.88,0,0,0,1.72.19c.94,0,1.4,0,1.88-.06s1.06-.08,2.11-.07c2,0,2,0,4,0a15.23,15.23,0,0,1,2.15.15,13.81,13.81,0,0,0,1.83.12,9.87,9.87,0,0,0,1.79-.11,13.34,13.34,0,0,1,2.21-.14,12.87,12.87,0,0,1,2.21.2,8.72,8.72,0,0,0,1.77.17,11,11,0,0,0,1.8-.11,13.83,13.83,0,0,1,2.19-.12c1,0,1.53,0,2,.05s1,.05,1.95.06l4,0a10.34,10.34,0,0,0,1.81-.1,15.13,15.13,0,0,1,2.18-.12,7.45,7.45,0,0,1,2.38.37,5,5,0,0,0,1.6.25c.94,0,1.4,0,1.88-.06S274.24,220.38,275.06,220.38Z"/><path class="cls-7" d="M135.72,198c6.52-6.05,17.79-12.38,17.18-22.81-.4-6.75-8-7.59-10.84-12.72-1.39-2.55-1.21-5.88-2.29-8.64a11.7,11.7,0,0,0-6.18-6.69c-1.16-.49-2.37-.86-3.48-1.45-2.61-1.39-2.79-4.1-4.16-6.51a10.36,10.36,0,0,0-5.18-4.83c-4.72-2-7.63.89-11.69,3-1.92,1-2.7-.09-2.84-2a10.45,10.45,0,0,0-1-4,17,17,0,0,0-1-1.75c-9.24-13.64-26.61,6.79-33.66,13.29-5.66,5.22-19.91,19.33-24.36,25.64l-.19.27c-10.36,15-21.73,27.74-33.54,41.54C8.93,213.59,4.68,217.74,0,222.54V302.7c15.43-14.11,39.62-34,51.81-41.58a55.83,55.83,0,0,1,12.75-5.87A176.9,176.9,0,0,1,103.9,248h.2c10.73-.68,23.43,3.25,33.07-3.33,8.38-5.72,10.61-19.91-1.34-22.47-5.86-1.26-20-.72-14.39-10.7C124.64,205.78,131.1,202.28,135.72,198Z"/><path d="M78.87,165.46a1.42,1.42,0,0,1-1-2.42c.56-.56,1.14-1,1.65-1.46a15,15,0,0,0,1.15-1c.56-.55,1.11-1,1.63-1.48s.77-.66,1.11-1a12.88,12.88,0,0,0,1.13-1.29,13.42,13.42,0,0,1,1.34-1.51c.38-.35.75-.71,1.12-1.07s1-1,1.57-1.47a14.8,14.8,0,0,1,1.52-1.15,15.12,15.12,0,0,0,1.44-1.09c.55-.48,1.07-1,1.59-1.51s.8-.8,1.22-1.19l1.15-1.06c.58-.52,1.15-1,1.71-1.59s.92-.86,1.39-1.28,1-.9,1.48-1.38a9.76,9.76,0,0,0,1.07-1.36,12.24,12.24,0,0,1,1.38-1.74,1.42,1.42,0,0,1,2,0,1.4,1.4,0,0,1,0,2,11.28,11.28,0,0,0-1.06,1.36,11.72,11.72,0,0,1-1.39,1.75c-.51.51-1,1-1.58,1.48s-.89.79-1.31,1.21c-.58.56-1.18,1.1-1.78,1.65l-1.13,1L95.11,151c-.54.54-1.1,1.1-1.7,1.63a20.68,20.68,0,0,1-1.7,1.29,12.31,12.31,0,0,0-1.25.93c-.52.46-1,.93-1.48,1.4l-1.18,1.12a11.67,11.67,0,0,0-1,1.19,14.5,14.5,0,0,1-1.38,1.57c-.37.36-.78.71-1.21,1.08s-1,.86-1.51,1.37-.88.79-1.33,1.16A17,17,0,0,0,79.87,165,1.39,1.39,0,0,1,78.87,165.46Z"/><path d="M92.41,175.18a1.41,1.41,0,0,1-1-2.45,16.67,16.67,0,0,0,1.17-1.28,16.76,16.76,0,0,1,1.54-1.64c.54-.49,1.12-.93,1.68-1.36s1-.74,1.42-1.14.86-.79,1.29-1.19,1.07-1,1.64-1.51A17.74,17.74,0,0,1,102,163.3a13.78,13.78,0,0,0,1.45-1,12.91,12.91,0,0,0,1.22-1.23,16.28,16.28,0,0,1,1.62-1.59c.61-.49,1.25-1,1.88-1.44.43-.32.87-.65,1.29-1s.88-.74,1.34-1.15a20.57,20.57,0,0,1,1.7-1.46,21.78,21.78,0,0,1,1.93-1.25c.49-.3,1-.59,1.44-.92s.93-.7,1.37-1.06,1.17-.95,1.82-1.38a14,14,0,0,1,2.14-1.09,12,12,0,0,0,1.48-.71,1.42,1.42,0,0,1,1.47,2.43,15.24,15.24,0,0,1-1.82.89,10.48,10.48,0,0,0-1.71.85,19.72,19.72,0,0,0-1.59,1.21c-.48.39-1,.8-1.52,1.18s-1.09.71-1.62,1a19.91,19.91,0,0,0-1.7,1.1,18.27,18.27,0,0,0-1.48,1.27c-.48.43-1,.88-1.51,1.3l-1.34,1c-.6.44-1.2.89-1.79,1.37a11.39,11.39,0,0,0-1.3,1.3,17.6,17.6,0,0,1-1.5,1.49,20,20,0,0,1-1.7,1.22,14.31,14.31,0,0,0-1.51,1.08c-.53.46-1,.94-1.54,1.42s-.9.86-1.36,1.27-1.07.87-1.59,1.27-1,.79-1.49,1.2a15.68,15.68,0,0,0-1.28,1.38,18,18,0,0,1-1.4,1.51A1.4,1.4,0,0,1,92.41,175.18Z"/><path d="M102.24,190.17a1.38,1.38,0,0,1-1.09-.52,1.41,1.41,0,0,1,.2-2c.6-.49,1.25-.93,1.88-1.35s1.06-.71,1.56-1.1A13.34,13.34,0,0,0,106.1,184a17,17,0,0,1,1.8-1.65,17.22,17.22,0,0,1,2-1.21,10.46,10.46,0,0,0,3-2.16,17.1,17.1,0,0,1,1.81-1.52,19.71,19.71,0,0,1,2-1.2c.57-.31,1.12-.6,1.61-.93a19,19,0,0,0,1.52-1.18,18.61,18.61,0,0,1,1.82-1.4c.74-.48,1.49-.92,2.22-1.35.47-.28.94-.55,1.39-.83l1.27-.8c.81-.51,1.58-1,2.33-1.42l.34-.2c1.22-.71,2.36-1.37,3.39-1.88a11.13,11.13,0,0,1,4.53-1.39h0a1.42,1.42,0,0,1,0,2.83,8.64,8.64,0,0,0-3.34,1.09c-.95.48-2.06,1.12-3.24,1.8l-.35.2c-.72.42-1.46.88-2.23,1.37l-1.29.81c-.47.29-1,.58-1.44.86-.7.41-1.41.83-2.12,1.29a19.16,19.16,0,0,0-1.55,1.2,20.76,20.76,0,0,1-1.75,1.36,18.5,18.5,0,0,1-1.86,1.07,19.23,19.23,0,0,0-1.75,1,13,13,0,0,0-1.5,1.27,18.75,18.75,0,0,1-1.69,1.44,17.93,17.93,0,0,1-1.94,1.15,12.32,12.32,0,0,0-1.66,1,13.15,13.15,0,0,0-1.48,1.36,16.16,16.16,0,0,1-1.59,1.48c-.58.45-1.16.84-1.72,1.21s-1.17.79-1.67,1.19A1.38,1.38,0,0,1,102.24,190.17Z"/><path class="cls-7" d="M311.66,171.63a8.49,8.49,0,0,1-.67-1.26h0c-3.58-9-10.9-20.29-14.15-24.61s-8.61-9.66-16.72-8.73a11.8,11.8,0,0,0-9.34,7.1,2.26,2.26,0,0,1-2.88,1.16c-11.57-5-16.9,2.7-18.63,6.18a2.17,2.17,0,0,1-2.25,1.25c-8.26-1.33-12.67,2.8-15,6.72a1.43,1.43,0,0,1-2.38.18l-14.1-19.44a12,12,0,0,0-16.47-3h0a11.83,11.83,0,0,0-3,16.39l19.69,27.94c-.6,4.92-17.3,16.32-10.48,28.51,10.81,17.42,16.18,23.41,50.79,35h0c16.51,13.43,33.88,24.06,54.8,41.83,8,6.8,18.69,17.3,29.08,27.92V214C330.84,201.21,321.22,187,311.66,171.63Z"/><path d="M232.17,208.54a1.41,1.41,0,0,1-1.26-.78,5.07,5.07,0,0,0-.37-.47,16.19,16.19,0,0,1-1.76-2.66,17.82,17.82,0,0,1-.72-1.65,18.65,18.65,0,0,0-.78-1.79,13.5,13.5,0,0,1-.75-1.89,10.52,10.52,0,0,0-.63-1.62c-.34-.65-.69-1.3-1-2l-.74-1.36c-.44-.83-.88-1.64-1.31-2.4l-.48-.89c-.66-1.2-1.28-2.25-1.85-3.21a1.41,1.41,0,1,1,2.43-1.45c.59,1,1.22,2.05,1.91,3.3l.48.88c.43.77.88,1.59,1.33,2.44.23.44.47.89.72,1.34.36.66.71,1.32,1.06,2a12.72,12.72,0,0,1,.81,2,10.39,10.39,0,0,0,.58,1.48c.36.71.65,1.42.9,2.05s.4,1,.6,1.41a13.69,13.69,0,0,0,1.47,2.19,5.71,5.71,0,0,1,.66.95,1.4,1.4,0,0,1-.62,1.9A1.32,1.32,0,0,1,232.17,208.54Z"/><path d="M221.35,202.62a1.39,1.39,0,0,1-1-.39,1.41,1.41,0,0,1-.06-2,26.84,26.84,0,0,0,2.1-2.65l.3-.43a19.91,19.91,0,0,0,1.56-2.39,1.42,1.42,0,1,1,2.51,1.32,22.48,22.48,0,0,1-1.77,2.73l-.3.42a27.61,27.61,0,0,1-2.34,2.94A1.41,1.41,0,0,1,221.35,202.62Z"/></g></svg>