<?xml version="1.0" encoding="UTF-8"?><svg id="c" xmlns="http://www.w3.org/2000/svg" viewBox="0 0 600 350"><defs><style>.d{stroke:#e2e2e2;stroke-miterlimit:10;stroke-width:4.25px;}.d,.e,.f,.g,.h{stroke-linecap:round;}.d,.e,.i{fill:#fff;}.e,.f{stroke-width:2.42px;}.e,.f,.g,.h{stroke:#000;stroke-linejoin:round;}.f,.g,.h{fill:none;}.g{stroke-width:1.87px;}.h{stroke-width:1.98px;}.j,.k,.l,.m,.n,.i,.o,.p{stroke-width:0px;}.k{fill:#f56977;}.l{fill:#f2f2f2;}.m{fill:#f8c341;}.n{fill:#27b5f7;}.o{fill:#e3e3e3;}.p{fill:#fae7e7;}</style></defs><path class="j" d="m77.5,279.06l-.93,4.45c-.12.78-.6,1.17-1.42,1.17h-1.11c-1.32,9.36-3.55,17.02-6.68,23,2.84,4.62,6.12,7.87,9.83,9.77.74.37.82.83.25,1.36l-4.51,4.08c-.58.54-1.2.58-1.85.12-2.72-1.57-5.46-4.39-8.22-8.47-3.5,4.08-7.5,7.23-12,9.46-.74.41-1.26.25-1.55-.5l-2.1-5.01c-.29-.74-.02-1.32.8-1.73,4.08-1.73,7.69-4.86,10.82-9.4-1.69-3.83-3.09-8-4.2-12.49l-.8,1.17c-1.36,2.06-2.84,2.31-4.45.74l-1.67-1.48c-2.31,2.68-5.15,5.36-8.53,8.04v1.73l9.83-.87c.82-.04,1.15.33.99,1.11l-.8,4.02c-.17.78-.66,1.22-1.48,1.3l-8.53.8v5.87c0,1.69-.21,2.97-.62,3.83-.37.87-1.07,1.55-2.1,2.04-1.53.7-3.94,1.03-7.23.99-1.15.04-1.79-.33-1.92-1.11l-.62-3.83c-.12-.78.21-1.17.99-1.17h3.59c.7-.04,1.05-.33,1.05-.87v-5.19l-10.51.99c-.83.04-1.22-.35-1.17-1.17l.37-4.14c.04-.82.47-1.28,1.3-1.36l10.02-.74v-3.52l5.13-4.33h-3.9c-3.26,2.72-6.1,4.74-8.53,6.06-.62.37-1.13.21-1.55-.49l-2.41-4.14c-.41-.7-.23-1.28.56-1.73.91-.45,2.14-1.22,3.71-2.29,0-2.06.99-3.09,2.97-3.09h1.11l3.4-3.15h-11.62c-.83,0-1.15-.39-.99-1.17l.8-3.96c.16-.78.66-1.17,1.48-1.17h6.86v-4.14h-5.81c-.83,0-1.15-.39-.99-1.17l.8-3.83c.16-.78.66-1.17,1.48-1.17h4.51v-4.39c0-.82.39-1.17,1.17-1.05l4.45.93c.78.12,1.17.6,1.17,1.42v3.09h3.03c1.98,0,2.97.99,2.97,2.97v1.36l3.4-7.3c.33-.74.87-.95,1.61-.62l4.08,2.1c.74.33.95.87.62,1.61-.99,2.76-2.76,6.16-5.32,10.2,2.31,0,3.46.99,3.46,2.97v1.92c2.72-5.61,4.64-12.08,5.75-19.42.16-.95.64-1.3,1.42-1.05l4.88,1.67c.78.25,1.09.78.93,1.61l-1.73,7.61h15.21c.82,0,1.17.39,1.05,1.17Zm-41.37-.62v4.14h2.16l2.78-4.14h-4.95Zm7.98,13.23l.93.74c.82.66,1.52.56,2.1-.31l2.1-3.22h-7.23l-2.66,3.15,4.76-.37Zm22.32-6.99h-5.44c-1.07,0-1.53.6-1.36,1.79.74,4.25,1.92,8.47,3.52,12.68,1.52-4.41,2.62-9.23,3.28-14.47Z"/><path class="j" d="m140.08,305.65l-.8,3.71c-.17.78-.66,1.17-1.48,1.17h-16.45c5.73,3.38,12.14,5.65,19.23,6.8.91.12,1.07.45.49.99l-4.39,4.27c-.58.54-1.28.68-2.1.43-6.68-1.61-12.96-4.82-18.86-9.65v9.77c0,.82-.39,1.17-1.17,1.05l-5.01-.93c-.78-.12-1.17-.6-1.17-1.42v-8.16c-5.69,4.7-12.28,7.93-19.79,9.71-.87.25-1.48.02-1.85-.68l-2.04-4.02c-.37-.7-.12-1.13.74-1.3,6.27-1.07,12.18-3.36,17.75-6.86h-17.68c-.82,0-1.15-.39-.99-1.17l.8-3.71c.16-.78.66-1.17,1.48-1.17h21.58v-3.03c0-.82.39-1.17,1.17-1.05l5.01.93c.78.12,1.17.6,1.17,1.42v1.73h23.37c.82,0,1.15.39.99,1.17Zm-44.21-11.93c-2.64-.45-3.09-1.55-1.36-3.28l3.28-3.28h-11.81c-.83,0-1.15-.39-.99-1.17l.74-3.4c.16-.78.68-1.17,1.55-1.17h15.46l3.21-4.58h-11.75c-1.07,0-1.61.72-1.61,2.16,0,.83-.39,1.17-1.17,1.05l-4.45-.93c-.78-.12-1.17-.6-1.17-1.42v-3.96c0-1.98.97-2.97,2.91-2.97h19.04l-.74-1.48c-.37-.74-.14-1.15.68-1.24l4.51-.68c.82-.08,1.44.25,1.85.99l1.36,2.41h22.07c.82,0,1.24.41,1.24,1.24l-.06,6.25c0,.83-.37,1.42-1.11,1.79l-4.76-.93c-.78-.12-1.17-.6-1.17-1.42,0-.58-.29-.87-.87-.87h-22.07l.99.31c2.35.7,2.7,2.12,1.05,4.27h27.7c.82,0,1.15.39.99,1.17l-.8,3.4c-.17.78-.66,1.17-1.48,1.17h-9.46l-5.44,6.12c6.64,1.61,11.79,3.07,15.46,4.39.66.21.66.54,0,.99l-4.88,3.34c-.66.45-1.3.56-1.92.31-2.89-1.24-8.18-2.8-15.89-4.7-6.06,2.56-14.65,4.25-25.78,5.07-1.07.08-1.67-.27-1.79-1.05l-.68-3.34c-.12-.78.29-1.2,1.24-1.24,5.61-.25,10.86-.89,15.77-1.92-3.42-.7-6.04-1.17-7.85-1.42Zm23.62-6.55h-14.04l-1.17,1.24c-.74.74-.66,1.2.25,1.36,2.18.37,5.34.95,9.46,1.73l5.5-4.33Z"/><path class="p" d="m413.08,269.73c-4.4,23.51-3.41,30.92,5.2,80.27h11.65c8.21-25.85,13.74-49.18,19.02-75.77,1.05-5.3,2.04-10.82.72-16.06-2.26-8.96-10.31-23.85-18.16-16.45-7.95,7.49-14.04,4.5-18.44,28.01Z"/><path class="m" d="m422.91,235.66c-2.17,3.01-4.42,6.24-4.62,9.95-.15,2.75.89,5.45,2.27,7.83,4.14,7.12,11.46,12.01,19.3,14.52.98.31,2.06.59,3.01.2.98-.4,1.56-1.4,2.06-2.33,4.51-8.57,7.83-17.7,11.13-26.81,2.18-6.01,21.54-65.32,6.71-53.6-8.09,6.39-17.96,20.9-21.85,25.91-6.2,7.97-12.1,16.16-18,24.34Z"/><path class="p" d="m556.68,118.16c2.46-36.67-19.42-50.84-41.96-51.68-23.44-.87-40.13,14.14-44.76,50.69-2.45,19.34,7.61,38.72,23.1,44.71.08.03.15.1.23.16,1.38,1.08,1.97,2.89,1.65,4.62l-2.4,12.79c.03,6.42,5.31,11.64,11.73,11.61l18.76-.09c5.54-.03,10-4.54,9.97-10.08l-2.6-14.5c-.29-1.6.22-3.26,1.41-4.36.17-.15.33-.28.47-.37,13.52-8.5,23.09-24.07,24.4-43.49Z"/><path class="m" d="m568.33,197.84c-12.5-20.87-30.6-23.32-36.59-24.01-25.54,8.08-34.59,2.41-38.07-.33,0,0-41.49,4.03-55.28,64.62-8.93,39.23-13.66,82.13-16.07,111.89h162.88c2.49-17.22,2.15-120.43-16.86-152.16Z"/><ellipse class="j" cx="486.84" cy="102.92" rx="4.83" ry="2.28" transform="translate(343.35 579.38) rotate(-85.18)"/><ellipse class="j" cx="511.96" cy="105.04" rx="4.83" ry="2.28" transform="translate(364.24 606.35) rotate(-85.18)"/><line class="f" x1="500.3" y1="94.83" x2="496.28" y2="115.57"/><path class="e" d="m494.97,128.17c.15-1.21.35-2.47,1.04-3.48.69-1.01,1.99-1.7,3.15-1.31,1.26.42,1.84,1.86,2.12,3.16.61,2.8,1.66,9.72-2.63,10.03-4.66.33-4.05-5.43-3.69-8.41Z"/><path class="o" d="m314.4,279.43v89.24c0,5.52,4.48,10,10,10h257.68c5.52,0,10-4.48,10-10v-88.98c0-5.52-4.47-9.99-9.99-10l-257.69-.27c-5.52,0-10,4.48-10,10Z"/><path class="p" d="m511.57,233.28c6.17-1.98,13.13,1.23,16.6,7.66.88,1.63,1.69,3.19,2.28,4.45,3.75,8.05.97,17.37-6.17,20.65-7.04,3.24-16.43,6.97-26.67,9.46l-18.42-34.57c7.76-.19,22.45-4.47,32.38-7.66Z"/><path class="p" d="m479.88,273.38c-7.43-7.65-14.41-29.12-17.3-39.17-3.59-12.48-5.36-23.22-9.82-35.41-2.44-6.68-4.88-19.81-5.05-22.24-.48-6.8,4.16-13.16,5.3-12.66-.62-3.83,4.31-9.59,6.9-8.55-1.67-5.41,7.08-11.16,9.11-6.77-2.57-5.07-4.22-9.47-3.34-11.98,1.28-3.69,7.26-4.44,9.79-1.35,4.26,5.2,8.43,14.63,10.56,19.25,2.8,6.07,6-.38,10.62-3.53,4.62-3.14,15.15-5.18,10.26,4.61s-8.03,11.74-12.71,22.58c-1.19,2.76-3.6,9.42-4.51,12.24-1.66,5.19-1.28,7.84-.15,13.04,3.13,14.51,4.36,29.48,12.5,42.18,3.3,5.14,6.83,10.28,4.98,16.68-1.37,4.75,5.53,5.02-3.57,10.36-9.1,5.34-19.13,5.27-23.56.72Z"/><path class="f" d="m497.03,172.22s4.83-9.01,10.5-18.06c2.2-3.51.16-5.77-3.57-5.77s-7.32,1.73-12.81,8.65c-2.06,2.59-4.58,4.1-6.49-.08-3.36-7.38-6.36-20.59-10.71-22.94"/><line class="f" x1="469.73" y1="150.12" x2="471.84" y2="154.92"/><rect class="d" x="38.98" y="25.86" width="362.8" height="214.92" rx="10" ry="10"/><path class="m" d="m84.34,198.25v.1s-.02.04-.02.04l-.1.38c-.19.36-.67.56-1.07.44l-13.94-7.64c-.2-.11-.4-.15-.6-.2h0c-.5-.25-1.04-.32-1.56-.25l.15-.49,8.49-15.72c-.11-.83-.74-1.54-1.65-1.56-1.69-.03-3.39-.44-4.96-1.3-7.45-4.05-8.24-15.67,1.53-20.83.5-.26,1.05-.43,1.6-.5,5.37-.65,9.35,1.49,11.54,4.74.49.73,1.38.91,2.11.61l8.43-15.62c.48-.88,1.54-1.23,2.41-.81l.56.18,14.06,7.66c1.11.38,2.38-.41,2.42-1.66.05-1.76.5-3.54,1.4-5.2,3.04-5.63,9.98-7.73,15.4-4.63,5.56,2.84,7.58,9.81,4.52,15.43-.91,1.66-2.15,3.01-3.6,4.01-1.03.71-1,2.21-.08,2.93l14.1,7.61.46.37c.83.5,1.11,1.58.63,2.46l-8.49,15.59c.16.78.79,1.42,1.67,1.43,3.92.06,7.88,2.23,10.27,7.09.25.49.4,1.06.45,1.61,1.01,11-9.16,16.67-16.62,12.64-1.58-.85-2.86-2.05-3.8-3.45-.51-.76-1.46-.9-2.21-.53l-8.54,15.69c-.11.2-.25.36-.41.5-.22-.47-.57-.88-1.05-1.17h0c-.15-.13-.29-.28-.49-.39l-13.97-7.59c-.31-.27-.41-.79-.21-1.13l.27-.3.04-.03.04-.03.04-.04c1.5-1.05,2.79-2.45,3.74-4.17h0s.03-.05.03-.05h0s.01-.03.01-.03c.59-1.09.94-2.21,1.19-3.31,1.14-5.15-1.03-10.61-5.82-13.22l-.26-.13-.21-.12c-4.78-2.61-10.56-1.48-14.27,2.27-.79.8-1.54,1.7-2.14,2.8v.02c-.96,1.75-1.44,3.62-1.52,5.47Z"/><path class="n" d="m223.73,124.97l6.91,15.47.14.6c.27.68.09,1.42-.37,1.96-.31.02-.63.09-.93.23l-17.73,7.86.62.89c0,.53.19,1.04.66,1.41l.26.24c.23.53.43,1.08.59,1.67l.04.15.09.13c.38.56.72,1.07.96,1.59,2.18,4.98.16,10.79-4.55,13.61-.4.24-.82.47-1.27.67-1.79.79-3.91,1.15-6.31.97-.52-.04-1.04-.07-1.59-.16-.46-.08-.93-.25-1.33-.5-2.62-1.57-4.26-3.52-5.19-5.61-.24-.56-.44-1.13-.59-1.7l-.03-.15-.09-.13c-.27-.42-.5-.74-.68-1.05,0-.32-.02-.65,0-.98.04-.69-.32-1.26-.84-1.59l-.19-.85-18,7.98c-.23.1-.44.24-.63.39-.72-.02-1.4-.42-1.71-1.11l-7.2-16.29-.08-.26-.04-.1c-.62-1.39.62-2.85,2.16-2.64,4.44.61,9.39-1.24,12.76-6.34.51-1.01.86-2.07,1.07-3.18.32-2.6-.03-4.91-.87-6.87-.89-1.93-2.37-3.74-4.51-5.24-.96-.58-1.99-1.04-3.08-1.34-6.04-.92-10.73,1.52-13.26,5.23-.88,1.28-2.79,1.21-3.4-.17l-.04-.09-.15-.24-7.26-16.26c-.43-.97.03-2.11,1.02-2.55l17.26-7.7c.44-.76.38-1.77-.38-2.37-1.4-1.11-2.55-2.56-3.32-4.3-3.63-8.2,3.2-18.45,14.73-16.47.58.1,1.16.31,1.66.61,4.92,2.93,6.88,7.28,6.61,11.42-.06.93.57,1.65,1.37,1.88l17.16-7.65c.96-.43,2.08-.04,2.53.87l.36.52,6.85,15.5"/><path class="k" d="m67.4,95.72l-13.03-9.43c-.76-.55-.93-1.58-.41-2.3l8.89-12.29.17-.17.05-.07c.75-1.05,2.36-.77,2.86.45,1.46,3.53,4.95,6.38,10.14,6.67.95-.06,1.9-.26,2.8-.58,2.05-.88,3.59-2.13,4.67-3.58,1.04-1.49,1.74-3.35,1.92-5.57.03-.95-.08-1.9-.33-2.84-1.92-4.84-5.72-7.24-9.54-7.51-1.32-.1-2.09-1.53-1.33-2.58l.05-.07.11-.21,8.85-12.31c.52-.73,1.56-.89,2.31-.34l13.06,9.39c.76,0,1.47-.49,1.59-1.3.22-1.51.79-2.98,1.74-4.29,4.48-6.18,14.94-5.56,18.43,3.76.18.48.27.99.26,1.49-.04,4.87-2.41,8.19-5.56,9.77-.71.36-.98,1.12-.8,1.81l12.98,9.33c.73.53.92,1.51.45,2.24l-.23.48-8.46,11.68c-.46.95.1,2.18,1.21,2.35,1.56.25,3.1.86,4.49,1.85,4.67,3.36,5.75,9.81,2.36,14.28-3.18,4.64-9.64,5.64-14.3,2.27-1.38-1-2.44-2.27-3.17-3.67-.52-1-1.85-1.15-2.61-.41l-8.42,11.72-.38.37c-.54.68-1.54.82-2.27.28l-12.96-9.38"/><path class="l" d="m312.38,161.7h66.83c2.76,0,5-2.24,5-5V47.66c0-2.76-2.24-5-5-5h-133.64c-2.76,0-5,2.24-5,5v109.05c0,2.76,2.24,5,5,5h66.81Z"/><rect class="k" x="338.47" y="50.09" width="37.43" height="40.79" transform="translate(714.37 140.97) rotate(180)"/><rect class="n" x="293.11" y="50.09" width="37.43" height="40.79" transform="translate(623.64 140.97) rotate(180)"/><rect class="m" x="247.74" y="50.09" width="37.43" height="40.79" transform="translate(532.91 140.97) rotate(180)"/><polyline class="f" points="374.39 147.64 371.12 147.51 367.86 147.44 364.6 147.63 361.33 147.3 358.07 147.54 354.81 147.75 351.54 147.41 348.28 147.35 345.01 147.27 341.74 147.29 338.47 147.41"/><polyline class="f" points="374.39 136.13 371.12 135.68 367.86 135.62 364.6 135.64 361.33 135.99 358.07 135.55 354.81 136.08 351.54 135.76 348.28 135.73 345.01 135.62 341.74 135.83 338.47 136.02"/><polyline class="f" points="374.39 123.54 371.12 123.42 367.86 123.35 364.6 123.54 361.33 123.2 358.07 123.44 354.81 123.65 351.54 123.31 348.28 123.25 345.01 123.17 341.74 123.19 338.47 123.31"/><polyline class="f" points="374.39 112.03 371.12 111.59 367.86 111.53 364.6 111.55 361.33 111.9 358.07 111.45 354.81 111.99 351.54 111.67 348.28 111.63 345.01 111.52 341.74 111.74 338.47 111.93"/><polyline class="f" points="374.39 100.4 371.12 99.95 367.86 99.89 364.6 99.91 361.33 100.26 358.07 99.82 354.81 100.35 351.54 100.03 348.28 100 345.01 99.89 341.74 100.1 338.47 100.29"/><polyline class="f" points="330.35 147.64 327.09 147.51 323.83 147.44 320.56 147.63 317.3 147.3 314.03 147.54 310.77 147.75 307.51 147.41 304.24 147.35 300.98 147.27 297.71 147.29 294.44 147.41"/><polyline class="f" points="330.35 136.13 327.09 135.68 323.83 135.62 320.56 135.64 317.3 135.99 314.03 135.55 310.77 136.08 307.51 135.76 304.24 135.73 300.98 135.62 297.71 135.83 294.44 136.02"/><polyline class="f" points="330.35 123.54 327.09 123.42 323.83 123.35 320.56 123.54 317.3 123.2 314.03 123.44 310.77 123.65 307.51 123.31 304.24 123.25 300.98 123.17 297.71 123.19 294.44 123.31"/><polyline class="f" points="330.35 112.03 327.09 111.59 323.83 111.53 320.56 111.55 317.3 111.9 314.03 111.45 310.77 111.99 307.51 111.67 304.24 111.63 300.98 111.52 297.71 111.74 294.44 111.93"/><polyline class="f" points="330.35 100.4 327.09 99.95 323.83 99.89 320.56 99.91 317.3 100.26 314.03 99.82 310.77 100.35 307.51 100.03 304.24 100 300.98 99.89 297.71 100.1 294.44 100.29"/><polyline class="f" points="286.31 147.64 283.05 147.51 279.79 147.44 276.53 147.63 273.26 147.3 270 147.54 266.74 147.75 263.47 147.41 260.21 147.35 256.94 147.27 253.67 147.29 250.4 147.41"/><polyline class="f" points="286.31 136.13 283.05 135.68 279.79 135.62 276.53 135.64 273.26 135.99 270 135.55 266.74 136.08 263.47 135.76 260.21 135.73 256.94 135.62 253.67 135.83 250.4 136.02"/><polyline class="f" points="286.31 123.54 283.05 123.42 279.79 123.35 276.53 123.54 273.26 123.2 270 123.44 266.74 123.65 263.47 123.31 260.21 123.25 256.94 123.17 253.67 123.19 250.4 123.31"/><polyline class="f" points="286.31 112.03 283.05 111.59 279.79 111.53 276.53 111.55 273.26 111.9 270 111.45 266.74 111.99 263.47 111.67 260.21 111.63 256.94 111.52 253.67 111.74 250.4 111.93"/><polyline class="f" points="286.31 100.4 283.05 99.95 279.79 99.89 276.53 99.91 273.26 100.26 270 99.82 266.74 100.35 263.47 100.03 260.21 100 256.94 99.89 253.67 100.1 250.4 100.29"/><path class="k" d="m368.66,282.58c0,2.35-1.86,4.25-4.15,4.25-2.73,0-5.22,2.01-5.49,4.79-.31,3.2,2.14,5.91,5.2,5.91h7.94c3.85.01,6.96-3.18,6.96-7.12v-29.58s-10.46-.01-10.46-.01v21.75Z"/><polygon class="k" points="380.22 206.3 374.49 200.61 369.19 194.58 363.32 189.16 357.52 183.65 352.16 177.69 346.5 172.04 340.64 166.59 335.24 160.67 329.44 155.52 326.38 163.36 323.39 171.48 320.01 179.45 316.92 187.53 314.01 195.69 311.01 203.81 307.59 211.76 304.4 219.81 301.66 228.03 298.58 236.13 295.14 244.07 292.01 252.15 289.12 260.22 296.97 260.12 304.91 259.83 312.85 259.64 320.78 259.12 328.72 258.87 336.67 258.76 344.61 258.45 352.55 258.13 360.42 257.92 367.08 262.59 373.78 267.32 380.03 272.69 386.66 277.53 393.32 282.24 396.59 274.39 399.3 266.29 402.57 258.41 405.34 250.33 408.65 242.46 411.79 234.52 414.55 226.43 417.71 218.5 420.96 210.53 412.78 209.6 404.63 209.08 396.54 207.94 388.45 206.88 380.22 206.3"/><path class="i" d="m361.18,221.03c-1.87,4.86-5.11,9.63-10.24,7.61-5.13-2.02-4.42-7.54-2.47-12.62,1.95-5.08,5.68-6.26,9.19-4.88,3.51,1.38,5.39,5.03,3.52,9.89Z"/><path class="j" d="m359.38,218.89c-1.24,3.22-3.39,6.39-6.79,5.04-3.4-1.34-2.93-5-1.64-8.37s3.77-4.15,6.09-3.23c2.33.92,3.57,3.33,2.33,6.56Z"/><path class="i" d="m393.82,233.9c-1.87,4.86-5.11,9.63-10.24,7.61-5.13-2.02-4.42-7.54-2.47-12.62,1.95-5.08,5.68-6.26,9.19-4.88,3.51,1.38,5.39,5.03,3.52,9.89Z"/><path class="j" d="m391.82,231.72c-1.24,3.22-3.39,6.39-6.79,5.04s-2.93-5-1.64-8.37c1.29-3.37,3.77-4.15,6.09-3.23,2.33.92,3.57,3.33,2.33,6.56Z"/><path class="g" d="m358.99,236.67h0c2.71,4.61,8.14,6.75,13.21,5.21h0"/><line class="g" x1="359.79" y1="234.58" x2="355.79" y2="238.42"/><line class="g" x1="373" y1="239.79" x2="373.55" y2="245.35"/><path class="k" d="m344.52,272.79c.01,2.34-1.84,4.23-4.13,4.22-2.74-.02-5.22,1.98-5.48,4.76-.29,3.2,2.18,5.91,5.24,5.93l7.95.05c3.85.02,6.96-3.15,6.94-7.08l-.17-29.53-10.47-.07.12,21.72Z"/><path class="m" d="m316.89,264.92l-5.52,2.03c-.52.19-1.1-.08-1.29-.6l-42.88-120.91c-.18-.52.08-1.08.6-1.27l2.9-1.07c.51-.19,1.09.07,1.28.58l45.5,119.95c.2.52-.07,1.1-.59,1.29Z"/><polyline class="h" points="439.95 74.79 441.14 75.01 442.33 75.25 443.51 75.55 444.73 75.62 445.92 75.9 447.12 76.07 448.27 76.54 449.51 76.53 450.69 76.81 451.89 77 453.06 77.34 454.25 77.6 455.44 77.81 456.63 78.07 457.83 78.28 459.03 78.5 460.2 78.84 461.42 78.93 462.61 79.22 463.81 79.45 464.99 79.79"/><polyline class="h" points="470.61 70.22 469.69 69.48 468.88 68.59 467.94 67.87 466.96 67.2 466.15 66.32 465.13 65.69 464.31 64.84 463.32 64.17 462.46 63.35 461.55 62.6 460.64 61.84 459.68 61.13 458.85 60.28 457.85 59.63 457.04 58.75 456.13 57.98 455.22 57.23 454.21 56.59 453.36 55.76 452.41 55.05 451.57 54.2 450.6 53.52 449.75 52.68 448.86 51.9 447.98 51.09 446.92 50.51 446.11 49.63 445.12 48.96 444.25 48.14 443.34 47.37 442.42 46.6"/><polyline class="h" points="478.51 59.41 477.85 58.39 477.34 57.29 476.97 56.12 476.31 55.1 475.79 54.01 475.3 52.91 474.74 51.83 474.21 50.75 473.64 49.68 472.95 48.68 472.54 47.54 471.82 46.55 471.44 45.39 470.8 44.36 470.16 43.33 469.57 42.26 468.98 41.21 468.48 40.1 467.94 39.02 467.44 37.91 467.02 36.77 466.25 35.79 465.82 34.64"/><polyline class="h" points="489.27 53.3 489.12 52.08 489.09 50.84 489.25 49.61 489.25 48.37 489.11 47.15 489.06 45.91 488.91 44.68 488.94 43.45 488.92 42.21 488.94 40.97 488.96 39.74 488.94 38.5 488.88 37.26 488.88 36.02"/><polyline class="h" points="291.24 307.11 291.44 305.92 291.67 304.72 291.95 303.54 292.01 302.32 292.26 301.13 292.42 299.92 292.87 298.77 292.85 297.53 293.11 296.34 293.29 295.14 293.61 293.97 293.86 292.78 294.05 291.58 294.29 290.39 294.49 289.19 294.69 287.99 295.01 286.81 295.08 285.58 295.36 284.39 295.57 283.19 295.9 282.01"/><polyline class="h" points="286.25 276.52 285.52 277.45 284.65 278.27 283.93 279.22 283.28 280.21 282.41 281.03 281.8 282.05 280.96 282.89 280.3 283.89 279.49 284.76 278.75 285.68 278 286.6 277.32 287.57 276.47 288.41 275.83 289.42 274.97 290.24 274.21 291.16 273.47 292.09 272.84 293.1 272.03 293.96 271.33 294.92 270.5 295.77 269.83 296.75 269 297.61 268.23 298.52 267.43 299.4 266.87 300.47 266 301.29 265.34 302.29 264.53 303.17 263.77 304.1 263.02 305.03"/><polyline class="h" points="275.33 268.76 274.32 269.44 273.23 269.96 272.07 270.35 271.06 271.02 269.97 271.56 268.88 272.06 267.81 272.63 266.73 273.18 265.67 273.77 264.68 274.47 263.55 274.9 262.57 275.63 261.41 276.02 260.39 276.68 259.37 277.34 258.31 277.93 257.27 278.54 256.17 279.06 255.09 279.61 253.99 280.13 252.85 280.57 251.88 281.34 250.74 281.79"/><polyline class="h" points="269.08 258.09 267.86 258.25 266.62 258.3 265.39 258.16 264.15 258.18 262.93 258.33 261.7 258.4 260.47 258.56 259.23 258.55 258 258.59 256.76 258.58 255.52 258.58 254.29 258.62 253.05 258.7 251.81 258.71"/></svg>