<svg xmlns="http://www.w3.org/2000/svg" viewBox="0 0 600 350"><defs><style>.cls-1{fill:#f2f2f2;}.cls-2{fill:#f5f5f5;}.cls-3{fill:#f56977;}.cls-4{fill:#f8c341;}.cls-5{fill:#27b5f7;}.cls-6{fill:#fff;}.cls-7{fill:#fae7e7;}.cls-8{fill:#e3e3e3;}.cls-9{fill:#c8c8c8;}</style></defs><g id="圖"><rect class="cls-1" x="376.47" y="25.02" width="188.79" height="80.07" rx="9.93"/><polyline class="cls-1" points="402.63 105.09 396 130.65 428.25 96.68"/><rect class="cls-2" x="22.5" y="28.53" width="112.38" height="62.58" rx="15.72" transform="translate(157.38 119.64) rotate(180)"/><polyline class="cls-2" points="107.8 91.11 114.67 117.57 81.27 82.4"/><circle class="cls-3" cx="49.26" cy="59.82" r="14.07"/><circle class="cls-4" cx="406.66" cy="65.05" r="14.07"/><rect class="cls-1" x="456.77" y="186.33" width="112.65" height="60.44" rx="9.93"/><polyline class="cls-1" points="482.93 246.77 476.29 272.33 508.55 238.36"/><circle class="cls-3" cx="545" cy="216.55" r="12.55"/><rect class="cls-1" x="52.96" y="220.55" width="90.02" height="52.54" rx="12.23" transform="translate(195.94 493.64) rotate(-180)"/><polyline class="cls-1" points="120.24 220.55 126.01 198.33 97.97 227.86"/><circle class="cls-5" cx="122.19" cy="246.82" r="11.41"/><path class="cls-3" d="M250,189.19a4.34,4.34,0,0,1-2.3,5.7,5.69,5.69,0,0,0-3.38,6.76,5.47,5.47,0,0,0,7.36,3.43l7.65-3.25a7.3,7.3,0,0,0,3.86-9.56l-11.8-27.81-10.06,4.27Z"/><path class="cls-3" d="M229.36,197.55a4.33,4.33,0,0,1-2.3,5.69,5.69,5.69,0,0,0-3.37,6.77,5.46,5.46,0,0,0,7.36,3.42l7.64-3.25a7.28,7.28,0,0,0,3.86-9.56l-11.79-27.81-10.07,4.28Z"/><polygon class="cls-3" points="213.45 118.28 205.06 118.25 196.76 117.69 188.46 117.97 180.15 118.13 171.85 117.66 163.55 117.63 155.24 117.88 146.94 117.46 138.88 117.88 142.16 125.83 145.72 133.94 148.86 142.21 152.29 150.37 155.93 158.44 159.46 166.55 162.56 174.84 165.9 183.04 169.7 191.03 173.16 199.18 176.24 207.49 179.64 215.66 183.22 223.66 189.07 217.9 194.86 211.95 200.71 206.06 206.32 199.94 212.14 194 218.05 188.17 223.82 182.2 229.58 176.22 235.37 170.36 243.73 168.96 252.16 167.57 260.71 166.98 269.16 165.71 277.56 164.33 274.42 156.24 270.68 148.34 267.52 140.21 263.84 132.29 260.71 124.14 257.42 116.06 253.72 108.15 250.44 100.06 247.2 91.88 240.37 97.12 233.84 102.64 226.94 107.66 220.06 112.74 213.45 118.28"/><path class="cls-6" d="M209.6,142.83c2.06,4.91,3,10.74-2.29,13s-8.73-2.32-10.88-7.45-.18-8.69,3.45-10.22S207.54,137.92,209.6,142.83Z"/><path d="M207.86,148c1.15,2.74,1.68,6-1.28,7.23s-4.85-1.29-6.05-4.15-.1-4.83,1.92-5.68S206.71,145.29,207.86,148Z"/><path class="cls-6" d="M243.42,128.62c2.06,4.9,3,10.74-2.29,13s-8.73-2.32-10.88-7.44-.18-8.69,3.45-10.22S241.36,123.71,243.42,128.62Z"/><path d="M228.38,158.62a28.84,28.84,0,0,1-6.18,1.81,1.3,1.3,0,0,1-1.49-1.06,1.28,1.28,0,0,1,1-1.48,25.94,25.94,0,0,0,10.74-4.51,1.29,1.29,0,0,1,1.51,2.08A28.81,28.81,0,0,1,228.38,158.62Z"/><path d="M241.81,133.46c1.15,2.73,1.68,6-1.28,7.23s-4.85-1.3-6.05-4.15-.1-4.83,1.92-5.68S240.66,130.73,241.81,133.46Z"/><path class="cls-7" d="M390.24,296.08c3.88-1.65-5.07-14.93-7.28-22.14l27.1-5s22.46,29.81,19.39,45.56c-2.25,11.59-5.11,24.47-33.13,20.7l-16.51-39.46C384.19,296.81,387.86,297.09,390.24,296.08Z"/><path class="cls-7" d="M226.65,295.88c-3.94-1.48,4.47-15.11,6.4-22.4l-27.29-4s-21.25,30.67-17.56,46.29c2.72,11.5,6.09,24.26,33.93,19.37l14.93-40.09C232.72,296.38,229.07,296.8,226.65,295.88Z"/><path class="cls-7" d="M347.22,123c0-33.7-17.43-45.68-38.94-45.68s-38.95,12-38.95,45.68c0,17.62,8.52,35.75,21,43.37l.21.14a4.26,4.26,0,0,1,1.49,4.19l-2.26,8.72A10.66,10.66,0,0,0,300.45,190h17.2a9.14,9.14,0,0,0,9.2-9.07l-2.31-10.29a4.25,4.25,0,0,1,1.31-3.93,3.5,3.5,0,0,1,.43-.34C338.73,158.7,347.22,140.59,347.22,123Z"/><path class="cls-5" d="M386.07,284.84l32.64-3.53a8.37,8.37,0,0,0,7.06-11.07l-13.14-37.71c-10-26.86-22.39-40.56-45.33-44.9l-37-8.88-.7-.17a92.54,92.54,0,0,1-42.73,0l-.69.17-37,8.88c-22.94,4.34-35.3,18-45.33,44.9l-13.15,37.71a8.38,8.38,0,0,0,7.07,11.07l32.64,3.53s-2.91,32.54.66,65.16H382.28C387.92,316.74,386.07,284.84,386.07,284.84Z"/><ellipse cx="294.47" cy="122.23" rx="2.39" ry="5.06"/><ellipse cx="320.85" cy="122.23" rx="2.39" ry="5.06"/><path d="M307.8,135.64a1.24,1.24,0,0,1-1.25-1.24V112.6a1.25,1.25,0,0,1,2.49,0v21.8A1.24,1.24,0,0,1,307.8,135.64Z"/><path d="M305,149.63a21.29,21.29,0,0,1-5.95-.8,1.24,1.24,0,1,1,.78-2.36h0c.53.17,13.17,4.11,19.9-8.23a1.25,1.25,0,1,1,2.19,1.19C317.32,147.91,310.11,149.63,305,149.63Z"/><path class="cls-7" d="M226.65,295.88c-9.24-2.29-4.52,39.31-4.52,39.31,2.16-.38,4.44-.84,6.88-1.41,34-7.92,55.75-6.48,55.75-6.48l-6-48.74S235.89,298.18,226.65,295.88Z"/><path class="cls-7" d="M390.24,296.08c9.85-2.92,6.08,39.09,6.08,39.09-2.17-.29-4.46-.66-6.93-1.13-34.3-6.56-56-4.26-56-4.26l4.08-48.94S380.4,299,390.24,296.08Z"/><path class="cls-8" d="M245,240.79H371.09a5.67,5.67,0,0,1,5.67,5.67v90.21a0,0,0,0,1,0,0H239.3a0,0,0,0,1,0,0V246.46A5.67,5.67,0,0,1,245,240.79Z"/><rect class="cls-6" x="286.2" y="280.25" width="43.65" height="16.96" rx="7.9"/><rect class="cls-9" x="239.3" y="336.67" width="137.46" height="13.33"/><polygon points="523.5 205.22 521.29 205.06 519.09 205 516.88 205.21 514.68 204.75 512.47 205.1 510.26 204.8 508.05 204.83 505.85 205.03 503.64 204.88 501.43 204.91 499.22 204.82 497.01 204.76 494.8 204.9 492.59 205.21 490.38 204.75 488.17 204.78 485.96 204.95 483.75 205.23 481.54 204.76 479.32 204.93 477.11 205.04 474.89 205.1 472.68 204.87 471.31 203.53 472.68 202.03 474.88 202.04 477.09 202.11 479.29 201.97 481.5 201.88 483.71 201.99 485.91 202.23 488.12 202.07 490.33 202.13 492.54 201.83 494.75 202.23 496.96 202.28 499.17 202.08 501.38 202.02 503.59 202.09 505.8 201.91 508.01 201.85 510.21 201.92 512.43 202.16 514.64 202.41 516.85 202.25 519.07 202.3 521.28 201.81 523.5 202.03 524.84 203.53 523.5 205.22"/><polygon points="523.5 217.37 521.29 217.27 519.09 217.83 516.88 217.79 514.68 217.37 512.47 217.71 510.26 217.81 508.05 217.31 505.85 217.36 503.64 217.78 501.43 217.39 499.22 217.7 497.01 217.85 494.8 217.35 492.59 217.59 490.38 217.28 488.17 217.57 485.96 217.72 483.75 217.65 481.54 217.49 479.32 217.74 477.11 217.51 474.89 217.79 472.68 217.84 471.54 216.13 472.68 214.57 474.88 214.91 477.09 214.6 479.29 214.87 481.5 214.81 483.71 214.66 485.91 214.79 488.12 214.57 490.33 214.48 492.54 214.79 494.75 214.73 496.96 214.47 499.17 214.83 501.38 214.44 503.59 214.92 505.8 214.67 508.01 214.69 510.21 214.53 512.43 214.52 514.64 214.61 516.85 214.94 519.07 214.72 521.28 214.91 523.5 214.86 525.02 216.13 523.5 217.37"/><polygon points="523.5 230.23 521.29 230.33 519.09 230.41 516.88 230.29 514.68 230.24 512.47 230.18 510.26 229.96 508.05 230.39 505.85 230.03 503.64 230.13 501.43 230 499.22 230.26 497.01 230 494.8 230.06 492.59 230.06 490.38 230.42 488.17 230.07 485.96 230.11 483.75 230.45 481.54 230.15 479.32 229.98 477.11 230.26 474.89 230.45 472.68 230.1 471.07 228.74 472.68 227.21 474.88 227.39 477.09 227.23 479.29 227.09 481.5 227.13 483.71 227.48 485.91 227.19 488.12 227.21 490.33 227.56 492.54 227.53 494.75 227.03 496.96 227.17 499.17 227.43 501.38 227.32 503.59 227.1 505.8 227.44 508.01 227.62 510.21 227.48 512.43 227.56 514.64 227.58 516.85 227.23 519.07 227.59 521.28 227.35 523.5 227.59 525.14 228.74 523.5 230.23"/><polygon points="117.29 48.08 114.48 48.22 111.68 48.48 108.88 48.1 106.07 48.38 103.27 48.19 100.46 48.05 97.65 48.12 94.85 48.47 92.04 48.3 89.23 48.27 86.43 48.32 83.62 48.29 80.81 48.35 78 47.98 75.19 48.01 74.05 46.93 75.19 45.5 77.99 45.84 80.79 45.72 83.6 45.89 86.4 45.81 89.21 45.49 92.01 45.39 94.82 45.84 97.63 45.56 100.43 45.42 103.24 45.43 106.05 45.83 108.85 45.83 111.66 45.66 114.47 45.49 117.29 45.55 118.55 46.93 117.29 48.08"/><polygon points="117.29 60.61 114.48 60.9 111.68 60.87 108.88 60.88 106.07 60.7 103.27 60.85 100.46 61.06 97.65 60.88 94.85 60.92 92.04 60.7 89.23 60.94 86.43 61.02 83.62 61.05 80.81 61.01 78 60.59 75.19 60.93 73.99 59.54 75.19 58.16 77.99 58.26 80.79 58.35 83.6 57.97 86.4 58.13 89.21 58.32 92.01 58.47 94.82 58.14 97.63 58.41 100.43 58.46 103.24 58.29 106.05 58.29 108.85 58.26 111.66 58.17 114.47 58.13 117.29 58.5 118.64 59.54 117.29 60.61"/><polygon points="117.29 73.67 114.48 73.42 111.68 73.45 108.88 73.38 106.07 73.67 103.27 73.68 100.46 73.67 97.65 73.35 94.85 73.46 92.04 73.56 89.23 73.55 86.43 73.31 83.62 73.64 80.81 73.54 78 73.61 75.19 73.62 73.93 72.14 75.19 70.65 77.99 71 80.79 70.65 83.6 70.83 86.4 70.82 89.21 70.9 92.01 70.91 94.82 71.04 97.63 71.01 100.43 70.88 103.24 71.04 106.05 71.09 108.85 71.04 111.66 70.85 114.47 70.58 117.29 71.08 118.68 72.14 117.29 73.67"/><polygon points="101.85 235.56 99.28 235.41 96.71 235.49 94.14 235.54 91.57 235.28 89 235.33 86.43 235.32 83.86 235.27 81.29 235.22 78.72 235.34 76.15 235.37 73.58 235.4 71 235.46 68.42 235.65 65.84 235.57 64.68 234.22 65.84 232.9 68.41 232.93 70.98 233.1 73.55 232.79 76.12 233.03 78.69 233.26 81.26 232.9 83.84 233.27 86.4 232.88 88.97 233 91.55 232.83 94.12 232.86 96.7 232.88 99.27 232.83 101.85 233.19 103.17 234.22 101.85 235.56"/><polygon points="101.85 247.98 99.28 247.88 96.71 247.82 94.14 248.2 91.57 247.79 89 247.79 86.43 248.1 83.86 248 81.29 247.87 78.72 247.8 76.15 247.89 73.58 247.93 71 248.1 68.42 248.24 65.84 247.9 64.84 246.82 65.84 245.79 68.41 245.57 70.98 245.54 73.55 245.66 76.12 245.84 78.69 245.51 81.26 245.73 83.84 245.87 86.4 245.5 88.97 245.79 91.55 245.74 94.12 245.63 96.7 245.5 99.27 245.84 101.85 245.69 103.23 246.82 101.85 247.98"/><polygon points="89.81 260.41 87.14 260.64 84.48 260.62 81.83 260.59 79.17 260.62 76.51 260.44 73.84 260.39 71.18 260.4 68.51 260.69 65.84 260.4 64.54 259.43 65.84 258.37 68.5 258.34 71.17 258.18 73.82 258.12 76.48 258.39 79.14 258.32 81.81 258.1 84.47 258.44 87.14 258.06 89.81 257.99 90.86 259.43 89.81 260.41"/><path d="M461.75,66.25l-.87,3.83a1.31,1.31,0,0,1-1.48,1.18h-7.67L451.24,88a3.91,3.91,0,0,1-1.86,2,7,7,0,0,1-4,.86c-2.39.13-3.87-.68-4.45-2.41-.74-2.27.12-3.4,2.6-3.4l.74.06a1,1,0,0,0,.68-.18,1,1,0,0,0,.19-.68v-13H435c-.82,0-1.15-.39-1-1.18l.8-3.83a1.35,1.35,0,0,1,1.48-1.17h8.85V60.32H434.6c-.82,0-1.15-.4-1-1.18l.81-3.71a1.35,1.35,0,0,1,1.48-1.17h3.53l-1.05-3.53c-.54-1.94.16-3.13,2.1-3.59l2.16-.55h-7.11c-.82,0-1.15-.39-1-1.18l.81-3.64a1.35,1.35,0,0,1,1.48-1.18h8l-1.42-3.77c-.29-.74,0-1.13.8-1.18l4.58-.24a1.54,1.54,0,0,1,1.66,1.11l1.74,4.08h8.53c.82,0,1.15.39,1,1.18l-.81,3.64a1.35,1.35,0,0,1-1.48,1.18H454.2l1.43.31q3.64.68,2.22,4.08l-1.36,3.28h5.2q1.23,0,1,1.17l-.81,3.71a1.36,1.36,0,0,1-1.48,1.18h-8.66v4.76h9Q461.93,65.08,461.75,66.25ZM437.32,74.6c.42-1.11,1-1.46,1.67-1l3,1.73a1.41,1.41,0,0,1,.5,2,20.69,20.69,0,0,1-4.39,7.48c-.46.53-.95.52-1.49-.06l-2.41-2.54a1.23,1.23,0,0,1-.06-1.79Q436,78.75,437.32,74.6Zm15.28-28h-9.09c1.07,2.14,1.56,3.48,1.48,4q.61,2.84-2.35,3.65h7.3ZM462,80a.93.93,0,0,1-.56,1.48l-3.28,1.24a1.2,1.2,0,0,1-1.67-.68l-3.15-6c-.37-.7-.17-1.15.62-1.36l3.09-.93a1.47,1.47,0,0,1,1.79.74Zm27.26-25.17c.83,0,1.18.39,1.05,1.18l-.92,4.45A1.28,1.28,0,0,1,488,61.61h-3.22V90.74c0,.82-.39,1.17-1.18,1.05l-4.82-.93a1.27,1.27,0,0,1-1.17-1.42V61.61l-6.06.44q0,20.52-5.69,28.63c-.29.53-.7.51-1.24-.07l-3.34-3.71A1.53,1.53,0,0,1,461,85c.37-.33.86-1.61,1.48-3.84q2.16-6.74,2.16-19.1V43.19c0-1.9,1.2-3.07,3.59-3.53a57.31,57.31,0,0,0,14.28-4.14,1.22,1.22,0,0,1,1.61.5L487.28,40c.5.62.42,1.05-.24,1.3a76.22,76.22,0,0,1-13.48,3.46q-2,.38-2,2v8.1Z"/><path d="M522.41,54.5a2.63,2.63,0,0,1-3,3H505.77V91c0,.83-.39,1.18-1.17,1.06l-4.82-.93a1.28,1.28,0,0,1-1.18-1.42V39.79a2.63,2.63,0,0,1,3-3h17.81a2.68,2.68,0,0,1,3,3Zm-6.93-11.19a1.43,1.43,0,0,0-1.61-1.61h-6.49a1.43,1.43,0,0,0-1.61,1.61v1.55h9.71Zm-9.71,9.28h8.1A1.43,1.43,0,0,0,515.48,51V49.56h-9.71Zm41.92-15.77a2.68,2.68,0,0,1,3,3l-.55,48.29a4.77,4.77,0,0,1-2,2.47,7.75,7.75,0,0,1-4.83,1.24c-2.51.12-3.93-.8-4.26-2.78.08-.46-.35-1.78-1.3-4l-2,.12v3.34q0,1.25-1.17,1.05l-4.27-.92a1.28,1.28,0,0,1-1.17-1.43V85.79q-6.93.55-19.11,1.48c-1.07.09-1.57-.29-1.49-1.11l.56-3.28a1.29,1.29,0,0,1,1.36-1.29L513,81.4V65.08h-2.35c-.83,0-1.14-.4-.93-1.18l.68-2.72A1.45,1.45,0,0,1,512,60h26.21q1.25,0,.93,1.17l-.68,2.72a1.46,1.46,0,0,1-1.55,1.18h-1.11V79.85l2.47-.18c2-.12,3,.82,3,2.84l-.18.75c-.21,1.07.27,1.6,1.42,1.6q1-.06,1-1.17V57.47h-14a2.62,2.62,0,0,1-3-3V39.79a2.62,2.62,0,0,1,3-3ZM529.15,65.08h-9.71v2.41h9.71Zm-9.71,6.49v2.6h9.71v-2.6Zm0,9.46,9.71-.68v-2.1h-9.71Zm24-37.72a1.43,1.43,0,0,0-1.61-1.61h-6.8a1.43,1.43,0,0,0-1.61,1.61v1.55h10Zm-10,7.67a1.43,1.43,0,0,0,1.61,1.61h8.41v-3h-10Z"/></g></svg>