<svg id="圖層_1" data-name="圖層 1" xmlns="http://www.w3.org/2000/svg" xmlns:xlink="http://www.w3.org/1999/xlink" viewBox="0 0 600 350"><defs><style>.cls-1,.cls-10,.cls-13,.cls-15,.cls-16,.cls-6,.cls-7,.cls-9{fill:none;}.cls-2{fill:#f8c341;}.cls-3{clip-path:url(#clip-path);}.cls-4{fill:#fae7e7;}.cls-5{fill:#f56977;}.cls-10,.cls-6,.cls-7,.cls-9{stroke:#000;}.cls-10,.cls-13,.cls-15,.cls-16,.cls-6,.cls-7,.cls-9{stroke-linecap:round;}.cls-16,.cls-6,.cls-7{stroke-miterlimit:10;}.cls-6{stroke-width:2.49px;}.cls-7{stroke-width:2.23px;}.cls-8{fill:#fff;}.cls-10,.cls-13,.cls-15,.cls-9{stroke-linejoin:round;}.cls-9{stroke-width:2.41px;}.cls-10{stroke-width:2.35px;}.cls-11{fill:#d3d4d4;}.cls-12{fill:#e6e6e7;}.cls-13,.cls-15,.cls-16{stroke:#fff;}.cls-13{stroke-width:0.97px;}.cls-14{fill:#27b5f7;}.cls-15{stroke-width:1.83px;}.cls-16{stroke-width:5.67px;}</style><clipPath id="clip-path"><rect class="cls-1" width="600" height="350"/></clipPath></defs><title>0501更新_讀報</title><polygon class="cls-2" points="307.8 17.06 305.31 17.54 302.83 17.47 300.36 17.99 297.84 17.28 295.36 17.51 292.92 18.25 290.45 18.5 287.98 18.73 285.5 18.87 282.95 18.5 280.55 19.36 278.02 19.22 275.58 19.71 273.14 20.22 270.76 21.03 268.31 21.44 265.8 21.62 263.5 22.73 261.03 23.04 258.59 23.56 256.26 24.47 253.94 25.37 251.46 25.75 248.98 26.19 246.59 26.9 244.59 28.64 242.2 29.33 239.99 30.48 237.33 30.62 235.18 31.91 232.93 32.99 230.69 34.09 228.46 35.23 226.38 36.62 224.34 38.05 222.5 39.77 220.5 41.24 218.48 42.69 216.94 44.68 214.89 46.11 212.87 47.62 211.69 49.89 209.71 51.49 208.89 53.93 207.22 55.8 206.47 58.19 205.32 60.37 204.43 62.68 204 65.11 203.44 67.53 203.11 70.01 203.19 72.52 204.08 74.9 204.31 77.39 205.55 79.58 206.09 82.03 207.29 84.2 208.09 86.64 209.66 88.61 211.68 90.19 212.83 92.48 214.69 94.16 216.5 95.87 218.23 97.7 220.38 99 222.26 100.66 224.68 101.53 226.71 102.97 228.88 104.16 231.05 105.36 233.24 106.52 235.54 107.47 237.41 109.32 239.74 110.23 242.06 111.14 244.42 111.95 246.72 112.91 249.12 113.58 251.52 114.26 253.76 115.44 256.15 116.15 258.75 116.08 261.14 116.79 263.49 117.64 265.96 117.98 268.44 118.3 270.87 119.81 272.84 121.71 273.64 124.32 273.06 126.89 272.44 129.41 272.21 132.06 271.26 134.47 270.13 136.83 270.94 139 272.72 140.26 275.04 139.81 276.73 137.91 279.04 136.74 280.95 135.1 282.61 133.14 284.66 131.67 286.45 129.87 288.33 128.17 290.87 127.27 292.71 125.34 294.99 124.05 297.72 124.04 300.09 122.98 302.65 122.64 305.23 122.53 307.8 122.51 310.29 122.75 312.78 123.01 315.26 122.57 317.76 122.79 320.2 121.94 322.73 122.47 325.18 121.93 327.67 121.83 330.11 121.19 332.55 120.75 335.06 120.81 337.56 120.68 339.98 120.05 342.42 119.57 344.83 118.95 347.4 119.11 349.8 118.43 352.28 118.1 354.56 116.92 357.09 116.78 359.51 116.18 361.78 115.05 364.23 114.54 366.5 113.5 368.69 112.23 371.15 111.74 373.63 111.25 375.76 109.89 377.88 108.55 380.17 107.59 382.38 106.47 384.67 105.5 386.96 104.49 389.03 103.1 390.96 101.51 393.19 100.38 394.95 98.59 396.99 97.18 399.24 95.98 401.09 94.29 402.27 91.97 404.03 90.23 405.54 88.27 406.89 86.2 408.06 84.03 409.11 81.82 410.63 79.78 411.4 77.4 411.65 74.92 411.76 72.45 412.6 70.01 412.16 67.53 411.48 65.13 411.46 62.59 410.7 60.2 409.82 57.85 408.3 55.83 406.69 53.92 405.61 51.67 403.85 49.91 402.55 47.76 400.63 46.17 399.15 44.11 396.86 42.97 395.4 40.81 393.38 39.33 390.95 38.49 388.89 37.11 387.04 35.36 384.85 34.17 382.58 33.13 380.45 31.83 378.22 30.71 375.95 29.68 373.33 29.52 371.08 28.46 368.8 27.49 366.54 26.44 364.03 26.1 361.72 25.18 359.38 24.37 356.89 24.06 354.64 22.82 352.24 22.19 349.74 21.97 347.36 21.2 344.87 20.95 342.5 20.12 339.96 20.22 337.5 19.88 335.06 19.36 332.58 19.21 330.12 18.88 327.66 18.52 325.2 18.05 322.74 17.62 320.24 17.72 317.77 17.26 315.26 17.58 312.77 17.66 310.29 17.63 307.8 17.06"/><g class="cls-3"><path class="cls-4" d="M535.89,121.85c.16-36-22.09-48.52-44.18-48-23,.58-38.36,16.27-40.66,52.29-1.21,19,9.81,37.38,25.31,42.29a1.05,1.05,0,0,1,.24.15,4.64,4.64,0,0,1,1.89,4.41l-1.56,12.65a11.46,11.46,0,0,0,12.17,10.63l18.33-1.24a9.8,9.8,0,0,0,9.13-10.46l-3.42-14a4.67,4.67,0,0,1,1.12-4.35,3.78,3.78,0,0,1,.43-.4c12.7-9.13,21.11-24.93,21.2-44"/><path class="cls-5" d="M548.26,196.34c-15.88-17.05-28.9-19.49-33.66-19.77A50.64,50.64,0,0,1,477.87,178C454.13,187.32,435,209.75,431,235.9a670.27,670.27,0,0,0-7.66,113.47H568.52c3.75-80.92,9.39-121.21-20.26-153"/><path d="M467.33,110.84c-.54,2.93-2.1,5.11-3.49,4.85s-2.08-2.84-1.53-5.77,2.1-5.11,3.48-4.85,2.08,2.84,1.54,5.77"/><path d="M495.05,115.94c-.54,2.94-2.11,5.11-3.49,4.85S489.48,118,490,115s2.1-5.11,3.49-4.85,2.07,2.84,1.54,5.77"/><line class="cls-6" x1="480.02" y1="102.84" x2="474.15" y2="125.74"/><path class="cls-7" d="M465.16,138.05s13.87,7.58,24.16-5.12"/><path class="cls-4" d="M551.68,296.3a2,2,0,0,1,1.43,1.89,66.37,66.37,0,0,1-3.17,23.51c-9,29.14-24.28,55.11-42.77,78.95-1,1.24-33.79-8.1-33.79-8.1-4,.14,35.05-54.72,44.6-80.64a56.64,56.64,0,0,0,3.75-18.71,1.93,1.93,0,0,1,2.07-1.9,198.47,198.47,0,0,1,27.88,5"/><path class="cls-6" d="M518.53,288.45a186.54,186.54,0,0,0,5.08-48.09"/><path d="M41.09,28.31q1.24,0,1,1.17l-.8,3.46a1.33,1.33,0,0,1-1.42,1.18H23.1c-.82,0-1.15-.39-1-1.18l.8-3.46a1.36,1.36,0,0,1,1.49-1.17h6.92l-4.26-6.43c-.46-.66-.29-1.06.49-1.18l4.64-1a1.77,1.77,0,0,1,1.85.8l2.23,3.1c1.4,2,.84,3.58-1.67,4.7Zm-.92,17.06c.82,0,1.15.39,1,1.18l-.81,3.15a1.35,1.35,0,0,1-1.48,1.17H25q-1.25,0-1-1.17l.8-3.15a1.35,1.35,0,0,1,1.48-1.18ZM37.75,53.9a2.63,2.63,0,0,1,3,3V69.55c0,2-1,3-3,3H27.24c-2,0-3-1-3-3V56.87a2.63,2.63,0,0,1,3-3Zm2.79-15.76-.81,3.21a1.35,1.35,0,0,1-1.48,1.18H25.7c-.83,0-1.16-.39-1-1.18l.8-3.21A1.36,1.36,0,0,1,27,37H39.55c.82,0,1.15.39,1,1.18M34.85,61.26a1.43,1.43,0,0,0-1.61-1.61H31.57A1.43,1.43,0,0,0,30,61.26v3.9a1.42,1.42,0,0,0,1.61,1.6h1.67a1.42,1.42,0,0,0,1.61-1.6Zm41.74,2.48a2.62,2.62,0,0,1-3,3h-5l9.83,4c.74.29.82.7.25,1.24l-3,2.66a1.54,1.54,0,0,1-1.86.31A65.6,65.6,0,0,0,67.56,72q-4.34-1.86-1.8-5.32H55.13l1,.68q3.15,1.92-.06,3.77l-3.28,1.92a31.91,31.91,0,0,1-6.37,2.41,1.43,1.43,0,0,1-1.79-.62l-1.92-2.72c-.45-.66-.27-1.11.56-1.36a29.09,29.09,0,0,0,9.21-4.08H49.19a2.62,2.62,0,0,1-3-3V51.12a2.62,2.62,0,0,1,3-3H73.62a2.63,2.63,0,0,1,3,3ZM57.23,27.5V25.4H45.17c-.82,0-1.13-.39-.92-1.18l.68-2.16a1.44,1.44,0,0,1,1.54-1.17H57.23V19.34c0-.82.39-1.17,1.18-1.05l4.82.93c.78.12,1.17.68,1.17,1.67H77.33c.82,0,1.13.39.92,1.17l-.68,2.16A1.44,1.44,0,0,1,76,25.4H64.4v2.1H75.66c.82,0,1.13.39.93,1.18l-.69,1.91a1.44,1.44,0,0,1-1.54,1.18H47.28c-.83,0-1.14-.39-.93-1.18L47,28.68a1.44,1.44,0,0,1,1.55-1.18ZM47.15,46.61c-2,0-3-1-3-3V36.53c0-2,1-3,3-3H75.29c2,0,3,1,3,3v7.11c0,2-1,3-3,3Zm4.39-9.46a1.41,1.41,0,0,0-1.6,1.6v2.66A1.41,1.41,0,0,0,51.54,43h2.72V37.15Zm2.79,14.77c-1.08,0-1.61.62-1.61,1.86H69.78c0-1.24-.53-1.86-1.6-1.86Zm-1.61,6.44H69.78V56.5H52.72Zm0,2.65v2H68.18c1.07,0,1.6-.66,1.6-2Zm5.93-18h4.64V37.15H58.65Zm11.94,0a1.41,1.41,0,0,0,1.6-1.61V38.75a1.41,1.41,0,0,0-1.6-1.6H67.81V43Z"/><path d="M103.23,29.67v4.26h8.66c.82,0,1.15.39,1,1.18l-.8,3.83a1.36,1.36,0,0,1-1.49,1.17h-3.52c2.47.62,3.15,2,2,4.21l-1.49,3h3q1.25,0,1,1.17l-.8,3.84a1.36,1.36,0,0,1-1.48,1.17h-6.13v5h8.66q1.23,0,1,1.17l-.8,3.77a1.36,1.36,0,0,1-1.49,1.18h-7.36v9.83q0,1.23-1.17,1l-4.45-.93a1.27,1.27,0,0,1-1.18-1.42V64.54H87c-.82,0-1.15-.39-1-1.18l.81-3.77a1.35,1.35,0,0,1,1.48-1.17h8.16v-5h-8q-1.24,0-1-1.17l.8-3.84a1.36,1.36,0,0,1,1.48-1.17h1.86L90.44,44c-.66-1.9.16-3.19,2.47-3.9H87q-1.23,0-1-1.17l.81-3.83a1.35,1.35,0,0,1,1.48-1.18h8.1V29.67H88.7c-.82,0-1.15-.4-1-1.18l.81-3.71A1.35,1.35,0,0,1,90,23.61h6.43V19.52c0-.82.39-1.17,1.18-1.05l4.45.93a1.27,1.27,0,0,1,1.17,1.42v2.79h7.24q1.23,0,1,1.17l-.81,3.71a1.36,1.36,0,0,1-1.48,1.18ZM94.64,47.29h6.86l3-7.18H95l1.36,3.47q1,2.78-1.73,3.71m41.49-5.69a3.83,3.83,0,0,1,2.22.68L140.58,44a1.78,1.78,0,0,1,.74,2A52.69,52.69,0,0,1,135.39,63a25.56,25.56,0,0,0,7.35,6.06c.75.37.81.83.19,1.36l-4.08,3.53a1.44,1.44,0,0,1-1.92.12,23.94,23.94,0,0,1-5.5-5.07,21.44,21.44,0,0,1-4.76,5.07q-2.3,1.92-4.21-.25l-1-1.17v1.85q0,1.24-1.17,1.05L116,74.62a1.28,1.28,0,0,1-1.17-1.43V23.67a2.62,2.62,0,0,1,3-3h19.67a2.57,2.57,0,0,1,2.9,2.91v8.71a8.69,8.69,0,0,1-.68,3.84,4.56,4.56,0,0,1-2.41,2.1q-2.48,1.05-8.41,1.05-1.79,0-2-1.17l-.68-3.9q-.18-1.17,1-1.11h5.13c.83,0,1.24-.35,1.24-.93V28.74a1.42,1.42,0,0,0-1.61-1.61h-8.84a1.43,1.43,0,0,0-1.61,1.61V41.91Zm-14.66,8.9V67.88c0,1.07.38,1.3,1.12.68a26,26,0,0,0,4.64-5.32,61.06,61.06,0,0,1-5.76-12.74m12.12-1c.33-1.15,0-1.73-1.11-1.73h-4.27c-1.07,0-1.42.54-1.05,1.61a41.45,41.45,0,0,0,3.71,7.6,36.5,36.5,0,0,0,2.72-7.48"/><path class="cls-5" d="M327.89,301.66a5.77,5.77,0,0,1-5.9,5.67,7.54,7.54,0,0,0-7.79,6.36,7.34,7.34,0,0,0,6.91,8.38l10.94.36a9.69,9.69,0,0,0,9.9-9.51l1.31-40.75-14.4-.48Z"/><polygon class="cls-5" points="327.36 195.74 317.95 189.79 309.01 183.27 299.48 177.73 290.04 172.05 281.03 165.64 271.72 159.73 262.21 154.15 253.17 147.8 243.83 142.6 242.05 154.06 240.47 165.89 238.3 177.63 236.56 189.43 235.09 201.28 233.48 213.1 231.26 224.83 229.38 236.61 228.15 248.5 226.43 260.3 224.18 272.03 222.38 283.83 220.9 295.56 231.44 293.07 242.03 290.31 252.66 287.67 263.19 284.6 273.8 281.89 284.45 279.36 295.05 276.57 305.64 273.76 316.17 271.12 326.52 275.42 336.96 279.78 346.97 285.13 357.34 289.65 367.72 293.99 369.76 282.46 371 270.75 373.04 259.16 374.35 247.46 376.44 235.88 378.29 224.26 379.57 212.55 381.46 200.93 383.44 189.23 372.16 190.43 361.03 192.17 349.81 193.06 338.6 194.05 327.36 195.74"/><path class="cls-8" d="M306.14,221.25c-1.06,7.1-4,14.49-11.5,13.3s-8.21-8.83-7.1-16.24,5.77-10.13,10.9-9.31,8.76,5.15,7.7,12.25"/><path d="M300.91,223.13c-.7,4.7-2.65,9.61-7.63,8.82s-5.44-5.86-4.7-10.77,3.82-6.72,7.23-6.18,5.8,3.42,5.1,8.13"/><path class="cls-8" d="M353.92,228.8c-1.05,7.1-4,14.49-11.5,13.31s-8.21-8.83-7.1-16.25,5.77-10.12,10.91-9.31,8.75,5.15,7.69,12.25"/><path d="M348.41,230.69c-.7,4.71-2.65,9.61-7.63,8.82s-5.44-5.85-4.71-10.77,3.83-6.71,7.23-6.17,5.81,3.41,5.11,8.12"/><path class="cls-5" d="M283.49,291.45a5.7,5.7,0,0,1-7.23,3.75,7.37,7.37,0,1,0-4.91,13.89l10.39,3.49a9.57,9.57,0,0,0,12.13-6.28l12.51-38.73L292.7,263Z"/><polygon class="cls-8" points="317.38 240.98 314.12 240.07 312.67 242.51 311.74 249.63 313.08 255.23 316.13 256.74 320.2 256.59 323.28 253.28 324.79 246.63 325.25 243 317.38 240.98"/><path class="cls-9" d="M313.64,239.84s-6.32,14.59,1.78,16.63c9.11,2.29,9.83-13.48,9.83-13.48s-9-.87-14.36-4.77"/><polyline class="cls-10" points="377.29 139.52 376.94 140.86 376.56 142.2 376.12 143.53 375.95 144.93 375.54 146.26 375.25 147.62 374.61 148.89 374.53 150.32 374.11 151.65 373.8 153.01 373.32 154.32 372.91 155.66 372.58 157.01 372.19 158.35 371.85 159.7 371.51 161.05 371.02 162.37 370.83 163.76 370.39 165.09 370.04 166.45 369.54 167.76 369.35 169.16"/><polyline class="cls-10" points="380.15 175.7 381.09 174.64 382.19 173.73 383.1 172.65 383.96 171.51 385.05 170.59 385.85 169.41 386.92 168.47 387.77 167.33 388.79 166.34 389.74 165.29 390.69 164.25 391.58 163.14 392.65 162.2 393.48 161.03 394.57 160.11 395.53 159.07 396.48 158.02 397.31 156.85 398.34 155.88 399.24 154.78 400.29 153.83 401.16 152.7 402.2 151.74 403.18 150.71 404.19 149.71 404.95 148.47 406.04 147.54 406.89 146.4 407.91 145.41 408.88 144.37 409.85 143.31 410.76 142.21"/><polyline class="cls-10" points="392.43 184.97 393.64 184.22 394.94 183.63 396.33 183.22 397.54 182.46 398.84 181.87 400.15 181.31 401.43 180.67 402.71 180.06 403.98 179.41 405.18 178.62 406.54 178.15 407.72 177.31 409.1 176.89 410.33 176.15 411.55 175.41 412.81 174.74 414.06 174.06 415.38 173.5 416.67 172.88 417.98 172.31 419.34 171.83 420.5 170.95 421.85 170.46 423.19 169.92"/><polyline class="cls-10" points="398.81 197.65 400.19 197.47 401.57 197.44 402.96 197.62 404.34 197.61 405.72 197.44 407.09 197.38 408.47 197.2 409.85 197.23 411.23 197.2 412.62 197.22 414 197.24 415.38 197.22 416.77 197.14 418.16 197.14 419.54 196.88"/><polygon class="cls-11" points="242.53 295.99 203.94 337.23 168.36 233.98 206.96 192.74 242.53 295.99"/><polygon class="cls-12" points="287.4 329.59 203.94 337.23 168.36 233.98 251.83 226.34 287.4 329.59"/><polygon class="cls-2" points="210.67 259.98 209.18 260.14 207.64 260.31 206.1 260.52 204.54 260.58 203 260.74 201.47 260.98 199.92 261.13 198.38 261.29 196.83 261.39 195.28 261.55 193.72 261.63 192.19 261.89 190.63 261.98 189.08 262.15 187.56 262.25 187.07 260.88 186.54 259.48 186.1 258.06 185.61 256.65 185.11 255.24 184.56 253.85 184.15 252.41 183.68 251 183.16 249.6 182.6 248.21 182.24 246.75 181.77 245.33 181.14 243.97 180.75 242.52 180.15 241.14 179.81 239.74 181.28 239.51 182.83 239.38 184.37 239.19 185.93 239.13 187.46 238.9 189.01 238.78 190.56 238.67 192.1 238.5 193.64 238.3 195.18 238.1 196.73 237.97 198.29 237.91 199.84 237.73 201.38 237.55 202.91 237.47 203.41 238.83 203.84 240.26 204.35 241.67 204.85 243.08 205.42 244.46 205.87 245.88 206.36 247.29 206.88 248.69 207.34 250.11 207.76 251.55 208.27 252.95 208.74 254.37 209.25 255.78 209.76 257.19 210.28 258.59 210.67 259.98"/><polygon class="cls-13" points="210.67 259.98 209.18 260.14 207.64 260.31 206.1 260.52 204.54 260.58 203 260.74 201.47 260.98 199.92 261.13 198.38 261.29 196.83 261.39 195.28 261.55 193.72 261.63 192.19 261.89 190.63 261.98 189.08 262.15 187.56 262.25 187.07 260.88 186.54 259.48 186.1 258.06 185.61 256.65 185.11 255.24 184.56 253.85 184.15 252.41 183.68 251 183.16 249.6 182.6 248.21 182.24 246.75 181.77 245.33 181.14 243.97 180.75 242.52 180.15 241.14 179.81 239.74 181.28 239.51 182.83 239.38 184.37 239.19 185.93 239.13 187.46 238.9 189.01 238.78 190.56 238.67 192.1 238.5 193.64 238.3 195.18 238.1 196.73 237.97 198.29 237.91 199.84 237.73 201.38 237.55 202.91 237.47 203.41 238.83 203.84 240.26 204.35 241.67 204.85 243.08 205.42 244.46 205.87 245.88 206.36 247.29 206.88 248.69 207.34 250.11 207.76 251.55 208.27 252.95 208.74 254.37 209.25 255.78 209.76 257.19 210.28 258.59 210.67 259.98"/><polygon class="cls-14" points="276.09 322.67 274.65 322.88 273.16 322.96 271.68 323.19 270.2 323.38 268.7 323.43 267.22 323.64 265.73 323.72 264.25 323.99 262.75 324.03 261.27 324.22 259.79 324.32 258.31 324.56 256.82 324.67 255.34 324.8 253.86 325.07 252.37 325.2 250.88 325.31 249.4 325.45 247.92 325.66 246.42 325.72 244.94 325.87 243.45 326.05 241.96 326.2 240.49 326.46 239 326.62 237.51 326.71 236.01 326.81 234.53 327 233.04 327.14 231.56 327.38 230.07 327.5 228.57 327.58 227.09 327.83 225.6 327.99 224.11 328.08 222.63 328.32 221.13 328.44 219.64 328.53 218.14 328.64 216.66 328.86 215.18 329.1 213.67 329.14 212.18 329.34 210.66 329.52 210.23 328.06 209.69 326.67 209.15 325.27 208.81 323.81 208.27 322.42 207.77 321.01 207.26 319.61 206.78 318.2 206.36 316.76 205.74 315.4 205.34 313.95 204.88 312.53 204.4 311.12 203.85 309.72 203.33 308.31 202.95 306.91 204.37 306.66 205.87 306.62 207.34 306.36 208.83 306.23 210.32 306.13 211.8 305.91 213.29 305.74 214.78 305.69 216.27 305.55 217.75 305.26 219.24 305.2 220.72 305.06 222.19 304.8 223.69 304.77 225.16 304.48 226.66 304.42 228.15 304.33 229.63 304.07 231.12 303.98 232.6 303.86 234.08 303.58 235.57 303.44 237.06 303.3 238.55 303.2 240.03 303.01 241.52 302.85 243.01 302.74 244.49 302.5 245.98 302.33 247.48 302.27 248.97 302.15 250.45 301.91 251.95 301.87 253.44 301.69 254.91 301.43 256.4 301.3 257.9 301.17 259.38 301.01 260.88 300.94 262.37 300.69 263.87 300.63 265.35 300.41 266.85 300.26 268.38 300.04 268.85 301.49 269.32 302.91 269.76 304.34 270.22 305.76 270.74 307.16 271.24 308.57 271.79 309.95 272.19 311.39 272.68 312.81 273.25 314.19 273.74 315.6 274.23 317.01 274.67 318.44 275.16 319.86 275.59 321.3 276.09 322.67"/><polygon class="cls-13" points="276.09 322.67 274.65 322.88 273.16 322.96 271.68 323.19 270.2 323.38 268.7 323.43 267.22 323.64 265.73 323.72 264.25 323.99 262.75 324.03 261.27 324.22 259.79 324.32 258.31 324.56 256.82 324.67 255.34 324.8 253.86 325.07 252.37 325.2 250.88 325.31 249.4 325.45 247.92 325.66 246.42 325.72 244.94 325.87 243.45 326.05 241.96 326.2 240.49 326.46 239 326.62 237.51 326.71 236.01 326.81 234.53 327 233.04 327.14 231.56 327.38 230.07 327.5 228.57 327.58 227.09 327.83 225.6 327.99 224.11 328.08 222.63 328.32 221.13 328.44 219.64 328.53 218.14 328.64 216.66 328.86 215.18 329.1 213.67 329.14 212.18 329.34 210.66 329.52 210.23 328.06 209.69 326.67 209.15 325.27 208.81 323.81 208.27 322.42 207.77 321.01 207.26 319.61 206.78 318.2 206.36 316.76 205.74 315.4 205.34 313.95 204.88 312.53 204.4 311.12 203.85 309.72 203.33 308.31 202.95 306.91 204.37 306.66 205.87 306.62 207.34 306.36 208.83 306.23 210.32 306.13 211.8 305.91 213.29 305.74 214.78 305.69 216.27 305.55 217.75 305.26 219.24 305.2 220.72 305.06 222.19 304.8 223.69 304.77 225.16 304.48 226.66 304.42 228.15 304.33 229.63 304.07 231.12 303.98 232.6 303.86 234.08 303.58 235.57 303.44 237.06 303.3 238.55 303.2 240.03 303.01 241.52 302.85 243.01 302.74 244.49 302.5 245.98 302.33 247.48 302.27 248.97 302.15 250.45 301.91 251.95 301.87 253.44 301.69 254.91 301.43 256.4 301.3 257.9 301.17 259.38 301.01 260.88 300.94 262.37 300.69 263.87 300.63 265.35 300.41 266.85 300.26 268.38 300.04 268.85 301.49 269.32 302.91 269.76 304.34 270.22 305.76 270.74 307.16 271.24 308.57 271.79 309.95 272.19 311.39 272.68 312.81 273.25 314.19 273.74 315.6 274.23 317.01 274.67 318.44 275.16 319.86 275.59 321.3 276.09 322.67"/><polyline class="cls-13" points="209.01 237.79 210.52 237.65 212.03 237.54 213.54 237.42 215.04 237.21 216.55 237.17 218.05 236.92 219.57 236.88 221.07 236.73 222.57 236.52 224.09 236.49 225.59 236.25 227.1 236.11 228.61 236.03 230.13 235.96 231.63 235.69 233.14 235.65 234.65 235.53 236.16 235.35 237.67 235.24 239.18 235.11 240.69 234.9 242.19 234.74 243.72 234.69 245.22 234.47 246.75 234.41"/><polyline class="cls-13" points="210.44 241.96 211.95 241.87 213.46 241.77 214.96 241.54 216.47 241.42 217.97 241.25 219.48 241.12 220.99 241.03 222.49 240.78 224 240.72 225.5 240.51 227.01 240.37 228.52 240.22 230.04 240.22 231.54 239.97 233.05 239.84 234.56 239.66 236.08 239.68 237.59 239.52 239.09 239.3 240.6 239.19 242.11 239.05 243.63 238.95 245.13 238.74 246.65 238.6 248.17 238.49"/><polyline class="cls-13" points="211.87 246.15 213.37 245.96 214.88 245.82 216.39 245.7 217.9 245.6 219.4 245.38 220.91 245.31 222.41 245.13 223.93 245.04 225.43 244.82 226.93 244.65 228.44 244.49 229.95 244.42 231.46 244.25 232.97 244.19 234.47 243.93 235.98 243.81 237.49 243.71 239 243.58 240.5 243.38 242.03 243.36 243.54 243.24 245.05 243.1 246.56 242.91 248.08 242.82 249.6 242.71"/><polyline class="cls-13" points="213.29 250.16 214.79 250.02 216.3 249.87 217.82 249.88 219.31 249.64 220.82 249.56 222.33 249.4 223.84 249.34 225.35 249.16 226.85 248.97 228.36 248.87 229.87 248.7 231.37 248.49 232.89 248.44 234.39 248.26 235.9 248.12 237.41 247.94 238.91 247.83 240.42 247.65 241.93 247.52 243.44 247.42 244.96 247.34 246.47 247.13 247.99 247.1 249.5 246.9 251.02 246.77"/><polyline class="cls-13" points="214.71 254.32 216.22 254.25 217.73 254.07 219.23 253.93 220.74 253.81 222.25 253.74 223.75 253.53 225.26 253.38 226.77 253.3 228.28 253.18 229.78 252.96 231.29 252.86 232.79 252.62 234.31 252.58 235.82 252.44 237.34 252.37 238.83 252.09 240.34 252.02 241.85 251.85 243.36 251.74 244.88 251.66 246.38 251.41 247.9 251.31 249.4 251.11 250.92 250.96 252.43 250.82"/><polyline class="cls-13" points="216.13 258.43 217.65 258.37 219.15 258.17 220.65 258.01 222.16 257.91 223.67 257.76 225.18 257.73 226.69 257.57 228.19 257.34 229.7 257.23 231.21 257.15 232.72 257.05 234.23 256.85 235.74 256.72 237.25 256.61 238.76 256.49 240.26 256.3 241.77 256.16 243.27 255.96 244.79 255.95 246.29 255.65 247.81 255.57 249.31 255.37 250.83 255.27 252.35 255.19 253.86 255.02"/><polyline class="cls-13" points="193.28 278.93 194.81 278.93 196.31 278.67 197.84 278.57 199.35 278.37 200.87 278.24 202.37 277.96 203.9 277.91 205.41 277.78 206.92 277.51 208.44 277.4 209.95 277.2 211.47 277.11 212.97 276.84 214.5 276.77 216 276.53 217.51 276.36 219.03 276.21 220.55 276.11 222.06 275.99 223.58 275.79 225.09 275.55 226.6 275.4 228.12 275.26 229.64 275.2 231.15 274.91 232.67 274.78 234.18 274.59 235.7 274.45 237.23 274.38 238.74 274.19 240.26 274.03 241.78 273.91 243.29 273.64 244.82 273.56 246.33 273.43 247.86 273.29 249.37 273.06 250.88 272.85 252.4 272.68 253.92 272.5 255.45 272.42 256.97 272.19 258.49 272.01"/><polyline class="cls-13" points="194.86 283.6 196.37 283.4 197.88 283.18 199.39 283.01 200.91 282.92 202.43 282.8 203.93 282.5 205.47 282.5 206.97 282.2 208.49 282.11 210.01 281.98 211.51 281.73 213.02 281.58 214.54 281.44 216.06 281.28 217.58 281.21 219.08 280.89 220.6 280.84 222.11 280.68 223.62 280.46 225.14 280.35 226.66 280.18 228.16 279.92 229.69 279.88 231.2 279.66 232.72 279.57 234.23 279.3 235.75 279.17 237.27 279.02 238.79 278.88 240.3 278.67 241.82 278.55 243.34 278.4 244.86 278.18 246.37 278 247.89 277.91 249.41 277.7 250.93 277.57 252.46 277.5 253.96 277.18 255.48 277.03 257.02 277.02 258.54 276.77 260.07 276.67"/><polyline class="cls-13" points="196.42 288.12 197.93 287.93 199.44 287.75 200.97 287.65 202.48 287.5 203.99 287.29 205.51 287.19 207.02 286.98 208.54 286.79 210.05 286.63 211.56 286.39 213.08 286.31 214.59 286.15 216.11 286.05 217.63 285.9 219.14 285.72 220.64 285.43 222.16 285.33 223.68 285.23 225.19 284.98 226.7 284.85 228.22 284.65 229.74 284.51 231.26 284.43 232.77 284.23 234.29 284.11 235.8 283.92 237.32 283.73 238.84 283.57 240.35 283.4 241.86 283.17 243.4 283.15 244.91 282.93 246.43 282.83 247.95 282.68 249.45 282.38 250.97 282.21 252.49 282.05 254.01 281.94 255.54 281.87 257.06 281.69 258.58 281.5 260.1 281.28 261.62 281.1"/><polyline class="cls-13" points="197.97 292.57 199.49 292.44 201.01 292.35 202.53 292.2 204.04 291.99 205.56 291.85 207.07 291.68 208.59 291.51 210.1 291.29 211.62 291.21 213.13 290.98 214.65 290.87 216.16 290.7 217.66 290.48 219.19 290.41 220.71 290.24 222.22 290.05 223.73 289.89 225.24 289.7 226.76 289.65 228.27 289.4 229.78 289.17 231.31 289.13 232.82 288.94 234.33 288.74 235.85 288.58 237.37 288.51 238.88 288.23 240.4 288.08 241.92 287.95 243.44 287.84 244.96 287.66 246.47 287.44 248 287.4 249.51 287.21 251.01 286.91 252.53 286.75 254.05 286.61 255.58 286.55 257.11 286.39 258.62 286.21 260.14 286.03 261.67 285.85 263.2 285.75"/><polyline class="cls-13" points="199.54 297.14 201.07 297.07 202.57 296.8 204.09 296.67 205.6 296.47 207.12 296.37 208.64 296.25 210.14 295.96 211.66 295.8 213.18 295.74 214.7 295.55 216.2 295.34 217.73 295.3 219.24 295.12 220.75 294.86 222.26 294.68 223.78 294.56 225.29 294.45 226.81 294.31 228.32 294.18 229.83 293.93 231.35 293.74 232.87 293.65 234.39 293.52 235.9 293.33 237.41 293.07 238.94 293.04 240.45 292.85 241.96 292.65 243.48 292.46 244.99 292.29 246.51 292.14 248.04 292.08 249.55 291.79 251.07 291.73 252.59 291.6 254.1 291.3 255.63 291.29 257.13 290.97 258.67 290.97 260.18 290.67 261.7 290.54 263.24 290.45 264.76 290.3"/><polyline class="cls-13" points="201.11 301.75 202.62 301.52 204.15 301.45 205.65 301.2 207.16 301 208.69 300.9 210.21 300.78 211.72 300.6 213.23 300.4 214.75 300.24 216.26 300.06 217.77 299.91 219.29 299.8 220.81 299.69 222.32 299.5 223.84 299.35 225.35 299.16 226.87 299.05 228.37 298.82 229.88 298.65 231.39 298.43 232.91 298.31 234.43 298.15 235.94 297.94 237.46 297.8 238.97 297.65 240.5 297.56 242.01 297.37 243.52 297.15 245.06 297.12 246.57 296.94 248.09 296.75 249.61 296.61 251.12 296.34 252.63 296.15 254.16 296.14 255.66 295.83 257.19 295.74 258.71 295.65 260.23 295.47 261.75 295.24 263.28 295.17 264.79 294.9 266.32 294.77"/><line class="cls-15" x1="190.21" y1="270.09" x2="256.43" y2="263.54"/><polyline class="cls-16" points="244.59 67.3 247.06 67.84 249.53 67.71 251.99 67.71 254.46 67.56 256.93 67.34 259.4 67.98 261.88 67.32 264.35 67.91 266.82 68.11 269.28 67.57 271.75 67.57 274.22 68.14 276.7 67.45 279.17 67.86 281.64 67.91 284.11 67.78 286.58 67.3 289.05 67.83 291.52 67.57 294 67.24 296.47 67.35 298.94 68.18 301.41 67.53 303.88 67.72 306.36 67.47 308.83 67.61 311.3 68.11 313.77 67.5 316.25 67.59 318.72 67.39 321.19 68.12 323.66 67.4 326.13 67.61 328.6 67.97 331.07 68 333.54 67.96 336.01 67.47 338.48 67.87 340.96 67.53 343.43 67.34 345.91 67.94 348.38 67.59 350.86 67.82 353.33 67.34 355.81 68.16 358.28 67.63 360.75 68.06 363.23 67.59 365.71 67.7 368.18 67.5 370.66 67.61 373.14 67.29 375.63 68.05"/><polyline class="cls-16" points="244.59 47.04 247.06 46.59 249.53 46.31 251.99 46.61 254.46 46.34 256.93 47.03 259.4 46.64 261.88 47 264.35 46.55 266.82 46.57 269.28 46.62 271.75 46.91 274.22 46.52 276.7 46.81 279.17 46.89 281.64 46.95 284.11 46.47 286.58 46.38 289.05 46.42 291.52 46.39 294 46.5 296.47 46.52 298.94 46.33 301.41 46.71 303.88 46.87 306.36 47.01 308.83 46.8 311.3 46.8 313.77 46.81 316.25 46.48 318.72 46.3 321.19 46.41 323.66 47.02 326.13 47.1 328.6 46.34 331.07 46.87 333.54 46.66 336.01 46.89 338.48 46.98 340.96 46.78 343.43 47 345.91 46.65 348.38 46.3 350.86 46.7 353.33 46.46 355.81 46.64 358.28 47.07 360.75 46.36 363.23 47.21 365.71 47.09 368.18 46.77 370.66 46.64 373.14 46.23 375.63 46.62"/><polyline class="cls-16" points="244.59 88.8 247.05 88.34 249.5 88.88 251.96 88.43 254.41 88.48 256.87 88.6 259.33 88.91 261.78 88.99 264.24 88.4 266.7 88.26 269.15 88.23 271.61 88.41 274.07 88.75 276.52 88.43 278.98 88.8 281.43 88.88 283.88 88.48 286.34 89.13 288.8 88.52 291.25 88.93 293.71 88.36 296.17 88.86 298.62 89.08 301.08 88.6 303.54 89.11 306 88.29 308.46 88.91 310.92 88.31 313.38 88.29 315.83 88.75 318.29 88.51 320.76 88.65 323.22 88.31 325.68 89.11 328.15 88.3 330.61 88.64"/><polygon class="cls-14" points="132.53 154.09 130.06 153.92 127.96 152.66 125.96 151.2 124.61 149.13 124.03 146.73 123.17 144.36 122.06 142.09 121.02 139.79 119.74 137.6 118.21 135.56 117.09 133.31 116.33 130.84 114.56 128.96 113.1 126.92 111.65 124.87 110.57 122.54 109.05 120.52 106.94 119.02 105.14 117.28 103.5 115.39 101.75 113.57 99.72 112.1 97.89 110.34 95.81 108.89 93.38 108.09 91.12 107.02 88.86 105.91 86.36 105.56 83.98 104.69 81.48 104.49 78.98 104.02 76.49 104.26 73.98 104.37 71.7 105.61 69.2 105.86 66.88 106.75 64.62 107.79 62.28 108.72 60.26 110.19 58.22 111.63 56.34 113.27 54.7 115.16 52.72 116.68 50.87 118.36 49.37 120.36 48.03 122.46 46.13 124.14 45.3 126.6 43.35 128.28 42.32 130.56 40.63 132.46 39.89 134.89 38.73 137.08 37.45 139.22 36.41 141.48 35.67 143.86 34.66 146.13 33.78 148.45 32.78 150.73 32.27 153.18 30.8 155.31 29.98 157.66 29.97 160.25 29.04 162.57 27.99 164.87 27.8 167.38 26.92 169.74 26.7 172.23 26.5 174.73 25.82 177.13 25.82 179.65 24.93 182.02 24.34 184.45 24.57 186.99 23.99 189.42 23.89 191.91 23.91 194.41 22.89 196.83 22.85 199.32 22.68 201.81 22.99 204.31 22.66 206.79 22.38 209.28 23.06 211.78 22.58 214.27 23.05 216.75 23.27 219.23 22.96 221.73 22.85 224.22 23.83 226.65 23.63 229.16 23.46 231.67 23.98 234.12 24.73 236.53 24.76 239.03 24.52 241.58 25.65 243.92 25.34 246.5 25.9 248.93 26.27 251.4 27.48 253.68 27.71 256.18 28.2 258.62 29.1 260.96 29.77 263.36 30.12 265.84 31.06 268.16 31.49 270.64 32.98 272.76 33.89 275.07 34.09 277.66 35.43 279.8 36.59 282 37.27 284.44 38.44 286.64 39.98 288.64 41.16 290.82 42.39 292.97 43.52 295.2 44.52 297.53 46.73 299.01 47.66 301.42 49.25 303.34 51.1 305.02 52.65 306.98 54.74 308.39 56.36 310.3 58.55 311.52 60.24 313.43 62.6 314.33 64.62 315.81 66.81 317.01 69.14 317.91 71.5 318.78 73.96 319.34 76.47 319.59 78.98 319.7 81.5 319.62 83.86 318.44 86.43 318.64 88.86 318.03 91.2 317.11 93.22 315.55 95.76 314.99 97.41 312.93 99.72 311.91 101.7 310.39 103.7 308.88 105.25 306.89 106.73 304.88 108.38 303.03 110.1 301.24 111.69 299.32 112.87 297.11 114.7 295.34 115.68 293.02 116.64 290.71 118.32 288.81 119.56 286.65 120.77 284.47 121.78 282.19 122.61 279.83 123.05 277.33 124.8 275.35 125.42 272.92 125.73 270.4 127.12 268.24 127.47 265.74 127.88 263.28 128.69 260.93 129.54 258.58 130.09 256.16 131.06 253.83 131.43 251.36 131.71 248.88 132.59 246.51 132.88 244.03 133.32 241.58 133.42 239.08 134.04 236.65 134.4 234.18 134.48 231.69 134.57 229.19 134.92 226.72 134.78 224.22 135.33 221.75 134.77 219.24 135.08 216.76 135.24 214.27 135.33 211.78 135.03 209.15 135.25 206.52 134.72 203.9 135.34 201.24 134.82 198.63 134.11 196.05 134.82 193.35 133.61 190.83 134.49 188.4 134.7 185.81 136.45 183.92 138.84 183.08 141.1 182.15 143.59 182.15 146.06 182.05 148.48 181.46 150.98 181.54 153.41 181.06 155.87 180.79 158.29 180.17 160.72 179.6 163.19 179.46 165.72 179.75 168.16 179.3 170.61 178.91 173.06 178.54 175.48 177.93 177.97 177.95 180.46 177.92 182.91 177.48 185.4 177.49 187.84 177.02 190.32 176.78 192.8 176.65 195.23 175.27 194.96 172.63 193.15 171.13 190.77 170.31 188.27 169.91 185.8 169.4 183.34 168.84 181.06 167.66 178.64 166.98 176.29 166.03 173.78 165.67 171.36 165 168.9 164.46 166.4 164.04 164.05 163.08 161.63 162.41 159.23 161.61 156.82 160.86 154.21 160.88 151.79 160.17 149.38 159.41 147.01 158.55 144.56 157.97 142.19 157.08 139.63 156.86 137.43 155.37 134.96 154.9 132.53 154.09"/><polygon class="cls-8" points="69.09 224.18 66.5 226.78 63.72 229.62 61.22 232.72 58.68 235.78 55.7 238.44 52.72 241.1 49.93 243.94 47.94 247.51 45.06 250.26 42.52 253.34 38.96 256.01 42.71 257.97 46.04 259.82 49.36 261.7 52.67 263.59 56.08 265.29 59.49 267 63.03 268.47 66.39 270.29 69.69 272.2 73.29 273.55 76.48 275.69 79.65 277.85 83.31 279.1 86.39 281.43 90.11 282.58 93.24 284.81 96.81 286.24 99.82 288.29 98.27 285.09 96.53 281.75 95.1 278.25 93.69 274.75 92.1 271.34 89.97 268.19 88.65 264.64 86.57 261.46 85.36 257.86 83.66 254.5 82.57 250.84 80.8 247.5 78.61 244.37 77.6 240.68 75.82 237.35 74.21 233.94 72.82 230.42 70.9 227.15 69.09 224.18"/><polygon class="cls-5" points="114.63 164.38 109.34 166.97 104.46 170.07 99.56 173.13 94.43 175.81 89.25 178.37 84.56 181.82 79.48 184.58 74.1 186.8 69.18 189.84 64.28 192.93 59.06 195.78 56.45 190.03 53.22 184.82 50.1 179.55 46.74 174.42 43.79 169.24 48.39 166.03 53.42 163.2 58.39 160.25 63.51 157.57 68.94 155.45 73.66 152.06 78.59 149.03 83.83 146.57 88.71 143.46 94.08 141.21 98.85 138.11 101.64 143.45 105.54 148.26 108.55 153.6 111 159.28 114.63 164.38"/><polygon class="cls-2" points="120.14 213.7 115.52 226.99 103.38 234.35 89.11 230.78 83.28 217.67 86.52 204.04 99.2 197.29 113.3 200.9 120.14 213.7"/></g></svg>