<?xml version="1.0" encoding="UTF-8"?><svg id="c" xmlns="http://www.w3.org/2000/svg" xmlns:xlink="http://www.w3.org/1999/xlink" viewBox="0 0 600 350"><defs><style>.e,.f,.g,.h,.i,.j{fill:none;}.e,.k,.l,.m,.n,.o,.p,.q,.r{stroke-width:0px;}.f{stroke-width:2.23px;}.f,.g,.h,.i,.j{stroke-linecap:round;}.f,.g,.i,.j{stroke:#000;}.f,.h,.j{stroke-miterlimit:10;}.g{stroke-width:2.35px;}.g,.i{stroke-linejoin:round;}.h{stroke:#fff;stroke-width:5.52px;}.i{stroke-width:2.41px;}.s{clip-path:url(#d);}.j{stroke-width:2.49px;}.l{fill:#f56977;}.m{fill:#f8c341;}.n{fill:#27b5f7;}.o{fill:#717071;}.p{fill:#3e3a39;}.q{fill:#fff;}.r{fill:#fae7e7;}</style><clipPath id="d"><rect class="e" x="0" width="600" height="350"/></clipPath></defs><g class="s"><polygon class="o" points="483.22 117.16 482.47 119.43 481.88 121.72 481.06 123.96 479.9 126.03 478.93 128.23 477.27 129.97 475.68 131.73 473.84 133.22 472.04 134.83 469.79 135.68 467.53 136.5 465.13 136.55 462.76 136.34 460.55 135.49 458.24 134.79 456.47 133.17 454.75 131.52 453.5 129.49 452.13 127.52 451.58 125.18 450.65 122.98 450.04 120.66 449.97 118.26 450.2 115.88 450.04 113.48 450.37 111.11 451.08 108.83 451.78 106.55 452.51 104.28 453.58 102.14 454.85 100.12 456.2 98.13 457.93 96.47 459.79 94.99 461.77 93.66 463.98 92.82 466.2 91.97 468.57 91.74 470.98 91.69 473.3 92.39 475.37 93.62 477.2 95.15 478.84 96.86 480.39 98.68 481.5 100.8 482.33 103.04 483.22 105.27 483.49 107.66 483.58 110.04 483.71 112.42 483.49 114.79 483.22 117.16"/><polygon class="m" points="343.94 17.07 341.5 17.54 339.05 17.47 336.63 17.99 334.16 17.31 331.72 17.54 329.32 18.28 326.9 18.55 324.48 18.79 322.04 18.94 319.54 18.62 317.19 19.48 314.7 19.38 312.31 19.9 309.92 20.43 307.59 21.26 305.19 21.71 302.74 21.94 300.5 23.06 298.08 23.43 295.7 24 293.43 24.94 291.18 25.89 288.75 26.33 286.33 26.84 284.01 27.61 282.1 29.39 279.78 30.15 277.66 31.36 275.05 31.61 272.99 32.96 270.83 34.11 268.68 35.3 266.56 36.53 264.59 38 262.66 39.52 260.96 41.31 259.09 42.87 257.21 44.42 255.83 46.48 253.93 48.04 252.08 49.67 251.11 51.99 249.31 53.73 248.73 56.19 247.28 58.18 246.78 60.58 245.87 62.83 245.23 65.17 245.04 67.59 244.73 70.01 244.61 72.43 244.89 74.85 245.92 77.09 246.29 79.48 247.61 81.54 248.24 83.89 249.48 85.95 250.32 88.29 251.88 90.16 253.86 91.64 255 93.86 256.83 95.46 258.59 97.11 260.27 98.87 262.36 100.13 264.18 101.74 266.53 102.57 268.49 103.97 270.6 105.13 272.7 106.29 274.82 107.42 277.04 108.34 278.85 110.14 281.11 111.02 283.35 111.91 285.64 112.69 287.87 113.63 290.2 114.27 292.52 114.93 294.69 116.08 297.01 116.76 299.53 116.68 301.84 117.37 304.12 118.19 306.52 118.51 309.18 119.48 310.71 121.82 311.64 124.35 311.25 127 310.16 129.36 309.59 131.87 309.39 134.51 308.48 136.93 308.48 139.25 310.62 140.06 312.68 139.63 314.66 138.19 316.26 136.31 318.47 135.11 320.29 133.48 321.85 131.54 323.81 130.05 325.5 128.26 327.4 126.63 329.89 125.97 331.79 124.26 334.06 123.21 336.67 123.44 339.02 122.63 341.49 122.55 343.94 122.55 346.38 122.5 348.82 122.69 351.28 122.92 353.7 122.45 356.16 122.62 358.55 121.75 361.04 122.21 363.44 121.63 365.88 121.49 368.26 120.8 370.65 120.31 373.12 120.3 375.56 120.11 377.92 119.42 380.31 118.88 382.65 118.2 385.18 118.27 387.51 117.52 389.94 117.1 392.12 115.86 394.61 115.62 396.96 114.93 399.13 113.72 401.51 113.1 403.69 111.97 405.77 110.62 408.16 110.01 410.56 109.38 412.57 107.92 414.56 106.48 416.74 105.39 418.83 104.13 421 103 423.16 101.84 425.06 100.3 426.81 98.58 428.88 97.26 430.42 95.34 432.25 93.74 434.31 92.31 435.91 90.43 436.76 88.02 438.21 86.08 439.39 83.96 440.37 81.74 441.14 79.45 441.78 77.13 442.88 74.89 443.18 72.46 442.98 70.01 442.66 67.6 443.04 65.09 442.22 62.76 441.19 60.53 440.81 58.07 439.76 55.85 438.63 53.66 436.94 51.85 435.19 50.12 433.94 48.01 432.09 46.41 430.67 44.39 428.69 42.94 427.13 41 424.83 39.99 423.3 37.94 421.26 36.57 418.84 35.83 416.78 34.55 414.9 32.9 412.72 31.8 410.46 30.84 408.33 29.63 406.11 28.59 403.86 27.64 401.28 27.54 399.04 26.56 396.78 25.66 394.53 24.69 392.06 24.42 389.77 23.57 387.44 22.83 384.99 22.59 382.75 21.44 380.37 20.88 377.91 20.72 375.56 20.03 373.11 19.85 370.76 19.1 368.27 19.26 365.84 19 363.44 18.56 360.99 18.48 358.57 18.24 356.14 17.96 353.72 17.58 351.28 17.23 348.83 17.42 346.39 17.05 343.94 17.07"/><path class="r" d="m541.84,121.85c.16-36-22.09-48.51-44.18-47.96-22.96.58-38.36,16.27-40.66,52.29-1.21,19.05,9.81,37.39,25.31,42.29.08.03.15.09.24.15,1.42.97,2.1,2.71,1.89,4.41l-1.57,12.65c.42,6.27,5.9,11.06,12.17,10.63l18.33-1.24c5.41-.37,9.5-5.05,9.14-10.46l-3.42-14.02c-.38-1.54.02-3.2,1.12-4.35.15-.16.3-.3.44-.39,12.7-9.14,21.11-24.94,21.19-44.01Z"/><path class="l" d="m554.21,196.34c-15.88-17.05-28.9-19.49-33.66-19.77-19.74,8.5-36.73,1.46-36.73,1.46-23.75,9.29-42.85,31.72-46.86,57.87-9.57,62.36-7.66,114.95-7.66,114.95l145.17.09c3.76-80.92,9.4-122.78-20.26-154.61Z"/><path class="r" d="m557.63,296.3c.82.22,1.4,1,1.43,1.9.18,4.3.31,12.22-3.17,23.5-8.99,29.14-24.28,55.12-42.77,78.95-.96,1.24-33.78-8.1-33.78-8.1-3.98.14,35.05-54.71,44.59-80.64,2.94-7.99,3.45-13.04,3.75-18.71.06-1.15,1-2.02,2.08-1.9,4.7.52,17.04,2.06,27.88,5Z"/><path class="j" d="m524.48,288.45c3.8-16.03,5.51-32.16,5.09-48.09"/><polygon class="o" points="555.44 119.79 555.4 122.17 555.27 124.57 554.49 126.84 553.98 129.17 553.05 131.36 552.14 133.56 550.71 135.48 549.17 137.28 547.57 139.05 545.76 140.63 543.44 141.34 541.2 142.08 538.85 142.32 536.49 142.11 534.14 141.62 532.07 140.41 530.12 139.04 528.55 137.25 526.82 135.6 525.51 133.59 524.62 131.37 523.54 129.23 523.01 126.89 522.7 124.52 522.34 122.17 522.04 119.79 522.2 117.4 522.36 115.01 522.82 112.65 523.61 110.38 524.44 108.14 525.57 106.03 527.06 104.16 528.56 102.33 530.2 100.63 532.06 99.16 534.11 97.88 536.46 97.34 538.85 97.16 541.22 97.42 543.51 98.08 545.7 99.06 547.73 100.36 549.31 102.18 550.91 103.96 551.89 106.16 553.31 108.11 554.16 110.36 554.84 112.66 555.37 115 555.65 117.39 555.44 119.79"/><polygon class="p" points="550.2 111.15 547.93 111.28 545.67 111.01 543.4 110.8 541.13 110.97 538.88 110.79 538.91 108.51 538.74 106.05 538.41 103.61 537.8 101.21 537.53 98.76 536.66 96.43 536.01 94.07 535.64 91.59 534.67 89.32 533.49 87.14 532.57 84.84 531.26 82.74 529.65 80.85 528.08 78.97 526.68 76.9 524.82 75.25 522.63 74.06 520.79 72.38 518.55 71.32 516.35 70.19 513.91 69.68 511.63 68.7 509.12 68.66 506.7 68.21 504.24 68.1 501.77 68.04 499.32 68.34 496.87 68.7 494.59 69.66 492.22 70.38 490.24 71.89 487.99 72.97 486.13 74.63 484.6 76.59 482.9 78.4 481.73 80.6 480.48 82.72 479.61 85.04 478.53 87.26 477.81 89.62 477.1 91.98 476.56 94.2 474.31 94 472.03 93.89 469.86 93.12 467.58 92.99 465.37 92.52 465.8 90.2 466.66 87.81 467.44 85.4 468.26 83 468.91 80.52 470.08 78.25 471.11 75.91 472.44 73.73 474.12 71.93 475.31 69.79 477.14 68.15 478.79 66.38 480.65 64.82 482.55 63.33 484.32 61.61 486.65 60.78 488.68 59.39 491.06 58.81 493.26 57.69 495.73 57.55 498.09 56.95 500.49 56.52 502.94 56.72 505.37 56.79 507.83 56.59 510.2 57 512.56 57.49 514.84 58.23 517.19 58.72 519.47 59.46 521.76 60.18 523.9 61.27 525.97 62.48 528.05 63.67 529.97 65.1 531.74 66.72 533.68 68.13 535.3 69.9 536.95 71.63 538.38 73.55 539.82 75.46 540.98 77.56 542.45 79.47 543.5 81.64 544.43 83.85 545.33 86.07 546.35 88.19 546.91 90.46 547.37 92.75 547.93 95.01 548.76 97.22 549.1 99.54 549.4 101.85 549.56 104.18 549.83 106.49 550.19 108.79 550.2 111.15"/><polygon class="p" points="557.82 119.79 558.08 122.12 557.82 124.43 557.2 126.69 556.28 128.83 554.89 130.71 553.59 132.6 551.96 134.21 550.08 135.54 547.93 136.38 545.63 136.5 543.4 136.14 541.18 135.55 539.18 134.37 537.47 132.78 536.26 130.78 535.08 128.79 534.37 126.59 533.73 124.38 533.18 122.12 533.28 119.79 533.47 117.5 533.44 115.15 534.44 113.02 535.01 110.76 536.03 108.66 537.78 107.08 539.13 105.15 541.22 104.11 543.33 103.17 545.63 102.96 547.91 103.27 550.18 103.86 551.98 105.36 553.75 106.85 554.87 108.89 556.07 110.85 557.03 112.95 557.79 115.15 558.03 117.47 557.82 119.79"/><path class="r" d="m497.66,73.89c-22.96.58-38.36,16.27-40.66,52.29-.45,7.11.8,14.13,3.35,20.38l48.52-71.75c-3.67-.72-7.45-1.02-11.22-.92Z"/><ellipse class="k" cx="470.77" cy="110.38" rx="5.4" ry="2.55" transform="translate(276.98 553.38) rotate(-79.57)"/><ellipse class="k" cx="498.49" cy="115.48" rx="5.4" ry="2.55" transform="translate(294.66 584.82) rotate(-79.57)"/><line class="j" x1="485.97" y1="102.84" x2="480.1" y2="125.74"/><path class="f" d="m471.11,138.05s13.87,7.58,24.16-5.12"/><polygon class="o" points="263.06 203.93 261.9 206.03 261.09 208.29 259.56 210.15 258.15 212.05 256.66 213.88 255.23 215.8 253.48 217.43 251.57 218.87 249.48 220.03 247.31 221.04 245.03 221.75 242.65 221.97 240.28 222.37 237.93 221.91 235.73 221.02 233.56 220.1 231.55 218.84 229.87 217.15 228.31 215.33 227.15 213.25 226.28 211.02 225.59 208.74 224.99 206.43 224.76 204.05 224.93 201.67 225.11 199.31 225.22 196.93 225.87 194.64 226.3 192.29 227.1 190.05 228.2 187.94 229.31 185.85 230.42 183.75 231.78 181.8 233.19 179.89 234.81 178.14 236.7 176.69 238.46 175.05 240.52 173.82 242.74 172.93 245 172.14 247.38 171.93 249.74 171.85 252.1 172.08 254.43 172.59 256.55 173.71 258.56 175.02 260.33 176.65 261.65 178.65 262.83 180.72 263.9 182.86 264.44 185.2 265.01 187.51 265.05 189.9 265.26 192.27 264.82 194.62 264.73 196.99 264.5 199.38 263.76 201.65 263.06 203.93"/><path class="l" d="m324.24,311.8c-.1,3.24-2.75,5.78-5.9,5.67-3.77-.13-7.29,2.53-7.78,6.36-.57,4.4,2.69,8.24,6.91,8.38l10.93.36c5.3.18,9.74-4.08,9.91-9.51l1.3-40.75-14.4-.48-.97,29.97Z"/><polygon class="l" points="323.71 205.88 314.3 199.93 305.36 193.4 295.83 187.86 286.39 182.18 277.38 175.78 268.07 169.87 258.57 164.29 249.52 157.93 240.18 152.73 238.4 164.2 236.82 176.03 234.65 187.76 232.91 199.57 231.44 211.41 229.83 223.24 227.61 234.96 225.73 246.75 224.5 258.63 222.78 270.44 220.53 282.17 218.74 293.97 217.25 305.69 227.79 303.21 238.39 300.45 249.01 297.81 259.54 294.74 270.15 292.03 280.81 289.5 291.4 286.71 301.99 283.9 312.52 281.26 322.88 285.55 333.31 289.91 343.32 295.27 353.69 299.79 364.07 304.13 366.12 292.6 367.35 280.89 369.39 269.3 370.7 257.59 372.79 246.02 374.64 234.4 375.92 222.69 377.81 211.07 379.8 199.37 368.52 200.57 357.38 202.3 346.16 203.2 334.95 204.18 323.71 205.88"/><path class="q" d="m302.49,231.39c-1.06,7.1-3.99,14.49-11.5,13.3s-8.21-8.83-7.1-16.24c1.1-7.41,5.77-10.13,10.91-9.31,5.14.81,8.75,5.15,7.7,12.25Z"/><path class="k" d="m297.26,233.26c-.7,4.71-2.65,9.61-7.63,8.82-4.98-.79-5.44-5.85-4.71-10.77.73-4.92,3.83-6.71,7.23-6.18,3.41.54,5.8,3.42,5.1,8.13Z"/><path class="q" d="m350.27,238.94c-1.06,7.1-3.99,14.49-11.5,13.3-7.51-1.19-8.21-8.83-7.1-16.24,1.1-7.41,5.77-10.13,10.91-9.31,5.14.81,8.75,5.15,7.7,12.25Z"/><path class="k" d="m344.76,240.83c-.7,4.71-2.65,9.61-7.63,8.82-4.98-.79-5.44-5.85-4.71-10.77.73-4.92,3.83-6.71,7.23-6.18,3.41.54,5.8,3.42,5.1,8.13Z"/><path class="l" d="m279.85,301.59c-.99,3.08-4.23,4.75-7.23,3.74-3.58-1.2-7.69.34-9.22,3.87-1.76,4.06.3,8.68,4.31,10.02l10.39,3.49c5.04,1.69,10.47-1.12,12.13-6.28l12.51-38.73-13.68-4.6-9.21,28.49Z"/><polygon class="q" points="313.73 251.11 310.48 250.21 309.02 252.65 308.09 259.76 309.43 265.37 312.48 266.88 316.56 266.73 319.64 263.41 321.14 256.77 321.6 253.13 313.73 251.11"/><path class="i" d="m310,249.98s-6.32,14.59,1.78,16.63c9.11,2.29,9.82-13.48,9.82-13.48,0,0-8.97-.87-14.36-4.77"/><polygon class="o" points="393.03 232.23 392.63 234.56 392.17 236.89 391.32 239.11 390.62 241.38 389.48 243.47 388.47 245.65 386.74 247.33 385.48 249.38 383.57 250.83 381.68 252.27 379.57 253.33 377.55 254.63 375.23 255.27 372.83 255.41 370.48 254.99 368.21 254.4 365.96 253.65 363.99 252.34 362.23 250.79 360.59 249.09 359.19 247.18 357.83 245.22 357.06 242.96 356.29 240.72 355.4 238.49 355.28 236.09 355.03 233.73 354.8 231.35 355.31 229 355.55 226.65 355.55 224.23 356.28 221.95 357.05 219.7 358.08 217.55 359.11 215.41 360.31 213.37 361.66 211.41 363.12 209.52 364.84 207.85 366.87 206.58 369.02 205.58 371.13 204.55 373.38 203.77 375.75 203.82 378.11 203.8 380.45 204.23 382.54 205.36 384.78 206.26 386.57 207.86 388.14 209.67 389.44 211.66 390.63 213.72 391.41 215.96 392.49 218.1 392.92 220.44 393.33 222.78 393.7 225.14 393.4 227.52 393.28 229.88 393.03 232.23"/><polygon class="p" points="375.1 220.32 375.12 218.11 374.36 215.81 374.17 213.41 373.43 211.14 372.84 208.81 371.82 206.64 370.89 204.44 369.63 202.4 368.72 200.17 367.38 198.19 366.09 196.17 364.57 194.32 362.77 192.72 361.29 190.84 359.65 189.1 357.8 187.59 355.95 186.08 353.94 184.78 352.16 183.17 350.08 182 348.13 180.61 345.91 179.69 343.9 178.37 341.59 177.68 339.56 176.36 337.2 175.82 335.02 174.84 332.8 173.95 330.43 173.52 328.15 172.83 325.85 172.14 323.47 171.8 321.14 171.21 318.79 170.69 316.4 170.41 314.04 169.89 311.61 169.91 309.22 169.64 306.85 169.07 304.43 169.15 302.02 169.3 299.61 169.13 297.23 169.63 294.83 169.74 292.45 170.07 290.05 170.28 287.67 170.61 285.31 171.13 282.97 171.74 280.73 172.65 278.44 173.41 276.26 174.45 274.07 175.45 272.04 176.76 270.07 178.13 267.93 179.26 266.08 180.8 264.25 182.36 262.45 183.95 260.87 185.77 259.3 187.58 257.93 189.51 255.92 188.24 253.82 187.12 251.78 185.89 249.63 184.85 247.53 183.71 245.6 182.29 246.91 180.29 248.34 178.32 249.76 176.32 251.54 174.64 253.2 172.85 255.12 171.33 257.11 169.93 259.01 168.41 260.97 166.98 263.03 165.69 264.98 164.22 267.14 163.1 269.28 161.93 271.43 160.76 273.74 159.93 276 159.01 278.33 158.28 280.68 157.59 283.03 156.95 285.46 156.65 287.88 156.31 290.23 155.63 292.66 155.45 295.07 155.05 297.5 154.82 299.94 154.68 302.39 154.76 304.83 154.67 307.27 154.8 309.71 154.94 312.11 155.55 314.55 155.66 316.99 155.79 319.42 156.06 321.75 156.9 324.14 157.4 326.58 157.7 328.94 158.18 331.27 158.77 333.62 159.32 335.94 159.97 338.25 160.66 340.49 161.55 342.71 162.49 344.98 163.32 347.19 164.26 349.28 165.49 351.46 166.5 353.72 167.38 355.72 168.74 357.89 169.8 359.86 171.2 361.82 172.6 363.77 174.01 365.72 175.42 367.46 177.1 369.4 178.55 371.13 180.23 372.56 182.19 374.42 183.76 375.89 185.67 377.08 187.79 378.81 189.51 379.88 191.68 381.1 193.74 382.37 195.72 383.53 197.78 384.25 200.04 385.1 202.23 386.11 204.36 386.87 206.59 387.61 208.83 388.23 211.1 388.63 213.43 388.76 215.79 389.15 218.1 389.39 220.6 387 220.51 384.62 220.38 382.24 220.36 379.86 220.41 377.47 220.53 375.1 220.32"/><polygon class="p" points="396.21 232.71 395.56 235.04 394.77 237.31 394.24 239.7 393.04 241.82 391.53 243.72 390.02 245.59 388.14 247.1 386.21 248.57 383.9 249.29 381.54 249.63 379.17 249.63 376.78 249.24 374.61 248.12 372.91 246.39 371.42 244.53 369.86 242.66 369.11 240.35 368.39 238.06 367.66 235.74 367.78 233.3 367.71 230.89 368.09 228.51 368.32 226.1 369.09 223.81 369.7 221.44 370.88 219.3 372.4 217.4 373.98 215.57 375.93 214.14 377.75 212.51 380.07 211.75 382.47 211.56 384.87 211.37 387.24 211.93 389.47 212.95 391.11 214.78 392.58 216.66 393.85 218.67 395.14 220.74 395.89 223.05 396 225.49 396.28 227.88 396.38 230.29 396.21 232.71"/><polygon class="l" points="286.39 182.18 277.38 175.78 268.07 169.87 258.57 164.29 249.52 157.94 240.18 152.73 238.4 164.2 236.82 176.03 234.65 187.76 232.91 199.57 231.44 211.41 295.83 187.86 286.39 182.18"/><polyline class="g" points="388.88 134.65 388.54 135.99 388.16 137.33 387.72 138.66 387.55 140.05 387.14 141.39 386.85 142.75 386.21 144.02 386.13 145.45 385.71 146.78 385.4 148.14 384.91 149.45 384.51 150.79 384.18 152.14 383.78 153.48 383.45 154.83 383.11 156.18 382.61 157.5 382.42 158.89 381.99 160.22 381.64 161.58 381.14 162.89 380.95 164.29"/><polyline class="g" points="391.75 170.83 392.69 169.77 393.79 168.86 394.7 167.78 395.56 166.64 396.64 165.72 397.45 164.54 398.51 163.6 399.36 162.46 400.39 161.47 401.34 160.42 402.29 159.38 403.18 158.27 404.25 157.33 405.08 156.16 406.17 155.24 407.13 154.2 408.08 153.15 408.9 151.98 409.93 151 410.83 149.91 411.88 148.96 412.75 147.83 413.8 146.87 414.78 145.84 415.79 144.84 416.54 143.6 417.64 142.67 418.49 141.53 419.51 140.54 420.48 139.5 421.45 138.44 422.35 137.34"/><polyline class="g" points="404.03 180.11 405.24 179.35 406.54 178.76 407.93 178.35 409.14 177.59 410.44 177 411.75 176.44 413.03 175.8 414.31 175.19 415.58 174.54 416.78 173.75 418.14 173.27 419.32 172.44 420.7 172.02 421.93 171.28 423.15 170.54 424.41 169.87 425.66 169.19 426.98 168.63 428.27 168.01 429.58 167.44 430.93 166.96 432.1 166.08 433.45 165.59 434.78 165.05"/><polyline class="g" points="410.41 192.78 411.79 192.6 413.17 192.57 414.56 192.75 415.94 192.74 417.32 192.57 418.69 192.51 420.07 192.33 421.45 192.36 422.83 192.33 424.22 192.35 425.6 192.37 426.98 192.35 428.37 192.27 429.75 192.27 431.13 192.01"/><polyline class="h" points="283.34 67.27 285.78 67.69 288.21 67.77 290.65 67.6 293.09 68.02 295.53 68.08 297.97 67.65 300.41 67.52 302.84 67.5 305.28 67.78 307.72 67.74 310.16 68.09 312.6 67.73 315.03 67.46 317.47 67.65 319.91 67.42 322.35 67.4 324.79 67.49 327.23 67.88 329.67 67.62 332.1 67.43 334.54 67.33 336.98 67.55 339.42 68.15 341.86 67.64 344.3 68.13 346.74 67.78 349.18 67.93 351.62 67.37 354.06 67.22 356.5 67.8 358.94 67.58 361.37 67.59 363.81 67.61 366.25 67.9 368.69 67.32 371.13 67.93 373.57 67.48 376.01 67.3 378.45 68.18 380.89 67.79 383.34 67.62 385.78 68.02 388.22 67.46 390.67 67.87 393.1 67.6 395.55 67.96 397.99 67.67 400.44 67.8 402.88 68.02 405.33 68.06 407.78 67.39"/><polyline class="h" points="283.34 47.14 285.78 46.83 288.21 46.68 290.65 46.83 293.09 47.14 295.53 46.95 297.97 46.9 300.41 46.68 302.84 46.27 305.28 47.19 307.72 46.44 310.16 47.09 312.6 46.98 315.03 47 317.47 46.74 319.91 46.68 322.35 46.85 324.79 46.47 327.23 46.91 329.67 47.01 332.1 46.27 334.54 46.56 336.98 46.54 339.42 46.33 341.86 46.49 344.3 46.48 346.74 46.94 349.18 47.01 351.62 46.6 354.06 46.73 356.5 47.08 358.94 46.77 361.37 47.12 363.81 46.28 366.25 46.85 368.69 46.98 371.13 46.33 373.57 46.33 376.01 46.29 378.45 46.25 380.89 46.8 383.34 47.2 385.78 46.42 388.22 46.49 390.67 46.63 393.1 46.87 395.55 47.19 397.99 46.72 400.44 46.41 402.88 47.11 405.33 46.27 407.78 46.9"/><polyline class="h" points="283.34 88.64 285.74 88.49 288.14 88.48 290.54 88.95 292.95 88.24 295.35 89.08 297.75 88.37 300.15 89.1 302.55 88.59 304.95 88.78 307.36 88.92 309.76 88.33 312.16 88.65 314.56 88.5 316.95 89.08 319.35 88.87 321.75 89.16 324.16 88.95 326.56 88.52 328.96 88.86 331.36 89.16 333.76 88.79 336.17 88.84 338.57 88.9 340.97 88.45 343.38 88.46 345.78 89.14 348.19 88.25 350.59 88.33 352.99 88.59 355.4 88.7 357.8 88.91 360.21 88.64 362.62 88.39 365.03 88.37"/><polygon class="n" points="147.96 137.93 145.29 137.74 143.03 136.38 140.86 134.81 139.4 132.57 138.78 129.98 137.85 127.42 136.65 124.97 135.53 122.48 134.15 120.13 132.5 117.92 131.29 115.49 130.47 112.82 128.56 110.8 126.98 108.59 125.41 106.38 124.25 103.86 122.6 101.69 120.33 100.06 118.39 98.18 116.61 96.14 114.73 94.18 112.53 92.59 110.55 90.69 108.32 89.12 105.69 88.26 103.25 87.1 100.81 85.91 98.1 85.53 95.54 84.59 92.84 84.38 90.14 83.86 87.45 84.12 84.74 84.24 82.28 85.59 79.58 85.85 77.08 86.82 74.64 87.94 72.11 88.94 69.92 90.52 67.73 92.09 65.69 93.85 63.93 95.9 61.78 97.53 59.79 99.35 58.17 101.5 56.72 103.78 54.67 105.59 53.78 108.24 51.67 110.06 50.56 112.53 48.74 114.57 47.94 117.2 46.68 119.56 45.3 121.87 44.18 124.31 43.38 126.89 42.28 129.33 41.34 131.84 40.25 134.29 39.71 136.94 38.12 139.24 37.24 141.79 37.22 144.58 36.21 147.08 35.09 149.56 34.88 152.28 33.93 154.82 33.69 157.52 33.48 160.21 32.74 162.8 32.74 165.52 31.78 168.09 31.14 170.71 31.39 173.45 30.77 176.08 30.66 178.77 30.68 181.46 29.58 184.07 29.53 186.76 29.35 189.45 29.69 192.15 29.33 194.83 29.03 197.52 29.76 200.21 29.25 202.9 29.75 205.58 29.99 208.25 29.65 210.95 29.54 213.65 30.59 216.27 30.38 218.97 30.2 221.69 30.75 224.33 31.56 226.94 31.6 229.64 31.34 232.39 32.56 234.91 32.23 237.7 32.83 240.32 33.23 242.99 34.54 245.46 34.79 248.15 35.31 250.79 36.29 253.31 37 255.9 37.39 258.59 38.4 261.09 38.87 263.77 40.48 266.05 41.45 268.54 41.67 271.34 43.12 273.65 44.37 276.03 45.1 278.66 46.36 281.03 48.03 283.19 49.31 285.55 50.63 287.88 51.86 290.28 52.93 292.79 55.32 294.39 56.33 296.99 58.04 299.07 60.04 300.88 61.71 303 63.97 304.52 65.71 306.59 68.09 307.9 69.9 309.97 72.46 310.94 74.63 312.53 77 313.83 79.52 314.8 82.07 315.74 84.72 316.35 87.42 316.61 90.14 316.73 92.86 316.65 95.4 315.38 98.18 315.59 100.81 314.93 103.34 313.94 105.52 312.26 108.26 311.65 110.03 309.43 112.53 308.32 114.67 306.69 116.83 305.05 118.5 302.9 120.1 300.73 121.88 298.74 123.74 296.8 125.46 294.73 126.73 292.35 128.7 290.43 129.76 287.93 130.8 285.44 132.61 283.38 133.95 281.04 135.26 278.69 136.36 276.23 137.25 273.69 137.72 270.98 139.61 268.84 140.28 266.22 140.62 263.5 142.12 261.17 142.49 258.47 142.94 255.81 143.81 253.28 144.73 250.74 145.32 248.13 146.37 245.61 146.77 242.95 147.07 240.27 148.02 237.71 148.34 235.03 148.81 232.39 148.92 229.69 149.59 227.06 149.98 224.4 150.07 221.7 150.16 219.01 150.54 216.34 150.38 213.64 150.98 210.98 150.38 208.26 150.71 205.59 150.88 202.9 150.98 200.21 150.66 197.37 150.89 194.53 150.32 191.71 150.99 188.83 150.42 186.02 149.66 183.23 150.43 180.32 149.12 177.59 150.07 174.97 150.3 172.18 152.19 170.13 154.77 169.23 157.21 168.22 159.9 168.22 162.57 168.11 165.19 167.48 167.88 167.57 170.51 167.04 173.16 166.75 175.78 166.09 178.39 165.47 181.07 165.32 183.79 165.63 186.43 165.14 189.07 164.72 191.72 164.32 194.33 163.66 197.02 163.69 199.71 163.65 202.35 163.18 205.04 163.19 207.68 162.68 210.35 162.43 213.03 162.28 215.65 160.8 215.36 157.95 213.41 156.32 210.84 155.44 208.14 155.01 205.47 154.46 202.82 153.85 200.35 152.58 197.74 151.84 195.2 150.82 192.49 150.43 189.88 149.7 187.22 149.13 184.52 148.67 181.99 147.63 179.37 146.91 176.79 146.05 174.19 145.24 171.36 145.25 168.75 144.49 166.15 143.67 163.59 142.75 160.94 142.11 158.38 141.16 155.63 140.92 153.24 139.3 150.58 138.8 147.96 137.93"/><polygon class="q" points="79.47 213.6 76.67 216.41 73.67 219.48 70.96 222.82 68.22 226.13 65 229 61.79 231.87 58.78 234.93 56.63 238.79 53.52 241.76 50.77 245.08 46.93 247.97 50.98 250.09 54.58 252.08 58.16 254.11 61.74 256.16 65.42 257.99 69.11 259.84 72.93 261.43 76.55 263.38 80.11 265.46 84 266.91 87.44 269.22 90.87 271.55 94.82 272.9 98.15 275.41 102.16 276.66 105.54 279.06 109.4 280.61 112.64 282.82 110.97 279.37 109.09 275.76 107.55 271.98 106.02 268.2 104.3 264.51 102 261.11 100.58 257.28 98.33 253.85 97.03 249.96 95.19 246.33 94.01 242.38 92.11 238.78 89.74 235.4 88.64 231.41 86.72 227.82 84.98 224.14 83.49 220.34 81.42 216.8 79.47 213.6"/><polygon class="l" points="128.63 149.03 122.91 151.84 117.65 155.18 112.35 158.49 106.82 161.37 101.23 164.15 96.16 167.87 90.68 170.85 84.88 173.24 79.56 176.53 74.27 179.86 68.63 182.94 65.82 176.73 62.33 171.11 58.96 165.42 55.33 159.87 52.14 154.29 57.11 150.82 62.54 147.76 67.91 144.58 73.44 141.69 79.3 139.4 84.4 135.74 89.72 132.47 95.38 129.81 100.65 126.45 106.45 124.02 111.59 120.67 114.61 126.44 118.82 131.63 122.06 137.4 124.71 143.53 128.63 149.03"/><polygon class="m" points="134.58 202.29 129.59 216.64 116.49 224.58 101.08 220.72 94.78 206.58 98.28 191.86 111.97 184.57 127.19 188.46 134.58 202.29"/><path class="k" d="m30.26,58.93l-5.12-.79c-.59-.06-.88-.4-.88-1.02v-30.36c0-1.49.75-2.23,2.23-2.23h9.08c9,0,13.5,3.62,13.5,10.85,0,3.76-1.24,6.6-3.72,8.52-2.45,1.92-5.65,2.89-9.59,2.89h-4.61v11.31c0,.62-.3.9-.88.84Zm.88-17.6h4.14c4.69,0,7.03-1.99,7.03-5.96,0-1.92-.61-3.29-1.82-4.1-1.18-.84-3-1.26-5.45-1.26h-2.7c-.81,0-1.21.4-1.21,1.21v10.1Z"/><path class="k" d="m71.46,55.95c-2.45,2.48-5.4,3.72-8.85,3.72s-6.39-1.24-8.85-3.72c-2.45-2.48-3.68-5.8-3.68-9.96s1.23-7.48,3.68-9.96c2.45-2.48,5.4-3.72,8.85-3.72s6.39,1.24,8.85,3.72c2.45,2.48,3.68,5.8,3.68,9.96s-1.23,7.48-3.68,9.96Zm-12.92-4.05c.98,1.46,2.34,2.19,4.07,2.19s3.1-.73,4.07-2.19c.98-1.46,1.47-3.43,1.47-5.91s-.49-4.45-1.47-5.91c-.98-1.46-2.34-2.19-4.07-2.19s-3.1.73-4.07,2.19c-.98,1.46-1.47,3.43-1.47,5.91s.49,4.45,1.47,5.91Z"/><path class="k" d="m88.87,59.68c-3.26,0-5.85-1.21-7.78-3.63-1.92-2.45-2.89-5.8-2.89-10.06s1.09-7.36,3.26-9.87c2.17-2.54,4.73-3.82,7.68-3.82,2.36,0,4.56.95,6.61,2.84l-.23-12.34c0-.62.29-.9.88-.84l5.03.79c.59.06.88.4.88,1.02v34.31c0,.62-.29.88-.88.79l-3.91-.65c-.59-.09-.95-.45-1.07-1.07l-.19-.84c-2.42,2.23-4.89,3.35-7.4,3.35Zm1.77-5.63c1.83,0,3.46-.9,4.89-2.7v-11.45c-1.43-1.3-3.06-1.96-4.89-1.96-1.55,0-2.84.71-3.86,2.14-1.02,1.4-1.54,3.35-1.54,5.87,0,5.4,1.8,8.1,5.4,8.1Z"/><path class="k" d="m119.6,59.68c-3.69,0-6.74-1.23-9.13-3.68-2.39-2.45-3.58-5.79-3.58-10.01s1.29-7.48,3.86-9.96c2.61-2.48,5.76-3.72,9.45-3.72,2.79,0,5.04.76,6.75,2.28.56.4.62.81.19,1.21l-2.89,2.56c-.44.4-.95.43-1.54.09-.12-.37-.84-.56-2.14-.56-2.02,0-3.65.75-4.89,2.23-1.21,1.46-1.82,3.42-1.82,5.87s.61,4.38,1.82,5.87c1.21,1.49,2.76,2.23,4.66,2.23,1.71,0,3.1-.46,4.19-1.4.59-.47.98-.42,1.16.14l1.35,3.49c.19.56.03,1.02-.47,1.4-1.37,1.3-3.69,1.96-6.98,1.96Z"/><path class="k" d="m137.76,59.68c-2.3,0-4.16-.73-5.59-2.19-1.43-1.46-2.14-3.31-2.14-5.54,0-2.79,1.19-4.95,3.58-6.47,2.39-1.55,5.68-2.53,9.87-2.93,1.05-.16,1.49-.75,1.3-1.77.03-1.99-1.37-2.98-4.19-2.98-1.92,0-3.97.64-6.15,1.91-.68.37-1.1.26-1.26-.33l-1.07-3.31c-.16-.59.06-1.04.65-1.35,2.48-1.61,5.51-2.42,9.08-2.42,3.29,0,5.77.98,7.45,2.93,1.71,1.92,2.56,4.78,2.56,8.57v14.29c0,.62-.3.88-.88.79l-3.96-.7c-.59-.09-.93-.45-1.02-1.07l-.19-.88c-2.79,2.3-5.48,3.45-8.05,3.45Zm2.23-5.35c1.61,0,3.31-.85,5.07-2.56v-5.26c-5.68.71-8.52,2.34-8.52,4.89,0,1.96,1.15,2.93,3.45,2.93Z"/><path class="k" d="m165.14,59.68c-1.71,0-3.46-.34-5.26-1.02-1.77-.68-3.09-1.38-3.96-2.1-.47-.37-.47-.76,0-1.16l2.65-2.37c.47-.4.99-.4,1.58,0,1.21,1.02,2.93,1.54,5.17,1.54,2.51,0,3.77-.92,3.77-2.75,0-.43-.12-.82-.37-1.16-.22-.37-.61-.71-1.16-1.02-.53-.31-1.01-.56-1.44-.74-.44-.19-1.06-.43-1.86-.75-.28-.09-.48-.17-.61-.23-2.08-.78-3.77-1.75-5.07-2.93-1.27-1.18-1.91-2.75-1.91-4.7,0-2.36.88-4.27,2.65-5.73,1.77-1.49,4.13-2.23,7.08-2.23s5.73.88,7.96,2.65c.59.37.65.76.19,1.16l-2.7,2.28c-.47.4-.99.44-1.58.09-.78-.71-2-1.07-3.68-1.07-2.33,0-3.49.84-3.49,2.51,0,.78.34,1.4,1.02,1.86.71.43,1.85.93,3.4,1.49.34.12.59.22.75.28,1.05.4,1.92.79,2.61,1.16.71.34,1.46.82,2.23,1.44.81.59,1.41,1.33,1.82,2.24.4.87.61,1.88.61,3.03,0,2.39-.92,4.36-2.75,5.91-1.8,1.55-4.35,2.33-7.64,2.33Z"/><path class="k" d="m188.04,59.68c-5.71,0-8.57-3.26-8.57-9.78v-11.55h-2.75c-.62,0-.88-.29-.79-.88l.7-3.35c.09-.59.45-.92,1.07-.98l2.14-.19.7-6.1c.06-.62.39-.88.98-.79l3.91.7c.59.09.88.45.88,1.07v5.12h5.49c.62,0,.88.3.79.88l-.7,3.63c-.09.59-.45.88-1.07.88h-4.52v11.55c0,2.92,1.18,4.38,3.54,4.38l1.58-.19c.65-.25.98-.06.98.56l.19,3.26c0,.62-.31.99-.93,1.12l-3.63.65Z"/><polygon class="k" points="205.66 305.24 203.03 305.45 200.28 305.57 197.61 305.29 197.77 303.04 197.77 300.71 197.61 298.37 197.34 296.04 197.7 293.7 197.46 291.28 198.07 288.92 198.13 286.49 198.52 284.11 199.26 281.8 199.98 279.5 200.94 277.28 201.91 275.06 203.1 272.95 204.68 271.09 205.99 269.09 207.27 267.04 208.9 265.26 210.39 263.37 211.82 261.42 213.69 259.87 215.24 258.02 217.03 256.42 217.59 255.68 219.56 257.66 221.36 259.74 223.39 261.62 222.69 262.08 221.15 264.02 219.28 265.62 217.67 267.48 216.11 269.37 214.47 271.2 213.05 273.21 211.65 275.23 210.35 277.31 209.14 279.45 208.21 281.73 207.45 284.06 206.4 286.33 206.12 288.79 206.07 291.25 205.8 293.7 205.85 296.03 205.67 298.36 205.67 300.7 205.91 303.04 205.66 305.24"/><polygon class="k" points="246.56 237.66 244.78 235.83 242.88 234.14 240.7 232.8 238.64 231.3 236.8 229.53 234.74 228.02 232.79 226.38 230.71 225.48 228.45 225.71 226.59 227.05 225.03 228.79 223.57 230.63 222.4 232.69 220.78 234.39 219.42 236.29 217.76 237.97 216.63 240.06 215.16 241.89 213.66 243.69 212.13 245.47 210.56 247.22 209.25 249.19 207.57 250.85 206.69 253 206.82 255.34 208.46 256.97 210.44 258.55 212.29 260.31 214.28 261.89 216.44 263.26 218.35 264.95 220.27 266.63 222.32 268.14 224.38 269.05 226.53 268.56 228.37 267.4 229.7 265.46 231.21 263.67 232.68 261.85 234.2 260.06 235.54 258.14 237.09 256.38 238.79 254.75 240.11 252.8 241.51 250.92 243 249.11 244.29 247.13 245.79 245.32 247.33 243.54 248.33 241.54 248.14 239.26 246.56 237.66"/><polygon class="o" points="218.69 279.62 217.08 277.79 214.93 276.64 213.29 274.86 211.3 273.5 209.37 272.08 207.69 270.34 205.52 269.2 203.81 267.5 201.99 265.93 200.01 264.55 198.26 262.88 197.02 261.08 197.84 259.07 199.24 256.78 201.08 254.85 202.59 252.65 204.38 250.67 206.28 249.76 208.24 250.33 210.16 251.77 212.23 253.01 214.1 254.51 215.92 256.08 217.88 257.47 219.52 259.26 221.65 260.44 223.49 261.98 225.44 263.4 227.05 265.24 229.1 266.54 230.09 268.54 229.53 270.67 227.69 272.61 226.38 274.97 224.63 276.98 222.93 279.03 220.98 280.3 218.69 279.62"/><polygon class="o" points="218.81 320.18 216.9 320.26 214.99 320.07 212.34 319.09 211.5 316.44 211.35 313.97 211.46 311.51 211.39 309.04 211.52 306.57 211.2 304.1 211.55 301.63 210.18 299.18 207.73 297.81 205.3 298.18 202.87 297.8 200.44 298.22 198.01 298.13 195.58 298.22 193.1 299.16 192.04 301.63 191.92 304.09 192 306.56 191.92 309.03 191.81 311.49 192.05 313.97 191.89 316.44 190.96 319.08 188.32 320.07 186.41 319.88 184.5 320.05 181.55 321.24 180.61 323.56 180.27 326 181.38 328.16 182.99 330.03 185.46 330.4 187.95 330.42 190.44 330.54 192.93 330.44 195.42 330.36 197.91 330.23 200.4 330.35 202.89 330.69 205.38 330.55 207.87 330.59 210.36 330.69 212.86 330.52 215.35 330.31 217.85 330.58 220.16 329.74 222.13 328.3 222.99 325.99 222.79 323.54 221.79 321.22 218.81 320.18"/><polygon class="q" points="204.94 305.37 204.04 307.76 201.65 308.58 199.17 307.86 198.18 305.37 199.2 302.92 201.65 301.94 204.16 302.87 204.94 305.37"/><polygon class="q" points="217.17 265.05 215.65 267.16 213.37 268.22 211.02 267.05 210.33 264.58 211.53 262.42 213.82 261.64 216.09 262.64 217.17 265.05"/></g></svg>