<svg xmlns="http://www.w3.org/2000/svg" viewBox="0 0 102.83 102.83"><defs><style>.cls-1{fill:#f56977;}.cls-2{fill:#fff;}.cls-3{fill:#211815;}.cls-4{fill:#f8c341;}</style></defs><g id="圖"><path class="cls-1" d="M53.73,79.88a2.9,2.9,0,0,1-2.88,2.91A3.79,3.79,0,0,0,47,86.07a3.64,3.64,0,0,0,3.64,4l5.53,0A4.85,4.85,0,0,0,61,85.16L60.93,65l-7.28,0Z"/><path class="cls-1" d="M79.41,79.88a2.89,2.89,0,0,0,2.87,2.91,3.78,3.78,0,0,1,3.81,3.28,3.64,3.64,0,0,1-3.64,4l-5.53,0a4.85,4.85,0,0,1-4.82-4.88L72.2,65l7.28,0Z"/><polygon class="cls-1" points="66.08 28.85 60.94 26.68 55.99 24.2 50.81 22.25 45.67 20.21 40.7 17.79 35.6 15.64 30.44 13.66 25.45 11.27 20.39 9.46 20.36 15.19 20.46 21.07 20.27 26.96 20.29 32.85 20.44 38.74 20.53 44.63 20.3 50.52 20.25 56.41 20.53 62.3 20.56 68.19 20.32 74.08 20.31 79.97 20.45 85.8 25.53 83.77 30.61 81.6 35.72 79.48 40.74 77.17 45.83 75.02 50.96 72.96 56.04 70.77 61.11 68.58 66.17 66.47 71.66 67.75 77.2 69.07 82.6 70.9 88.11 72.29 93.62 73.6 93.78 67.82 93.51 62.01 93.66 56.21 93.43 50.4 93.6 44.59 93.65 38.78 93.41 32.98 93.48 27.17 93.59 21.31 88.05 22.77 82.62 24.49 77.09 25.8 71.57 27.15 66.08 28.85"/><path class="cls-2" d="M57.41,42.94c0,3.54-.9,7.38-4.74,7.38S47.91,46.66,47.9,43s2.12-5.39,4.75-5.39S57.41,39.4,57.41,42.94Z"/><path class="cls-3" d="M55.81,44.71c0,2.35-.6,4.89-3.14,4.89s-3.16-2.43-3.16-4.88,1.4-3.57,3.14-3.57S55.81,42.36,55.81,44.71Z"/><path class="cls-2" d="M81.83,42.9c0,3.54-.9,7.37-4.74,7.38s-4.76-3.66-4.77-7.37,2.12-5.38,4.75-5.38S81.82,39.36,81.83,42.9Z"/><path class="cls-3" d="M80.23,44.71c0,2.35-.6,4.89-3.14,4.89s-3.16-2.43-3.16-4.88,1.4-3.57,3.14-3.57S80.23,42.36,80.23,44.71Z"/><path class="cls-2" d="M70.57,54.52c0,2.1-1,4.36-4.32,4.36a4.07,4.07,0,0,1-4.33-4.36"/><path d="M66.25,59.62a4.8,4.8,0,0,1-5.07-5.13.7.7,0,0,1,.77-.71.74.74,0,0,1,.71.77,3.53,3.53,0,0,0,.92,2.58,3.6,3.6,0,0,0,2.67,1c3.11,0,3.58-2.27,3.58-3.62a.74.74,0,1,1,1.48,0C71.31,57,70,59.62,66.25,59.62Z"/><path d="M66.59,56a12.22,12.22,0,0,1-6.47-1.84A.74.74,0,1,1,61,52.93a11,11,0,0,0,9.36.9.74.74,0,0,1,1,.43.76.76,0,0,1-.44,1A12.16,12.16,0,0,1,66.59,56Z"/><ellipse class="cls-4" cx="23.94" cy="47.27" rx="17.1" ry="12.26"/><path class="cls-4" d="M32.54,55.53s2.35,5,7.81,4.62a.73.73,0,0,0,.46-1.26A5.72,5.72,0,0,1,39,53.3"/><path class="cls-2" d="M34,48.33H15.41a.76.76,0,0,1-.76-.76.75.75,0,0,1,.76-.75H34a.74.74,0,0,1,.75.75A.75.75,0,0,1,34,48.33Z"/><path class="cls-2" d="M34,43H15.41a.76.76,0,1,1,0-1.51H34A.76.76,0,0,1,34,43Z"/><path class="cls-2" d="M27.6,53.64H15.41a.76.76,0,0,1,0-1.52H27.6a.76.76,0,0,1,0,1.52Z"/></g></svg>