<svg xmlns="http://www.w3.org/2000/svg" viewBox="0 0 102.83 102.83"><defs><style>.cls-1{fill:#f56977;}.cls-2{fill:#fff;}.cls-3{fill:#211815;}.cls-4{fill:#27b5f7;}.cls-5{fill:#fae7e7;}</style></defs><g id="圖"><path class="cls-1" d="M43.62,55.46A1.8,1.8,0,0,1,43.36,58a2.35,2.35,0,0,0-.58,3.07,2.27,2.27,0,0,0,3.32.53l2.67-2.16a3,3,0,0,0,.45-4.25l-7.86-9.73-3.52,2.84Z"/><path class="cls-1" d="M56.13,48.35a1.81,1.81,0,0,0,2.36,1,2.35,2.35,0,0,1,3,.94,2.27,2.27,0,0,1-1.11,3.18l-3.17,1.33a3,3,0,0,1-3.95-1.61L48.39,41.62l4.17-1.75Z"/><polygon class="cls-1" points="34.56 27.22 31.14 27.77 27.7 28.08 24.33 28.75 20.95 29.36 17.52 29.72 14.13 30.25 10.75 30.9 7.33 31.28 4.06 31.98 5.93 35.02 7.92 38.09 9.74 41.27 11.69 44.37 13.71 47.43 15.68 50.52 17.5 53.7 19.41 56.83 21.49 59.85 23.44 62.95 25.24 66.14 27.17 69.25 29.16 72.29 31.18 69.55 33.15 66.73 35.15 63.94 37.04 61.07 39.02 58.26 41.06 55.49 43.02 52.66 44.98 49.84 46.96 47.06 50.28 45.94 53.64 44.81 57.09 44.01 60.46 42.93 63.8 41.82 61.99 38.71 59.94 35.73 58.11 32.62 56.08 29.63 54.27 26.5 52.39 23.42 50.35 20.43 48.48 17.34 46.62 14.21 44.17 16.8 41.87 19.49 39.38 22 36.9 24.52 34.56 27.22"/><path class="cls-2" d="M34.61,37.51c1.17,1.87,2,4.19-.08,5.46s-3.72-.38-4.94-2.33-.64-3.54.74-4.4S33.44,35.64,34.61,37.51Z"/><path class="cls-3" d="M33.88,38.22c.77,1.24,1.29,2.78-.06,3.61s-2.46-.24-3.27-1.54A1.93,1.93,0,0,1,31,37.37,2,2,0,0,1,33.88,38.22Z"/><path class="cls-2" d="M47.49,29.47c1.17,1.87,1.95,4.19-.08,5.46s-3.71-.38-4.93-2.33-.65-3.54.73-4.4S46.33,27.6,47.49,29.47Z"/><path class="cls-3" d="M46.76,30.18c.77,1.24,1.29,2.78,0,3.61s-2.47-.24-3.28-1.54a1.94,1.94,0,0,1,.49-2.92A2,2,0,0,1,46.76,30.18Z"/><path d="M42.34,43.65h-.17l-2-.13a.73.73,0,0,1-.69-.79.76.76,0,0,1,.79-.69l2,.14a1.06,1.06,0,0,0,1-.66l.63-1.7a.73.73,0,0,1,.95-.44.75.75,0,0,1,.44,1L44.68,42A2.51,2.51,0,0,1,42.34,43.65Z"/><path class="cls-4" d="M97.07,87.3C77.59,96,59.82,96,40.32,87.3L44,67.39c1-6.28,6.38-14,12.74-14H80.66c6.36,0,11.77,7.77,12.74,14Z"/><path class="cls-5" d="M82.43,34.45C82.43,23.07,76.28,19,68.69,19S55,23.07,55,34.45a15.74,15.74,0,0,0,7.4,13.68l.07,0A1.38,1.38,0,0,1,63,49.59l-.8,3.9a3.68,3.68,0,0,0,3.78,3.56H72A3.15,3.15,0,0,0,75.24,54l-.81-4.43a1.41,1.41,0,0,1,.46-1.33l.15-.11A15.74,15.74,0,0,0,82.43,34.45Z"/><ellipse cx="63.77" cy="30.95" rx="0.85" ry="1.79"/><ellipse cx="73.14" cy="30.95" rx="0.85" ry="1.79"/><path d="M68.5,35.87a.6.6,0,0,1-.6-.6V27.54a.6.6,0,1,1,1.2,0v7.73A.6.6,0,0,1,68.5,35.87Z"/><path d="M67.52,40.83a7.65,7.65,0,0,1-2.16-.29.6.6,0,0,1,.38-1.14,5.78,5.78,0,0,0,6.87-2.84.6.6,0,1,1,1,.57A6.66,6.66,0,0,1,67.52,40.83Z"/></g></svg>