<svg xmlns="http://www.w3.org/2000/svg" viewBox="0 0 102.83 102.83"><defs><style>.cls-1{fill:#f56977;}.cls-2{fill:#fff;}.cls-3{fill:#211815;}.cls-4{fill:#f8c341;}.cls-5{fill:#fae7e7;}.cls-6{fill:#27b5f7;}</style></defs><g id="圖"><path class="cls-1" d="M52.33,79.89a2.89,2.89,0,0,1-2.88,2.91,3.79,3.79,0,0,0-3.81,3.28,3.65,3.65,0,0,0,3.65,4l5.52,0a4.86,4.86,0,0,0,4.83-4.88L59.54,65l-7.28,0Z"/><path class="cls-1" d="M78,79.89a2.89,2.89,0,0,0,2.88,2.91,3.79,3.79,0,0,1,3.81,3.28,3.65,3.65,0,0,1-3.65,4l-5.52,0a4.86,4.86,0,0,1-4.83-4.88L70.8,65l7.28,0Z"/><polygon class="cls-1" points="64.69 28.86 59.54 26.69 54.59 24.21 49.42 22.25 44.27 20.22 39.3 17.8 34.21 15.64 29.04 13.66 24.05 11.28 19 9.47 18.97 15.2 19.07 21.08 18.87 26.97 18.89 32.86 19.05 38.75 19.13 44.64 18.91 50.53 18.85 56.42 19.14 62.31 19.17 68.2 18.92 74.09 18.91 79.98 19.06 85.81 24.13 83.78 29.21 81.61 34.32 79.49 39.34 77.18 44.43 75.03 49.56 72.97 54.64 70.78 59.71 68.58 64.77 66.48 70.26 67.76 75.8 69.08 81.2 70.91 86.72 72.3 92.22 73.61 92.38 67.83 92.11 62.02 92.26 56.22 92.03 50.41 92.2 44.6 92.26 38.79 92.02 32.98 92.08 27.18 92.19 21.32 86.65 22.78 81.23 24.5 75.69 25.8 70.17 27.16 64.69 28.86"/><path class="cls-2" d="M56,43c0,3.54-.91,7.37-4.75,7.38S46.51,46.67,46.51,43s2.12-5.39,4.74-5.39S56,39.41,56,43Z"/><path class="cls-3" d="M53.85,44.69c0,2.35-.6,4.89-3.14,4.9s-3.16-2.43-3.16-4.89,1.4-3.57,3.14-3.57S53.85,42.34,53.85,44.69Z"/><path class="cls-2" d="M80.43,42.91c0,3.54-.9,7.37-4.74,7.38s-4.76-3.67-4.76-7.37,2.12-5.38,4.74-5.39S80.43,39.36,80.43,42.91Z"/><path class="cls-3" d="M78.27,44.65c0,2.35-.6,4.89-3.14,4.89S72,47.11,72,44.66s1.4-3.57,3.14-3.57S78.27,42.3,78.27,44.65Z"/><path d="M64.61,57.36a10.83,10.83,0,0,1-5.55-1.68.74.74,0,0,1,.85-1.22c.21.15,5,3.43,9.4-.46a.74.74,0,0,1,1,.06.75.75,0,0,1-.06,1A8.36,8.36,0,0,1,64.61,57.36Z"/><path d="M70.62,56.74a.74.74,0,0,1-.65-.38l-1.62-2.89a.74.74,0,0,1,.28-1,.75.75,0,0,1,1,.28l1.62,2.9a.74.74,0,0,1-.28,1A.8.8,0,0,1,70.62,56.74Z"/><polygon class="cls-4" points="15.25 32.46 10.62 34.48 6.82 38.39 26.19 82.84 40.09 76.78 20.71 32.33 15.25 32.46"/><polygon class="cls-5" points="26.19 82.84 30 78.93 34.63 76.91 40.09 76.78 37.75 90.39 26.19 82.84"/><polygon class="cls-3" points="34.15 88.04 35.34 86.82 36.78 86.19 38.48 86.15 37.75 90.39 34.15 88.04"/><rect class="cls-6" x="20.1" y="31.45" width="5.05" height="48.49" transform="translate(-20.37 13.68) rotate(-23.55)"/></g></svg>