<svg viewBox="0 0 868.34 84.78" xmlns="http://www.w3.org/2000/svg"><path d="m406 20.85h-17.28v30.24h50.72v-30.24h-23.37a1.22 1.22 0 0 1 -1.13-1.68l.06-.17a2.44 2.44 0 0 1 2.26-1.52h25.84v-6h-11.62a1.22 1.22 0 0 1 -1.22-1.22v-3.56h-6.84v3.52a1.22 1.22 0 0 1 -1.22 1.22h-16.35a1.21 1.21 0 0 1 -1.22-1.22v-3.52h-6.85v3.52a1.21 1.21 0 0 1 -1.22 1.22h-11.65v6h22.32a1.22 1.22 0 0 1 1.13 1.68l-.09.23a2.44 2.44 0 0 1 -2.27 1.5zm-9.84 13.71h35.95a1.22 1.22 0 0 1 1.22 1.22v.51a1.22 1.22 0 0 1 -1.22 1.22h-35.94a1.22 1.22 0 0 1 -1.17-1.22v-.51a1.22 1.22 0 0 1 1.17-1.22zm-1.16 9.2v-.14a1.22 1.22 0 0 1 1.22-1.22h35.95a1.22 1.22 0 0 1 1.22 1.22v.14a1.22 1.22 0 0 1 -1.27 1.24h-35.95a1.22 1.22 0 0 1 -1.17-1.24zm37.17-14.09h-36a1.22 1.22 0 0 1 -1.17-1.22v-.27a1.22 1.22 0 0 1 1.17-1.18h35.95a1.22 1.22 0 0 1 1.22 1.22v.27a1.22 1.22 0 0 1 -1.22 1.18z"/><path d="m375.16 24h7.45c0-10.2-4.4-14.6-15.18-14.6v7.21c3.8 0 4.79.39 6 1.5.75.7 1.73 1.39 1.73 5.89z"/><path d="m433.21 63.48a1.23 1.23 0 0 1 -1.21-1.23v-1a1.22 1.22 0 0 1 1.21-1.25h9.92v-6.34h-46.44c-13 0-13.34-3.9-13.34-8.15v-8.93a9.77 9.77 0 0 0 -9.78-9.77h-7.46v7.08h6.36a3.67 3.67 0 0 1 3.67 3.67v6.85c0 5.65-3.11 8.4-10.24 8.4v7.19c5.64 0 10-1.47 12.84-4.36a1.21 1.21 0 0 1 1.66 0c4.13 3.78 10.79 4.4 16.29 4.4h27.24a1.22 1.22 0 0 1 1.22 1.22v1.14a1.13 1.13 0 0 1 -1.22 1.1l-57.82.12v6.38h8.38a1.84 1.84 0 0 1 1.83 1.72c.46 8.15 3.64 12.08 12.23 12.08h4.9v-6.6h-4.53c-4.05 0-5.14-2.78-5.39-5.88a1.22 1.22 0 0 1 1.22-1.32h39.18a1.22 1.22 0 0 1 1.22 1.22v2.19a3.66 3.66 0 0 1 -3.66 3.59h-17.6v6.72h19.55a8.55 8.55 0 0 0 8.56-8.52v-4a1.22 1.22 0 0 1 1.21-1.2h10.26v-6.52z"/><path d="m345.83 69.38a2.12 2.12 0 0 1 -.18-2.58c4.47-6.85 8.53-19.54 8.77-28.67l.09-3.74h-29a1.23 1.23 0 0 1 -1.22-1.23v-16a1.22 1.22 0 0 1 1.22-1.22h18.86a1.23 1.23 0 0 1 1.23 1.22v2.63a3.67 3.67 0 0 1 -3.6 3.66h-11v7.21h12.06a9.77 9.77 0 0 0 9.77-9.78v-11.88h-36.07v74.81h7.33v-40.9a1.11 1.11 0 0 1 1.1-1.11 1.1 1.1 0 0 1 1.11 1c.69 7.84 3.46 17.61 8.11 24.38a2.29 2.29 0 0 1 -.19 2.79 40 40 0 0 1 -9.3 7.89l3.18 6.06a54.47 54.47 0 0 0 11.35-9.47 1.25 1.25 0 0 1 1.84 0 78.29 78.29 0 0 0 10.38 9.55l4.1-5.56a68.39 68.39 0 0 1 -9.94-9.06zm-11.42-28h11.42a1.22 1.22 0 0 1 1.21 1.4 62.36 62.36 0 0 1 -6 18.64 1.23 1.23 0 0 1 -2.12.05c-2.52-4.22-5-12.38-5.73-18.74a1.22 1.22 0 0 1 1.22-1.36z"/><path d="m301.13 56.43h13.33v-6.85h-5.84a1.22 1.22 0 0 1 -1.22-1.34l1.17-11.24a1.22 1.22 0 0 1 1.22-1.09h4.67v-7h-13.46a1.22 1.22 0 0 1 -1.22-1.22v-6.16a1.22 1.22 0 0 1 1.22-1.22h12.91v-6.72h-12.91a1.22 1.22 0 0 1 -1.22-1.22v-6.12h-7.68v6.12a1.23 1.23 0 0 1 -1.23 1.22h-11.87v6.72h11.87a1.22 1.22 0 0 1 1.23 1.22v6.15a1.22 1.22 0 0 1 -1.23 1.22h-13.32v7h4.78a1.23 1.23 0 0 1 1.22 1.1l1.1 11.27a1.22 1.22 0 0 1 -1.22 1.34h-5.88v6.85h13.45a1.22 1.22 0 0 1 1.22 1.22v4.82a1.22 1.22 0 0 1 -1.22 1.22h-12.33v6.84h12.33a1.22 1.22 0 0 1 1.22 1.22v12.22h7.69v-12.22a1.22 1.22 0 0 1 1.22-1.22h13.46v-6.84h-13.46a1.22 1.22 0 0 1 -1.22-1.22v-4.85a1.22 1.22 0 0 1 1.22-1.22zm-8.86-20.56h7.73a1.21 1.21 0 0 1 1.21 1.34l-1.21 11.28a1.21 1.21 0 0 1 -1.21 1.09h-5.43a1.21 1.21 0 0 1 -1.21-1.1l-1.11-11.27a1.22 1.22 0 0 1 1.23-1.34z"/><path d="m530.7 35.52v-7h-17.84a.61.61 0 0 1 -.35-1.11 89 89 0 0 0 17.79-16.54l-6.09-4.62c-1.14 1.43-2.36 2.85-3.64 4.24a3.69 3.69 0 0 1 -2.71 1.2h-22a1.22 1.22 0 0 1 -1.22-1.22v-4.26h-7.64v4.26a1.22 1.22 0 0 1 -1.22 1.22h-24.93v7h24.79a1.22 1.22 0 0 1 1.22 1.22v7.46a1.22 1.22 0 0 1 -1.22 1.22h-32.83v7h29.8a.61.61 0 0 1 .22 1.18 135.62 135.62 0 0 1 -31.92 8.47l.82 7.13a82.12 82.12 0 0 0 8.59-1.51 1.23 1.23 0 0 1 1.49 1.2v32.72h7.57v-2a1.22 1.22 0 0 1 1.22-1.22h47.22a1.23 1.23 0 0 1 1.23 1.22v2h7.32v-40.93h-39.31a.61.61 0 0 1 -.24-1.17 137.67 137.67 0 0 0 13.29-6.36 6.56 6.56 0 0 1 3.13-.8zm-61.32 37.85v-6.29a1.22 1.22 0 0 1 1.22-1.22h47.22a1.23 1.23 0 0 1 1.23 1.22v6.29a1.23 1.23 0 0 1 -1.23 1.23h-47.22a1.23 1.23 0 0 1 -1.22-1.23zm48.44-14.71h-47.22a1.23 1.23 0 0 1 -1.22-1.23v-5.27a1.22 1.22 0 0 1 1.22-1.22h47.22a1.22 1.22 0 0 1 1.23 1.22v5.27a1.23 1.23 0 0 1 -1.23 1.23zm-21.8-40h15.23a.61.61 0 0 1 .38 1.09c-4 3.23-7.76 5.14-12.61 7.94a6 6 0 0 1 -3.12.87h.1a1.22 1.22 0 0 1 -1.22-1.22v-7.47a1.22 1.22 0 0 1 1.22-1.22z"/><path d="m244.24 39.31h21.26v-7.58h-21.26a1.21 1.21 0 0 1 -1.24-1.22v-9.75a1.22 1.22 0 0 1 1.22-1.22h23.18v-7.54h-55.4a1.22 1.22 0 0 1 -1.2-1.4 35.34 35.34 0 0 0 .34-4.6h-8.14a31.21 31.21 0 0 1 -1.59 9.06c-1.89 5.4-4.7 6.35-9.45 6.63v8.23c6.13 0 12.63-2.74 15.78-8.48a3.59 3.59 0 0 1 3.14-1.9h22.41a1.23 1.23 0 0 1 1.23 1.22v9.75a1.22 1.22 0 0 1 -1.23 1.22h-21.83a9.77 9.77 0 0 0 -9.77 9.78v20.07a1.22 1.22 0 0 1 -1.22 1.22h-9.91v7.7h42.68a1.23 1.23 0 0 1 1.23 1.22v13h8.53v-13a1.22 1.22 0 0 1 1.22-1.22h24.52v-7.7h-24.5a1.21 1.21 0 0 1 -1.24-1.22v-21a1.22 1.22 0 0 1 1.24-1.27zm-34.24 22.27v-18.58a3.67 3.67 0 0 1 3.67-3.66h19.58a1.23 1.23 0 0 1 1.23 1.22v21a1.22 1.22 0 0 1 -1.23 1.22h-22a1.22 1.22 0 0 1 -1.25-1.2z"/><path d="m157.31 18.29a67.27 67.27 0 0 1 6.14 7.9 12.36 12.36 0 0 1 2.19 7.38 47.63 47.63 0 0 1 -3.54 16.54c-3.69 9.33-8.66 14.31-18.94 19.27-10.59 5.11-24.64 5.62-35.46 5.62v8.3c11.46 0 26.16-.53 38.1-5.62 19-8.11 24.87-22.44 26.67-34.88a1.22 1.22 0 0 1 2.26-.45c1.88 3.18 3.4 6 4.29 7.82l7.15-3.22c-3.3-7-15.28-26.4-22.35-33.67z"/><path d="m123.07 59.47h15.52a9.78 9.78 0 0 0 9.78-9.77v-43.39h-8.68v41.31a3.67 3.67 0 0 1 -3.69 3.67h-13z"/><path d="m128.14 17.26-8-2.42c-3 10.84-8.21 20.28-16.92 30.6l6.7 5c9.33-11.13 14.96-21.35 18.22-33.18z"/><path d="m556.39 19.9v19.36h5.07v-19.36a2.15 2.15 0 0 1 2.15-2.15h6.81v-4.25h-23v4.25h6.81a2.15 2.15 0 0 1 2.16 2.15z"/><path d="m583 23.8a2.15 2.15 0 0 1 -2.15-2.15v-8.15h-5.06v25.76h5.06v-9.06a2.16 2.16 0 0 1 2.15-2.15h7.63a2.16 2.16 0 0 1 2.15 2.15v9.06h5.06v-25.76h-5.04v8.15a2.15 2.15 0 0 1 -2.15 2.15z"/><path d="m610.11 32.86v-2.74a2.15 2.15 0 0 1 2.15-2.12h12v-4.24h-12a2.15 2.15 0 0 1 -2.15-2.15v-1.71a2.15 2.15 0 0 1 2.15-2.15h12.8v-4.25h-20.06v25.76h20.59v-4.26h-13.33a2.15 2.15 0 0 1 -2.15-2.14z"/><path d="m660 31.85a1.25 1.25 0 0 1 .53-.81 9.15 9.15 0 0 0 4.06-7.64c0-6-4.53-9.9-11.54-9.9h-11.05v25.76h5.06v-3.84a2.15 2.15 0 0 1 2.15-2.15h3.26a10.14 10.14 0 0 0 1.1-.06 2.19 2.19 0 0 1 2 1l3.43 5.05h5.77l-4.58-6.48a1.22 1.22 0 0 1 -.19-.93zm-6.83-2.85h-4a2.15 2.15 0 0 1 -2.15-2.15v-7a2.15 2.15 0 0 1 2.15-2.15h4a5.67 5.67 0 1 1 0 11.32z"/><path d="m675.94 32.86v-2.74a2.16 2.16 0 0 1 2.15-2.12h12v-4.24h-12a2.15 2.15 0 0 1 -2.15-2.15v-1.71a2.15 2.15 0 0 1 2.15-2.15h12.81v-4.25h-20v25.76h20.59v-4.26h-13.4a2.15 2.15 0 0 1 -2.15-2.14z"/><path d="m697.83 13.5v25.76h5.06v-3.88a2.15 2.15 0 0 1 2.11-2.15h3.75c7 0 11.54-3.87 11.54-9.87s-4.51-9.86-11.5-9.86zm17.17 9.86a5.57 5.57 0 0 1 -5.9 5.62h-4a2.15 2.15 0 0 1 -2.15-2.15v-6.93a2.15 2.15 0 0 1 2.05-2.15h4.08a5.55 5.55 0 0 1 5.92 5.61z"/><path d="m738.35 13.09c-7.79 0-13.66 5.71-13.66 13.29s5.87 13.33 13.66 13.33 13.65-5.71 13.65-13.33-5.87-13.29-13.65-13.29zm0 22.08c-4.79 0-8.39-3.78-8.39-8.79a8.49 8.49 0 0 1 8.39-8.76c4.73 0 8.3 3.77 8.3 8.76s-3.53 8.79-8.26 8.79z"/><path d="m775.86 31.85a1.25 1.25 0 0 1 .53-.81 9.15 9.15 0 0 0 4.06-7.64c0-6-4.53-9.9-11.54-9.9h-11v25.76h5.09v-3.84a2.15 2.15 0 0 1 2.15-2.15h3.26a10.14 10.14 0 0 0 1.1-.06 2.18 2.18 0 0 1 2 1l3.35 5.09h5.77l-4.58-6.48a1.22 1.22 0 0 1 -.19-.97zm-6.78-2.85h-4a2.15 2.15 0 0 1 -2.08-2.13v-7a2.15 2.15 0 0 1 2.15-2.15h4a5.67 5.67 0 1 1 0 11.32z"/><path d="m792.88 19.9v19.36h5.06v-19.36a2.15 2.15 0 0 1 2.15-2.15h6.81v-4.25h-23v4.25h6.82a2.15 2.15 0 0 1 2.16 2.15z"/><path d="m817.65 32.86v-2.74a2.16 2.16 0 0 1 2.15-2.12h12v-4.24h-12a2.15 2.15 0 0 1 -2.15-2.15v-1.71a2.15 2.15 0 0 1 2.15-2.15h12.81v-4.25h-20v25.76h20.59v-4.26h-13.4a2.15 2.15 0 0 1 -2.15-2.14z"/><path d="m856.9 31.85a1.25 1.25 0 0 1 .53-.81 9.15 9.15 0 0 0 4.06-7.64c0-6-4.53-9.9-11.54-9.9h-11v25.76h5.05v-3.84a2.15 2.15 0 0 1 2.15-2.15h3.26a10.42 10.42 0 0 0 1.1-.06 2.19 2.19 0 0 1 2 1l3.35 5.09h5.77l-4.58-6.48a1.22 1.22 0 0 1 -.15-.97zm-6.79-2.85h-4a2.15 2.15 0 0 1 -2.11-2.13v-7a2.15 2.15 0 0 1 2.15-2.15h4a5.67 5.67 0 1 1 0 11.32z"/><path d="m558 71.08h9.83v-4.21h-9.83a2.15 2.15 0 0 1 -2.15-2.15v-1.72a2.15 2.15 0 0 1 2.15-2.15h12v-4.25h-19.18v25.76h5.07v-9.13a2.15 2.15 0 0 1 2.11-2.15z"/><path d="m586.51 56.19c-7.79 0-13.66 5.71-13.66 13.29s5.87 13.33 13.66 13.33 13.65-5.73 13.65-13.33-5.87-13.29-13.65-13.29zm0 22.09c-4.78 0-8.39-3.78-8.39-8.8a8.49 8.49 0 0 1 8.39-8.75c4.73 0 8.31 3.76 8.31 8.75s-3.54 8.8-8.27 8.8z"/><path d="m622.7 75a1.22 1.22 0 0 1 .53-.81 9.17 9.17 0 0 0 4.06-7.64c0-6-4.53-9.91-11.54-9.91h-11v25.72h5.07v-3.84a2.15 2.15 0 0 1 2.18-2.15h3.26a10.35 10.35 0 0 0 1.1-.05 2.17 2.17 0 0 1 2 1l3.35 5.09h5.77l-4.58-6.47a1.24 1.24 0 0 1 -.2-.94zm-6.79-2.84h-3.91a2.15 2.15 0 0 1 -2.19-2.16v-7a2.15 2.15 0 0 1 2.19-2.19h4a5.66 5.66 0 1 1 0 11.31z"/><path d="m659.28 67 8-10.36h-5.9l-8.38 11.03c-.3.4-.65.88-1 1.35a1 1 0 0 1 -1.78-.57v-11.85h-5.11v25.76h5.11v-2.9a4 4 0 0 1 .89-2.53l2.21-2.7a2 2 0 0 1 1.71-.77 2.09 2.09 0 0 1 1.65.89l5.66 8h5.92l-9-12.56a2.37 2.37 0 0 1 .02-2.79z"/><path d="m673.29 56.6h5.11v25.76h-5.11z"/><path d="m686.38 56.6v25.76h10.11c7.86 0 13.57-5.41 13.57-12.88s-5.71-12.88-13.57-12.88zm18.3 12.88a8.1 8.1 0 0 1 -8.43 8.5h-2.39a2.41 2.41 0 0 1 -2.38-2.43v-12.14a2.41 2.41 0 0 1 2.38-2.41h2.39a8.1 8.1 0 0 1 8.43 8.48z"/><path d="m723.28 66.72c-2.51-.59-4.59-1.22-4.59-3.09 0-2.13 2.7-2.7 4.13-2.7a14.2 14.2 0 0 1 7.3 2l1.88-3.93a16.12 16.12 0 0 0 -9.13-2.6c-6.47 0-9.36 3.62-9.36 7.21 0 5.23 5 6.82 9.61 7.89h.16c2.26.56 4.59 1.13 4.59 3.25s-2.58 3.26-5 3.26a13.55 13.55 0 0 1 -8.39-2.71l-1.83 3.88c1.44 1.16 4.33 3.34 10.22 3.34 5.15 0 10.35-2.4 10.35-7.77-.05-5-4.8-6.82-9.94-8.03z"/><g fill="#f56977"><path d="m64.58 74a3 3 0 0 1 -3 3 4 4 0 0 0 -4 3.44 3.83 3.83 0 0 0 3.82 4.21h5.81a5.09 5.09 0 0 0 5.08-5.11l-.07-21.13h-7.65z"/><path d="m42.61 74a3 3 0 0 1 -3 3 4 4 0 0 0 -4 3.44 3.83 3.83 0 0 0 3.82 4.21h5.81a5.1 5.1 0 0 0 5.08-5.11l-.07-21.15h-7.65z"/><path d="m56.86 20.46-5.4-2.29-5.19-2.61-5.44-2.07-5.4-2.14-5.22-2.56-5.35-2.27-5.42-2.09-5.24-2.52-5.31-1.91-.03 6.02.09 6.18-.22 6.19.01 6.19.15 6.19.08 6.18-.24 6.19-.07 6.19.28 6.19.02 6.19-.26 6.19-.02 6.19.14 6.12 5.33-2.12 5.34-2.27 5.37-2.22 5.28-2.42 5.36-2.25 5.39-2.16 5.34-2.29 5.34-2.29 5.32-2.21 5.76 1.36 5.82 1.39 5.67 1.94 5.79 1.47 5.79 1.39.17-6.08-.27-6.1.16-6.1-.22-6.1.19-6.1.06-6.1-.24-6.11.08-6.1.13-6.15-5.83 1.52-5.7 1.79-5.81 1.37-5.81 1.41z"/></g><path d="m47.73 35.25c0 3.72-1 7.74-5 7.74s-5-3.86-5-7.74 2.24-5.66 5-5.66 5 1.93 5 5.66z" fill="#fff"/><path d="m46.05 35.6c0 2.47-.64 5.14-3.32 5.14s-3.31-2.56-3.31-5.14 1.48-3.75 3.31-3.75 3.32 1.28 3.32 3.75z"/><path d="m73.38 35.25c0 3.72-1 7.74-5 7.74s-5-3.86-5-7.74 2.23-5.66 5-5.66 5 1.93 5 5.66z" fill="#fff"/><path d="m71.7 35.6c0 2.47-.64 5.14-3.31 5.14s-3.31-2.56-3.31-5.14 1.48-3.75 3.31-3.75 3.31 1.28 3.31 3.75z"/><path d="m55.56 50.72a7.59 7.59 0 0 1 -5.88-2.78.91.91 0 0 1 1.46-1.07 5.8 5.8 0 0 0 8.85 0 .9.9 0 1 1 1.45 1.07 7.55 7.55 0 0 1 -5.88 2.78z"/></svg>