<svg width="153" height="14" viewBox="0 0 153 14" fill="none" xmlns="http://www.w3.org/2000/svg">
<path d="M4.86778 9.186L3.34178 9.69V6.218H4.74178V5.252H3.34178V2.214H4.95178V1.234H0.611781V2.214H2.34778V5.252H0.765781V6.218H2.34778V9.998C1.63378 10.236 0.989781 10.432 0.471781 10.586L0.709781 11.636C1.95578 11.23 3.55178 10.684 5.04978 10.18L4.86778 9.186ZM6.58978 4.468H8.71778V6.246H6.58978V4.468ZM6.58978 1.836H8.71778V3.6H6.58978V1.836ZM11.7558 3.6H9.61378V1.836H11.7558V3.6ZM11.7558 6.246H9.61378V4.468H11.7558V6.246ZM9.69778 11.664V9.746H12.9598V8.794H9.69778V7.156H12.7498V0.926H5.63778V7.156H8.64778V8.794H5.46978V9.746H8.64778V11.664H4.39178V12.616H13.4078V11.664H9.69778ZM22.2978 8.598V6.96H23.5578V8.598H22.2978ZM20.2818 6.96H21.5418V8.598H20.2538C20.2818 8.22 20.2818 7.842 20.2818 7.506V6.96ZM22.3818 2.354C22.2138 2.844 21.9758 3.39 21.7658 3.81H20.1558C20.4078 3.362 20.6318 2.872 20.8558 2.354H22.3818ZM22.2978 4.636H23.5578V6.176H22.2978V4.636ZM20.2818 4.636H21.5418V6.176H20.2818V4.636ZM29.9278 1.878C29.8438 3.502 29.7178 4.146 29.5638 4.328C29.4658 4.454 29.3538 4.468 29.1718 4.454C28.9758 4.454 28.4578 4.454 27.9118 4.398C28.0378 4.636 28.1218 5 28.1498 5.266C28.7238 5.294 29.2978 5.308 29.5918 5.28C29.9558 5.252 30.1658 5.154 30.3478 4.93C30.6558 4.594 30.7678 3.698 30.8798 1.388C30.8938 1.262 30.8938 0.996 30.8938 0.996H24.8458V1.878H26.7358C26.4698 3.194 25.9098 4.3 24.4398 4.944V3.81H22.6898C23.0118 3.208 23.3338 2.494 23.5718 1.878L22.9558 1.486L22.8018 1.528H21.1638C21.2758 1.192 21.3878 0.841999 21.4858 0.492L20.5198 0.282C20.0998 1.99 19.3298 3.642 18.3358 4.706C18.5598 4.846 18.9658 5.168 19.1198 5.336C19.2178 5.224 19.3158 5.098 19.4138 4.958V7.506C19.4138 9.074 19.3158 11.146 18.3778 12.616C18.5878 12.714 18.9798 12.938 19.1198 13.092C19.7778 12.084 20.0718 10.712 20.1978 9.41H23.5578V11.93C23.5578 12.112 23.4878 12.168 23.2918 12.182C23.1098 12.196 22.4798 12.196 21.7518 12.168C21.8918 12.406 22.0458 12.812 22.0878 13.05C23.0538 13.05 23.6138 13.036 23.9638 12.882C24.3278 12.728 24.4398 12.434 24.4398 11.93V4.958C24.6358 5.126 24.8878 5.434 24.9998 5.658C26.7218 4.874 27.3938 3.53 27.6878 1.878H29.9278ZM31.2718 9.48H28.6118V7.758H31.0338V6.862H28.6118V5.434H27.6178V6.862H26.3998C26.5118 6.498 26.6098 6.12 26.6938 5.742L25.8118 5.56C25.5598 6.75 25.1398 7.898 24.5238 8.696C24.7618 8.808 25.1678 9.004 25.3358 9.13C25.6018 8.752 25.8538 8.276 26.0638 7.758H27.6178V9.48H24.6778V10.376H27.6178V12.994H28.6118V10.376H31.2718V9.48ZM45.8738 4.776V8.234H43.1998V4.776H45.8738ZM46.9378 9.2V4.776H49.0238V3.768H46.9378V0.519999H45.8738V3.768H43.1998V0.352H42.1778V3.768H39.6298V0.674H38.5518V3.768H36.5218V4.776H38.5518V12.168H48.6318V11.146H39.6298V4.776H42.1778V9.2H46.9378ZM58.0678 9.018C58.0678 10.068 57.8158 11.426 55.3798 12.322C55.6038 12.532 55.9398 12.896 56.0938 13.162C58.7958 12.07 59.1178 10.39 59.1178 9.06V8.206H58.0678V9.018ZM56.9478 3.936H60.1538V5.448H56.9478V3.936ZM56.9478 1.626H60.1538V3.11H56.9478V1.626ZM64.4098 3.11H61.1758V1.626H64.4098V3.11ZM64.4098 5.448H61.1758V3.936H64.4098V5.448ZM65.4738 6.33V0.744H55.9258V6.33H58.7118C57.6478 7.422 55.9678 8.36 54.3578 8.822C54.5958 9.032 54.8898 9.41 55.0578 9.676C56.8918 9.032 58.8238 7.8 59.9718 6.33H61.5118C62.0438 7.03 62.7578 7.66 63.5278 8.206H62.4918V13.05H63.5558V8.22C64.4378 8.822 65.4178 9.312 66.4118 9.62C66.5518 9.354 66.8598 8.948 67.0978 8.738C65.4318 8.304 63.7798 7.408 62.7298 6.33H65.4738ZM97.3415 2.872C96.7115 2.186 95.4655 1.22 94.4435 0.575999L93.6875 0.981999C94.0935 1.248 94.5275 1.57 94.9335 1.892L90.1735 2.06C90.8875 1.668 91.6155 1.192 92.2875 0.688L91.3635 0.226C90.5095 0.967999 89.3475 1.654 88.9695 1.836C88.6475 2.018 88.3535 2.13 88.1015 2.158C88.2135 2.396 88.3675 2.872 88.4095 3.054C88.8435 2.914 89.5015 2.914 95.8155 2.62C96.0955 2.872 96.3335 3.11 96.5295 3.32L97.3415 2.872ZM96.2495 9.298C94.6955 10.894 91.5735 11.832 88.1855 12.224C88.3815 12.462 88.5775 12.826 88.6895 13.078C92.1895 12.588 95.3955 11.538 97.1035 9.718L96.2495 9.298ZM93.0855 6.54C92.0775 7.324 90.2015 8.052 88.7035 8.472C88.9275 8.64 89.1655 8.92 89.3195 9.116C90.8455 8.64 92.7075 7.842 93.8555 6.918L93.0855 6.54ZM94.6115 7.884C93.3235 8.934 90.9295 9.774 88.8015 10.194C89.0115 10.418 89.2355 10.726 89.3615 10.95C91.5595 10.432 93.9675 9.494 95.4095 8.29L94.6115 7.884ZM98.8115 5.77C98.5175 5.168 97.8455 4.328 97.2155 3.698L96.4875 4.034C96.6835 4.244 96.8935 4.468 97.0755 4.706L95.1715 4.818C95.5075 4.44 95.8435 3.992 96.1095 3.558L95.1715 3.166C94.8915 3.81 94.3875 4.468 94.2195 4.622C94.0795 4.79 93.9255 4.888 93.7715 4.93L93.8415 5.084C93.5755 4.86 93.3655 4.636 93.1555 4.412C93.2395 4.286 93.3235 4.146 93.3935 4.02L92.4415 3.726C92.1195 4.3 91.7275 4.804 91.2655 5.252C91.0415 4.86 90.7195 4.37 90.4115 3.978L89.6555 4.244C89.7955 4.426 89.9355 4.608 90.0755 4.818L88.4515 4.888C88.8855 4.468 89.3335 3.978 89.6975 3.474L88.7595 3.068C88.3535 3.782 87.7095 4.468 87.4995 4.65C87.3175 4.832 87.1215 4.944 86.9395 4.986C87.0655 5.21 87.2195 5.658 87.2755 5.868C87.4995 5.77 87.9335 5.714 90.4955 5.56C90.5375 5.658 90.5795 5.742 90.6075 5.84C89.4175 6.764 87.9335 7.464 86.3235 7.94C86.5195 8.122 86.8135 8.542 86.9255 8.752C89.1655 7.982 91.2235 6.82 92.6235 5.14C94.1075 6.694 96.4315 7.982 98.6155 8.64C98.7695 8.388 99.0495 8.01 99.2735 7.828C97.6495 7.408 95.9555 6.624 94.6255 5.7C95.0595 5.644 95.8995 5.574 97.6075 5.448C97.7895 5.714 97.9295 5.938 98.0275 6.148L98.8115 5.77ZM111.342 7.758C111.342 7.884 111.314 7.94 111.16 7.94C111.02 7.954 110.6 7.954 110.11 7.926C110.222 8.136 110.334 8.416 110.376 8.64C111.048 8.64 111.538 8.64 111.846 8.514C112.154 8.374 112.238 8.192 112.238 7.758V4.076H111.86V4.062H110.026V2.564H112.336V1.682H110.026V0.379999H109.116V4.902H111.342V7.758ZM109.564 5.504C109.438 6.358 109.228 7.198 108.794 7.814C109.004 7.912 109.368 8.136 109.522 8.262C109.942 7.59 110.236 6.624 110.376 5.644L109.564 5.504ZM108.402 10.012C107.52 10.782 105.84 11.706 104.51 12.252C104.706 12.476 104.986 12.826 105.126 13.036C106.484 12.448 108.15 11.51 109.298 10.642L108.402 10.012ZM111.972 10.684C113.428 11.398 114.982 12.322 115.934 12.994L116.62 12.21C115.626 11.538 114.03 10.67 112.546 9.97L111.972 10.684ZM115.598 8.822C115.724 6.764 115.794 3.46 115.808 0.996H112.84V1.906H114.856C114.856 2.466 114.842 3.054 114.828 3.656H112.966V4.552H114.814C114.786 5.14 114.772 5.714 114.744 6.274H112.896V7.156H114.716C114.688 7.758 114.646 8.332 114.618 8.822H106.68L106.624 7.114H108.43V6.218H106.582L106.526 4.51H108.374V3.614H106.498L106.442 1.976C107.156 1.752 107.926 1.486 108.57 1.22L108.066 0.366C107.394 0.715999 106.344 1.136 105.476 1.444L105.742 8.822H104.328V9.788H116.942V8.822H115.598ZM134.694 7.03V6.008H129.066V3.6H133.728V2.578H129.066V0.296H127.988V2.578H123.466V3.6H127.988V6.008H122.458V7.03H127.4C126.14 8.836 124.026 10.572 122.08 11.44C122.318 11.636 122.654 12.042 122.836 12.294C124.67 11.37 126.63 9.704 127.988 7.842V13.078H129.066V7.786C130.424 9.648 132.412 11.384 134.26 12.294C134.442 12.028 134.778 11.622 135.016 11.426C133.07 10.572 130.942 8.822 129.668 7.03H134.694ZM149.547 3.572C149.239 5.126 148.567 6.484 147.559 7.352C147.811 7.464 148.231 7.758 148.427 7.912C148.903 7.464 149.309 6.904 149.659 6.26C150.485 6.946 151.367 7.73 151.843 8.262L152.585 7.548C152.025 6.974 150.947 6.078 150.065 5.392C150.261 4.874 150.429 4.328 150.541 3.74L149.547 3.572ZM142.953 3.572C142.547 5.378 141.679 6.876 140.405 7.828C140.643 7.982 141.049 8.318 141.231 8.5C141.917 7.926 142.519 7.184 142.995 6.302C143.499 6.792 144.017 7.31 144.297 7.66L145.011 6.946C144.661 6.54 144.017 5.924 143.429 5.406C143.639 4.888 143.835 4.342 143.975 3.754L142.953 3.572ZM146.957 3.25H152.515V2.228H146.957V0.296H145.893V2.228H140.531V3.25H145.893V6.666C144.605 8.696 142.295 10.628 140.041 11.552C140.279 11.762 140.615 12.168 140.769 12.42C142.631 11.552 144.507 10.04 145.893 8.262V13.064H146.957V8.22C148.315 10.04 150.219 11.608 152.151 12.462C152.305 12.182 152.655 11.762 152.921 11.538C150.541 10.642 148.203 8.668 146.957 6.568V3.25Z" fill="#232323"/>
</svg>
