<svg xmlns="http://www.w3.org/2000/svg" xmlns:xlink="http://www.w3.org/1999/xlink" viewBox="0 0 134 158"><defs><style>.cls-1,.cls-6{fill:none;}.cls-2{fill:#f0f0f0;}.cls-3{fill:#fff;}.cls-4{fill:#5f5f5f;}.cls-5{fill:#f8c341;}.cls-6{stroke:#000;stroke-linecap:round;stroke-miterlimit:10;stroke-width:1.57px;}.cls-7{clip-path:url(#clip-path);}.cls-8{fill:#d4f0fd;}.cls-9{fill:#a9e1fc;}</style><clipPath id="clip-path"><rect class="cls-1" x="48.66" y="62.93" width="37.26" height="45.93"/></clipPath></defs><g id="圖"><rect class="cls-2" x="29.14" y="102.37" width="75.73" height="55.63"/><rect class="cls-3" x="29.14" y="100.46" width="75.73" height="18.5"/><rect class="cls-4" x="51.47" y="107.57" width="31.06" height="2.79" rx="1.4"/><polygon class="cls-5" points="91.7 155.02 91.82 151.09 91.86 147.15 91.71 143.21 91.76 139.27 91.84 135.3 88.08 136.29 84.4 137.44 80.65 138.32 76.91 139.24 73.19 140.38 69.7 138.91 66.35 137.22 62.85 135.89 59.36 134.5 55.99 132.86 52.54 131.39 49.05 130.04 45.66 128.41 42.24 127.18 42.22 131.07 42.28 135.06 42.14 139.05 42.14 143.04 42.24 147.03 42.29 151.02 42.13 155.02 42.1 158 91.81 158 91.7 155.02"/><path class="cls-3" d="M67.29,149.92c0,2.4-.62,5-3.22,5s-3.22-2.49-3.22-5,1.44-3.65,3.22-3.65S67.29,147.52,67.29,149.92Z"/><path class="cls-3" d="M83.84,149.92c0,2.4-.62,5-3.22,5s-3.22-2.49-3.22-5,1.44-3.65,3.22-3.65S83.84,147.52,83.84,149.92Z"/><path class="cls-6" d="M62.28,151a2.93,2.93,0,0,1,3.58,0"/><path class="cls-6" d="M78.83,151a2.93,2.93,0,0,1,3.58,0"/><rect class="cls-4" x="45.78" y="107.57" width="42.4" height="2.79" rx="1.4"/><g class="cls-7"><rect class="cls-8" x="48.66" y="62.97" width="37.26" height="53.65"/><polygon class="cls-9" points="85.92 62.97 67.29 89.79 85.92 116.62 85.92 62.97"/></g></g></svg>