<svg xmlns="http://www.w3.org/2000/svg" xmlns:xlink="http://www.w3.org/1999/xlink" viewBox="0 0 300 190"><defs><style>.cls-1,.cls-10,.cls-11,.cls-12,.cls-5{fill:none;}.cls-2{fill:#f56977;}.cls-3{fill:#fff;}.cls-4{fill:#211815;}.cls-10,.cls-5{stroke:#000;}.cls-10,.cls-11,.cls-12,.cls-5{stroke-linecap:round;}.cls-5{stroke-linejoin:round;stroke-width:1.1px;}.cls-6{clip-path:url(#clip-path);}.cls-7{fill:#fae7e7;}.cls-8{fill:#f0f0f0;}.cls-9{fill:#f8c341;}.cls-10,.cls-11,.cls-12{stroke-miterlimit:10;}.cls-10{stroke-width:1.57px;}.cls-11,.cls-12{stroke:#fff;}.cls-11{stroke-width:3.29px;}.cls-12{stroke-width:1.79px;}</style><clipPath id="clip-path"><rect class="cls-1" width="300" height="190"/></clipPath></defs><g id="圖"><path class="cls-2" d="M248.79,110.16a1.48,1.48,0,0,1-1.74,1.18,2,2,0,0,0-2.25,1.28,1.87,1.87,0,0,0,1.44,2.38l2.8.54a2.49,2.49,0,0,0,2.92-2l1.95-10.18-3.69-.7Z"/><path class="cls-2" d="M240.86,106.27a1.47,1.47,0,0,1-1.71,1.22,2,2,0,0,0-2.23,1.33,1.87,1.87,0,0,0,1.49,2.35l2.81.48a2.49,2.49,0,0,0,2.88-2.05l1.75-10.21-3.7-.63Z"/><polygon class="cls-2" points="255.25 84.38 253.24 82.32 251.39 80.15 249.32 78.19 247.29 76.19 245.41 74.04 243.43 72 241.38 70.03 239.48 67.89 237.45 66.02 236.29 68.73 235.16 71.55 233.88 74.31 232.71 77.1 231.6 79.93 230.47 82.74 229.18 85.49 227.97 88.28 226.93 91.13 225.76 93.93 224.47 96.68 223.28 99.47 222.18 102.27 224.99 102.32 227.84 102.31 230.69 102.33 233.54 102.23 236.38 102.23 239.23 102.28 242.08 102.26 244.93 102.24 247.75 102.25 250.1 103.96 252.47 105.69 254.66 107.64 257 109.41 259.35 111.14 260.58 108.42 261.62 105.61 262.85 102.89 263.91 100.09 265.15 97.36 266.34 94.62 267.39 91.81 268.59 89.07 269.81 86.31 266.89 85.9 263.97 85.62 261.08 85.14 258.19 84.67 255.25 84.38"/><path class="cls-3" d="M248.31,89.33c-.71,1.68-1.91,3.32-3.73,2.55s-1.52-2.69-.79-4.45,2.09-2.13,3.34-1.6A2.45,2.45,0,0,1,248.31,89.33Z"/><path class="cls-4" d="M247,89.55c-.47,1.11-1.26,2.2-2.47,1.69s-1-1.79-.52-2.95a1.61,1.61,0,0,1,2.21-1.07A1.64,1.64,0,0,1,247,89.55Z"/><path class="cls-3" d="M259.91,94.2c-.71,1.69-1.91,3.32-3.73,2.56s-1.53-2.7-.79-4.45,2.09-2.14,3.33-1.61A2.46,2.46,0,0,1,259.91,94.2Z"/><path class="cls-4" d="M258.56,94.42c-.47,1.11-1.26,2.2-2.47,1.69s-1-1.78-.52-3a1.61,1.61,0,0,1,2.2-1.07A1.63,1.63,0,0,1,258.56,94.42Z"/><polyline class="cls-5" points="248.23 95.09 248.97 97.38 251.25 96.17"/><g class="cls-6"><path class="cls-7" d="M223.08,66.12c-2-20.72-15.48-26.64-28.15-25.06-13.18,1.64-21.15,11.55-20.41,32.4.39,11,7.78,21,17,22.89a.46.46,0,0,1,.14.07A2.68,2.68,0,0,1,193,98.85l-.17,7.37a6.63,6.63,0,0,0,7.61,5.42l10.47-1.76a5.68,5.68,0,0,0,4.66-6.54l-2.77-7.87a2.72,2.72,0,0,1,.39-2.57,3,3,0,0,1,.23-.25C220.19,86.67,224.12,77.1,223.08,66.12Z"/><path class="cls-7" d="M140.21,164.87c6.62,2,11.27,1.06,17.28-4.31l37-41.53-4-9.34-39.25,31.6a4.14,4.14,0,0,1-5.41.9L135.39,136c-8.18-5.4-17.35-11-21-20.31,0,0-9.3-13.16-20.91-9.13,0,0-12.82,5-15.34,12.26s-1.33,12.37,4.92,11.45a9.36,9.36,0,0,0-3.38,8.16c.61,5.15,7.15,9.33,9.32,8,0,0,5.51,7.23,8.25,1.4,0,0,3.64,3.74,6.65.5C103.93,148.34,122.93,159.69,140.21,164.87Z"/><polygon class="cls-2" points="81.83 141.01 76.5 136 109.57 99.25 114.89 104.27 81.83 141.01"/><polygon class="cls-8" points="81.83 141.01 71.92 146.55 76.5 136 81.83 141.01"/><polygon points="74.42 140.81 77.32 143.54 71.92 146.55 74.42 140.81"/><path class="cls-7" d="M103.3,125.91s-7.65-2-10.81-1.27-6.73,3.7-7.15,7.09,3.45,6.75,9.07,4.68a8.25,8.25,0,0,1,3.3.51s2.81,8.86,12.2,7.12"/><path class="cls-9" d="M187.39,104.46s-22.2,16.73-34.78,29.07c-1.87,1.83-4.25,7.12-2.52,8.9,2.85,2.95,7.2,7.51,11.45,12.21,1.41,1.56,4.74,1,6.41-.46l13.31-11.8Z"/><path class="cls-9" d="M252.24,113c-12-11.86-34.19-13.53-37.07-13.69-12,4.91-21,4.23-22.76,2.95-12.87,4.73-17.23,13.45-17.23,13.45-10.19,37.93,10.19,97.39,10.19,97.39H275.8C270.71,160.08,270.54,131,252.24,113Z"/><path class="cls-7" d="M256.4,169.54a1.2,1.2,0,0,1,.81,1.16c0,7.8-1.46,11.63-1.46,11.63-4.45,9.46-15.34,23.17-23.77,29.83a4.06,4.06,0,0,1-2.55.89H166.77a4.44,4.44,0,0,1-4.3-4.61c.11-8.59,2.61-20.61,16.77-24.9,0,0,12.8-4,29.14,6.33a4,4,0,0,0,4.1.15c6.67-3.55,24.23-15.8,24.6-17.23,1.12-4.42,1.41-5.75,1.41-5.75a1.17,1.17,0,0,1,1.29-1.1A122.32,122.32,0,0,1,256.4,169.54Z"/><ellipse cx="183.34" cy="66.89" rx="1.29" ry="2.72" transform="translate(-6.05 19.77) rotate(-6.07)"/><ellipse cx="197.19" cy="65.38" rx="1.29" ry="2.72" transform="translate(-5.81 21.23) rotate(-6.07)"/><line class="cls-10" x1="189.65" y1="60.97" x2="190.32" y2="72.65"/><path class="cls-10" d="M187.19,80.22s7.79,1.68,10.95-5.94"/></g><path class="cls-10" d="M98.44,124.93a31,31,0,0,1,6.59,1.51"/><path class="cls-10" d="M89.12,136.52c.92.88,2.38.78,3.63.54s2.62-.58,3.75,0c1.38.71,1.83,2.41,2.75,3.66a7.07,7.07,0,0,0,4.36,2.55,17.83,17.83,0,0,0,5.16.08"/><path class="cls-10" d="M90.28,144.45a7.46,7.46,0,0,0,1.06-1.25,6,6,0,0,0-.16-6"/><ellipse class="cls-9" cx="59.08" cy="52.78" rx="37.27" ry="26.72"/><path class="cls-9" d="M77.83,70.78s5.12,10.9,17,10.07a1.59,1.59,0,0,0,1-2.74c-2.4-2.34-5.35-6.52-3.93-12.19"/><line class="cls-11" x1="40.5" y1="53.43" x2="80.96" y2="53.43"/><line class="cls-11" x1="40.5" y1="41.86" x2="80.96" y2="41.86"/><line class="cls-11" x1="40.5" y1="65" x2="67.06" y2="65"/><ellipse class="cls-9" cx="135.44" cy="30.16" rx="20.31" ry="14.56"/><path class="cls-9" d="M145.66,40s2.79,5.94,9.28,5.49a.87.87,0,0,0,.55-1.5,6.77,6.77,0,0,1-2.14-6.64"/><line class="cls-12" x1="124.74" y1="29.95" x2="146.8" y2="29.95"/><line class="cls-12" x1="124.74" y1="23.64" x2="146.8" y2="23.64"/><line class="cls-12" x1="124.74" y1="36.25" x2="139.22" y2="36.25"/></g></svg>