<svg xmlns="http://www.w3.org/2000/svg" viewBox="0 0 135 159"><defs><style>.cls-1{fill:#fff;}.cls-2{fill:#c8c8c8;}.cls-3{fill:#fae7e7;}.cls-4{fill:#f56977;}.cls-5{fill:#f0f0f0;}.cls-6{fill:#f8c341;}</style></defs><g id="圖"><polygon class="cls-1" points="79.94 62.44 19.5 59.3 73.16 52.02 64.92 39.34 8.36 60.21 90.13 78.12 79.94 62.44"/><polygon class="cls-2" points="73.16 52.02 73.16 62.09 19.5 59.3 73.16 52.02"/><polygon class="cls-1" points="111.55 25.38 78.56 20.87 108.31 19.35 104.38 12.02 72.42 20.85 116.41 34.45 111.55 25.38"/><polygon class="cls-2" points="108.31 19.35 107.85 24.88 78.56 20.87 108.31 19.35"/><path class="cls-3" d="M95.54,143.16c6.18,1.86,10.52,1,16.12-4l34.56-38.73-3.7-8.72-36.61,29.48a3.86,3.86,0,0,1-5,.84L91,116.24c-7.63-5-16.19-10.23-19.56-18.95,0,0-8.68-12.28-19.51-8.52,0,0-12,4.7-14.32,11.44s-1.23,11.54,4.6,10.68a8.72,8.72,0,0,0-3.16,7.61c.57,4.8,6.68,8.71,8.7,7.46,0,0,5.14,6.75,7.69,1.31,0,0,3.4,3.49,6.21.47C61.69,127.74,79.41,138.33,95.54,143.16Z"/><polygon class="cls-4" points="41.07 120.9 36.1 116.22 66.95 81.94 71.92 86.62 41.07 120.9"/><polygon class="cls-5" points="41.07 120.9 31.83 126.07 36.1 116.22 41.07 120.9"/><polygon points="34.15 120.71 36.86 123.26 31.83 126.07 34.15 120.71"/><path class="cls-3" d="M61.1,106.81S54,105,51,105.63s-6.28,3.45-6.68,6.61,3.23,6.3,8.47,4.37a7.69,7.69,0,0,1,3.08.47s2.62,8.27,11.38,6.65"/><path class="cls-6" d="M139.56,86.79s-20.71,15.62-32.45,27.13c-1.75,1.71-4,6.64-2.35,8.3,2.66,2.76,6.71,7,10.68,11.39,1.32,1.46,4.42.94,6-.43l12.42-11Z"/><polygon class="cls-1" points="31.83 59.95 64.09 61.62 63.31 67.27 35.36 63.61 31.83 59.95"/><path class="cls-4" d="M53.69,58.2a1.66,1.66,0,0,1-1.78,1.52,2.23,2.23,0,0,0-.72,4.37l2.94.41a2.8,2.8,0,0,0,3-2.57l1.68-12.1-3.86-.54Z"/><path class="cls-4" d="M42.58,56.61a1.66,1.66,0,0,1-1.77,1.53,2.22,2.22,0,0,0-.72,4.36l2.94.41a2.79,2.79,0,0,0,3-2.56l1.68-12.11-3.87-.54Z"/><polygon class="cls-4" points="53.79 29.52 51.22 27.98 48.78 26.28 46.19 24.85 43.61 23.37 41.15 21.71 38.62 20.17 36.02 18.73 33.56 17.08 31.01 15.73 30.56 18.77 30.16 21.9 29.61 25.01 29.17 28.14 28.8 31.28 28.4 34.41 27.82 37.52 27.35 40.65 27.05 43.79 26.61 46.92 26.03 50.03 25.58 53.16 25.2 56.27 28.05 55.58 30.92 54.81 33.79 54.08 36.63 53.23 39.5 52.48 42.38 51.78 45.24 51.01 48.11 50.23 50.95 49.5 53.77 50.6 56.61 51.72 59.34 53.11 62.16 54.27 64.98 55.38 65.51 52.33 65.81 49.23 66.33 46.15 66.66 43.05 67.19 39.98 67.66 36.9 67.98 33.8 68.46 30.72 68.97 27.62 65.91 27.98 62.9 28.47 59.86 28.74 56.83 29.04 53.79 29.52"/><path class="cls-1" d="M48.11,36.34c-.27,1.88-1,3.84-3.09,3.55s-2.24-2.31-2-4.27,1.53-2.7,2.93-2.5S48.37,34.46,48.11,36.34Z"/><path d="M46.71,36.32c-.18,1.25-.7,2.55-2.05,2.36s-1.49-1.53-1.3-2.84a1.66,1.66,0,0,1,1.94-1.65A1.7,1.7,0,0,1,46.71,36.32Z"/><path class="cls-1" d="M61.07,38.18C60.8,40.06,60,42,58,41.74s-2.25-2.31-2-4.28S57.56,34.77,59,35,61.34,36.3,61.07,38.18Z"/><path d="M59.67,38.17c-.18,1.24-.69,2.55-2,2.35S56.14,39,56.32,37.69a1.68,1.68,0,0,1,2-1.66A1.7,1.7,0,0,1,59.67,38.17Z"/><path class="cls-1" d="M52.58,42.44a2.81,2.81,0,0,1,0,1c-.2,1.09-1,1.87-1.74,1.73s-1.24-1.13-1-2.22a2.93,2.93,0,0,1,.27-.82"/><path d="M51,45.58l-.26,0a1.66,1.66,0,0,1-1.19-1,2.86,2.86,0,0,1-.2-1.73,3.33,3.33,0,0,1,.32-.95.44.44,0,0,1,.59-.17.43.43,0,0,1,.18.58,2,2,0,0,0-.24.69,2.06,2.06,0,0,0,.13,1.22.87.87,0,0,0,.56.51c.53.09,1.09-.54,1.24-1.39a2.21,2.21,0,0,0,0-.81.44.44,0,0,1,.35-.5.43.43,0,0,1,.5.35,3,3,0,0,1,0,1.11A2.28,2.28,0,0,1,51,45.58Z"/><path d="M52.12,42.89A5.64,5.64,0,0,1,49,42a.42.42,0,0,1-.11-.6.43.43,0,0,1,.6-.11,5,5,0,0,0,3.77.61.43.43,0,0,1,.52.32.44.44,0,0,1-.32.52A5.9,5.9,0,0,1,52.12,42.89Z"/><path d="M62.55,107.23a.84.84,0,0,1-.27,0,30.67,30.67,0,0,0-6.63-1.52.8.8,0,0,1-.71-.9.81.81,0,0,1,.9-.71,32.64,32.64,0,0,1,7,1.6.81.81,0,0,1-.26,1.57Z"/><path d="M63.7,124.86a14.59,14.59,0,0,1-2.78-.25,8,8,0,0,1-5-3A11.44,11.44,0,0,1,55,120.2a4.75,4.75,0,0,0-1.67-2.08,5,5,0,0,0-3.1,0l-.25,0c-1.31.25-3.19.45-4.47-.77a.81.81,0,1,1,1.12-1.17c.56.53,1.52.64,3,.34l.24,0a6.2,6.2,0,0,1,4.16.13,6,6,0,0,1,2.35,2.74,11.52,11.52,0,0,0,.76,1.27,6.49,6.49,0,0,0,4,2.33,18.59,18.59,0,0,0,5.1.07.82.82,0,0,1,.88.73.81.81,0,0,1-.74.88C65.61,124.78,64.67,124.86,63.7,124.86Z"/><path d="M47.31,125.84a.81.81,0,0,1-.57-1.39,6.77,6.77,0,0,0,1-1.15,5.39,5.39,0,0,0-.17-5.31.81.81,0,1,1,1.38-.85,7.05,7.05,0,0,1,.16,7,9.2,9.2,0,0,1-1.21,1.43A.85.85,0,0,1,47.31,125.84Z"/></g></svg>