<svg width="285" height="156" viewBox="0 0 285 156" fill="none" xmlns="http://www.w3.org/2000/svg">
<path d="M134.808 20.0602L136.368 18.3302L137.578 16.5302L139.388 15.2902L140.948 13.8202L142.368 12.1302L144.168 10.9202L146.038 9.82023L148.088 9.05023L149.618 7.86023L147.968 6.92023L145.888 6.42023L143.808 5.94023L141.818 5.08023L139.718 4.70023L137.588 4.46023L135.478 4.14023L133.428 3.52023L131.308 3.22023L129.218 2.76023L127.048 3.02023L124.918 2.88023L122.818 2.28023L120.678 2.24023L118.538 2.70023L116.408 2.75023L114.268 2.55023L112.148 2.71023L110.038 3.10023L107.908 3.14023L105.748 3.06023L103.638 3.42023L101.538 3.81023L99.4984 4.52023L97.3184 4.50023L95.2784 5.15023L93.1884 5.57023L91.1384 6.15023L89.0284 6.51023L87.0784 7.43023L85.0684 8.11023L82.9784 8.55023L81.3184 8.33023L79.6784 7.71023L79.4484 5.97023H79.3384L78.8484 4.18023L77.2684 3.11023L75.4884 3.50023L73.4184 3.98023L71.4484 4.81023L69.4084 5.42023L67.2584 5.58023L65.2284 6.25023L63.1484 6.64023L61.0284 6.85023L59.0184 7.69023L56.8484 7.52023L54.7684 8.00023L52.6484 8.17023L50.5484 8.49023L48.4484 8.90023L46.3084 8.89023L44.1784 8.63023L42.0584 8.53023L39.9384 8.76023L37.8184 8.46023L35.6784 8.85023L33.5784 8.37023L31.4684 8.13023L29.3084 8.31023L27.2384 7.77023L25.1484 7.38023L22.9784 7.55023L20.9484 6.80023L18.8284 6.66023L16.6984 6.48023L14.6584 5.83023L12.5584 5.48023L10.5984 4.61023L8.39844 4.09023L8.67844 6.21023L8.75844 8.27023L8.54844 10.3502L8.76844 12.4102L9.02844 14.4702L9.18844 16.5402L8.75844 18.6202L9.20844 20.6802L9.26844 22.7502L9.42844 24.8102L9.29844 26.8902L9.20844 28.9602L9.35844 31.0302L9.38844 33.1002V35.1702L9.44844 37.2502L9.85844 39.3102L9.36844 41.4902L11.6884 41.9502L13.6584 42.8102L15.7184 43.3302L17.7784 43.8802L19.8384 44.4402L21.9584 44.6902L24.1084 44.7402L26.1684 45.2702L28.2184 45.9602L30.3684 45.9202L32.4684 46.2902L34.5784 46.6402L36.7284 46.5502L38.8484 46.8402L40.9784 46.8902L43.1084 46.4802L45.2384 46.8302L47.3784 46.8402L49.4784 46.2802L51.5984 46.1402L53.7184 46.0402L55.8784 46.1302L57.9784 45.7802L60.0684 45.3602L62.1984 45.1502L64.2284 44.4202L66.3784 44.2602L68.3184 43.2602L70.4684 43.0002L72.3984 42.0402L74.5784 41.8302L76.5084 40.8902L78.2884 40.6002L79.9384 41.5402L80.6084 43.3602L80.3284 43.3702L81.5884 45.4802L83.9384 45.7702L86.0884 45.5502L88.0084 44.5202L90.1984 44.5102L92.1484 43.5402L94.2584 43.2402L96.3184 42.6902L98.3984 42.2502L100.488 41.8502L102.638 41.8802L104.748 41.5802L106.848 41.2702L108.928 40.7502L111.068 40.7702L113.178 40.4202L115.328 40.6702L117.438 40.4702L119.568 40.6602L121.698 40.4602L123.828 40.1702L125.938 40.8202L128.058 40.8602L130.188 40.8402H132.338L134.388 41.5602L136.548 41.5102L138.648 41.8802L140.688 42.5402L142.778 42.9402L144.908 43.1702L146.868 44.1102L148.988 44.4202L151.058 45.1602L150.438 43.0202L149.328 41.1402L148.818 39.0002L147.828 37.0802L146.878 35.1402L145.648 33.3402L144.658 31.4202L143.458 29.6202L142.498 27.6702L141.108 26.0102L139.958 24.1702L138.368 22.6902L136.958 21.0102L134.808 20.0602Z" fill="#F78792"/>
<path d="M73.4187 143.12C73.4161 143.584 73.5051 144.045 73.6807 144.475C73.8563 144.905 74.115 145.296 74.442 145.625C74.769 145.955 75.1578 146.217 75.5863 146.396C76.0147 146.576 76.4743 146.669 76.9387 146.67C78.0718 146.65 79.1729 147.046 80.0336 147.783C80.8943 148.52 81.4547 149.547 81.6087 150.67C81.6702 151.291 81.6009 151.917 81.4051 152.51C81.2093 153.102 80.8915 153.647 80.4721 154.108C80.0527 154.57 79.5412 154.939 78.9704 155.191C78.3997 155.442 77.7825 155.572 77.1587 155.57H70.3987C69.6157 155.567 68.841 155.41 68.1193 155.106C67.3975 154.803 66.743 154.359 66.1936 153.801C65.6441 153.244 65.2106 152.582 64.918 151.856C64.6253 151.13 64.4794 150.353 64.4887 149.57L64.5687 124.97H73.4687L73.4187 143.12Z" fill="#F56977"/>
<path d="M39.8194 143.12C39.8221 143.585 39.7327 144.046 39.5565 144.477C39.3803 144.908 39.1207 145.299 38.7926 145.629C38.4645 145.959 38.0745 146.221 37.6449 146.399C37.2153 146.578 36.7547 146.67 36.2894 146.67C35.1569 146.652 34.0569 147.049 33.1967 147.785C32.3365 148.522 31.7755 149.548 31.6194 150.67C31.5579 151.291 31.6272 151.918 31.823 152.51C32.0188 153.102 32.3366 153.647 32.756 154.108C33.1754 154.57 33.687 154.939 34.2577 155.191C34.8284 155.442 35.4456 155.572 36.0694 155.57H42.8294C43.6129 155.567 44.388 155.41 45.1103 155.106C45.8326 154.803 46.4878 154.36 47.038 153.802C47.5883 153.244 48.0228 152.583 48.3165 151.857C48.6102 151.131 48.7573 150.353 48.7494 149.57L48.6694 125H39.7594L39.8194 143.12Z" fill="#F56977"/>
<path d="M56.4191 80.7599L50.1291 78.0999L44.0691 75.0499L37.7491 72.6499L31.4591 70.1499L25.3791 67.1699L19.1591 64.5299L12.8391 62.0899L6.73906 59.1599L0.559063 56.9399L0.519063 63.9399L0.629063 71.1499L0.369062 78.3499L0.379063 85.5599L0.559063 92.7599L0.649062 99.9699L0.369062 107.17L0.289062 114.38L0.619062 121.58L0.639063 128.79L0.339063 135.99L0.309063 143.2L0.469063 150.34L6.67906 147.86L12.8991 145.22L19.1591 142.64L25.2991 139.82L31.5391 137.2L37.8191 134.69L44.0291 132.02L50.2491 129.35L56.4391 126.78L63.1591 128.36L69.9291 129.98L76.5291 132.23L83.2691 133.95L90.0091 135.56L90.2091 128.49L89.8891 121.39L90.0891 114.28L89.8191 107.18L90.0491 100.08L90.1191 92.9699L89.8391 85.8699L89.9291 78.7599L90.0791 71.5899L83.2991 73.3699L76.6591 75.4599L69.8891 77.0499L63.1291 78.6899L56.4191 80.7599Z" fill="#F56977"/>
<path d="M46.9386 98.0002C46.9386 102.33 45.8186 107 41.1286 107C36.4386 107 35.3086 102.5 35.3086 98.0002C35.3086 93.5002 37.9186 91.4102 41.1286 91.4102C44.3386 91.4102 46.9386 93.6402 46.9386 98.0002Z" fill="white"/>
<path d="M45.9991 98.39C45.9991 101.26 45.2591 104.39 42.1491 104.39C39.0391 104.39 38.2891 101.39 38.2891 98.39C38.2891 95.39 39.9991 94 42.1091 94C44.2191 94 45.9991 95.51 45.9991 98.39Z" fill="#211815"/>
<path d="M76.1183 98.0002C76.1183 102.33 74.9983 107 70.2983 107C65.5983 107 64.4883 102.5 64.4883 98.0002C64.4883 93.5002 67.0883 91.4102 70.2983 91.4102C73.5083 91.4102 76.1183 93.6402 76.1183 98.0002Z" fill="white"/>
<path d="M75.1397 98.39C75.1397 101.26 74.3897 104.39 71.2797 104.39C68.1697 104.39 67.4297 101.39 67.4297 98.39C67.4297 95.39 69.1497 94 71.2797 94C73.4097 94 75.1397 95.51 75.1397 98.39Z" fill="#211815"/>
<path d="M56.9181 118.48C59.0389 118.48 60.7581 116.112 60.7581 113.19C60.7581 110.269 59.0389 107.9 56.9181 107.9C54.7973 107.9 53.0781 110.269 53.0781 113.19C53.0781 116.112 54.7973 118.48 56.9181 118.48Z" fill="white" stroke="#231815" stroke-width="1.78" stroke-miterlimit="10" stroke-linecap="round"/>
<path d="M162.9 142.63C163.05 143.554 162.828 144.5 162.283 145.261C161.738 146.022 160.913 146.536 159.99 146.69C158.86 146.845 157.827 147.411 157.089 148.28C156.351 149.149 155.96 150.26 155.99 151.4C156.028 152.022 156.196 152.629 156.483 153.182C156.771 153.735 157.171 154.222 157.658 154.61C158.146 154.999 158.709 155.28 159.313 155.437C159.916 155.594 160.545 155.622 161.16 155.52L167.83 154.42C169.377 154.148 170.755 153.281 171.669 152.004C172.584 150.727 172.961 149.142 172.72 147.59L168.72 123.32L160 124.77L162.9 142.63Z" fill="#27B5F7"/>
<path d="M136.32 142.69C136.143 143.611 135.608 144.425 134.831 144.952C134.055 145.479 133.101 145.676 132.18 145.5C131.074 145.259 129.918 145.431 128.931 145.983C127.943 146.536 127.192 147.431 126.82 148.5C126.639 149.097 126.586 149.725 126.663 150.344C126.741 150.962 126.948 151.558 127.27 152.091C127.593 152.625 128.024 153.085 128.535 153.441C129.047 153.798 129.628 154.043 130.24 154.16L136.88 155.44C137.649 155.594 138.441 155.594 139.21 155.44C139.98 155.286 140.711 154.982 141.361 154.544C142.012 154.106 142.57 153.543 143.002 152.889C143.434 152.234 143.733 151.501 143.88 150.73L148.55 126.56L139.81 124.88L136.32 142.69Z" fill="#27B5F7"/>
<path d="M153.458 80.7599L147.168 78.0999L141.118 75.0499L134.788 72.6499L128.508 70.1499L122.418 67.1699L116.198 64.5299L109.888 62.0899L103.778 59.1599L97.6081 56.9399L97.5581 63.9399L97.6681 71.1499L97.4181 78.3499V85.5599L97.6081 92.7599L97.6981 99.9699L97.4081 107.17L97.3281 114.38L97.6581 121.58L97.6881 128.79L97.3781 135.99L97.3481 143.2L97.5181 150.34L103.718 147.86L109.948 145.22L116.198 142.64L122.348 139.82L128.578 137.2L134.858 134.69L141.078 132.02L147.288 129.35L153.478 126.78L160.198 128.36L166.968 129.98L173.568 132.23L180.318 133.95L187.048 135.56L187.248 128.49L186.938 121.39L187.128 114.28L186.868 107.18L187.088 100.08L187.168 92.9699L186.878 85.8699L186.978 78.7599L187.128 71.5899L180.338 73.3699L173.698 75.4599L166.928 77.0499L160.168 78.6899L153.458 80.7599Z" fill="#27B5F7"/>
<path d="M142.819 98.0002C142.819 102.33 141.699 107 137.009 107C132.319 107 131.189 102.5 131.189 98.0002C131.189 93.5002 133.789 91.4102 137.009 91.4102C140.229 91.4102 142.819 93.6402 142.819 98.0002Z" fill="white"/>
<path d="M139.929 98.39C139.929 101.26 139.189 104.39 136.069 104.39C132.949 104.39 132.219 101.39 132.219 98.39C132.219 95.39 133.939 94.02 136.069 94.02C138.199 94.02 139.929 95.51 139.929 98.39Z" fill="#211815"/>
<path d="M172.689 98.0002C172.689 102.33 171.569 107 166.879 107C162.189 107 161.059 102.5 161.059 98.0002C161.059 93.5002 163.669 91.4102 166.879 91.4102C170.089 91.4102 172.689 93.6402 172.689 98.0002Z" fill="white"/>
<path d="M169.8 98.39C169.8 101.26 169.06 104.39 165.95 104.39C162.84 104.39 162.09 101.39 162.09 98.39C162.09 95.39 163.82 94 166 94C168.18 94 169.8 95.51 169.8 98.39Z" fill="#211815"/>
<path d="M156.528 110.92C156.557 111.533 156.461 112.146 156.246 112.722C156.031 113.297 155.702 113.823 155.278 114.267C154.854 114.711 154.344 115.065 153.78 115.307C153.215 115.548 152.607 115.673 151.993 115.673C151.379 115.673 150.771 115.548 150.207 115.307C149.642 115.065 149.132 114.711 148.708 114.267C148.284 113.823 147.955 113.297 147.74 112.722C147.525 112.146 147.429 111.533 147.458 110.92" stroke="#231815" stroke-width="1.98" stroke-miterlimit="10" stroke-linecap="round"/>
<path d="M259.999 142.63C260.15 143.554 259.928 144.5 259.383 145.261C258.837 146.022 258.013 146.536 257.089 146.69C255.961 146.847 254.929 147.414 254.191 148.282C253.453 149.151 253.061 150.261 253.089 151.4C253.128 152.023 253.298 152.63 253.586 153.183C253.875 153.736 254.276 154.222 254.764 154.611C255.252 154.999 255.817 155.28 256.42 155.437C257.024 155.594 257.654 155.622 258.269 155.52L264.939 154.42C266.486 154.148 267.865 153.281 268.779 152.004C269.693 150.727 270.07 149.142 269.829 147.59L265.829 123.32L257.039 124.77L259.999 142.63Z" fill="#F8C341"/>
<path d="M233.449 142.69C233.272 143.611 232.737 144.425 231.96 144.952C231.184 145.479 230.23 145.676 229.309 145.5C228.203 145.259 227.047 145.431 226.06 145.983C225.072 146.536 224.321 147.431 223.949 148.5C223.768 149.097 223.715 149.725 223.792 150.344C223.87 150.962 224.077 151.558 224.399 152.091C224.722 152.625 225.153 153.085 225.664 153.441C226.176 153.798 226.757 154.043 227.369 154.16L234.009 155.44C234.778 155.594 235.57 155.594 236.339 155.44C237.108 155.286 237.84 154.982 238.49 154.544C239.141 154.106 239.699 153.543 240.131 152.889C240.563 152.234 240.862 151.501 241.009 150.73L245.679 126.56L236.939 124.88L233.449 142.69Z" fill="#F8C341"/>
<path d="M250.589 80.7599L244.299 78.0999L238.249 75.0499L231.919 72.6499L225.639 70.1499L219.549 67.1699L213.329 64.5299L207.009 62.0899L200.909 59.1599L194.729 56.9399L194.689 63.9399L194.799 71.1499L194.539 78.3499L194.549 85.5599L194.729 92.7599L194.829 99.9699L194.539 107.17L194.459 114.38L194.789 121.58L194.819 128.79L194.509 135.99L194.479 143.2L194.639 150.34L200.849 147.86L207.079 145.22L213.329 142.64L219.479 139.82L225.709 137.2L231.989 134.69L238.209 132.02L244.419 129.35L250.609 126.78L257.329 128.36L264.099 129.98L270.699 132.23L277.449 133.95L284.179 135.56L284.379 128.49L284.069 121.39L284.259 114.28L283.999 107.18L284.219 100.08L284.299 92.9699L284.009 85.8699L284.109 78.7599L284.259 71.5899L277.479 73.3699L270.829 75.4599L264.059 77.0499L257.299 78.6899L250.589 80.7599Z" fill="#F8C341"/>
<path d="M239.999 98.0002C239.999 102.33 238.879 107 234.179 107C229.479 107 228.369 102.5 228.369 98.0002C228.369 93.5002 230.969 91.4102 234.179 91.4102C237.389 91.4102 239.999 93.6402 239.999 98.0002Z" fill="white"/>
<path d="M237.06 98.39C237.06 101.26 236.31 104.39 233.2 104.39C230.09 104.39 229.35 101.39 229.35 98.39C229.35 95.39 231.07 94.02 233.2 94.02C235.33 94.02 237.06 95.51 237.06 98.39Z" fill="#211815"/>
<path d="M269.819 98.0002C269.819 102.33 268.699 107 264.009 107C259.319 107 258.189 102.5 258.189 98.0002C258.189 93.5002 260.799 91.4102 264.009 91.4102C267.219 91.4102 269.819 93.6402 269.819 98.0002Z" fill="white"/>
<path d="M266.929 98.39C266.929 101.26 266.189 104.39 263.069 104.39C259.949 104.39 259.219 101.39 259.219 98.39C259.219 95.39 260.939 94.02 263.069 94.02C265.199 94.02 266.929 95.51 266.929 98.39Z" fill="#211815"/>
<path d="M253.939 110.92L249.409 115.46L244.879 110.92" stroke="#231815" stroke-width="1.98" stroke-linecap="round" stroke-linejoin="round"/>
<path d="M21.9782 152L23.0482 150.75L22.7682 146.23L21.9382 141.76L21.4782 137.26L20.9882 132.77L21.2682 128.2L20.6982 123.71L19.8182 119.24V114.7L19.5882 110.18L18.7882 105.71L18.7382 101.17L18.0682 96.68L17.9882 92.15L17.5282 87.65L16.9382 83.16L16.9482 78.61L16.4282 74.11L16.1982 69.59L15.9882 65.06L15.0282 60.59L14.9082 56.06L14.5682 51.54L14.2682 47.02L14.2582 42.48L14.1982 37.94L13.3882 33.45L13.5382 28.91L13.2882 24.39L12.8082 19.88L12.4082 15.36L12.8782 10.82L12.5282 6.30004L12.6182 1.78004L9.0882 0.540039L5.4082 1.73004L5.8782 6.28004L5.5382 10.84L6.2282 15.37L5.9582 19.94L6.6382 24.47L6.7982 29.02L6.8482 33.58L7.0182 38.13L7.6482 42.65L7.4582 47.23L7.7882 51.77L8.2882 56.3L8.1782 60.88L9.0082 65.39L8.8182 69.97L9.6482 74.48L9.6082 79.05L10.3182 83.58L10.5282 88.13L10.7082 92.69L11.3782 97.21L11.5482 101.78L12.0482 106.31L12.2382 110.87L12.9682 115.39L13.4982 119.92L13.7582 124.47L13.8182 129.04L14.2482 133.58L14.8082 138.11L15.2282 142.65L16.0282 147.15L15.9482 151.73L17.3982 152.54L21.9782 152Z" fill="#C8C8C8"/>
<path d="M11.1592 3.58028C10.74 3.31802 10.2626 3.16344 9.76922 3.13028C9.32491 3.0653 8.87352 3.0653 8.42922 3.13028C7.98912 3.25199 7.57311 3.44815 7.19922 3.71027" stroke="black" stroke-width="1.13" stroke-miterlimit="10" stroke-linecap="round"/>
<path d="M17.6191 150.17C18.0625 150.378 18.55 150.474 19.0391 150.45C19.4894 150.453 19.9376 150.389 20.3691 150.26C20.7965 150.093 21.1896 149.849 21.5291 149.54" stroke="black" stroke-width="1.13" stroke-miterlimit="10" stroke-linecap="round"/>
<path d="M78.3887 10.1401L78.9187 13.1601L78.9487 16.2401L79.3787 19.2801L79.7687 22.3301V25.3901L79.5387 28.4501L79.6487 31.5201L79.5187 34.5801L79.0287 37.6301" stroke="black" stroke-width="1.57" stroke-miterlimit="10" stroke-linecap="round"/>
</svg>
