<svg xmlns="http://www.w3.org/2000/svg" viewBox="0 0 291 197"><defs><style>.cls-1{fill:#fae7e7;}.cls-2{fill:#d3d4d4;}.cls-3{fill:#f56977;}.cls-4{fill:#27b5f7;}.cls-5{fill:#f8c341;}</style></defs><g id="圖"><path class="cls-1" d="M70.36,81.35l40.74,33.09c2,.83,4,1.39,5-.6l5-8.82c3.34-6.49,7-13.28,8.79-20.39a57.86,57.86,0,0,0,.78-17.83.28.28,0,0,1,0-.09c-.48-4.82-2.31-12.16-2.31-17.31,0-3.54,6-3,9.37,2.1,1.48,2.26,1.47,10.26,5.16,6.57,2-2,4.4-6.09,9.46-4.65s2.9,4.34,5.79,5.22c5.21,1.56,2.53,6.44,5.78,7.87s.77,5.52,5,7.07c5.23,1.94-.91,11.81-4.2,15.11s-8,10.13-12.8,16.32c-4.34,7.08-13,20.4-22.22,30.37-5,5.45-11.37,6.92-17.94,3.68L60.6,102.58Z"/><path class="cls-1" d="M27.62,42c0-23.21,11.84-31.46,26.44-31.46S80.5,18.79,80.5,42c0,12.14-5.78,22.67-14.24,27.91l-.14.1a3,3,0,0,0-1,2.88l1.54,8a7.29,7.29,0,0,1-7.27,7.27H47.69a6.25,6.25,0,0,1-6.24-6.25l1.57-9a3,3,0,0,0-.89-2.72l-.3-.23C33.39,64.64,27.62,54.12,27.62,42Z"/><path class="cls-2" d="M86.26,87.21a137.77,137.77,0,0,1,16,14c1.85,1.93,4.86,7.08,3.23,9.19-2.71,3.5-7.28,12.16-11.29,17.7-1.33,1.84-4.33-1.64-6.15-3l-14.5-11Z"/><path class="cls-2" d="M19.51,89c10.08-10.37,19.26-13.23,22.28-13.4,12.53,5.17,23.06,2.33,24.88,1a72,72,0,0,1,22,12.55c3,2.56,22.81,55.74,22.6,107.91H8.37S7.44,180.23,6,153.44l-2.47.32C2.21,127.43,7.12,101.69,19.51,89Z"/><ellipse cx="63.11" cy="36.25" rx="1.49" ry="3.14"/><ellipse cx="46.71" cy="36.25" rx="1.49" ry="3.14"/><path d="M54.91,43.74a.8.8,0,0,1-.8-.8V30.27a.8.8,0,0,1,1.6,0V42.94A.8.8,0,0,1,54.91,43.74Z"/><path d="M49.81,51.66a13.79,13.79,0,0,1-1.65-.09A.8.8,0,1,1,48.37,50c.08,0,8.25,1,12.84-5.16a.8.8,0,0,1,1.12-.17.81.81,0,0,1,.16,1.12C58.61,51,52.67,51.66,49.81,51.66Z"/><path class="cls-1" d="M9.93,151.25a1.25,1.25,0,0,0-.86,1.22c0,2.71.24,10.67,3.39,17.4,4.66,9.94,14.21,19.18,23,26.2a4.31,4.31,0,0,0,2.67.93h65.65a4.66,4.66,0,0,0,4.5-4.85c-.12-9-2.73-21.67-17.57-26.19,0,0-13.4-4.2-30.52,6.66a4.27,4.27,0,0,1-4.3.17c-7-3.74-24.83-13.39-25.32-14.85a28.37,28.37,0,0,1-1.93-9.32,1.21,1.21,0,0,0-1.35-1.15A124.47,124.47,0,0,0,9.93,151.25Z"/><path d="M102.05,196.23a.8.8,0,0,1-.78-.64,59.19,59.19,0,0,0-6.76-17.74.8.8,0,0,1,1.38-.8,60.72,60.72,0,0,1,6.94,18.22.8.8,0,0,1-.62.94Z"/><path d="M93.26,196.53a.75.75,0,0,1-.75-.65,38.36,38.36,0,0,0-5.71-15.24.76.76,0,1,1,1.27-.82A40,40,0,0,1,94,195.66a.76.76,0,0,1-.64.86Z"/><path d="M83.57,196.2a.73.73,0,0,1-.71-.59,38.44,38.44,0,0,0-4.81-12.43.72.72,0,0,1,1.24-.75,39.78,39.78,0,0,1,5,12.9.72.72,0,0,1-.57.85Z"/><path d="M65.4,196.2a.63.63,0,0,1-.3-.07.75.75,0,0,1-.4-1,10,10,0,0,1,2.16-3.51,4.2,4.2,0,0,1,4.33-1.08,5.35,5.35,0,0,1,2.11,1.7A7.46,7.46,0,0,1,75,195.06a.77.77,0,0,1-1.48.39,6,6,0,0,0-1.34-2.22,4.23,4.23,0,0,0-1.5-1.27,2.75,2.75,0,0,0-2.71.77,8.74,8.74,0,0,0-1.82,3A.76.76,0,0,1,65.4,196.2Z"/><path d="M31.59,143.41a.8.8,0,0,1-.79-.72c-1.23-12.22-1-22.16.79-31.31a.79.79,0,0,1,.93-.63.8.8,0,0,1,.63.94c-1.73,9-2,18.78-.76,30.84a.8.8,0,0,1-.71.87Z"/><path d="M147.53,68.94a.8.8,0,0,1-.62-1.3c.1-.12,2.4-3,2.91-3.5l.62-.67c1.7-1.81,2.4-2.57,4.47-4.61a.79.79,0,0,1,1.12,0A.8.8,0,0,1,156,60c-2.05,2-2.7,2.71-4.42,4.56l-.63.67c-.39.42-2.17,2.61-2.83,3.41A.78.78,0,0,1,147.53,68.94Z"/><path d="M153.11,75.44a.8.8,0,0,1-.58-1.34c.78-.84,1.3-1.42,1.73-1.89.63-.69,1.08-1.19,1.84-1.94L160.52,66a.8.8,0,1,1,1.12,1.14l-4.42,4.32c-.73.72-1.15,1.17-1.77,1.87l-1.76,1.91A.83.83,0,0,1,153.11,75.44Z"/><path d="M159.92,81a.8.8,0,0,1-.52-.19.81.81,0,0,1-.08-1.13,42,42,0,0,1,6.17-6,.8.8,0,0,1,1,1.22,40.47,40.47,0,0,0-6,5.81A.78.78,0,0,1,159.92,81Z"/><path d="M144.42,88.6a.67.67,0,0,1-.24,0,.79.79,0,0,1-.53-1,27.89,27.89,0,0,0-3.74-23.74.8.8,0,0,1,1.31-.91,29.51,29.51,0,0,1,4,25.11A.8.8,0,0,1,144.42,88.6Z"/><path d="M156.75,84.41h-.12a9.39,9.39,0,0,1-7.16-5.84,1.54,1.54,0,0,0-.08-.19h-.08a6.8,6.8,0,0,1-4.51-2,.8.8,0,0,1,1.13-1.13,5.26,5.26,0,0,0,3.4,1.55,1.75,1.75,0,0,1,.86.18,1.77,1.77,0,0,1,.77,1,7.78,7.78,0,0,0,5.92,4.84.79.79,0,0,1-.13,1.58Z"/><polygon class="cls-3" points="207.84 171.72 209.85 168.75 212.05 165.71 214.73 163.03 216.89 159.97 218.47 156.48 220.67 153.44 223.63 150.95 225.25 147.49 227.38 144.4 229.74 141.47 232.27 138.68 234.08 135.35 236.13 132.2 238.81 129.51 240.91 126.39 243.19 123.41 245.3 120.3 247.47 117.22 249.98 113.89 245.75 114.55 242.16 116.23 238.42 117.22 234.54 117.64 230.67 118.08 226.99 119.33 223.32 120.63 219.38 120.82 215.72 122.15 212 123.28 208.22 124.12 204.47 125.09 200.67 125.85 196.74 126.09 193.11 127.58 189.38 128.64 185.65 129.72 182.14 130.29 184.08 133.13 185.4 136.77 187.58 139.88 189.7 143.02 191.94 146.08 193.84 149.36 195.93 152.53 198 155.7 199.89 158.98 202.06 162.1 204.03 165.34 205.44 168.94 207.84 171.72"/><polygon class="cls-4" points="216.11 96.8 213.79 91.64 211.56 86.22 209.15 80.87 207.11 75.36 204.91 69.92 202.6 64.53 200.34 59.11 198.09 53.7 195.09 48.59 192.62 43.26 190.59 37.6 195.82 36.15 200.54 33.85 205.14 31.26 209.95 29.17 215.13 27.94 219.98 24.87 221.5 31 223.99 36.3 227.17 41.33 229.28 46.8 231.63 52.18 233.98 57.56 235.46 63.31 238.06 68.57 240.5 73.91 243.17 79.16 245.15 84.85 240.29 87.22 235.48 89.3 230.62 91.27 225.89 93.56 220.62 94.55 216.11 96.8"/><polygon class="cls-5" points="175.14 165.06 174.1 174.94 167.48 182.32 158.41 186.01 148.87 184.12 141.33 178.14 136.93 169.27 138.58 159.34 144.9 151.59 154.25 148.34 164.21 149.16 172.1 155.54 175.14 165.06"/><path d="M187.18,183.8a1.09,1.09,0,0,1-.25,0l-7.45-2.08-2.5-.5-2.59-.74-5.08-.87-2.62-.64-2.56-.76-5.08-1-.1,0-2.51-.82-2.48-.61-2.54-.5-2.6-.71-5.23-1.32a.92.92,0,0,1,.16-1.82l2.8-.21,10.53-2.59.32-.14-.19-.06-2.38-1-4.7-1.7-2.39-.75-7.18-2.53-2.39-1-2.34-.71-2.4-.62-2.46-.79-2.4-.59-2.42-.4-2.52-.57-2.45-.45-2.47-.37-2.48-.24a.93.93,0,0,1,.18-1.85l2.52.25,2.56.38,2.51.47,2.51.56,2.44.41,2.52.61,2.47.8,2.4.62,2.45.74,2.43,1,7.11,2.51,2.39.75,2.41.85,2.4.89,2.36,1,2.3.84a1,1,0,0,1,.61.84.94.94,0,0,1-.55.88l-2.49,1.11-.17.05-5.36,1.26-3.57.93.63.16,2.56.71,2.51.49,2.59.64,2.52.82,5.1,1,2.61.77,2.51.62,5.11.88,2.62.74,2.5.5,7.51,2.09a.93.93,0,0,1-.25,1.83Z"/><path d="M159,124.47a.93.93,0,0,1-.41-1.77l2.43-1.18.11,0,2.48-.85,4.7-2.46,4.56-2.73,4.73-2.62,2.14-1.42,2-1.69a.91.91,0,0,1,.16-.11l2.35-1.22,2-1.39,3.75-3,1.59-1.78,2-2.41-1.8.58-2.27.89-2.41.82-2.44.7-.11,0-4.43.69a.86.86,0,0,1-.5-.06l-1.84-.76a.93.93,0,0,1-.56-.77l-.3-3.32a.94.94,0,0,1,0-.29l.57-2.57a1,1,0,0,1,.14-.32l3-4.35a.8.8,0,0,1,.22-.23L183,89.32l.12-.07,2.32-1.16L187.93,87a.66.66,0,0,1,.2-.06l2.6-.49a.86.86,0,0,1,.39,0l2.34.58a.44.44,0,0,1,.16.06l2.11,1a.86.86,0,0,1,.41.37L197.61,91a.87.87,0,0,1,.13.45l0,2.94a.55.55,0,0,1,0,.18l-.2,1.08.15-.11a.87.87,0,0,1,.18-.11l2.25-1,2.06-1.31,2-1.45,5.44-5,1.59-1.81L212.93,83l1.48-2L216,79.16l1.24-2,.95-2.26,1.12-2.36L220,70.4l-1.32.43-2.39.71-2.44.61-4.73,1.33-.12,0-4.49.67a1,1,0,0,1-.43,0l-2-.66a1,1,0,0,1-.57-.54l-.77-2a1,1,0,0,1-.06-.48l.32-2.12a2.58,2.58,0,0,1,.08-.26l1-2a1,1,0,0,1,.2-.28l1.79-1.67.13-.09,2-1.33,2.21-1.19.14-.06,2.32-.78.22,0,2.43-.2h.21l3,.44a.87.87,0,0,1,.31.1l2.65,1.43a1.14,1.14,0,0,1,.31.27l1.5,2.08a.88.88,0,0,1,.17.4l.37,2.37.49-.22,2-1.3.11-.06,2.14-1,1.83-1.5,1.86-1.58,1.95-1.5,1.63-1.64,1.26-2,1.46-2,1.15-2,.64-2.28.73-1.89-1.62,1.32L236,51.52l-2,1.6-.23.14-2.28,1-.11,0-2.39.67a.94.94,0,0,1-.41,0l-2.4-.44a.73.73,0,0,1-.25-.08l-2.13-1.06-.19-.13-1.82-1.57a1,1,0,0,1-.29-.47L221,48.82a.9.9,0,0,1,0-.4l.41-2.14a1,1,0,0,1,.11-.31l1.13-1.88.12-.15,1.48-1.59,1.8-2a.74.74,0,0,1,.12-.13l2.18-1.68,2.4-1.52a1.48,1.48,0,0,1,.29-.12l2.68-.6a1.08,1.08,0,0,1,.31,0l2.74.31a.87.87,0,0,1,.44.16l2,1.46a.92.92,0,0,1,.3.35l1.09,2.22.91,2.39a.86.86,0,0,1,.05.27l0,.83,2.45-2.43,4.75-5.86,1.77-1.9L252,32.16,253.18,30l4.31-6.36A.93.93,0,0,1,259,24.67L254.77,31l-1.16,2.15a.57.57,0,0,1-.08.13l-1.55,2-1.78,1.92L245.47,43l-.08.08-3.57,3.57-.09.08-.14.1-.21,1.68a.8.8,0,0,1,0,.21l-.89,2.32-.64,2.3a.67.67,0,0,1-.09.21l-1.23,2.15-.06.09-1.46,2-1.27,2.05a1,1,0,0,1-.13.16l-1.74,1.76a.39.39,0,0,1-.1.08l-2,1.51-1.84,1.57L228,66.5l-.19.12-2.19,1-2,1.31-.12.07-1.43.63-.09.9a.59.59,0,0,1,0,.23L221,73.22l-1.14,2.41-1,2.28-.06.12-1.31,2.15-.07.09-1.57,2-1.5,2-.07.08-1.74,1.8-1.63,1.85-5.6,5.17-2.1,1.54L201.07,96l-.13.07-2.22,1-1.95,1.44-.13.08-.36.85a1.58,1.58,0,0,1-.15.24L193,103.41l-1.66,1.87-.11.1-3.86,3.09-2,1.47-.11.06-2.31,1.2-2,1.66-.08.06-2.24,1.49-4.78,2.64-4.58,2.74-4.8,2.52-.14.06-2.49.85-2.38,1.15A.85.85,0,0,1,159,124.47ZM179,101.18l1.09.45,4.1-.65,2.35-.67,2.33-.79,2.28-.9,2.45-.78,1.61-.68.27-.65.42-2.22,0-2.59-1.2-2-1.76-.81-2.06-.51-2.3.42-2.3,1-2.22,1.11-2,1.38-2.8,4-.49,2.26Zm24.13-29.31,1.34.44,4.24-.63,4.68-1.33,2.44-.6,4.42-1.37,0-.45L220,65.72,218.71,64l-2.32-1.25-2.76-.4-2.22.18-2.13.72-2.07,1.12-1.9,1.24-1.6,1.49-.82,1.72-.26,1.73Zm23.56-19.19,2.06.38,2.13-.59,2.1-.88,1.81-1.47,1.77-1.63,3.26-2.63-.13-2.2-.83-2.18-.95-1.93-1.66-1.18-2.35-.26-2.38.53L229.35,40l-2,1.58-1.75,2-1.44,1.54-1,1.66-.34,1.77.49,1.86,1.52,1.31Z"/><path d="M230.73,170.44a.84.84,0,0,1-.45-.13l-6.84-4-2.22-1.38-4.51-2.36-2.21-1.3-2.36-.9-.1,0-1.35-.71-.33.22-2.13,1.51-2,1.61-.09.07-2.24,1.39-2.12,1.48-2.06,1.59a.91.91,0,0,1-1.15-1.4l1.94-1.74,1.64-1.94,1.38-2.21,1.19-2.21.33-1.41-4.39-2.33-2.24-1.1-2.41-.8a.91.91,0,0,1-.22-.11l-2.1-1.39-4.7-1.93-2.31-1.09a.9.9,0,0,1-.49-1,.86.86,0,0,1,.92-.69l2.44.11,2.54.2,5,.76,2.46.1,5.08.58,3.1.21.05-.19.37-2.62a.62.62,0,0,1,.07-.23l1.06-2.41.72-2.52a1.34,1.34,0,0,1,.07-.18l1.17-2.21a.9.9,0,0,1,.8-.48h0a.92.92,0,0,1,.8.47l1.15,2.15,1.43,2.08,1.34,2.31,1.43,2.13,1.74,3,2.25.25.13,0,.82.23,1.85-1.28,2.34-1.35,2.45-1.17,2.2-1.3a.91.91,0,0,1,1.24.32.92.92,0,0,1-.32,1.25l-2.27,1.33-2.46,1.17-2.65,1.58,1.64.25,2.47.3,7.5,1.15.13,0,2.42.74a.9.9,0,1,1-.52,1.73l-2.36-.72-7.41-1.14-2.48-.29-2.51-.38-.11,0-.88-.24-1.66.93.27.57,2.79,4.35a.47.47,0,0,1,0,.1L226,160l1.4,2.12,1.26,2.4,2.88,4.48a.91.91,0,0,1-.1,1.12A.94.94,0,0,1,230.73,170.44Zm-17.89-11.77,2.38.91.14.07,2.22,1.31,4.55,2.38,2.24,1.4,3.56,2.1-.88-1.37-1.26-2.38L224.4,161a.41.41,0,0,1-.07-.11l-1.09-2.32-2.79-4.36,0-.09-.21-.45-.92.58L217,155.57l-2.28,1.26-2.27,1.62Zm-6.11-1.35-.28,1.17a.85.85,0,0,1-.09.22l-1.27,2.37-.44.7.48-.29,2-1.62,1.82-1.29-1.39-.89Zm.48-1.77,1.16.51.12.07,2.1,1.35,1-.64,2.11-1.51.09-.06,2.31-1.28,3.32-2-.13-.27-.41-.7-1.86-.13-2.57-.41-2.47-.33-2.86-.15-.21.83-.8,2.59Zm-10.53-4.91,2.36.77.12.05,2.31,1.14,4.1,2.18.81-1.95.89-3-.34,0-2.46-.12-5.05-.58L197,149h-.11l-4.76-.73,2.36.95a.83.83,0,0,1,.16.09Zm12.87-2.39h.1l2.45.11,2.58.33,2.52.41.53,0-1.08-1.85-1.42-2.13-1.35-2.3-1.43-2.11-.4-.73-.33.63-.72,2.48a.56.56,0,0,1,0,.12l-1,2.35-.36,2.55S209.56,148.22,209.55,148.25Z"/></g></svg>