<svg xmlns="http://www.w3.org/2000/svg" viewBox="0 0 600 350"><defs><style>.cls-1{fill:#fae7e7;}.cls-2{fill:#27b5f7;}.cls-3{fill:#f56977;}.cls-4{fill:#fff;}.cls-5{fill:#f0f0f0;}.cls-6{fill:#f8c341;}</style></defs><g id="圖"><path class="cls-1" d="M533.33,155.63c2.26-33.76-17.88-46.8-38.63-47.57-21.57-.8-36.94,13-41.2,46.66-2.26,17.8,7,35.65,21.26,41.16a.72.72,0,0,1,.22.15,4.35,4.35,0,0,1,1.51,4.25l-2.21,11.77a10.78,10.78,0,0,0,10.8,10.69l17.26-.09a9.24,9.24,0,0,0,9.19-9.28L509.14,200a4.37,4.37,0,0,1,1.3-4,2.88,2.88,0,0,1,.43-.34C523.32,187.84,532.13,173.51,533.33,155.63Z"/><path class="cls-1" d="M454.55,212.74l-74.22,28.37c-3.31.28-6.49.19-7.21-3.06l-4-14.62c-2.37-10.59-5.16-21.77-4.91-32.53a79.36,79.36,0,0,1,6-25.38,1.12,1.12,0,0,0,.05-.13c2.67-6.56,8.6-13,7.5-20.56-1-6.56-8.65-11.81-13.56-5.42-2.41,3.14-6.14,11.7-10.38,5.59-2.4-3.47-2.61-8.27-3.8-12.2-1.68-5.54-2.17-14-8.47-16.51-4.06-1.63-6.74,2.67-10.55,2.92-1.89.12-3.79-.91-5.71-1a7.73,7.73,0,0,0-5.69,1.82c-.62.55-1.18,1.17-1.85,1.67-1.55,1.16-3.2.52-5,.67a6.83,6.83,0,0,0-4.31,1.74c-2.5,2.26-1.65,4.78-1.57,7.78,0,1.42-.82,1.58-2,1.13a6.48,6.48,0,0,0-2.64-.49,11.56,11.56,0,0,0-1.32.12c-10.63,1.72-3.62,17.68-1.82,23.67,1.44,4.8,5.64,17.17,8.06,21.56l.11.18a338.4,338.4,0,0,1,15.85,31.71c3.63,11.87,11.15,34.41,20.95,52.52,5.35,9.89,14.19,14.76,25.31,13.13l91.14-28.5Z"/><path class="cls-2" d="M558.79,309.87h5c3.58-34.52-3.7-67.79-20.85-86.49-15.61-17-25.4-17.5-30.36-18.07-21.15,6.68-38.21,1.23-41.09-1l-.9.25a72.71,72.71,0,0,0-51,54c-7.27,32-11.18,66.9-13.21,91.48H551.68C554,334.44,558.79,309.87,558.79,309.87Z"/><ellipse cx="468.86" cy="141.89" rx="4.45" ry="2.1" transform="translate(288.05 597.15) rotate(-85.18)"/><ellipse cx="491.98" cy="143.84" rx="4.45" ry="2.1" transform="translate(307.28 621.97) rotate(-85.18)"/><path d="M479.64,154.68h-.1a1.15,1.15,0,0,1-1.05-1.24l1.61-19.1a1.15,1.15,0,1,1,2.29.19l-1.61,19.1A1.14,1.14,0,0,1,479.64,154.68Z"/><path d="M477.71,166.8a19.16,19.16,0,0,1-6.8-1.22,1.15,1.15,0,1,1,.9-2.11h0c.45.19,11.2,4.56,18-5.72a1.15,1.15,0,0,1,1.92,1.27A16.13,16.13,0,0,1,477.71,166.8Z"/><path class="cls-2" d="M470.54,204.52,395.06,228.6s8.66,37,10.92,43.79l47.18-12.06Z"/><path class="cls-1" d="M558.79,324.58V309.87s-19.44-1.44-24.78-1.39a3,3,0,0,0-2.73,3.06c-.09,4.4-.34,10.39-.34,10.39-1.37,4.95-9.25,21-13.2,28.07h36.55C557.36,339.84,558.79,324.58,558.79,324.58Z"/><path d="M525.48,306.84h-.09a1.15,1.15,0,0,1-1.06-1.24c.21-2.61.45-5.36.7-8.15.49-5.55,1-11.29,1.25-16.47.28-5.78.27-10.45.25-15v-1.15a1.15,1.15,0,0,1,1.15-1.15h0a1.15,1.15,0,0,1,1.15,1.15V266c0,4.56,0,9.27-.26,15.1-.25,5.23-.76,11-1.25,16.56-.25,2.79-.49,5.53-.69,8.13A1.15,1.15,0,0,1,525.48,306.84Z"/><path d="M315.24,157.39a1.16,1.16,0,0,1-1.13-.9,23.9,23.9,0,0,0-2-5.07l-.47-1a89.9,89.9,0,0,1-5-14,1.13,1.13,0,0,1,.79-1.41,1.15,1.15,0,0,1,1.42.8,87.55,87.55,0,0,0,4.89,13.66l.47,1a26.24,26.24,0,0,1,2.14,5.56,1.15,1.15,0,0,1-.88,1.37Z"/><path d="M327.26,149.6a1.16,1.16,0,0,1-1.05-.67,167.49,167.49,0,0,1-8.36-22.08,1.15,1.15,0,0,1,2.2-.67A166.45,166.45,0,0,0,328.3,148a1.13,1.13,0,0,1-.56,1.52A1.05,1.05,0,0,1,327.26,149.6Z"/><path d="M340.64,144.88a1.14,1.14,0,0,1-1-.63A157.73,157.73,0,0,1,331,123.49a1.15,1.15,0,0,1,2.19-.72,154.89,154.89,0,0,0,8.44,20.45,1.14,1.14,0,0,1-.51,1.54A1.19,1.19,0,0,1,340.64,144.88Z"/><path d="M343,183.72a1.16,1.16,0,0,1-1.1-.81l-.08-.26a25.4,25.4,0,0,1,1.62-19.19c1.12-2.32,3.17-5.39,6.59-6.77a1.15,1.15,0,0,1,.86,2.14c-2.74,1.1-4.43,3.67-5.37,5.63-4.25,8.84-2.19,15.36-1.51,17.5l.09.27a1.16,1.16,0,0,1-.76,1.44A1.4,1.4,0,0,1,343,183.72Z"/><path class="cls-3" d="M103.06,324.31a4.29,4.29,0,0,1-4.43,4.15,5.63,5.63,0,0,0-5.85,4.66A5.41,5.41,0,0,0,98,339.26l8.2.27a7.22,7.22,0,0,0,7.44-7l1-29.86-10.81-.35Z"/><path class="cls-3" d="M65.56,314.5A4.3,4.3,0,0,1,60,316.84a5.64,5.64,0,0,0-7.11,2.32,5.42,5.42,0,0,0,2.71,7.57l7.6,3.12a7.22,7.22,0,0,0,9.41-3.93l11.38-27.64-10-4.12Z"/><polygon class="cls-3" points="103.78 247.5 96.93 242.82 90.46 237.74 83.51 233.35 76.62 228.87 70.1 223.87 63.32 219.23 56.39 214.81 49.83 209.85 43 205.72 41.27 214.06 39.67 222.66 37.64 231.17 35.92 239.75 34.41 248.38 32.78 256.97 30.71 265.48 28.89 274.04 27.56 282.7 25.85 291.28 23.76 299.79 22 308.37 20.48 316.9 28.46 315.44 36.51 313.79 44.57 312.22 52.57 310.33 60.62 308.71 68.7 307.23 76.74 305.55 84.78 303.86 92.77 302.29 100.38 305.79 108.05 309.34 115.37 313.6 122.99 317.27 130.62 320.8 132.56 312.44 133.89 303.9 135.82 295.49 137.21 286.97 139.18 278.57 140.98 270.13 142.35 261.6 144.17 253.16 146.07 244.66 137.57 245.15 129.16 246.04 120.71 246.31 112.27 246.64 103.78 247.5"/><path class="cls-4" d="M87,265.44c-1,5.16-3.49,10.47-9.08,9.34s-5.85-6.74-4.76-12.13,4.68-7.21,8.5-6.44S88,260.28,87,265.44Z"/><path d="M85.4,264c-.69,3.42-2.32,6.94-6,6.2s-3.88-4.48-3.16-8.05,3.11-4.78,5.64-4.27S86.09,260.62,85.4,264Z"/><path class="cls-4" d="M122.55,272.61c-1,5.16-3.5,10.47-9.09,9.34s-5.84-6.74-4.76-12.13,4.68-7.21,8.51-6.44S123.59,267.45,122.55,272.61Z"/><path d="M121,271.21c-.69,3.42-2.32,6.94-6,6.2s-3.87-4.48-3.15-8.05,3.1-4.78,5.64-4.27S121.66,267.79,121,271.21Z"/><path d="M95.68,289.17a11,11,0,0,1-2.14-.21,10.52,10.52,0,0,1-7.28-5.43,1.16,1.16,0,0,1,.56-1.53,1.13,1.13,0,0,1,1.52.56,8.35,8.35,0,0,0,12.48,2.51,1.15,1.15,0,0,1,1.62.09,1.14,1.14,0,0,1-.08,1.61A10.43,10.43,0,0,1,95.68,289.17Z"/><path class="cls-5" d="M276.54,92.3c-.63-.82-1.57-1.62-2.45-2.63-.72-.83-1.62-1.63-2.51-2.56s-1.49-1.8-2.41-2.66-2.15-1.09-3.09-1.9-1.45-1.93-2.42-2.68-1.92-1.37-2.92-2.07-1.87-1.45-2.9-2.11-2.36-.63-3.42-1.25-1.85-1.49-2.93-2.06-2.24-.76-3.34-1.28-2-1.34-3.09-1.81-2.18-.91-3.32-1.33-2.08-1.21-3.23-1.6-2.5.08-3.67-.25-2.15-1.09-3.32-1.38-2.34-.36-3.53-.61-2.25-.8-3.44-1-2.42.15-3.62,0-2.26-1-3.46-1.16-2.41.33-3.61.24-2.37.18-3.58.13-2.35-.41-3.55-.42-2.38-.54-3.59-.51-2.35.67-3.55.73-2.36.16-3.57.25-2.4-.2-3.6-.08a8.4,8.4,0,0,1-3.51-.39,7.87,7.87,0,0,1-3.23-1.61c-.73-.73-1.59-1.58-2.6-2.53-.81-.76-1.67-1.61-2.65-2.49s-1.92-1.37-2.89-2.2-1.65-1.73-2.63-2.52-1.76-1.62-2.76-2.38-1.94-1.4-3-2.12-1.75-1.69-2.78-2.39-2.23-1-3.27-1.65-2-1.3-3.08-1.93-2.33-.77-3.41-1.37-2.07-1.2-3.16-1.76-2-1.39-3.1-1.91-2.11-1.22-3.23-1.7-2.23-1-3.37-1.39-2.4-.48-3.55-.86-2.28-.82-3.45-1.15-2.29-.79-3.48-1.07-2.45-.08-3.64-.3-2.31-.79-3.52-1-2.37-.6-3.58-.7-2.43,0-3.65-.05-2.43-.16-3.65-.14-2.42.1-3.64.19-2.46-.12-3.67,0-2.41.4-3.61.63-2.21,1.21-3.4,1.51c-.87.22-1.89,0-2.72.35s-1.33,1.34-2.1,1.81c-1.57.95-1.91.37-3.48,1.32s-1.66.79-3.22,1.74-1.25,1.46-2.82,2.41-1.53,1-3.09,1.95-1.65.81-3.21,1.75-1.62.86-3.18,1.8-1.54,1-3.1,1.94-1.8.57-3.36,1.51-1.43,1.17-3,2.12-1.56.95-3.13,1.9-1.67.77-3.23,1.72-1.63.84-3.19,1.79-1.51,1-3.07,2-1.24,1.48-2.81,2.43-1.83.51-3.4,1.45S47.31,60,45.74,61s-1.47,1.09-3,2-1.52,1-3.09,2-1.82.53-3.38,1.48-1.54,1-3.1,2-1.38,1.27-3,2.22-1.75.65-3.32,1.6a1.51,1.51,0,0,0,1,2.81c1.19-.05,2.4.87,3.56.86s2.36-.26,3.53-.24,2.4-.64,3.56-.58,2.32.93,3.48,1,2.4-.23,3.56-.11,2.41-.07,3.56.09,2.21,1.22,3.36,1.42,2.33.36,3.47.59,2.37.25,3.5.52,2.32.52,3.44.83,2.2.92,3.31,1.27,2.43.22,3.53.6,2.12,1.13,3.2,1.55,2.26.74,3.33,1.2,2,1.35,3,1.84,2.43.43,3.46,1,2,1.3,3,1.86S88,89.55,89,90.14s2,1.3,3,1.92,1.85,1.54,2.79,2.2,1.86,1.52,2.78,2.2,1.81,1.58,2.69,2.29,2,1.31,2.89,2,2.15,1.28,2.95,2c1,.9,1.4,2.14,2.12,2.88a12.55,12.55,0,0,0,2.39,2.28,12.73,12.73,0,0,0,3.13,1.08,12.91,12.91,0,0,0,3.25.26c1.23,0,2.46-.52,3.66-.5s2.44.49,3.64.54,2.46-.21,3.66-.14,2.39.91,3.58,1,2.5-.43,3.69-.31,2.4.63,3.58.79,2.44.26,3.62.45,2.36.68,3.54.89,2.47.12,3.64.36,2.44.34,3.6.62,2.34.74,3.49,1,2.26,1,3.4,1.35,2.56.07,3.69.46,2.32.83,3.43,1.25,2.31.88,3.4,1.34,2,1.52,3.1,2,2.16,1.15,3.22,1.69,2.32.87,3.34,1.46,2.17,1.19,3.16,1.82,1.9,1.6,2.86,2.27,2.29,1.07,3.22,1.77,1.94,1.57,2.82,2.32,2,1.57,2.8,2.35,1.63,2,2.38,2.79c1,1,2.07,1.7,2.69,2.49a3.11,3.11,0,0,0,2.28,1.28,3.89,3.89,0,0,0,2.78-.28c1.51-.91,1.66-.66,3.17-1.57s1.61-.74,3.12-1.65,1.54-.86,3-1.77,1.41-1.09,2.92-2,1.32-1.23,2.83-2.14,1.58-.78,3.09-1.69,1.63-.71,3.13-1.62,1.63-.72,3.13-1.63,1.54-.88,3.05-1.79,1.34-1.17,2.85-2.09,1.49-1,3-1.86,1.27-1.32,2.78-2.24,1.87-.3,3.38-1.22,1.38-1.12,2.89-2S249,114,250.49,113s1.87-.3,3.38-1.22,1.28-1.3,2.79-2.21,1.72-.57,3.23-1.48,1.11-1.57,2.62-2.48,1.62-.73,3.13-1.64,1.68-.65,3.19-1.56,1.52-.9,3-1.82,1.21-1.42,2.72-2.34a3.82,3.82,0,0,0,2-2.45C276.83,94.71,277.28,93.27,276.54,92.3Z"/><path d="M118.18,104.63a1.14,1.14,0,0,1-.93-.48,1.15,1.15,0,0,1,.26-1.61,14.94,14.94,0,0,0,1.26-1.07,18,18,0,0,1,1.47-1.22c.52-.38,1.07-.71,1.61-1s.94-.58,1.38-.9,1.06-.71,1.59-1,.93-.6,1.38-.92,1.11-.7,1.65-1,1-.55,1.4-.85a11.09,11.09,0,0,0,1.22-1A11.86,11.86,0,0,1,132,92.18c.53-.37,1.08-.7,1.63-1s.93-.57,1.38-.87a9.93,9.93,0,0,0,1.21-1A11,11,0,0,1,137.74,88c.46-.3.91-.63,1.35-1s1-.75,1.56-1.1a6.81,6.81,0,0,1,2.07-.77,4.89,4.89,0,0,0,1.36-.47c.55-.34,1.1-.66,1.66-1s.95-.54,1.42-.83a5.13,5.13,0,0,0,1-1,7.18,7.18,0,0,1,1.6-1.49c.57-.34,1.15-.62,1.72-.89s1-.48,1.45-.75a14.3,14.3,0,0,0,1.31-.92,14.94,14.94,0,0,1,1.62-1.12,12.94,12.94,0,0,1,1.79-.82,11.8,11.8,0,0,0,1.47-.66l1.3-.76,1.78-1c.48-.26.95-.55,1.42-.83s1.09-.67,1.65-1c1-.56,2.05-1.11,3.08-1.66a17.15,17.15,0,0,1,1.8-.81,16.3,16.3,0,0,0,1.51-.68l.57-.3,2.58-1.34c.58-.3,1.16-.58,1.74-.86l1.46-.72a8.3,8.3,0,0,0,1.28-.87A11.74,11.74,0,0,1,181,63.28a1.15,1.15,0,0,1,1,2.06,8.49,8.49,0,0,0-1.34.9,11.81,11.81,0,0,1-1.63,1.08l-1.49.73c-.57.28-1.14.55-1.69.84l-2.57,1.34-.57.3c-.57.3-1.15.53-1.71.76s-1.06.44-1.53.69l-3.12,1.68c-.53.28-1,.6-1.56.91s-1,.6-1.49.88l-1.74,1c-.44.26-.88.52-1.33.77a13.5,13.5,0,0,1-1.75.79,12.85,12.85,0,0,0-1.49.68,13.82,13.82,0,0,0-1.38,1,16,16,0,0,1-1.53,1.07,18,18,0,0,1-1.63.84,16.61,16.61,0,0,0-1.52.79,5.23,5.23,0,0,0-1.05,1,6.94,6.94,0,0,1-1.57,1.47c-.49.3-1,.59-1.5.87s-1.05.59-1.56.91a6.73,6.73,0,0,1-2,.76,4.83,4.83,0,0,0-1.38.48c-.5.31-1,.66-1.45,1s-1,.7-1.45,1a8.67,8.67,0,0,0-1.22,1,11.86,11.86,0,0,1-1.51,1.26c-.48.32-1,.62-1.47.92s-1,.63-1.53,1a10.3,10.3,0,0,0-1.23,1,13.36,13.36,0,0,1-1.49,1.26c-.51.35-1,.65-1.56,1s-1,.58-1.47.9-1,.64-1.45,1-1,.65-1.51,1-1,.66-1.51,1-1,.62-1.47,1a13.13,13.13,0,0,0-1.26,1.06,18.37,18.37,0,0,1-1.47,1.23A1.12,1.12,0,0,1,118.18,104.63Z"/><path class="cls-5" d="M261.91,184.43a33.18,33.18,0,0,0-2.67-2.23c-.88-.59-2-1-3.09-1.6s-1.77-1.47-2.89-2-2.09-.91-3.23-1.35-2.05-1.1-3.21-1.46-2.17-.82-3.35-1.11-2.38.13-3.57-.08-2.22-.68-3.42-.82-2.28-.54-3.48-.6-2.32.79-3.52.8-2.3-.24-3.49-.17-2.35-.28-3.54-.15-2.28.41-3.46.61-2.33.2-3.5.45-2.2.78-3.36,1.08-2.1,1.05-3.24,1.4-2.44,0-3.56.39c-1.53.54-3.26,1.19-4.58.39-.81-.5-1.55-1.6-2.79-2.28-.94-.52-1.84-1.41-3-2-1-.5-2.19-.8-3.33-1.32s-2.38-.34-3.53-.8-2.1-1-3.25-1.44-2.08-1.23-3.24-1.58-2.28-.63-3.45-.92-2.32-.51-3.5-.74-2.38-.13-3.57-.29-2.37.06-3.57,0-2.33-1-3.53-1-2.34,1-3.53,1.07-2.38-.18-3.57,0-2.4.08-3.56.35-2.36.46-3.5.83-2,1.36-3.13,1.82-2.47.32-3.54.88a12.6,12.6,0,0,0-2.62,2.39c-1.31,1.3-1,1.61-2.31,2.9s-1.54,1.06-2.85,2.36-1.16,1.44-2.47,2.74-1.27,1.32-2.58,2.62-1.3,1.31-2.6,2.61-1.32,1.28-2.63,2.58-1.64,1-2.95,2.26-1.28,1.31-2.59,2.61-1.07,1.53-2.38,2.83-1.16,1.44-2.47,2.74-1.51,1.09-2.82,2.39-1,1.63-2.29,2.93-1.69.92-3,2.22-1,1.61-2.31,2.91c-.8.8-.39,1.73.67,1.42s2.41-.18,3.54-.45,2.22-.94,3.36-1.15,2.29-.84,3.44-1,2.39-.24,3.54-.34,2.41.08,3.57,0,2.38,0,3.54.06,2.37.22,3.53.29,2.43-.39,3.58-.26,2.38.4,3.51.59,2.27.9,3.39,1.15,2.5-.08,3.6.23,2.31.75,3.39,1.12,2,1.58,3,2,2.26.86,3.26,1.33c1.17.54,2.43.64,3.38,1.15,1.2.64,2.09,1.47,2.92,2a12,12,0,0,0,6,.78c1.21-.29,2.49-.13,3.65-.37s2.4-.51,3.57-.71,2.31-1.16,3.49-1.32,2.47-.15,3.65-.28,2.49.12,3.67,0,2.46-.1,3.64-.13,2.46.07,3.64.1,2.5-.59,3.68-.5,2.4.93,3.56,1.07,2.5,0,3.65.21,2.37.8,3.5,1.08,2.5.27,3.61.62,2.21,1.21,3.27,1.63c1.21.49,2.63.31,3.64.81,1.21.6,1.9,1.88,2.82,2.44,1.26.77,2.5,1.1,3.25,1.69,1,.8,2.21.5,3.21-.49,1.31-1.31,1.34-1.28,2.65-2.58s1.64-1,3-2.29,1-1.58,2.36-2.89,1.38-1.25,2.7-2.56,1.29-1.33,2.6-2.64,1.29-1.34,2.61-2.65,1.62-1,2.93-2.31,1.07-1.56,2.38-2.86,1.13-1.51,2.44-2.81,1.42-1.21,2.74-2.52,1.86-.76,3.18-2.07.79-1.84,2.11-3.15,1.66-1,3-2.29,1.54-1.09,2.86-2.41C263.73,187.26,263.1,185.39,261.91,184.43Z"/><path d="M165.38,216.29a2.08,2.08,0,0,1-1-.35,1.92,1.92,0,0,1-.14-2.17c.82-1,2-1.6,2.75-2.51s1.81-1.72,2.61-2.62,1.55-1.94,2.36-2.83,1.55-1.95,2.38-2.84,2-1.51,2.83-2.39,1.57-1.91,2.43-2.78,1.3-2.18,2.17-3,2.09-1.38,3-2.24,1.83-1.62,2.74-2.46,1.65-1.82,2.57-2.65,1.78-1.67,2.72-2.5,2.14-1.24,3.09-2.06,1.47-2,2.43-2.84c.48-.41,1,.06,1.36.54s.8,1,.32,1.46c-.95.8-2.21,1.2-3.12,2s-1.44,2.1-2.34,2.9-2,1.4-2.93,2.21-1.76,1.71-2.65,2.53-1.84,1.62-2.72,2.46-2,1.42-2.89,2.28-1.78,1.66-2.64,2.54-1.49,1.94-2.34,2.83-1.47,1.94-2.31,2.85-1.88,1.56-2.71,2.48-1.27,2.11-2.1,3-1.9,1.54-2.72,2.48-1.62,1.8-2.43,2.75C165.84,215.6,165.71,216.29,165.38,216.29Z"/><path d="M165.27,321.35a1.13,1.13,0,0,1-1.1-.82,1.15,1.15,0,0,1,.77-1.43,24.2,24.2,0,0,0,3.42-1.25,8.86,8.86,0,0,0,1.64-1.14,13.82,13.82,0,0,1,1.32-1,16.38,16.38,0,0,1,1.47-.81,9,9,0,0,0,1.71-1l.79-.64a24.79,24.79,0,0,0,2-1.75,15.33,15.33,0,0,0,1.36-1.65c.32-.42.63-.84,1-1.23.92-1.1,1.66-2,2.31-2.9.45-.6.85-1.25,1.28-1.93l.75-1.18a6.34,6.34,0,0,0,.65-1.55,8.58,8.58,0,0,1,.8-1.93,12.47,12.47,0,0,1,1.22-1.6,10.36,10.36,0,0,0,1.05-1.39,12,12,0,0,1,1.24-1.68,9.27,9.27,0,0,0,1-1.36c.29-.5.55-1,.81-1.52s.62-1.22,1-1.81.53-.94.78-1.42.68-1.27,1.08-1.9.95-1.41,1.43-2.07q.39-.53.75-1.05a8.11,8.11,0,0,0,.73-1.38,9.28,9.28,0,0,1,1.14-2,18.07,18.07,0,0,1,1.69-1.79c.34-.33.68-.66,1-1l.1-.1c.83-.89,1.69-1.82,2.63-2.66a19.32,19.32,0,0,1,1.93-1.44l1-.7a19.8,19.8,0,0,1,2-1.27c.35-.2.7-.4,1-.62a9.17,9.17,0,0,0,1.13-.88,10.16,10.16,0,0,1,1.75-1.29,7.18,7.18,0,0,1,2.12-.63,5.34,5.34,0,0,0,1.37-.36,6.78,6.78,0,0,0,1.23-.78,9.62,9.62,0,0,1,1.83-1.09,10.62,10.62,0,0,1,2-.54,8.41,8.41,0,0,0,1.46-.37c.49-.18,1-.4,1.43-.62s1.17-.55,1.81-.78,1.23-.38,1.83-.54,1-.27,1.55-.44a6.08,6.08,0,0,0,1.28-.73,7.88,7.88,0,0,1,1.84-1,13.09,13.09,0,0,1,1.86-.43,9.67,9.67,0,0,0,1.56-.36,11.22,11.22,0,0,0,1.51-.7,14.13,14.13,0,0,1,1.66-.77,13.25,13.25,0,0,1,1.76-.49,9.92,9.92,0,0,0,1.59-.45,12.35,12.35,0,0,0,1.56-.82c.48-.28,1-.56,1.5-.81l1.21-.53c.67-.28,1.31-.56,1.92-.88a16,16,0,0,1,1.56-.68,9,9,0,0,0,1.59-.72,11.7,11.7,0,0,0,1.42-1.13c.39-.35.79-.71,1.24-1a13.3,13.3,0,0,0,1.45-1.31c.34-.33.68-.67,1-1a8.34,8.34,0,0,1,1.64-1,5.22,5.22,0,0,0,1.31-.86,10.86,10.86,0,0,0,1.11-1.47c.3-.44.61-.9,1-1.33A10.3,10.3,0,0,0,262,242a14.76,14.76,0,0,1,.9-1.49,8.24,8.24,0,0,1,1.41-1.42,5.68,5.68,0,0,0,1.1-1.09,8.13,8.13,0,0,0,.68-1.48,10.28,10.28,0,0,1,.8-1.73c.3-.5.63-1,1-1.45a15.75,15.75,0,0,0,1-1.48,6.2,6.2,0,0,0,.52-1.44,8.79,8.79,0,0,1,.71-1.92,5.93,5.93,0,0,1,1.53-1.65,4.41,4.41,0,0,0,1-1c.25-.46.46-1,.69-1.47a16.24,16.24,0,0,1,.83-1.75c.24-.41.46-.83.69-1.25.34-.62.68-1.25,1.05-1.86a9.49,9.49,0,0,0,.62-1.39,7.38,7.38,0,0,1,2.33-3.53,9.79,9.79,0,0,0,1-1.07c.27-.38.51-.79.77-1.23a14.27,14.27,0,0,1,1.21-1.81c.7-.84,1.54-1.82,2.43-2.73s1.62-1.55,2.71-2.46a10.44,10.44,0,0,1,2-1.23,13.06,13.06,0,0,0,1.18-.67l.79-.54a19,19,0,0,1,2.29-1.44,1.16,1.16,0,0,1,1.55.51,1.15,1.15,0,0,1-.51,1.54,17,17,0,0,0-2,1.28l-.83.56a14.14,14.14,0,0,1-1.39.8,8.61,8.61,0,0,0-1.56.95,33.44,33.44,0,0,0-2.55,2.32c-.84.84-1.63,1.78-2.3,2.58a11.63,11.63,0,0,0-1,1.51,16.54,16.54,0,0,1-.89,1.41,11.3,11.3,0,0,1-1.27,1.38,7.71,7.71,0,0,0-1.11,1.22,7.15,7.15,0,0,0-.66,1.47,10.1,10.1,0,0,1-.8,1.75c-.35.59-.67,1.18-1,1.78-.23.43-.47.86-.71,1.29a14.27,14.27,0,0,0-.72,1.52c-.24.55-.48,1.12-.79,1.68a6.24,6.24,0,0,1-1.53,1.65,4,4,0,0,0-1,1,6.81,6.81,0,0,0-.51,1.41,8.13,8.13,0,0,1-.73,2,17.28,17.28,0,0,1-1.11,1.67c-.3.43-.6.86-.87,1.3a9,9,0,0,0-.63,1.39,9.57,9.57,0,0,1-.9,1.89,7.59,7.59,0,0,1-1.54,1.6,6.57,6.57,0,0,0-1,1,13.53,13.53,0,0,0-.75,1.26,12.37,12.37,0,0,1-1.16,1.82c-.29.35-.55.74-.83,1.15a13.91,13.91,0,0,1-1.35,1.78,7.19,7.19,0,0,1-1.91,1.3,6.58,6.58,0,0,0-1.19.74c-.33.28-.64.59-.94.9a15.81,15.81,0,0,1-1.71,1.52c-.36.27-.7.57-1.07.9a9.56,9.56,0,0,1-3.71,2.29,12.47,12.47,0,0,0-1.32.56c-.69.37-1.4.67-2.09,1l-1.15.5c-.43.2-.85.45-1.3.71a15.3,15.3,0,0,1-1.85,1,11.35,11.35,0,0,1-2,.56,11.45,11.45,0,0,0-1.46.4,12.51,12.51,0,0,0-1.4.66,13.64,13.64,0,0,1-1.81.83,12.72,12.72,0,0,1-1.92.46,9.2,9.2,0,0,0-1.52.34,6.13,6.13,0,0,0-1.29.73,7.44,7.44,0,0,1-1.83,1c-.56.19-1.13.35-1.7.5s-1.13.3-1.66.48-1,.43-1.6.69-1,.49-1.59.69a10.38,10.38,0,0,1-1.82.47,10.39,10.39,0,0,0-1.56.41,7.85,7.85,0,0,0-1.36.84,9.43,9.43,0,0,1-1.6,1,7.69,7.69,0,0,1-1.92.53,5.33,5.33,0,0,0-1.45.4,7.41,7.41,0,0,0-1.35,1,11,11,0,0,1-1.4,1.08l-1.1.66a18.61,18.61,0,0,0-1.81,1.13c-.34.26-.7.5-1.06.75a15,15,0,0,0-1.7,1.26c-.86.77-1.68,1.65-2.47,2.5l-.1.11c-.35.37-.71.72-1.08,1.08a18,18,0,0,0-1.49,1.57,8.26,8.26,0,0,0-.85,1.54,11.85,11.85,0,0,1-.93,1.75c-.26.36-.51.72-.77,1.07-.49.67-.94,1.3-1.36,2s-.66,1.14-1,1.76-.54,1-.83,1.5-.61,1.11-.9,1.68-.56,1.09-.86,1.63a12.17,12.17,0,0,1-1.26,1.69,10.52,10.52,0,0,0-1,1.35,12.06,12.06,0,0,1-1.29,1.72,10.55,10.55,0,0,0-1,1.32,6.65,6.65,0,0,0-.57,1.44,8.57,8.57,0,0,1-.92,2.11c-.25.38-.49.76-.73,1.14-.43.68-.87,1.39-1.37,2.07-.68.92-1.45,1.88-2.41,3-.31.36-.6.75-.88,1.13a18.5,18.5,0,0,1-1.57,1.89,24.79,24.79,0,0,1-2.22,1.92l-.77.62a10.38,10.38,0,0,1-2.14,1.3,12.09,12.09,0,0,0-1.25.68,13.25,13.25,0,0,0-1.12.85,10.4,10.4,0,0,1-2.12,1.44,27.45,27.45,0,0,1-3.74,1.38A1.17,1.17,0,0,1,165.27,321.35Z"/><path d="M27.24,174.16a1.17,1.17,0,0,1-.88-.4,1.14,1.14,0,0,1,.14-1.62,17.72,17.72,0,0,1,1.71-1.25c.48-.32.93-.62,1.35-.95a9.86,9.86,0,0,0,1.09-1.13,10,10,0,0,1,1.6-1.58,16.7,16.7,0,0,1,2-1.18c.45-.24.9-.49,1.33-.76a8.71,8.71,0,0,1,2.15-.92,7.57,7.57,0,0,0,1.4-.54l.42-.22a32.94,32.94,0,0,1,3-1.5c.41-.17.81-.38,1.2-.58a14.1,14.1,0,0,1,2.3-1,10.86,10.86,0,0,1,2.47-.34c.48,0,.93,0,1.37-.11l1.11-.2a17.21,17.21,0,0,1,2.67-.35,13,13,0,0,0,1.45-.15,12.27,12.27,0,0,1,2.37-.15,20,20,0,0,1,2.25.32c.5.09,1,.19,1.5.25a11.07,11.07,0,0,1,2.06.48,11.84,11.84,0,0,0,1.59.39,9.6,9.6,0,0,0,1.7,0,11.64,11.64,0,0,1,2,0c.48.06,1,.14,1.43.21.77.12,1.49.23,2.21.29a14.61,14.61,0,0,0,2.08,0c.52,0,1-.06,1.56-.06l1.21,0a15.6,15.6,0,0,0,2.38,0,9.14,9.14,0,0,0,1.85-.47,14.4,14.4,0,0,1,1.42-.42c.43-.1.86-.18,1.29-.26a15.09,15.09,0,0,0,2-.47,10.53,10.53,0,0,1,1.68-.41,5.75,5.75,0,0,0,3.1-1.35,11.47,11.47,0,0,1,1.51-1,10.56,10.56,0,0,1,1.76-.67,7.3,7.3,0,0,0,1.52-.59,4.39,4.39,0,0,0,1-1A6.69,6.69,0,0,1,98.16,153c.53-.32,1.07-.59,1.59-.85s1-.52,1.51-.81.87-.61,1.33-1,1-.76,1.54-1.1a15.47,15.47,0,0,1,1.75-.92,14.08,14.08,0,0,0,1.4-.72,8.51,8.51,0,0,1,2-.79,6.42,6.42,0,0,0,1.37-.51c.4-.22.8-.47,1.19-.71a21,21,0,0,1,1.88-1.08,5.35,5.35,0,0,0,1.13-.89,6.59,6.59,0,0,1,1.9-1.36,6,6,0,0,1,2.37-.32,4.86,4.86,0,0,0,1.4-.12,7.4,7.4,0,0,0,1.31-.67,8.29,8.29,0,0,1,2-1,14.48,14.48,0,0,1,2.19-.36c.51-.06,1-.11,1.46-.21s.93-.23,1.4-.36a17.39,17.39,0,0,1,2.18-.51,12.4,12.4,0,0,1,2.19,0,12.33,12.33,0,0,0,1.49,0,5.31,5.31,0,0,0,1.4-.39,7.14,7.14,0,0,1,2.24-.53,10.52,10.52,0,0,1,2.2.24,10.45,10.45,0,0,0,1.49.21c1.09,0,2.17.14,3.23.24l.43,0a13,13,0,0,1,2.15.44,14.85,14.85,0,0,0,1.45.33,11.42,11.42,0,0,0,1.48.11,11.11,11.11,0,0,1,2.19.21,15.57,15.57,0,0,1,2.13.67c.45.17.91.34,1.37.47a1.15,1.15,0,0,1-.63,2.21c-.52-.15-1-.34-1.54-.52a14.12,14.12,0,0,0-1.82-.58,9.87,9.87,0,0,0-1.77-.16,13.73,13.73,0,0,1-1.77-.14,16.54,16.54,0,0,1-1.68-.38,12.65,12.65,0,0,0-1.78-.38l-.44,0c-1-.1-2.07-.2-3.09-.24a11.91,11.91,0,0,1-1.82-.24,8.36,8.36,0,0,0-1.73-.2,5,5,0,0,0-1.5.39,7.62,7.62,0,0,1-2,.53,15.1,15.1,0,0,1-1.78,0,9.43,9.43,0,0,0-1.77,0,14.17,14.17,0,0,0-1.88.45c-.52.14-1,.29-1.56.39s-1.13.18-1.67.24a12.62,12.62,0,0,0-1.84.3,5.91,5.91,0,0,0-1.45.72,9.21,9.21,0,0,1-1.75.87,6.49,6.49,0,0,1-2.15.24,4.37,4.37,0,0,0-1.48.14,4.7,4.7,0,0,0-1.22.93,7.24,7.24,0,0,1-1.67,1.26c-.57.28-1.12.62-1.69,1s-.85.53-1.28.77a8.59,8.59,0,0,1-1.83.7,6.85,6.85,0,0,0-1.46.56,17.59,17.59,0,0,1-1.61.83,15.21,15.21,0,0,0-1.51.79c-.46.29-.9.62-1.37,1s-1,.73-1.49,1.07a19.29,19.29,0,0,1-1.71.93c-.5.25-1,.48-1.41.75a4.69,4.69,0,0,0-1,1,6.52,6.52,0,0,1-1.64,1.53,9.52,9.52,0,0,1-2,.8,7.65,7.65,0,0,0-1.38.51,8.76,8.76,0,0,0-1.22.8,10.65,10.65,0,0,1-1.85,1.14,10.47,10.47,0,0,1-2.17.59,11.48,11.48,0,0,0-1.37.33,16,16,0,0,1-2.35.56l-1.19.24c-.41.1-.82.23-1.23.37a12.48,12.48,0,0,1-2.3.57,19,19,0,0,1-2.71,0,7.56,7.56,0,0,0-1.16,0c-.47,0-.93,0-1.4.06a15.94,15.94,0,0,1-2.4,0c-.81-.07-1.61-.19-2.38-.31l-1.37-.2a11.13,11.13,0,0,0-1.64,0,11.61,11.61,0,0,1-2.12,0,14,14,0,0,1-1.93-.47,10.42,10.42,0,0,0-1.68-.4c-.56-.06-1.1-.17-1.65-.27a16.46,16.46,0,0,0-2-.29,9.93,9.93,0,0,0-1.92.14,15.29,15.29,0,0,1-1.7.17,14.83,14.83,0,0,0-2.31.31c-.39.07-.78.15-1.19.21s-1.07.11-1.58.14a8.45,8.45,0,0,0-1.95.25,11.09,11.09,0,0,0-1.9.83c-.45.23-.89.45-1.35.65a28.79,28.79,0,0,0-2.77,1.4l-.42.22a9.34,9.34,0,0,1-1.8.71,6.93,6.93,0,0,0-1.6.66c-.49.32-1,.59-1.49.85a14.24,14.24,0,0,0-1.69,1,7.89,7.89,0,0,0-1.22,1.23A10.33,10.33,0,0,1,31,171.73c-.5.4-1,.74-1.51,1.08A15.43,15.43,0,0,0,28,173.89,1.15,1.15,0,0,1,27.24,174.16Z"/><path d="M307.77,79.44h-.16a6.86,6.86,0,0,1-2.08-.78,5,5,0,0,0-1.29-.54,6.25,6.25,0,0,0-1.45,0,8.17,8.17,0,0,1-2.13-.1c-.47-.1-1-.16-1.5-.23a17,17,0,0,1-2-.34c-1.14-.3-2.29-.62-3.42-1a8.09,8.09,0,0,1-1.91-.94,6.74,6.74,0,0,0-1.29-.68c-.69-.23-1.35-.5-2-.77l-1.31-.52a13.45,13.45,0,0,1-1.83-.87c-.47-.25-.91-.48-1.35-.66s-.91-.35-1.37-.51c-.63-.23-1.28-.45-1.93-.75a7.62,7.62,0,0,0-1.4-.38,8,8,0,0,1-2-.61,7.06,7.06,0,0,1-1.72-1.32,5.34,5.34,0,0,0-1.11-.89c-.43-.24-.88-.45-1.33-.65a19.58,19.58,0,0,1-1.83-.92,7.85,7.85,0,0,0-1.36-.55A8.34,8.34,0,0,1,268,64.6c-.6-.38-1.15-.8-1.68-1.21s-.78-.6-1.19-.88a8.61,8.61,0,0,1-1.55-1.45,7.32,7.32,0,0,0-1.05-1,7.53,7.53,0,0,0-1.33-.7,8.37,8.37,0,0,1-1.84-1A13.69,13.69,0,0,1,257.91,57c-.39-.39-.76-.76-1.15-1.08s-.86-.64-1.3-.94-1.05-.74-1.57-1.16a10.06,10.06,0,0,1-1.38-1.48,7.8,7.8,0,0,0-1-1.14,7.16,7.16,0,0,0-1.31-.82,9.56,9.56,0,0,1-1.7-1.09,10.72,10.72,0,0,0-1.34-.88,13.52,13.52,0,0,1-1.62-1.09,9.76,9.76,0,0,1-1.35-1.47,7.41,7.41,0,0,0-1-1.15,15,15,0,0,1-1.34-1.29,12.82,12.82,0,0,0-1.21-1.15,10.58,10.58,0,0,0-1.41-.87,13.08,13.08,0,0,1-1.61-1c-.59-.45-1.2-.87-1.81-1.29l-1.05-.73a11.84,11.84,0,0,1-1.39-1.23A8.68,8.68,0,0,0,232,36a5.68,5.68,0,0,0-1.42-.56,8.26,8.26,0,0,1-1.85-.75,8.83,8.83,0,0,1-1.52-1.22,5.76,5.76,0,0,0-1.22-1l-.31-.17c-.91-.49-1.85-1-2.77-1.43a8.57,8.57,0,0,0-1.62-.5,13.32,13.32,0,0,1-1.72-.51c-.52-.21-1-.46-1.48-.7a12.13,12.13,0,0,0-1.66-.76c-.45-.15-.9-.32-1.35-.49a16.72,16.72,0,0,0-1.91-.66,22.55,22.55,0,0,0-2.31-.43l-1.09-.18a8.36,8.36,0,0,0-1.75,0,9.88,9.88,0,0,1-3.37-.29,8.75,8.75,0,0,0-1.73-.26,30.87,30.87,0,0,0-3.42.23,1.15,1.15,0,1,1-.25-2.29,34.69,34.69,0,0,1,3.65-.24,9.93,9.93,0,0,1,2.25.32,8,8,0,0,0,2.76.24,9.5,9.5,0,0,1,2.25.07l1.06.17a23.16,23.16,0,0,1,2.52.47,21.28,21.28,0,0,1,2.17.74c.41.16.83.32,1.25.46a14.87,14.87,0,0,1,2,.89c.45.23.87.44,1.3.61a11.09,11.09,0,0,0,1.4.42,10.34,10.34,0,0,1,2,.65c1,.46,1.94,1,2.88,1.48l.31.17a8.64,8.64,0,0,1,1.71,1.33,6.57,6.57,0,0,0,1.12.93,6.34,6.34,0,0,0,1.35.52,7.76,7.76,0,0,1,2,.84,10.71,10.71,0,0,1,1.6,1.36,8.89,8.89,0,0,0,1.11,1l1,.72c.63.44,1.27.88,1.89,1.34a10.25,10.25,0,0,0,1.32.8A12.35,12.35,0,0,1,242,40.4a15.88,15.88,0,0,1,1.45,1.37,14.46,14.46,0,0,0,1.13,1.1,8.94,8.94,0,0,1,1.4,1.5,7.63,7.63,0,0,0,1,1.13,10.44,10.44,0,0,0,1.32.88,11.83,11.83,0,0,1,1.65,1.1,7.76,7.76,0,0,0,1.31.83,9.5,9.5,0,0,1,1.7,1.08,9.64,9.64,0,0,1,1.35,1.45A9.36,9.36,0,0,0,255.36,52c.44.36.91.69,1.42,1s1,.67,1.42,1a18,18,0,0,1,1.34,1.25,13.1,13.1,0,0,0,1.24,1.15,6.61,6.61,0,0,0,1.38.74,9.24,9.24,0,0,1,1.74.94,9.13,9.13,0,0,1,1.41,1.36,6.75,6.75,0,0,0,1.14,1.09c.44.31.86.63,1.29,1s1,.77,1.51,1.09a6.76,6.76,0,0,0,1.43.59,8.93,8.93,0,0,1,1.8.75,16.5,16.5,0,0,0,1.63.81c.49.23,1,.45,1.46.71a7.66,7.66,0,0,1,1.6,1.25,5.43,5.43,0,0,0,1.16.93,6.33,6.33,0,0,0,1.48.42,8,8,0,0,1,1.89.54c.56.25,1.13.45,1.74.67s1,.35,1.48.55,1.07.5,1.56.76a12.16,12.16,0,0,0,1.55.75c.47.17.92.36,1.38.55.63.26,1.23.5,1.84.71a8.09,8.09,0,0,1,1.76.9,6.53,6.53,0,0,0,1.36.7c1.11.32,2.23.64,3.35.93a14.5,14.5,0,0,0,1.73.29c.55.07,1.13.14,1.7.27a6.35,6.35,0,0,0,1.53,0,8.2,8.2,0,0,1,2,.07,7,7,0,0,1,1.94.75,4.68,4.68,0,0,0,1.35.55,1.15,1.15,0,0,1-.17,2.29Z"/><path class="cls-6" d="M316.56,269.25a19.92,19.92,0,0,1-.05,3.46,19.37,19.37,0,0,1-.65,3.44,20.51,20.51,0,0,1-1.28,3.3,15.21,15.21,0,0,1-4.89,5,20.69,20.69,0,0,1-2.65,2.31c-1,.58-2.32.5-3.42.9a20.22,20.22,0,0,1-3.26,1.12,20.72,20.72,0,0,1-3.45.17,14.21,14.21,0,0,1-6.91-.74c-1.1-.4-1.88-1.46-2.88-2s-2.45-.57-3.33-1.31a21.29,21.29,0,0,1-2.35-2.66,20.7,20.7,0,0,1-1.77-3,20.85,20.85,0,0,1-1.77-3,20.4,20.4,0,0,1-.73-3.44,20,20,0,0,1-.37-3.48,21.06,21.06,0,0,1,.39-3.48,20.07,20.07,0,0,1,1.36-3.21,19.17,19.17,0,0,1,1.27-3.18,20,20,0,0,1,1.83-2.93,21.12,21.12,0,0,1,2.21-2.75,21,21,0,0,1,3.05-1.78,20.73,20.73,0,0,1,3.27-1.15c1.08-.4,2-1.41,3.19-1.62s2.36.23,3.54.23a21,21,0,0,1,3.47.2,19.48,19.48,0,0,1,3.21,1.31c1.1.4,2.5.15,3.5.73s1.46,2,2.34,2.7,2.4.89,3.15,1.78a21.3,21.3,0,0,1,1.7,3.12,20,20,0,0,1,1.61,3.12,20.29,20.29,0,0,1,.87,3.41A20.85,20.85,0,0,1,316.56,269.25Z"/><path class="cls-3" d="M299.73,36.43a11.12,11.12,0,0,1-.35,3.44,12,12,0,0,1-1.23,3.35,11.74,11.74,0,0,1-2.76,2.28,11,11,0,0,1-3.17,1.43,10.67,10.67,0,0,1-3.41.31,10.18,10.18,0,0,1-3.32-.62,10.9,10.9,0,0,1-3.22-1.19,11.48,11.48,0,0,1-2.71-2.28,11.69,11.69,0,0,1-1.32-3.28,11.35,11.35,0,0,1-.79-3.44,11,11,0,0,1,.89-3.4,10.79,10.79,0,0,1,1.5-3.11c.7-1,1.17-2.22,2.12-2.91a12.17,12.17,0,0,1,3.31-1.46,11.93,11.93,0,0,1,3.54-.06,9.61,9.61,0,0,1,6.44,2.07c.95.69,2.31,1.06,3,2s.43,2.4.8,3.53A10.61,10.61,0,0,1,299.73,36.43Z"/><path class="cls-2" d="M72.23,121a15.93,15.93,0,0,1,.07,3.37,13.73,13.73,0,0,1-2.73,6.23c-.7.89-2,1.23-2.84,1.93s-1.44,1.95-2.47,2.45a15.88,15.88,0,0,1-3.34.85,15.2,15.2,0,0,1-3.39.15,15,15,0,0,1-3.37-.21,14.51,14.51,0,0,1-3.16-1.2,14.26,14.26,0,0,1-2.75-1.92,14.92,14.92,0,0,1-2.14-2.54,12.73,12.73,0,0,1-3.34-5.74,16,16,0,0,1,.08-3.37,15.42,15.42,0,0,1-.11-3.38,14.88,14.88,0,0,1,1.53-3,14.53,14.53,0,0,1,1.81-2.75c.71-.88.9-2.29,1.78-3a16,16,0,0,1,3-1.83c1-.48,2.3-.26,3.42-.52a15.58,15.58,0,0,1,3.3-.87c1.16,0,2.22.66,3.3.91a14.8,14.8,0,0,1,3.2,1,15,15,0,0,1,2.77,1.87c.89.7,2.15,1.07,2.86,1.95a16,16,0,0,1,1.39,3.16,16.2,16.2,0,0,1,1.47,3.09C72.76,118.65,72.23,119.84,72.23,121Z"/><path d="M366.19,68.09l-.74,3.65c-.17.78-.79,1.23-1.86,1.36v4.63q0,1.24-1.17,1l-4.7-.92a1.28,1.28,0,0,1-1.18-1.43V73.9q-11.93,1.23-18.73,2c-.62.08-.89-.29-.8-1.11l.49-4a1.36,1.36,0,0,1,1.36-1.36l2.91-.25V50.28h-4.15c-.82,0-1.15-.39-1-1.18l.81-3.46a1.35,1.35,0,0,1,1.48-1.17h52.25q1.23,0,1,1.17l-.81,3.46a1.35,1.35,0,0,1-1.48,1.18H363.59V67.16L365.2,67C366,66.93,366.35,67.31,366.19,68.09ZM382,23.26a2.63,2.63,0,0,1,3,3v13a2.63,2.63,0,0,1-3,3H346.9a2.63,2.63,0,0,1-3-3v-13a2.63,2.63,0,0,1,3-3Zm-25.48,27h-8v2.47h8Zm-8,7.54v2.54h8V57.82Zm0,10.82,8-.8V65.43h-8Zm29.06-38.21v-.86A1.42,1.42,0,0,0,376,28H352.59A1.42,1.42,0,0,0,351,29.57v.86Zm-1.61,7a1.43,1.43,0,0,0,1.61-1.61v-1H351v1a1.42,1.42,0,0,0,1.61,1.61Zm11.38,14.9,1.48.62q2.65,1.05,1.67,4.2a25,25,0,0,1-6,10.45c-.66.79-.49,1.49.5,2.11a26.5,26.5,0,0,0,7.35,2.84c.87.17,1,.52.44,1.05l-4,3.77a1.84,1.84,0,0,1-2,.37,26.66,26.66,0,0,1-8.35-4.39,36.05,36.05,0,0,1-8.65,4.83c-.83.37-1.39.18-1.67-.56l-1.55-3.52a1.06,1.06,0,0,1,.74-1.55,22.52,22.52,0,0,0,6.31-3.46,26.48,26.48,0,0,1-5.07-7c-1-2-.39-3.25,1.67-3.83h-3.34c-.83,0-1.16-.39-1-1.18l.8-3.34a1.36,1.36,0,0,1,1.49-1.17Zm-5,7.42c.57-1,.33-1.48-.74-1.48H375c-1.07,0-1.34.49-.8,1.48a20.37,20.37,0,0,0,4.32,5.2A22.11,22.11,0,0,0,382.33,59.8Z"/><path d="M426.91,53,426,56.83A1.31,1.31,0,0,1,424.56,58h-7.67l-.49,16.76a3.91,3.91,0,0,1-1.86,2,7.1,7.1,0,0,1-4,.86q-3.58.18-4.45-2.41c-.74-2.27.12-3.4,2.6-3.4l.74.06a1,1,0,0,0,.68-.18,1,1,0,0,0,.19-.68V58H400.13c-.82,0-1.15-.39-1-1.18L400,53a1.35,1.35,0,0,1,1.48-1.17h8.85V47.06H399.76q-1.23,0-1-1.17l.81-3.71A1.35,1.35,0,0,1,401.06,41h3.53l-1-3.53c-.54-1.94.16-3.13,2.1-3.59l2.16-.55h-7.11c-.82,0-1.15-.39-1-1.18l.81-3.64A1.35,1.35,0,0,1,402,27.34h8l-1.42-3.77c-.29-.74,0-1.14.8-1.18l4.58-.24a1.54,1.54,0,0,1,1.66,1.11l1.74,4.08h8.53c.82,0,1.15.39,1,1.18l-.81,3.64a1.35,1.35,0,0,1-1.48,1.18h-5.26l1.43.31q3.65.68,2.22,4.08L421.65,41h5.2q1.23,0,1,1.17L427,45.89a1.35,1.35,0,0,1-1.48,1.17h-8.66v4.77h9Q427.09,51.83,426.91,53Zm-24.43,8.35c.42-1.12,1-1.46,1.67-1.05l3,1.73a1.41,1.41,0,0,1,.5,2,20.69,20.69,0,0,1-4.39,7.48c-.46.53-1,.51-1.49-.06l-2.41-2.54a1.23,1.23,0,0,1-.06-1.79Q401.13,65.5,402.48,61.35Zm15.28-28h-9.09c1.07,2.14,1.56,3.48,1.48,4q.62,2.84-2.35,3.65h7.3Zm9.4,33.39a.93.93,0,0,1-.56,1.48l-3.28,1.24a1.2,1.2,0,0,1-1.67-.68l-3.15-6c-.37-.7-.17-1.15.62-1.36l3.09-.93a1.47,1.47,0,0,1,1.79.74Zm27.26-25.17c.83,0,1.18.39,1.05,1.18l-.92,4.45a1.28,1.28,0,0,1-1.42,1.17h-3.22V77.49c0,.82-.39,1.17-1.18,1.05l-4.82-.93a1.27,1.27,0,0,1-1.17-1.42V48.36l-6.06.44q0,20.52-5.69,28.62c-.29.54-.7.52-1.24-.06l-3.34-3.71a1.53,1.53,0,0,1-.24-1.91c.37-.33.86-1.61,1.48-3.84q2.16-6.74,2.16-19.1V29.94c0-1.9,1.2-3.07,3.59-3.53a57.31,57.31,0,0,0,14.28-4.14,1.23,1.23,0,0,1,1.61.49l3.15,4c.5.62.42,1.05-.24,1.3a76.22,76.22,0,0,1-13.48,3.46q-2,.38-2,2v8.1Z"/><path d="M516.19,32.78l-.92,4.82a1.28,1.28,0,0,1-1.43,1.18h-6.92a65.16,65.16,0,0,1-12.74,22.13,55.91,55.91,0,0,0,22,10.39c.91.21,1.07.6.5,1.18l-4.64,4.7a2,2,0,0,1-2.1.49,51.29,51.29,0,0,1-20.22-10.2,1.8,1.8,0,0,0-2.54-.12q-8.78,7.23-22.5,11.06c-.87.29-1.45.06-1.73-.68l-2.17-5c-.29-.74,0-1.23.87-1.48A56.64,56.64,0,0,0,483,61a69.75,69.75,0,0,1-13.17-22.26h-8.47c-.83,0-1.18-.39-1.05-1.18l.93-4.82a1.27,1.27,0,0,1,1.42-1.17h23.56l-3-7.61c-.29-.74-.05-1.15.74-1.24l6-.86a1.53,1.53,0,0,1,1.67,1l2,4.26q1.24,2.79-1.67,3.71l-2.41.75h25.66Q516.39,31.61,516.19,32.78Zm-17.56,6H477.42a53.13,53.13,0,0,0,11.13,17.13A50.48,50.48,0,0,0,498.63,38.78Z"/><path d="M576.23,66.79q1.24,0,1,1.17l-.8,3.47a1.36,1.36,0,0,1-1.49,1.17H553.11v5.07c0,.83-.4,1.18-1.18,1l-5.44-.93a1.27,1.27,0,0,1-1.17-1.42V72.6H522.5c-.83,0-1.15-.39-1-1.17l.8-3.47a1.36,1.36,0,0,1,1.49-1.17h21.52V63.94H530.85c-2,0-3-1-3-3V46.76a2.63,2.63,0,0,1,3-3h37a2.63,2.63,0,0,1,3,3V61c0,2-1,3-3,3H553.11v2.85Zm-.31-31q1.25,0,1,1.17l-.8,3.47a1.36,1.36,0,0,1-1.49,1.17H522.75q-1.25,0-1-1.17l.8-3.47a1.36,1.36,0,0,1,1.49-1.17h11.13c-1-2.47-.34-3.94,2.1-4.39l1.36-.31H526.58q-1.23,0-1-1.17l.81-3.41a1.31,1.31,0,0,1,1.42-1.17h17.74l-1-2.23c-.28-.74,0-1.11.81-1.11l5.38-.31a1.87,1.87,0,0,1,1.79,1.11l1.17,2.54h18.62q1.23,0,1,1.17l-.81,3.41A1.35,1.35,0,0,1,571,31.05h-10.7l1.55.31q3.65.55,1.73,4.39ZM536.66,48.67a1.43,1.43,0,0,0-1.61,1.61v1.3h28.26v-1.3a1.43,1.43,0,0,0-1.61-1.61Zm-1.61,7.48v1.36a1.42,1.42,0,0,0,1.61,1.61h25a1.42,1.42,0,0,0,1.61-1.61V56.15Zm22.51-25.1H541l2.1,4.7h12.55Z"/></g></svg>