<svg xmlns="http://www.w3.org/2000/svg" width="231" height="72" viewBox="0 0 231.3 71.93"><defs><style>.cls-1{fill:#232323;}.cls-2{fill:#27b5f7;}.cls-3{fill:#f1f1f1;}.cls-4{fill:none;}.cls-5{fill:#fff;}</style></defs><g id="框"><path class="cls-1" d="M75.07,29.21v2.2c1.32,1.42,2.82,3.19,4.48,5.31.38.46.41.85.07,1.19l-1.81,1.84c-.33.34-.62.31-.86-.1l-1.88-3.22v14.3c0,.48-.23.69-.69.62l-2.74-.55A.75.75,0,0,1,71,50V37.19a30.14,30.14,0,0,1-3.75,7.69c-.22.29-.4.22-.54-.22l-1.2-3.25a1.24,1.24,0,0,1,.19-1.19A19.23,19.23,0,0,0,68,35.93a42.66,42.66,0,0,0,2.42-6.72H66.51c-.48,0-.68-.23-.61-.69l.54-2.67a.75.75,0,0,1,.83-.69H71V18.48c0-.48.23-.68.69-.61l2.74.54a.75.75,0,0,1,.69.83v5.92h3.79c.48,0,.69.23.62.69l-.55,2.67a.75.75,0,0,1-.83.69Zm5.78-7.8a1.52,1.52,0,0,1,1.73-1.7H96.05a1.51,1.51,0,0,1,1.73,1.7v26a1.53,1.53,0,0,1-1.73,1.74H82.58a1.53,1.53,0,0,1-1.73-1.74Zm12.6,3.29a.83.83,0,0,0-.94-.94H85.9a.83.83,0,0,0-.94.94v3.53h8.49Zm0,7.4H85v4.58h8.49ZM85,44.27a.84.84,0,0,0,.94.94h6.61a.83.83,0,0,0,.94-.94V40.58H85Z"/><path class="cls-1" d="M118.48,37.44c-.17-.43,0-.63.46-.61l.87.07a1,1,0,0,1,1,.72l.39,1c.41,1.08.14,1.79-.83,2.13a.48.48,0,0,1,.55.54V44.2a7.93,7.93,0,0,1-1.09,4.26A5.92,5.92,0,0,1,116.45,51c-.55.22-.9.11-1-.32l-.55-1.41c-.14-.43,0-.75.55-.94l1.12-.61q.75-.9-.15-.9h-2.45a.64.64,0,0,1-.73-.73V42.61a1.17,1.17,0,0,1,.69-1.09l1.23.4a.84.84,0,0,1,.68.9v.65a.83.83,0,0,0,.94.94c.82,0,1.23-.31,1.23-.94v-1c0-1.15.53-1.73,1.59-1.73l-.22-.9a41.44,41.44,0,0,0-6.17,1c-.15.05-.23-.17-.26-.65L112.84,39a1.09,1.09,0,0,1,.62-1.08l.07-.07a3.77,3.77,0,0,0,1-1l0-.07c.26-.39.16-.54-.33-.47l-.39.11a.62.62,0,0,1-.8-.62l-.14-1.22a1.28,1.28,0,0,1,.54-1.2l2.13-2.56h-4.77v19.9c0,.48-.23.68-.68.61l-2.75-.54a.75.75,0,0,1-.68-.83V20.87a1.53,1.53,0,0,1,1.73-1.74h10.47a1.54,1.54,0,0,1,1.74,1.74v8.27a1.53,1.53,0,0,1-1.74,1.73H117q1.33.72-.15,2.28l-.39.39c-.41.46-.3.68.32.65l.94,0,.9-1.09c.29-.36.57-.35.83,0l.69.9a.84.84,0,0,1-.14,1.16,22.53,22.53,0,0,1-3.54,3l2.24-.21ZM116.56,23a.83.83,0,0,0-.94-.94h-3.9a.84.84,0,0,0-.94.94v.76h5.78Zm-5.78,3.36V28h4.84c.63,0,.94-.3.94-.9v-.76Zm24.63-7.19a1.56,1.56,0,0,1,1.77,1.77l-.32,28.17a2.64,2.64,0,0,1-1.2,1.45,5.2,5.2,0,0,1-3.06.68c-1.5.07-2.35-.43-2.57-1.52.1,0-.1-.65-.58-1.87h-.72a.9.9,0,0,1-1-1h-2.17v3.5c0,.48-.23.67-.68.58l-1.59-.44a.81.81,0,0,1-.69-.9V40.73l-.21-.65a1.77,1.77,0,0,1,1-2.35l.39-.21,1.52-1.34-1.88.32c-.45.08-.71-.13-.76-.61l-.18-1.3a1,1,0,0,1,.58-1.08l2.13-2.64h-.47A1.53,1.53,0,0,1,123,29.14V20.87a1.53,1.53,0,0,1,1.73-1.74Zm-7,22.39,1.37.4a.84.84,0,0,1,.68.9v3.4a.84.84,0,0,0,.94.94h1c.41,0,.62-.22.62-.65V30.87h-6.57c1,.51,1,1.29,0,2.35l-.33.36c-.43.46-.34.67.29.65l.83,0,1-1.19q.44-.54.87,0l.68.9a.65.65,0,0,1-.1,1l-2.89,2.71c-.46.41-.38.59.25.54L128.3,38l-.22-.5c-.17-.44,0-.66.47-.66l.87,0a1,1,0,0,1,1,.65l.87,2a.55.55,0,0,1-.44.83l-.83.29c-.46.12-.79-.16-1-.83q-4.52.57-5.85.9h.65a1.53,1.53,0,0,1,1.73,1.73v1.95h2.17V42.07C127.72,41.58,128,41.4,128.41,41.52ZM133,23c0-.62-.3-.94-.9-.94H128a.83.83,0,0,0-.94.94v.76h6Zm-6,3.36V28h6V26.32Z"/><path class="cls-1" d="M178,24.52l-.54,2.81a.75.75,0,0,1-.83.69h-4.05A38.19,38.19,0,0,1,165.1,41,32.68,32.68,0,0,0,178,47c.53.12.63.35.29.69l-2.71,2.74a1.14,1.14,0,0,1-1.23.29,29.81,29.81,0,0,1-11.8-6A1.06,1.06,0,0,0,161,44.7a35.34,35.34,0,0,1-13.15,6.46c-.51.17-.84,0-1-.39l-1.26-2.93c-.17-.43,0-.72.5-.86a33.26,33.26,0,0,0,12.46-6,40.85,40.85,0,0,1-7.69-13h-5c-.48,0-.69-.23-.61-.69l.54-2.81a.75.75,0,0,1,.83-.69h13.76l-1.77-4.44c-.17-.44,0-.68.43-.73l3.5-.5a.88.88,0,0,1,1,.58l1.15,2.49a1.4,1.4,0,0,1-1,2.17l-1.41.43h15C177.82,23.83,178,24.06,178,24.52ZM167.7,28H155.31a30.8,30.8,0,0,0,6.5,10A29.6,29.6,0,0,0,167.7,28Z"/><path class="cls-1" d="M217,44.38c.48,0,.67.23.58.68l-.47,2a.8.8,0,0,1-.87.69H203.48v3c0,.48-.23.69-.68.62l-3.18-.55a.75.75,0,0,1-.69-.83v-2.2H185.61c-.49,0-.68-.23-.58-.69l.47-2a.78.78,0,0,1,.86-.68h12.57V42.71h-8.45A1.53,1.53,0,0,1,188.75,41v-8.3a1.53,1.53,0,0,1,1.73-1.74h21.63a1.54,1.54,0,0,1,1.74,1.74V41a1.53,1.53,0,0,1-1.74,1.73h-8.63v1.67Zm-.18-18.13c.48,0,.67.23.57.68l-.46,2a.8.8,0,0,1-.87.68h-30.3c-.48,0-.67-.23-.58-.68l.47-2a.8.8,0,0,1,.87-.68H193c-.6-1.45-.19-2.3,1.23-2.57l.79-.18h-7c-.48,0-.67-.22-.58-.68l.47-2a.77.77,0,0,1,.83-.68h10.37l-.58-1.3c-.17-.44,0-.66.47-.66l3.14-.17a1.1,1.1,0,0,1,1,.64l.68,1.49h10.87c.48,0,.68.22.58.68l-.47,2a.79.79,0,0,1-.87.68h-6.24l.9.18c1.42.22,1.76,1.08,1,2.57ZM193.88,33.8a.83.83,0,0,0-.94.93v.76h16.5v-.76a.83.83,0,0,0-.94-.93Zm-.94,4.36V39a.83.83,0,0,0,.94.94H208.5a.83.83,0,0,0,.94-.94v-.8ZM206.08,23.5H196.4l1.23,2.75H205Z"/><path class="cls-2" d="M15.05,17.11s1,22.78,5.58,41.5L53.8,53s-5.3-31.12-.46-43.18Z"/><line class="cls-3" x1="24.86" y1="42.05" x2="42.4" y2="39.74"/><path class="cls-3" d="M24.86,42.88a.84.84,0,0,1-.83-.73.83.83,0,0,1,.72-.93l17.54-2.3a.83.83,0,0,1,.93.71.84.84,0,0,1-.71.94L25,42.87Z"/><line class="cls-3" x1="25.1" y1="48.29" x2="37.65" y2="46.64"/><path class="cls-3" d="M25.1,49.12A.83.83,0,0,1,25,47.47l12.55-1.65a.83.83,0,0,1,.93.71.84.84,0,0,1-.71.94L25.21,49.11Z"/><path d="M15.43,23.36a.65.65,0,0,1-.65-.6c-.13-1.87-.26-3.74-.38-5.61a.65.65,0,0,1,1.3-.08c.11,1.87.24,3.73.38,5.6a.64.64,0,0,1-.6.69Z"/><rect class="cls-4" width="231.3" height="71.93"/><polygon class="cls-5" points="21.85 22.71 23.29 33.18 42.87 30.41 41.79 18.77 21.85 22.71"/></g></svg>