<svg xmlns="http://www.w3.org/2000/svg" viewBox="0 0 340 340"><defs><style>.cls-1{fill:#f56977;}.cls-2{fill:#fff;}</style></defs><g id="圖"><path class="cls-1" d="M262.47,295a9.19,9.19,0,0,0,9.46,8.94,12,12,0,0,1,12.46,10,11.65,11.65,0,0,1-10.87,13.4l-17.38.73a15.43,15.43,0,0,1-15.87-15l-2.61-64.77,22.89-.95Z"/><polygon class="cls-1" points="244.62 129.25 230.02 119.24 216.2 108.36 201.38 99 186.71 89.42 172.78 78.72 158.34 68.78 143.56 59.36 129.56 48.74 115.03 39.93 111.52 58.04 108.32 76.74 104.19 95.26 100.73 113.91 97.71 132.64 94.46 151.33 90.24 169.84 86.56 188.45 83.92 207.26 80.5 225.92 76.23 244.42 72.69 263.06 69.64 281.6 86.53 278.28 103.53 274.51 120.57 270.94 137.47 266.68 154.48 262.99 171.56 259.6 188.56 255.78 205.55 251.94 222.43 248.36 238.63 255.79 254.96 263.33 270.55 272.42 286.76 280.21 303 287.72 306.92 269.52 309.56 250.98 313.48 232.69 316.25 214.17 320.25 195.9 323.88 177.55 326.6 159.01 330.27 140.67 334.11 122.2 316.12 123.44 298.33 125.55 280.45 126.31 262.58 127.22 244.62 129.25"/><path class="cls-2" d="M209.42,168.54c-2.1,11.22-7.19,22.79-19,20.46S177.85,174.49,180,162.78s9.76-15.75,17.87-14.16S211.52,157.32,209.42,168.54Z"/><path d="M202.45,166.87c-1.39,7.44-4.77,15.11-12.63,13.57s-8.31-9.62-6.85-17.38,6.47-10.45,11.85-9.39S203.84,159.44,202.45,166.87Z"/><path class="cls-2" d="M284.89,183.34c-2.09,11.21-7.19,22.78-19.05,20.46s-12.52-14.51-10.33-26.23,9.76-15.74,17.87-14.15S287,172.12,284.89,183.34Z"/><path d="M277.47,181.67c-1.39,7.44-4.77,15.11-12.64,13.57s-8.3-9.62-6.85-17.39,6.47-10.44,11.85-9.39S278.86,174.23,277.47,181.67Z"/><path class="cls-1" d="M169.33,278.75a9.08,9.08,0,0,1-11.71,5.53A11.71,11.71,0,1,0,149,306.06l16.3,6.15A15.21,15.21,0,0,0,185,302.94l22.14-60.8L185.63,234Z"/><polygon class="cls-2" points="226.12 200.54 221 198.9 218.54 202.71 216.65 213.95 218.46 222.93 223.21 225.51 229.69 225.51 234.78 220.42 237.57 209.96 238.5 204.2 226.12 200.54"/><path d="M225.22,227.57a13.23,13.23,0,0,1-3.69-.56,9.78,9.78,0,0,1-6.5-5.55c-3.1-6.92.82-17.82,2.59-22.07a30,30,0,0,1-2.92-2,2.06,2.06,0,0,1,2.53-3.24c7.78,6.09,21.41,8,21.55,8a2.05,2.05,0,0,1,1.77,2.2c-.06.65-1.4,15.89-9.23,21.28A10.55,10.55,0,0,1,225.22,227.57Zm-3.95-26.26c-1.94,4.74-4.68,13.58-2.49,18.47a5.77,5.77,0,0,0,3.9,3.29,7,7,0,0,0,6.31-.8c4.48-3.08,6.56-11.62,7.25-16.36A64.39,64.39,0,0,1,221.27,201.31Z"/><path d="M23,153.94a2,2,0,0,1-.56-4l2.33-.67,2.27-.9a2.19,2.19,0,0,1,.56-.14L29.9,148l2.13-.78a2.07,2.07,0,0,1,.33-.1l2.39-.43,2.32-.68,2.36-.75a1.64,1.64,0,0,1,.44-.09l2.29-.21,2.15-.75,4.95-1.47,2.5-.66,2.47-.57,2.39-.67a1.63,1.63,0,0,1,.45-.07l2.32-.13,2.19-.66.16,0,2.3-.49,2.19-.89.27-.08,2.44-.63a1.8,1.8,0,0,1,.32-.06l2.22-.21,2.06-.89a2.85,2.85,0,0,1,.5-.14l2.38-.36,2.3-.68a1.59,1.59,0,0,1,.3-.06l2.52-.35a2,2,0,1,1,.57,4.06l-2.38.33-2.28.68-.27.06-2.26.34-2.11.91a2.61,2.61,0,0,1-.61.16l-2.39.23-2.16.55-2.23.9a1.57,1.57,0,0,1-.35.11l-2.39.51-2.34.7a2,2,0,0,1-.48.09l-2.35.12-2.21.63-.1,0-2.46.57-2.38.62-4.79,1.42-2.29.81a2.13,2.13,0,0,1-.5.11l-2.31.21-2.2.7-2.48.72-.2,0-2.31.42-2.21.81a1.89,1.89,0,0,1-.51.12l-2.25.22-2.1.84-.19.06-2.43.7A2.22,2.22,0,0,1,23,153.94Z"/><path d="M83.42,114.39l-.24,0-2.5-.29h-.11l-2.47-.43a1.16,1.16,0,0,1-.32-.08l-2.21-.75-2.3-.34a2,2,0,0,1-.35-.09l-2.15-.72-2.28-.19a2.29,2.29,0,0,1-.44-.09l-2.4-.74-2.35-.85-2.13-.51-2.34-.09a2.09,2.09,0,0,1-.51-.09l-2.41-.72-2.32-.77-2.22-.43L49,107a1.83,1.83,0,0,1-.56-.13L46.27,106,44,105.77a2,2,0,0,1-.35-.07L41.37,105,39,104.59l-2.44-.39a2.09,2.09,0,0,1-.43-.11L34,103.24,31.77,103l-5.05-.91-2.51-.53-2.45-.61-2.42-.46a2.25,2.25,0,0,1-.44-.14l-2.12-.93L14.55,99l-.17,0-2.44-.64a2.06,2.06,0,0,1,1.05-4l2.35.62,2.4.42a2.54,2.54,0,0,1,.47.14l2.13.94,2.24.43.11,0,2.44.6,2.39.51,4.87.88,2.4.3a2.83,2.83,0,0,1,.5.13l2.15.85,2.26.36,2.52.46.2,0,2.25.66L47,102a1.74,1.74,0,0,1,.51.13l2.1.81,2.23.19.2,0,2.46.47.27.07,2.39.79,2.1.63,2.28.09a2.76,2.76,0,0,1,.4.06l2.43.58.23.06,2.37.87,2.09.64,2.3.2a1.64,1.64,0,0,1,.49.1l2.21.74,2.31.34a2.11,2.11,0,0,1,.36.09l2.24.76,2.25.39,2.45.29a2.05,2.05,0,0,1-.24,4.09Z"/><path d="M88.28,85.63A2,2,0,0,1,87,85.18l-3.75-2.94-2.1-1a1.92,1.92,0,0,1-.31-.18l-2.07-1.42a2,2,0,0,1-.27-.22l-1.71-1.67-3.92-2.7-4.26-2.53-2.15-1.15a1.84,1.84,0,0,1-.43-.3l-1.67-1.54-2-1.07-.1,0-2.15-1.31a2.61,2.61,0,0,1-.27-.19l-1.78-1.52-2-1.16a1.94,1.94,0,0,1-.29-.21L54,62.59l-2-1a2.35,2.35,0,0,1-.37-.24l-2-1.58L47.73,58.1l-1.8-1.26-2.16-1a2,2,0,0,1-.44-.27l-2-1.56-1.88-1.57-1.92-1.22-2.18-1.08a2.21,2.21,0,0,1-.47-.33l-1.68-1.54-2-1.07a1.89,1.89,0,0,1-.3-.19L29,45.58,27,44.3,24.83,43a1.54,1.54,0,0,1-.36-.27L22.61,41a2.05,2.05,0,1,1,2.8-3l1.7,1.59,2,1.17,2.19,1.36.17.12,1.85,1.44,2.08,1.11a1.84,1.84,0,0,1,.43.3l1.65,1.52,2,1,.18.11,2.13,1.34.22.16,1.94,1.63,1.73,1.36,2.1.93a1.7,1.7,0,0,1,.35.19l2.06,1.44.18.14,1.9,1.68L54,58l2.08,1a3.62,3.62,0,0,1,.41.27l1.79,1.51,2,1.17a1.69,1.69,0,0,1,.31.21l1.8,1.54,2,1.19,2.18,1.16a2,2,0,0,1,.42.3l1.67,1.54,2,1.07L75,71.59l.1.06,4.16,2.87a2.75,2.75,0,0,1,.26.22l1.69,1.66L83,77.62l2.15,1a2,2,0,0,1,.4.23l2,1.54,2,1.6a2.05,2.05,0,0,1-1.29,3.65Z"/><path d="M100.22,55.17a2,2,0,0,1-1.61-.79l-1.55-2a2.39,2.39,0,0,1-.21-.34l-1.13-2.21-1-2.2-1.27-2-1.28-2.11-1.38-2a1.56,1.56,0,0,1-.16-.28l-1.1-2.24-1-2L87,35.4a1.94,1.94,0,0,1-.21-.29L85.57,33a1.66,1.66,0,0,1-.15-.33l-.82-2.2-2.37-4.06-2.76-4.07A2.05,2.05,0,0,1,82.86,20l2.81,4.13.06.1,2.52,4.32a2,2,0,0,1,.14.3l.81,2.2,1.08,1.83,1.5,1.78a2,2,0,0,1,.26.39l1.14,2.2,1,2.14,1.34,1.9.07.11,1.29,2.13,1.31,2c0,.08.09.16.13.24l1,2.26,1,2,1.43,1.81a2.05,2.05,0,0,1-.35,2.88A2,2,0,0,1,100.22,55.17Z"/></g></svg>