<svg fill="none" height="36" viewBox="0 0 36 36" width="36" xmlns="http://www.w3.org/2000/svg" xmlns:xlink="http://www.w3.org/1999/xlink"><clipPath id="a"><path d="m0 0h36v36h-36z"/></clipPath><g clip-path="url(#a)"><path d="m36 18c0-9.94113-8.0589-18-18-18-9.94113 0-18 8.05887-18 18 0 9.9411 8.05887 18 18 18 9.9411 0 18-8.0589 18-18z" fill="#1dc121"/><g fill="#fff"><path d="m13.8095 13.0358h-1.3179c-.0478-.0016-.0954.0065-.14.0237-.0446.0171-.0852.0431-.1196.0764-.0343.0332-.0616.073-.0803.117-.0186.044-.0282.0913-.0282.1391v8.1923c0 .0976.0388.1912.1078.2602.0691.069.1627.1078.2603.1078h1.3179c.0478 0 .0951-.0096.1391-.0282s.0838-.0459.117-.0803c.0333-.0343.0592-.075.0764-.1196s.0253-.0922.0237-.1399v-8.1923c.0016-.0472-.0065-.0943-.0238-.1382-.0173-.044-.0435-.0839-.0769-.1173-.0334-.0335-.0733-.0596-.1173-.0769-.0439-.0174-.091-.0254-.1382-.0238z"/><path d="m22.9043 13.0358h-1.3416c-.0477-.0016-.0953.0065-.1399.0236-.0446.0172-.0853.0432-.1197.0764-.0343.0333-.0616.0731-.0802.1171-.0187.044-.0283.0913-.0282.1391v4.8679l-3.7519-5.1054h-1.6621c-.0478-.0016-.0954.0065-.14.0237s-.0853.0431-.1196.0764c-.0344.0332-.0617.073-.0803.117s-.0282.0913-.0282.1391v8.1923c0 .0976.0388.1912.1078.2602s.1626.1078.2603.1078h1.3178c.0977 0 .1913-.0388.2603-.1078s.1078-.1626.1078-.2602v-4.8679l3.7518 5.0816.095.0831h1.5909c.0977 0 .1913-.0388.2603-.1078s.1078-.1627.1078-.2603v-8.1922c.007-.0516.0026-.1041-.0129-.1539-.0155-.0497-.0418-.0954-.0769-.1339-.035-.0385-.0782-.0688-.1262-.0888-.0481-.0201-.1-.0293-.1521-.0271z"/><path d="m10.6279 19.8627h-3.56182v-6.5063c.00003-.0478-.00956-.0951-.0282-.1391s-.04594-.0838-.08028-.1171c-.03435-.0332-.07503-.0592-.11962-.0764-.04459-.0171-.09219-.0252-.13995-.0236h-1.34163c-.04722-.0016-.09428.0064-.13825.0237-.04396.0174-.08389.0435-.1173.0769-.03341.0335-.05959.0734-.0769.1174-.01732.0439-.0254.091-.02374.1382v8.1922c-.00184.0923.03222.1817.09498.2494.03216.0337.07084.0606.1137.079s.089.0278.13563.0278h5.27158c.0976 0 .1912-.0388.2602-.1078s.1078-.1626.1078-.2602v-1.306c0-.0977-.0388-.1913-.1078-.2603s-.1626-.1078-.2602-.1078"/><path d="m30.159 15.0423c.0483 0 .0962-.0095.1408-.028.0447-.0185.0852-.0456.1194-.0798s.0613-.0747.0798-.1194c.0185-.0446.028-.0925.028-.1408v-1.3179c0-.0478-.0095-.0951-.0282-.1391-.0186-.044-.0459-.0838-.0803-.1171-.0343-.0332-.075-.0592-.1196-.0764s-.0922-.0252-.1399-.0236h-5.2716c-.0922-.0018-.1816.0322-.2493.095-.0642.0677-.1021.1561-.1069.2493v8.1923c.0026.0936.0408.1828.1069.2493.0312.0349.0697.0626.1128.0811.0431.0184.0897.0272.1365.0257h5.2716c.0483 0 .0962-.0095.1408-.028.0447-.0185.0852-.0456.1194-.0798.0342-.0341.0613-.0747.0798-.1194.0185-.0446.028-.0925.028-.1408v-1.2942c0-.0483-.0095-.0961-.028-.1408s-.0456-.0852-.0798-.1194-.0747-.0613-.1194-.0798c-.0446-.0185-.0925-.028-.1408-.028h-3.5619v-1.3773h3.5619c.0483 0 .0962-.0095.1408-.028.0447-.0185.0852-.0456.1194-.0798.0342-.0341.0613-.0747.0798-.1194.0185-.0446.028-.0925.028-.1408v-1.3179c0-.0483-.0095-.0962-.028-.1408-.0185-.0447-.0456-.0853-.0798-.1195-.0342-.0341-.0747-.0612-.1194-.0797-.0446-.0185-.0925-.0281-.1408-.0281h-3.5619v-1.3891z"/></g></g></svg>