<svg fill="none" height="36" viewBox="0 0 36 36" width="36" xmlns="http://www.w3.org/2000/svg" xmlns:xlink="http://www.w3.org/1999/xlink"><clipPath id="a"><path d="m0 0h36v36h-36z"/></clipPath><g clip-path="url(#a)"><path d="m36 18c0-9.94113-8.0589-18-18-18-9.94113 0-18 8.05887-18 18 0 9.9411 8.05887 18 18 18 9.9411 0 18-8.0589 18-18z" fill="#fff"/><path d="m18-.000001c-4.5332-.00570314-8.90159 1.699241-12.23241 4.774171-3.33083 3.07493-5.378787 7.29343-5.734698 11.81263-.35591 4.5191 1.006438 9.0062 3.814848 12.5646 2.80841 3.5585 6.85606 5.9262 11.33426 6.6302v-12.5753h-4.5652v-5.2063h4.5722v-3.9663c0-4.50885 2.6842-7.00278 6.7985-7.00278 1.35.01862 2.6969.13636 4.0297.35225v4.43133h-2.2685c-2.2403 0-2.9378 1.409-2.9378 2.818v3.3745h4.9949l-.796 5.1993h-4.227v12.5753c4.4751-.7035 8.5204-3.0686 11.3287-6.6233 2.8082-3.5546 4.1729-8.0375 3.8216-12.554-.3512-4.5164-2.3925-8.73441-5.7166-11.81217-3.3241-3.07775-7.6864-4.7889494-12.2165-4.792131z" fill="#057eec"/></g></svg>