<svg fill="none" height="36" viewBox="0 0 36 36" width="36" xmlns="http://www.w3.org/2000/svg" xmlns:xlink="http://www.w3.org/1999/xlink"><clipPath id="a"><path d="m0 0h36v36h-36z"/></clipPath><g clip-path="url(#a)"><path d="m36 18c0-9.94113-8.0589-18-18-18-9.94113 0-18 8.05887-18 18 0 9.9411 8.05887 18 18 18 9.9411 0 18-8.0589 18-18z" fill="#f8c341"/><g stroke="#fff" stroke-linecap="round" stroke-miterlimit="10" stroke-width="2.5"><path d="m24.3053 20.2333 1.2892-1.2963c1.1314-1.1314 1.7669-2.6658 1.7669-4.2658 0-1.5999-.6355-3.1344-1.7669-4.2657-1.1313-1.13137-2.6658-1.76695-4.2657-1.76695-1.6 0-3.1344.63558-4.2658 1.76695l-1.2963 1.2963"/><path d="m11.7018 15.7667-1.2963 1.2963c-1.13137 1.1314-1.76695 2.6658-1.76695 4.2658 0 1.5999.63558 3.1344 1.76695 4.2657 1.1313 1.1314 2.6658 1.7669 4.2657 1.7669 1.6 0 3.1344-.6355 4.2658-1.7669l1.2963-1.2892"/><path d="m20.6207 15.3863-5.2344 5.2344"/></g></g></svg>