<svg xmlns="http://www.w3.org/2000/svg" xmlns:xlink="http://www.w3.org/1999/xlink" viewBox="0 0 360 169"><defs><style>.cls-1,.cls-5{fill:none;}.cls-2{clip-path:url(#clip-path);}.cls-3{fill:#fae7e7;}.cls-4{fill:#f8c341;}.cls-5{stroke:#000;stroke-linecap:round;stroke-linejoin:round;stroke-width:1.51px;}.cls-6{fill:#27b5f7;}.cls-7{fill:#f56977;}</style><clipPath id="clip-path"><rect class="cls-1" x="45.94" y="-0.05" width="281.79" height="169"/></clipPath></defs><g id="圖"><g class="cls-2"><path class="cls-3" d="M84.67,77.9C83.08,54.19,97.23,45,111.81,44.48c15.16-.56,25.95,9.15,28.95,32.79,1.58,12.5-4.93,25-14.94,28.91a.53.53,0,0,0-.15.11,3,3,0,0,0-1.07,3l1.55,8.28a7.55,7.55,0,0,1-7.58,7.5L106.44,125a6.47,6.47,0,0,1-6.45-6.51l1.67-9.38a3.07,3.07,0,0,0-.91-2.82,1.84,1.84,0,0,0-.3-.24C91.7,100.54,85.51,90.47,84.67,77.9Z"/><path class="cls-3" d="M98.75,140.79l54.48,22.91c2.45.29,4.81.3,5.43-2.09L162,150.84c2-7.82,4.37-16.06,4.45-24.06a58.77,58.77,0,0,0-3.86-19,.42.42,0,0,0,0-.1c-1.81-4.94-6.07-9.88-5.06-15.46.87-4.86,6.71-8.57,10.21-3.7,1.72,2.39,4.28,8.84,7.58,4.41,1.87-2.52,2.14-6.08,3.13-9,1.38-4.07,2-10.34,6.69-12.06,3.06-1.11,5,2.15,7.78,2.43,1.4.14,2.83-.58,4.27-.62a5.69,5.69,0,0,1,4.18,1.49c.45.42.85.9,1.33,1.28,1.13.91,2.37.47,3.71.62a5.09,5.09,0,0,1,3.16,1.4c1.8,1.74,1.11,3.59,1,5.82-.06,1.06.57,1.2,1.46.89a5,5,0,0,1,2-.3c.33,0,.66.07,1,.13,7.86,1.53,2.25,13.23.77,17.64-1.19,3.53-4.62,12.62-6.53,15.82a1,1,0,0,1-.08.14,251.72,251.72,0,0,0-12.56,23.18c-3,8.73-9.14,25.31-16.86,38.53-4.22,7.22-10.91,10.63-19.14,9.14L93.44,166Z"/><path class="cls-4" d="M78,125.5c11-12,17.85-12.29,21.33-12.69,14.86,4.7,26.85.86,28.87-.73l.64.18A51.07,51.07,0,0,1,164.6,150.2C169.79,173,172.54,198,174,215.28H71.89C65.76,172.94,60.79,144.22,78,125.5Z"/><ellipse cx="129.97" cy="68.25" rx="1.48" ry="3.12" transform="translate(-5.28 11.17) rotate(-4.82)"/><ellipse cx="113.72" cy="69.62" rx="1.48" ry="3.12" transform="translate(-5.45 9.81) rotate(-4.82)"/><line class="cls-5" x1="121.26" y1="63.01" x2="122.39" y2="76.43"/><path class="cls-5" d="M128.21,84.15s-8.42,3.58-13.62-4.31"/><path class="cls-5" d="M175.54,98.3a19.73,19.73,0,0,1,8,19.9"/><path class="cls-5" d="M210.29,88.29l-5.76,11.8"/><path class="cls-5" d="M202.91,80.41c-2.77,3.62-2.8,6.18-4.42,9.25-.69,1.31-1.7,2.49-1.93,4"/><path class="cls-5" d="M192.45,77.25q-2.35,6.9-5.36,13.56"/></g><polygon class="cls-6" points="156.76 65.06 155.76 64.39 154.91 63.64 153.99 62.97 153.13 62.23 152.28 61.46 151.4 60.74 150.49 60.06 149.46 59.54 148.7 58.67 147.8 57.98 146.84 57.35 145.96 56.63 144.95 56.08 144.13 55.27 143.14 54.69 142.25 53.98 141.37 53.26 140.55 52.45 139.52 51.91 138.65 51.16 137.78 50.42 137.94 49.29 138.21 48.17 138.36 47.03 138.5 45.9 138.7 44.76 138.92 43.64 139.03 42.5 139.14 41.36 139.43 40.24 139.54 39.1 139.81 37.98 140.03 36.85 140.26 35.72 140.41 34.58 140.66 33.45 140.87 32.32 141.06 31.19 141.18 30.04 141.31 28.89 142.15 29.66 143.17 30.2 143.99 31 144.96 31.61 145.82 32.34 146.75 33.01 147.64 33.73 148.46 34.52 149.43 35.12 150.37 35.76 151.22 36.52 152.14 37.19 153 37.93 153.98 38.53 154.82 39.3 155.68 40.05 156.6 40.73 157.51 41.41 158.48 42.04 159.43 42.69 160.27 43.46 160.12 44.6 159.83 45.71 159.67 46.85 159.6 48 159.47 49.14 159.26 50.27 158.85 51.36 158.72 52.5 158.58 53.64 158.46 54.78 158.27 55.91 158.13 57.06 157.85 58.17 157.73 59.32 157.51 60.45 157.32 61.58 157.18 62.73 157.03 63.87 156.76 65.06"/><polygon class="cls-7" points="206.42 54.05 206.49 55.22 206.11 56.33 205.88 57.45 205.56 58.56 204.89 59.49 204.44 60.58 203.62 61.4 202.8 62.21 201.9 62.94 200.91 63.52 200 64.23 198.98 64.78 197.91 65.19 196.87 65.73 195.75 66.03 194.63 66.3 193.46 66.3 192.32 66.46 191.18 66.69 190.02 66.61 188.86 66.6 187.71 66.47 186.59 66.22 185.46 65.98 184.33 65.7 183.25 65.27 182.32 64.56 181.28 64.05 180.28 63.47 179.49 62.63 178.7 61.8 177.96 60.93 177.41 59.93 176.97 58.88 176.6 57.81 176.33 56.69 176.34 55.54 176.5 54.4 176.7 53.27 177.25 52.25 177.79 51.25 178.3 50.21 179.16 49.42 179.94 48.59 180.85 47.89 181.66 47.04 182.72 46.57 183.73 46.01 184.77 45.51 185.84 45.09 186.98 44.86 188.09 44.57 189.22 44.34 190.37 44.18 191.52 44.1 192.68 44.09 193.81 44.31 194.97 44.32 196.11 44.52 197.2 44.91 198.31 45.2 199.38 45.62 200.41 46.12 201.46 46.62 202.31 47.41 203.24 48.08 204.08 48.87 204.7 49.84 205.39 50.76 205.74 51.86 206.09 52.94 206.42 54.05"/><polygon class="cls-4" points="167.26 26.25 167.55 27.85 168.07 29.42 168.36 31.05 168.8 32.64 169.22 34.23 169.71 35.81 170.43 37.32 170.59 38.99 171.16 40.55 171.48 42.17 171.85 43.79 172.44 45.35 172.87 47.02 173.92 45.67 174.86 44.33 175.86 43.04 176.88 41.76 177.95 40.53 178.92 39.21 179.75 37.77 180.8 36.52 181.83 35.25 182.9 34.01 183.87 32.68 184.7 31.25 185.75 30 186.78 28.73 187.82 27.45 188.84 26.17 189.7 24.77 190.68 23.45 191.94 22.35 192.84 20.98 193.67 19.55 194.82 18.37 195.68 16.96 196.69 15.66 197.75 14.41 198.79 13.14 199.93 11.94 200.93 10.63 201.72 9.28 200.34 9.89 198.93 10.66 197.41 11.18 196.03 12.02 194.64 12.82 193.13 13.39 191.67 14.06 190.27 14.84 188.9 15.69 187.43 16.34 185.97 17 184.6 17.86 183.11 18.47 181.68 19.21 180.19 19.8 178.71 20.43 177.38 21.36 175.93 22.05 174.42 22.62 172.92 23.23 171.61 24.2 170.19 24.95 168.61 25.4 167.26 26.25"/><polyline class="cls-5" points="157.84 75.17 158.78 73.65 159.63 72.07 160.22 70.37 160.66 68.64 161.04 66.89 161.48 65.16 161.56 63.38 161.84 61.6 161.91 59.8 161.5 58.04 161.47 56.23 160.67 54.58 160.36 52.81 159.57 51.21 159.07 49.64 157.79 48.63 156.25 48.08 155.13 49.15 154.63 50.51 154.19 52.03 154.42 53.58 155.68 55.53 157.23 55.67 159 55.23 160.67 54.38 162.09 53.09 163.01 51.42 163.72 49.66 164.06 47.8 164.07 45.91 163.84 44.04 163.72 42.14 162.9 40.41 162.29 38.64 162.09 36.72 161.5 34.97 160.96 33.2 160.11 31.54 159.53 29.79 158.87 28.07 158.45 26.26"/><polyline class="cls-5" points="216.01 26.96 214.73 28.11 213.57 29.36 212.25 30.45 211.07 31.68 209.8 32.82 208.65 34.1 207.87 35.63 206.86 37.03 206.61 38.75 206.08 40.38 206.37 41.9 206.72 43.41 208.26 44.59 210.16 44.7 211.99 44.09 212.82 42.58 212.78 40.91 212.41 39.32 211.57 37.85 210.15 36.88 208.49 36.43 206.79 36.14 205.09 36.35 203.43 36.92 201.77 37.43 200.09 38 198.59 38.93 197.2 40 195.96 41.26 194.64 42.42 193.69 43.92 192.38 45.1 191.21 46.41 190.09 47.75 189.28 49.27 188.09 50.5 187.37 52.05 186.85 53.66"/></g></svg>