<svg width="43" height="43" viewBox="0 0 43 43" fill="none" xmlns="http://www.w3.org/2000/svg">
<path d="M29.3013 11.6406H13.1784C11.5611 11.6406 10.25 12.9517 10.25 14.569V34.8825C10.25 36.4998 11.5611 37.8109 13.1784 37.8109H29.3013C30.9186 37.8109 32.2296 36.4998 32.2296 34.8825V14.569C32.2296 12.9517 30.9186 11.6406 29.3013 11.6406Z" stroke="#8E8E8E" stroke-width="1.85" stroke-miterlimit="10"/>
<path d="M15.4006 19.4242C16.5624 19.4242 17.5043 18.4824 17.5043 17.3205C17.5043 16.1587 16.5624 15.2168 15.4006 15.2168C14.2387 15.2168 13.2969 16.1587 13.2969 17.3205C13.2969 18.4824 14.2387 19.4242 15.4006 19.4242Z" fill="#27B5F7"/>
<path d="M19.5898 17.3203H28.5517" stroke="#8E8E8E" stroke-width="1.67" stroke-miterlimit="10" stroke-linecap="round"/>
<path d="M15.4006 26.8285C16.5624 26.8285 17.5043 25.8867 17.5043 24.7248C17.5043 23.563 16.5624 22.6211 15.4006 22.6211C14.2387 22.6211 13.2969 23.563 13.2969 24.7248C13.2969 25.8867 14.2387 26.8285 15.4006 26.8285Z" fill="#F8C341"/>
<path d="M19.5898 24.7246H28.5517" stroke="#8E8E8E" stroke-width="1.67" stroke-miterlimit="10" stroke-linecap="round"/>
<path d="M15.4006 34.2348C16.5624 34.2348 17.5043 33.2929 17.5043 32.1311C17.5043 30.9692 16.5624 30.0273 15.4006 30.0273C14.2387 30.0273 13.2969 30.9692 13.2969 32.1311C13.2969 33.2929 14.2387 34.2348 15.4006 34.2348Z" fill="#F76977"/>
<path d="M19.5898 32.1309H28.5517" stroke="#8E8E8E" stroke-width="1.67" stroke-miterlimit="10" stroke-linecap="round"/>
</svg>
