<svg xmlns="http://www.w3.org/2000/svg" viewBox="0 0 231.3 71.93"><defs><style>.cls-1{fill:#232323;}.cls-2{fill:#6f6f6f;}.cls-3{fill:#27b5f7;}.cls-4{fill:#fff;}.cls-5{fill:none;}</style></defs><g id="框"><path class="cls-1" d="M98,42l-.47,2.17a.79.79,0,0,1-.87.68H88.61A64.42,64.42,0,0,1,98,48.35c.39.16.37.37,0,.61l-3,1.81a1.18,1.18,0,0,1-1.23,0A32.77,32.77,0,0,0,87,48q-2.42-.8-.9-2.35l.79-.83H76.37L78,46c1.18.82,1.18,1.56,0,2.21a22.88,22.88,0,0,1-3.36,1.48,33.18,33.18,0,0,1-5.13,1.69.88.88,0,0,1-1-.39l-1.3-2c-.27-.38-.12-.64.43-.76a27.48,27.48,0,0,0,8.38-3.36H66.8c-.48,0-.67-.22-.58-.68L66.69,42a.8.8,0,0,1,.87-.69h3.32V27.15a1.53,1.53,0,0,1,1.73-1.73h6.9l.33-1.63H67.78c-.49,0-.68-.23-.58-.69l.47-2.2a.78.78,0,0,1,.86-.68H80.34l.18-1.81c0-.48.27-.66.73-.54l3,.83a.68.68,0,0,1,.54.9l-.11.62H96.59c.48,0,.68.23.58.68l-.47,2.2a.79.79,0,0,1-.87.69H84l-.33,1.63h8.09a1.52,1.52,0,0,1,1.73,1.73V41.3h3.94C97.94,41.3,98.13,41.53,98,42ZM89.19,29a.83.83,0,0,0-.94-.94H76A.83.83,0,0,0,75,29v.61H89.19Zm0,4.4V32.06H75v1.37Zm0,2.39H75v1.4H89.19ZM75,39.64V41.3H89.19V39.64Z"/><path class="cls-1" d="M127.65,23.32H136a1.56,1.56,0,0,1,1.77,1.77l0,.4q-.36,12.42-.83,17.33t-1.52,6.25a5.22,5.22,0,0,1-3.47,2,27.8,27.8,0,0,1-4.69.08q-1,0-1.08-.69l-.54-2.74c-.08-.46.1-.68.54-.65.67.07,2,.11,4.08.11a2.16,2.16,0,0,0,1.59-.62q.75-.87,1.19-5.2t.65-12.82c0-.86-.24-1.3-.87-1.3H126a21.78,21.78,0,0,1-2.24,4.3c-.62.94-1.3,1.13-2,.58a8.14,8.14,0,0,0-1.7-1.19V46a1.53,1.53,0,0,1-1.73,1.73H108.26A1.53,1.53,0,0,1,106.52,46V25.31a1.54,1.54,0,0,1,1.74-1.74h2.34l.94-5.12c.07-.46.34-.63.8-.51l3.07,1a.57.57,0,0,1,.43.86l-1.37,3.79h3.86a1.53,1.53,0,0,1,1.73,1.74v4.11a32.49,32.49,0,0,0,4.66-10.79c.15-.56.44-.75.87-.58l2.6,1.16a.66.66,0,0,1,.43.93Zm-11.49,9.86V28.27a.83.83,0,0,0-.93-.94h-3.87a.83.83,0,0,0-.94.94v4.91ZM110.42,43a.83.83,0,0,0,.94.94h3.87a.83.83,0,0,0,.93-.94V36.9h-5.74Zm21.09-3.76c.19.34.07.6-.36.8l-2.6,1.19c-.43.19-.75.12-.94-.22a49.44,49.44,0,0,0-4-6.53c-.34-.56-.28-.89.18-1l2.56-.69a1.11,1.11,0,0,1,1.23.58A48.11,48.11,0,0,1,131.51,39.28Z"/><path class="cls-1" d="M150.07,18.66c.15-.57.44-.77.87-.57l2.53,1.12a.71.71,0,0,1,.43,1l-1.77,5.74V50.73c0,.48-.23.69-.68.61l-2.71-.54a.75.75,0,0,1-.69-.83V34.12l-1.23,1.62c-.29.39-.5.35-.65-.1L145,32a1.29,1.29,0,0,1,.18-1.23Q148.34,26.87,150.07,18.66Zm14.66,22.93-.46,2.17a.8.8,0,0,1-.87.69h-4.73v6.24c0,.48-.23.69-.69.62l-2.56-.54a.75.75,0,0,1-.69-.83V20.87a1.53,1.53,0,0,1,1.73-1.74h6.83A1.53,1.53,0,0,1,165,20.87v9a1.52,1.52,0,0,1-1.73,1.73h-4.62V34.3h5c.48,0,.67.23.58.69l-.47,2.13a.8.8,0,0,1-.87.68h-4.26v3.11h5.49C164.64,40.91,164.83,41.14,164.73,41.59Zm-3.39-18a.83.83,0,0,0-.94-.94h-.79a.83.83,0,0,0-.94.94v4.44h1.73a.83.83,0,0,0,.94-.94Zm12.75,9.57a2.22,2.22,0,0,1,1.3.4l1.08.76a1.07,1.07,0,0,1,.43,1.19,19.49,19.49,0,0,1-3.21,8.27,1.17,1.17,0,0,0,.18,1.55A10.59,10.59,0,0,0,178.06,48c.48.2.55.45.22.76l-2.17,1.95a.92.92,0,0,1-1.16.11,12.5,12.5,0,0,1-4.26-3.4,17.2,17.2,0,0,1-5.85,3.83c-.48.22-.8.11-1-.32l-.91-2.1a.67.67,0,0,1,.44-.94,12.4,12.4,0,0,0,5-3.5A20.74,20.74,0,0,1,166,39.14c-.38-1.25,0-2,1.16-2.28l.4-.1H166c-.48,0-.67-.23-.58-.69l.47-2.1a.8.8,0,0,1,.87-.68Zm.83-14a1.53,1.53,0,0,1,1.73,1.74v8.84a1.53,1.53,0,0,1-1.73,1.74h-8.06q-.72,0-.57-.69l.47-2.24a.78.78,0,0,1,.86-.68h4.16a.83.83,0,0,0,.93-.94V23.68a.83.83,0,0,0-.93-.94h-4.92c-.48,0-.68-.22-.61-.68l.51-2.24a.76.76,0,0,1,.86-.69ZM172.5,37.66c.19-.6,0-.9-.65-.9h-2.17c-.62,0-.85.3-.68.9a18.79,18.79,0,0,0,1.77,3.75A17.75,17.75,0,0,0,172.5,37.66Z"/><path class="cls-1" d="M207.09,23.32h8.38a1.56,1.56,0,0,1,1.77,1.77l0,.4q-.36,12.42-.83,17.33t-1.51,6.25a5.25,5.25,0,0,1-3.47,2,27.83,27.83,0,0,1-4.69.08c-.65,0-1-.23-1.09-.69l-.54-2.74c-.07-.46.11-.68.54-.65.68.07,2,.11,4.08.11a2.16,2.16,0,0,0,1.59-.62c.51-.58.9-2.31,1.19-5.2s.51-7.18.65-12.82c0-.86-.24-1.3-.86-1.3h-6.79a22.34,22.34,0,0,1-2.24,4.3c-.63.94-1.3,1.13-2,.58a8.42,8.42,0,0,0-1.7-1.19V46a1.53,1.53,0,0,1-1.73,1.73H187.7A1.53,1.53,0,0,1,186,46V25.31a1.53,1.53,0,0,1,1.73-1.74h2.35l.94-5.12c.07-.46.33-.63.79-.51l3.07,1a.57.57,0,0,1,.43.86l-1.37,3.79h3.87a1.53,1.53,0,0,1,1.73,1.74v4.11a32.69,32.69,0,0,0,4.66-10.79c.14-.56.43-.75.86-.58l2.6,1.16a.67.67,0,0,1,.44.93Zm-11.48,9.86V28.27a.83.83,0,0,0-.94-.94h-3.86a.83.83,0,0,0-.94.94v4.91ZM189.87,43a.83.83,0,0,0,.94.94h3.86a.83.83,0,0,0,.94-.94V36.9h-5.74ZM211,39.28c.19.34.07.6-.36.8L208,41.27c-.44.19-.75.12-.94-.22a49.88,49.88,0,0,0-4-6.53c-.33-.56-.27-.89.18-1l2.57-.69a1.11,1.11,0,0,1,1.23.58A50.63,50.63,0,0,1,211,39.28Z"/><rect class="cls-2" x="43.8" y="43.29" width="5.66" height="18.35" rx="2.83" transform="translate(-22.45 40.03) rotate(-38.17)"/><circle class="cls-3" cx="30.56" cy="31.66" r="19.49" transform="translate(-7.68 53.43) rotate(-75.67)"/><path class="cls-4" d="M28.81,39.87h0a3.16,3.16,0,0,1-2.49-1.24L20.36,31l2.48-1.92,5.92,7.65L39.92,23l2.44,2L31.29,38.68A3.16,3.16,0,0,1,28.81,39.87Z"/><path d="M17.44,26.48a.52.52,0,0,1-.21,0,.65.65,0,0,1-.41-.82c1.83-5.31,8.36-8.2,8.64-8.32a.65.65,0,0,1,.86.33.66.66,0,0,1-.34.86c-.06,0-6.29,2.79-7.93,7.55A.64.64,0,0,1,17.44,26.48Z"/><rect class="cls-5" width="231.3" height="71.93"/></g></svg>