<svg xmlns="http://www.w3.org/2000/svg" viewBox="0 0 231.3 71.93"><defs><style>.cls-1{fill:#232323;}.cls-2{fill:#f4f4f4;}.cls-3{fill:#f1f1f1;}.cls-4{fill:#747474;}.cls-5{fill:#f8c341;}.cls-6{fill:none;}</style></defs><g id="框"><path class="cls-1" d="M66.08,20.69A1.53,1.53,0,0,1,67.81,19H96.56a1.53,1.53,0,0,1,1.73,1.74v29a1.53,1.53,0,0,1-1.73,1.73H67.81a1.53,1.53,0,0,1-1.73-1.73ZM70.19,46.9a.83.83,0,0,0,.94.94H93a.83.83,0,0,0,.94-.94V23.61a.83.83,0,0,0-.94-.94H71.13a.84.84,0,0,0-.94.94ZM92.51,31.66l-.32,1.05a.91.91,0,0,1-.94.69H83.59v1.12h6.14a1.52,1.52,0,0,1,1.73,1.73v8.63a1.52,1.52,0,0,1-1.73,1.73H74.35a1.53,1.53,0,0,1-1.74-1.73V36.25a1.53,1.53,0,0,1,1.74-1.73h5.78V33.4H72.18c-.48,0-.65-.23-.5-.69L72,31.66a.91.91,0,0,1,.94-.68h7.19V29.82H75.4a1.53,1.53,0,0,1-1.74-1.73V25.56a1.53,1.53,0,0,1,1.74-1.73H88.47a1.53,1.53,0,0,1,1.73,1.73v2.53a1.53,1.53,0,0,1-1.73,1.73H83.59V31H92C92.49,31,92.66,31.21,92.51,31.66Zm-5.63,12.5a.83.83,0,0,0,.94-.94V37.87a.83.83,0,0,0-.94-.93H77a.83.83,0,0,0-.94.93v5.35a.83.83,0,0,0,.94.94ZM78.18,26.1a.83.83,0,0,0-.94.94c0,.36.31.54.94.54h7.33a.83.83,0,0,0,.94-.94c0-.36-.32-.54-.94-.54Zm7,12c.48,0,.68.22.61.68l-.54,3.61a.75.75,0,0,1-.83.69H78.57c-.48,0-.68-.23-.61-.69l.54-3.61a.74.74,0,0,1,.83-.68Zm-2.75,3.1c.63,0,.94-.41.94-1.23h-2.2c-.63,0-.94.41-.94,1.23Z"/><path class="cls-1" d="M137.9,41.7c.48,0,.68.23.58.69L138,44.7a.79.79,0,0,1-.86.69h-3.9v5.34c0,.48-.23.69-.69.61l-2.71-.54a.75.75,0,0,1-.69-.83V45.39h-6.1c-.48,0-.67-.23-.58-.69l.47-2.31a.8.8,0,0,1,.87-.69h5.34V38.45h-3.39l-.69,1.27a1.51,1.51,0,0,1-2.31.72l-1.48-.8v7.44c0,1.64-.37,2.71-1.12,3.22a2.15,2.15,0,0,1-1.62.57c-1.33.1-2.12-.37-2.39-1.4L115.73,48v.58c0,.48-.23.66-.68.54l-1.45-.4a.84.84,0,0,1-.69-.9V43.15h-2.38c-.46,3.59-1.26,6.22-2.42,7.91-.19.36-.46.38-.79.07l-1.7-1.63a.81.81,0,0,1-.18-1.08,8.81,8.81,0,0,0,1.08-3,25.87,25.87,0,0,0,.73-4.4c.09-1.28.14-2.77.14-4.48V31.16c-1-1-1.41-1.31-1.19-1.05a1.77,1.77,0,0,1-.33-2.85q2.43-2.42,3.83-8.67c.15-.55.43-.74.87-.58l2.31,1a.71.71,0,0,1,.47.94L113,21.12l4.51-.18,1.08.68a1.76,1.76,0,0,1,.76,2.46L118,27h1.52a1.53,1.53,0,0,1,1.73,1.73v.58a7.46,7.46,0,0,0,3.25-2.5L126,23.11H122.7c-.48,0-.67-.23-.58-.69l.47-2.13a.8.8,0,0,1,.87-.69h12.6a1.5,1.5,0,0,1,1.7,1.77l0,.4q-.21,7.18-1.22,8.38a3.38,3.38,0,0,1-2.21,1.19,15.72,15.72,0,0,1-2.74.14q-.9,0-.9-.75l-.11-1.92a.61.61,0,0,1,.72-.69h1a1.26,1.26,0,0,0,1-.39l.54-3.72c.07-.6-.21-.9-.83-.9h-3.07a14.75,14.75,0,0,1-1.74,5.2,10,10,0,0,1-3.82,3.61l1.44.29a1.52,1.52,0,0,1,1.37,2l-.14.58h2.16V32.68c0-.49.23-.69.69-.62l2.71.54a.75.75,0,0,1,.69.83v1.41h3.9q.72,0,.57.69l-.47,2.24a.78.78,0,0,1-.86.68h-3.14V41.7ZM115,25.24c.22-.58,0-.87-.61-.87h-2.64l-.87,1.81c-.26.55-.08.83.54.83h2.89Zm-4.08,4.91v3.1h2v-3.1Zm0,9.86h2V36.32h-2Zm4.8-6.76h2.06V31.09a.83.83,0,0,0-.94-.94h-1.12Zm2.06,3.07h-2.06V40h2.06Zm-2.06,6.83v3.36c0,.62.3.94.9.94h.73c.29,0,.43-.13.43-.44V43.15Zm5.56-13.4v9.71a13.75,13.75,0,0,0,2.31-5.67c.27-1.13,0-1.85-.79-2.16l-.51-.72C121.82,29.82,121.49,29.44,121.29,29.75Z"/><path class="cls-1" d="M161.56,36.32l-.51,2.24a.77.77,0,0,1-.87.69h-4.47L155.42,49a2.31,2.31,0,0,1-1.09,1.2,4.2,4.2,0,0,1-2.34.5c-1.4.07-2.27-.4-2.6-1.41-.44-1.32.07-2,1.51-2l.44,0a.41.41,0,0,0,.5-.5V39.25h-5.92c-.48,0-.67-.23-.58-.69l.47-2.24a.79.79,0,0,1,.87-.68h5.16V32.86H145.7q-.72,0-.57-.69L145.6,30a.78.78,0,0,1,.86-.68h2.06l-.61-2.06a1.48,1.48,0,0,1,1.22-2.1l1.27-.32h-4.15c-.49,0-.68-.23-.58-.69l.47-2.13a.78.78,0,0,1,.86-.68h4.7l-.83-2.21c-.17-.43,0-.66.47-.68L154,18.3a.91.91,0,0,1,1,.65l1,2.39h5c.48,0,.67.23.58.68l-.47,2.13a.8.8,0,0,1-.87.69h-3.07L158,25c1.42.26,1.86,1.06,1.3,2.38l-.79,1.92h3c.48,0,.67.23.58.68l-.47,2.17a.8.8,0,0,1-.87.69h-5v2.78h5.23C161.42,35.64,161.63,35.86,161.56,36.32ZM147.29,41.2c.24-.65.57-.86,1-.62l1.73,1a.83.83,0,0,1,.29,1.16,12,12,0,0,1-2.56,4.37c-.27.31-.56.3-.87,0l-1.41-1.48a.71.71,0,0,1,0-1A7.63,7.63,0,0,0,147.29,41.2Zm8.92-16.36H150.9a6,6,0,0,1,.87,2.35,1.64,1.64,0,0,1-1.37,2.13h4.26Zm5.49,19.5a.54.54,0,0,1-.32.87l-1.92.72a.69.69,0,0,1-1-.4L156.65,42c-.22-.41-.1-.68.36-.8l1.8-.54a.87.87,0,0,1,1.05.43Zm15.93-14.7c.48,0,.68.23.61.69l-.54,2.6a.74.74,0,0,1-.83.68H175v17c0,.48-.23.69-.69.62l-2.81-.54a.76.76,0,0,1-.69-.84V33.61l-3.54.26q0,12-3.32,16.72c-.17.31-.41.3-.72,0l-1.95-2.17a.89.89,0,0,1-.15-1.12A6.35,6.35,0,0,0,162,45a38.42,38.42,0,0,0,1.26-11.16v-11c0-1.1.7-1.79,2.1-2.06a32.91,32.91,0,0,0,8.34-2.42.72.72,0,0,1,.94.29L176.47,21c.29.36.24.61-.14.75a44.94,44.94,0,0,1-7.88,2c-.79.14-1.19.53-1.19,1.15v4.73Z"/><path class="cls-1" d="M200.05,29.46a1.53,1.53,0,0,1-1.73,1.74h-8V50.77c0,.48-.23.68-.69.61l-2.82-.54a.75.75,0,0,1-.68-.83V20.87a1.53,1.53,0,0,1,1.73-1.74h10.4a1.56,1.56,0,0,1,1.77,1.77Zm-4-6.53a.83.83,0,0,0-.94-.94h-3.79a.83.83,0,0,0-.94.94v.9H196Zm-5.67,5.41h4.73a.83.83,0,0,0,.94-.94v-.83h-5.67Zm24.48-9.21a1.56,1.56,0,0,1,1.77,1.77l-.32,28.21a2.8,2.8,0,0,1-1.2,1.44,4.52,4.52,0,0,1-2.81.72q-2.2.1-2.49-1.62a7,7,0,0,0-.76-2.31l-1.16.07v2c0,.48-.23.68-.69.61l-2.49-.54a.75.75,0,0,1-.68-.83v-.87l-11.16.87c-.63,0-.92-.17-.87-.65l.33-1.91a.75.75,0,0,1,.79-.76l1.48-.11V35.64h-1.37q-.72,0-.54-.69l.4-1.59a.84.84,0,0,1,.9-.68h15.31c.48,0,.66.22.54.68L209.4,35a.84.84,0,0,1-.9.69h-.65v8.63l1.45-.11a1.46,1.46,0,0,1,1.77,1.66l-.11.43c-.12.63.15.94.83.94.38,0,.57-.25.57-.68V31.2h-8.19a1.54,1.54,0,0,1-1.74-1.74V20.87a1.54,1.54,0,0,1,1.74-1.74ZM204,35.64h-5.67V37H204Zm-5.67,3.79V41H204V39.43Zm0,5.52,5.67-.39V43.33h-5.67Zm14-22a.83.83,0,0,0-.93-.94h-4a.83.83,0,0,0-.93.94v.9h5.84Zm-5.84,4.47a.83.83,0,0,0,.93.94h4.91V26.57h-5.84Z"/><path class="cls-2" d="M19.1,13.63S13.66,35.77,12.75,55l33.4,4s3.7-31.35,11.74-41.55Z"/><line class="cls-3" x1="21.47" y1="40.32" x2="38.95" y2="43.06"/><path class="cls-4" d="M39,43.89h-.13L21.35,41.14a.83.83,0,1,1,.25-1.64l17.48,2.74a.83.83,0,0,1,.69.95A.82.82,0,0,1,39,43.89Z"/><line class="cls-3" x1="19.94" y1="46.38" x2="32.45" y2="48.34"/><path class="cls-4" d="M32.45,49.17h-.13l-12.5-2a.83.83,0,0,1-.7-1,.82.82,0,0,1,.95-.69l12.51,2a.83.83,0,0,1-.13,1.65Z"/><ellipse class="cls-5" cx="29.22" cy="26.45" rx="8.59" ry="8.27"/><polygon class="cls-5" points="44.09 29.59 44.95 34.89 45.81 40.19 40.7 38.36 35.59 36.53 39.84 33.06 44.09 29.59"/><path d="M18,19.34a.32.32,0,0,1-.14,0,.64.64,0,0,1-.5-.77c.37-1.69.74-3.38,1.13-5.06a.65.65,0,1,1,1.26.29q-.57,2.52-1.12,5A.64.64,0,0,1,18,19.34Z"/><rect class="cls-6" width="231.3" height="71.93"/></g></svg>