<svg xmlns="http://www.w3.org/2000/svg" viewBox="0 0 270.26 71.93"><defs><style>.cls-1{fill:#f76977;}.cls-2{fill:#efefef;}.cls-3{fill:#232323;}.cls-4{fill:none;}</style></defs><g id="框"><rect class="cls-1" x="11.41" y="20.42" width="10.39" height="34.79" rx="0.98"/><rect class="cls-1" x="21.82" y="16.72" width="12.4" height="38.49" rx="0.98"/><rect class="cls-1" x="39.36" y="21.2" width="10.39" height="33.22" rx="0.98" transform="translate(-9.9 16.61) rotate(-19.05)"/><rect class="cls-2" x="42.99" y="46.9" width="10.39" height="2.87" transform="translate(-13.14 18.38) rotate(-19.05)"/><rect class="cls-2" x="35.72" y="25.85" width="10.39" height="2.87" transform="matrix(0.95, -0.33, 0.33, 0.95, -6.67, 14.85)"/><rect class="cls-2" x="26.29" y="27.84" width="3.82" height="16.02" rx="1.91"/><path d="M22.1,48.29a.64.64,0,0,1-.64-.64L21.15,37a.63.63,0,0,1,.63-.66.61.61,0,0,1,.66.63l.32,10.69a.66.66,0,0,1-.64.67Z"/><path class="cls-3" d="M98.51,24.51,98,27.33a.74.74,0,0,1-.83.69h-4a38.22,38.22,0,0,1-7.44,12.92A32.6,32.6,0,0,0,98.51,47c.53.12.62.35.29.69l-2.71,2.74a1.16,1.16,0,0,1-1.23.29,30,30,0,0,1-11.81-6,1,1,0,0,0-1.48-.07,35.29,35.29,0,0,1-13.14,6.46q-.77.26-1-.39l-1.26-2.93q-.25-.65.51-.87A33,33,0,0,0,79.11,41a41,41,0,0,1-7.69-13H66.48c-.49,0-.69-.23-.62-.69l.54-2.82a.75.75,0,0,1,.83-.68H81l-1.77-4.44c-.17-.44,0-.68.44-.73l3.5-.5a.87.87,0,0,1,1,.57l1.16,2.5a1.39,1.39,0,0,1-1,2.16l-1.4.44h15C98.37,23.83,98.58,24.06,98.51,24.51ZM88.25,28H75.86a31.24,31.24,0,0,0,6.5,10A29.28,29.28,0,0,0,88.25,28Z"/><path class="cls-3" d="M128.19,46.58h4.22c.75,0,1.24-.46,1.49-1.38a25.07,25.07,0,0,0,.54-4.94c.05-.73.26-.94.65-.65l3,2.24a1.45,1.45,0,0,1,.5,1.37,12.51,12.51,0,0,1-1.37,5.56c-.79,1.4-2.24,2.09-4.33,2.09h-5.27c-2.22,0-3.72-.48-4.52-1.44s-1.19-2.75-1.19-5.34V40.37a24.71,24.71,0,0,1-2.64,1.51,1.82,1.82,0,0,1-2.45-.47,8.86,8.86,0,0,0-1.84-1.77V50.77c0,.48-.23.68-.69.61l-3.18-.54a.75.75,0,0,1-.68-.83V32.53c-.85,1-1.58,1.83-2.21,2.45-.33.34-.6.29-.79-.14l-1.66-3.54a.93.93,0,0,1,.18-1.12,26.6,26.6,0,0,0,4.22-5.13,32.42,32.42,0,0,0,3.65-6.75q.28-.69.9-.36l2.86,1.48a.67.67,0,0,1,.32,1A49.06,49.06,0,0,1,114.94,26V39.17a46.16,46.16,0,0,0,6.93-4.11V19c0-.48.23-.68.69-.61l3.28.54a.75.75,0,0,1,.69.83V31.34A42.86,42.86,0,0,0,133.82,23a.53.53,0,0,1,.91-.11l2.67,2.5a.66.66,0,0,1,.07,1,53.11,53.11,0,0,1-10.94,10.79v6.94a4.25,4.25,0,0,0,.29,2C127,46.44,127.47,46.58,128.19,46.58Z"/><path class="cls-3" d="M178.1,29.89l-.47,2.17a.8.8,0,0,1-.87.69H158l-.87,1.55H173A1.53,1.53,0,0,1,174.74,36v13.8A1.53,1.53,0,0,1,173,51.56H154.08a1.53,1.53,0,0,1-1.73-1.73V40.62a26.18,26.18,0,0,1-5.2,4.15.58.58,0,0,1-.9-.29l-1.56-2.71a.65.65,0,0,1,.29-1q4.19-2.23,7.91-8h-7.26c-.48,0-.67-.23-.58-.69l.47-2.17a.8.8,0,0,1,.87-.68h8.38l.72-1.59h-7.22c-.48,0-.68-.23-.58-.69l.47-2a.79.79,0,0,1,.87-.69h7.65l.43-1.62q-4.68.21-8.48.18a.66.66,0,0,1-.69-.76l.15-1.91c0-.48.31-.72.94-.72q15.42,0,23.87-1.41a.81.81,0,0,1,.9.5l1.3,2.1c.24.41.17.65-.22.72A124.42,124.42,0,0,1,162,22.42l-.55,1.8h14q.72,0,.57.69l-.47,2a.79.79,0,0,1-.86.69H160.29l-.61,1.59h17.84C178,29.21,178.19,29.44,178.1,29.89Zm-7.88,9.39v-.65a.83.83,0,0,0-.94-.94H156.61v1.59Zm0,4.44V42.06H156.61v1.66ZM156.61,47.3a.83.83,0,0,0,.94.94h11.73a.83.83,0,0,0,.94-.94v-.8H156.61Z"/><path class="cls-3" d="M212.91,39.57a1.53,1.53,0,0,1-1.74,1.73H200.88a1.53,1.53,0,0,1-1.73-1.73v-9h-4.91V44.45a.83.83,0,0,0,.94.94h20.87c.46,0,.65.22.58.68l-.55,2.78a.74.74,0,0,1-.83.69H191.49a1.53,1.53,0,0,1-1.73-1.74V30.58h-4.15c-.49,0-.69-.23-.62-.69l.54-2.78a.75.75,0,0,1,.83-.68h3.4v-6.9c0-.48.23-.69.69-.61l3.1.54a.75.75,0,0,1,.69.83v6.14h4.91V18.77c0-.48.23-.68.68-.61l2.89.54a.75.75,0,0,1,.69.83v6.9h5V19.1c0-.49.23-.69.69-.62l3.14.54a.75.75,0,0,1,.69.83v6.58h4c.48,0,.69.23.62.68L217,29.89a.75.75,0,0,1-.83.69h-3.28Zm-4.52-9h-5v5.85a.83.83,0,0,0,.94.94h3.1a.83.83,0,0,0,.94-.94Z"/><path class="cls-3" d="M254,32.6a1.53,1.53,0,0,1-1.73,1.74h-4.15A23.19,23.19,0,0,0,257.21,39c.51.12.59.34.26.65l-2.6,2.49a1.08,1.08,0,0,1-1.19.22A21.15,21.15,0,0,1,249,40V50.66c0,.48-.23.68-.69.61l-3.1-.54a.75.75,0,0,1-.69-.83V40.4a1.53,1.53,0,0,1,1.73-1.73h1A23.13,23.13,0,0,1,243,34.34H239.3A23.75,23.75,0,0,1,235,38.63h1.34A1.53,1.53,0,0,1,238,40.37v.75a12.37,12.37,0,0,1-.18,2.17,9.46,9.46,0,0,1-.69,2.28,8.45,8.45,0,0,1-1.37,2.31,11.85,11.85,0,0,1-2.42,2,6.85,6.85,0,0,1-2,1.12,1.88,1.88,0,0,1-2.53-.61l-.36-.51q-1.66-1.7.32-2.56l1.59-.72a6.6,6.6,0,0,0,2.06-1.95,7.3,7.3,0,0,0,.87-1.88,7,7,0,0,0,.25-1.88v-1.3a25.89,25.89,0,0,1-5.92,3.11.7.7,0,0,1-1-.36l-1.41-2.53c-.21-.41-.08-.7.4-.87A21.89,21.89,0,0,0,234,34.34h-4a1.53,1.53,0,0,1-1.73-1.74V20.72A1.53,1.53,0,0,1,230,19h22.28A1.53,1.53,0,0,1,254,20.72ZM233.45,22.45a.84.84,0,0,0-.94.94v1.66h6.32v-2.6Zm-.94,5.82v1.66a.83.83,0,0,0,.94.94h5.38v-2.6Zm17-3.22V23.39a.84.84,0,0,0-.94-.94h-5.38v2.6Zm-.94,5.82a.83.83,0,0,0,.94-.94V28.27h-6.32v2.6Z"/><rect class="cls-4" width="270.26" height="71.93"/></g></svg>