<svg width="685" height="5" viewBox="0 0 685 5" fill="none" xmlns="http://www.w3.org/2000/svg">
<path d="M342.38 3.94006C341.12 3.94006 340.48 3.88006 339.86 3.83006C339.102 3.75852 338.341 3.72514 337.58 3.73006C336.4 3.73006 335.81 3.73006 335.22 3.73006C334.63 3.73006 334 3.73006 332.77 3.73006C331.54 3.73006 330.89 3.73006 330.27 3.64006C329.65 3.55006 329.12 3.56006 327.97 3.56006C326.82 3.56006 326.27 3.61006 325.69 3.65006C325.11 3.69006 324.43 3.75006 323.17 3.75006C322.273 3.76552 321.377 3.67828 320.5 3.49006C319.8 3.34349 319.085 3.2764 318.37 3.29006C317.21 3.29006 316.65 3.29006 316.05 3.35006C315.45 3.41006 314.81 3.42006 313.57 3.42006C312.33 3.42006 311.81 3.42006 311.22 3.47006C310.63 3.52006 309.99 3.47006 308.77 3.47006C307.55 3.47006 306.94 3.47006 306.32 3.47006C305.7 3.47006 305.14 3.47006 303.96 3.47006C303.105 3.478 302.249 3.43124 301.4 3.33006C300.656 3.24397 299.908 3.20389 299.16 3.21006C297.92 3.21006 297.28 3.21006 296.67 3.13006C296.06 3.05006 295.51 3.06006 294.36 3.06006C293.665 3.04754 292.972 3.13167 292.3 3.31006C291.407 3.55095 290.485 3.6654 289.56 3.65006C288.39 3.65006 287.8 3.65006 287.22 3.65006C286.64 3.65006 285.99 3.71006 284.76 3.71006C283.827 3.72549 282.896 3.60076 282 3.34006C281.349 3.1573 280.676 3.06973 280 3.08006C279.267 3.07187 278.534 3.12539 277.81 3.24006C276.948 3.38555 276.074 3.4525 275.2 3.44006C274.03 3.44006 273.44 3.44006 272.86 3.44006C272.28 3.44006 271.63 3.44006 270.4 3.44006C269.533 3.45229 268.667 3.39544 267.81 3.27006C267.074 3.1699 266.332 3.12312 265.59 3.13006C264.874 3.11508 264.159 3.18558 263.46 3.34006C262.582 3.51982 261.686 3.60365 260.79 3.59006C259.814 3.60945 258.844 3.44317 257.93 3.10006C257.312 2.85922 256.653 2.74365 255.99 2.76006C255.283 2.74879 254.578 2.82605 253.89 2.99006C253.006 3.20257 252.099 3.30336 251.19 3.29006C249.95 3.29006 249.33 3.29006 248.71 3.23006C248.09 3.17006 247.55 3.17006 246.38 3.17006C245.21 3.17006 244.63 3.17006 244.04 3.17006C243.45 3.17006 242.81 3.17006 241.58 3.17006C240.35 3.17006 239.73 3.17006 239.12 3.17006C238.51 3.17006 237.95 3.11006 236.78 3.11006C236.082 3.09336 235.384 3.17756 234.71 3.36006C233.818 3.58693 232.9 3.69453 231.98 3.68006C230.76 3.68006 230.15 3.68006 229.53 3.68006C228.91 3.68006 228.36 3.68006 227.19 3.68006C226.297 3.68999 225.406 3.60959 224.53 3.44006C223.826 3.29416 223.109 3.22708 222.39 3.24006C221.641 3.23118 220.893 3.27462 220.15 3.37006C219.301 3.48085 218.446 3.53098 217.59 3.52006C216.832 3.51171 216.074 3.54844 215.32 3.63006C214.48 3.71676 213.635 3.75683 212.79 3.75006C211.787 3.77149 210.791 3.5771 209.87 3.18006C209.279 2.91885 208.636 2.79246 207.99 2.81006C207.335 2.79203 206.684 2.91479 206.08 3.17006C205.16 3.54526 204.173 3.729 203.18 3.71006H200.77H198.38C197.476 3.7244 196.573 3.63379 195.69 3.44006C194.998 3.28053 194.29 3.20664 193.58 3.22006C192.879 3.2056 192.179 3.28634 191.5 3.46006C190.611 3.68639 189.697 3.794 188.78 3.78006C187.932 3.78705 187.084 3.74699 186.24 3.66006C185.489 3.57867 184.735 3.54194 183.98 3.55006C183.082 3.60123 182.18 3.56103 181.29 3.43006C180.582 3.29381 179.861 3.23014 179.14 3.24006C178.41 3.22919 177.68 3.2861 176.96 3.41006C176.094 3.55544 175.218 3.62239 174.34 3.61006C173.09 3.61006 172.46 3.61006 171.85 3.53006C171.24 3.45006 170.69 3.45006 169.54 3.45006H167.12H164.74C163.51 3.45006 162.89 3.45006 162.28 3.39006C161.67 3.33006 161.11 3.33006 159.94 3.33006C158.77 3.33006 158.16 3.33006 157.56 3.33006H150.35C149.646 3.31793 148.944 3.39521 148.26 3.56006C147.373 3.77206 146.462 3.87284 145.55 3.86006C144.676 3.8698 143.803 3.80624 142.94 3.67006C142.217 3.54622 141.484 3.48932 140.75 3.50006C139.884 3.51229 139.017 3.45544 138.16 3.33006C137.428 3.23018 136.689 3.18339 135.95 3.19006C134.73 3.19006 134.12 3.19006 133.51 3.19006C132.9 3.19006 132.33 3.19006 131.14 3.19006C130.46 3.17129 129.782 3.27633 129.14 3.50006C128.231 3.81602 127.272 3.96838 126.31 3.95006C125.443 3.96067 124.577 3.90047 123.72 3.77006C122.989 3.65603 122.25 3.60252 121.51 3.61006H116.71C115.858 3.61843 115.006 3.57167 114.16 3.47006C113.413 3.38436 112.662 3.34428 111.91 3.35006H109.53H107.11C105.86 3.35006 105.22 3.35006 104.6 3.25006C103.98 3.15006 103.46 3.16006 102.32 3.16006C101.565 3.15405 100.81 3.19412 100.06 3.28006C99.2162 3.36668 98.3682 3.40675 97.52 3.40006C96.36 3.40006 95.8 3.40006 95.2 3.47006C94.6 3.54006 93.96 3.55006 92.72 3.55006C91.8751 3.55656 91.0305 3.5165 90.19 3.43006C89.4355 3.35817 88.6779 3.3248 87.92 3.33006C87.2103 3.31665 86.5016 3.39053 85.81 3.55006C84.9301 3.74337 84.0307 3.83398 83.13 3.82006C82.1675 3.83838 81.2093 3.68602 80.3 3.37006C79.6598 3.13702 78.9809 3.0284 78.3 3.05006C77.599 3.0356 76.8993 3.11634 76.22 3.29006C75.3308 3.51188 74.4163 3.6161 73.5 3.60006C72.6262 3.60887 71.7532 3.54532 70.89 3.41006C70.1701 3.2861 69.4403 3.22919 68.71 3.24006C67.9676 3.23312 67.2256 3.2799 66.49 3.38006C65.6359 3.50512 64.7731 3.56196 63.91 3.55006C63.0254 3.55429 62.1442 3.43994 61.29 3.21006C60.6146 3.03264 59.9182 2.94853 59.22 2.96006C58.4588 2.95514 57.6978 2.98852 56.94 3.06006C56.32 3.06006 55.68 3.17006 54.42 3.17006C53.16 3.17006 52.53 3.17006 51.92 3.07006C51.31 2.97006 50.72 3.03006 49.57 3.03006C48.8603 3.01603 48.1515 3.08993 47.46 3.25006C46.5773 3.44778 45.6745 3.54175 44.77 3.53006H39.97C39.2179 3.52091 38.466 3.56435 37.72 3.66006C36.8738 3.761 36.0221 3.80776 35.17 3.80006H30.37C29.5215 3.80501 28.6735 3.76161 27.83 3.67006C27.0795 3.58897 26.3248 3.55224 25.57 3.56006C24.8182 3.55396 24.0668 3.59403 23.32 3.68006C22.4739 3.78133 21.6221 3.82809 20.77 3.82006C19.8244 3.8389 18.8821 3.7038 17.98 3.42006C17.3333 3.21734 16.6575 3.12273 15.98 3.14006C15.2998 3.11762 14.6214 3.22276 13.98 3.45006C13.0745 3.75161 12.1243 3.89702 11.17 3.88006C10.1767 3.899 9.18991 3.71526 8.26998 3.34006C7.66958 3.0859 7.02175 2.96315 6.36999 2.98006C5.63048 2.97037 4.8914 3.02053 4.15998 3.13006C3.30204 3.25072 2.43633 3.30754 1.56998 3.30006C1.21524 3.27021 0.884649 3.10821 0.643705 2.84614C0.402761 2.58407 0.269043 2.24106 0.269043 1.88506C0.269043 1.52907 0.402761 1.18605 0.643705 0.92398C0.884649 0.661912 1.21524 0.49991 1.56998 0.470062C2.30935 0.475001 3.04806 0.424861 3.77999 0.32006C4.63707 0.190522 5.50322 0.130326 6.36999 0.14006C7.3633 0.121121 8.35006 0.304862 9.26998 0.680061C9.86728 0.945191 10.5168 1.07168 11.17 1.05006C11.85 1.06972 12.5278 0.964659 13.17 0.740058C14.0769 0.429268 15.0315 0.280332 15.99 0.300056C16.9355 0.281213 17.8778 0.416312 18.78 0.700057C19.4259 0.90707 20.1018 1.00508 20.78 0.990058C21.5288 0.999198 22.2773 0.95576 23.02 0.860061C23.8695 0.758882 24.7245 0.712121 25.58 0.720062C26.4284 0.715427 27.2765 0.758827 28.12 0.850059C28.8705 0.931448 29.6251 0.96818 30.38 0.96006H35.18C35.9286 0.963797 36.6768 0.92038 37.42 0.830062C38.2695 0.728883 39.1245 0.682122 39.98 0.690063H44.78C45.4897 0.70348 46.1983 0.629591 46.89 0.470062C47.7732 0.276331 48.6759 0.185721 49.58 0.200057C50.83 0.200057 51.47 0.200061 52.08 0.290061C52.69 0.380061 53.23 0.370056 54.38 0.370056C55.53 0.370056 56.07 0.370059 56.66 0.280059C57.4974 0.197898 58.3386 0.161177 59.18 0.170059C60.1009 0.152525 61.0198 0.263598 61.91 0.50006C62.5853 0.677475 63.2818 0.76159 63.98 0.75006C64.7228 0.760071 65.4653 0.709906 66.2 0.600059C67.055 0.484303 67.9172 0.430833 68.78 0.440063C69.6537 0.431253 70.5267 0.494799 71.39 0.630058C72.1098 0.754018 72.8396 0.810927 73.57 0.800056C74.2743 0.814313 74.9773 0.733589 75.66 0.560058C76.5456 0.337391 77.4569 0.233151 78.37 0.25006C79.3325 0.231743 80.2906 0.384094 81.2 0.700057C81.8402 0.933098 82.519 1.04171 83.2 1.02006C83.9097 1.03347 84.6183 0.959585 85.31 0.800056C86.1899 0.606739 87.0892 0.516137 87.99 0.530059C88.8347 0.520973 89.6793 0.557694 90.52 0.64006C91.2742 0.715936 92.0319 0.752653 92.79 0.75006C93.95 0.75006 94.51 0.750059 95.1 0.670059C95.69 0.590059 96.35 0.600059 97.59 0.600059C98.3447 0.602719 99.0991 0.566002 99.85 0.490058C100.693 0.392881 101.541 0.349462 102.39 0.360061C103.64 0.360061 104.28 0.36006 104.89 0.46006C105.5 0.56006 106.04 0.540061 107.18 0.540061H111.98C112.835 0.532121 113.691 0.578882 114.54 0.680061C115.283 0.766157 116.032 0.806229 116.78 0.800056H121.58C122.45 0.789958 123.32 0.850154 124.18 0.980056C124.908 1.0901 125.644 1.14027 126.38 1.13006C127.06 1.1525 127.739 1.04736 128.38 0.82006C129.286 0.503822 130.241 0.351438 131.2 0.370056C132.42 0.370056 133.03 0.370056 133.64 0.370056C134.25 0.370056 134.82 0.370056 136.01 0.370056C136.873 0.36288 137.735 0.419708 138.59 0.540061C139.325 0.649908 140.067 0.700074 140.81 0.690063C141.684 0.680792 142.557 0.74434 143.42 0.880058C144.143 1.00441 144.876 1.06132 145.61 1.05006C146.314 1.06431 147.017 0.983589 147.7 0.810058C148.587 0.597026 149.498 0.496242 150.41 0.510063H160C161.24 0.510063 161.86 0.51006 162.47 0.57006C163.08 0.63006 163.64 0.57006 164.8 0.57006C165.96 0.57006 166.62 0.57006 167.22 0.57006C167.82 0.57006 168.41 0.57006 169.6 0.57006C170.79 0.57006 171.48 0.570062 172.09 0.650062C172.7 0.730062 173.25 0.730056 174.4 0.730056C175.13 0.740927 175.86 0.684019 176.58 0.560058C177.445 0.41418 178.322 0.347241 179.2 0.360061C180.085 0.348381 180.97 0.425428 181.84 0.590057C182.552 0.722337 183.276 0.782641 184 0.770057C184.845 0.765001 185.69 0.808411 186.53 0.900062C187.284 0.975938 188.042 1.01265 188.8 1.01006C189.498 1.02235 190.195 0.938225 190.87 0.760063C191.762 0.537715 192.68 0.433486 193.6 0.450057C194.501 0.4355 195.4 0.526117 196.28 0.720062C196.975 0.880007 197.687 0.953896 198.4 0.940063H203.2C203.854 0.960635 204.505 0.841304 205.11 0.590057C206.03 0.214858 207.017 0.0311168 208.01 0.0500559C209.008 0.0317511 210 0.222508 210.92 0.610061C211.513 0.877078 212.16 1.00369 212.81 0.980056C213.568 0.984755 214.325 0.951381 215.08 0.880058C215.92 0.793045 216.765 0.752987 217.61 0.760063C218.355 0.763885 219.1 0.72046 219.84 0.630058C220.692 0.518783 221.551 0.468653 222.41 0.480056C223.299 0.464776 224.188 0.545244 225.06 0.720062C225.768 0.861291 226.488 0.928318 227.21 0.920059C228.43 0.920059 229.05 0.920059 229.66 0.920059C230.27 0.920059 230.83 0.920059 232 0.920059C232.701 0.932251 233.401 0.848133 234.08 0.670059C234.969 0.443723 235.883 0.336121 236.8 0.350059C238.04 0.350059 238.65 0.350059 239.27 0.350059C239.89 0.350059 240.44 0.410057 241.6 0.410057C242.76 0.410057 243.36 0.410057 243.95 0.410057C244.54 0.410057 245.18 0.410057 246.4 0.410057C247.62 0.410057 248.26 0.410062 248.88 0.470062C249.5 0.530062 250.04 0.530059 251.21 0.530059C251.914 0.544317 252.617 0.463592 253.3 0.290061C254.188 0.0823388 255.098 -0.0150641 256.01 6.04739e-05C256.986 -0.0193327 257.956 0.14695 258.87 0.490058C259.488 0.730896 260.147 0.846475 260.81 0.830062C261.526 0.841561 262.24 0.771096 262.94 0.620056C263.818 0.436933 264.713 0.34976 265.61 0.360061C266.476 0.352976 267.342 0.409795 268.2 0.530059C268.935 0.639906 269.677 0.690072 270.42 0.680061C271.59 0.680061 272.17 0.680061 272.76 0.680061C273.35 0.680061 273.99 0.680061 275.22 0.680061C275.95 0.690932 276.68 0.634023 277.4 0.510063C278.266 0.369309 279.143 0.302397 280.02 0.310058C280.953 0.294193 281.883 0.415489 282.78 0.670059C283.429 0.862524 284.103 0.953603 284.78 0.940063C285.95 0.940063 286.53 0.94006 287.12 0.89006C287.71 0.84006 288.35 0.89006 289.58 0.89006C290.276 0.903804 290.97 0.816217 291.64 0.630058C292.533 0.388514 293.455 0.274058 294.38 0.290061C295.62 0.290061 296.25 0.290056 296.87 0.370056C297.49 0.450056 298.02 0.440063 299.18 0.440063C300.035 0.432122 300.891 0.478883 301.74 0.580062C302.483 0.6755 303.231 0.718937 303.98 0.71006C305.2 0.71006 305.81 0.71006 306.42 0.71006C307.03 0.71006 307.61 0.71006 308.79 0.71006C309.97 0.71006 310.55 0.71006 311.13 0.71006C311.71 0.71006 312.36 0.71006 313.59 0.71006C314.82 0.71006 315.31 0.71006 315.91 0.64006C316.51 0.57006 317.15 0.57006 318.39 0.57006C319.287 0.558478 320.182 0.645672 321.06 0.830062C321.76 0.9805 322.474 1.05095 323.19 1.04006C324.34 1.04006 324.89 1.04006 325.48 0.950057C326.07 0.860057 326.74 0.850059 327.99 0.850059C329.24 0.850059 329.88 0.850063 330.5 0.940063C331.12 1.03006 331.64 1.02006 332.79 1.02006C333.94 1.02006 334.56 1.02006 335.15 1.02006C335.74 1.02006 336.37 1.02006 337.6 1.02006C338.83 1.02006 339.5 1.02006 340.12 1.12006C340.878 1.1916 341.639 1.22498 342.4 1.22006C343.055 1.23686 343.706 1.11414 344.31 0.860061C345.228 0.490152 346.211 0.309866 347.2 0.330062C348.104 0.316353 349.007 0.406948 349.89 0.600059C350.586 0.750599 351.298 0.821056 352.01 0.810058C352.711 0.824516 353.411 0.743781 354.09 0.57006C354.979 0.348241 355.894 0.244021 356.81 0.260063C357.684 0.24713 358.558 0.314071 359.42 0.46006C360.144 0.574309 360.877 0.627825 361.61 0.620056C362.458 0.613369 363.306 0.653433 364.15 0.740058C364.9 0.821447 365.655 0.858179 366.41 0.850059C367.146 0.857688 367.882 0.804175 368.61 0.690063C369.47 0.554206 370.34 0.490648 371.21 0.50006C372.38 0.50006 372.97 0.50006 373.55 0.50006C374.13 0.50006 374.78 0.440063 376.02 0.440063C376.979 0.420339 377.933 0.569267 378.84 0.880058C379.483 1.1025 380.16 1.20751 380.84 1.19006C381.579 1.19975 382.319 1.14959 383.05 1.04006C383.907 0.905037 384.773 0.841482 385.64 0.850059C386.507 0.839445 387.373 0.899645 388.23 1.03006C388.965 1.13477 389.707 1.18491 390.45 1.18006C391.115 1.19582 391.777 1.08379 392.4 0.850059C393.314 0.521765 394.279 0.362502 395.25 0.380058C396.113 0.371248 396.975 0.424724 397.83 0.540061C398.565 0.645535 399.307 0.692349 400.05 0.680061C400.917 0.669447 401.783 0.729647 402.64 0.860061C403.372 0.96446 404.111 1.0146 404.85 1.01006C406.02 1.01006 406.6 1.01006 407.18 0.950057C407.76 0.890057 408.42 0.89006 409.66 0.89006C410.523 0.88125 411.385 0.934718 412.24 1.05006C412.976 1.15021 413.718 1.19701 414.46 1.19006C415.194 1.20132 415.927 1.14441 416.65 1.02006C417.517 0.884429 418.393 0.820883 419.27 0.830062C420.009 0.836732 420.748 0.789944 421.48 0.690063C422.337 0.564682 423.203 0.507829 424.07 0.520057C425.24 0.520057 425.83 0.520057 426.42 0.520057C427.01 0.520057 427.64 0.520057 428.87 0.520057C429.771 0.511271 430.669 0.601822 431.55 0.790061C432.245 0.950007 432.957 1.0239 433.67 1.01006C434.89 1.01006 435.5 1.01006 436.11 1.01006C436.72 1.01006 437.29 1.01006 438.48 1.01006C439.19 1.02348 439.898 0.949591 440.59 0.790061C441.472 0.58705 442.375 0.489698 443.28 0.50006C444.181 0.486138 445.08 0.57674 445.96 0.770057C446.656 0.920598 447.368 0.991054 448.08 0.980056C448.799 0.990757 449.517 0.920313 450.22 0.770057C451.097 0.580603 451.993 0.49336 452.89 0.510063H457.69C458.602 0.494938 459.512 0.592333 460.4 0.800056C461.087 0.969216 461.793 1.04656 462.5 1.03006C463.76 1.03006 464.4 1.09006 465.02 1.14006C465.778 1.14132 466.536 1.1046 467.29 1.03006C468.48 1.03006 469.07 1.03006 469.67 1.03006C470.27 1.03006 470.88 1.03006 472.09 1.03006C472.791 1.04452 473.491 0.963782 474.17 0.790061C475.062 0.563196 475.98 0.455592 476.9 0.470062C477.763 0.462886 478.625 0.519706 479.48 0.64006C480.215 0.749907 480.957 0.800072 481.7 0.790061C482.41 0.80249 483.119 0.725209 483.81 0.560058C484.696 0.361834 485.602 0.267864 486.51 0.280059C487.75 0.280059 488.39 0.280059 489 0.350059C489.61 0.420059 490.15 0.430061 491.31 0.430061C492.47 0.430061 493.01 0.430057 493.6 0.340057C494.19 0.250057 494.86 0.240058 496.11 0.240058C497.36 0.240058 497.97 0.240056 498.58 0.300056C499.19 0.360056 499.75 0.360061 500.91 0.360061C501.863 0.345135 502.813 0.487025 503.72 0.780059C504.363 1.00208 505.04 1.10707 505.72 1.09006H510.52C511.177 1.10525 511.83 0.986158 512.44 0.740058C513.339 0.346429 514.309 0.138926 515.29 0.130058C516.5 0.130058 517.11 0.130058 517.71 0.130058H520.1C521.08 0.114046 522.053 0.283701 522.97 0.630058C523.584 0.872998 524.24 0.988677 524.9 0.970062C525.613 0.983895 526.325 0.910006 527.02 0.75006C527.9 0.556743 528.799 0.466133 529.7 0.480056C530.9 0.480056 531.49 0.480056 532.09 0.480056H534.5C535.249 0.486819 535.998 0.440033 536.74 0.340057C537.592 0.233991 538.451 0.18389 539.31 0.190063C540.158 0.185428 541.006 0.228828 541.85 0.32006C542.601 0.396296 543.355 0.433014 544.11 0.430061C544.995 0.421491 545.879 0.495142 546.75 0.650062C547.465 0.782743 548.192 0.843047 548.92 0.830062C550.08 0.830062 550.64 0.830063 551.23 0.760063C551.82 0.690063 552.48 0.690063 553.72 0.690063C554.424 0.70432 555.127 0.623588 555.81 0.450057C556.697 0.238057 557.608 0.137288 558.52 0.150062C559.78 0.150062 560.41 0.150056 561.03 0.230056C561.65 0.310056 562.18 0.32006 563.33 0.32006C564.296 0.301823 565.257 0.454156 566.17 0.770057C566.81 1.00455 567.489 1.1132 568.17 1.09006C568.911 1.11306 569.652 1.09303 570.39 1.03006C571.234 0.943129 572.082 0.903064 572.93 0.910057C574.15 0.910057 574.77 0.910057 575.38 0.910057C575.99 0.910057 576.56 0.910057 577.73 0.910057C578.9 0.910057 579.45 0.910057 580.05 0.840057C580.65 0.770057 581.29 0.760063 582.54 0.760063C583.79 0.760063 584.3 0.760063 584.88 0.760063C585.46 0.760063 586.11 0.760063 587.34 0.760063C588.188 0.75307 589.036 0.793127 589.88 0.880058C590.634 0.956222 591.392 0.992939 592.15 0.990058C592.857 1.00196 593.562 0.924693 594.25 0.760063C595.136 0.557931 596.042 0.460595 596.95 0.470062C597.802 0.465178 598.653 0.508578 599.5 0.600059C600.251 0.676295 601.005 0.713013 601.76 0.71006C602.487 0.722506 603.214 0.662206 603.93 0.530059C604.801 0.37003 605.685 0.296338 606.57 0.310058C607.75 0.310058 608.33 0.310058 608.92 0.310058C609.51 0.310058 610.15 0.310058 611.37 0.310058C612.215 0.300972 613.059 0.337693 613.9 0.420059C614.658 0.491599 615.419 0.524973 616.18 0.520057C616.929 0.528934 617.677 0.485498 618.42 0.39006C619.272 0.283994 620.131 0.233885 620.99 0.240058C621.965 0.218679 622.935 0.381533 623.85 0.720062C624.487 0.965462 625.168 1.07776 625.85 1.05006H628.23H630.65H635.46C636.61 1.05006 637.17 1.05006 637.76 0.970062C638.35 0.890062 639.01 0.880058 640.26 0.880058C641.51 0.880058 642.1 0.880058 642.72 0.880058C643.34 0.880058 643.89 0.880058 645.07 0.880058C646.25 0.880058 646.91 0.880058 647.53 0.880058C648.15 0.880058 648.7 0.930061 649.88 0.930061C650.587 0.941967 651.292 0.864687 651.98 0.700057C652.866 0.497926 653.772 0.40059 654.68 0.410057C655.92 0.410057 656.53 0.41006 657.15 0.46006C657.77 0.51006 658.32 0.520057 659.49 0.520057C660.386 0.507095 661.282 0.590913 662.16 0.770057C662.864 0.911463 663.582 0.978502 664.3 0.970062C665.043 0.980073 665.785 0.929907 666.52 0.82006C667.378 0.704795 668.244 0.65132 669.11 0.660057C669.972 0.654382 670.834 0.704489 671.69 0.810058C672.429 0.91052 673.174 0.957308 673.92 0.950057C675.16 0.950057 675.8 0.950057 676.41 1.02006C677.02 1.09006 677.57 1.08006 678.74 1.08006C679.444 1.09662 680.147 1.01927 680.83 0.850059C681.72 0.633866 682.634 0.529729 683.55 0.540061C683.927 0.540061 684.288 0.689669 684.554 0.95597C684.82 1.22227 684.97 1.58345 684.97 1.96006C684.97 2.33667 684.82 2.69785 684.554 2.96415C684.288 3.23045 683.927 3.38006 683.55 3.38006C682.843 3.36879 682.138 3.44606 681.45 3.61006C680.564 3.83273 679.653 3.93697 678.74 3.92006C677.49 3.92006 676.86 3.92006 676.25 3.85006C675.64 3.78006 675.08 3.78006 673.92 3.78006C673.058 3.78573 672.196 3.73563 671.34 3.63006C669.863 3.44338 668.367 3.44338 666.89 3.63006C666.032 3.75502 665.166 3.81186 664.3 3.80006C663.404 3.8124 662.509 3.72859 661.63 3.55006C660.926 3.40358 660.209 3.33649 659.49 3.35006C658.26 3.35006 657.64 3.35006 657.03 3.30006C656.42 3.25006 655.86 3.30006 654.68 3.30006C653.974 3.28593 653.268 3.35983 652.58 3.52006C651.695 3.72726 650.789 3.82467 649.88 3.81006C648.64 3.81006 648.03 3.81006 647.41 3.81006C646.79 3.81006 646.24 3.76006 645.07 3.76006C643.9 3.76006 643.22 3.76006 642.61 3.76006C642 3.76006 641.44 3.76006 640.26 3.76006C639.08 3.76006 638.55 3.76006 637.96 3.84006C637.37 3.92006 636.71 3.93006 635.46 3.93006H628.27C627.66 3.93006 627.06 3.93006 625.85 3.93006C624.875 3.94837 623.905 3.78561 622.99 3.45006C622.369 3.20791 621.706 3.09231 621.04 3.11006C620.291 3.1033 619.542 3.15008 618.8 3.25006C617.948 3.35613 617.089 3.40624 616.23 3.40006C615.385 3.40683 614.54 3.36676 613.7 3.28006C612.942 3.20825 612.181 3.17487 611.42 3.18006C610.25 3.18006 609.66 3.18006 609.07 3.18006C608.48 3.18006 607.84 3.18006 606.62 3.18006C605.893 3.17224 605.166 3.23251 604.45 3.36006C603.579 3.52009 602.695 3.59378 601.81 3.58006C600.962 3.58705 600.114 3.54699 599.27 3.46006C598.516 3.37844 597.758 3.34171 597 3.35006C596.294 3.33593 595.588 3.40983 594.9 3.57006C594.015 3.77787 593.108 3.87528 592.2 3.86006C591.352 3.86675 590.504 3.82668 589.66 3.74006C588.906 3.65844 588.148 3.62171 587.39 3.63006C586.22 3.63006 585.63 3.63006 585.05 3.63006C584.47 3.63006 583.82 3.63006 582.59 3.63006C581.36 3.63006 580.87 3.63006 580.27 3.70006C579.67 3.77006 579.03 3.77006 577.78 3.77006C576.53 3.77006 575.94 3.77006 575.33 3.77006C574.72 3.77006 574.15 3.77006 572.98 3.77006C572.222 3.76688 571.464 3.8036 570.71 3.88006C569.867 3.97678 569.019 4.02021 568.17 4.01006C567.204 4.02509 566.242 3.86936 565.33 3.55006C564.69 3.31458 564.011 3.20589 563.33 3.23006C562.08 3.23006 561.44 3.18006 560.83 3.14006C560.22 3.10006 559.67 3.06006 558.52 3.06006C557.816 3.0458 557.113 3.12653 556.43 3.30006C555.543 3.51309 554.632 3.61388 553.72 3.60006C552.56 3.60006 552 3.60006 551.4 3.67006C550.8 3.74006 550.16 3.75006 548.92 3.75006C548.035 3.76174 547.15 3.68469 546.28 3.52006C545.564 3.3925 544.837 3.33224 544.11 3.34006C543.262 3.34674 542.414 3.30669 541.57 3.22006C540.814 3.11113 540.053 3.04768 539.29 3.03006C538.541 3.02118 537.793 3.06462 537.05 3.16006C536.198 3.26612 535.339 3.31623 534.48 3.31006C533.29 3.31006 532.7 3.31006 532.1 3.31006H529.69C528.98 3.29664 528.272 3.37053 527.58 3.53006C526.697 3.72841 525.794 3.82239 524.89 3.81006C523.909 3.82888 522.934 3.65562 522.02 3.30006C521.401 3.08094 520.745 2.98911 520.09 3.03006H515.29C514.636 3.00949 513.985 3.12881 513.38 3.38006C512.46 3.74061 511.478 3.91728 510.49 3.90006H505.69C504.736 3.91928 503.786 3.77728 502.88 3.48006C502.237 3.25719 501.56 3.15217 500.88 3.17006C499.65 3.17006 499.03 3.17006 498.42 3.17006C497.81 3.17006 497.29 3.03006 496.08 3.03006C494.87 3.03006 494.38 3.03006 493.79 3.12006C493.2 3.21006 492.54 3.21006 491.28 3.21006C490.02 3.21006 489.4 3.21006 488.79 3.13006C488.18 3.05006 487.63 3.06006 486.48 3.06006C485.77 3.04763 485.061 3.12491 484.37 3.29006C483.484 3.48829 482.578 3.58226 481.67 3.57006C480.807 3.57724 479.945 3.52042 479.09 3.40006C478.354 3.29991 477.612 3.25312 476.87 3.26006C476.169 3.24561 475.469 3.32634 474.79 3.50006C473.898 3.72693 472.98 3.83453 472.06 3.82006H469.69H467.26C466.419 3.82894 465.577 3.79222 464.74 3.71006C464.15 3.71006 463.6 3.62006 462.46 3.62006C461.548 3.63283 460.637 3.53206 459.75 3.32006C459.062 3.15543 458.357 3.07815 457.65 3.09006H452.85C452.134 3.07856 451.42 3.14902 450.72 3.30006C448.953 3.64674 447.136 3.64674 445.37 3.30006C444.671 3.14463 443.956 3.07412 443.24 3.09006C442.534 3.07593 441.828 3.14983 441.14 3.31006C440.255 3.51726 439.348 3.61467 438.44 3.60006C437.22 3.60006 436.61 3.60006 436.01 3.60006H433.63C432.729 3.61398 431.83 3.52338 430.95 3.33006C430.254 3.17952 429.542 3.10906 428.83 3.12006C427.65 3.12006 427.07 3.12006 426.48 3.12006C425.89 3.12006 425.25 3.12006 424.03 3.12006C423.287 3.11004 422.545 3.16021 421.81 3.27006C420.955 3.38539 420.093 3.43887 419.23 3.43006C418.493 3.41944 417.757 3.47634 417.03 3.60006C416.167 3.73624 415.294 3.7998 414.42 3.79006C413.557 3.79887 412.695 3.7454 411.84 3.63006C411.104 3.5299 410.362 3.48312 409.62 3.49006C408.45 3.49006 407.87 3.49006 407.29 3.55006C406.71 3.61006 406.05 3.61006 404.81 3.61006C403.944 3.61671 403.078 3.5599 402.22 3.44006C401.489 3.33014 400.749 3.27998 400.01 3.29006C399.147 3.29887 398.285 3.2454 397.43 3.13006C396.694 3.0299 395.952 2.98312 395.21 2.99006C394.529 2.96691 393.85 3.07557 393.21 3.31006C392.3 3.63955 391.337 3.79887 390.37 3.78006C389.504 3.78755 388.638 3.73073 387.78 3.61006C387.045 3.50021 386.303 3.45005 385.56 3.46006C384.824 3.4503 384.088 3.50046 383.36 3.61006C382.5 3.73996 381.63 3.80016 380.76 3.79006C379.802 3.80777 378.849 3.66236 377.94 3.36006C377.299 3.13276 376.62 3.02761 375.94 3.05006C374.77 3.05006 374.18 3.05006 373.6 3.05006C373.02 3.05006 372.37 3.10006 371.13 3.10006C370.396 3.08931 369.663 3.14622 368.94 3.27006C368.077 3.40577 367.204 3.46933 366.33 3.46006C365.06 3.46006 364.42 3.39006 363.8 3.34006C363.046 3.25904 362.288 3.22231 361.53 3.23006C360.656 3.23783 359.783 3.17092 358.92 3.03006C358.197 2.90656 357.464 2.84966 356.73 2.86006C356.026 2.84653 355.323 2.92724 354.64 3.10006C353.755 3.32727 352.844 3.43489 351.93 3.42006C351.025 3.43239 350.123 3.33841 349.24 3.14006C348.544 2.98952 347.832 2.91906 347.12 2.93006C346.468 2.9119 345.82 3.0347 345.22 3.29006C344.3 3.66419 343.313 3.84789 342.32 3.83006" fill="black"/>
</svg>
