<svg xmlns="http://www.w3.org/2000/svg" xmlns:xlink="http://www.w3.org/1999/xlink" viewBox="0 0 340 400"><defs><style>.cls-1{fill:none;}.cls-2{fill:#f56977;}.cls-3{fill:#231815;}.cls-4{fill:gray;}.cls-5{fill:#fff;}.cls-6{fill:#f8c341;}.cls-7{fill:#27b5f7;}.cls-8{clip-path:url(#clip-path);}.cls-9{clip-path:url(#clip-path-2);}.cls-10{fill:#f0f0f0;}.cls-11{fill:#e1e1e1;}.cls-12{fill:#fae7e7;}</style><clipPath id="clip-path"><path class="cls-1" d="M97.09,74.46A25.93,25.93,0,1,1,79.46,42.31,26,26,0,0,1,97.09,74.46Z"/></clipPath><clipPath id="clip-path-2"><path class="cls-1" d="M150.44,56.53c0-49.06,152.35-23.65,152.35-23.65V313.17H150.44Z"/></clipPath></defs><g id="圖"><rect class="cls-2" width="340" height="400" rx="31.55"/><path class="cls-3" d="M63.69,359.21a23.29,23.29,0,0,0,4.08.31c1.15,0,5,0,6.46,0a10.15,10.15,0,0,0-1.07,2.93H67.6c-5.08,0-9.09-.89-11.77-4.72a12.41,12.41,0,0,1-3.49,5.06,11.42,11.42,0,0,0-2.27-1.94c2.86-2.27,4.06-6.56,4.41-10.13l3.14.35c-.18,1.1-.41,2.25-.71,3.37a8,8,0,0,0,3.67,3.83v-8.6H50.94v-2.83h9.64v-2.47h-7.4v-2.79h7.4V339h3.11v2.6h7.86v2.79H63.69v2.47h9.85v2.83H63.69v3.09h8.14v2.7H63.69Z"/><path class="cls-3" d="M84.28,350.84a32,32,0,0,1-2,6.63c.4.26.89.62,1.58,1,1.73,1,4.13,1.19,7.11,1.19a85.16,85.16,0,0,0,10.31-.66,12.19,12.19,0,0,0-.87,3.11c-2.11.13-6.6.31-9.59.31-3.39,0-5.54-.28-7.37-1.35-1.07-.59-2-1.43-2.5-1.43s-1.48,1.73-2.12,3.19l-2-2.89a10.45,10.45,0,0,1,2.67-2.42,26.88,26.88,0,0,0,1.46-4.44H77.72c.59-1.5,1.28-3.54,1.84-5.53h-2.3v-2.71h6c-.53,1.79-1.14,3.83-1.73,5.61h1l.46-.1ZM80,344.13c-.28-1.15-1-3-1.38-4.39l2.68-.81c.48,1.37,1.12,3.08,1.48,4.23Zm5.84,4c-.43.51-.87.95-1.3,1.38a20,20,0,0,0-1.63-2.78A19.1,19.1,0,0,0,87.77,339l2.76.76A31.49,31.49,0,0,1,89.15,343H93a24.25,24.25,0,0,0-1.19-2.75l2.85-.82A19.81,19.81,0,0,1,96.25,343h4v2.56H95.12V347h4.11v2.45H95.12V351h4v2.45h-4v1.61h5.44v2.55H88.74v1.07H85.81Zm6.43-2.57h-3.5V347h3.5Zm0,3.9h-3.5V351h3.5Zm0,4h-3.5v1.61h3.5Z"/><path class="cls-3" d="M122.6,354.52a16.26,16.26,0,0,0,5.26,2.19A10.06,10.06,0,0,0,126.1,359a13.76,13.76,0,0,1-2.63-1.09v1.94c0,1.17-.21,1.76-1,2.14a8.16,8.16,0,0,1-3.22.36,9.77,9.77,0,0,0-.76-2.25c.71,0,1.48,0,1.71,0s.35-.05.35-.33v-1.43h-3.39v4.41h-2.93v-4.41h-2.94v4h-2.91v-4.6a22.05,22.05,0,0,1-3,1.38,7.45,7.45,0,0,0-1.71-2.24,16.63,16.63,0,0,0,4.78-2.32h-4.14v-2.38h6.61a7.05,7.05,0,0,0,.59-.94h-4.6v-7.35h17.71v7.35h-9.87c-.16.33-.33.64-.51.94h13v2.38ZM110.12,342.7h-5.61v-2.37h5.61V339h2.94v1.38h2.45v2.37h-2.45v.79h-2.94Zm-.28,4h11.74v-1.09H109.84Zm0,2.78h11.74v-1.14H109.84ZM120.76,356a12.3,12.3,0,0,1-1.48-1.5H112.5a15.43,15.43,0,0,1-1.61,1.5h3.32v-1.25h2.93V356Zm-2.34-13.32h-2.17v-2.37h2.17V339h3v1.38h5.74v2.37H121.4v.79h-3Z"/><path class="cls-3" d="M138.65,345.36a28.49,28.49,0,0,1-2,3.36v14.11h-2.86V352.24c-.53.57-1.09,1.08-1.6,1.54a19.19,19.19,0,0,0-1.61-2.84,21.11,21.11,0,0,0,5.41-6.53Zm-.46-5.39a27.58,27.58,0,0,1-5.82,6.25,19,19,0,0,0-1.61-2.19,20.64,20.64,0,0,0,4.75-5.08Zm14.21,12.89a14.38,14.38,0,0,1-4.26,5.74,27.14,27.14,0,0,0,6,1.63,10.8,10.8,0,0,0-1.81,2.63,23.56,23.56,0,0,1-6.94-2.43,26.93,26.93,0,0,1-7,2.48,9.57,9.57,0,0,0-1.43-2.58,24.51,24.51,0,0,0,5.82-1.66,16.16,16.16,0,0,1-1.69-1.5c-.56.48-1.09.94-1.65,1.33a22.35,22.35,0,0,0-2-2.2,21.43,21.43,0,0,0,1.83-1.35,15.59,15.59,0,0,1-1.35-2.25l2.48-.81a9.57,9.57,0,0,0,.68,1.22,16.41,16.41,0,0,0,1.77-2.45,17.27,17.27,0,0,0-4,.56,19.24,19.24,0,0,0-.89-2.75,8.14,8.14,0,0,0,2.88-1.25,23,23,0,0,0,2.33-1.35c-2.66.12-3.3.25-3.75.43-.18-.64-.64-2.07-1-2.86a4.82,4.82,0,0,0,1.7-.89,19.78,19.78,0,0,0,4.11-3.57l3,1.32a32.29,32.29,0,0,1-4.08,3.27l3.29-.05c1-.77,1.91-1.56,2.75-2.37l2.84,1.53a48.92,48.92,0,0,1-8,5.46l5.33-.28c-.36-.51-.71-1-1.05-1.46l2.33-1.2a57.6,57.6,0,0,1,3.85,5.54l-2.5,1.43a21.9,21.9,0,0,0-1.17-2.07l-4.7.31c-.28.58-.59,1.15-.89,1.71H150l.49-.13Zm-8.91,1.66c-.2.25-.4.51-.61.73a15.41,15.41,0,0,0,2.55,2,11,11,0,0,0,2.89-2.7Z"/><path class="cls-3" d="M166.94,349.11c-.18.35-.38.68-.59,1h11.94v12.68h-3.06v-.92H166v.92h-2.9v-8.39a19.59,19.59,0,0,1-3.93,3.06,18,18,0,0,0-1.92-2.45,17,17,0,0,0,6.23-5.94H158v-2.4h6.71c.18-.36.34-.74.49-1.1h-5.41v-2.29h6.23c.1-.36.2-.72.28-1.1-2.12.07-4.24.1-6.23.07a7.56,7.56,0,0,0-.56-2.27,128.16,128.16,0,0,0,17.88-1l1.79,2.17a86.13,86.13,0,0,1-9.54.92c-.1.41-.23.82-.36,1.23h10v2.29H168.49c-.12.36-.28.74-.43,1.1h12.63v2.4Zm8.29,3.34H166v1.1h9.24Zm0,3H166v1.13h9.24Zm0,4.19v-1.18H166v1.18Z"/><path class="cls-3" d="M188.7,355.59a24.28,24.28,0,0,1-2.58,5.23,18.41,18.41,0,0,0-2-1.38,18.36,18.36,0,0,0,2.25-4.52Zm3.57-1.48v8.47h-2.93v-8.47h-4.75v-2.55h4.75v-2h-4.9v-2.5h2.47a15.24,15.24,0,0,0-.73-2.65l2.09-.51h-3.45v-2.48h4.36c-.22-.69-.5-1.4-.76-2l3-.74c.38.84.84,1.88,1.14,2.75h3.65v2.48h-3.19l2.07.41c-.38,1-.77,2-1.15,2.75h2.66v2.5h-4.37v2h4v2.55Zm-3.67-10.18a12.94,12.94,0,0,1,.84,2.65l-1.84.51h3.68a28.8,28.8,0,0,0,1.09-3.16Zm19.41,6.2h-2.37v12.52h-3V350.13h-2.37v.3c0,3.75-.33,9-2.5,12.28a11.31,11.31,0,0,0-2.35-1.82,9.8,9.8,0,0,0,1.15-2.47l-1.81,1.12a32.23,32.23,0,0,0-2-3.83l2-1.07a25.19,25.19,0,0,1,1.91,3.34,27.31,27.31,0,0,0,.79-7.55v-9.08a36,36,0,0,0,7.73-2.17l2.32,2.22a39.64,39.64,0,0,1-7.24,1.92v4H208Z"/><path class="cls-3" d="M215.21,348.16v14.55h-3v-23h9.82v8.47Zm0-6.45V343h4v-1.25Zm4,4.46V344.9h-4v1.27Zm8.37,13.12V362h-2.73v-2.73h-8.72v-2.07h2.06V351.1h-1.48V349h12.38v2.07h-1.51v6.12h1.84v2.07Zm-6.73-8.19V352h4v-.89Zm0,3.49h4v-.92h-4Zm4,2.63v-.94h-4v.94Zm8.91,2.42c0,1.38-.26,2-1.08,2.53a7.92,7.92,0,0,1-3.54.51,9.38,9.38,0,0,0-.84-2.63c.84,0,1.76,0,2.06,0s.41-.13.41-.43V348.16h-7v-8.47h10Zm-7.12-17.93V343h4.13v-1.25Zm4.13,4.46V344.9h-4.13v1.27Z"/><path class="cls-3" d="M261.38,357.93V361H238.19v-3.07h9.72V344.74h-8.34v-3.16H260v3.16h-8.58v13.19Z"/><path class="cls-3" d="M273.14,340a38.89,38.89,0,0,1-2.45,5.3v17.48h-3.06V350c-.53.64-1.07,1.28-1.58,1.84a21.35,21.35,0,0,0-1.68-3.24,26.52,26.52,0,0,0,5.81-9.54Zm8.09,6v2.68h6.61v2.75h-6.61v2.89h6.94v2.8h-6.94v5.67h-3.11V346h-1a28.24,28.24,0,0,1-3.34,4.95,22.56,22.56,0,0,0-2.32-2.12,25.3,25.3,0,0,0,5.4-9.62l2.94.74a32.55,32.55,0,0,1-1.25,3.17h9.9V346Z"/><path class="cls-3" d="M49.46,365v-1.27H290.54V365Z"/><polygon class="cls-4" points="128.19 193.09 128.26 193.06 126.42 191.15 124.16 190.14 121.62 190.03 118.66 190.99 115.81 192.28 112.85 193.21 109.93 194.3 107 195.35 104.08 196.43 101.13 197.44 98.19 198.46 95.14 199.18 92.22 200.25 89.36 201.51 86.31 202.23 83.42 203.41 80.36 204.11 77.53 205.45 74.5 206.22 71.52 207.17 68.74 208.67 66.53 209.91 65.64 212.28 65.76 214.75 65.33 214.9 66.32 217.71 66.27 220.74 64.97 223.46 63.41 225.97 61.13 227.83 58.53 229.2 55.47 230.6 52.28 231.66 49.07 232.64 47.07 234.18 45.66 236.35 45.87 238.99 46.75 241.94 48.25 244.67 48.83 247.73 50.03 250.57 51.12 253.45 52.08 256.37 52.95 259.32 54.24 262.12 55.21 265.05 56.03 268.02 57.31 270.83 57.97 273.86 59.26 276.67 60.07 279.65 60.96 282.6 61.89 285.53 63.15 288.35 64.22 291.24 65.36 294.11 66.15 297.09 67.33 299.95 68.23 302.9 69.11 305.86 70.6 308.01 72.99 308.93 75.5 308.8 78.47 307.86 81.41 306.85 84.3 305.69 87.24 304.68 90.31 304.05 93.23 302.96 96.18 301.97 99.13 300.99 101.97 299.69 104.88 298.57 107.9 297.78 110.9 296.95 113.76 295.69 116.62 294.44 119.64 293.66 122.67 292.88 125.47 291.46 128.5 290.7 131.48 289.81 134.33 288.54 137.25 287.46 140.18 286.4 143.07 285.25 146.04 284.31 149.01 283.37 151.87 282.12 154.9 281.35 157.88 280.43 160.76 279.25 163.64 278.04 166.7 277.36 169.69 276.45 172.65 275.5 175.6 274.48 178.42 273.07 180.76 271.88 181.65 269.41 181.48 266.87 180.79 263.85 179.49 261.04 178.68 258.07 177.29 255.29 176.77 252.22 175.38 249.44 174.48 246.51 173.21 243.69 172.44 240.7 171.65 237.72 170.28 234.94 169.32 232.02 168.44 229.06 167.36 226.18 166.63 223.18 165.29 220.38 164.68 217.33 163.51 214.48 162.32 211.63 161.53 208.65 160.28 205.82 159.2 202.93 158.19 200.01 156.95 197.75 154.55 196.75 151.91 196.69 148.74 197.77 145.57 198.86 142.52 200.32 139.58 200.99 136.62 200.47 133.66 199.91 131.23 198.11 129.41 195.75 128.19 193.09"/><polygon points="140.24 244.18 140.81 247.25 141.46 250.29 141.49 253.39 141.51 256.5 141.29 259.64 140.03 262.54 138.99 265.48 137.19 268.04 135.77 270.85 133.45 272.97 131.13 275.03 128.56 276.78 125.84 278.27 123.11 279.84 120.07 280.65 116.97 281.18 113.83 281.2 110.7 281.06 107.6 280.62 104.57 279.77 101.82 278.25 99.17 276.63 96.4 275.15 94.33 272.8 92.32 270.44 90.16 268.16 88.58 265.44 87.67 262.42 86.88 259.41 86.07 256.38 85.99 253.25 86.11 250.11 86.61 247.01 87.43 243.98 88.65 241.07 90.19 238.33 92.26 235.96 94.3 233.61 96.47 231.34 99.21 229.8 101.87 228.15 104.87 227.29 107.77 226.11 110.88 225.86 113.98 225.77 117.12 225.45 120.17 226.2 123.25 226.84 126.12 228.11 128.62 230.03 131.4 231.5 133.82 233.51 135.62 236.09 137.47 238.59 138.86 241.38 140.24 244.18"/><polygon class="cls-5" points="134.11 246.31 135.03 249.23 135.4 252.28 135.16 255.33 134.69 258.34 133.76 261.25 132.38 263.97 130.92 266.68 128.95 269.07 126.41 270.85 123.83 272.53 120.87 273.4 118.02 274.58 114.93 274.55 111.89 274.6 108.81 274.39 105.89 273.39 103.12 272.03 100.52 270.37 98.47 268.05 96.36 265.83 95.03 263.07 93.7 260.33 93.04 257.36 92.47 254.35 92.22 251.26 93.12 248.29 93.89 245.32 95.52 242.72 96.84 239.92 99.13 237.85 101.48 235.9 104.11 234.36 106.91 233.16 109.77 231.96 112.86 231.65 115.95 231.71 118.97 232.37 121.92 233.26 124.73 234.53 127.32 236.23 129.37 238.55 131.21 240.97 133.15 243.38 134.11 246.31"/><polygon class="cls-2" points="60.01 238.72 61.07 241.01 60.23 243.47 57.81 244.66 55.52 243.38 54.42 241.13 55.35 238.77 57.68 237.92 60.01 238.72"/><polygon class="cls-6" points="63.45 248.12 64.11 250.55 63.38 252.86 61.11 253.89 58.79 252.96 57.72 250.67 58.56 248.21 60.98 247.02 63.45 248.12"/><polygon class="cls-7" points="66.49 257.94 67.7 260.09 66.94 262.64 64.42 263.43 61.96 262.63 61.3 260.2 62.03 257.9 64.3 256.87 66.49 257.94"/><path d="M78.29,223.9a1.41,1.41,0,0,1-.62-2.69l3-1.46,3.09-1,2.93-.7,3-1.35,2.94-.65,2.73-1.24,3.26-1.25,3-.53,5.85-2.57,3-.71,3-1.23,3-.63,2.79-1.15,3-1.09a1.42,1.42,0,0,1,1,2.67l-3,1.06-3.1,1.26-3,.63-3,1.21-2.94.71-6,2.59-3,.55-2.8,1.09-3.08,1.37-2.94.65-3,1.33-3,.72-2.84.92-2.75,1.34A1.37,1.37,0,0,1,78.29,223.9Z"/><path d="M159.85,270.23a1.42,1.42,0,0,1-1.3-.85l-2.65-6.1-.55-3-1.09-2.8-1.37-3.09-.65-2.94-1.34-3-.72-3-.92-2.84-1.43-3-1.73-6L145,230.78l-1-3-1.36-2.94-1-3.14-.62-3-1.12-2.8-1.29-2.79a1.42,1.42,0,1,1,2.57-1.2l1.33,2.87,1.26,3.22.63,3,.93,2.82,1.35,2.93,1,3,1.16,3,1.71,5.91,1.4,2.92,1,3.1.71,2.93,1.35,3,.64,2.94,1.25,2.74,1.25,3.26.53,3,2.5,5.63a1.42,1.42,0,0,1-.74,1.87A1.38,1.38,0,0,1,159.85,270.23Z"/><path class="cls-4" d="M96.89,74.41a27.58,27.58,0,0,1-.68,3.08,27.46,27.46,0,0,1-1.41,2.82,27.58,27.58,0,0,1-1.86,2.54,25.92,25.92,0,0,1-2,2.41,27.44,27.44,0,0,1-2.51,1.89A28.27,28.27,0,0,1,85.93,89a26.47,26.47,0,0,1-2.6,1.77A26.65,26.65,0,0,1,80.42,92a26.49,26.49,0,0,1-3.13.42,26.21,26.21,0,0,1-3.06.58,23.29,23.29,0,0,1-3.12-.07A25.07,25.07,0,0,1,68,92.62,25.43,25.43,0,0,1,65,92a25.36,25.36,0,0,1-2.9-1.15,25.12,25.12,0,0,1-2.94-1.11,26.21,26.21,0,0,1-5-3.82,27.3,27.3,0,0,1-2.19-2.25,28.56,28.56,0,0,1-1.79-2.6,27.28,27.28,0,0,1-1.21-2.9,26.4,26.4,0,0,1-1.45-2.79,26.28,26.28,0,0,1-1-3,25.24,25.24,0,0,1-.26-3.14,23.49,23.49,0,0,1,0-3.14A25.55,25.55,0,0,1,46.6,63a27.73,27.73,0,0,1,.94-3,28.46,28.46,0,0,1,.83-3,28.07,28.07,0,0,1,1.16-2.94,27.64,27.64,0,0,1,1.91-2.51A25,25,0,0,1,53.33,49a26.54,26.54,0,0,1,2.57-1.84,26.47,26.47,0,0,1,2.58-1.74A28.84,28.84,0,0,1,61,43.55a27.55,27.55,0,0,1,3-1,26.27,26.27,0,0,1,3-1,27.14,27.14,0,0,1,3.13-.47,27.8,27.8,0,0,1,3.16,0,24.39,24.39,0,0,1,3.09.6,23.39,23.39,0,0,1,3,.66,23.69,23.69,0,0,1,2.9,1.16,24.47,24.47,0,0,1,2.86,1.25,25.61,25.61,0,0,1,2.55,1.82,28,28,0,0,1,2.64,1.74c.76.73,1,1.89,1.69,2.7a26.85,26.85,0,0,1,2,2.36,29.16,29.16,0,0,1,1.43,2.78A25.2,25.2,0,0,1,96.86,59a26.89,26.89,0,0,1,1,3,27.3,27.3,0,0,1,.27,3.15A25.44,25.44,0,0,1,98,68.29a27.73,27.73,0,0,1,.08,3.16A27.85,27.85,0,0,1,96.89,74.41Z"/><g class="cls-8"><path class="cls-5" d="M73.3,96.57l-.15,0L37,91.36a1.07,1.07,0,0,1,.3-2.11l36.2,5.2a1.07,1.07,0,0,1-.15,2.12Z"/><path class="cls-5" d="M74.69,86.88l-.15,0-36.2-5.19a1.06,1.06,0,0,1-.9-1.2,1,1,0,0,1,1.2-.9l36.2,5.19a1.07,1.07,0,0,1-.15,2.12Z"/><path class="cls-5" d="M76.08,77.19h-.15L39.73,72a1.06,1.06,0,1,1,.3-2.1l36.2,5.19a1.07,1.07,0,0,1-.15,2.12Z"/><path class="cls-5" d="M77.47,67.5h-.15l-36.2-5.2a1.06,1.06,0,1,1,.31-2.1l36.19,5.19a1.07,1.07,0,0,1-.15,2.12Z"/><path class="cls-5" d="M40.16,95.45l-.16,0a1.06,1.06,0,0,1-.9-1.2L44.3,58a1.06,1.06,0,1,1,2.1.3L41.21,94.53A1.07,1.07,0,0,1,40.16,95.45Z"/><path class="cls-5" d="M49.85,96.84h-.16a1.08,1.08,0,0,1-.9-1.21L54,59.43a1,1,0,0,1,1.2-.9,1.06,1.06,0,0,1,.9,1.2L50.9,95.92A1.07,1.07,0,0,1,49.85,96.84Z"/><path class="cls-5" d="M59.53,98.23h-.15a1.08,1.08,0,0,1-.9-1.21l5.2-36.19a1,1,0,0,1,1.2-.9,1.06,1.06,0,0,1,.9,1.2l-5.2,36.2A1.06,1.06,0,0,1,59.53,98.23Z"/><path class="cls-5" d="M69.22,99.62h-.15a1.08,1.08,0,0,1-.9-1.21l5.19-36.19a1.07,1.07,0,0,1,2.11.3l-5.2,36.2A1.06,1.06,0,0,1,69.22,99.62Z"/></g><path d="M167.87,180.37c-1.16.88-1.32.66-2.48,1.53s-1.22.81-2.39,1.68l-2.33,1.74c-1.16.87-1.19.83-2.36,1.7L156,188.77c-1.17.87-.95,1.16-2.12,2a6,6,0,0,1-3,.72,5.57,5.57,0,0,1-2.89-.32,5.7,5.7,0,0,1-2.51-1.6c-1-1.24-.82-1.38-1.81-2.61s-1.08-1.16-2.07-2.39-1.17-1.09-2.16-2.33-.77-1.4-1.76-2.64-1-1.19-2-2.42-1.18-1.09-2.17-2.32-1-1.21-2-2.44-.9-1.31-1.89-2.55-1.16-1.09-2.15-2.32-.83-1.36-1.82-2.59-.78-1.4-1.76-2.63-1.06-1.18-2.05-2.42-.87-1.32-1.86-2.56-1.42-.89-2.41-2.12-.77-1.41-1.76-2.64S115,151.25,114,150s-1.29-1-2.28-2.22-.88-1.33-1.87-2.56-1.21-1.06-2.2-2.29-.73-1.45-1.72-2.68-1.19-1.08-2.18-2.31-.72-1.46-1.71-2.7-1.29-1-2.28-2.23-.82-1.37-1.81-2.6-1.15-1.11-2.14-2.34-1-1.27-1.94-2.51-1.11-1.14-2.1-2.38-.78-1.4-1.78-2.64S89,119.27,88,118s-2.1-.86-1.88-2.43,1.26-.86,2.57-1.84,1.12-1.21,2.43-2.19,1.28-1,2.59-2,1.35-.91,2.66-1.89,1.24-1.06,2.54-2,1.36-.91,2.66-1.89,1.39-.86,2.7-1.84,1.13-1.2,2.44-2.18,1.5-.72,2.8-1.7,1.19-1.14,2.5-2.12,1.07-2.11,2.68-1.88.7,1.45,1.61,2.75,1.14,1.13,2,2.43,1,1.21,1.92,2.51.94,1.27,1.85,2.57.7,1.44,1.61,2.73.86,1.33,1.77,2.63.76,1.4,1.66,2.7,1.14,1.13,2,2.43.71,1.43,1.62,2.73,1.13,1.13,2,2.43.79,1.37,1.7,2.67,1.06,1.18,2,2.48.67,1.46,1.58,2.76.79,1.37,1.69,2.67.93,1.28,1.84,2.57,1.05,1.2,2,2.5l1.81,2.59c.9,1.3.95,1.26,1.86,2.56l1.82,2.59c.9,1.3.92,1.29,1.83,2.59s1.06,1.19,2,2.48.73,1.43,1.63,2.73.76,1.4,1.67,2.7,1.17,1.11,2.07,2.41.69,1.45,1.6,2.75,1.07,1.18,2,2.48.76,1.4,1.66,2.7.81,1.38,1.71,2.68,1.28,1,2.19,2.34.5,1.59,1.4,2.9a5.14,5.14,0,0,1,.75,5.66A6,6,0,0,1,167.87,180.37Z"/><path class="cls-6" d="M139.68,99.32c-1.26.94-1.41.75-2.67,1.69s-1.25,1-2.51,1.91-1.23,1-2.49,1.94-1.18,1-2.45,2-1.5.63-2.76,1.57-1.12,1.15-2.38,2.09-1.37.81-2.63,1.75-1,1.26-2.3,2.21-1.51.62-2.77,1.56-1,1.26-2.3,2.21-1.51.61-2.78,1.56-.94,1.37-2.21,2.32-1.54.58-2.8,1.53-1.06,1.23-2.32,2.18-1.39.78-2.66,1.73l-2.53,1.89c-1.26.94-1.13,1.12-2.4,2.07s-1.34.84-2.6,1.79-1.28.93-2.55,1.88-1.24,1-2.5,1.94-1.35.85-2.61,1.8l-2.53,1.91a3.75,3.75,0,0,1-2.92.57,3.69,3.69,0,0,1-2.59-1.4c-.93-1.24-.83-1.31-1.76-2.55s-1.15-1.07-2.08-2.31-.88-1.27-1.81-2.51-1-1.22-1.89-2.46-1-1.17-1.95-2.41-1-1.2-1.91-2.44-.77-1.35-1.69-2.59-.69-1.42-1.61-2.66-1.22-1-2.15-2.27-.71-1.4-1.64-2.64-1.22-1-2.14-2.27-.9-1.27-1.83-2.52-.6-1.49-1.53-2.73c-.66-.88-1.41-1.82-1.26-2.83s1.1-1.74,2-2.4c1.26-.94,1.22-1,2.48-2s1.26-1,2.52-1.89,1.3-.9,2.56-1.84,1.29-.92,2.56-1.86,1-1.26,2.29-2.21,1.35-.83,2.61-1.77,1.16-1.09,2.42-2,1.39-.78,2.66-1.73,1.11-1.14,2.37-2.09,1.46-.69,2.73-1.63l2.53-1.9c1.26-1,1.09-1.17,2.36-2.12s1.37-.8,2.63-1.75,1.07-1.21,2.34-2.16l2.53-1.89c1.27-.95,1.29-.91,2.56-1.85l2.53-1.89c1.27-1,1.34-.85,2.61-1.8s1.17-1.07,2.44-2,1.58-.53,2.85-1.48,1.26-1,2.52-1.91,1.22-1,2.49-2a4.07,4.07,0,0,1,5.39.77c.93,1.24,1.17,1.06,2.1,2.29s.58,1.5,1.51,2.74,1.19,1,2.12,2.28.65,1.45,1.57,2.69,1.23,1,2.16,2.26,1,1.19,1.92,2.43,1,1.18,1.93,2.42.49,1.56,1.42,2.8.95,1.23,1.88,2.47,1.34.93,2.27,2.17.66,1.44,1.59,2.68,1,1.17,2,2.41.72,1.4,1.65,2.64a3.77,3.77,0,0,1,.9,2.83A4.1,4.1,0,0,1,139.68,99.32Z"/><g class="cls-9"><path class="cls-4" d="M303.39,235c0-.79,0-.79,0-1.57s-.61-.78-.61-1.56,0-.78,0-1.56.38-.79.38-1.57-.12-.78-.12-1.56-.22-.78-.22-1.57.55-.78.55-1.56-.6-.78-.6-1.56,0-.78,0-1.56.23-.78.23-1.56-.16-.78-.16-1.57.33-.78.33-1.56,0-.78,0-1.56.11-.77.11-1.55-.55-.78-.55-1.56.46-.78.46-1.56-.13-.78-.13-1.56,0-.78,0-1.56-.09-.78-.09-1.56-.09-.78-.09-1.56-.25-.78-.25-1.56.43-.78.43-1.56.13-.78.13-1.56-.4-.78-.4-1.55.36-.79.36-1.57-.39-.78-.39-1.56V192.8c0-.78.06-.78.06-1.56s0-.78,0-1.56,0-.78,0-1.57.38-.78.38-1.56-.13-.78-.13-1.57.1-.78.1-1.56v-1.56c0-.79,0-.79,0-1.57s-.13-.78-.13-1.56v-1.56c0-.78.16-.78.16-1.56s-.12-.79-.12-1.57-.3-.78-.3-1.56,0-.78,0-1.56.27-.78.27-1.56-.31-.78-.31-1.56.2-.78.2-1.56-.05-.78-.05-1.56-.18-.79-.18-1.57,0-.78,0-1.56.34-.78.34-1.56.22-.79.22-1.57-.24-.78-.24-1.57-.11-.78-.11-1.56.25-.78.25-1.57-.37-.78-.37-1.56.35-.78.35-1.56.24-.79.24-1.57-.32-.78-.32-1.56-.06-.78-.06-1.56,0-.78,0-1.57.16-.78.16-1.56-.12-.78-.12-1.56.22-.78.22-1.57-.53-.78-.53-1.56.54-.79.54-1.57-.31-.78-.31-1.57-.23-.78-.23-1.56.09-.78.09-1.57.11-.78.11-1.56.19-.78.19-1.56.16-.79.16-1.57,0-.78,0-1.56-.37-.78-.37-1.57.19-.78.19-1.56,0-.79,0-1.57-.1-.78-.1-1.57-.3-.78-.3-1.56.38-.78.38-1.57-.3-.78-.3-1.56,0-.78,0-1.57.58-.78.58-1.56-.66-.79-.66-1.57.64-.78.64-1.57-.36-.78-.36-1.56-.07-.79-.07-1.57.39-.78.39-1.56-.34-.79-.34-1.57.22-.78.22-1.57-.25-.78-.25-1.57,0-.78,0-1.56-.14-.78-.14-1.56.44-.79.44-1.57-.39-.78-.39-1.57-.17-.78-.17-1.56.33-.79.33-1.57S303,88.77,303,88s-.15-.78-.15-1.56.44-.79.44-1.57-.14-.78-.14-1.56.19-.79.19-1.57-.36-.79-.36-1.57,0-.78,0-1.56.15-.79.15-1.57-.2-.78-.2-1.57.32-.78.32-1.57-.07-.78-.07-1.56-.1-.79-.1-1.57-.17-.79-.17-1.57.37-.78.37-1.57-.15-.78-.15-1.57-.3-.78-.3-1.57.32-.78.32-1.57-.15-.78-.15-1.56,0-.79,0-1.57.4-.78.4-1.57-.06-.78-.06-1.57-.41-.78-.41-1.57.35-.79.35-1.57-.46-.79-.46-1.57.29-.79.29-1.58.12-.78.12-1.57-.35-.79-.35-1.58c0-.54.32-1.11.16-1.59a5,5,0,0,0-.81-1.39,5.34,5.34,0,0,0-1.24-1c-.42-.3-.75-.84-1.25-1a5.69,5.69,0,0,0-1.61-.18c-.78,0-.78.11-1.56.11s-.79.11-1.57.11-.78.2-1.56.2-.78-.28-1.56-.28-.78-.22-1.56-.22-.79.22-1.57.22h-1.56c-.78,0-.78-.28-1.56-.28s-.78.48-1.56.48-.78-.13-1.56-.13-.78-.15-1.56-.15-.78.27-1.56.27-.79-.2-1.57-.2-.78.18-1.56.18-.78-.47-1.56-.47-.78.54-1.56.54-.78-.57-1.56-.57-.78.42-1.56.42-.79-.15-1.57-.15-.78.05-1.56.05-.78-.24-1.56-.24-.78.43-1.56.43-.79-.28-1.57-.28-.78-.08-1.56-.08-.78.5-1.57.5-.78-.44-1.56-.44-.78.11-1.56.11-.78-.2-1.56-.2-.78.35-1.56.35-.79-.45-1.57-.45-.78.22-1.56.22-.78.18-1.56.18-.78-.37-1.56-.37-.78.16-1.56.16-.79.2-1.57.2-.78.12-1.56.12-.78-.21-1.56-.21-.78-.06-1.56-.06-.78.31-1.57.31-.78-.53-1.56-.53-.78.12-1.56.12-.79.21-1.57.21-.78-.06-1.56-.06-.78-.1-1.56-.1-.78.19-1.56.19-.78-.15-1.56-.15-.78,0-1.56,0-.78-.31-1.56-.31-.78.06-1.56.06-.78.15-1.56.15-.78.34-1.56.34-.78-.14-1.56-.14-.78-.28-1.56-.28-.77.39-1.55.39S213,42,212.22,42s-.78.21-1.56.21-.78-.34-1.56-.34-.78.47-1.56.47H206c-.77,0-.77-.36-1.55-.36s-.78.44-1.56.44-.78-.37-1.56-.37-.78-.18-1.56-.18-.79.21-1.57.21-.78-.18-1.56-.18-.78-.06-1.56-.06-.78.29-1.57.29-.78-.1-1.56-.1-.78.45-1.56.45-.79-.42-1.57-.42S188,42,187.24,42s-.78,0-1.56,0-.78.41-1.56.41-.78-.41-1.57-.41-.78.33-1.56.33-.78.06-1.56.06-.78-.37-1.56-.37-.78.35-1.56.35-.78-.35-1.56-.35-.78.17-1.56.17-.78.24-1.56.24-.78-.54-1.56-.54-.78,0-1.56,0-.79.51-1.57.51-.78-.53-1.56-.53-.79.13-1.57.13-.78-.23-1.56-.23-.79.34-1.57.34-.78.16-1.56.16-.78-.15-1.56-.15-.79,0-1.57,0-.78.29-1.56.29-.78-.33-1.56-.33-.78-.2-1.56-.2-.78-.07-1.57-.07-.78.61-1.56.61-.78-.39-1.56-.39-.79.11-1.57.11-.78-.3-1.56-.3-.79-.05-1.57-.05-.78.19-1.56.19-.79.13-1.57.13-.78,0-1.56,0-.78-.11-1.56-.11-.79.45-1.57.45-.78-.09-1.56-.09-.78-.48-1.57-.48h-1.56c-.79,0-.79.56-1.57.56s-.78-.59-1.56-.59-.79.42-1.57.42-.78-.22-1.56-.22-.79-.1-1.57-.1-.78.17-1.56.17-.78.17-1.57.17-.78-.43-1.56-.43-.79.52-1.57.52-.78-.27-1.57-.27-.78-.25-1.56-.25-.78.26-1.57.26l-1.56,0c-.78,0-.78.08-1.57.08s-.78-.09-1.56-.09-.79-.26-1.57-.26-.78.08-1.56.08-.78.4-1.57.4-.78-.24-1.56-.24H96.54c-.78,0-.78.12-1.56.12s-.79-.32-1.57-.32-.78.09-1.56.09-.78.11-1.57.11-.78.08-1.56.08-.79,0-1.57,0S86.37,42,85.59,42s-.79,0-1.57,0-.78.54-1.57.54-.78-.56-1.57-.56-.78.61-1.56.61-.78-.3-1.57-.3-.78-.05-1.57-.05-.78.15-1.56.15-.79.07-1.57.07S72.26,42,71.48,42s-.79.14-1.57.14-.78-.1-1.57-.1-.78.45-1.56.45-.79-.6-1.57-.6-.79.24-1.57.24-.79-.2-1.57-.2-.79.19-1.57.19-.79,0-1.57,0-.79.32-1.57.32S56.57,42,55.78,42s-.79.42-1.58.42a4.48,4.48,0,0,0-1.46.31,4.4,4.4,0,0,0-1.36.61,4.8,4.8,0,0,0-1.16,1,4.88,4.88,0,0,0-.66,1.38A5.13,5.13,0,0,0,49,47.2c0,.78.46.78.46,1.56s-.05.79-.05,1.57-.34.78-.34,1.56-.13.78-.13,1.57.26.78.26,1.56.09.78.09,1.56,0,.79,0,1.57,0,.78,0,1.56-.26.78-.26,1.56-.19.78-.19,1.56.28.78.28,1.56,0,.78,0,1.56.24.78.24,1.56.06.78.06,1.56,0,.78,0,1.56-.11.78-.11,1.56S49,73,49,73.75s.3.78.3,1.56-.16.78-.16,1.56.27.78.27,1.56.17.78.17,1.55-.65.78-.65,1.56.6.78.6,1.56-.09.78-.09,1.56,0,.78,0,1.56,0,.78,0,1.56-.57.78-.57,1.57.13.78.13,1.56-.08.78-.08,1.56,0,.78,0,1.56-.09.79-.09,1.57.27.78.27,1.56-.3.79-.3,1.57.22.78.22,1.56.37.78.37,1.57-.29.78-.29,1.56.35.78.35,1.56-.23.78-.23,1.56-.09.78-.09,1.56v1.57c0,.78.19.78.19,1.56S49,112,49,112.79s.44.78.44,1.56.06.78.06,1.56-.48.78-.48,1.56-.13.78-.13,1.57.35.78.35,1.56-.31.78-.31,1.56.46.78.46,1.57-.39.78-.39,1.56.28.79.28,1.57.17.78.17,1.56-.29.79-.29,1.57-.15.78-.15,1.56.14.78.14,1.56.42.79.42,1.57-.46.78-.46,1.56.23.78.23,1.56-.27.79-.27,1.57-.11.78-.11,1.56.11.78.11,1.56-.07.79-.07,1.57.39.78.39,1.57-.43.78-.43,1.56.25.79.25,1.57,0,.78,0,1.56,0,.79,0,1.57-.21.78-.21,1.56.33.78.33,1.57-.32.78-.32,1.56.24.78.24,1.57.23.78.23,1.56,0,.78,0,1.57-.3.78-.3,1.56,0,.79,0,1.57-.09.78-.09,1.57.09.78.09,1.56-.1.78-.1,1.57-.13.78-.13,1.56,0,.78,0,1.57,0,.78,0,1.57.16.78.16,1.56.38.78.38,1.57-.43.78-.43,1.56v1.57c0,.78-.14.78-.14,1.57s.5.78.5,1.56-.15.79-.15,1.57.23.78.23,1.56-.36.79-.36,1.57.36.78.36,1.57-.38.78-.38,1.56.47.78.47,1.57-.17.78-.17,1.56-.24.78-.24,1.56.31.78.31,1.57-.17.78-.17,1.56-.4.79-.4,1.57.11.78.11,1.57.2.78.2,1.56-.31.79-.31,1.57.46.78.46,1.57.07.78.07,1.56,0,.79,0,1.57-.48.79-.48,1.57.36.78.36,1.57.09.78.09,1.57.12.78.12,1.57-.39.78-.39,1.57.41.78.41,1.57-.22.78-.22,1.56-.27.78-.27,1.57-.17.78-.17,1.57.68.78.68,1.57-.29.78-.29,1.57.27.78.27,1.57-.37.78-.37,1.57,0,.79,0,1.57.15.79.15,1.58,0,.79,0,1.58a5,5,0,0,0,.42,1.48,5,5,0,0,0,.53,1.44,4.58,4.58,0,0,0,1,1.2,5.14,5.14,0,0,0,1.49.51,5.09,5.09,0,0,0,1.5.38c.79,0,.79.07,1.58.07s.78-.06,1.57-.06.78-.22,1.57-.22.78.05,1.57.05.79.29,1.57.29.79-.38,1.57-.38.79.5,1.57.5.79-.35,1.57-.35.79.18,1.58.18.78-.1,1.57-.1.79,0,1.57,0,.79-.22,1.57-.22.79.49,1.58.49.78-.28,1.57-.28.78.25,1.57.25.78-.2,1.57-.2.79-.15,1.57-.15.79-.15,1.58-.15.78.38,1.57.38.79.06,1.57.06.79.14,1.57.14.79-.2,1.58-.2.78.26,1.57.26.79-.28,1.57-.28.79.09,1.58.09.78.07,1.57.07.78-.37,1.57-.37.78.08,1.57.08.79,0,1.57,0,.79,0,1.57,0,.79.3,1.57.3.79-.15,1.57-.15.79-.37,1.57-.37.79-.06,1.58-.06.78.25,1.57.25.79.43,1.57.43.79-.39,1.57-.39.79-.06,1.58-.06.78.27,1.57.27.79-.23,1.58-.23.78.39,1.57.39.79-.59,1.57-.59.79.55,1.58.55.79-.21,1.57-.21.79,0,1.58,0,.79-.18,1.58-.18.78.06,1.57.06.79-.05,1.57-.05.79.11,1.58.11.79.1,1.57.1.79-.45,1.58-.45.79.26,1.58.26.79.25,1.58.25.78-.54,1.57-.54.79.39,1.58.39.79-.35,1.58-.35.8.55,1.59.55a2.76,2.76,0,0,1,2.81.87,4.66,4.66,0,0,1,1.17,1c.31.42.87.76,1,1.27a5.67,5.67,0,0,1-.07,1.63c0,.78.15.78.15,1.57s0,.79,0,1.58-.24.79-.24,1.57.24.79.24,1.58-.07.79-.07,1.58,0,.79,0,1.57.16.79.16,1.58.1.79.1,1.58,0,.79,0,1.58-.34.78-.34,1.57.18.79.18,1.57,0,.79,0,1.58.2.79.2,1.58,0,.79,0,1.58-.47.79-.47,1.58.45.79.45,1.58-.43.79-.43,1.58.41.79.41,1.58-.38.8-.38,1.59a3.42,3.42,0,0,1-.63,3.11c-.31.42-1,.57-1.39.88a5.57,5.57,0,0,1-1.29.93,5.42,5.42,0,0,1-1.6-.05h-1.56c-.78,0-.78,0-1.56,0s-.78.25-1.56.25-.78.26-1.57.26-.78-.12-1.56-.12-.78-.26-1.56-.26-.78-.16-1.56-.16-.78.53-1.56.53-.78-.61-1.56-.61-.78.55-1.56.55-.78-.55-1.56-.55-.78.58-1.56.58-.79-.36-1.57-.36-.78.06-1.56.06-.78.27-1.56.27-.78-.41-1.56-.41-.78,0-1.56,0-.78-.11-1.56-.11-.78.4-1.57.4-.77-.31-1.55-.31-.78-.1-1.56-.1-.78.43-1.57.43-.78.12-1.56.12-.78-.12-1.56-.12-.78-.39-1.55-.39h-1.56c-.78,0-.78.63-1.56.63s-.78-.55-1.56-.55-.79.42-1.57.42-.78-.39-1.56-.39-.78.43-1.56.43-.78-.3-1.56-.3-.78.2-1.56.2-.79.15-1.57.15S90,280,89.25,280s-.78-.42-1.56-.42-.78.52-1.57.52H84.56c-.78,0-.78-.3-1.56-.3s-.79.05-1.57.05-.78.08-1.56.08-.78.16-1.56.16-.79,0-1.57,0H75.18c-.78,0-.78-.27-1.57-.27s-.78.18-1.56.18-.79-.23-1.57-.23-.78,0-1.56,0-.79,0-1.57,0-.79.36-1.57.36-1-.78-1.6-.23.12.81.12,1.59.25.78.25,1.56-.32.78-.32,1.56.07.78.07,1.57S64,287,64,287.74s.16.78.16,1.56-.14.79-.14,1.57-.07.78-.07,1.56.53.79.53,1.57-.08.78-.08,1.57-.69,1-.13,1.56.77,0,1.55,0h1.56c.78,0,.78-.21,1.56-.21s.79.57,1.57.57.78-.21,1.56-.21.78-.07,1.57-.07.78-.3,1.56-.3.78.39,1.57.39.78-.34,1.56-.34.78.46,1.57.46.78-.53,1.56-.53.79.25,1.57.25.78.27,1.56.27.79-.44,1.57-.44.78.39,1.56.39.78-.37,1.57-.37.78.29,1.56.29.78-.15,1.56-.15.79.24,1.57.24.78-.07,1.56-.07.78-.44,1.57-.44.78.21,1.56.21.78-.11,1.57-.11.78.23,1.56.23.78.29,1.56.29.79-.48,1.57-.48.78.09,1.57.09.78,0,1.56,0,.78,0,1.57,0h1.56c.78,0,.78.35,1.57.35s.78-.23,1.56-.23.78-.05,1.56-.05.78.32,1.56.32.78-.56,1.57-.56.78-.08,1.56-.08.78.44,1.56.44.78-.34,1.56-.34.78.24,1.56.24.78.31,1.56.31.78-.63,1.56-.63.78.14,1.56.14.78.27,1.56.27.78-.42,1.56-.42.78.25,1.56.25.78.11,1.56.11.78,0,1.56,0,.78-.21,1.56-.21.79.3,1.57.3h1.56l1.56,0c.78,0,.78-.38,1.57-.38s.78.35,1.56.35.79-.25,1.57-.25.78.38,1.57.38.78-.17,1.56-.17h1.57c.78,0,.78.13,1.56.13s.78-.2,1.57-.2.78.2,1.56.2.78.12,1.56.12.78-.22,1.57-.22.78.09,1.56.09.78,0,1.56,0,.78,0,1.56,0,.78-.11,1.57-.11.78-.32,1.56-.32.78.25,1.56.25.79.16,1.57.16.78,0,1.56,0,.78-.05,1.57-.05.78-.16,1.56-.16.79-.11,1.57-.11.79,0,1.57,0,.78,0,1.57,0,.78.65,1.56.65.78-.36,1.57-.36.78-.13,1.56-.13h1.56c.79,0,.79.45,1.57.45s.78-.6,1.56-.6.79.31,1.57.31.78-.07,1.56-.07.79-.1,1.57-.1.78-.11,1.57-.11.78.18,1.56.18.79.44,1.57.44.79-.61,1.57-.61.78.26,1.57.26.78.24,1.56.24.78-.22,1.57-.22.78.18,1.56.18.78-.41,1.57-.41.78.41,1.56.41.79-.23,1.57-.23.79.38,1.57.38.78-.13,1.57-.13.78-.2,1.57-.2.78.13,1.56.13.79.18,1.57.18.78-.26,1.57-.26.78-.37,1.56-.37.79.55,1.57.55.79-.55,1.57-.55.78.42,1.57.42.78,0,1.56,0,.79-.24,1.57-.24.79.4,1.57.4.78-.33,1.57-.33.78.31,1.57.31.78-.28,1.56-.28.79.13,1.57.13.78.28,1.57.28.78-.3,1.57-.3.78,0,1.56,0,.78.28,1.57.28.78-.25,1.56-.25.78.09,1.57.09.78.1,1.56.1.79-.37,1.57-.37.79.33,1.57.33.78-.28,1.57-.28.78.23,1.56.23.79-.06,1.57-.06.79-.39,1.57-.39.79.45,1.57.45.79,0,1.57,0,.78-.25,1.57-.25.78.3,1.57.3.78-.45,1.57-.45.79.48,1.57.48.79.13,1.57.13.79-.58,1.57-.58.79.6,1.57.6.78-.35,1.57-.35.78.07,1.57.07.79.21,1.57.21.79-.12,1.57-.12.79-.45,1.58-.45.78.45,1.57.45.79.19,1.57.19.79-.14,1.58-.14.8.14,1.36-.41.46-.56.46-1.34.11-.78.11-1.56-.4-.78-.4-1.56.23-.79.23-1.57,0-.78,0-1.56-.5-.78-.5-1.56.61-.79.61-1.57-.52-.78-.52-1.56.28-.79.28-1.57.2-.79.2-1.57.18-.92-.37-1.47-.68,0-1.46,0-.78.09-1.56.09-.78-.11-1.56-.11-.78-.26-1.56-.26-.79.06-1.57.06-.78,0-1.56,0-.78.1-1.56.1-.78.27-1.56.27-.78-.54-1.56-.54-.78.43-1.56.43-.78-.2-1.56-.2-.78.33-1.56.33-.78-.57-1.56-.57-.78.42-1.56.42h-1.57c-.78,0-.78.1-1.56.1s-.78,0-1.56,0H260c-.78,0-.78.19-1.56.19s-.78-.13-1.56-.13-.78-.37-1.56-.37-.78.29-1.56.29-.79-.36-1.57-.36-.78.2-1.55.2-.78-.22-1.56-.22-.78.5-1.56.5-.78-.17-1.56-.17-.78.16-1.56.16-.78-.15-1.57-.15-.78-.15-1.56-.15-.78,0-1.56,0-.78.09-1.56.09-.78-.35-1.56-.35-.78.49-1.57.49-.78-.42-1.56-.42-.78.05-1.56.05-.78.27-1.56.27-.79-.1-1.57-.1-.78-.16-1.56-.16h-1.57c-.78,0-.78-.18-1.56-.18s-.78.17-1.56.17-.78.35-1.56.35-.79-.42-1.57-.42-.78.32-1.56.32-.79.23-1.57.23-.78-.65-1.57-.65-.78.05-1.56.05-.79.11-1.57.11-.79.53-1.57.53-.79-.66-1.57-.66a5,5,0,0,1-1.54,0,4.76,4.76,0,0,1-1.39-.69,4.67,4.67,0,0,1-.95-1.21,4.72,4.72,0,0,1-.86-1.28,5.17,5.17,0,0,1-.46-1.54c0-.79.21-.79.21-1.58s.26-.79.26-1.57-.6-.79-.6-1.58.47-.79.47-1.58-.37-.78-.37-1.57.53-.79.53-1.58-.21-.79-.21-1.58-.21-.78-.21-1.57.16-.79.16-1.58.07-.79.07-1.58-.07-.78-.07-1.57.07-.79.07-1.58.17-.79.17-1.58v-1.57c0-.79-.09-.79-.09-1.58s-.3-.79-.3-1.58.08-.79.08-1.58-.17-.8-.17-1.59.36-.79.36-1.58a5,5,0,0,1,.06-1.56,3.32,3.32,0,0,1,1.74-2.61,5.1,5.1,0,0,1,1.52-.48,5.21,5.21,0,0,1,1.52-.54c.78,0,.78,0,1.57,0s.78.33,1.57.33.79.1,1.57.1.79-.25,1.57-.25.79.26,1.57.26.79-.55,1.57-.55.79.1,1.57.1.79.23,1.57.23.79-.15,1.58-.15.78.05,1.57.05.79-.19,1.57-.19.79.08,1.58.08.78.37,1.57.37.78-.31,1.57-.31.78,0,1.57,0,.79.14,1.57.14.79.07,1.58.07.78-.21,1.57-.21.79.24,1.57.24.79.21,1.57.21.79-.62,1.58-.62.78.2,1.57.2.79.12,1.57.12.79.09,1.58.09.78.27,1.57.27.78-.32,1.57-.32.78.1,1.57.1.79.18,1.57.18.79-.47,1.58-.47.78.4,1.57.4.78-.14,1.56-.14.79,0,1.57,0,.79-.14,1.57-.14.79.32,1.58.32.79-.23,1.57-.23.79-.33,1.58-.33.78.4,1.57.4.78-.41,1.57-.41.79.16,1.57.16.79.1,1.58.1.78.29,1.57.29.79-.1,1.58-.1.78-.08,1.57-.08.79.14,1.58.14.78,0,1.57,0,.79-.16,1.58-.16.79.15,1.57.15.79-.46,1.58-.46h1.57c.79,0,.79.13,1.58.13s.78.23,1.57.23.79-.3,1.58-.3.79.47,1.58.47.78-.5,1.57-.5.79.48,1.58.48h1.59c.79,0,.79-.48,1.58-.48a4.4,4.4,0,0,0,1.44-.34,5.08,5.08,0,0,0,1.42-.49,4.91,4.91,0,0,0,1.14-1,5.21,5.21,0,0,0,.49-1.44C302.76,235.92,303.39,235.49,303.39,235Z"/><path class="cls-6" d="M64,225.16c-.9-.89.29-1.48.29-2.75s-.14-1.27-.14-2.54-.26-1.26-.26-2.53.53-1.27.53-2.54-.33-1.26-.33-2.53.4-1.27.4-2.54.08-1.27.08-2.54-.53-1.27-.53-2.54.1-1.27.1-2.54.2-1.27.2-2.54,0-1.27,0-2.54.1-1.27.1-2.54-.58-1.27-.58-2.54.57-1.26.57-2.53-.69-1.27-.69-2.54.07-1.27.07-2.54,0-1.27,0-2.54.11-1.27.11-2.54-.06-1.27-.06-2.54,0-1.27,0-2.54.68-1.27.68-2.54,0-1.27,0-2.54-.16-1.27-.16-2.54,0-1.27,0-2.54-.19-1.27-.19-2.54.09-1.27.09-2.54S64,157.67,64,156.4s.55-1.28.55-2.55-.19-1.27-.19-2.54-.19-1.27-.19-2.54-.29-1.27-.29-2.54,0-1.27,0-2.54.21-1.27.21-2.54.31-1.27.31-2.54-.15-1.27-.15-2.54,0-1.28,0-2.55.18-1.27.18-2.54.19-1.27.19-2.54-.76-1.27-.76-2.54.42-1.28.42-2.55-.42-1.27-.42-2.54.12-1.27.12-2.54.32-1.27.32-2.54-.32-1.28-.32-2.55.08-1.27.08-2.54,0-1.27,0-2.54.46-1.27.46-2.54-.37-1.27-.37-2.54.54-1.27.54-2.54-.12-1.27-.12-2.54S64,96.67,64,95.4s.06-1.28.06-2.55.57-1.27.57-2.54-.49-1.27-.49-2.55.11-1.27.11-2.54.34-1.27.34-2.55-.47-1.27-.47-2.54.44-1.27.44-2.55-.37-1.27-.37-2.54.31-1.27.31-2.54S64,71.22,64,70s-.21-1.27-.21-2.55.52-1.27.52-2.54S64,63.58,64,62.31s.45-1.28.45-2.56-1.12-1.62-.22-2.52,1.25.27,2.52.27S68,57,69.29,57s1.27.3,2.54.3,1.27-.17,2.55-.17,1.27-.07,2.54-.07,1.27.51,2.54.51,1.27-.14,2.54-.14,1.27-.51,2.55-.51,1.27.4,2.54.4,1.27-.52,2.54-.52,1.28.66,2.55.66,1.27,0,2.54,0,1.27-.06,2.54-.06,1.28-.63,2.55-.63,1.27.6,2.54.6,1.27-.44,2.54-.44,1.27-.16,2.54-.16,1.27.09,2.54.09,1.28.43,2.55.43,1.27-.08,2.54-.08,1.27.15,2.54.15,1.27-.3,2.54-.3,1.27.45,2.54.45,1.27-.28,2.54-.28,1.27.28,2.54.28,1.27-.63,2.54-.63,1.27.12,2.54.12,1.27.31,2.54.31,1.27-.52,2.54-.52,1.27.62,2.54.62,1.27-.3,2.55-.3,1.27.33,2.54.33,1.27-.18,2.54-.18,1.27.2,2.55.2,1.27-.19,2.54-.19,1.27.26,2.54.26,1.27-.37,2.54-.37,1.27-.45,2.54-.45,1.27.35,2.54.35,1.27.15,2.55.15,1.27.12,2.54.12,1.27-.11,2.55-.11,1.27-.47,2.54-.47,1.27.3,2.54.3,1.27.17,2.55.17,1.27-.4,2.54-.4,1.27.38,2.54.38,1.27,0,2.55,0h2.54c1.28,0,1.28-.42,2.55-.42s1.27.78,2.54.78h2.54c1.28,0,1.28-.56,2.55-.56s1.27.62,2.55.62,1.27-.83,2.54-.83,1.27.27,2.55.27,1.27,0,2.54,0,1.27-.05,2.55-.05,1.27-.17,2.54-.17,1.28.4,2.55.4,1.27.2,2.54.2,1.28-.43,2.55-.43,1.27-.24,2.55-.24,1.27.56,2.54.56,1.27-.35,2.55-.35,1.27-.06,2.55-.06,1.27-.08,2.54-.08,1.27-.08,2.54-.08,1.27.74,2.54.74,1.28-.74,2.55-.74,1.27.11,2.55.11,1.27.53,2.54.53,1.27-.12,2.54-.12,1.28-.34,2.55-.34H255c1.27,0,1.27.24,2.55.24s1.27-.23,2.54-.23,1.28-.17,2.55-.17,1.28.62,2.55.62,1.28.16,2.55.16,1.27-.31,2.55-.31,1.27,0,2.54,0,1.28,0,2.55,0,1.28.4,2.55.4,1.28-.18,2.55-.18S281.72,57,283,57s1.27-.13,2.55-.13,1.79-.72,2.7.18-.42,1.41-.42,2.68.05,1.27.05,2.53-.05,1.27-.05,2.54-.1,1.27-.1,2.53.22,1.27.22,2.54.34,1.27.34,2.54S288,73.69,288,75s-.1,1.27-.1,2.54.32,1.27.32,2.54-.21,1.27-.21,2.54.28,1.27.28,2.54,0,1.27,0,2.54-.08,1.27-.08,2.53.32,1.27.32,2.54S288,94,288,95.27s-.06,1.27-.06,2.54.25,1.27.25,2.54-.28,1.27-.28,2.54.21,1.27.21,2.54-.41,1.27-.41,2.54.37,1.27.37,2.54.3,1.27.3,2.54v2.54c0,1.27-.29,1.27-.29,2.54s0,1.27,0,2.54-.08,1.27-.08,2.54.37,1.27.37,2.54-.17,1.27-.17,2.54-.11,1.27-.11,2.54-.18,1.27-.18,2.54-.25,1.27-.25,2.55.79,1.27.79,2.54-.16,1.27-.16,2.54,0,1.27,0,2.54-.08,1.27-.08,2.54-.45,1.27-.45,2.54.6,1.28.6,2.55-.57,1.27-.57,2.54.13,1.27.13,2.54.45,1.27.45,2.54-.4,1.28-.4,2.55.06,1.27.06,2.54.24,1.27.24,2.54.1,1.28.1,2.55-.29,1.27-.29,2.54-.09,1.27-.09,2.54,0,1.27,0,2.54,0,1.27,0,2.54.54,1.27.54,2.54-.71,1.27-.71,2.54.2,1.27.2,2.54.31,1.28.31,2.55-.32,1.27-.32,2.54.16,1.27.16,2.54-.37,1.28-.37,2.55.32,1.27.32,2.54.16,1.28.16,2.55.18,1.27.18,2.54-.12,1.28-.12,2.55-.2,1.27-.2,2.54.3,1.27.3,2.55,0,1.27,0,2.54-.32,1.28-.32,2.55-.18,1.28-.18,2.55,0,1.28,0,2.55.85,1.44-.05,2.34-1.05.15-2.32.15-1.28,0-2.55,0-1.27.09-2.54.09-1.27-.35-2.54-.35-1.27-.09-2.55-.09-1.27.36-2.54.36-1.27-.18-2.54-.18-1.27.08-2.54.08-1.28-.26-2.55-.26-1.27.61-2.54.61-1.27-.13-2.55-.13-1.27.11-2.54.11-1.27-.13-2.54-.13-1.27-.06-2.54-.06-1.27-.19-2.54-.19-1.27,0-2.54,0-1.28.3-2.55.3-1.27.27-2.54.27-1.27-.34-2.54-.34-1.28-.1-2.55-.1-1.27.3-2.54.3-1.27-.44-2.54-.44-1.27.28-2.54.28-1.27-.06-2.54-.06-1.27.29-2.53.29-1.27-.61-2.54-.61-1.27.57-2.54.57-1.27-.3-2.54-.3-1.27.27-2.55.27-1.27-.56-2.54-.56-1.27.39-2.54.39-1.28-.23-2.55-.23-1.27.48-2.54.48-1.27-.74-2.54-.74-1.27.8-2.54.8-1.27-.65-2.54-.65-1.28.29-2.55.29-1.27-.29-2.54-.29-1.27.26-2.54.26-1.27-.2-2.54-.2-1.28-.2-2.55-.2-1.27.09-2.54.09-1.28.14-2.55.14-1.27.56-2.54.56-1.27-.43-2.54-.43-1.27.05-2.55.05-1.27-.11-2.54-.11-1.27-.05-2.54-.05-1.28.25-2.55.25-1.27-.51-2.54-.51-1.28.4-2.55.4-1.27.43-2.54.43-1.27-.08-2.55-.08-1.27-.34-2.54-.34-1.28.29-2.55.29h-2.54c-1.28,0-1.28.11-2.55.11s-1.27-.77-2.54-.77-1.28.23-2.55.23-1.27.31-2.55.31-1.27-.49-2.54-.49-1.27.3-2.55.3-1.27-.17-2.54-.17-1.28.43-2.55.43-1.27-.28-2.55-.28-1.27.22-2.54.22S119,225,117.71,225s-1.27.25-2.54.25-1.27-.61-2.54-.61-1.27.18-2.55.18-1.27-.32-2.54-.32-1.28.84-2.55.84-1.27,0-2.54,0-1.28-.44-2.55-.44-1.27-.22-2.55-.22-1.27-.11-2.54-.11-1.28.8-2.55.8S91,225,89.71,225s-1.27.25-2.55.25-1.27-.08-2.55-.08-1.27.16-2.55.16-1.27-.37-2.54-.37-1.28-.32-2.55-.32-1.28-.09-2.55-.09-1.28.29-2.55.29-1.28,0-2.55,0a6.82,6.82,0,0,0-2.48.43C65.4,225.64,64.9,226.06,64,225.16Z"/><polyline class="cls-7" points="217.49 194.59 214.17 194.47 210.9 193.96 207.57 193.78 204.34 193 201.2 191.92 198.1 190.74 195.3 188.95 192.46 187.32 189.6 185.72 186.44 184.45 184.03 182.15 182.03 179.47 179.85 177.02 177.39 174.8 175.12 172.35 173.18 169.64 172.02 166.49 171.1 163.29 169.69 160.33 168.03 157.4 167.5 154.11 167.01 150.85 166 147.65 165.84 144.33 165.94 141.02 165.96 137.67 166.09 134.31 166.87 131.04 167.09 127.65 168.08 124.42 170.09 121.59 170.55 118.14 172.56 115.4 174.07 112.4 175.99 109.65 177.85 106.84 179.99 104.22 182.88 102.37 185.31 100.08 187.9 97.98 190.45 95.75 193.52 94.36 196.38 92.58 199.4 91.09 202.82 90.68 205.98 89.64 209.18 88.66 212.56 88.73 215.84 88.05 219.17 88.1 222.52 87.78 225.88 87.96 229.2 88.44 232.36 89.66 235.73 90.07 238.62 91.91 242.05 92.41 244.57 94.81 247.43 96.49 250.34 98.12 252.87 100.29 255.25 102.6 257.9 104.65 260.07 107.18 262.66 109.43 263.77 112.72 265.92 115.32 267.15 118.44 268.84 121.36 269.67 124.61 270.55 127.83 271.4 131.05 272.08 134.33 271.84 137.7 272.41 141.02 272 144.34 272.06 147.7 271.62 151.03 271.19 154.38 269.94 157.52 268.27 160.46 266.96 163.51 265.55 166.52 264 169.47 262.51 172.51 260.2 174.96 258.35 177.81 255.26 179.46 253.2 182.16 250.58 184.25 247.84 186.19 244.73 187.51 241.85 189.22 238.79 190.58 235.66 191.78 232.41 192.57 229.2 193.59 225.9 194.3 222.5 193.96 219.17 193.87"/><path class="cls-10" d="M225.38,124.22a7.62,7.62,0,0,0-6.56,1.31,11.36,11.36,0,0,0-2.14,2.82l-3.55,5.86a59.35,59.35,0,0,0-3.82,7,10,10,0,0,0-1,3.73c-.06,2.38,1.26,4.57,2.77,6.41s3.28,3.51,4.4,5.61c.41.76.8,1.64,1.6,2a2.23,2.23,0,0,0,2.49-.92,7.49,7.49,0,0,0,1-2.65c2-7.59,6.38-14.41,8-22.08.67-3.16.64-7-1.85-9"/><path class="cls-10" d="M223.19,97.62c-.88-.91-2.18-.57-3.33-.45-5.27.56-10.06-4.62-15.34-4.3a12.13,12.13,0,0,1-2.82.13,14.6,14.6,0,0,1-3.29-1.76c-19.17,8.05-33.68,27.69-33.68,49.78a56,56,0,0,0,4.45,22c3.18,1.62,9.9,1.72,12-.17,2.86-2.53,4.49-7.05,4.09-11.38a29.67,29.67,0,0,1-.33-3.75c.12-3.15,2.2-5.67,4.4-7.24s4.69-2.57,6.68-4.53a15.1,15.1,0,0,0,3.89-12c-.19-1.64-.62-3.35-.19-4.92a6.19,6.19,0,0,1,3.31-3.61,22.64,22.64,0,0,1,9.73-2.83c3.28-.17,6.93.26,9.44-2.36S225,103.1,224,99.41A4.13,4.13,0,0,0,223.19,97.62Z"/><path class="cls-10" d="M233.87,162.3a59.05,59.05,0,0,0-13.48,7.26c-1.79,1.29-3.7,3.11-3.41,5.31.22,1.75,1.76,3,3.17,4l4.09,3a3.69,3.69,0,0,0,1.49.78,4,4,0,0,0,2-.34,26.06,26.06,0,0,1,10.84-1.2c3.82.4,8.07,1.55,11.21-.67a10.52,10.52,0,0,0,3.2-4.35c.85-1.85,1.53-4,.95-5.9-1-3.32-4.94-4.53-8.3-5.22l-11.51-2.39"/></g><path class="cls-11" d="M251,185.92C211.83,172.31,152.21,83.14,150.44,54.63V297.14c56-13.45,88.36-49.24,104.12-65Z"/><path d="M240.54,202.77h-.22c-.49-.08-1-.13-1.5-.18-.79-.08-1.61-.17-2.46-.34a10.84,10.84,0,0,1-2.21-.75,10,10,0,0,0-1.59-.58c-.88-.22-1.75-.51-2.59-.79l-1.23-.39c-.46-.14-.92-.26-1.39-.38a23.46,23.46,0,0,1-2.46-.74,12.46,12.46,0,0,0-1.48-.43,12.66,12.66,0,0,1-2.38-.77c-1.44-.67-2.59-1.24-3.62-1.82a18.71,18.71,0,0,1-2.12-1.43c-.4-.3-.8-.6-1.22-.87-1.24-.83-2.32-1.6-3.29-2.36-.38-.3-.79-.57-1.2-.85a15.38,15.38,0,0,1-2.07-1.56c-.85-.78-1.74-1.67-2.86-2.89a14.36,14.36,0,0,1-1.48-2c-.3-.46-.59-.9-.91-1.3a1.42,1.42,0,0,1,2.22-1.77c.39.5.73,1,1.06,1.51a12,12,0,0,0,1.18,1.61c1.08,1.17,1.91,2,2.71,2.74a15,15,0,0,0,1.73,1.29c.47.32.94.63,1.37,1,.91.72,1.93,1.44,3.11,2.22.46.31.9.64,1.35,1a18,18,0,0,0,1.79,1.23c1,.54,2.07,1.08,3.44,1.72a10.64,10.64,0,0,0,1.88.59,15.89,15.89,0,0,1,1.8.53,19.93,19.93,0,0,0,2.15.64q.78.19,1.53.42l1.28.41c.82.28,1.6.53,2.38.72a14,14,0,0,1,2,.73,9.12,9.12,0,0,0,1.65.58c.73.14,1.48.22,2.21.3.56.06,1.11.11,1.64.19a1.42,1.42,0,0,1-.21,2.82Z"/><path d="M226.68,212.54c-.49,0-1,0-1.44-.06s-1.09-.07-1.6,0l-.85,0c-1,0-2,.07-3.13,0-.86,0-1.72-.12-2.54-.21-.47,0-.94-.11-1.42-.15s-1,0-1.56-.06a22.58,22.58,0,0,1-2.41-.15c-1-.14-2.1-.34-3.12-.52l-.79-.15a15.59,15.59,0,0,0-1.62-.16,15.17,15.17,0,0,1-2.35-.28,10.58,10.58,0,0,1-2.21-.86,9.65,9.65,0,0,0-1.51-.62c-.5-.13-1-.22-1.61-.31a15.41,15.41,0,0,1-2.29-.49c-.84-.27-1.66-.59-2.45-.9l-1.27-.48c-.48-.18-1-.34-1.47-.5-.75-.24-1.52-.49-2.29-.81l-1.25-.51c-.8-.32-1.62-.64-2.43-1-1.36-.66-2.52-1.25-3.56-1.81a17.37,17.37,0,0,1-2-1.36c-.45-.34-.87-.66-1.3-.93s-.91-.52-1.38-.76a19.2,19.2,0,0,1-2.1-1.24,1.42,1.42,0,1,1,1.65-2.3,16.2,16.2,0,0,0,1.77,1c.53.27,1.06.55,1.56.86s1,.72,1.51,1.08a14.2,14.2,0,0,0,1.64,1.13c1,.54,2.11,1.11,3.43,1.74.72.35,1.46.65,2.25,1l1.3.53c.65.27,1.34.49,2.06.73.53.17,1.06.34,1.58.53l1.31.5c.79.31,1.54.6,2.3.84a13.68,13.68,0,0,0,1.87.39,16.8,16.8,0,0,1,1.9.38,11.84,11.84,0,0,1,2,.79,7.78,7.78,0,0,0,1.63.65,13.76,13.76,0,0,0,1.9.22,16.58,16.58,0,0,1,1.94.2l.8.15c1,.19,2,.37,3,.5a17.59,17.59,0,0,0,2.1.12c.58,0,1.16,0,1.73.08s1,.1,1.49.15c.81.09,1.57.17,2.32.2,1,0,2,0,2.94,0l.86,0c.65,0,1.27,0,1.86.05a11.75,11.75,0,0,0,2,0,14.83,14.83,0,0,0,2.18-.45c.51-.14,1-.27,1.5-.37l.42-.08a26.18,26.18,0,0,0,3.21-.75l.51-.17a16.72,16.72,0,0,0,2.9-1.12,1.42,1.42,0,0,1,1.36,2.49,19.92,19.92,0,0,1-3.39,1.33l-.5.16a28.13,28.13,0,0,1-3.54.84l-.42.09c-.44.08-.88.2-1.33.32a16.86,16.86,0,0,1-2.62.53A7.88,7.88,0,0,1,226.68,212.54Z"/><path class="cls-5" d="M96.34,168.46a13.54,13.54,0,0,1-1.84-.16,11.7,11.7,0,0,0-1.19-.13c-1-.06-2.1-.15-3.16-.27s-2.11-.27-3.13-.44c-.63-.11-1.23-.26-1.81-.41-.41-.1-.83-.21-1.25-.3s-.85-.15-1.29-.21-1.18-.18-1.79-.32l-2-.48-1.05-.26-1.34-.31c-.57-.13-1.13-.25-1.68-.39s-1.06-.31-1.59-.49-.91-.31-1.37-.42a6.07,6.07,0,0,0-1.27-.11,8.07,8.07,0,0,1-1.84-.18l-.82-.2q-1.08-.27-2.16-.51c-.49-.11-1-.25-1.44-.38a14,14,0,0,0-1.51-.39c-1.09-.21-2.07-.38-3-.52l-1.06-.17c-.67-.11-1.31-.21-1.92-.27a1.42,1.42,0,0,1-1.23-1,1.43,1.43,0,0,1,.43-1.51,8,8,0,0,1,2.16-1.41l.82-.41a6.08,6.08,0,0,1,1.9-.64,3.28,3.28,0,0,0,1.12-.37,5.53,5.53,0,0,0,1.09-.71,8.4,8.4,0,0,1,1.57-1,11.17,11.17,0,0,1,1.63-.7,8,8,0,0,0,1.27-.54c.67-.35,1-.54,1.33-.73l.58-.33-.65-.12c-.56-.11-1.12-.22-1.67-.35a8.64,8.64,0,0,1-1.8-.68,7.45,7.45,0,0,0-1.22-.48c-.48-.12-1-.21-1.46-.3s-1.12-.22-1.68-.36-1.11-.31-1.66-.49-.93-.3-1.41-.42a13.77,13.77,0,0,0-1.41-.24,14.4,14.4,0,0,1-1.75-.32c-.55-.14-1.1-.31-1.64-.48s-1-.3-1.43-.42-1-.22-1.44-.31-1.14-.22-1.69-.37-1.14-.36-1.67-.56-.93-.34-1.37-.47l-1.75-.5-1.33-.38c-.47-.13-1-.23-1.43-.33s-1.13-.24-1.69-.4-1.12-.37-1.65-.57-.91-.35-1.37-.49-.9-.21-1.4-.3a15.19,15.19,0,0,1-1.74-.38,12.62,12.62,0,0,1-1.67-.66,12.39,12.39,0,0,0-1.32-.52,1.42,1.42,0,1,1,.84-2.71,14,14,0,0,1,1.62.64,11,11,0,0,0,1.35.53,10.68,10.68,0,0,0,1.42.31,15.57,15.57,0,0,1,1.69.37c.56.17,1.08.37,1.59.56s1,.37,1.42.5,1,.24,1.49.35,1.08.22,1.62.37l1.35.39,1.71.49c.56.16,1.09.35,1.6.54a14,14,0,0,0,1.42.48,15.19,15.19,0,0,0,1.49.32c.55.11,1.09.21,1.63.35s1,.3,1.56.46,1,.32,1.5.45a13.4,13.4,0,0,0,1.44.25c.55.08,1.12.16,1.7.3s1.06.31,1.59.48,1,.31,1.47.43,1,.22,1.54.32,1,.21,1.58.33a9.78,9.78,0,0,1,1.76.67,6,6,0,0,0,1.24.49c.51.12,1,.22,1.56.32s1,.2,1.56.32a9.57,9.57,0,0,0,1.35.17,14.18,14.18,0,0,1,1.71.23A1.42,1.42,0,0,1,74.7,152a6,6,0,0,1-2.1,1.42c-.24.1-.52.22-.91.42-.67.35-1,.54-1.32.72s-.72.42-1.45.8a12.45,12.45,0,0,1-1.63.7,8.46,8.46,0,0,0-1.28.54,5.86,5.86,0,0,0-1.09.71,8.4,8.4,0,0,1-1.57,1,5.73,5.73,0,0,1-1.87.63l1.88.35a18.1,18.1,0,0,1,1.76.44c.42.12.85.24,1.28.34.74.16,1.47.34,2.22.53l.81.19a5.1,5.1,0,0,0,1.23.1,8.78,8.78,0,0,1,1.9.2c.53.13,1.06.31,1.59.49s.91.3,1.37.42,1.06.25,1.6.37l1.41.32,1.06.27,1.92.47c.52.12,1.06.2,1.59.28s1,.14,1.42.23.93.22,1.39.34,1.07.27,1.57.35c1,.16,2,.3,3,.42s2,.2,3,.25c.47,0,1,.09,1.42.16a11,11,0,0,0,1.55.14h0a1.42,1.42,0,0,1,0,2.83Z"/><path class="cls-5" d="M21.78,197.83a1.42,1.42,0,0,1-.59-2.71,8.19,8.19,0,0,1,1.89-.53,5.59,5.59,0,0,0,1.21-.31,8.84,8.84,0,0,0,1.16-.66,10.85,10.85,0,0,1,1.62-.91l1-.42,1.91-.8a9.91,9.91,0,0,1,1.82-.49,7.58,7.58,0,0,0,1.27-.32,8.64,8.64,0,0,0,1.17-.64,10.47,10.47,0,0,1,1.63-.87c.47-.18.92-.38,1.37-.59s1-.46,1.54-.66a8.63,8.63,0,0,1,1.87-.43,6.41,6.41,0,0,0,1.24-.26l1.68-.66,1.25-.49,1.74-.7,1.17-.47a7.77,7.77,0,0,0,1.19-.68,9.81,9.81,0,0,1,1.57-.87,9.12,9.12,0,0,1,1.8-.48,6.1,6.1,0,0,0,1.25-.33l1-.4c.65-.28,1.29-.55,1.91-.84a9.43,9.43,0,0,0,1.29-.78,12.34,12.34,0,0,1,1.38-.84l.48-.24c.78-.4,1.53-.78,2.25-1.19l1.15-.61c.59-.32,1.2-.64,1.68-1a1.42,1.42,0,0,1,2.17,1.46,4.35,4.35,0,0,1-1.08,2.23,3,3,0,0,0-.58.89c-.32.69-.47,1.05-.61,1.4s-.31.75-.65,1.49-.43,1-.56,1.37-.3.79-.64,1.55a10.12,10.12,0,0,1-.88,1.57,8,8,0,0,0-.66,1.19l-1.31,2.88s0,0,0,0c.47-.19.92-.4,1.38-.62s1-.47,1.52-.67l1.54-.59,1.42-.55,1.42-.59,1.51-.62c.54-.21,1.09-.38,1.63-.55s.94-.29,1.39-.47a6.2,6.2,0,0,0,1.13-.66,9,9,0,0,1,1.66-.93l1.54-.59,1.42-.55c.53-.2,1.08-.37,1.62-.54s.94-.29,1.39-.47l3-1.14c.52-.2,1-.39,1.55-.57l1.43-.52c.43-.17.86-.39,1.32-.62a14,14,0,0,1,1.56-.73,8.35,8.35,0,0,1,1.89-.43,6.37,6.37,0,0,0,1.24-.27,9.16,9.16,0,0,0,1.25-.63,11.37,11.37,0,0,1,1.6-.8,16.75,16.75,0,0,1,1.67-.52,12.91,12.91,0,0,0,1.36-.42c.48-.18,1-.39,1.42-.59s1-.43,1.51-.62.86-.39,1.32-.62a15.82,15.82,0,0,1,1.55-.72,1.42,1.42,0,1,1,1,2.64,13.57,13.57,0,0,0-1.3.61c-.5.25-1,.51-1.58.73s-.94.38-1.4.58-1,.44-1.52.64-1.11.36-1.65.51a14.35,14.35,0,0,0-1.39.42,10,10,0,0,0-1.22.62,11.81,11.81,0,0,1-1.63.82,8.42,8.42,0,0,1-1.85.42,6.66,6.66,0,0,0-1.28.27c-.41.16-.84.38-1.29.61a15.59,15.59,0,0,1-1.59.74c-.49.19-1,.37-1.5.55s-1,.35-1.47.54l-3,1.14c-.51.2-1,.37-1.58.53s-1,.3-1.43.48l-1.44.56-1.52.58a6.08,6.08,0,0,0-1.11.65,8.58,8.58,0,0,1-1.68.94c-.51.21-1,.37-1.58.54a15,15,0,0,0-1.43.48l-1.44.59-1.49.62-1.45.56-1.51.58c-.46.18-.91.39-1.36.6s-1,.48-1.54.68a14.27,14.27,0,0,1-1.69.53,11.4,11.4,0,0,0-1.42.43,1.39,1.39,0,0,1-1.39-.2,1.42,1.42,0,0,1-.54-1.3,4.74,4.74,0,0,1,.89-2.37,5,5,0,0,0,.54-.93l1.31-2.88a11.91,11.91,0,0,1,.87-1.57,7.34,7.34,0,0,0,.67-1.19c.3-.67.43-1,.56-1.36s.3-.79.65-1.55.45-1,.6-1.39l.09-.23-1.17.6-.48.24a9.71,9.71,0,0,0-1.08.67,13.37,13.37,0,0,1-1.67,1c-.65.3-1.32.59-2,.88l-.93.39a8.64,8.64,0,0,1-1.84.51,6.81,6.81,0,0,0-1.26.32,8.93,8.93,0,0,0-1.12.64,9.35,9.35,0,0,1-1.67.92l-1.16.47-1.77.71-1.23.48-1.71.67a7.88,7.88,0,0,1-1.85.42,6.43,6.43,0,0,0-1.26.27c-.47.18-.93.39-1.39.6s-1,.46-1.51.66a7.55,7.55,0,0,0-1.17.63,9.86,9.86,0,0,1-1.62.87,10.18,10.18,0,0,1-1.76.46,7.89,7.89,0,0,0-1.3.34c-.63.25-1.25.51-1.87.78l-1,.43A8.51,8.51,0,0,0,27,196a10.56,10.56,0,0,1-1.56.88,8.51,8.51,0,0,1-1.81.5,6,6,0,0,0-1.25.32A1.36,1.36,0,0,1,21.78,197.83Z"/><path class="cls-12" d="M328.61,187.55c-3.73-9.5-11.45-21.45-14.89-26s-9.13-10.21-17.88-9.24a12.9,12.9,0,0,0-10.16,7.48,2.46,2.46,0,0,1-3.11,1.23c-12.43-5.32-18.26,2.89-20.16,6.55a2.41,2.41,0,0,1-2.53,1.27c-12.4-1.91-16.82,7.48-18.15,11.64a2.43,2.43,0,0,1-2.36,1.67c-2.47-.1-7,.52-11,5.35-5.91,7.08-1.92,14.89.72,19.39,1.49,2.55,4.79,4.86,6.88,9.47,1.59,3.53-2.45,10.8-.14,18.14,3.05,9.75,29,21.75,40.46,22.08.82.48,1.67.93,2.48,1.43,14,9.58,25.61,23.14,36.88,35.66l14.88,18.13c1.11,1.24,4.95,5.87,9.51,11.69V216.26C334.59,203,328.61,187.55,328.61,187.55Z"/><path d="M251.13,233.43a1.4,1.4,0,0,1-1.14-.58l-.57-.78c-.61-.85-1.24-1.73-1.89-2.55-.79-1-1.65-2-2.63-3.18a14.62,14.62,0,0,0-1.5-1.4,20.06,20.06,0,0,1-1.54-1.42c-.33-.35-.66-.71-1-1.07-.62-.68-1.2-1.33-1.83-1.94a1.42,1.42,0,1,1,2-2c.68.67,1.32,1.37,1.94,2,.31.35.63.7,1,1a17.2,17.2,0,0,0,1.31,1.21,15,15,0,0,1,1.8,1.7c1,1.17,1.9,2.24,2.72,3.27.68.87,1.33,1.78,2,2.65l.56.77a1.42,1.42,0,0,1-.31,2A1.4,1.4,0,0,1,251.13,233.43Z"/></g></svg>