<svg xmlns="http://www.w3.org/2000/svg" viewBox="0 0 200 200"><defs><style>.cls-1{fill:#f56977;}.cls-2{fill:#fff;}.cls-3{fill:#27b5f7;}.cls-4{fill:#f8c341;}</style></defs><g id="圖"><path class="cls-1" d="M95.28,179.26a4.14,4.14,0,0,1-4.12,4.17,5.43,5.43,0,0,0-5.47,4.72,5.21,5.21,0,0,0,5.23,5.73l7.93,0a7,7,0,0,0,6.92-7L105.63,158,95.18,158Z"/><path class="cls-1" d="M132.14,179.26a4.15,4.15,0,0,0,4.13,4.17,5.42,5.42,0,0,1,5.46,4.72,5.21,5.21,0,0,1-5.22,5.73l-7.94,0a7,7,0,0,1-6.92-7L121.8,158l10.44.06Z"/><polygon class="cls-1" points="113.02 106.03 105.63 102.92 98.53 99.36 91.1 96.55 83.72 93.63 76.58 90.16 69.28 87.06 61.86 84.22 54.7 80.79 47.45 78.2 47.41 86.42 47.55 94.87 47.27 103.32 47.29 111.77 47.52 120.22 47.64 128.67 47.32 137.12 47.24 145.58 47.65 154.03 47.69 162.48 47.34 170.94 47.33 179.39 47.53 187.76 54.81 184.84 62.11 181.73 69.44 178.69 76.64 175.37 83.95 172.28 91.31 169.32 98.6 166.18 105.88 163.04 113.14 160.01 121.02 161.85 128.97 163.74 136.72 166.37 144.63 168.37 152.54 170.24 152.76 161.95 152.37 153.62 152.59 145.28 152.26 136.95 152.51 128.62 152.58 120.28 152.24 111.95 152.33 103.61 152.49 95.2 144.54 97.31 136.75 99.76 128.81 101.64 120.89 103.59 113.02 106.03"/><path class="cls-2" d="M100.57,126.25c0,5.08-1.29,10.58-6.8,10.59s-6.83-5.26-6.84-10.57,3-7.73,6.81-7.73S100.56,121.16,100.57,126.25Z"/><path d="M97.18,123.75c0,2.56-.65,5.33-3.42,5.33s-3.44-2.64-3.44-5.32,1.53-3.89,3.42-3.89S97.18,121.19,97.18,123.75Z"/><path class="cls-2" d="M135.62,126.19c0,5.08-1.3,10.58-6.81,10.59S122,131.52,122,126.21s3-7.73,6.81-7.74S135.61,121.1,135.62,126.19Z"/><path d="M132.23,123.75c0,2.56-.66,5.33-3.43,5.33s-3.44-2.64-3.44-5.32,1.53-3.89,3.43-3.89S132.22,121.19,132.23,123.75Z"/><ellipse class="cls-2" cx="112.96" cy="144.64" rx="3.49" ry="5.91"/><path d="M113,151.62c-2.55,0-4.55-3.07-4.55-7s2-7,4.55-7,4.55,3.07,4.55,7S115.51,151.62,113,151.62Zm0-11.83c-1.14,0-2.43,2.07-2.43,4.85s1.29,4.85,2.43,4.85,2.43-2.08,2.43-4.85S114.11,139.79,113,139.79Z"/><path d="M40.75,98.46a1.08,1.08,0,0,1-.8-.37l-2.32-2.7-2.77-2.17L32,91.07l-3-2.3-2.64-2.49L23.65,84l-3-2.31L18.36,79l-3.08-2-2.72-2.4L7,70A1.07,1.07,0,0,1,8.32,68.4L13.93,73l2.69,2.38,3.25,2.13,2.3,2.7L25,82.32l2.82,2.37,2.64,2.5,2.82,2.19,2.9,2.15,3,2.39,2.39,2.78a1.07,1.07,0,0,1-.11,1.5A1.08,1.08,0,0,1,40.75,98.46Z"/><path d="M159.46,103.46a1.06,1.06,0,0,1-.81-.38,1.07,1.07,0,0,1,.12-1.5l5.49-4.71,2.46-2.65,2.82-2.6,2.88-2.17L175,87l5.61-4.7,2.53-2.58L186,77.24,188.86,75l2.59-2.51A1.06,1.06,0,0,1,192.93,74l-2.71,2.62-2.88,2.27-2.71,2.38L182,83.88l-5.59,4.69-2.7,2.55-2.89,2.17-2.64,2.44-2.52,2.71-5.55,4.76A1.06,1.06,0,0,1,159.46,103.46Z"/><path class="cls-3" d="M122.7,82.5l.35,3.47-1.73,3-2.44,2.38-3.34,1-3.49-.19-3.35-.89-3.11-1.5L103,87.54l-2.71-2.23-1.52-3.15-1.29-3.27.5-3.44,1.14-3.13,2.33-2.59,3.42-.82,3.5,0,3.43.92,3.11,1.66,3,1.89,2.19,2.78,2,2.89ZM88.62,13.05l3.54.25,3.63.94,3.72.24,3.69.48,3.68.63,3.62.54.42,3.61.27,3.69,1,3.62.19,3.71.75,3.64-.06,3.75.59,3.67.9,3.62.28,3.71.57,3.66.4,3.69.3,3.71.65,3.83-3.82-.75L109.19,63l-3.65-.8-3.69-.61-3.58-.52-1-3.27-.76-3.44-.39-3.51-.8-3.43L94.75,44l-.57-3.47-.94-3.41-.66-3.46-.48-3.5-.84-3.42-1-3.39-.12-3.57-.84-3.43Z"/><path class="cls-1" d="M42,45.81l.84,2.66-2,2L38,51.43l-2.8.18-2.72-.69-2.37-1.41-2.07-1.72-.84-2.67,1.92-2.18L32,42.63l2.75-.38,2.75.46,2.6,1ZM11.66,22.44l2.91-.7,3.08-.38,3.06-.55,3.22-.51,1.64,2.85L27,26l1.78,2.58L30.64,31l1.69,2.63,1.2,2.94,1.91,2.51L32,39.66l-3.4.59-3.36.19-2.1-2.35-1.66-2.82-2.15-2.45-2-2.58L15.5,27.58,13.58,25Z"/><path class="cls-4" d="M158.35,78.24l-2.31,2-2.73,1.59-3.11.7-3.18,0-3-.33-2.38-1.77-.06-2.73,3.24-2.57,3.92-1.5,4.2,0,3.11.17,2.66,1.66Zm1.17-25.79,3.59.22,3.72-.24,3.72.11,3.72.28L172.13,56l-2.49,2.89-2.06,3.2-2.23,3.09-2,3.22-2.47,2.9-4.12.12-4.13-.28-4-.37,1.5-3.13,1.9-3.05,1.73-3.15,1.75-3.15,2-3Z"/><path d="M79.88,79.87a1.05,1.05,0,0,1-1-.65l-1.46-3.49-.84-3.39-1.76-3.26-2.27-6.86-.88-3.6-1-3.31L69.14,52.1,67.8,48.5,67,45l-1.24-3.31-1.56-3.48-.64-3.43L61.8,31.52l-.94-3.41-1.5-3.35L58.3,21.3l-1.15-3.39-.95-3.59L55,11a1.06,1.06,0,1,1,2-.73l1.24,3.4,1,3.6,1.14,3.35,1,3.43,1.52,3.4.93,3.37,1.79,3.42.64,3.46,1.46,3.18,1.34,3.58.8,3.48,1.24,3.31,1.57,3.34,1.08,3.44.88,3.59,2.21,6.68,1.81,3.38.85,3.44,1.37,3.25a1.07,1.07,0,0,1-.57,1.4A1.15,1.15,0,0,1,79.88,79.87Z"/><path d="M133.37,64.61a.84.84,0,0,1-.27,0,1.06,1.06,0,0,1-.76-1.3l1.78-6.83,1.13-3.33.41-3.64,1.1-3.31.71-3.4.85-3.47.61-3.41.37-3.61.82-3.44L142,22l1-3.42.67-3.39L144,11.6l.73-3.46a1.06,1.06,0,1,1,2.08.43L146.07,12l-.38,3.49-.7,3.57-1.92,6.89-.89,3.41-.79,3.35L141,36.17l-.63,3.56-.86,3.5-.75,3.54L137.71,50l-.41,3.66-1.14,3.36-1.76,6.76A1.07,1.07,0,0,1,133.37,64.61Z"/><path d="M170.46,44.78a1.15,1.15,0,0,1-.56-.15,1.08,1.08,0,0,1-.35-1.47l1.9-3.08,2-3.19,2.28-2.68,1.51-3.29,1.86-3.12,2-3.09,2-3.05a1.08,1.08,0,0,1,1.48-.3,1.06,1.06,0,0,1,.3,1.47l-2,3L181,28.92l-1.81,3-1.65,3.52-2.33,2.73-1.91,3-1.88,3.08A1.07,1.07,0,0,1,170.46,44.78Z"/><path d="M52.18,71.87a1.07,1.07,0,0,1-.82-.39l-2.54-3.11-2-3.21-2.6-3-2-3.34A1.06,1.06,0,1,1,44,57.69L46,61l2.57,3,2,3.22L53,70.13a1.05,1.05,0,0,1-.15,1.49A1,1,0,0,1,52.18,71.87Z"/></g></svg>