<svg xmlns="http://www.w3.org/2000/svg" viewBox="0 0 340 400"><defs><style>.cls-1{fill:#27b5f7;}.cls-2{fill:#231815;}.cls-3{fill:#fff;}.cls-4{fill:#e1e1e1;}.cls-5{fill:#f56977;}.cls-6{fill:#e6e6e7;}.cls-7{fill:#f8c341;}.cls-8{fill:#fae7e7;}</style></defs><g id="圖"><rect class="cls-1" width="340" height="400" rx="31.55"/><path class="cls-2" d="M56.52,353.26v6.08c0,1.48-.28,2.22-1.14,2.65a8.21,8.21,0,0,1-3.86.56,10.07,10.07,0,0,0-.86-2.75c1,0,2.06,0,2.39,0s.49-.13.49-.48v-5.28l-2.58.66-.79-2.91c1-.2,2.12-.46,3.37-.74v-4.49h-3v-2.81h3v-4.84h3v4.84H59.2v2.81H56.52v3.75l1.87-.46.38,2.78Zm16.13-2.6A16,16,0,0,1,68.28,358a21.87,21.87,0,0,0,5.9,1.93,15,15,0,0,0-1.91,2.81A20.92,20.92,0,0,1,65.68,360a24.64,24.64,0,0,1-6.94,2.73A12.81,12.81,0,0,0,57.26,360a20.87,20.87,0,0,0,5.9-1.93,18.61,18.61,0,0,1-3.52-4.93l.94-.33H59.1V350H70.17l.54-.13Zm-12.73-1a11.83,11.83,0,0,0-2-2.17c3-1.38,3.39-3.22,3.39-5v-2.73h9v5.56c0,.74,0,1.05.41,1.05h1.38a6.43,6.43,0,0,0,1.43-.18c0,.77.12,1.81.22,2.53a5,5,0,0,1-1.6.18H70.43c-2.5,0-3-1.07-3-3.63v-2.7l-3.29,0C64.1,345.13,63.36,348,59.92,349.62Zm2.65,3.16a12.35,12.35,0,0,0,3.14,3.57,12.21,12.21,0,0,0,3-3.57Z"/><path class="cls-2" d="M100.76,344H86.09v-2.22c-.79.26-1.66.51-2.57.72v3.62h2.85V349H83.52v.39c.48.43,1.83,1.83,2.55,2.65v-.66h14.51v8.82c0,1.18-.18,1.81-.92,2.2a5.62,5.62,0,0,1-2.9.41,8.52,8.52,0,0,0-.72-2.35c.61,0,1.28,0,1.48,0s.31-.07.31-.28V353.8H88.77v9h-2.7V353l-1.36,2a22.57,22.57,0,0,0-1.19-2.32v10.16H80.68v-8.91a21,21,0,0,1-2.5,4.82,18.59,18.59,0,0,0-1.45-3A24.48,24.48,0,0,0,80.2,349H77.34v-2.83h3.34V343c-.94.13-1.86.25-2.75.33a10,10,0,0,0-.82-2.35,35.66,35.66,0,0,0,7.35-1.73l1.63,2.4v-.21h5.74c-.25-.66-.53-1.3-.79-1.89l3-.79c.41.82.89,1.84,1.23,2.68h5.53Zm-13.19,6.41v-5.54H99.1v5.54Zm9.24,9.85H89.87v-5.54h6.94Zm-6.59-11.89H96.3v-1.48H90.22Zm4.34,8.36H92v1.54h2.55Z"/><path class="cls-2" d="M125.13,350.28c-.11-.31-.26-.64-.41-1-2,.12-3.27.22-4.11.33a26.37,26.37,0,0,0,7.53,2.93,11,11,0,0,0-1.92,2.35,25.81,25.81,0,0,1-10.66-6,19.5,19.5,0,0,1-5.79,4.38,23.87,23.87,0,0,0,6.5-2.62l2.12,1.09a27.54,27.54,0,0,1-8,3.58,11.55,11.55,0,0,0-1.43-1.66,32.25,32.25,0,0,1-3.52,1.4,14.54,14.54,0,0,0-1.63-2.4,22.29,22.29,0,0,0,7.14-3.19c-3.7.26-4.44.39-5,.59a21.63,21.63,0,0,0-1-2.37,2,2,0,0,0,1-.67,10.74,10.74,0,0,0,1.53-2.62l.07,0c-.15-.56-.53-1.63-.79-2.27a6.43,6.43,0,0,0,1.69-.64,21.09,21.09,0,0,0,4.38-2.75l2.66,1.3a28.91,28.91,0,0,1-3,1.86l6.66-.15a22.48,22.48,0,0,0-1.89-1.46l2.3-1.07a38.25,38.25,0,0,1,5.23,4.44l-2.42,1.18-.92-1c-10.67.38-12.56.4-13.63.68l2.38.95a13.84,13.84,0,0,1-1.48,2l1.83-.08a7.23,7.23,0,0,0-.56-1l2.17-.62c.31.59.66,1.25,1,1.89a9.31,9.31,0,0,0,1.71-2.35l2.78.79c-.15.29-.33.54-.46.8a9.87,9.87,0,0,0,.71.76v0a1.66,1.66,0,0,0,.87-.67,9.8,9.8,0,0,0,1.23-2.52l2.68,1.07a16.31,16.31,0,0,1-1.23,1.89l2.14-.11c-.25-.38-.51-.74-.76-1.07l2.09-.81a15,15,0,0,1,2.5,3.95Zm-.95,6.4c-3.37,3.55-9.23,5.23-15.77,6.1a8.81,8.81,0,0,0-1.35-2.42c6.1-.59,11.84-2,14.67-4.85Zm-3-2.57c-2.75,2.29-7.19,3.9-11.38,4.77a10.22,10.22,0,0,0-1.5-2.15c3.9-.63,8.34-1.93,10.61-3.75Z"/><path class="cls-2" d="M154.31,356.91h-7.19a70.29,70.29,0,0,1,6.5,3.42l-2,2.32a61.79,61.79,0,0,0-7-4l1.35-1.76h-7.57l2.14,1.76a46.89,46.89,0,0,1-7.88,4.06,19.59,19.59,0,0,0-1.69-2.27,32.82,32.82,0,0,0,6.89-3.55h-7v-2.8h2.29l-.43-13.17a42.35,42.35,0,0,0,4.87-1.89l1.3,2.48c-1.07.38-2.27.69-3.42,1l.08,2.3h2.91v2.47h-2.83l.07,2.2h2.84V352h-2.76l.08,2.15h13.31c.05-.67.08-1.33.13-2.07h-2.58v-2.5h2.68c0-.71.06-1.45.08-2.19H147v-2.5h2.66c0-.74,0-1.46,0-2.2h-2.93v-2.6h5.71c0,4.54-.12,10.23-.33,14.06h2.22Zm-12.17-8.29a10.61,10.61,0,0,1-1.3,4.42,13,13,0,0,0-1.91-1.2,7.61,7.61,0,0,0,.94-3.6Zm1.23-1h-3.86v-8.47h2.58v1.73h4v2.5h-4v1.86h2.83v.05h1v6.46c0,1.05-.2,1.48-.89,1.81a7.62,7.62,0,0,1-2.91.31,8.32,8.32,0,0,0-.66-1.87,10.39,10.39,0,0,0,1.63,0c.23,0,.31-.05.31-.28Z"/><path class="cls-2" d="M179.67,347.81a29.8,29.8,0,0,1-4.39,8.75c.74,1.83,1.56,2.9,2.37,2.9.62,0,.92-1.27,1-4.46a8.29,8.29,0,0,0,2.58,1.71c-.49,4.72-1.51,5.84-3.88,5.84-1.79,0-3.19-1.27-4.31-3.37a21.38,21.38,0,0,1-4.31,3.47,20.41,20.41,0,0,0-2.2-2.5,19.36,19.36,0,0,0,5.21-4.13A52.29,52.29,0,0,1,170,345.74h-7.4v2.73h6.3s0,.79,0,1.15c-.07,5.35-.23,7.63-.81,8.36a2.41,2.41,0,0,1-1.76,1,20,20,0,0,1-2.94.07,6.88,6.88,0,0,0-.84-2.83c.92.08,1.79.1,2.19.1a.83.83,0,0,0,.77-.3c.26-.36.36-1.59.43-4.8h-3.31c-.11,3.72-.64,8.7-2.73,11.81a13,13,0,0,0-2.58-2.06c1.94-3.07,2.12-7.51,2.12-10.82v-7.45h10.41c0-1.25-.11-2.5-.11-3.78h3.19c0,1.28,0,2.53,0,3.78h3.91a31.83,31.83,0,0,0-3.27-2.22l1.84-1.81a20.81,20.81,0,0,1,4.16,2.73l-1.23,1.3h2.66v3h-7.89a61.15,61.15,0,0,0,1,7,25.6,25.6,0,0,0,2.45-5.66Z"/><path class="cls-2" d="M207.38,353.8c-.44,4.95-.87,7.09-1.66,7.91a2.69,2.69,0,0,1-1.92.94,21.32,21.32,0,0,1-3,.06A6.64,6.64,0,0,0,200,360a19.63,19.63,0,0,0,2.48.13,1.11,1.11,0,0,0,.84-.28c.41-.41.74-1.69,1-4.6H189.13a14,14,0,0,1-1.3.87l2.32.74a10.63,10.63,0,0,1-3,5.77l-2.37-1.51a9.21,9.21,0,0,0,2.75-4.82c-.61.38-1.25.72-1.89,1.05a17.92,17.92,0,0,0-1.58-2.66,23.21,23.21,0,0,0,9.77-8.75h-8.19v-2.65H190a19.92,19.92,0,0,0-1.61-3.24l2.63-1a18,18,0,0,1,2,3.72l-1.28.54h3.7a29.46,29.46,0,0,0,1.76-4.36l3,.84c-.44,1.2-.92,2.37-1.46,3.52h5c-.25,1.53-.64,3.26-1,4.67h2.91c-.28,1.53-.61,3.32-.92,4.69h2.73Zm-13.88,3a18.11,18.11,0,0,1,.69,4.69l-2.63.33a18,18,0,0,0-.51-4.72Zm.64-6.25a24.67,24.67,0,0,1-1.92,2.06H202c.15-.61.3-1.32.46-2.06Zm3.13,5.79a20,20,0,0,1,1.23,4.13l-2.43.61a21.87,21.87,0,0,0-1.17-4.23Zm0-10.44c-.38.69-.79,1.35-1.22,2H200c.16-.61.31-1.3.44-2Zm2.84,13.86a14.51,14.51,0,0,0-1.51-3.45l2.09-.71A13,13,0,0,1,202.4,359Z"/><path class="cls-2" d="M234.39,343.16a31.73,31.73,0,0,1-3,2.35,18.35,18.35,0,0,0,3.65,1.43,10.81,10.81,0,0,0-1.81,2.4,17.66,17.66,0,0,1-2.91-1.23v2.2c0,.61.05.81.38.81h1.25a5.08,5.08,0,0,0,1.3-.13c.06.62.11,1.48.21,2.07a5,5,0,0,1-1.48.15h-1.58c-2.15,0-2.55-.86-2.55-2.93V348.8h-2.35a5.92,5.92,0,0,1-2.81,5.05,11.31,11.31,0,0,0-1.53-1.63V353H216.1c-.1.59-.18,1.2-.25,1.77h5.3s0,.68-.05,1c-.28,3.45-.59,5.1-1.25,5.77a2.72,2.72,0,0,1-2,.84,29.92,29.92,0,0,1-3.37,0,5.72,5.72,0,0,0-.87-2.52c1.28.1,2.53.13,3.09.13a1.17,1.17,0,0,0,.92-.26c.31-.28.54-1.1.71-2.83h-5.35c.35-1.66.76-4.19,1-6.2h4.52V349h-3.7v-.41a19.55,19.55,0,0,1-2.32,1,11.79,11.79,0,0,0-1.64-2.22,16.65,16.65,0,0,0,4.29-2,25.24,25.24,0,0,0-2.37-1.53l1.73-1.61a17.46,17.46,0,0,1,2.68,1.61,12.05,12.05,0,0,0,1.48-1.64h-5v-2.37h6.66l.51-.13,1.87.92a14.39,14.39,0,0,1-4.8,6.05h3.34v5.07a3.67,3.67,0,0,0,1.81-3.41V346.5h4.88a17.78,17.78,0,0,1-5.16-6.76l2.43-.71a10.23,10.23,0,0,0,1.45,2.4,24.45,24.45,0,0,0,2.4-2.35l2.17,1.56c-1,.86-2.15,1.78-3.12,2.47.44.41.9.79,1.36,1.15a22.73,22.73,0,0,0,2.83-2.65Zm-1.86,11.28a11.34,11.34,0,0,1-2.81,4.54c1.15.64,2.2,1.28,3,1.79l-1.53,2c-.87-.61-2.09-1.4-3.47-2.22a18.8,18.8,0,0,1-5.69,2.2,8.51,8.51,0,0,0-1.27-2.2,16.1,16.1,0,0,0,4.54-1.43c-1.25-.69-2.45-1.38-3.55-2l1-1.23h-.61v-2h8.29l.46-.08Zm-8.47,1.5c1.07.56,2.25,1.15,3.39,1.79a9.42,9.42,0,0,0,1.61-1.79Z"/><path class="cls-2" d="M257.53,358.78H261v2.09h-3.47v1.91h-3v-1.91H238.37v-2.09H242v-6.2h-2.85v-2.1h.12c-.45-.28-1-.58-1.3-.74a4.72,4.72,0,0,0,1.48-3.75v-1.55h9.62v4.21h-7.65a5.84,5.84,0,0,1-.92,1.83h9.82a7.54,7.54,0,0,0-1.1-1.91,21.52,21.52,0,0,0,3.5-.66A8.12,8.12,0,0,1,250.9,346l.81-.23h-1.45v-1.61a6.32,6.32,0,0,0-1.07-1c1.94-.67,2.22-1.46,2.22-2.33v-1.25h7v2.1c0,.45,0,.68.41.68h.87a5.76,5.76,0,0,0,1.3-.15c.05.61.08,1.2.15,1.81a4.42,4.42,0,0,1-1.4.16h-1.05l1.41.51a7.79,7.79,0,0,1-2.58,3.31,18.92,18.92,0,0,0,3.7.61,8.78,8.78,0,0,0-1.38,1.94h.59v2.1h-2.86Zm-14.75-17.25h-4.33V340h4.33v-1.1h2.74V340h4.18v1.53h-4.18v.74H249v1.5h-9.85v-1.5h3.59Zm-1,4.36V346c0,.36,0,.75-.05,1.15h1.43v-1.3Zm3.19,6.69v.86h9.59v-.86Zm0,3.54h9.59v-.89h-9.59Zm9.59,2.66v-.87h-9.59v.87Zm-7.78-12.89h-1.51v1.3h1.51Zm12.5,4.59a16.32,16.32,0,0,1-4.13-1.17,20.24,20.24,0,0,1-4,1.17Zm-5.56-9a3.76,3.76,0,0,1-1.56,2.65H258l.15,0h-.07c-1.86,0-2.17-.85-2.17-2.5v-.13Zm-.36,4.26A5.16,5.16,0,0,0,255,347a6.15,6.15,0,0,0,1.64-1.22Z"/><path class="cls-2" d="M278.76,349.31c-1,.72-2,1.38-3,2H285v11.33h-3.17V362h-8.77v.76h-3v-8.34c-1.27.56-2.6,1.12-3.9,1.61a16.52,16.52,0,0,0-1.86-2.5,46.08,46.08,0,0,0,9.49-4.24h-8.68v-2.68h8.19v-2.32h-6v-2.63h6v-2.75h3v2.75h5.54v1.25a30.56,30.56,0,0,0,2.63-3.24l2.6,1.33a37.53,37.53,0,0,1-5,5.61h5.92v2.68Zm3.08,4.52h-8.77v1.63h8.77Zm0,5.66v-1.74h-8.77v1.74Zm-5.56-12.86h1.4a34.53,34.53,0,0,0,2.76-2.32h-4.16Z"/><path class="cls-2" d="M49.46,365v-1.27H290.54V365Z"/><path class="cls-3" d="M43,299.48c1,1,1.27.2,2.71.2s1.45.11,2.89.11,1.44-.39,2.88-.39,1.44-.06,2.88-.06,1.45.14,2.89.14,1.44-.07,2.88-.07,1.44.66,2.88.66,1.45-.46,2.89-.46h2.88c1.45,0,1.45-.33,2.89-.33s1.44,0,2.88,0,1.44.11,2.89.11,1.44.49,2.88.49,1.44-.38,2.88-.38,1.45.43,2.89.43,1.44-.5,2.88-.5,1.44.49,2.89.49,1.44-.19,2.88-.19,1.44.34,2.89.34,1.44-.08,2.88-.08,1.44-.68,2.88-.68,1.45,0,2.89,0,1.44-.12,2.88-.12,1.44.95,2.88.95,1.44,0,2.87,0,1.44-.22,2.88-.22,1.44-.73,2.88-.73,1.44.81,2.88.81,1.44.09,2.89.09,1.44-.3,2.88-.3,1.44-.08,2.88-.08,1.45.3,2.89.3,1.44-.06,2.88-.06,1.44-.61,2.89-.61,1.44.36,2.88.36,1.44.24,2.88.24,1.44-.34,2.88-.34,1.44-.33,2.88-.33,1.44.17,2.88.17,1.45-.07,2.89-.07,1.44.59,2.89.59,1.44-.36,2.88-.36,1.44-.11,2.88-.11,1.45.28,2.89.28,1.44.08,2.88.08,1.44-.49,2.88-.49,1.45.22,2.89.22,1.44.21,2.88.21,1.45-.24,2.89-.24,1.44-.28,2.89-.28,1.44.45,2.88.45,1.44-.05,2.88-.05,1.45-.45,2.89-.45,1.44.12,2.89.12,1.44.38,2.88.38,1.45-.05,2.89-.05,1.44.26,2.88.26,1.45-.34,2.89-.34,1.44-.12,2.89-.12,1.44-.17,2.88-.17,1.45.23,2.89.23,1.44.4,2.89.4,1.44,0,2.88,0,1.45-.7,2.89-.7,1.44.83,2.89.83,1.44-.68,2.89-.68,1.44-.09,2.88-.09,1.45.29,2.89.29,1.44.25,2.89.25,1.44-.39,2.89-.39,1.44.07,2.88.07,1.44.29,2.88.29,1.45-.56,2.89-.56,1.44.06,2.89.06,1.44,0,2.88,0,1.45.2,2.89.2,1.45.45,2.89.45,1.45.21,2.89.21,1.44-.23,2.89-.23,1.44-.32,2.89-.32,1.44.28,2.89.28,1.44-.23,2.89-.23,1.44.16,2.89.16,1.44.13,2.89.13,1.44-.57,2.89-.57,1.45.15,2.89.15l2.9,0c1.45,0,2.1,1.42,3.14.4s.19-1.67.19-3.1-.56-1.43-.56-2.86.49-1.43.49-2.86,0-1.43,0-2.86-.71-1.43-.71-2.86.74-1.43.74-2.86-.36-1.43-.36-2.86,0-1.43,0-2.86,0-1.43,0-2.86.28-1.43.28-2.86-.85-1.43-.85-2.86.51-1.43.51-2.86-.35-1.43-.35-2.86,0-1.43,0-2.86.54-1.43.54-2.86-.05-1.43-.05-2.87.18-1.42.18-2.85-.77-1.43-.77-2.86.17-1.43.17-2.86.41-1.44.41-2.87-.59-1.43-.59-2.86.32-1.43.32-2.86.55-1.43.55-2.87S297,232.42,297,231s-.74-1.43-.74-2.86.13-1.43.13-2.86-.05-1.43-.05-2.86.14-1.44.14-2.87-.18-1.43-.18-2.86.06-1.43.06-2.86.4-1.43.4-2.87.27-1.43.27-2.86-.83-1.43-.83-2.86.23-1.44.23-2.87.34-1.43.34-2.86.3-1.43.3-2.87.12-1.43.12-2.86-.82-1.43-.82-2.86-.07-1.44-.07-2.87.62-1.43.62-2.86-.16-1.44-.16-2.87.26-1.43.26-2.86.14-1.43.14-2.87-.1-1.43-.1-2.86-.26-1.43-.26-2.86-.4-1.43-.4-2.86-.13-1.43-.13-2.87.9-1.43.9-2.86-.43-1.43-.43-2.87.07-1.43.07-2.86.09-1.43.09-2.87.08-1.43.08-2.86-.13-1.44-.13-2.87.08-1.43.08-2.87.13-1.43.13-2.87-.54-1.43-.54-2.86,0-1.43,0-2.87.65-1.43.65-2.87-.59-1.43-.59-2.87.31-1.43.31-2.87.2-1.47-.35-2.79a5,5,0,0,0-1.65-2.35c-1-1-1.37-.68-2.39-1.7s-.64-1.41-1.66-2.44-1.49-.57-2.51-1.6-.5-1.55-1.52-2.58-1.15-.9-2.18-1.93-1-1.08-2-2.11-1.23-.83-2.25-1.86-1.21-.84-2.23-1.87-1-1-2.07-2-.89-1.16-1.91-2.19-1.31-.74-2.34-1.77-.38-1.66-1.4-2.69-1-1-2-2.07-1.66-.39-2.68-1.42S265.09,93,264.07,92,263,91,262,90s-1.38-.67-2.4-1.7-.52-1.53-1.54-2.56-1.36-.69-2.38-1.72-1-1.09-2-2.12-1.2-.85-2.23-1.88-1-1-2-2.06S249,76.33,248,75.3s-1.48-.58-2.5-1.61-.87-1.18-1.89-2.21-1.28-.78-2.3-1.81-1.11-.94-2.14-2-.5-1.55-1.52-2.58-1.55-.51-2.57-1.54-.6-1.46-1.62-2.49-1.06-1-2.09-2-1.2-.85-2.22-1.88-.83-1.22-1.86-2.25-.87-1.18-1.9-2.21S224,52,223,51s-.8-1.26-1.82-2.29-1.45-.61-2.48-1.65-.41-1.89-1.75-2.45-1.51-.18-3-.18-1.45-.11-2.9-.11-1.45-.05-2.9-.05-1.45.77-2.9.77-1.45-.77-2.9-.77-1.45.53-2.9.53-1.45-.06-2.89-.06-1.45-.36-2.9-.36-1.45.81-2.9.81-1.45,0-2.89,0-1.45,0-2.9,0-1.45-.62-2.9-.62-1.45-.06-2.9-.06-1.45.53-2.9.53-1.45-.19-2.9-.19-1.45.39-2.9.39-1.45-.57-2.9-.57-1.45.36-2.9.36-1.45-.64-2.9-.64-1.45.67-2.9.67-1.45-.5-2.9-.5-1.45.51-2.9.51-1.45-.35-2.9-.35-1.45.42-2.9.42-1.45,0-2.9,0-1.45-.68-2.9-.68-1.45.17-2.9.17-1.45.19-2.9.19-1.45,0-2.9,0-1.45.05-2.9.05-1.45.25-2.91.25-1.45-.29-2.9-.29-1.45.3-2.9.3-1.45-.59-2.9-.59-1.45.45-2.9.45-1.45.08-2.9.08-1.46,0-2.91,0-1.45-.81-2.9-.81-1.45.31-2.9.31-1.45.41-2.91.41S99.45,45,98,45s-1.45-.68-2.9-.68-1.45.08-2.9.08-1.45.56-2.9.56-1.45-.34-2.9-.34H83.5c-1.45,0-1.45.38-2.9.38s-1.46.09-2.91.09-1.45-.28-2.9-.28-1.45-.05-2.9-.05-1.46-.34-2.91-.34h-2.9c-1.46,0-1.46.45-2.91.45s-1.45-.57-2.9-.57-1.46.35-2.91.35-1.45-.44-2.9-.44-1.46,0-2.91,0-1.45.16-2.91.16-1.45.61-2.91.61-2-1.46-3-.43.24,1.57.24,3-.23,1.43-.23,2.86.4,1.43.4,2.86.21,1.43.21,2.87-.68,1.43-.68,2.86-.1,1.43-.1,2.86,0,1.43,0,2.86-.09,1.43-.09,2.86-.07,1.44-.07,2.87.54,1.43.54,2.86-.43,1.43-.43,2.87.71,1.43.71,2.86S43,80.5,43,81.93s-.14,1.43-.14,2.87-.18,1.43-.18,2.86.33,1.43.33,2.86-.62,1.43-.62,2.86-.08,1.44-.08,2.87.66,1.43.66,2.86-.62,1.43-.62,2.87.61,1.43.61,2.86-.31,1.43-.31,2.86.58,1.43.58,2.87-.77,1.43-.77,2.85.18,1.43.18,2.86-.31,1.43-.31,2.86.75,1.43.75,2.86,0,1.43,0,2.86-.54,1.43-.54,2.86.65,1.43.65,2.86-.34,1.43-.34,2.86,0,1.43,0,2.87-.12,1.43-.12,2.86-.38,1.43-.38,2.86.19,1.43.19,2.86,0,1.43,0,2.86.44,1.44.44,2.87-.21,1.43-.21,2.86v2.86c0,1.43-.16,1.43-.16,2.86s.21,1.43.21,2.86.46,1.44.46,2.87-.94,1.43-.94,2.86.39,1.43.39,2.87-.35,1.43-.35,2.86.6,1.43.6,2.86.32,1.43.32,2.86-.38,1.43-.38,2.87-.29,1.43-.29,2.86.24,1.43.24,2.87.2,1.43.2,2.86,0,1.43,0,2.86-.46,1.44-.46,2.87.2,1.43.2,2.86-.07,1.44-.07,2.87-.39,1.43-.39,2.86.76,1.44.76,2.87-.67,1.43-.67,2.86.63,1.44.63,2.87.25,1.43.25,2.87-.1,1.43-.1,2.86v2.87c0,1.43-.15,1.43-.15,2.86s.17,1.44.17,2.87-.7,1.43-.7,2.87.77,1.43.77,2.86-.41,1.44-.41,2.87-.53,1.43-.53,2.87,0,1.43,0,2.86.92,1.44.92,2.87-.37,1.43-.37,2.86-.18,1.44-.18,2.87-.18,1.43-.18,2.86.2,1.43.2,2.87v2.87c0,1.43-.29,1.43-.29,2.86s.81,1.43.81,2.87,0,1.43,0,2.86-.44,1.44-.44,2.87-.29,1.44-.29,2.87.09,1.44.09,2.87.32,1.43.32,2.87-.56,1.43-.56,2.87,0,1.43,0,2.87.87,1.43.87,2.87-.51,1.43-.51,2.87.38,1.43.38,2.87a10.77,10.77,0,0,1-.25,2.89C42.64,298.21,42,298.46,43,299.48Z"/><polygon class="cls-4" points="216.9 124.99 297.18 124.99 216.9 44.71 216.9 124.99"/><path class="cls-5" d="M99.1,112.78a2.42,2.42,0,0,1-2.41,2.43A3.16,3.16,0,0,0,93.5,118a3,3,0,0,0,3,3.35l4.63,0a4.05,4.05,0,0,0,4-4.07l0-16.84-6.1,0Z"/><path class="cls-5" d="M81.6,112.78a2.43,2.43,0,0,1-2.41,2.43A3.16,3.16,0,0,0,76,118a3,3,0,0,0,3,3.35l4.63,0a4.06,4.06,0,0,0,4-4.07l-.06-16.85-6.09,0Z"/><polygon class="cls-5" points="92.95 70.11 88.65 68.29 84.51 66.2 80.18 64.56 75.88 62.85 71.72 60.81 67.46 59 63.14 57.34 58.97 55.33 54.74 53.81 54.71 58.6 54.78 63.53 54.61 68.46 54.62 73.39 54.74 78.32 54.8 83.25 54.6 88.18 54.55 93.11 54.78 98.04 54.8 102.97 54.58 107.9 54.57 112.83 54.68 117.71 58.93 116.02 63.18 114.21 67.46 112.45 71.67 110.52 75.93 108.72 80.23 107 84.48 105.18 88.73 103.35 92.97 101.6 97.57 102.68 102.2 103.79 106.72 105.33 111.33 106.5 115.94 107.61 116.08 102.77 115.86 97.91 115.99 93.05 115.81 88.19 115.96 83.33 116.02 78.47 115.82 73.6 115.89 68.74 115.99 63.84 111.35 65.06 106.81 66.48 102.17 67.57 97.55 68.69 92.95 70.11"/><path class="cls-3" d="M85.68,81.89c0,3-.77,6.17-4,6.17s-4-3.07-4-6.17,1.78-4.5,4-4.5S85.68,78.92,85.68,81.89Z"/><path d="M84.34,82.17c0,2-.51,4.09-2.64,4.09s-2.64-2-2.64-4.09,1.18-3,2.64-3S84.34,80.2,84.34,82.17Z"/><path class="cls-3" d="M106.12,81.89c0,3-.77,6.17-4,6.17s-4-3.07-4-6.17,1.78-4.5,4-4.5S106.12,78.92,106.12,81.89Z"/><path d="M104.77,82.17c0,2-.5,4.09-2.63,4.09s-2.64-2-2.64-4.09,1.18-3,2.64-3S104.77,80.2,104.77,82.17Z"/><path d="M91.92,94.22A6,6,0,0,1,87.23,92a.72.72,0,0,1,.16-1,.71.71,0,0,1,1,.15,4.63,4.63,0,0,0,7,0,.73.73,0,0,1,1-.15.71.71,0,0,1,.15,1A6,6,0,0,1,91.92,94.22Z"/><path class="cls-6" d="M179.49,67.43a11.28,11.28,0,0,1-2.26-.2,3.93,3.93,0,0,0-.84-.07l-1.68,0c-.36,0-.71,0-1.43,0h-3.1c-.87,0-1.3,0-1.74,0s-.68,0-1.36,0a5.51,5.51,0,0,0-.93.07,13.13,13.13,0,0,1-2.18.16c-.94,0-1.46,0-1.88-.07s-.61,0-1.22,0a4,4,0,0,0-.87.08,13.22,13.22,0,0,1-2.24.18,10,10,0,0,1-2.61-.33,1.29,1.29,0,0,0-.5-.07,1.91,1.91,0,0,0-.59.07,10,10,0,0,1-2.51.29,8.77,8.77,0,0,1-2.76-.41l-.18,0h-.17a8,8,0,0,0-1.12.06,18.6,18.6,0,0,1-2,.1,2.59,2.59,0,0,0-.71.07,11.05,11.05,0,0,1-2.39.24c-.73,0-1.09,0-1.45,0s-.83,0-1.67,0-1.33,0-1.78,0-.67,0-1.33,0a4.25,4.25,0,0,1,0-8.5c.89,0,1.34,0,1.78,0s.67,0,1.33,0,1.09,0,1.45,0,.83,0,1.67,0a3,3,0,0,0,.71-.07,10.34,10.34,0,0,1,2.39-.25,10.18,10.18,0,0,0,1.12-.05,16,16,0,0,1,2-.11,8.77,8.77,0,0,1,2.76.41l.18,0h.17a1.91,1.91,0,0,0,.59-.07,10,10,0,0,1,2.51-.29,9.54,9.54,0,0,1,2.61.33,1.49,1.49,0,0,0,.5.06,4.18,4.18,0,0,0,.87-.07,13.12,13.12,0,0,1,2.24-.18c.94,0,1.46,0,1.87.07a11.59,11.59,0,0,0,1.23.05,4.69,4.69,0,0,0,.93-.07,13.13,13.13,0,0,1,2.18-.16c.86,0,1.3,0,1.73,0s.69,0,1.37,0h3.1c.84,0,1.26,0,1.68,0l1.43,0a12.16,12.16,0,0,1,2.26.19,3.93,3.93,0,0,0,.84.07h.15l.11,0a8.55,8.55,0,0,1,2.85-.45,13,13,0,0,1,2.21.17,4.26,4.26,0,0,0,.89.07,13.87,13.87,0,0,1,2.09.14,6.55,6.55,0,0,0,1,.06h3.1c.65,0,1,0,1.31,0s.9,0,1.79,0a18.29,18.29,0,0,1,1.93.09,11.19,11.19,0,0,0,1.18,0,2.44,2.44,0,0,0,.69-.07,10.54,10.54,0,0,1,2.41-.25c.61,0,.92,0,1.23,0a18.14,18.14,0,0,1,1.87-.08,4.26,4.26,0,0,1,0,8.51,11.59,11.59,0,0,0-1.23,0c-.41,0-.93.07-1.87.07a2.52,2.52,0,0,0-.7.07,11,11,0,0,1-2.4.25,18.29,18.29,0,0,1-1.93-.09,11.19,11.19,0,0,0-1.18,0c-.65,0-1,0-1.31,0s-.9.05-1.79.05h-3.1a14,14,0,0,1-2.1-.14,6.4,6.4,0,0,0-1-.06,12.72,12.72,0,0,1-2.21-.18,4.39,4.39,0,0,0-.89-.07h-.15l-.11,0A8.87,8.87,0,0,1,179.49,67.43Z"/><path class="cls-7" d="M205,76.11c-1.59,0-1.59.14-3.19.14s-1.6.23-3.19.23-1.6-.09-3.2-.09-1.59.2-3.19.2-1.59-.48-3.19-.48-1.59,0-3.19,0-1.59,0-3.19,0-1.6.26-3.19.26-1.6-.06-3.19-.06-1.6.27-3.2.27H169.9c-1.6,0-1.6-.31-3.2-.31h-3.19c-1.6,0-1.6.15-3.2.15s-1.59.19-3.19.19-1.6.06-3.2.06-1.6-.44-3.19-.44-1.6,0-3.2,0-1.6.31-3.19.31-1.6-.39-3.2-.39-1.6.14-3.21.14-1.6-.16-3.2-.16c-.55,0-1,.73-1,1.28,0,1.58.19,1.58.19,3.16s-.34,1.57-.34,3.15-.09,1.58-.09,3.16.43,1.58.43,3.16-.45,1.58-.45,3.16.42,1.58.42,3.16-.15,1.58-.15,3.16.18,1.58.18,3.16-.36,1.58-.36,3.16-.06,1.58-.06,3.16.37,1.58.37,3.16,0,1.58,0,3.17-.42,1.58-.42,3.16.1,1.59.1,3.17c0,.55.63.83,1.18.83,1.6,0,1.6.28,3.19.28s1.6-.27,3.2-.27,1.59.28,3.19.28,1.6.11,3.19.11,1.6,0,3.2,0,1.59,0,3.18,0,1.6.06,3.19.06,1.6-.07,3.2-.07,1.59-.34,3.19-.34,1.6.06,3.19.06,1.6.08,3.2.08,1.59-.16,3.19-.16,1.6.14,3.2.14,1.59.34,3.19.34,1.6-.53,3.2-.53,1.6.27,3.19.27,1.6-.09,3.2-.09,1.59-.1,3.19-.1h3.2c1.6,0,1.6.15,3.2.15s1.6-.1,3.2-.1,1.6.35,3.2.35c.56,0,1-.69,1-1.24,0-1.58,0-1.58,0-3.16s-.11-1.57-.11-3.15v-3.16c0-1.58.12-1.58.12-3.16s-.13-1.58-.13-3.16.36-1.58.36-3.16,0-1.58,0-3.16,0-1.58,0-3.16-.3-1.58-.3-3.16-.2-1.58-.2-3.16.48-1.58.48-3.16,0-1.58,0-3.17S206,82.1,206,80.52s.07-1.59.07-3.17C206,76.8,205.57,76.11,205,76.11Z"/><path class="cls-6" d="M179.43,124.3a8.11,8.11,0,0,1-1.89-.2,5.19,5.19,0,0,0-1.31-.14,15.78,15.78,0,0,1-1.72-.08c-.38,0-.73-.07-1.47-.07a11.69,11.69,0,0,0-1.46.08,15.56,15.56,0,0,1-1.73.08c-.84,0-1.25,0-1.67,0s-.76,0-1.53,0-1.23,0-1.64,0-.78,0-1.55,0a5,5,0,0,0-1.3.14,8.11,8.11,0,0,1-1.89.2c-.77,0-1.16,0-1.54,0s-.83,0-1.66,0-1.23,0-1.65,0-.77,0-1.54,0l-1.57,0h-1.62c-.78,0-1.17,0-1.56,0s-.81,0-1.63,0-1.27,0-1.69-.06-.75,0-1.5,0a9.77,9.77,0,0,1-1.84-.16,7.71,7.71,0,0,0-2.71,0,10,10,0,0,1-1.84.15,9.77,9.77,0,0,1-1.84-.16,6.14,6.14,0,0,0-1.35-.12,2.39,2.39,0,0,1-2.6-2.25c0-.75,0-1.12,0-1.5s-.05-.83-.05-1.67a6.82,6.82,0,0,1,.26-1.94,4.13,4.13,0,0,0,.16-1.22c0-.8,0-1.2,0-1.6s0-.78,0-1.57a4.21,4.21,0,0,0-.16-1.25,7.36,7.36,0,0,1-.22-1.91c0-.82,0-1.22,0-1.63s0-.77,0-1.53a7.33,7.33,0,0,1,.22-1.9,4.67,4.67,0,0,0,.15-1.26,9.21,9.21,0,0,0-.09-1.41,14.9,14.9,0,0,1-.1-1.75,15.56,15.56,0,0,1,.08-1.71,12.1,12.1,0,0,0,.07-1.45,4.08,4.08,0,0,0-.16-1.22,6.42,6.42,0,0,1-.26-1.94,6.19,6.19,0,0,1,.28-2,3.54,3.54,0,0,0,.17-1.19,4,4,0,0,0-.16-1.21,6.55,6.55,0,0,1-.26-2c0-.83,0-1.24,0-1.66s0-.75,0-1.5a7.45,7.45,0,0,1,.21-1.88,4.92,4.92,0,0,0,.14-1.28,9.06,9.06,0,0,0-.09-1.4,12.41,12.41,0,0,1-.11-1.75,2.64,2.64,0,0,1,2.41-2.69,16.22,16.22,0,0,1,1.74.08,12.17,12.17,0,0,0,1.46.07c.75,0,1.11,0,1.49-.06a16.46,16.46,0,0,1,1.72-.07,7.5,7.5,0,0,1,1.93.23,4.7,4.7,0,0,0,1.27.15,5.46,5.46,0,0,0,1.33-.13,9,9,0,0,1,1.86-.17h1.63c.39,0,.78,0,1.57,0a6.58,6.58,0,0,1,2,.27,3.74,3.74,0,0,0,1.22.17c.78,0,1.17,0,1.55,0l1.65,0a9.52,9.52,0,0,0,1.43-.09,12.59,12.59,0,0,1,1.76-.11,12.24,12.24,0,0,0,1.47-.07,15.85,15.85,0,0,1,1.73-.08h3.19a8.9,8.9,0,0,1,1.87.18,6,6,0,0,0,1.33.13h3.19a7,7,0,0,0,1.36-.12,9,9,0,0,1,1.84-.16c.82,0,1.24,0,1.65,0s.77,0,1.54,0a7.25,7.25,0,0,0,1.37-.11,9.73,9.73,0,0,1,1.82-.15c.82,0,1.22,0,1.63,0l1.56,0c.79,0,1.18,0,1.57,0h1.62a6.31,6.31,0,0,1,2,.3,3.2,3.2,0,0,0,1.18.18,9.27,9.27,0,0,0,1.42-.09,12.94,12.94,0,0,1,1.78-.11c.83,0,1.25,0,1.67,0s.76,0,1.52,0A7.42,7.42,0,0,0,200,75a11.07,11.07,0,0,1,1.8-.13c.74,0,1.1,0,1.47-.06a15.93,15.93,0,0,1,1.72-.08,2.63,2.63,0,0,1,2.44,2.66c0,.82,0,1.23,0,1.64s0,.76,0,1.53a8.5,8.5,0,0,0,.1,1.38,10.88,10.88,0,0,1,.13,1.78c0,.78,0,1.16,0,1.55s0,.81,0,1.62a6.16,6.16,0,0,1-.3,2,3.41,3.41,0,0,0-.18,1.17,9,9,0,0,0,.09,1.4,12.59,12.59,0,0,1,.11,1.76,6,6,0,0,0,.12,1.32,8.63,8.63,0,0,1,.18,1.84v1.56c0,.4,0,.8,0,1.6s0,1.2,0,1.6,0,.78,0,1.56a7.84,7.84,0,0,1-.21,1.89,4.81,4.81,0,0,0-.15,1.27c0,.73,0,1.08.07,1.46s.07.85.07,1.7,0,1.27-.06,1.69-.06.73-.06,1.47v3.16c0,.74,0,1.11,0,1.48s.06.84.06,1.67,0,1.17,0,1.55,0,.81,0,1.61a2.63,2.63,0,0,1-2.44,2.66,7.57,7.57,0,0,1-1.9-.21,5.1,5.1,0,0,0-1.3-.14c-.76,0-1.14,0-1.52,0s-.84,0-1.68,0-1.3,0-1.73-.07a12.24,12.24,0,0,0-1.47-.07h-3.2c-.75,0-1.13,0-1.5,0s-.85.06-1.69.06-1.14,0-1.52,0-.84,0-1.68,0a10,10,0,0,1-1.83-.15,7.05,7.05,0,0,0-1.36-.11,3.11,3.11,0,0,0-1.15.19A5.79,5.79,0,0,1,179.43,124.3ZM173,121a16.15,16.15,0,0,1,1.73.08c.37,0,.73.06,1.46.06a7.57,7.57,0,0,1,1.9.21,5.53,5.53,0,0,0,1.3.14,2.9,2.9,0,0,0,1.15-.2,5.79,5.79,0,0,1,2-.33,10,10,0,0,1,1.83.15,7.05,7.05,0,0,0,1.36.11c.76,0,1.14,0,1.52,0s.84,0,1.68,0,1.13,0,1.5,0,.85,0,1.69,0h3.2c.86,0,1.3,0,1.73.07a12.11,12.11,0,0,0,1.47.07c.76,0,1.14,0,1.51,0s.85-.05,1.69-.05a7.67,7.67,0,0,1,1.91.21,4.77,4.77,0,0,0,.88.14c0-.65,0-1,0-1.37s0-.8,0-1.61,0-1.11-.05-1.48-.06-.83-.06-1.67v-3.16c0-.85,0-1.27.07-1.69s.06-.74.06-1.47a12.17,12.17,0,0,0-.07-1.46c0-.42-.07-.85-.07-1.7a7.84,7.84,0,0,1,.21-1.89,4.42,4.42,0,0,0,.15-1.27c0-.8,0-1.2,0-1.61s0-.77,0-1.55,0-1.18,0-1.57,0-.8,0-1.59a6,6,0,0,0-.12-1.32,8.8,8.8,0,0,1-.17-1.84,10.42,10.42,0,0,0-.09-1.4,12.59,12.59,0,0,1-.11-1.76,5.89,5.89,0,0,1,.3-2,3.45,3.45,0,0,0,.18-1.17c0-.77,0-1.16,0-1.55s0-.81,0-1.62a7.48,7.48,0,0,0-.1-1.38,11.17,11.17,0,0,1-.12-1.78c0-.82,0-1.23,0-1.65s0-.69,0-1.34c-.48,0-.77,0-1.07.06a15.78,15.78,0,0,1-1.72.08,8.65,8.65,0,0,0-1.39.1,11.07,11.07,0,0,1-1.8.13c-.84,0-1.26,0-1.68-.05s-.76,0-1.51,0a9.32,9.32,0,0,0-1.43.09,12.64,12.64,0,0,1-1.77.11,6,6,0,0,1-2-.31,3.43,3.43,0,0,0-1.18-.18l-1.57,0h-1.62l-1.63,0h-1.56a7.25,7.25,0,0,0-1.37.11,9.82,9.82,0,0,1-1.82.15c-.83,0-1.24,0-1.66,0s-.76,0-1.53,0a7,7,0,0,0-1.36.12,9,9,0,0,1-1.84.16H169.9A8.26,8.26,0,0,1,168,77.8a5.88,5.88,0,0,0-1.33-.13h-3.19a14.59,14.59,0,0,0-1.46.07,13.45,13.45,0,0,1-1.74.09,11.19,11.19,0,0,0-1.42.08,12.88,12.88,0,0,1-1.77.11c-.78,0-1.17,0-1.55,0l-1.65,0a6.58,6.58,0,0,1-2-.27,3.74,3.74,0,0,0-1.22-.17H149.1c-.39,0-.78,0-1.57,0a6,6,0,0,0-1.33.13,8.86,8.86,0,0,1-1.86.18,7,7,0,0,1-1.94-.24,4.67,4.67,0,0,0-1.26-.15c-.74,0-1.1,0-1.49.06a15.78,15.78,0,0,1-1.72.08,14.92,14.92,0,0,1-1.73-.09c-.29,0-.57,0-1-.06a7.05,7.05,0,0,0,.06,1.25,11.13,11.13,0,0,1,.11,1.75,8.11,8.11,0,0,1-.2,1.89,4.84,4.84,0,0,0-.14,1.27c0,.83,0,1.25,0,1.66s0,.75,0,1.5a4.08,4.08,0,0,0,.16,1.22,6.47,6.47,0,0,1,.26,1.94,6.19,6.19,0,0,1-.28,2,3.91,3.91,0,0,0-.16,1.19,3.78,3.78,0,0,0,.16,1.22,6.85,6.85,0,0,1,.25,1.94,15.56,15.56,0,0,1-.08,1.71c0,.38-.07.73-.07,1.45a9.27,9.27,0,0,0,.09,1.42,12.65,12.65,0,0,1,.1,1.74,7.33,7.33,0,0,1-.22,1.9,4.67,4.67,0,0,0-.15,1.26c0,.82,0,1.23,0,1.64s0,.76,0,1.52a4.59,4.59,0,0,0,.15,1.25,7.38,7.38,0,0,1,.23,1.91c0,.8,0,1.2,0,1.6s0,.78,0,1.57a6.91,6.91,0,0,1-.25,1.94,4.08,4.08,0,0,0-.16,1.22c0,.75,0,1.13,0,1.5s0,.61.05,1.07a10.07,10.07,0,0,1,1.62.18,6.72,6.72,0,0,0,1.34.12,7.08,7.08,0,0,0,1.37-.12,9.77,9.77,0,0,1,1.83-.15,9,9,0,0,1,1.84.16,6.93,6.93,0,0,0,1.35.11c.85,0,1.27,0,1.69.06s.75,0,1.5,0h1.57c.4,0,.81,0,1.62,0l1.58,0h1.61c.83,0,1.24,0,1.65,0s.77,0,1.54,0,1.16,0,1.54,0,.83,0,1.66,0a5.6,5.6,0,0,0,1.3-.14,7.59,7.59,0,0,1,1.89-.2l1.65,0c.38,0,.77,0,1.54,0s1.25,0,1.67,0,.76,0,1.53,0,1.08,0,1.45-.07A15.28,15.28,0,0,1,173,121Z"/><path class="cls-6" d="M143.85,137.89a15,15,0,0,1-1.77-.1,9.94,9.94,0,0,0-1.33-.08,8.15,8.15,0,0,1-2-.22,4.38,4.38,0,0,0-1.11-.12,7.43,7.43,0,0,0-1.26.09,11.62,11.62,0,0,1-1.85.13c-.7,0-1.06,0-1.41,0s-.85.06-1.69.06a10,10,0,0,1-1.88-.16,6.82,6.82,0,0,0-1.23-.1,15.56,15.56,0,0,1-1.73-.08c-.37,0-.69-.06-1.37-.06a2.41,2.41,0,0,0-.93.15,6.18,6.18,0,0,1-2.18.36H119a7.9,7.9,0,0,1-2-.23,4.44,4.44,0,0,0-1.11-.12h-3.1a5.53,5.53,0,0,0-1.18.11,9.27,9.27,0,0,1-1.93.18,8.09,8.09,0,0,1-2-.22,3.93,3.93,0,0,0-1.1-.13l-1.6,0-1.51,0a10.94,10.94,0,0,0-1.37.07c-.4,0-.86.07-1.73.07a12.69,12.69,0,0,0-1.35.07,15.56,15.56,0,0,1-1.76.09,13.37,13.37,0,0,1-1.78-.1,9.76,9.76,0,0,0-1.32-.08c-.83,0-1.24,0-1.65,0s-.73,0-1.45,0a7.25,7.25,0,0,0-1.24.09,10.12,10.12,0,0,1-1.87.15,8,8,0,0,1-2-.22,4,4,0,0,0-1.11-.13,9.59,9.59,0,0,0-1.31.08,13.17,13.17,0,0,1-1.8.11,5.09,5.09,0,0,0-1.19.11,10.09,10.09,0,0,1-1.91.17,13,13,0,0,1-1.76-.1,13.28,13.28,0,0,0-1.34-.06,8.45,8.45,0,0,1-2-.2,5.35,5.35,0,0,0-1.15-.11,4.47,4.47,0,0,0-1.12.12,8,8,0,0,1-2,.22l-1.49,0c-.4,0-.8,0-1.61,0a8,8,0,0,1-2-.23,5.06,5.06,0,0,0-2.19,0,7.5,7.5,0,0,1-2,.24H56.93a2,2,0,0,1,0-4.07H60a4.27,4.27,0,0,0,1.09-.12,7.6,7.6,0,0,1,2-.23,8.18,8.18,0,0,1,2,.22,3.8,3.8,0,0,0,1.09.13l1.5,0,1.6,0a4,4,0,0,0,1.12-.13,8.65,8.65,0,0,1,2-.21,8.57,8.57,0,0,1,1.94.19,4.81,4.81,0,0,0,1.16.11,13,13,0,0,1,1.76.1,13.28,13.28,0,0,0,1.34.06,5.88,5.88,0,0,0,1.2-.1,9.18,9.18,0,0,1,1.9-.17,9.47,9.47,0,0,0,1.31-.08,13.17,13.17,0,0,1,1.8-.11,8.15,8.15,0,0,1,2,.22,3.83,3.83,0,0,0,1.1.13,6.18,6.18,0,0,0,1.24-.1,11.4,11.4,0,0,1,1.87-.14c.82,0,1.23,0,1.65,0s.72,0,1.45,0a15.38,15.38,0,0,1,1.78.1,8.34,8.34,0,0,0,1.32.08,10.45,10.45,0,0,0,1.35-.07,15.56,15.56,0,0,1,1.76-.09c.68,0,1,0,1.37-.06s.86-.08,1.73-.08,1.2,0,1.6,0,.75,0,1.51,0a8,8,0,0,1,2,.23,4.3,4.3,0,0,0,1.1.12,5,5,0,0,0,1.18-.11,9.19,9.19,0,0,1,1.93-.18h3.1a8.09,8.09,0,0,1,2,.22,4,4,0,0,0,1.11.13h1.52c.39,0,.79,0,1.58,0a2.44,2.44,0,0,0,.93-.15,6.24,6.24,0,0,1,2.18-.35,15.56,15.56,0,0,1,1.73.08c.37,0,.69.06,1.37.06a9.83,9.83,0,0,1,1.88.16,7,7,0,0,0,1.23.1c.71,0,1.06,0,1.42,0s.84-.06,1.68-.06a7.66,7.66,0,0,0,1.27-.09,11.57,11.57,0,0,1,1.84-.13,8,8,0,0,1,2,.22,4.47,4.47,0,0,0,1.12.12,13.07,13.07,0,0,1,1.77.1,9.94,9.94,0,0,0,1.33.08c.69,0,1,0,1.39-.06a15.49,15.49,0,0,1,1.72-.08c.83,0,1.24,0,1.65,0s.73,0,1.46,0h3.1a4.3,4.3,0,0,0,1.1-.12,8.85,8.85,0,0,1,4,0,3.83,3.83,0,0,0,1.1.13,7.17,7.17,0,0,0,1.25-.1,11.42,11.42,0,0,1,1.85-.14,11.57,11.57,0,0,1,1.86.14,6.23,6.23,0,0,0,1.25.1,2.52,2.52,0,0,0,.95-.15,6.46,6.46,0,0,1,2.16-.34,7.2,7.2,0,0,1,2.06.27,3.52,3.52,0,0,0,1,.14c.84,0,1.26,0,1.69,0s.71.05,1.42.05a2,2,0,0,0,.86-.16,5.87,5.87,0,0,1,2.25-.41l1.6,0c.38,0,.75,0,1.51,0a6.72,6.72,0,0,1,2.09.29,3.33,3.33,0,0,0,1,.14,4,4,0,0,0,1.12-.13,8.65,8.65,0,0,1,2-.21c.7,0,1.05,0,1.41-.05s.84-.06,1.69-.06a6.28,6.28,0,0,1,2.18.35,2.44,2.44,0,0,0,.93.15c.75,0,1.12,0,1.49,0s.81,0,1.62,0a3,3,0,0,0,1-.14,7.5,7.5,0,0,1,2.09-.28,7.68,7.68,0,0,1,2.06.26,3.27,3.27,0,0,0,1.06.14,4.69,4.69,0,0,0,1.15-.12,8.63,8.63,0,0,1,2-.2,2,2,0,1,1,0,4.07,4.69,4.69,0,0,0-1.15.12,8.63,8.63,0,0,1-2,.2,7.62,7.62,0,0,1-2.06-.26,3.27,3.27,0,0,0-1.06-.14,3.33,3.33,0,0,0-1,.14,7.13,7.13,0,0,1-2.09.28c-.75,0-1.12,0-1.49,0s-.81,0-1.62,0a6.28,6.28,0,0,1-2.18-.35,2.41,2.41,0,0,0-.93-.15c-.71,0-1.06,0-1.41,0s-.85.06-1.69.06a4.56,4.56,0,0,0-1.13.12,8,8,0,0,1-2,.22,7.13,7.13,0,0,1-2.1-.29,3,3,0,0,0-1-.14c-.81,0-1.21,0-1.61,0l-1.5,0a2,2,0,0,0-.86.16,5.91,5.91,0,0,1-2.25.41c-.84,0-1.26,0-1.68-.06s-.72,0-1.43,0a7.08,7.08,0,0,1-2.06-.27,3.22,3.22,0,0,0-1-.14,2.52,2.52,0,0,0-.95.15,6.46,6.46,0,0,1-2.16.34,11.57,11.57,0,0,1-1.86-.14,7.08,7.08,0,0,0-1.25-.1,7.17,7.17,0,0,0-1.25.1,11.31,11.31,0,0,1-1.85.14,8.06,8.06,0,0,1-2-.23,4.72,4.72,0,0,0-2.2,0,8.09,8.09,0,0,1-2,.22h-3.1c-.83,0-1.24,0-1.65,0s-.73,0-1.46,0a13.58,13.58,0,0,0-1.38.06A15.71,15.71,0,0,1,143.85,137.89Z"/><path class="cls-6" d="M116.68,286.86a13.57,13.57,0,0,1-2.42-.2,3.24,3.24,0,0,0-.65-.05,14,14,0,0,1-2.44-.19,2.56,2.56,0,0,0-.64-.05c-.89,0-1.33,0-1.77,0s-.65,0-1.3,0-1,0-1.3,0-.89,0-1.77,0a6.92,6.92,0,0,0-.89.05,16.2,16.2,0,0,1-2.18.13c-.9,0-1.35,0-1.8,0s-.63,0-1.26,0-1,0-1.31,0-.88,0-1.76,0a4.54,4.54,0,0,0-.8.05,15.49,15.49,0,0,1-2.28.15c-.86,0-1.29,0-1.72,0l-1.34,0a11.16,11.16,0,0,1-3-.38l0,0a1.91,1.91,0,0,0-.5,0,12.32,12.32,0,0,1-2.62.26c-.88,0-1.31,0-1.75,0l-1.32,0a6,6,0,0,0-.93.05,20.28,20.28,0,0,1-2.13.11,13.63,13.63,0,0,1-2.41-.19,3.28,3.28,0,0,0-.66-.05c-1,0-1.51,0-1.94-.07s-.56,0-1.12,0-.89,0-1.19,0c-.47,0-.94.06-1.88.06a9.08,9.08,0,0,0-1,.05,20.12,20.12,0,0,1-2,.09c-.89,0-1.33,0-1.77,0s-.65,0-1.3,0a5.67,5.67,0,0,1,0-11.34c.89,0,1.33,0,1.78,0s.64,0,1.29,0a9.08,9.08,0,0,0,1-.05,20.12,20.12,0,0,1,2-.09c.59,0,.89,0,1.18,0,.47,0,.94-.06,1.89-.06s1.51,0,1.94.07c.28,0,.56,0,1.12,0a13.63,13.63,0,0,1,2.41.19,3.28,3.28,0,0,0,.66,0,7.39,7.39,0,0,0,.93,0,17.8,17.8,0,0,1,2.13-.11c.88,0,1.32,0,1.76,0s.65,0,1.31,0a1.41,1.41,0,0,0,.45-.05,13.17,13.17,0,0,1,2.62-.25,11,11,0,0,1,3,.38l.06,0c.92,0,1.35,0,1.77,0l1.34,0a4.54,4.54,0,0,0,.8-.05,15.49,15.49,0,0,1,2.28-.15c.65,0,1,0,1.3,0s.88,0,1.77,0,1.35,0,1.8,0,.63,0,1.26,0a6.8,6.8,0,0,0,.89-.05,16.53,16.53,0,0,1,2.18-.12c.65,0,1,0,1.31,0s.88,0,1.76,0,1.33,0,1.78,0,.65,0,1.29,0a14,14,0,0,1,2.44.19,2.53,2.53,0,0,0,.64.06,13.76,13.76,0,0,1,2.42.19,3.3,3.3,0,0,0,.65,0,5.67,5.67,0,0,1,0,11.34Z"/><path class="cls-6" d="M125.22,152.34a13.61,13.61,0,0,1-1.8-.1,8.1,8.1,0,0,0-1.31-.08c-.69,0-1,0-1.39.05s-.86.07-1.71.07a7.53,7.53,0,0,1-2-.24,4.19,4.19,0,0,0-1.09-.13,4.54,4.54,0,0,0-1.14.12,8.63,8.63,0,0,1-2,.2c-.74,0-1.11,0-1.47,0s-.82,0-1.64,0l-1.51,0c-.4,0-.79,0-1.59,0a7.51,7.51,0,0,1-2.08-.27,3.11,3.11,0,0,0-1-.14c-.73,0-1.09,0-1.45,0s-.83,0-1.65,0l-1.6,0H97.27l-1.48,0c-.41,0-.81,0-1.62,0l-1.6,0c-.38,0-.75,0-1.5,0a13.61,13.61,0,0,1-1.8-.1,8.1,8.1,0,0,0-1.31-.08,3.72,3.72,0,0,0-1.06.13,7.44,7.44,0,0,1-2,.26c-.73,0-1.09,0-1.46,0s-.82,0-1.65,0a15.93,15.93,0,0,1-1.74-.08,10.76,10.76,0,0,0-1.36-.07,11.57,11.57,0,0,1-1.84-.13,7.43,7.43,0,0,0-1.26-.09,4.63,4.63,0,0,0-1.15.12,8.45,8.45,0,0,1-2,.2,7,7,0,0,1-2.08-.28,3.15,3.15,0,0,0-1-.14,5.53,5.53,0,0,0-1.18.11,9.42,9.42,0,0,1-1.92.17,10.69,10.69,0,0,0-1.35.07,15.35,15.35,0,0,1-1.75.09,11.57,11.57,0,0,1-1.84-.13A7.43,7.43,0,0,0,60,152a4.47,4.47,0,0,0-1.12.12,8,8,0,0,1-2,.22,2,2,0,0,1,0-4.07,4.47,4.47,0,0,0,1.12-.12,8,8,0,0,1,2-.22,11.57,11.57,0,0,1,1.84.13,7.43,7.43,0,0,0,1.26.09,10.57,10.57,0,0,0,1.35-.07,15.5,15.5,0,0,1,1.75-.09,5.09,5.09,0,0,0,1.19-.11,10,10,0,0,1,1.91-.17,7,7,0,0,1,2.08.28,3.45,3.45,0,0,0,1,.14,4.54,4.54,0,0,0,1.14-.12,8.63,8.63,0,0,1,2-.2,11.52,11.52,0,0,1,1.83.13,7.66,7.66,0,0,0,1.27.09,16.15,16.15,0,0,1,1.75.08,10.57,10.57,0,0,0,1.35.07c.73,0,1.1,0,1.46,0s.82,0,1.65,0a3.57,3.57,0,0,0,1.06-.14,7.6,7.6,0,0,1,2-.25,15.65,15.65,0,0,1,1.8.1,8.1,8.1,0,0,0,1.31.08l1.59,0,1.51,0c.74,0,1.11,0,1.48,0s.81,0,1.62,0h1.6c.37,0,.75,0,1.51,0s1.09,0,1.45,0,.83,0,1.65,0a7.57,7.57,0,0,1,2.08.27,3.11,3.11,0,0,0,1,.14l1.5,0c.4,0,.8,0,1.6,0s1.1,0,1.47,0,.82,0,1.64,0a4.54,4.54,0,0,0,1.14-.12,8.63,8.63,0,0,1,2-.2,8,8,0,0,1,2,.24,3.8,3.8,0,0,0,1.09.13c.69,0,1,0,1.39-.06s.86-.06,1.71-.06a13.61,13.61,0,0,1,1.8.1,8.1,8.1,0,0,0,1.31.08c.72,0,1.08,0,1.44,0s.83,0,1.66,0a3.83,3.83,0,0,0,1.1-.13,8.06,8.06,0,0,1,2-.23c.7,0,1.06,0,1.41-.05s.85-.06,1.69-.06a6.28,6.28,0,0,1,2.18.35,2.41,2.41,0,0,0,.93.15,4.63,4.63,0,0,0,1.15-.12,8.63,8.63,0,0,1,2-.2c.68,0,1,0,1.36-.06a15.93,15.93,0,0,1,1.74-.08H147a6.67,6.67,0,0,1,2.1.3,3.06,3.06,0,0,0,1,.14h3.1a9.59,9.59,0,0,0,1.31-.08,13,13,0,0,1,1.79-.11,9.47,9.47,0,0,0,1.31-.08,13.17,13.17,0,0,1,1.8-.11c.82,0,1.23,0,1.64,0s.73,0,1.46,0,1.33,0,1.73.07a13.58,13.58,0,0,0,1.38.06c.7,0,1.06,0,1.41-.05s.85-.06,1.7-.06,1.06,0,1.42,0,.84-.05,1.68-.05,1.09,0,1.46,0,.82,0,1.65,0,1.28,0,1.7.07.71.05,1.41.05,1.21,0,1.62,0,.74,0,1.49,0,1.23,0,1.64,0,.73,0,1.47,0a11.57,11.57,0,0,1,1.84.13,7.47,7.47,0,0,0,1.27.09,2.77,2.77,0,0,0,1-.15,7.07,7.07,0,0,1,2.1-.29,7.53,7.53,0,0,1,2,.24,4.19,4.19,0,0,0,1.09.13c.71,0,1.06,0,1.42,0s.84-.06,1.69-.06,1.32,0,1.72.07.7.06,1.39.06a6.82,6.82,0,0,0,1.23-.1,11.24,11.24,0,0,1,3.78,0,5.82,5.82,0,0,0,1.22.11,2,2,0,1,1,0,4.07,10.05,10.05,0,0,1-1.89-.16,6.88,6.88,0,0,0-2.45,0,11.4,11.4,0,0,1-1.89.15c-.86,0-1.31,0-1.72-.07a13.66,13.66,0,0,0-1.39-.06c-.71,0-1.06,0-1.42,0s-.84.06-1.69.06a7.59,7.59,0,0,1-2-.24,3.8,3.8,0,0,0-1.09-.13,3,3,0,0,0-1,.14,6.72,6.72,0,0,1-2.1.3,11.72,11.72,0,0,1-1.85-.13,7.43,7.43,0,0,0-1.26-.09c-.82,0-1.24,0-1.65,0s-.73,0-1.46,0-1.22,0-1.62,0l-1.49,0c-.86,0-1.28,0-1.71-.06s-.7-.05-1.4-.05-1.09,0-1.45,0-.83,0-1.66,0-1.07,0-1.42.05-.84.05-1.68.05-1.06,0-1.42,0-.84.06-1.69.06-1.32,0-1.73-.07a13.58,13.58,0,0,0-1.38-.06c-.82,0-1.23,0-1.64,0s-.73,0-1.46,0a9.47,9.47,0,0,0-1.31.08,13.17,13.17,0,0,1-1.8.11,9.42,9.42,0,0,0-1.3.08,13.17,13.17,0,0,1-1.8.11h-3.1A6.75,6.75,0,0,1,148,152a3,3,0,0,0-1-.14h-3.11c-.68,0-1,0-1.36.06a15.28,15.28,0,0,1-1.74.09,4.66,4.66,0,0,0-1.15.11,8.63,8.63,0,0,1-2,.2,6.22,6.22,0,0,1-2.17-.35,2.5,2.5,0,0,0-.94-.15c-.7,0-1.05,0-1.41.05s-.84.06-1.69.06a3.83,3.83,0,0,0-1.1.13,8.06,8.06,0,0,1-2,.23c-.72,0-1.08,0-1.44,0S126.05,152.34,125.22,152.34Z"/><path class="cls-6" d="M91.07,166.81c-.82,0-1.22,0-1.63,0s-.74,0-1.48,0a15.38,15.38,0,0,1-1.78-.1,9.64,9.64,0,0,0-1.32-.08c-.68,0-1,0-1.37.06a15.93,15.93,0,0,1-1.74.08l-1.51,0H78.65c-.86,0-1.32,0-1.73-.07s-.69-.06-1.37-.06h-3.1c-.84,0-1.26,0-1.68,0s-.71-.05-1.43-.05h-3.1a11.38,11.38,0,0,1-1.8-.12,9.66,9.66,0,0,0-1.3-.08,3.62,3.62,0,0,0-1.06.13,7.27,7.27,0,0,1-2,.25,7.54,7.54,0,0,1-2-.25,3.75,3.75,0,0,0-1.07-.13,2,2,0,0,1,0-4.07,7.54,7.54,0,0,1,2,.25,3.75,3.75,0,0,0,1.07.13,3.62,3.62,0,0,0,1.06-.13,7.6,7.6,0,0,1,2-.25,13.47,13.47,0,0,1,1.81.11,7.84,7.84,0,0,0,1.29.09h3.1c.84,0,1.26,0,1.68,0s.71.05,1.43.05h3.1c.86,0,1.32,0,1.72.07s.69.06,1.38.06h1.51l1.59,0a13.67,13.67,0,0,0,1.37-.06,15.93,15.93,0,0,1,1.74-.08,13.37,13.37,0,0,1,1.78.1,9.76,9.76,0,0,0,1.32.08c.82,0,1.22,0,1.63,0l1.48,0c.73,0,1.1,0,1.46,0s.82,0,1.64,0a9.49,9.49,0,0,0,1.29-.08,11.43,11.43,0,0,1,1.81-.12,5.49,5.49,0,0,0,1.17-.11,8.57,8.57,0,0,1,1.94-.19,6.13,6.13,0,0,1,2.23.39,2.08,2.08,0,0,0,.87.16,3.8,3.8,0,0,0,1.09-.13,8.16,8.16,0,0,1,2-.23,8,8,0,0,1,2,.22,4.44,4.44,0,0,0,1.11.12,5.35,5.35,0,0,0,1.15-.11,8.48,8.48,0,0,1,2-.2h1.59c.38,0,.75,0,1.51,0H119a13.17,13.17,0,0,1,1.8.11,8,8,0,0,0,1.3.09,10,10,0,0,0,1.34-.08,15.63,15.63,0,0,1,1.77-.09,7.43,7.43,0,0,0,1.26-.09,10.22,10.22,0,0,1,1.84-.14,13.17,13.17,0,0,1,1.8.11,9.59,9.59,0,0,0,1.31.08h1.51l1.59,0a10.4,10.4,0,0,1,1.86.14,7.38,7.38,0,0,0,1.25.09,6,6,0,0,0,1.22-.1,10.05,10.05,0,0,1,1.89-.16c.72,0,1.08,0,1.44,0s.83,0,1.66,0l1.51,0c.4,0,.8,0,1.6,0s1.21,0,1.62,0,.74,0,1.49,0a6.7,6.7,0,0,1,2.12.31,2.65,2.65,0,0,0,1,.15,3.72,3.72,0,0,0,1.08-.13,7.59,7.59,0,0,1,2-.24,11.63,11.63,0,0,1,1.83.12,7.7,7.7,0,0,0,1.28.09,9.66,9.66,0,0,0,1.3-.08,13.17,13.17,0,0,1,1.8-.11c.85,0,1.27,0,1.69.05s.71,0,1.42,0,1.27,0,1.69.06.71.05,1.42.05a3.38,3.38,0,0,0,1-.14,7.1,7.1,0,0,1,2.08-.28,13.37,13.37,0,0,1,1.78.1,10.33,10.33,0,0,0,1.33.07,13.28,13.28,0,0,1,1.83.12,7.7,7.7,0,0,0,1.28.09,15.56,15.56,0,0,1,1.76.09,10.45,10.45,0,0,0,1.35.07,3.8,3.8,0,0,0,1.09-.13,8.09,8.09,0,0,1,2-.23,9.27,9.27,0,0,1,1.93.18,4.84,4.84,0,0,0,1.18.12c.81,0,1.22,0,1.63,0s.73,0,1.47,0a9.47,9.47,0,0,0,1.31-.08,13.17,13.17,0,0,1,1.8-.11h3.11l1.51,0c.4,0,.8,0,1.6,0s1.08,0,1.44,0,.84-.05,1.68-.05l1.5,0,1.61,0a2,2,0,1,1,0,4.07c-.75,0-1.12,0-1.5,0l-1.61,0c-.72,0-1.08,0-1.44,0s-.84.05-1.68.05l-1.51,0c-.4,0-.8,0-1.6,0h-3.11a9.59,9.59,0,0,0-1.31.08,13.17,13.17,0,0,1-1.8.11c-.81,0-1.22,0-1.63,0s-.74,0-1.47,0a9.21,9.21,0,0,1-1.94-.19,5.49,5.49,0,0,0-1.17-.11,3.83,3.83,0,0,0-1.1.13,8.06,8.06,0,0,1-2,.23,15.78,15.78,0,0,1-1.77-.09,10.39,10.39,0,0,0-1.34-.07,11.73,11.73,0,0,1-1.83-.12,7.7,7.7,0,0,0-1.28-.09,13.37,13.37,0,0,1-1.78-.1,10.21,10.21,0,0,0-1.33-.07,3,3,0,0,0-1,.14,7.1,7.1,0,0,1-2.08.28c-.85,0-1.27,0-1.7-.06s-.7,0-1.41,0-1.27,0-1.69-.06-.71,0-1.42,0a8.23,8.23,0,0,0-1.3.08,13.17,13.17,0,0,1-1.8.11,11.57,11.57,0,0,1-1.84-.13,7.71,7.71,0,0,0-1.27-.08,3.65,3.65,0,0,0-1.07.13,8.07,8.07,0,0,1-2,.24,6.83,6.83,0,0,1-2.13-.31,2.6,2.6,0,0,0-1-.15c-.81,0-1.22,0-1.62,0l-1.49,0c-.75,0-1.13,0-1.5,0s-.8,0-1.61,0-1.08,0-1.44,0-.83,0-1.66,0a5.82,5.82,0,0,0-1.22.11,10.29,10.29,0,0,1-1.89.15,10.49,10.49,0,0,1-1.86-.14,7.29,7.29,0,0,0-1.25-.09H133l-1.6,0a13.17,13.17,0,0,1-1.8-.11,9.47,9.47,0,0,0-1.31-.08,7.43,7.43,0,0,0-1.26.09,10.22,10.22,0,0,1-1.84.14,10.39,10.39,0,0,0-1.34.07,15,15,0,0,1-1.77.1,13.06,13.06,0,0,1-1.81-.12,9.49,9.49,0,0,0-1.29-.08H115.9l-1.59,0H112.8a5.21,5.21,0,0,0-1.15.11,8.63,8.63,0,0,1-2,.2,8,8,0,0,1-2-.22,4.44,4.44,0,0,0-1.11-.12,3.8,3.8,0,0,0-1.09.13,8.16,8.16,0,0,1-2,.23,5.92,5.92,0,0,1-2.23-.39,2.08,2.08,0,0,0-.87-.16,5.42,5.42,0,0,0-1.17.11,8.57,8.57,0,0,1-1.94.19,9.49,9.49,0,0,0-1.29.08,11.43,11.43,0,0,1-1.81.12c-.74,0-1.1,0-1.47,0S91.88,166.81,91.07,166.81Z"/><path class="cls-6" d="M97.82,181.3A7.29,7.29,0,0,1,95.7,181a3.09,3.09,0,0,0-1-.14,3.13,3.13,0,0,0-1,.14,7.3,7.3,0,0,1-2.11.28,10.36,10.36,0,0,1-1.92-.16,5.42,5.42,0,0,0-1.23-.11,9.27,9.27,0,0,1-1.93-.18,5.85,5.85,0,0,0-1.21-.11,3.9,3.9,0,0,0-1.11.14,8.09,8.09,0,0,1-2,.24,11.57,11.57,0,0,1-1.84-.13,8.14,8.14,0,0,0-1.3-.08c-.81,0-1.22,0-1.62,0l-1.53,0a10,10,0,0,0-1.34.08,13.67,13.67,0,0,1-1.81.1,11.72,11.72,0,0,1-1.85-.13,7.84,7.84,0,0,0-1.29-.09c-.85,0-1.27,0-1.7,0s-.72,0-1.44,0a7.75,7.75,0,0,0-1.29.09,11.77,11.77,0,0,1-1.86.13c-.74,0-1.11,0-1.48,0s-.83,0-1.66,0l-1.52,0-1.63,0a2,2,0,0,1,0-4.07l1.52,0c.41,0,.81,0,1.63,0s1.11,0,1.48,0,.83,0,1.66,0a7.84,7.84,0,0,0,1.29-.09,10.4,10.4,0,0,1,1.86-.14c.85,0,1.27,0,1.69.06s.73,0,1.45,0a11.88,11.88,0,0,1,1.86.13,7.7,7.7,0,0,0,1.28.09,8.54,8.54,0,0,0,1.34-.08,16,16,0,0,1,1.81-.1c.81,0,1.21,0,1.62,0H79a11.57,11.57,0,0,1,1.84.13,7.89,7.89,0,0,0,1.3.09,3.9,3.9,0,0,0,1.11-.14,8.09,8.09,0,0,1,2-.24,9.27,9.27,0,0,1,1.93.18,5.85,5.85,0,0,0,1.21.11,9.46,9.46,0,0,1,1.93.17,6,6,0,0,0,1.22.1,3.22,3.22,0,0,0,1-.14,7.24,7.24,0,0,1,2.11-.28,6.82,6.82,0,0,1,2.11.29,3.15,3.15,0,0,0,1,.14,2.68,2.68,0,0,0,1-.15,7.06,7.06,0,0,1,2.16-.31c.88,0,1.34,0,1.76.07a11,11,0,0,0,1.38.07,8.18,8.18,0,0,0,1.32-.09,13.71,13.71,0,0,1,1.83-.11l1.63,0,1.52,0h3.15c.75,0,1.12,0,1.5,0s.82,0,1.64,0a7.39,7.39,0,0,1,2.1.28,3.18,3.18,0,0,0,1,.14A4.56,4.56,0,0,0,121,177a8.16,8.16,0,0,1,2-.23c.71,0,1.07,0,1.43-.05s.86,0,1.71,0a9.46,9.46,0,0,1,1.93.17,6,6,0,0,0,1.22.1l1.52,0c.41,0,.81,0,1.63,0s1.26,0,1.68.05.73,0,1.46,0a4.72,4.72,0,0,0,1.16-.12,8.65,8.65,0,0,1,2-.21H145a8.16,8.16,0,0,1,2,.23,4,4,0,0,0,1.13.13c.71,0,1.06,0,1.42-.06s.86-.06,1.73-.06c.71,0,1.07,0,1.43,0s.85-.06,1.71-.06h3.15a10.22,10.22,0,0,1,1.91.16,6.26,6.26,0,0,0,1.24.1,4.06,4.06,0,0,0,1.13-.13,8.16,8.16,0,0,1,2-.23c.86,0,1.29,0,1.72.06s.72,0,1.44,0,1.11,0,1.48,0,.84,0,1.68,0a2,2,0,0,1,0,4.07c-.75,0-1.12,0-1.49,0s-.83,0-1.67,0-1.28,0-1.71-.06-.72-.05-1.45-.05a4,4,0,0,0-1.12.13,8.19,8.19,0,0,1-2,.23,10.41,10.41,0,0,1-1.91-.16,6.11,6.11,0,0,0-1.24-.1h-3.15c-.71,0-1.07,0-1.43,0s-.85.06-1.71.06c-.71,0-1.07,0-1.42.05a16.84,16.84,0,0,1-1.73.07,8.19,8.19,0,0,1-2-.23,4,4,0,0,0-1.12-.13h-6.3a4.72,4.72,0,0,0-1.16.12,8.11,8.11,0,0,1-2,.21c-.84,0-1.26,0-1.68,0s-.73,0-1.46,0l-1.53,0c-.4,0-.81,0-1.62,0a10.49,10.49,0,0,1-1.93-.16,5.26,5.26,0,0,0-1.22-.11c-.71,0-1.07,0-1.43.05s-.86.06-1.71.06a4.66,4.66,0,0,0-1.14.12,8.12,8.12,0,0,1-2,.22,7.33,7.33,0,0,1-2.09-.27,3.21,3.21,0,0,0-1-.15c-.75,0-1.13,0-1.5,0s-.82,0-1.64,0h-3.15c-.82,0-1.22,0-1.63,0l-1.52,0a9.89,9.89,0,0,0-1.32.08,11.73,11.73,0,0,1-1.83.12,16.15,16.15,0,0,1-1.75-.08,11.78,11.78,0,0,0-1.39-.06,2.93,2.93,0,0,0-1,.14A6.69,6.69,0,0,1,97.82,181.3Z"/><path class="cls-6" d="M233.16,286.38a10.74,10.74,0,0,1-2.13-.18,7.05,7.05,0,0,0-1.44-.12c-.82,0-1.23,0-1.64.06s-1,.06-1.93.06-1.39,0-1.85,0-.86,0-1.71,0a13.8,13.8,0,0,0-1.58.08,16.49,16.49,0,0,1-2,.1,14.11,14.11,0,0,1-2-.12,13,13,0,0,0-1.55-.09,9.62,9.62,0,0,1-2.17-.21,6.54,6.54,0,0,0-1.4-.13c-.95,0-1.42,0-1.9-.06s-.83,0-1.66,0a2.1,2.1,0,0,0-1,.21,6.2,6.2,0,0,1-2.53.49,6.29,6.29,0,0,1-2.51-.47,2.32,2.32,0,0,0-1.06-.21,5.74,5.74,0,0,0-1.37.14,9,9,0,0,1-2.19.23,7.21,7.21,0,0,0-1.46.12,12.93,12.93,0,0,1-2.11.16,16.28,16.28,0,0,1-2-.11,13.53,13.53,0,0,0-1.56-.08c-.82,0-1.21,0-1.63.06s-1,.08-1.94.08a9,9,0,0,1-2.24-.26,4.71,4.71,0,0,0-1.32-.16c-.94,0-1.4,0-1.87,0s-.85,0-1.7,0a6.54,6.54,0,0,0-1.4.13,10.4,10.4,0,0,1-2.16.2,8.1,8.1,0,0,1-2.27-.28,4.65,4.65,0,0,0-1.3-.16,7.4,7.4,0,0,0-1.47.12A12.92,12.92,0,0,1,169,286a12.77,12.77,0,0,1-2.08-.15,7.51,7.51,0,0,0-1.48-.12,4.23,4.23,0,0,0-1.29.17,8.53,8.53,0,0,1-2.28.28,7.14,7.14,0,0,1-2.39-.37,3.3,3.3,0,0,0-1.17-.18,7.05,7.05,0,0,0-1.44.12,10.62,10.62,0,0,1-2.12.18,5.47,5.47,0,0,0-1.35.15,9,9,0,0,1-2.22.24c-.84,0-1.26,0-1.69,0s-.93,0-1.87,0a5.88,5.88,0,0,1-2.58-.54,2,2,0,0,0-1-.21l-1.72,0c-.47,0-.93,0-1.85,0a6.73,6.73,0,0,0-1.41.13,10.21,10.21,0,0,1-2.15.2,2,2,0,0,1,0-4.07,6.58,6.58,0,0,0,1.41-.13,10.37,10.37,0,0,1,2.15-.2l1.72,0c.47,0,.93,0,1.85,0a5.83,5.83,0,0,1,2.57.54,2,2,0,0,0,1,.21c.84,0,1.27,0,1.69,0s.94-.05,1.87-.05a5.56,5.56,0,0,0,1.35-.14,9,9,0,0,1,2.22-.25,7,7,0,0,0,1.43-.12,10.66,10.66,0,0,1,2.13-.18,7.09,7.09,0,0,1,2.39.37,3.3,3.3,0,0,0,1.17.18,4.28,4.28,0,0,0,1.29-.16,8,8,0,0,1,2.28-.29,12.48,12.48,0,0,1,2.08.16,8.58,8.58,0,0,0,1.48.11,8.49,8.49,0,0,0,1.48-.11,12.48,12.48,0,0,1,2.08-.16,8.51,8.51,0,0,1,2.27.28,4.4,4.4,0,0,0,1.3.16,6.73,6.73,0,0,0,1.41-.13,10.29,10.29,0,0,1,2.15-.2c.94,0,1.41,0,1.87,0s.85,0,1.7,0a9,9,0,0,1,2.24.26,4.76,4.76,0,0,0,1.32.16,15,15,0,0,0,1.63-.07c.46,0,1-.07,1.94-.07a16.28,16.28,0,0,1,2,.11,13.53,13.53,0,0,0,1.56.08,7.4,7.4,0,0,0,1.47-.12,12.67,12.67,0,0,1,2.1-.16,5.74,5.74,0,0,0,1.37-.14,9.53,9.53,0,0,1,2.19-.23,6.29,6.29,0,0,1,2.51.48,2.47,2.47,0,0,0,1.06.2,2.28,2.28,0,0,0,1-.21,6.12,6.12,0,0,1,2.53-.49c1,0,1.42,0,1.9,0s.83.05,1.66.05a10.26,10.26,0,0,1,2.17.21,6.54,6.54,0,0,0,1.4.13,16,16,0,0,1,2,.12,11.14,11.14,0,0,0,1.55.09,14,14,0,0,0,1.58-.08,16.49,16.49,0,0,1,2-.1c.93,0,1.39,0,1.85,0s.86,0,1.71,0,1.24,0,1.65-.06,1-.06,1.92-.06a10.66,10.66,0,0,1,2.13.18,7.05,7.05,0,0,0,1.44.12,5.65,5.65,0,0,0,1.36-.14,9,9,0,0,1,2.21-.24c.81,0,1.21,0,1.62-.06s1-.07,1.94-.07a6,6,0,0,0,1.41-.14,10.4,10.4,0,0,1,2.16-.2,6.9,6.9,0,0,1,2.43.4,3,3,0,0,0,1.14.19,2.64,2.64,0,0,0,1.1-.2,6.49,6.49,0,0,1,2.47-.44,6.63,6.63,0,0,1,2.46.43,2.71,2.71,0,0,0,1.12.2,2,2,0,0,1,0,4.07,6.67,6.67,0,0,1-2.46-.43,2.71,2.71,0,0,0-1.12-.2,2.64,2.64,0,0,0-1.1.2,6.44,6.44,0,0,1-2.47.44,6.9,6.9,0,0,1-2.43-.4,2.79,2.79,0,0,0-1.14-.19,6.54,6.54,0,0,0-1.4.13,10.26,10.26,0,0,1-2.17.21c-.81,0-1.21,0-1.62.06s-1,.07-1.94.07a5.05,5.05,0,0,0-1.36.15A9.67,9.67,0,0,1,233.16,286.38Z"/><path d="M142.56,275a1.15,1.15,0,0,1-1.1-.85,1.13,1.13,0,0,1,.82-1.38c.36-.1.73-.18,1.11-.26a12.9,12.9,0,0,0,2.16-.6A7.56,7.56,0,0,0,147,271a13,13,0,0,1,1.44-1,7.79,7.79,0,0,1,1.8-.65,5,5,0,0,0,1.49-.55,7.32,7.32,0,0,0,1.2-1.13,10.76,10.76,0,0,1,1.32-1.29,11.23,11.23,0,0,1,1.55-1,7.31,7.31,0,0,0,1.43-.91,4.89,4.89,0,0,0,.84-1.22c.12-.23.26-.47.41-.71a4.3,4.3,0,0,1-.26-1.94,16.86,16.86,0,0,1,.77-3.17c.08-.26.16-.52.23-.77a12.87,12.87,0,0,1,.95-2.13,10.82,10.82,0,0,0,.69-1.48c.15-.41.29-.84.44-1.26.26-.8.54-1.63.88-2.44a10.39,10.39,0,0,0,.47-1.57,10.57,10.57,0,0,1,.73-2.23c.62-1.27,1.19-2.41,1.82-3.53a6,6,0,0,1,1.19-1.35,6.89,6.89,0,0,0,1.08-1.16c.55-.84,1.2-1.75,1.94-2.7a11.57,11.57,0,0,1,1.73-1.71c.25-.21.49-.41.7-.62l.45-.43c.87-.86,1.72-1.69,2.9-1.53.75.09,2.53.6,2.94,3.3a10,10,0,0,1-.44,4.13,5.3,5.3,0,0,1-1.24,1.91,5.15,5.15,0,0,0-.91,1.22c-.16.36-.31.73-.46,1.11a16.58,16.58,0,0,1-1,2.2,7.41,7.41,0,0,0-.51,1.28,9.42,9.42,0,0,1-.9,2.07c-.76,1.18-1.4,2.13-2,3a6.84,6.84,0,0,1-1.63,1.48,5.15,5.15,0,0,0-1.12.94,5.81,5.81,0,0,0-.63,1.25,7,7,0,0,1-1.08,2,9.13,9.13,0,0,1-1.61,1.4,8,8,0,0,0-1.15.95c-.5.54-1,1-1.57,1.49l-.78.69a9.78,9.78,0,0,1,.46,1.1c.12.34.2.7.29,1.06a3.28,3.28,0,0,0,.53,1.39,10.44,10.44,0,0,0,2.16,1.8,8.12,8.12,0,0,0,2.08.8c.37.1.73.21,1.09.33a11.3,11.3,0,0,1,1.37.59,6.32,6.32,0,0,0,1.81.65,15.35,15.35,0,0,0,3.43-.09,8,8,0,0,0,2.11-.73c.36-.16.71-.32,1.07-.46l.7-.26,1.05-.41a4.59,4.59,0,0,1-1.52-2.57,6.57,6.57,0,0,1,.3-2.58l0-.13a12.88,12.88,0,0,1,.73-1.95c.15-.33.3-.66.42-1a10.57,10.57,0,0,1,1.77-2.83,7.1,7.1,0,0,0,.43-.6,4.57,4.57,0,0,1,2.05-2,5.33,5.33,0,0,1,4,.18,3.82,3.82,0,0,1,1.69,3,2.22,2.22,0,0,1-.53,1.6,2.56,2.56,0,0,0-.16.23,9,9,0,0,0-.28,1.32,7.13,7.13,0,0,1-.77,2.54,12.39,12.39,0,0,1-1.94,2.34c-.23.23-.46.46-.68.7l-.57.64c-.16.18-.32.37-.49.55l.71.1.65.12a7.42,7.42,0,0,0,2.58.19q.52-.09,1.08-.15a9.12,9.12,0,0,0,2.32-.5,5.17,5.17,0,0,0,1.32-1,8,8,0,0,1,1.54-1.26,9.3,9.3,0,0,1,2-.8,7.84,7.84,0,0,0,1.54-.62,13.52,13.52,0,0,0,1.19-.86,11.27,11.27,0,0,1,2-1.32,9,9,0,0,1,4.55-.83,7.84,7.84,0,0,1,3.7,1.32,31.81,31.81,0,0,1,2.92,2.08c.36.29.71.61,1.05.93a6.6,6.6,0,0,0,1.45,1.15c.59.28,1.3.06,2.4-.31l.11,0a7.29,7.29,0,0,0,1.54-.83,11.31,11.31,0,0,1,1.54-.89,7.4,7.4,0,0,1,4.77-.36,5.82,5.82,0,0,1,2.3,1.46,6.68,6.68,0,0,0,1.21.92,8.14,8.14,0,0,0,1.86.58,12,12,0,0,1,1.81.52l.22.09a10.82,10.82,0,0,0,2.79.88l1,.15a7.89,7.89,0,0,0,2.22.14,12.16,12.16,0,0,0,3.06-1.1l1,2.06a14.17,14.17,0,0,1-3.66,1.28,9.08,9.08,0,0,1-2.92-.15c-.32-.05-.62-.1-.93-.13a12.5,12.5,0,0,1-3.39-1l-.22-.09a9.65,9.65,0,0,0-1.47-.41,9.54,9.54,0,0,1-2.39-.78,8.52,8.52,0,0,1-1.66-1.23,4.15,4.15,0,0,0-1.37-1,5.06,5.06,0,0,0-3.27.23,11.69,11.69,0,0,0-1.25.72,9.54,9.54,0,0,1-2,1.08l-.1,0a5.23,5.23,0,0,1-4.12.22,8.29,8.29,0,0,1-2-1.55c-.29-.28-.59-.56-.9-.81a33.21,33.21,0,0,0-2.73-1.94,5.63,5.63,0,0,0-2.65-1,6.75,6.75,0,0,0-3.4.61,9.58,9.58,0,0,0-1.58,1.07,15.4,15.4,0,0,1-1.41,1,9,9,0,0,1-2,.83,7.79,7.79,0,0,0-1.51.6,6.53,6.53,0,0,0-1.11.94,7.25,7.25,0,0,1-2,1.49,11.06,11.06,0,0,1-2.94.67c-.34,0-.67.08-1,.14a9.38,9.38,0,0,1-3.37-.2l-.62-.11c-.27-.05-.55-.08-.83-.11a9.86,9.86,0,0,1-1.72-.3,15.2,15.2,0,0,1-2.56,1.14l-.67.25-1,.41a9.52,9.52,0,0,1-2.74.92,17.6,17.6,0,0,1-4,.09,7.88,7.88,0,0,1-2.56-.85,9.67,9.67,0,0,0-1.13-.49c-.32-.11-.65-.21-1-.3a10.19,10.19,0,0,1-2.67-1.06,12.92,12.92,0,0,1-2.62-2.19,5,5,0,0,1-1.07-2.4l-.09-.39a4.5,4.5,0,0,1-.83,1,9.38,9.38,0,0,1-1.83,1.19,9.45,9.45,0,0,0-1.24.75,8.55,8.55,0,0,0-1.05,1,9.07,9.07,0,0,1-1.6,1.48,6.87,6.87,0,0,1-2.17.86,5.86,5.86,0,0,0-1.29.45,9,9,0,0,0-1.17.8,9.3,9.3,0,0,1-1.92,1.2,14.25,14.25,0,0,1-2.55.73l-1,.23A1,1,0,0,1,142.56,275Zm42.7-17.92a3.11,3.11,0,0,0-1,.17c-.29.1-.65.64-.94,1.08-.18.27-.36.53-.54.76a8.34,8.34,0,0,0-1.43,2.21c-.13.37-.3.74-.46,1.12a11.14,11.14,0,0,0-.62,1.6l0,.14a5,5,0,0,0-.26,1.66,3.18,3.18,0,0,0,1.32,1.67c.43-.4.84-.86,1.27-1.35l.6-.67c.24-.26.48-.51.73-.76a10.7,10.7,0,0,0,1.61-1.9A5.31,5.31,0,0,0,186,261a9.63,9.63,0,0,1,.38-1.68,2.63,2.63,0,0,1,.46-.82l.1-.15a1.88,1.88,0,0,0-.47-1.08A2.58,2.58,0,0,0,185.26,257.06ZM174.89,234.8a5.33,5.33,0,0,0-1,.89l-.47.46c-.25.24-.52.47-.8.71a9.14,9.14,0,0,0-1.41,1.37c-.7.9-1.32,1.76-1.84,2.55a8.24,8.24,0,0,1-1.43,1.58,4.84,4.84,0,0,0-.76.81c-.6,1.06-1.15,2.17-1.76,3.41a9,9,0,0,0-.56,1.77,11.59,11.59,0,0,1-.58,1.91c-.31.73-.56,1.48-.82,2.28l-.45,1.31a15.14,15.14,0,0,1-.82,1.77,9.58,9.58,0,0,0-.78,1.72c-.08.26-.16.53-.25.79a20.17,20.17,0,0,0-.61,2.27c.45-.39.87-.78,1.26-1.19a9.82,9.82,0,0,1,1.46-1.23,7.23,7.23,0,0,0,1.23-1,5.23,5.23,0,0,0,.7-1.36,7.37,7.37,0,0,1,1-1.79,7.27,7.27,0,0,1,1.58-1.39,4.65,4.65,0,0,0,1.1-1c.6-.84,1.22-1.76,2-2.9a7.8,7.8,0,0,0,.66-1.57,9.54,9.54,0,0,1,.68-1.68,14.54,14.54,0,0,0,.85-1.9c.17-.43.33-.84.51-1.23a7.24,7.24,0,0,1,1.27-1.79,4.07,4.07,0,0,0,.77-1,7.79,7.79,0,0,0,.36-3.15C175.66,234.9,175.08,234.82,174.89,234.8Z"/><path class="cls-8" d="M318.52,221.44c-1.24-2.66-1.42-5.24-1.52-8.34-.89-27.25-14.55-40.17-14.55-40.17-4.72-9-16.35-12.23-16.35-12.23-4.23-12.7-24.88-8.13-24.88-8.13-6.08-7.1-6.34-16.66-16.62-17.27-5.93-.35-15.3-1.1-21.56,3.76-4.58,3.56-6.51,11.71-9.12,17.32-2.34,5,7.49,27.47,2,27.46-9.5,0-24.1-.28-17.85,16.37,6.82,18.19,14.84,31.46,45.9,51.23,36.32,23.11,74.77,81.66,96.06,104.12V258.87C331.25,245.11,323,230.93,318.52,221.44Z"/><path d="M223.36,191.3a1.41,1.41,0,0,1-.29-2.8l.6-.11c.65-.11,1.74-.29,2.82-.53.43-.1.87-.18,1.28-.26a9.57,9.57,0,0,0,1.8-.44,18,18,0,0,0,2.66-1.94,7.57,7.57,0,0,0,1.76-2.4,10.75,10.75,0,0,0,.67-1.93l.16-.54a8.17,8.17,0,0,0,.19-1.56c0-.31,0-.64.07-1a1.42,1.42,0,0,1,2.83.26c0,.33,0,.63-.07.91a10.23,10.23,0,0,1-.3,2.17l-.14.51a13.93,13.93,0,0,1-.86,2.42,10.71,10.71,0,0,1-2.46,3.3,19.53,19.53,0,0,1-3.19,2.3,9.85,9.85,0,0,1-2.58.71c-.39.08-.8.15-1.19.24-1.17.27-2.31.46-3,.57l-.49.08A1.33,1.33,0,0,1,223.36,191.3Z"/><path d="M235,171.81h-.07a1.41,1.41,0,0,1-1.34-1.49c0-.52.08-1,.14-1.58s.13-1.27.14-1.88,0-1.46-.1-2.23c0-.41-.05-.83-.07-1.24a8.64,8.64,0,0,0-.39-2.43c-.09-.3-.17-.67-.26-1.08a8.91,8.91,0,0,0-.39-1.5,8.69,8.69,0,0,0-1-2.11,1.42,1.42,0,0,1,2.23-1.75,11.57,11.57,0,0,1,1.46,2.83,13.11,13.11,0,0,1,.53,2,7.92,7.92,0,0,0,.18.79,12,12,0,0,1,.53,3.17c0,.4,0,.8.06,1.19,0,.79.1,1.6.1,2.42a19.1,19.1,0,0,1-.16,2.18c-.05.47-.1.94-.12,1.42A1.42,1.42,0,0,1,235,171.81Z"/><path d="M231.16,166.67H231c-3.81-.37-9.28-2.93-12.75-5.16a1.41,1.41,0,0,1,1.53-2.38c3.21,2.06,8.33,4.42,11.49,4.72a1.42,1.42,0,0,1-.14,2.83Z"/><path d="M174.22,176.9c-1.86,1.08-3.34.56-3.15,2.71s1.55,1.36,3.6,1.55A19.51,19.51,0,0,1,174.22,176.9Z"/><path class="cls-7" d="M185.17,169.19c-1.59-.55-1.45.71-2.81,1.7s-1.07,1.4-2.43,2.39-1.7.54-3.06,1.53a18.29,18.29,0,0,0-2.7,2.08,4.18,4.18,0,0,0,.49,4.28c1.38,1,1.59.57,3.1,1.31s1.31,1.14,2.82,1.88,1.71.33,3.22,1.07,1.33,2.25,2.81,1.44c1.32-.72,0-1.27-.16-2.77s-.33-1.48-.46-3,.1-1.52,0-3,0-1.51-.16-3-.74-1.54-.49-3S186.6,169.68,185.17,169.19Z"/><path class="cls-5" d="M280.87,157.33c-1.21-1-1.56-.17-3.14,0s-1.56.3-3.13.48-1.56.36-3.13.55-1.56.38-3.13.56-1.57.27-3.14.46-1.61-.08-3.19.11-1.55.37-3.13.56-1.63-.28-3.2-.09-1.51.73-3.09.92-1.6,0-3.18.15-1.6,0-3.18.17-1.58.16-3.15.35-1.52.68-3.09.87-1.62-.19-3.19,0-1.54.52-3.11.71-1.62-.11-3.19.08-1.57.25-3.14.44-1.61-.07-3.19.12-1.54.46-3.12.65-1.55.36-3.13.55-1.62-.14-3.19,0-1.55.41-3.13.6-1.56.36-3.13.55-1.63-.23-3.21,0-1.53.58-3.1.77-1.61-.08-3.19.11-1.56.37-3.13.56-1.62-.1-3.19.09-1.56.43-3.14.62-1.57.26-3.15.45a3.61,3.61,0,0,0-2.3,1.46,11,11,0,0,0-1.71,2.37c-.36.83-.12,1.92-.29,2.91a10.77,10.77,0,0,0-.57,2.84,12.45,12.45,0,0,0,.64,2.91,13.4,13.4,0,0,0,1.33,2.65,12.56,12.56,0,0,0,1.8,2.37,3.76,3.76,0,0,0,2.68,1.15c1.58-.07,1.59.26,3.17.2s1.57-.25,3.15-.31,1.57-.36,3.15-.43,1.58.13,3.16.07,1.58-.23,3.16-.29,1.57-.17,3.15-.23,1.6.46,3.18.4,1.57-.36,3.15-.43,1.58,0,3.16-.09,1.58-.09,3.16-.15,1.57-.31,3.15-.38,1.58,0,3.16-.09,1.59.23,3.17.16,1.58-.08,3.16-.14,1.59.15,3.16.09,1.58-.16,3.16-.22,1.58-.1,3.16-.17,1.56-.42,3.14-.48,1.59,0,3.17,0,1.59.24,3.17.17,1.57-.44,3.15-.5,1.59.27,3.17.21,1.58-.26,3.16-.32,1.58-.13,3.16-.2,1.58-.1,3.16-.16,1.59.26,3.18.19,1.57-.15,3.16-.22,1.58,0,3.16,0,1.59,0,3.18-.09,2,.65,3-.55.13-1.52,0-3.16-.28-1.63-.4-3.27-.23-1.63-.35-3.27.09-1.65,0-3.29,0-1.65-.1-3.29,0-1.64-.14-3.28-.87-1.67-.65-3.3S282.12,158.41,280.87,157.33Z"/><path class="cls-7" d="M282.77,183.57c-.92.08-1.7-.54-2.51-1.43a9.24,9.24,0,0,1-1.55-2.51,17.77,17.77,0,0,1-1.15-2.76,25.46,25.46,0,0,1-.68-2.94c-.16-1-.08-2-.16-3s-.36-2.08-.35-3a28,28,0,0,1,.28-3.06,17.36,17.36,0,0,1,.89-2.92,11.1,11.1,0,0,1,1-2.89,3.14,3.14,0,0,1,2.45-1.46,2.93,2.93,0,0,1,2.68.91,9.07,9.07,0,0,1,1.82,2.49c.39.84.25,2,.54,3a26.55,26.55,0,0,1,.69,2.94c.15,1,.23,2,.3,3s.31,2.08.3,3.05a27.09,27.09,0,0,1-.37,3.05,20.41,20.41,0,0,1-.47,3,11.08,11.08,0,0,1-1.05,2.92A3.55,3.55,0,0,1,282.77,183.57Z"/><path d="M282.1,174c-.78.07-1.42-1.45-1.57-3.48s.26-4,1-4.11,1.81,1.78,2,3.83S282.87,174,282.1,174Z"/><path class="cls-8" d="M204.43,207.19c.88,1.24-1.57-2.07-2.84-3.43-6.16-6.59-10-19.46-8.76-24.41,1.48-6,5.1-14.91,9.79-19,1.44-1.27,7-3.42,11.19-1.18s3.78,7.42,3.26,11.64c-.26,2.19-1.64,4.19-1.78,6.39-.14,2,1.36,5.37,3.61,9-1.26,6.16-4.62,9-7,14.89-1.52,3.69-2.08,7-4.7,10.2C206.51,210.09,203.55,205.94,204.43,207.19Z"/><path class="cls-8" d="M124.48,205.47c6.52-6,17.79-12.38,17.18-22.81-.4-6.74-8-7.59-10.84-12.72-1.4-2.55-1.21-5.88-2.29-8.63a11.75,11.75,0,0,0-6.18-6.7c-1.16-.49-2.37-.86-3.48-1.45-2.61-1.39-2.79-4.1-4.16-6.51a10.4,10.4,0,0,0-5.18-4.83c-4.72-2-7.63.9-11.69,3-1.92,1-2.7-.08-2.85-2a10.27,10.27,0,0,0-1-4,17,17,0,0,0-1-1.75c-9.24-13.64-26.61,6.79-33.66,13.29-5.66,5.22-19.91,19.34-24.36,25.64l-.19.27A525.67,525.67,0,0,1,1.46,219.51L0,220.88V300a259.43,259.43,0,0,1,42.88-31c14.7-8.7,36.42-13,49.78-13.61h.2c10.72-.69,23.43,3.24,33.07-3.33,8.38-5.73,10.61-19.92-1.34-22.48-5.87-1.26-20-.72-14.39-10.69C113.4,213.26,119.86,209.76,124.48,205.47Z"/><path d="M67.53,172.83a1.42,1.42,0,0,1-1-2.42c.55-.55,1.09-1,1.61-1.47s.78-.68,1.13-1,.84-.9,1.22-1.35.82-1,1.27-1.4a13.7,13.7,0,0,1,1.79-1.38,10.06,10.06,0,0,0,1.18-.88,12.41,12.41,0,0,0,1.06-1.18,13.92,13.92,0,0,1,1.44-1.58A11.35,11.35,0,0,1,78.85,159a9.55,9.55,0,0,0,1.43-1,8.74,8.74,0,0,0,1.16-1.34,12.29,12.29,0,0,1,1.4-1.62,12.65,12.65,0,0,1,1.72-1.29A10.2,10.2,0,0,0,86,152.68a15.19,15.19,0,0,0,1.19-1.38,15.29,15.29,0,0,1,1.36-1.61c.51-.5,1-.94,1.56-1.37s1-.8,1.4-1.22a1.42,1.42,0,0,1,2,2c-.52.51-1.06,1-1.59,1.4s-1,.79-1.37,1.19A14.2,14.2,0,0,0,89.39,153,15.77,15.77,0,0,1,88,154.71a12.83,12.83,0,0,1-1.82,1.4,11.69,11.69,0,0,0-1.36,1,11.15,11.15,0,0,0-1.08,1.28,11.71,11.71,0,0,1-1.53,1.74,13.28,13.28,0,0,1-1.82,1.28,10.25,10.25,0,0,0-1.22.84A11.75,11.75,0,0,0,78,163.51,13.8,13.8,0,0,1,76.65,165a13.39,13.39,0,0,1-1.51,1.15,11.27,11.27,0,0,0-1.42,1.08,14.29,14.29,0,0,0-1.06,1.18c-.41.48-.87,1-1.4,1.55-.39.38-.81.75-1.26,1.14s-1,.86-1.47,1.34A1.41,1.41,0,0,1,67.53,172.83Z"/><path d="M81.2,182.69a1.42,1.42,0,0,1-1-2.45c.42-.4.83-.82,1.25-1.25s1-1,1.57-1.55c.8-.73,1.62-1.46,2.44-2.19l.53-.46a15.24,15.24,0,0,1,1.76-1.32,15.31,15.31,0,0,0,1.44-1.05,16.24,16.24,0,0,0,1.23-1.25A14.8,14.8,0,0,1,92,169.58a17.58,17.58,0,0,1,1.84-1.29,16.68,16.68,0,0,0,1.45-1l1.08-.89c.67-.55,1.33-1.09,2-1.62a11.46,11.46,0,0,0,1.23-1.2,11.52,11.52,0,0,1,1.67-1.59,11.14,11.14,0,0,1,2.06-1.15,11.15,11.15,0,0,0,1.47-.79c.47-.33.92-.7,1.36-1.05s1.17-.95,1.82-1.38c.48-.31.93-.66,1.38-1a20.49,20.49,0,0,1,1.89-1.33,1.42,1.42,0,0,1,1.47,2.42,19.09,19.09,0,0,0-1.63,1.16c-.49.38-1,.77-1.55,1.13s-1,.77-1.6,1.21-1,.8-1.51,1.17a13.54,13.54,0,0,1-1.89,1,10.09,10.09,0,0,0-1.58.86,9.85,9.85,0,0,0-1.28,1.24,12,12,0,0,1-1.57,1.52c-.66.51-1.3,1-2,1.57l-1.1.9a16.6,16.6,0,0,1-1.72,1.19,14.16,14.16,0,0,0-1.53,1.06,14.81,14.81,0,0,0-1.3,1.32,17.31,17.31,0,0,1-1.48,1.49,16.19,16.19,0,0,1-1.7,1.26,13.69,13.69,0,0,0-1.47,1.09l-.53.46c-.82.73-1.63,1.44-2.42,2.16-.49.45-1,.95-1.43,1.43s-.9.92-1.36,1.35A1.38,1.38,0,0,1,81.2,182.69Z"/><path d="M91,197.64a1.42,1.42,0,0,1-.9-2.52c.4-.33.81-.68,1.22-1,.65-.55,1.31-1.12,2-1.67l1.26-1c.67-.54,1.35-1.09,2.06-1.61a23,23,0,0,1,2-1.26c.57-.34,1.11-.66,1.61-1l3.44-2.42,1.36-1c.7-.5,1.39-1,2.08-1.46a11.27,11.27,0,0,0,1.44-1.21,13,13,0,0,1,1.83-1.5,12.72,12.72,0,0,1,2.27-1.1,10.35,10.35,0,0,0,1.56-.72,12.73,12.73,0,0,0,1.54-1.19,13.54,13.54,0,0,1,1.85-1.39,14,14,0,0,1,2.64-1.08,9.89,9.89,0,0,0,1.36-.5c.59-.3,1.12-.59,1.59-.85A6.66,6.66,0,0,1,126,172a1.44,1.44,0,0,1,1.46,1.38,1.42,1.42,0,0,1-1.35,1.45,9.75,9.75,0,0,0-1.53.77c-.5.27-1.07.59-1.7.9a12.49,12.49,0,0,1-1.76.67A11.13,11.13,0,0,0,119,178a10.45,10.45,0,0,0-1.43,1.09,14.83,14.83,0,0,1-1.89,1.44,12.83,12.83,0,0,1-2,.94,10.24,10.24,0,0,0-1.79.85,11.43,11.43,0,0,0-1.44,1.2,14.71,14.71,0,0,1-1.78,1.48c-.68.46-1.35.93-2,1.41l-1.39,1c-1.14.79-2.28,1.59-3.41,2.4-.6.43-1.22.8-1.81,1.15a19.41,19.41,0,0,0-1.71,1.09c-.68.51-1.33,1-2,1.55l-1.29,1c-.67.51-1.3,1-1.91,1.58-.43.37-.85.74-1.28,1.08A1.38,1.38,0,0,1,91,197.64Z"/></g></svg>