<svg xmlns="http://www.w3.org/2000/svg" viewBox="0 0 134 158"><defs><style>.cls-1{fill:#f0f0f0;}.cls-2{fill:#fff;}.cls-3{fill:#5f5f5f;}.cls-4{fill:#f8c341;}.cls-5{fill:#211815;}.cls-6{fill:#d4f0fd;}.cls-7{fill:#a9e1fc;}</style></defs><g id="圖"><rect class="cls-1" x="29.14" y="102.37" width="75.73" height="55.63"/><rect class="cls-2" x="29.14" y="100.46" width="75.73" height="18.5"/><rect class="cls-3" x="45.8" y="107.57" width="42.4" height="2.79" rx="1.4"/><polygon class="cls-4" points="91.7 155.02 91.82 151.09 91.86 147.15 91.71 143.21 91.76 139.27 91.84 135.3 88.08 136.29 84.4 137.44 80.65 138.32 76.91 139.24 73.19 140.38 69.7 138.91 66.35 137.22 62.85 135.89 59.36 134.5 55.99 132.86 52.54 131.39 49.05 130.04 45.66 128.41 42.24 127.18 42.22 131.07 42.28 135.06 42.14 139.05 42.14 143.04 42.24 147.03 42.29 151.02 42.13 155.02 42.1 158 91.81 158 91.7 155.02"/><path class="cls-2" d="M67.29,149.92c0,2.4-.62,5-3.22,5s-3.22-2.49-3.22-5,1.44-3.65,3.22-3.65S67.29,147.52,67.29,149.92Z"/><path class="cls-5" d="M66.21,149.3c0,1.59-.41,3.31-2.14,3.31s-2.13-1.65-2.13-3.31,1-2.42,2.13-2.42A2.15,2.15,0,0,1,66.21,149.3Z"/><path class="cls-2" d="M83.84,149.92c0,2.4-.62,5-3.22,5s-3.22-2.49-3.22-5,1.44-3.65,3.22-3.65S83.84,147.52,83.84,149.92Z"/><path class="cls-5" d="M82.76,149.3c0,1.59-.41,3.31-2.14,3.31s-2.13-1.65-2.13-3.31,1-2.42,2.13-2.42A2.15,2.15,0,0,1,82.76,149.3Z"/><rect class="cls-6" x="48.37" y="25.81" width="37.26" height="53.65" transform="translate(-16.44 69.9) rotate(-49.84)"/><polygon class="cls-7" points="58.51 21.1 67 52.64 99.51 55.7 58.51 21.1"/></g></svg>