<svg xmlns="http://www.w3.org/2000/svg" viewBox="0 0 600 350"><defs><style>.cls-1{fill:#fae7e7;}.cls-2{fill:#f8c341;}.cls-3{fill:#27b5f7;}.cls-4{fill:#f56977;}.cls-5{fill:#fff;}</style></defs><g id="圖"><path class="cls-1" d="M135.27,110.3c1.47-35.41,23.92-46.71,45.62-45.16,22.56,1.61,37,17.74,37.62,53.26.33,18.79-11.34,36.33-26.81,40.45a1.15,1.15,0,0,0-.24.13,4.58,4.58,0,0,0-2.06,4.25l1,12.52a11.29,11.29,0,0,1-12.46,9.9l-18-2.05a9.67,9.67,0,0,1-8.51-10.7l4-13.63a4.59,4.59,0,0,0-.9-4.32,2.64,2.64,0,0,0-.41-.41C142.05,145,134.49,129.06,135.27,110.3Z"/><path class="cls-1" d="M503.2,105.36c-2.45-35.36-25.2-46-46.84-43.89-22.51,2.23-36.49,18.75-36.15,54.27.19,18.8,12.33,36,27.91,39.7a1.13,1.13,0,0,1,.25.12,4.57,4.57,0,0,1,2.17,4.2l-.62,12.53a11.28,11.28,0,0,0,12.72,9.56l17.91-2.54a9.67,9.67,0,0,0,8.21-10.93l-4.37-13.51a4.6,4.6,0,0,1,.78-4.35,2.73,2.73,0,0,1,.4-.42C497.38,140.21,504.49,124.09,503.2,105.36Z"/><path class="cls-1" d="M272.51,134.18,252,163.27a21.72,21.72,0,0,1-6.25,5.91L161.28,221.5l47.77,12.15,62.09-37.05a21.49,21.49,0,0,0,5.48-4.68c9.22-11.06,43.82-51.91,67.16-70.85l.18-.15c4.18-3.47,13.37-14.36,16.75-18.67,4.22-5.37,17.65-18.75,7.87-25a13.63,13.63,0,0,0-1.46-.78,6.1,6.1,0,0,0-2.53-.52c-1.39,0-2.22-.55-1.58-2,1.31-3,3.17-5.26,1.62-8.64a7.42,7.42,0,0,0-3.54-3.6c-1.72-.92-3.6-1-4.66-2.81-.45-.79-.75-1.67-1.14-2.49a8.35,8.35,0,0,0-4.87-4.28c-1.95-.69-4.24-.44-6.05-1.37-3.66-1.87-4.55-7.41-9.22-7.47-7.24-.08-11.17,8.37-15.09,13.33-2.78,3.53-4.95,8.36-8.73,10.89-6.67,4.46-6.86-5.89-8-10.13-2.24-8.63-12-6.51-15.58-.19-4.17,7.26-1,16.39-1,24.24v.15C286.9,99,281.84,119.68,272.51,134.18Z"/><path class="cls-2" d="M161.36,171.78s7.58-6.35,28.81,1.49c12.72,4.7,21.81,5.87,42.41-1.56a23.54,23.54,0,0,0,5.51-2.77l26.93,36-6.18,5.4c-14.23,12.44-38.76,23.62-70.43,35.32"/><polygon class="cls-3" points="72.72 281.45 90.06 249.14 95.84 256.29 86.4 284.05 72.72 281.45"/><path class="cls-2" d="M238.11,231c-3.09-27.7-20.32-51.58-45.22-62-.29-.13-.57-.26-.87-.37a4.2,4.2,0,0,1-2.47-3.48c-15.13,3.44-34.79-3.58-34.79-3.58s-.8,3.23-3.46,3.5h-.59c-5,0-14.9-.59-32.41,15.37C91.25,205.08,93.48,286.6,95.63,350H241.4C242,322.9,241.86,264.61,238.11,231Z"/><path class="cls-2" d="M109.13,192.71S88.5,241,83.75,259.61c-.56,2.2-2,8.85-2,8.85l4.18.47,13.19,1.49"/><polygon class="cls-3" points="166.67 299.1 69.87 280.89 49.51 341.65 89.24 350 156.71 350 166.67 299.1"/><path class="cls-1" d="M115.1,285.62s.63-5.91,1.19-10.25A3,3,0,0,0,114,272c-5.46-.8-18-2.54-28-3.06l-3.18,14.85s0,36.26,7.34,66.23h46.47C133.78,342.27,116,292.08,115.1,285.62Z"/><polygon class="cls-3" points="570.41 274.67 526.89 185.23 538.17 234.39 556.81 277.66 570.41 274.67"/><path class="cls-2" d="M522.18,175c-16.38-17.2-27.77-14.55-32.81-14.44l-.59,0c-2.51,0-3.61-3.29-3.61-3.29s-19.51,7.34-34.72,4.33a4.37,4.37,0,0,1-2.27,3.69,8.53,8.53,0,0,1-.87.39c-24.61,11.14-30,45.16-32.4,72.94-2.89,34.08-2,85-.72,111.38H548.28C552.46,314,548.42,202.54,522.18,175Z"/><path class="cls-3" d="M430,176c2.75,10.27,20.27,73.31,46.92,119l21.61-.31s-27.49-34.85-60.75-122.88a2,2,0,0,0-3.12-1l-3.87,2.86A2.16,2.16,0,0,0,430,176Z"/><polygon class="cls-3" points="595.21 334.18 573.25 274.03 476.96 295 489.26 350 529.32 350 595.21 334.18"/><path class="cls-1" d="M398.9,128.6l21.55,28.81a19.73,19.73,0,0,0,5.83,5.21l60.13,35L464,218.87l-61.47-28a19.22,19.22,0,0,1-6.48-4.81c-10-11.28-45.13-50.47-68.69-68.55a1.33,1.33,0,0,1-.19-.14c-4.27-3.35-13.75-14-17.24-18.18C305.53,94,291.75,81,301.36,74.41a11.37,11.37,0,0,1,1.44-.82,6.21,6.21,0,0,1,2.51-.6c1.39-.06,2.2-.61,1.54-2-1.39-3-3.31-5.16-1.86-8.59a7.47,7.47,0,0,1,3.44-3.7c1.7-1,3.58-1.06,4.59-2.94.43-.81.71-1.69,1.07-2.53a8.38,8.38,0,0,1,4.76-4.41c1.93-.75,4.22-.56,6-1.54,3.61-2,4.35-7.54,9-7.73,7.23-.29,11.39,8,15.44,12.89,2.87,3.45,5.16,8.22,9,10.64C365.12,67.3,365,57,366,52.68c2-8.69,11.78-6.85,15.57-.64C386,59.18,383,68.4,383.23,76.25a.76.76,0,0,1,0,.15C383.58,93.84,389.19,114.37,398.9,128.6Z"/><path class="cls-2" d="M512.3,171.4s-4.45-6.21-20.61-2.18c-13.13,3.27-31.1,2.59-51.88-4.25a23.18,23.18,0,0,1-5.58-2.61l-26,36.71,6.32,5.23c14.55,12,36.53,23.88,74.88,16.41"/><path d="M177,180a1.2,1.2,0,0,1-.48-.11L154.77,170a1.15,1.15,0,1,1,1-2.09l21.74,9.87A1.15,1.15,0,0,1,177,180Z"/><path d="M196.19,346h-.11a1.15,1.15,0,0,1-1-1.26c1.68-16.8-5.58-98.52-7.73-117.21-.61-5.2-1-10.51-1.48-15.64-.83-9.91-1.68-20.16-3.71-30a1.15,1.15,0,1,1,2.25-.46c2.06,10,2.92,20.31,3.75,30.28.43,5.12.87,10.41,1.47,15.58C191.76,246,199,328,197.33,345A1.15,1.15,0,0,1,196.19,346Z"/><path d="M187.57,179.31a1.16,1.16,0,0,1-.64-.19,1.15,1.15,0,0,1-.31-1.6,88.43,88.43,0,0,1,5.32-7.12,1.15,1.15,0,1,1,1.77,1.46,86.43,86.43,0,0,0-5.18,6.95A1.15,1.15,0,0,1,187.57,179.31Z"/><path d="M196,217.55a1.15,1.15,0,0,1,0-2.3l29.36-.5h0a1.15,1.15,0,0,1,0,2.3l-29.36.5Z"/><path class="cls-3" d="M210.43,178.82c-2.48,10.33-18.32,73.86-43.76,120.28l-21.6.31s26.55-35.62,57.47-124.56a2,2,0,0,1,3.09-1.07l4,2.75A2.17,2.17,0,0,1,210.43,178.82Z"/><path d="M123.43,270.6l-.24,0a1.15,1.15,0,0,1-.88-1.37l.31-1.4c2.55-11.67,4.4-20.11,7.7-30.1.5-1.53,1-3.07,1.43-4.61a77.5,77.5,0,0,1,4.34-11.89,1.15,1.15,0,0,1,2.06,1,75.08,75.08,0,0,0-4.2,11.54c-.47,1.56-.94,3.12-1.45,4.66-3.26,9.88-5.1,18.27-7.64,29.87l-.3,1.4A1.16,1.16,0,0,1,123.43,270.6Z"/><path d="M436.37,338a1.16,1.16,0,0,1-1.13-1,376.3,376.3,0,0,1-2.63-114.82,1.15,1.15,0,1,1,2.28.3,374.28,374.28,0,0,0,2.61,114.12,1.15,1.15,0,0,1-.93,1.33Z"/><path d="M502.58,178.31l-.24,0c-15.58-3.35-31.5-6-47.33-7.82a1.15,1.15,0,0,1,.26-2.28c15.91,1.84,31.91,4.48,47.55,7.86a1.15,1.15,0,0,1-.24,2.27Z"/><path d="M486.06,309.17a2.42,2.42,0,0,1-1.44-.41,2.75,2.75,0,0,1-.93-1.51c-.81-2.74-1.55-5.53-2.18-8.31a1.15,1.15,0,0,1,.86-1.38,1.17,1.17,0,0,1,1.38.87c.62,2.72,1.35,5.47,2.15,8.17a1.68,1.68,0,0,0,.09.27h.28a24.23,24.23,0,0,0,7.23-1.56,2.73,2.73,0,0,0,.82-.42,2.26,2.26,0,0,0,.38-1.63,15.57,15.57,0,0,0-1.05-4.38c-.29-.83-.6-1.77-.91-2.84a1.15,1.15,0,0,1,2.22-.62c.28,1,.58,1.88.86,2.71a17.59,17.59,0,0,1,1.18,5,4.2,4.2,0,0,1-1.11,3.42,4.63,4.63,0,0,1-1.57.89,26.85,26.85,0,0,1-7.91,1.71Z"/><path d="M513.86,339.19c-.48-1.43-.89-2.92-1.3-4.36-.34-1.24-.7-2.52-1.1-3.77-.56-1.76-1.22-3.51-1.86-5.19s-1.17-3.1-1.68-4.66c-.9-2.74-1.6-5.59-2.28-8.34l-4.48-18.15a1.15,1.15,0,0,0-2.24.55l4.49,18.15c.69,2.8,1.4,5.69,2.33,8.51.52,1.61,1.13,3.2,1.71,4.75s1.27,3.37,1.82,5.08c.39,1.21.74,2.47,1.08,3.68.41,1.48.83,3,1.33,4.49s2.16,5.68,4,10.07h2.5C516.19,345.27,514.38,340.74,513.86,339.19Z"/><path d="M559.17,277.89h0a1.15,1.15,0,0,1,0-2.3h0a4.11,4.11,0,0,0,1.38-.38l.33-.12a14.56,14.56,0,0,1,7.28-.76,1.15,1.15,0,0,1-.35,2.28,12.2,12.2,0,0,0-6.13.63l-.3.12A6,6,0,0,1,559.17,277.89Z"/><path d="M161.47,313.11a1.13,1.13,0,0,1-.36-.06,1.15,1.15,0,0,1-.73-1.45,21.38,21.38,0,0,0,1.07-7.9,2.26,2.26,0,0,0-.07-.53c-.1-.2-.57-.44-.74-.53a20.55,20.55,0,0,0-8.13-2.15h-.27a2.5,2.5,0,0,0-.14.3,57.43,57.43,0,0,0-2.79,8.17,1.15,1.15,0,0,1-2.23-.58,61.55,61.55,0,0,1,2.9-8.49,2.81,2.81,0,0,1,1.09-1.4,2.71,2.71,0,0,1,1.56-.29,22.71,22.71,0,0,1,9.05,2.39,3.63,3.63,0,0,1,1.78,1.6,3.77,3.77,0,0,1,.29,1.4,23.72,23.72,0,0,1-1.19,8.73A1.14,1.14,0,0,1,161.47,313.11Z"/><path d="M81.12,284.33a1.33,1.33,0,0,1-.28,0,25.82,25.82,0,0,0-2.9-.52,29.36,29.36,0,0,1-3.14-.57,1.14,1.14,0,0,1-.84-1.39,1.16,1.16,0,0,1,1.39-.84,25.82,25.82,0,0,0,2.9.52,30,30,0,0,1,3.15.57,1.14,1.14,0,0,1,.83,1.39A1.15,1.15,0,0,1,81.12,284.33Z"/><ellipse cx="435.99" cy="99.24" rx="5.03" ry="2.38" transform="translate(259.45 510.05) rotate(-79.57)"/><ellipse cx="461.8" cy="103.99" rx="5.03" ry="2.38" transform="translate(275.92 539.33) rotate(-79.57)"/><path d="M444.68,114.79a1.65,1.65,0,0,1-.31,0,1.25,1.25,0,0,1-.9-1.52l5.47-21.32a1.24,1.24,0,1,1,2.41.61l-5.47,21.33A1.25,1.25,0,0,1,444.68,114.79Z"/><path d="M445.19,128.18a21.82,21.82,0,0,1-9.42-2.2,1.11,1.11,0,0,1-.44-1.51,1.12,1.12,0,0,1,1.51-.45c.49.27,12.23,6.46,21.1-4.49a1.12,1.12,0,0,1,1.74,1.41C455.06,126.63,449.68,128.18,445.19,128.18Z"/><ellipse cx="205.19" cy="101.79" rx="2.38" ry="5.03" transform="translate(-15.04 38.83) rotate(-10.43)"/><ellipse cx="179.38" cy="106.54" rx="2.38" ry="5.03" transform="translate(-16.33 34.24) rotate(-10.43)"/><path d="M196.5,117.34a1.25,1.25,0,0,1-1.21-.93l-5.46-21.33a1.24,1.24,0,0,1,2.41-.62l5.46,21.33a1.24,1.24,0,0,1-.89,1.51A1.15,1.15,0,0,1,196.5,117.34Z"/><path d="M196,130.73c-4.49,0-9.87-1.55-14.49-7.24a1.11,1.11,0,1,1,1.73-1.4c8.88,10.94,20.62,4.76,21.11,4.49a1.12,1.12,0,0,1,1.07,2A21.94,21.94,0,0,1,196,130.73Z"/><path d="M332.14,120.7a1.1,1.1,0,0,1-1-.65,11.4,11.4,0,0,0-3.35-3.64l-12.12-9.85a1.12,1.12,0,0,1,1.41-1.73l12.11,9.85a13,13,0,0,1,4,4.44,1.12,1.12,0,0,1-.55,1.48A1.23,1.23,0,0,1,332.14,120.7Z"/><path d="M308.58,98.81a1.12,1.12,0,0,1-.85-.39c-.75-.88-1.5-1.74-2.25-2.57-2.64-3-5.15-5.83-6.3-8.43-2.41-5.44-1-11.52,3.12-13.55a1.12,1.12,0,1,1,1,2c-3,1.49-4,6.36-2.07,10.64,1,2.3,3.4,5,5.93,7.86.75.85,1.52,1.71,2.28,2.6a1.12,1.12,0,0,1-.85,1.84Z"/><path d="M330.61,92.42a1.08,1.08,0,0,1-.73-.28l-6.38-5.59a94.89,94.89,0,0,1-7.1-6.69c-.93-1-1.81-2-2.67-3.06-1.23-1.45-2.5-2.94-3.86-4.28a1.11,1.11,0,0,1,0-1.57,1.12,1.12,0,0,1,1.58,0c1.43,1.41,2.74,2.94,4,4.43.84,1,1.71,2,2.61,3A94.75,94.75,0,0,0,325,84.87l6.38,5.6a1.11,1.11,0,0,1-.74,2Z"/><path d="M338.46,82a1.1,1.1,0,0,1-1-.6c-1.64-3.17-13.17-15.54-16.79-19.12a1.11,1.11,0,0,1,1.56-1.59c2.84,2.8,15.27,15.94,17.21,19.69a1.12,1.12,0,0,1-.48,1.5A1.19,1.19,0,0,1,338.46,82Z"/><path d="M351.3,74.3a1.17,1.17,0,0,1-.78-.31l-7.77-7.44a140.51,140.51,0,0,1-11.47-11.9A1.12,1.12,0,0,1,333,53.24a138.6,138.6,0,0,0,11.28,11.7l7.78,7.44a1.12,1.12,0,0,1-.77,1.92Z"/><path class="cls-4" d="M349.39,294.13a4.07,4.07,0,0,0,3.4,4.64,5.29,5.29,0,0,1,4.62,5.35,5.15,5.15,0,0,1-5.8,5L344,308a6.82,6.82,0,0,1-5.7-7.79l4-28.37,10,1.41Z"/><polygon class="cls-4" points="355.01 219.98 349.47 214.46 344.33 208.62 338.64 203.37 333.02 198.02 327.82 192.25 322.33 186.78 316.66 181.5 311.43 175.76 305.81 170.76 302.84 178.36 299.95 186.23 296.67 193.96 293.67 201.79 290.86 209.69 287.95 217.56 284.63 225.27 281.54 233.07 278.89 241.04 275.9 248.88 272.57 256.58 269.53 264.41 266.73 272.23 274.33 272.13 282.03 271.86 289.73 271.67 297.42 271.17 305.11 270.93 312.81 270.82 320.51 270.52 328.2 270.21 335.83 270 342.28 274.53 348.78 279.12 354.83 284.32 361.25 289 367.72 293.57 370.88 285.97 373.51 278.12 376.68 270.48 379.37 262.64 382.57 255.02 385.62 247.33 388.28 239.49 391.35 231.8 394.5 224.08 386.57 223.18 378.67 222.67 370.83 221.57 362.99 220.53 355.01 219.98"/><path class="cls-5" d="M336.56,234.25c-1.81,4.71-4.95,9.33-9.92,7.37s-4.28-7.31-2.39-12.23,5.5-6.07,8.9-4.72S338.37,229.54,336.56,234.25Z"/><path d="M334.82,232.18c-1.2,3.12-3.28,6.18-6.58,4.88s-2.84-4.84-1.59-8.11,3.65-4,5.91-3.13S336,229.05,334.82,232.18Z"/><path class="cls-5" d="M368.2,246.73c-1.81,4.71-4.95,9.33-9.92,7.37s-4.29-7.31-2.4-12.23,5.51-6.07,8.91-4.73S370,242,368.2,246.73Z"/><path d="M366.26,244.62c-1.2,3.12-3.28,6.18-6.58,4.88s-2.84-4.84-1.59-8.11,3.65-4,5.91-3.13S367.46,241.49,366.26,244.62Z"/><path d="M344,255.84a12,12,0,0,1-10.37-6,.91.91,0,1,1,1.56-.92A10.22,10.22,0,0,0,347,253.59a.9.9,0,1,1,.53,1.73A11.94,11.94,0,0,1,344,255.84Z"/><path d="M331.34,252a.9.9,0,0,1-.65-.28.91.91,0,0,1,0-1.29l3.88-3.72a.91.91,0,0,1,1.28,0,.9.9,0,0,1,0,1.28L332,251.76A.91.91,0,0,1,331.34,252Z"/><path d="M348.55,258.73a.92.92,0,0,1-.91-.82l-.52-5.39a.9.9,0,1,1,1.8-.17l.53,5.38a.9.9,0,0,1-.81,1Z"/><path class="cls-4" d="M311.11,280.13a4,4,0,0,1-5.54,1.47,5.18,5.18,0,1,0-5.49,8.78l6.6,4A6.73,6.73,0,0,0,316,291.9l14.5-24.67L321.77,262Z"/><path d="M302.62,40.61a1.12,1.12,0,0,1-.79-.33,37.59,37.59,0,0,0-3.6-3.06l-1.24-1a55.2,55.2,0,0,0-5.11-3.65,1.12,1.12,0,1,1,1.19-1.89,57.86,57.86,0,0,1,5.32,3.8l1.22,1a40.87,40.87,0,0,1,3.81,3.24,1.12,1.12,0,0,1,0,1.58A1.14,1.14,0,0,1,302.62,40.61Z"/><path d="M316.45,34.65a1.11,1.11,0,0,1-1.07-.78,36.32,36.32,0,0,0-1.7-4.18c-.47-1-.95-2.06-1.35-3.13-.26-.67-.51-1.34-.76-2-.65-1.78-1.34-3.62-2.12-5.36a1.1,1.1,0,0,1,.55-1.47,1.13,1.13,0,0,1,1.48.56c.82,1.81,1.51,3.68,2.18,5.49l.75,2c.38,1,.85,2,1.29,3a38.89,38.89,0,0,1,1.81,4.44,1.11,1.11,0,0,1-.73,1.39A1,1,0,0,1,316.45,34.65Z"/><path d="M337.05,29.84l-.19,0a1.1,1.1,0,0,1-.91-1.27v0c.47-2.78.92-5.41,1.11-8.09.07-1,.07-2,.08-3.07A33.86,33.86,0,0,1,337.5,12a1.11,1.11,0,1,1,2.19.38,32.81,32.81,0,0,0-.31,5c0,1,0,2.13-.09,3.2a81,81,0,0,1-1.14,8.31A1.13,1.13,0,0,1,337.05,29.84Z"/><path d="M357,32.92a1.12,1.12,0,0,1-1-1.61c.53-1.08,1.09-2.14,1.66-3.21s1.1-2.09,1.63-3.15,1.08-2.14,1.64-3.21,1.09-2.1,1.61-3.16a1.11,1.11,0,0,1,2,1c-.53,1.08-1.08,2.14-1.64,3.2s-1.09,2.11-1.61,3.18-1.1,2.14-1.66,3.2-1.11,2.09-1.63,3.15A1.12,1.12,0,0,1,357,32.92Z"/><path d="M370.44,38.22a1.13,1.13,0,0,1-.92-.48,1.11,1.11,0,0,1,.29-1.55,22.07,22.07,0,0,0,2.36-2,26.28,26.28,0,0,1,2.46-2.06,23.91,23.91,0,0,1,2.8-1.6,19.62,19.62,0,0,0,2.64-1.52,1.12,1.12,0,1,1,1.31,1.81,21.71,21.71,0,0,1-2.93,1.69A21.91,21.91,0,0,0,375.91,34a22.33,22.33,0,0,0-2.24,1.88,24,24,0,0,1-2.6,2.15A1.11,1.11,0,0,1,370.44,38.22Z"/><path d="M39.46,49c.78,1.19.88,2.06.31,2.59l-3,2.79c-.58.53-1,.43-1.36-.31L33,48.19v26c0,.83-.39,1.18-1.17,1.06l-4.39-.93a1.29,1.29,0,0,1-1.18-1.42V50.48q-2.84,9.77-5.44,13.91c-.29.5-.55.37-.8-.37l-2.1-5.93a2.22,2.22,0,0,1,.24-2c.87-1.12,2-3.61,3.4-7.49A84.46,84.46,0,0,0,25,36.69H20.1q-1.23,0-1.05-1.17L20,31.07a1.27,1.27,0,0,1,1.42-1.18h4.82V19c0-.83.4-1.18,1.18-1.06l4.39.93A1.28,1.28,0,0,1,33,20.24v9.65h4.89c.82,0,1.17.39,1,1.18L38,35.52a1.27,1.27,0,0,1-1.42,1.17H33v2Q33.71,39.66,39.46,49ZM74.7,43.93c.33.49.14,1-.56,1.36l-4,2.35c-.71.41-1.34.14-1.92-.81A46.66,46.66,0,0,1,61.53,60.5,34.49,34.49,0,0,0,75,68c.86.25,1,.66.43,1.24l-4.45,4.39a1.81,1.81,0,0,1-2.1.37q-6.06-2-12.19-7.92A42,42,0,0,1,43,75a1.16,1.16,0,0,1-1.73-.5L39,70.33c-.37-.7-.14-1.22.68-1.55A35.75,35.75,0,0,0,52,60.62a57.81,57.81,0,0,1-6.81-13L43.6,48.93a1,1,0,0,1-1.67-.12l-2.6-3.52a1.12,1.12,0,0,1,.19-1.73q3.88-2.85,7.66-9.28c.5-.78,1.08-1,1.74-.49l3.77,2.59a1,1,0,0,1,.24,1.67l-5.56,7.24.74-.25a3,3,0,0,1,3.9,2A30.41,30.41,0,0,0,56.52,55q3.34-4.87,4-7.79c.62-1.93,1.87-2.65,3.77-2.16l3.4.93-6.24-7.11q-2-2.3.31-4.21L63.63,33H41.87q-1.24,0-1-1.17l.92-4.39a1.29,1.29,0,0,1,1.43-1.18H54.54L51.2,20.49c-.37-.7-.16-1.11.62-1.23l4.82-1a1.61,1.61,0,0,1,1.8.92L60.17,22q1.66,2.65-1.24,3.89l-1,.43H73.53c.82,0,1.17.4,1,1.18l-.93,4.39A1.27,1.27,0,0,1,72.23,33H65.05Q72.47,40,74.7,43.93Z"/><path d="M82.43,23.09a2.63,2.63,0,0,1,3-3h49a2.63,2.63,0,0,1,3,3V72.56a2.62,2.62,0,0,1-3,3h-49a2.62,2.62,0,0,1-3-3Zm7.17,44a1.42,1.42,0,0,0,1.61,1.61h37a1.41,1.41,0,0,0,1.6-1.61V28.65a1.41,1.41,0,0,0-1.6-1.6h-37a1.42,1.42,0,0,0-1.61,1.6Zm38.65-5c.53.34.49.75-.13,1.24l-2.84,2.29a1.33,1.33,0,0,1-1.73.18q-2.67-2-11.38-5.93v6.18q0,1.25-1.17,1l-4.33-.92a1.28,1.28,0,0,1-1.18-1.43v-4a60.35,60.35,0,0,1-10.08,4.94,1.26,1.26,0,0,1-1.67-.68l-1.6-3.15c-.37-.7-.13-1.18.74-1.42a44,44,0,0,0,12.49-6.12h-7.3a2.63,2.63,0,0,1-3-3v-5a2.63,2.63,0,0,1,3-3h23.75c2,0,3,1,3,3v4.51a9.29,9.29,0,0,0,1.92,5.38L125.53,58c-1.2,1-1.94,1.47-2.23,1.42A33.18,33.18,0,0,1,128.25,62.1Zm-1.86-25c.83,0,1.13.39.93,1.17l-.62,1.92a1.44,1.44,0,0,1-1.54,1.17H93.06c-.82,0-1.13-.39-.92-1.17l.68-1.92a1.44,1.44,0,0,1,1.54-1.17h11.81V34.65H96.09c-.82,0-1.11-.39-.86-1.17l.56-1.8a1.53,1.53,0,0,1,1.6-1.17h8.78V29c0-.82.39-1.17,1.18-1.05l4.57.93c.79.12,1.18.66,1.18,1.61h10.63q1.24,0,.87,1.17l-.56,1.8a1.53,1.53,0,0,1-1.61,1.17H113.1v2.48ZM103.08,47.27a1.42,1.42,0,0,0-1.61,1.6c0,1.12.54,1.67,1.61,1.67H116.5a1.42,1.42,0,0,0,1.61-1.61,1.45,1.45,0,0,0-1.61-1.66Zm10.76,7.11-.74.61,5.38,2.17,2.41-1.86c.82-.62.7-.92-.37-.92Z"/></g></svg>