<svg xmlns="http://www.w3.org/2000/svg" viewBox="0 0 600 350"><defs><style>.cls-1{fill:#fae7e7;}.cls-2{fill:#f8c341;}.cls-3{fill:#27b5f7;}.cls-4{fill:#e2e2e2;}.cls-5{fill:#f56977;}.cls-6{fill:#fff;}</style></defs><g id="圖"><path class="cls-1" d="M347.16,214.83c0-36.84-18.8-49.93-42-49.93s-42,13.09-42,49.93c0,19.27,9.18,36,22.62,44.31l.22.17a4.68,4.68,0,0,1,1.61,4.57l-2.44,12.63A11.57,11.57,0,0,0,296.75,288h18.54a9.91,9.91,0,0,0,9.91-9.91l-2.5-14.35a4.74,4.74,0,0,1,1.42-4.3,3.11,3.11,0,0,1,.47-.36C338,250.78,347.16,234.08,347.16,214.83Z"/><path class="cls-2" d="M380.54,153.69c-3.62,4-18.11,15.24-21.16,12.51s6.52-18.36,10.14-22.4,9-5.1,12.06-2.37S384.16,149.65,380.54,153.69Z"/><path class="cls-3" d="M210.76,219c6.1-1.89,27.54-4.44,29,.17s-17.7,14.61-23.81,16.5-12.2-.31-13.63-4.91S204.66,220.9,210.76,219Z"/><polygon class="cls-1" points="400.67 307.4 376.03 313.91 383.01 350 415.73 350 400.67 307.4"/><path class="cls-2" d="M416.55,335.27c-10.68-31.13-23.83-47-48.25-52L329,272.94c-.25-.05-.5-.12-.74-.19a90.95,90.95,0,0,1-45.49,0c-.24.07-.49.14-.74.19l-39.35,10.29c-24.42,5-37.57,20.91-48.25,52L189.66,350H421.27Z"/><path class="cls-2" d="M416.55,335.27c-10.68-31.13-23.83-47-48.26-52L329,272.94c-2-.41-44.95-.41-47,0l-39.35,10.29c-24.42,5-37.57,20.91-48.25,52L189.66,350h218Z"/><path class="cls-4" d="M397.48,251.13a2.12,2.12,0,0,1-1.19-3.88l2.18-1.48,2.59-.84,2.22-.59,2.58-.58,2-.2,2.23-.83,2.37-.12,2.31-.68,2.41.07,2.28-.47,2.21.12,2.2-.69,2.42.07,2-.43,4.75-.86,2-.2,2.13-.86,2.18-.24,3.83-1.76,3.93-1.41,1.54-1,1.91-1.52,1.89-.75,1.38-1.58,2.05-1.19,1.44-1.2,5.8-6.22,2.63-3.69,1.3-1.36,1.06-2.17,1.36-1.84,1.19-1.78,1.2-2.4,2.08-1.68,1.82-1.83,2.21-1.56,2.41-.72,2.42-1.25h2.75l2.4-.38,2.15-.09,2.52-.58,2-.09,2.16-.79,2.09-.5,3.84-1.22,3.76-2.53,1.76-.79,2.92-2.65,1.41-1.87,1.37-1.38,1.13-2,1.25-1.58,1.8-3.63.54-2.08.65-2,.43-2.3.86-1.93.1-2L521,169l.14-2.12,0-2-.4-2.26-.12-2.12-.36-2.09-.27-1.93-1-2L517.48,150l-.39-2-.81-1.66-1.25-2-.92-1.87-1.31-2-.91-1.8-1.4-1.75-1.1-1.72-1.54-1.7-1.29-1.76-1-1.53-1.83-1.21-1.32-1.77-1.79-1.23-1.37-1.71-1.69-1.12-1.93-1.52-1.4-1.4-1.65-1.08-2-1.27L489,116.77l-3.61-1.71-2-.71-2.34-.9-4.28-2.18-1.7-1.24-2.19-1.25-1.49-1.84-1.83-1.31-1.82-2.23-1.26-2.19-1-2.3-.4-2.31-.69-2.17-.94-4.54-.3-2.47V85.19l-.08-2-.45-2.15-.33-2.2-.3-2.42,0-2.17-.4-2.2L461.44,70,461,68.09l-.82-2.38-.34-2.09-.49-1.76-1.25-2-.38-2.22-1-1.51-1.33-2.21L454.8,52l-1.53-1.35-1.15-2-3-2.76-1.5-1.08-2.19-.94-1.6-1-2.21-.64-1.76-.84L438,41.12,436,41l-2.36,0-2.13-.22-2,0-2.26.28-2.37-.13H422.9l-2.29.51-2.1.15-2.05.43-2.21.4-2,.48-2.22.81-2.17.29-2.11.9-2.59.63-2.3.13a2.13,2.13,0,1,1-.23-4.25l2.08-.11,1.8-.47,2.19-1,2.31-.3,2.13-.76,2.3-.56,2.2-.39,2.41-.49,2.08-.15,2.26-.53H425l2.12.11,2.18-.26,2.56,0,2.11.22,2.28,0,2.39.19,2.54.37,2.16,1,2.3.62,2,1.29,2.13.88,2.22,1.63,3.5,3.23,1.15,1.93,1.92,1.7.78,2.52,1,1.69L461.77,56l.38,2.29,1.13,1.85.74,2.69.33,2,.76,2.16.55,2.47.19,2.13.43,2.29,0,2.32.25,2.07.32,2.08.5,2.5.08,2.23v2.17l.26,2,.86,4.14.72,2.3.35,2,.73,1.72,1,1.68,1.16,1.38,1.85,1.33,1.35,1.66,1.8,1,1.66,1.21,3.73,1.88,2,.75,2.25.8,4.19,2,1.81,1.44,1.75,1.09,2.21,1.51,1.45,1.46,1.55,1.2,2.06,1.34,1.39,1.75,1.85,1.26,1.31,1.76,1.9,1.26,1.48,2.16,1.17,1.61,1.67,1.85,1.13,1.78,1.58,2,.94,1.88,1.33,2,.93,1.89,1.27,2,1.09,2.26.47,2.34,1.35,3.93,1.15,2.21.36,2.58.39,2.38.13,2.11.42,2.29,0,2.56-.16,2.36-.27,2.13-.11,2.56-1,2.22-.44,2.2-.66,2.05-.71,2.54-2.22,4.38-1.28,1.62-1.14,2.08-1.69,1.69-1.53,2-3.55,3.22-2.23,1-3.75,2.57L500,203.18l-2,.5-2.44.9-2.48.11-2.52.58-2.23.1-2.55.38h-1.89l-2,1-1.93.59-1.49,1-1.65,1.7-1.47,1.18-1,1.92-1.35,2-1.27,1.71-1,2.25-1.67,1.74-2.63,3.7-3,3.16-3.13,3.4-2,1.62-1.61.93L455,235.53l-2.26.91-1.62,1.28L449,239.1l-4.28,1.53-1.9.9-2.36,1.06-2.26.25-2.15.87-2.51.25-4.44.81-2.42.53-2.22-.07-2.26.7-2.42-.12-2.23.45-2.23-.06-2.14.63L411,247l-2.14.78-2.43.24-2.1.49-2.1.56-1.85.61-1.69,1.14A2.08,2.08,0,0,1,397.48,251.13Z"/><path class="cls-4" d="M200.37,262.15l-2.5-.55-2.16.21-2.43-.37-2-.21-2.57,0-2.28-.9-2.14-.31-2.47-.55-1.94-1-2.32-.35-2.12-1.29-1.92-.68-2.24-.68-2.23-.9-2.3-1.14-1.52-1-2.27-.44-2-1.35-2.22-.79-3.88-2.1-2-.88-2-1-1.92-.7-2.4-.64-2-.86-2-.7-2-.53-2.54-.52-2-.8-1.94-.59-2.31-.43-1.82-.54-2.22.07-2.45-.58-2-.41-2.47-.3-4.16-1.18-2.32-.22-2-.75-2.22,0-2.87-.88-1.8-.95-2.26-.62-1.9-.87-2.39-.74L96.62,231l-1.73-1.17-2.23-1.14L91,227.47l-2.07-1.16L87,224.86l-1.88-1.64-1.36-2-1.34-1.47L80.5,218l-1-2.32-1.26-2-.94-2-1.16-2.24-.38-2.53-.46-2.39-.43-6.91.43-2.11-.23-2.33.78-2.93.93-1.92.67-1.91.68-2.34,1.19-2,.94-2.25,1.11-1.76,1-2.18L84,174.08l1.1-1.66,1.2-2.11,1.7-1.73,1.55-1.84,1.41-1.29,1.13-1.91,1.81-1.72,1.47-1.29,1.16-1.91,1.82-1.6,1.42-1.54,2.93-3,1.34-2,1.43-1.51,1.25-1.66,1.22-1.68,1.28-2,2.68-3.31.92-1.5.58-2.19,1.16-1.83.49-2.1.79-2.06.64-2.24.69-2,.29-2.18.41-2.27.6-4.34,0-2.32.38-2.69.5-1.91-.21-2.3.53-2.44.14-2.06,0-2.44.93-5.2.73-1.83.07-2.35.89-2.28.44-2.48,1.41-2.13.83-2.07,1-1.87.78-2.28,1.34-2,1.12-2.09,1.45-2.16L132.13,71l1.46-1.91,1.55-1.65,3.42-3.31,3.48-3,2-1.58,2-1.13,4-2.54,2.29-.67,2-1,4.42-1.91,2.66-.48,2.15-.21,2.25-.46,2.14-.29,2.3-.52,4.77-.05,2.25.25,2.22.07,2.19.18,9,.45,2,.41,1.76.1,2.23-.49,2.36.18,1.9-.13,2.31-.46,2,.15,1.91-.85,2-.52,1.84-.68,2.13-1.05,1.72-.58L216.48,46l1.83-1.44,1.81-1.31,1.65-1.67,1.59-1.38,2.86-3.88,2-1.43,1.39-1.56,1.75-1.84,3.47-2.85,3.73-2.92,1.85-1.12,1.76-1.24,2.3-1.46,1.85-.73,1.91-1.35,2.32-.71L252.83,18l2.1-.56,1.93-.63,2.15-1,2.32-.44,2.28-.77,2.29-.08L268,13.9l2.39-.4h2.25l2.31-.34,2.5-.07,2.34.52,2.06.16,2.4.14,2.19.35,2.42.32,2.07.53,2,.36,2.62.28,2.05,1.17,2.29.4,2,1.28,2,.56,2.35.88,2.17,1.14,2.11,1.38,1.56,1.33,1.77,1,2.31,1.23L318,27.54l1.84,1.59,3.19,3.17,1.48,1.53,1.91,1.61,1.45,1.69a2.13,2.13,0,0,1-3.23,2.77l-1.33-1.56-1.78-1.47-3.09-3.16-1.53-1.5L315.3,30.8l-1.52-1.24L312,28.64l-2.36-1.37L308,25.9l-1.68-1.09-1.79-.92-1.89-.7-2.4-.65-1.83-1.17L296.23,21l-1.92-1.09-1.95-.22L290,19.26l-2-.53-2.07-.26-2.16-.34-2.11-.1L279,17.8l-2-.44-1.84.06-2.26.34h-2.22l-1.89.32-2.29.69-2.21.07-2.11.69-1.93.37-2,.94-2.22.73-2,.51-2.12,1-1.83.57L248.4,24.9l-2.12.83-1.68,1.11-1.89,1.33-1.79,1.07-6.69,5.39-1.45,1.53L231.1,38l-1.87,1.32-2.72,3.7-1.9,1.64-1.84,1.84-1.9,1.38-1.73,1.36-2.07,1.78-2.37.79-2,1-2.26.83-1.93.5-2.37,1.11-2.53-.19-2.15.41-2.35.16-2-.16-2.18.48-2.8-.18-2-.42L181.42,55l-2.22-.18-2.33-.08-2.06-.24-4.06.05-2.14.48-2.16.28-2.37.49-2.18.2-1.93.36L156.11,58l-2.34,1.17-1.93.57L148.26,62l-1.92,1.11-1.61,1.27-3.35,2.94-3.2,3.1L136.76,72l-1.42,1.86-1.42,1.57-1.1,1.68-1.13,2.09-1.09,1.67-.77,2.2-1,1.92-1,2.38-1,1.58-.44,2.23-.7,1.78-.07,2.36-.92,2.33-.71,4.15,0,2.23-.21,2.7-.43,2,.22,2.38-.65,2.5-.27,2v2.33l-.65,4.72-.42,2.32-.39,2.65-.74,2.14L119.8,132l-.76,2-.53,2.38-1.21,1.9-.57,2.16-1.47,2.36-2.7,3.35L111.38,148l-1.28,1.78-1.51,2-1.37,1.45-1.34,2-4.68,4.89-1.41,1.25-1.16,1.92L96.72,165l-1.32,1.25-1.14,1.93-1.77,1.63-1.44,1.71-1.36,1.4-1,1.83-1.39,2.06L86,178.23l-.94,2L84,181.93l-.9,2.18-1,1.68-.58,2-.82,2.3-.89,1.83-.4,1.59.22,2.22-.44,2.22.38,6.15.43,2.15.28,1.88.87,1.7.92,2,1.31,2,.72,1.68,1.45,1.36,1.67,1.86,1.15,1.64,1.42,1.25,1.61,1.2L93.47,224l1.6,1.23,2.07,1,1.76,1.19,1.69.88,2.24.68,1.86.85,2.22.58,2,1.08,1.64.47,2.39-.05,2.23.84,2.35.26,4.14,1.17,2.25.26,2.19.45,2,.46,2.35-.07,2.36.71,2.32.43,2.33.71,1.89.76,2.16.41,2.34.62,2.24.8,1.93.82,2.23.59,2.33.85,2,1,2.13.95,3.82,2.07,2.24.75,1.76,1.19,2.29.45,2.12,1.44,1.82.88,1.94.78,2.07.63,2.61,1,1.58,1,2.18.33,2.08,1.1,1.83.41,2.39.33,2,.77,2,0,2.45.26,2,.3,2.3-.22,2,.44,1.86-.61,2.3-.21,2.3-.54,2-.21,1.75-.69,2-1a2.13,2.13,0,0,1,1.85,3.83l-2.16,1-2.37.94-2.41.25-2.33.55-2,.18Z"/><path class="cls-1" d="M512.35,279.07c-.32.74-1.08,1.19-.55,1.85,2.29,2.88,4.12,7.41.7,13.27a1.77,1.77,0,0,0,.29,2.06c2.12,2.33,6.4,8.61-.77,15.89a1.81,1.81,0,0,0,0,2.51,9.61,9.61,0,0,1,2.63,9.14c-1.67,6.4-7.27,8.9-11.49,10.09s-14.89,3.42-22.73,3.5c0,0-23.82,4.26-35.94-22.92-7.6-17.07,0-43.8,17-49.08,4.44-1.38,9.84-1.81,13.39.08a5.87,5.87,0,0,1,.72.43c.15-.22.68-.48,2.08-.69,13.3-2,8.05-1.43,11.82-2.06,0,0,16.92-4.61,21.92,4.58C511.44,267.72,514.94,273.16,512.35,279.07Z"/><path class="cls-1" d="M483.78,268s6-12,3.47-21.44-8.89-9.45-12.51-8.18c-5.63,2-8,9.27-10.2,17.5s-14.18,17.36-14.18,17.36"/><path class="cls-1" d="M493.78,331.36,446.84,312.1A149.86,149.86,0,0,1,431.67,350h51.39C489.57,339.52,493.78,331.36,493.78,331.36Z"/><ellipse cx="291.65" cy="192.25" rx="2.45" ry="5.19"/><ellipse cx="318.71" cy="192.25" rx="2.45" ry="5.19"/><path d="M305.32,206a1.23,1.23,0,0,1-1.24-1.24V182.37a1.24,1.24,0,0,1,2.48,0v22.36A1.23,1.23,0,0,1,305.32,206Z"/><path d="M302.48,220.32a21.78,21.78,0,0,1-6.09-.82,1.24,1.24,0,1,1,.78-2.36h0c.55.17,13.54,4.23,20.45-8.46a1.24,1.24,0,1,1,2.18,1.2C315.07,218.56,307.69,220.32,302.48,220.32Z"/><polygon class="cls-5" points="276.54 343.55 276.81 334.92 276.91 326.29 276.56 317.66 276.68 309.03 276.86 300.33 268.62 302.49 260.56 305.02 252.33 306.95 244.12 308.95 235.97 311.46 228.33 308.23 220.98 304.53 213.3 301.61 205.66 298.57 198.28 294.96 190.72 291.75 183.05 288.79 175.64 285.23 168.13 282.53 168.08 291.04 168.21 299.79 167.9 308.54 167.91 317.29 168.13 326.04 168.25 334.79 167.89 343.54 167.82 350 276.78 350 276.54 343.55"/><path class="cls-6" d="M223.05,329.54c0,5.26-1.36,10.95-7.06,10.95s-7.07-5.45-7.07-10.95,3.16-8,7.07-8S223.05,324.28,223.05,329.54Z"/><path d="M220.67,327.77c0,3.49-.9,7.26-4.68,7.26s-4.69-3.61-4.69-7.26,2.1-5.3,4.69-5.3S220.67,324.28,220.67,327.77Z"/><path class="cls-6" d="M259.33,329.54c0,5.26-1.36,10.95-7.06,10.95s-7.07-5.45-7.07-10.95,3.17-8,7.07-8S259.33,324.28,259.33,329.54Z"/><path d="M257,327.77c0,3.49-.9,7.26-4.68,7.26s-4.69-3.61-4.69-7.26,2.1-5.3,4.69-5.3S257,324.28,257,327.77Z"/><ellipse class="cls-2" cx="191.24" cy="100.22" rx="19.35" ry="21.16" transform="translate(84.65 287.98) rotate(-88.07)"/><path class="cls-6" d="M195.92,122.64a1.39,1.39,0,0,1-1-.46l-16.63-18a1.42,1.42,0,0,1-.25-1.56,1.4,1.4,0,0,1,1.36-.81l9.32.49-1.09-6.71A1.41,1.41,0,0,1,189.41,94l5.24,1.63,2.27-7.59a1.42,1.42,0,0,1,2.56-.35L213,109.46a1.42,1.42,0,1,1-2.41,1.49l-11.83-19-1.78,6a1.41,1.41,0,0,1-1.78.94l-4.41-1.37,1,6.18a1.42,1.42,0,0,1-.34,1.18,1.36,1.36,0,0,1-1.13.46l-7.59-.4L197,120.26a1.42,1.42,0,0,1-.07,2A1.45,1.45,0,0,1,195.92,122.64Z"/><path d="M213.68,141.11a2.88,2.88,0,0,1-.41,0,3.43,3.43,0,0,1-2.1-1.44c-.14-.16-.27-.32-.41-.46-.47-.46-1-.89-1.47-1.32s-1.2-1-1.78-1.6-1.14-1.19-1.69-1.8-.86-.93-1.3-1.39-.88-.88-1.33-1.32S202,130.6,201.44,130l-1.15-1.2c-.62-.65-1.24-1.3-1.85-2l-.94-1c-.67-.72-1.34-1.45-2-2.19a1.16,1.16,0,0,1,.1-1.63,1.15,1.15,0,0,1,1.62.1c.65.73,1.31,1.45,2,2.17l.95,1c.59.66,1.2,1.29,1.81,1.93l1.17,1.22c.54.58,1.11,1.14,1.68,1.7s.92.9,1.37,1.36.9,1,1.34,1.44,1.07,1.16,1.63,1.72,1.06,1,1.64,1.49,1.07.92,1.58,1.4c.2.2.39.43.58.65s.5.61.65.63c.47.06,1.13-.45,1.71-.9l.09-.08a27.31,27.31,0,0,0,3.56-3.15,19.72,19.72,0,0,0,2.12-3.06l.54-.89c.13-.22.29-.43.45-.65a2.21,2.21,0,0,0,.54-1,3.9,3.9,0,0,0-.76-1.77l-.15-.26c-.38-.63-.73-1.27-1.09-1.92s-.67-1.23-1-1.84-.74-1.14-1.15-1.73-.85-1.21-1.24-1.86-.74-1.32-1.07-2-.64-1.25-1-1.83-.74-1.21-1.11-1.81-.77-1.24-1.14-1.87a1.15,1.15,0,0,1,2-1.18l1.13,1.84c.37.61.75,1.22,1.12,1.84s.74,1.31,1.07,2,.64,1.25,1,1.83.74,1.14,1.15,1.73.85,1.22,1.24,1.87.74,1.27,1.09,1.92.67,1.23,1,1.83l.15.25a5.75,5.75,0,0,1,1.09,3,4,4,0,0,1-1,2.28c-.12.16-.25.33-.35.49l-.52.86a22,22,0,0,1-2.37,3.41,30.11,30.11,0,0,1-3.86,3.44l-.09.07A5.13,5.13,0,0,1,213.68,141.11Z"/><path d="M210.7,134.07a3.12,3.12,0,0,1-1.13-.21,2.42,2.42,0,0,1-1.3-1.33,1.53,1.53,0,0,1,.45-1.62h0a10.29,10.29,0,0,0,.27-1.26,8.07,8.07,0,0,1,.69-2.41,28,28,0,0,1,2.07-3.33c.22-.31.46-.62.69-.93a15.15,15.15,0,0,0,1.39-2l.23-.45c-.23.18-.47.35-.69.5a17.82,17.82,0,0,1-2.16,1.19c-.39.2-.78.39-1.15.6a9.27,9.27,0,0,0-1.2.83,10,10,0,0,1-2,1.25,15.25,15.25,0,0,1-2.32.75c-.44.12-.87.24-1.29.38a1.15,1.15,0,1,1-.73-2.18c.47-.16.95-.29,1.43-.42a14.39,14.39,0,0,0,2-.63,7.53,7.53,0,0,0,1.5-1,12.45,12.45,0,0,1,1.48-1c.41-.22.83-.43,1.25-.64a14.53,14.53,0,0,0,1.88-1c.77-.53,1.6-1.22,2.4-1.89l2-1.63.42,1.8a6.75,6.75,0,0,1-1,4.63,17.3,17.3,0,0,1-1.59,2.38c-.23.29-.45.58-.65.87a24.93,24.93,0,0,0-1.91,3.06,6.29,6.29,0,0,0-.47,1.74,10,10,0,0,1-.4,1.73,4.76,4.76,0,0,0,1.32-.5l.46-.21a9.68,9.68,0,0,0,2.39-1.57l1.06-.88a17.08,17.08,0,0,0,1.47-1.28l.87-.86a19,19,0,0,0,1.48-1.51l.68-.78c.53-.6,1-1.17,1.48-1.78a1.14,1.14,0,0,1,1.6-.24,1.16,1.16,0,0,1,.25,1.61c-.51.68-1.07,1.31-1.61,1.93l-.65.75c-.52.61-1.08,1.15-1.63,1.68-.28.27-.56.53-.83.81a18.46,18.46,0,0,1-1.66,1.46c-.33.26-.67.53-1,.81a11.92,11.92,0,0,1-3,1.94l-.42.2A5.86,5.86,0,0,1,210.7,134.07Z"/><path d="M159.18,206.07a8.44,8.44,0,0,1-3.61-1.09l-.66-.3-.6-.27a19.24,19.24,0,0,1-3.18-1.64c-.95-.66-1.87-1.39-2.76-2.09l-.51-.4a20.45,20.45,0,0,1-1.59-1.42,13.93,13.93,0,0,0-1.41-1.25c-.35-.26-.73-.48-1.11-.71a10.44,10.44,0,0,1-2.15-1.57,11.06,11.06,0,0,1-1.59-2.22c-.21-.36-.42-.72-.66-1.06s-.53-.68-.8-1a9.46,9.46,0,0,1-1.54-2.24,18.26,18.26,0,0,1-1.34-3.85,7.58,7.58,0,0,1,.11-2.79,11.05,11.05,0,0,0,.18-1.29v-.11a13.54,13.54,0,0,1,.57-3.87c.13-.37.27-.74.43-1.1-.32-.22-.65-.43-1-.62a26.7,26.7,0,0,0-2.45-1.23l-1.19-.56c-.49-.24-1-.5-1.43-.76a16.12,16.12,0,0,0-2.15-1,19.06,19.06,0,0,0-2.34-.58c-.4-.08-.81-.16-1.21-.26a19.57,19.57,0,0,0-3.21-.38l-.31,0c-.51,0-1-.11-1.45-.19a6.68,6.68,0,0,0-2-.13,7.25,7.25,0,0,0-2.2,1l-.85.49-.75.38a5.25,5.25,0,0,0-2,1.34,5.65,5.65,0,0,0-.72,2.18c-.06.33-.13.66-.2,1a6.05,6.05,0,0,0,0,3c0,.19.09.37.13.56a3.74,3.74,0,0,0,.95,2.18,1.15,1.15,0,0,1-1.44,1.79,5.65,5.65,0,0,1-1.75-3.47l-.12-.51a8.45,8.45,0,0,1,0-4.09c.07-.28.13-.58.19-.87a7.32,7.32,0,0,1,1.11-3.09,7.17,7.17,0,0,1,2.79-2.05c.24-.11.46-.22.68-.34s.52-.3.78-.45a8.92,8.92,0,0,1,3-1.28,8.52,8.52,0,0,1,2.82.12,10.35,10.35,0,0,0,1.23.16l.31,0a22.71,22.71,0,0,1,3.58.44l1.15.25a18.2,18.2,0,0,1,2.64.66,17.29,17.29,0,0,1,2.49,1.2c.44.24.88.48,1.34.71l1.14.53a28.83,28.83,0,0,1,2.66,1.34c.31.18.61.37.91.57.09-.15.19-.3.29-.44s.33-.5.49-.76a10.15,10.15,0,0,1,2-2.49,11.55,11.55,0,0,1,3.32-1.78l.68-.28a7.87,7.87,0,0,1,7.44-.07c.37.14.75.29,1.13.42.53.17,1.12.29,1.73.42a12.7,12.7,0,0,1,2.94.88c1.05.51,2.08,1,3.12,1.59l.53.27a9.52,9.52,0,0,1,1.92,1.41A9,9,0,0,0,165,174a10.91,10.91,0,0,0,1.65.67,12.94,12.94,0,0,1,2.15.93l.07,0a7.11,7.11,0,0,1,1.47-2.31,8,8,0,0,1,2.6-1.54c.43-.19.84-.36,1.2-.56a12.58,12.58,0,0,0,1.11-.74,8.31,8.31,0,0,1,2.65-1.42,20.63,20.63,0,0,1,4.28-.6,10.73,10.73,0,0,1,2.79.36,13.2,13.2,0,0,0,1.4.27l.76.1a24,24,0,0,1,3.36.55c.49.13,1,.22,1.49.31a15.32,15.32,0,0,1,2.57.64,25.23,25.23,0,0,1,2.68,1.24c.42.22.85.44,1.27.64.62.29,1.28.61,2,1a16.31,16.31,0,0,1,4-1.18,27.57,27.57,0,0,1,4.36-.56c1,0,2,0,2.94.1L213,172c1.32.06,2.67.17,4.16.34l1.29.13c.93.09,1.89.18,2.85.36,1.21.23,2.41.54,3.58.85l.48.12c1.56.41,2.84.78,4,1.17s2.58.92,3.91,1.47a17.51,17.51,0,0,1,2.23,1.19c.49.3.95.58,1.42.81a12.1,12.1,0,0,0,1.58.61,12,12,0,0,1,2.3,1,23.62,23.62,0,0,1,2.26,1.55l1.17.84a1.15,1.15,0,1,1-1.3,1.9c-.42-.29-.83-.59-1.23-.89a23,23,0,0,0-2.06-1.42,10.1,10.1,0,0,0-1.88-.77,14.31,14.31,0,0,1-1.86-.73c-.56-.28-1.08-.6-1.59-.9a15.18,15.18,0,0,0-1.92-1c-1.28-.53-2.54-1-3.76-1.41s-2.34-.73-3.85-1.12l-.49-.13c-1.12-.29-2.28-.59-3.41-.81-.86-.16-1.72-.24-2.64-.33-.45,0-.9-.08-1.35-.14-1.43-.16-2.73-.27-4-.33l-1.28-.07c-.94-.06-1.84-.11-2.73-.09a23.77,23.77,0,0,0-4,.52c-.64.12-1.24.25-1.81.4.85.53,1.67,1.11,2.47,1.67l.45.31a17.81,17.81,0,0,1,2,1.78c.4.38.79.76,1.21,1.11s.85.66,1.29,1a19.69,19.69,0,0,1,2.13,1.73,16.46,16.46,0,0,1,1.7,2.1c.34.47.66.91,1,1.32a3.85,3.85,0,0,0,.3.27,2.78,2.78,0,0,1,1,1.38c.58,2.07-1.15,3.16-2,3.68l-.29.19a6.88,6.88,0,0,1-3.14,1.33,21.4,21.4,0,0,1-4.22-.07,16.54,16.54,0,0,1-4.15-1.09,12.86,12.86,0,0,1-3.58-2.46,11.75,11.75,0,0,1-4-7.71,8.3,8.3,0,0,1,1.57-4.3,14.17,14.17,0,0,1,1.53-2.15l-.91-.43L196.2,174a24,24,0,0,0-2.44-1.13,12.31,12.31,0,0,0-2.17-.52c-.56-.11-1.12-.21-1.67-.35a20.74,20.74,0,0,0-3-.5l-.77-.09a16.21,16.21,0,0,1-1.63-.32,8.65,8.65,0,0,0-2.18-.3,18.85,18.85,0,0,0-3.8.52,6.82,6.82,0,0,0-1.9,1.07,12.4,12.4,0,0,1-1.31.87c-.47.26-1,.47-1.42.67A6.35,6.35,0,0,0,172,175a5.76,5.76,0,0,0-1.12,1.92v0l1.4.91c.66.41,1.28.88,1.88,1.33s1,.71,1.45,1c1.14.75,2.25,1.53,3.37,2.31l1,.73c.77.53,1.54,1.06,2.29,1.62.47.35.95.68,1.44,1s1.28.87,1.9,1.36,1.22,1,1.79,1.53.86.78,1.3,1.15a14.5,14.5,0,0,1,2.52,2.79,8.61,8.61,0,0,1,1.47,3.59c.19,1,.53,2.91-1,4.28a5.33,5.33,0,0,1-4.06,1.16A13.56,13.56,0,0,1,184,201c-1.75-.64-3.06-1.16-4.26-1.7a14.9,14.9,0,0,1-2.62-1.6c-.44-.31-.88-.61-1.33-.89a24.16,24.16,0,0,1-3.71-2.85c-.32-.29-.65-.56-1-.84a10.71,10.71,0,0,1-2.48-2.5,16.31,16.31,0,0,1-2-4.49,12.77,12.77,0,0,1-.07-5,9.6,9.6,0,0,1,1.32-3.47l-.24-.14a10.46,10.46,0,0,0-1.75-.74,12.93,12.93,0,0,1-2-.83,10.11,10.11,0,0,1-1.78-1.34,8.69,8.69,0,0,0-1.48-1.1l-.53-.28c-1-.52-2-1.05-3.07-1.55a10.58,10.58,0,0,0-2.4-.7,16.49,16.49,0,0,1-2-.49c-.41-.14-.82-.3-1.23-.46a8.57,8.57,0,0,0-2.88-.74,8.23,8.23,0,0,0-2.86.8l-.7.28a10,10,0,0,0-2.69,1.4,8.48,8.48,0,0,0-1.52,2c-.17.28-.35.55-.53.82l-.3.46.69.48c.46.31,1,.58,1.49.87a19.3,19.3,0,0,1,2.13,1.3c.7.52,1.36,1.09,2,1.64.41.35.82.7,1.24,1a13.66,13.66,0,0,0,1.51,1,14.73,14.73,0,0,1,2,1.38,11.87,11.87,0,0,1,1.63,1.88,10.39,10.39,0,0,0,1.11,1.35l1,.9c.69.64,1.41,1.31,2.07,2a24.6,24.6,0,0,1,1.73,2.1c.31.4.61.8.92,1.18a12.46,12.46,0,0,0,1.34,1.27,9.51,9.51,0,0,1,1.72,1.75,18.34,18.34,0,0,1,2,4c1.17,3,0,4.53-.84,5.13a7.4,7.4,0,0,1-4.4,1.73Zm-20.29-28.94c-.07.16-.13.33-.19.5a11.55,11.55,0,0,0-.44,3.22V181a11.36,11.36,0,0,1-.2,1.58,5.53,5.53,0,0,0-.13,1.94,17,17,0,0,0,1.19,3.38,7.7,7.7,0,0,0,1.2,1.7c.31.37.63.76.93,1.18s.51.79.75,1.2a9,9,0,0,0,1.25,1.78,8.3,8.3,0,0,0,1.7,1.21c.42.26.85.52,1.27.82a16.3,16.3,0,0,1,1.65,1.45,16.84,16.84,0,0,0,1.41,1.27l.52.41c.86.68,1.75,1.38,2.64,2a17.63,17.63,0,0,0,2.8,1.44l.62.27.69.32a6.85,6.85,0,0,0,2.64.87h0a5.26,5.26,0,0,0,3-1.27c.65-.48.39-1.61.06-2.48a15.75,15.75,0,0,0-1.71-3.51,7.69,7.69,0,0,0-1.31-1.31,12.64,12.64,0,0,1-1.61-1.53c-.34-.41-.66-.83-1-1.27a21.55,21.55,0,0,0-1.56-1.9c-.61-.64-1.27-1.26-2-1.91l-1-.92a11.76,11.76,0,0,1-1.38-1.64,9.41,9.41,0,0,0-1.3-1.52,10.87,10.87,0,0,0-1.67-1.15,17.2,17.2,0,0,1-1.74-1.18c-.44-.35-.87-.72-1.3-1.09-.63-.55-1.23-1.06-1.87-1.53a15.45,15.45,0,0,0-1.87-1.13c-.54-.31-1.11-.62-1.65-1ZM169.82,179a7.5,7.5,0,0,0-1,2.51,10.94,10.94,0,0,0,0,4.08,14.49,14.49,0,0,0,1.73,3.85,9.51,9.51,0,0,0,2,2c.38.3.75.6,1.1.92a22.09,22.09,0,0,0,3.36,2.59c.49.3,1,.64,1.45,1a14.12,14.12,0,0,0,2.23,1.37c1.15.51,2.42,1,4.12,1.64a12,12,0,0,0,3,.55,3.17,3.17,0,0,0,2.35-.58c.44-.39.5-.9.27-2.16a6.4,6.4,0,0,0-1.08-2.67,12.43,12.43,0,0,0-2.11-2.35c-.47-.39-.93-.8-1.38-1.21s-1.1-1-1.66-1.43-1.16-.84-1.78-1.26-1-.69-1.52-1.06c-.73-.55-1.48-1.06-2.23-1.58l-1.06-.74c-1.1-.77-2.2-1.53-3.32-2.27-.53-.36-1-.74-1.55-1.12s-1.15-.86-1.73-1.23C170.63,179.49,170.22,179.22,169.82,179Zm30.77-2.78a9.26,9.26,0,0,0-1.7,2.23,6.65,6.65,0,0,0-1.25,3.1,8.85,8.85,0,0,0,1.08,3.31,8.36,8.36,0,0,0,2.18,2.69,10.68,10.68,0,0,0,2.93,2.05,14.39,14.39,0,0,0,3.58.95,18.48,18.48,0,0,0,3.77.05,5.19,5.19,0,0,0,2.06-1l.31-.2c1.11-.7,1.06-.89,1-1.12l-.28-.24a4.85,4.85,0,0,1-.57-.54c-.4-.48-.77-1-1.12-1.46a14.23,14.23,0,0,0-1.46-1.81,16,16,0,0,0-1.87-1.52c-.48-.34-1-.69-1.4-1.06s-.9-.81-1.33-1.22a15.77,15.77,0,0,0-1.78-1.56l-.46-.31c-1-.69-2-1.4-3-2Z"/><path class="cls-5" d="M269.83,91.25c2.08,7.68,4.25,34.48-1.6,36.07S250.73,104.67,248.65,97s1-15.19,6.82-16.78S267.75,83.57,269.83,91.25Z"/><path d="M294,148.51l-.26,0a1.25,1.25,0,0,1-1-1.49c.12-.54.19-1.09.27-1.64a18.62,18.62,0,0,1,.47-2.48c.25-.92.58-1.81.89-2.67.16-.43.32-.86.47-1.29s.27-.81.4-1.22c.29-.89.59-1.82,1-2.72a18.47,18.47,0,0,1,1.13-2.22c.29-.51.57-1,.8-1.49a19.41,19.41,0,0,1,1.23-2.15c.3-.47.61-.94.87-1.44a8.93,8.93,0,0,0,.61-1.59,10.51,10.51,0,0,1,1-2.3c.49-.82,1-1.6,1.57-2.36l.76-1.1.66-1c.53-.8,1.09-1.64,1.69-2.44a22.64,22.64,0,0,1,1.61-1.86c.39-.41.78-.83,1.14-1.26l.14-.18c.82-1,1.66-2,2.55-3s1.84-2,2.88-3a13.11,13.11,0,0,1,1.87-1.52,12.11,12.11,0,0,0,1.39-1.07c.4-.37.79-.76,1.17-1.15.57-.58,1.16-1.17,1.81-1.72.42-.36.82-.77,1.25-1.19a18.83,18.83,0,0,1,1.79-1.64,22.05,22.05,0,0,1,2-1.34c.49-.3,1-.6,1.46-.93A14.66,14.66,0,0,0,329,95.9a13.05,13.05,0,0,1,1.87-1.55A22.37,22.37,0,0,1,333,93.17c.51-.26,1-.52,1.52-.82l.94-.56c.86-.51,1.74-1,2.64-1.53l.51-.25c0-.13.06-.27.1-.4.4-1.44.88-2.86,1.29-4.07a25.09,25.09,0,0,1,1-2.42c.22-.5.45-1,.65-1.49s.37-.92.54-1.39c.32-.84.65-1.71,1-2.55a20,20,0,0,1,1.23-2.14c.34-.52.65-1,.92-1.52l.61-1.21c.43-.84.86-1.7,1.34-2.54s.92-1.45,1.38-2.14c.32-.46.63-.92.93-1.39s.54-1,.81-1.55a15,15,0,0,1,1.11-2l.83-1.27c.46-.71.91-1.42,1.4-2.11a21,21,0,0,1,1.46-1.74,17.41,17.41,0,0,0,1.16-1.35c.54-.72,1.1-1.43,1.66-2.14l.82-1c.62-.81,1.27-1.6,1.91-2.39l.6-.76c.38-.46.74-.94,1.1-1.42s.89-1.18,1.37-1.76.73-1,1.11-1.48.83-1.17,1.3-1.74a12.46,12.46,0,0,1,1.65-1.54,10.35,10.35,0,0,0,1.31-1.22,11.77,11.77,0,0,0,1-1.49,13.28,13.28,0,0,1,1.27-1.82c.43-.5.85-1,1.27-1.52s.86-1,1.3-1.55.87-1,1.29-1.56.83-1,1.26-1.53l1.24-1.43c.47-.52.94-1,1.39-1.58a1.25,1.25,0,0,1,1.77-.16,1.28,1.28,0,0,1,.16,1.78c-.47.55-.95,1.09-1.43,1.63s-.81.92-1.21,1.39-.82,1-1.22,1.48-.88,1.09-1.33,1.62-.86,1-1.28,1.52-.86,1-1.3,1.55a12.87,12.87,0,0,0-1,1.51,14.57,14.57,0,0,1-1.25,1.8,12.77,12.77,0,0,1-1.62,1.52,10,10,0,0,0-1.33,1.23c-.41.48-.78,1-1.18,1.57s-.78,1.09-1.22,1.63-.87,1.11-1.3,1.67-.75,1-1.14,1.48l-.61.76c-.63.78-1.27,1.56-1.88,2.36l-.83,1c-.55.69-1.09,1.39-1.62,2.09a18.33,18.33,0,0,1-1.32,1.54,16.71,16.71,0,0,0-1.26,1.5c-.47.66-.91,1.34-1.35,2-.28.43-.56.87-.85,1.3a13.93,13.93,0,0,0-.93,1.72,16.4,16.4,0,0,1-.95,1.8c-.31.5-.64,1-1,1.47-.46.68-.9,1.31-1.28,2s-.87,1.61-1.28,2.41c-.21.42-.41.83-.63,1.24a18.83,18.83,0,0,1-1,1.71,17.87,17.87,0,0,0-1.07,1.85c-.36.77-.66,1.55-1,2.39-.18.48-.37,1-.56,1.44s-.46,1.06-.7,1.59a23.35,23.35,0,0,0-.92,2.19c-.27.78-.57,1.66-.85,2.56l.28-.09a16.49,16.49,0,0,1,3.3-.66l.63-.08a11.46,11.46,0,0,1,4.13,0l.24,0a6.42,6.42,0,0,1,3.92,2c1.57,2,1.26,4.62.74,6.94a29.31,29.31,0,0,1-1.16,3.79,20.52,20.52,0,0,1-1.35,2.74l-.43.79a32.19,32.19,0,0,1-2.08,3.34c-.26.36-.49.75-.72,1.14A13.31,13.31,0,0,1,347.5,111a33.46,33.46,0,0,1-2.77,2.83,5.64,5.64,0,0,1-4.06,1.59c-2-.19-3.34-1.92-3.64-4.62l-.12-1a31.52,31.52,0,0,1-.3-3.27c0-1.26,0-2.52.11-3.73l0-.55a15.51,15.51,0,0,1,.45-2.56,15.14,15.14,0,0,0,.34-1.65c.07-.53.11-1.06.15-1.6a19,19,0,0,1,.31-2.63q.08-.35.12-.72l-1.41.84-1,.57c-.54.32-1.1.61-1.66.89a21.05,21.05,0,0,0-1.9,1,12.18,12.18,0,0,0-1.52,1.27,13.92,13.92,0,0,1-1.58,1.36c-.52.37-1.07.7-1.61,1a20.55,20.55,0,0,0-1.79,1.18,20.17,20.17,0,0,0-1.55,1.43c-.44.45-.9.9-1.41,1.33s-1.08,1-1.63,1.57-.83.83-1.26,1.23a16.89,16.89,0,0,1-1.63,1.28,10.49,10.49,0,0,0-1.55,1.23c-1,1-1.93,1.95-2.8,2.91s-1.68,1.94-2.47,2.91l-.14.17c-.4.48-.82.93-1.25,1.39a19.43,19.43,0,0,0-1.44,1.64c-.55.74-1.08,1.55-1.6,2.33-.22.34-.45.68-.68,1s-.51.76-.78,1.13c-.53.76-1,1.48-1.48,2.22a8.71,8.71,0,0,0-.71,1.77,10.88,10.88,0,0,1-.79,2c-.29.55-.62,1.08-1,1.6a17.34,17.34,0,0,0-1.08,1.88c-.27.58-.59,1.13-.89,1.66a18.4,18.4,0,0,0-1,1.91c-.33.83-.62,1.71-.89,2.56l-.42,1.26c-.15.45-.32.89-.48,1.34-.31.85-.61,1.66-.83,2.48a16.77,16.77,0,0,0-.4,2.15c-.09.61-.18,1.22-.31,1.82A1.25,1.25,0,0,1,294,148.51Zm46.77-56.69c0,.2,0,.4-.07.6-.07.63-.14,1.28-.27,1.93a18.17,18.17,0,0,0-.27,2.29c0,.59-.08,1.18-.16,1.76a17.52,17.52,0,0,1-.39,1.89,13.19,13.19,0,0,0-.38,2.12l0,.56c-.07,1.16-.14,2.36-.11,3.51,0,1,.15,2,.28,3l.12,1c0,.23.29,2.29,1.38,2.4a3.26,3.26,0,0,0,2.15-1,33.6,33.6,0,0,0,2.57-2.63,11.68,11.68,0,0,0,1.2-1.75c.26-.44.53-.88.82-1.3a28.84,28.84,0,0,0,1.92-3.07c.14-.27.3-.55.45-.82a20.54,20.54,0,0,0,1.19-2.4,25.81,25.81,0,0,0,1.06-3.46c.41-1.82.66-3.67-.26-4.83a4.46,4.46,0,0,0-2.49-1l-.24-.05a9.12,9.12,0,0,0-3.24,0l-.66.08a14.22,14.22,0,0,0-2.79.54l-.72.25C341.51,91.58,341.15,91.69,340.81,91.82Z"/><path d="M400.86,213.92a10.8,10.8,0,0,1-1.13,0,16.9,16.9,0,0,1-2.81-.63c-.44-.12-.88-.25-1.32-.35a22.51,22.51,0,0,1-2.94-1l-1.05-.4c-.49-.17-1-.31-1.48-.45a16.08,16.08,0,0,1-2.53-.86l-.09-.05c-1.21-.56-2.46-1.15-3.66-1.84-.45-.26-.93-.5-1.4-.74a21.37,21.37,0,0,1-2.28-1.26c-.76-.5-1.48-1.06-2.18-1.59-.39-.3-.78-.6-1.18-.89a21.05,21.05,0,0,1-1.8-1.54c-.46-.42-.89-.82-1.34-1.17s-1-.72-1.51-1.07-1.24-.85-1.84-1.34a1.26,1.26,0,1,1,1.59-1.95c.52.42,1.08.8,1.67,1.2s1.1.75,1.64,1.18,1,.86,1.5,1.3a17.45,17.45,0,0,0,1.58,1.35l1.23.93c.69.53,1.34,1,2,1.48a19.29,19.29,0,0,0,2,1.12c.52.26,1,.52,1.52.8,1.12.64,2.32,1.21,3.48,1.75l.1.05a13.29,13.29,0,0,0,2.13.71c.55.16,1.11.31,1.65.51l1.1.41a18.15,18.15,0,0,0,2.61.87c.48.11,1,.25,1.44.39a14,14,0,0,0,2.39.54,14.37,14.37,0,0,0,2.53,0c.47,0,.93-.07,1.4-.08l.9,0a18.92,18.92,0,0,0,3-.21,22.7,22.7,0,0,0,3.78-.94,20.76,20.76,0,0,0,3.44-1.74,21.39,21.39,0,0,0,3.3-2.42,24.66,24.66,0,0,0,2.71-3.1,14.74,14.74,0,0,0,1.35-2.28c.22-.44.45-.88.7-1.32a17.29,17.29,0,0,1,1-1.55,11.3,11.3,0,0,0,1.22-2,20.26,20.26,0,0,0,.81-2.46c.15-.52.3-1,.47-1.56.44-1.35.84-2.71,1.18-4.07a16.21,16.21,0,0,1,.66-1.93,11.41,11.41,0,0,0,.63-1.9c.24-1.23.47-2.57.67-4a16.27,16.27,0,0,0,.1-2.13c0-.62,0-1.26.07-1.91s.15-1.22.25-1.84a19.1,19.1,0,0,0,.26-2.17v-.13c.05-1.29.1-2.62.09-3.9a7.28,7.28,0,0,0-.34-1.84,11.42,11.42,0,0,1-.41-2.17,10.74,10.74,0,0,1,.18-2.22,7.48,7.48,0,0,0,.13-1.84A5.4,5.4,0,0,0,430,159l-.27-.27c-.54-.52-1.07-1-1.58-1.57s-.94-1.07-1.38-1.6-.76-.94-1.17-1.37a17.29,17.29,0,0,1-1.34-1.71,13.39,13.39,0,0,0-1.08-1.39c-.38-.42-.8-.82-1.25-1.23s-1-1-1.54-1.54-.76-.84-1.16-1.25-1-1.06-1.51-1.64-.94-1.21-1.38-1.81-.65-.9-1-1.33c-.49-.61-.91-1.25-1.33-1.86s-.61-.92-.94-1.36a14.16,14.16,0,0,0-1.12-1.27,15.86,15.86,0,0,1-1.47-1.74c-.49-.71-.94-1.45-1.38-2.17l-.72-1.18a15,15,0,0,1-1-2.08,14.57,14.57,0,0,0-.71-1.48,9.79,9.79,0,0,0-1-1.31,9.66,9.66,0,0,1-1.38-1.94,16.94,16.94,0,0,1-.88-2.21c-.18-.53-.35-1-.56-1.5s-.41-.89-.62-1.33c-.36-.73-.73-1.5-1-2.3-.14-.38-.29-.76-.43-1.15-.33-.84-.67-1.71-.94-2.61a11.33,11.33,0,0,1,.14-6.09c.67-2.6,2.6-4.11,4.9-3.86a6.51,6.51,0,0,1,4.17,2.38c.38.42.79.81,1.2,1.21a20.39,20.39,0,0,1,1.69,1.77,11.24,11.24,0,0,1,1.26,2.1,11.63,11.63,0,0,0,.86,1.5l.62.81c.6.81,1.23,1.65,1.82,2.52.31.46.68.9,1.07,1.37a14.25,14.25,0,0,1,1.46,1.92c.29.47.61.93.92,1.39.46.67.93,1.36,1.34,2.1.69,1.24,1.34,2.48,1.93,3.67.42.83.78,1.68,1.13,2.51.18.43.36.86.55,1.29a15,15,0,0,1,.76,2.29c.17.59.32,1.15.52,1.66s.46,1,.73,1.57a20.36,20.36,0,0,1,1,2.22,16.05,16.05,0,0,1,.55,2.36c.11.6.21,1.17.36,1.7a12.92,12.92,0,0,0,.65,1.61,13.31,13.31,0,0,1,.85,2.27,12.11,12.11,0,0,1,.26,2.43,10.29,10.29,0,0,0,.15,1.72,13.24,13.24,0,0,0,.47,1.67,15.12,15.12,0,0,1,.62,2.34c.08.55.21,1.1.35,1.68.07.28.13.55.19.83l.55.56c.43.44.84.88,1.25,1.32s1,1.11,1.56,1.64a11.55,11.55,0,0,0,1.48,1.16,13,13,0,0,1,1.75,1.37,17.24,17.24,0,0,1,1.4,1.6,15.8,15.8,0,0,0,1.3,1.46c.45.43.89.88,1.33,1.32s1,1.06,1.57,1.54a13.32,13.32,0,0,0,1.58,1.12,16.47,16.47,0,0,1,1.75,1.24c.46.39.9.8,1.34,1.2s1.12,1,1.69,1.5,1,.82,1.43,1.25,1.08,1,1.64,1.41.8.61,1.2.92c.66.52,1.35,1.06,2,1.53a12.21,12.21,0,0,0,3.22,1.33l1.06.33c1.54.52,2.79.87,3.81.34a4.44,4.44,0,0,0,2-2.14,7.88,7.88,0,0,0,.36-2.6c0-.24,0-.48,0-.71a22.82,22.82,0,0,0-.14-3.52c-.15-1.34-.33-2.67-.5-4-.07-.5-.13-1-.19-1.52-.1-.83-.2-1.66-.32-2.49q-.3-2-.63-4c-.11-.64-.18-1.28-.26-1.92s-.17-1.41-.29-2.09a9.69,9.69,0,0,0-.57-1.76,12.52,12.52,0,0,1-.68-2.12,11,11,0,0,1-.14-2.27,8,8,0,0,0-.1-1.8,8.39,8.39,0,0,0-.66-1.69,10.59,10.59,0,0,1-.82-2.13,11.09,11.09,0,0,1-.22-2.26,8.37,8.37,0,0,0-.16-1.8,8,8,0,0,0-.72-1.66,11,11,0,0,1-.89-2.1,14,14,0,0,1-.36-2.15,11.45,11.45,0,0,0-.31-1.86c-.14-.5-.31-1-.47-1.5-.39-.39-.74-.79-1.08-1.18s-.78-.9-1.19-1.29-.88-.74-1.36-1.12a16.21,16.21,0,0,1-1.72-1.44c-.56-.55-1.09-1.14-1.6-1.7-.37-.41-.74-.82-1.12-1.22a15,15,0,0,0-1.3-1.16,17,17,0,0,1-1.68-1.53c-.62-.69-1.22-1.4-1.82-2.11l-.79-.92-.94-1.08c-.57-.64-1.14-1.29-1.68-1.95a12,12,0,0,1-1.22-2,11.73,11.73,0,0,0-.87-1.46,10.19,10.19,0,0,0-1.17-1.22,11.5,11.5,0,0,1-1.59-1.73c-.46-.66-.85-1.35-1.22-2-.28-.49-.55-1-.85-1.44a15.42,15.42,0,0,1-1-2.07,15.78,15.78,0,0,0-.73-1.54l-.67-1.1c-.46-.76-.93-1.54-1.36-2.35a13.25,13.25,0,0,0-.77-1.2,10.9,10.9,0,0,1-1.3-2.3,12.9,12.9,0,0,1-.92-4.23,9,9,0,0,1,1.13-4.39,6.87,6.87,0,0,1,3.43-3.28,6.79,6.79,0,0,1,5.66.35,13.15,13.15,0,0,1,3.85,3.46,23.61,23.61,0,0,1,2.56,4.16c.27.55.58,1.08.89,1.61s.75,1.29,1.08,2a12.76,12.76,0,0,1,.76,2.2,12.1,12.1,0,0,0,.56,1.7,16.21,16.21,0,0,0,.89,1.6,20.82,20.82,0,0,1,1.08,2,17.09,17.09,0,0,1,.72,2.16,14.62,14.62,0,0,0,.57,1.73c.29.71.55,1.43.81,2.15.2.56.4,1.12.62,1.68.34.85.67,1.71,1,2.57l.47,1.24a9.51,9.51,0,0,0,.83,1.56,12.07,12.07,0,0,1,1.07,2.09,11.34,11.34,0,0,1,.5,2.29,10.49,10.49,0,0,0,.35,1.74,14.59,14.59,0,0,0,.75,1.64,14.36,14.36,0,0,1,.94,2.1c.23.73.43,1.47.63,2.21.16.58.31,1.15.48,1.72s.36,1.12.55,1.68a18.77,18.77,0,0,0,1.51,1.17c.52.38,1.06.77,1.58,1.21a11.16,11.16,0,0,1,1.47,1.63,9.14,9.14,0,0,0,1.19,1.32,8.76,8.76,0,0,0,1.52.93,11.64,11.64,0,0,1,1.87,1.15,12,12,0,0,1,1.53,1.59,9,9,0,0,0,1.23,1.29,18,18,0,0,0,1.58,1,19.53,19.53,0,0,1,1.71,1.14c.51.38,1.05.73,1.63,1.11s1.11.72,1.64,1.11l1.42,1.09c.57.44,1.14.88,1.72,1.3s1.09.75,1.65,1.1,1.11.72,1.64,1.1,1,.76,1.54,1.15,1.08.82,1.63,1.21a1.26,1.26,0,1,1-1.46,2.06c-.58-.41-1.14-.84-1.7-1.27s-1-.74-1.48-1.1-1-.69-1.53-1-1.2-.77-1.77-1.19-1.19-.89-1.78-1.35-.92-.71-1.39-1-1-.7-1.51-1-1.19-.77-1.77-1.22a17.94,17.94,0,0,0-1.51-1,21.41,21.41,0,0,1-1.82-1.22,11.22,11.22,0,0,1-1.6-1.64A8.94,8.94,0,0,0,469,139.8a9.23,9.23,0,0,0-1.47-.89,10.69,10.69,0,0,1-2-1.22A11.22,11.22,0,0,1,464,136a9.07,9.07,0,0,0-1.14-1.28l-.39-.32.06.51a12.87,12.87,0,0,0,.28,1.77,8.46,8.46,0,0,0,.7,1.61,9.54,9.54,0,0,1,.92,2.19,10.23,10.23,0,0,1,.24,2.36,9.43,9.43,0,0,0,.15,1.75,9.21,9.21,0,0,0,.65,1.63,9.63,9.63,0,0,1,.84,2.22,10.1,10.1,0,0,1,.16,2.37,9.7,9.7,0,0,0,.09,1.75,10.77,10.77,0,0,0,.56,1.69,12.63,12.63,0,0,1,.7,2.23c.14.75.23,1.51.31,2.24s.15,1.21.24,1.81c.23,1.34.44,2.69.64,4,.13.85.23,1.7.33,2.56.06.5.12,1,.19,1.5.18,1.35.35,2.7.5,4a24.3,24.3,0,0,1,.15,3.92c0,.23,0,.45,0,.68a9.69,9.69,0,0,1-.56,3.5,6.94,6.94,0,0,1-3.2,3.38c-2,1.06-4.2.35-5.77-.18l-1-.31a14.12,14.12,0,0,1-3.92-1.67c-.74-.52-1.45-1.07-2.14-1.61l-1.16-.9c-.66-.49-1.25-1-1.83-1.55s-.86-.79-1.31-1.16c-.64-.51-1.24-1.07-1.82-1.6-.42-.39-.84-.77-1.27-1.14a12.25,12.25,0,0,0-1.47-1,13.46,13.46,0,0,1-1.9-1.38c-.59-.53-1.15-1.1-1.69-1.64s-.83-.85-1.26-1.25a16.14,16.14,0,0,1-1.52-1.72,16.8,16.8,0,0,0-1.21-1.38,10.54,10.54,0,0,0-1.43-1.1,12.93,12.93,0,0,1-1.83-1.45c-.48-.49-.95-1-1.41-1.49,0,.09,0,.17,0,.25a8.7,8.7,0,0,0-.15,1.7,9.28,9.28,0,0,0,.33,1.67,9.31,9.31,0,0,1,.42,2.45c0,1.35,0,2.71-.09,4v.14a19.68,19.68,0,0,1-.29,2.46c-.09.55-.18,1.11-.23,1.67s-.05,1.1-.05,1.7a18.83,18.83,0,0,1-.14,2.46c-.21,1.46-.44,2.84-.69,4.11a13.07,13.07,0,0,1-.75,2.34,16,16,0,0,0-.57,1.63c-.35,1.41-.77,2.84-1.23,4.24-.16.48-.3,1-.43,1.46a22,22,0,0,1-.93,2.77,13.15,13.15,0,0,1-1.47,2.45,15.73,15.73,0,0,0-.89,1.36c-.23.4-.44.8-.65,1.21a16.41,16.41,0,0,1-1.6,2.67,26.53,26.53,0,0,1-3,3.42,23.52,23.52,0,0,1-3.69,2.71,23.27,23.27,0,0,1-3.88,2,25.43,25.43,0,0,1-4.19,1.05,20.8,20.8,0,0,1-3.4.25l-.87,0c-.43,0-.86,0-1.29.07C402.11,213.88,401.49,213.92,400.86,213.92Zm3.53-106.54c-1.35,0-1.85,1.51-2,2a8.9,8.9,0,0,0-.16,4.74c.24.8.54,1.59.87,2.42l.45,1.19c.25.69.58,1.36.92,2.07.23.47.46.94.67,1.42s.44,1.13.64,1.69a15,15,0,0,0,.74,1.9,8.63,8.63,0,0,0,1.06,1.46,11.26,11.26,0,0,1,1.23,1.67,17,17,0,0,1,.83,1.73,12.13,12.13,0,0,0,.86,1.73c.25.4.5.81.74,1.22.44.72.85,1.4,1.31,2a12.1,12.1,0,0,0,1.23,1.44,16,16,0,0,1,1.3,1.49c.35.48.69,1,1,1.46s.78,1.17,1.2,1.7.71.94,1.06,1.41.83,1.15,1.28,1.68.89,1,1.39,1.52.84.87,1.24,1.33.87.9,1.36,1.35.95.89,1.4,1.38a18.63,18.63,0,0,1,1.26,1.62,13.51,13.51,0,0,0,1.13,1.45c.45.48.87,1,1.28,1.5l.22.27c-.05-.18-.11-.37-.18-.56a18,18,0,0,1-.55-2,13.06,13.06,0,0,1-.19-2.13,9.51,9.51,0,0,0-.19-1.91,12.36,12.36,0,0,0-.7-1.83,16,16,0,0,1-.77-1.94,18.44,18.44,0,0,1-.42-2,13.58,13.58,0,0,0-.45-2,18.54,18.54,0,0,0-.85-1.92c-.28-.56-.57-1.15-.81-1.76a18.49,18.49,0,0,1-.61-1.92,13.65,13.65,0,0,0-.63-1.93l-.57-1.34c-.35-.82-.68-1.6-1.06-2.36-.58-1.17-1.21-2.37-1.89-3.58-.35-.64-.77-1.25-1.21-1.9-.34-.49-.67-1-1-1.49a14.57,14.57,0,0,0-1.24-1.62,18.43,18.43,0,0,1-1.24-1.58c-.55-.82-1.13-1.59-1.75-2.41l-.62-.83a11.78,11.78,0,0,1-1.08-1.86,9.73,9.73,0,0,0-1-1.64,19.59,19.59,0,0,0-1.49-1.56c-.44-.42-.9-.86-1.33-1.34a4,4,0,0,0-2.56-1.55Zm31.9-22.5a3.83,3.83,0,0,0-3.66,2.4,6.5,6.5,0,0,0-.83,3.13,10.45,10.45,0,0,0,.77,3.42,8.29,8.29,0,0,0,1,1.76c.3.45.62.92.9,1.43.4.75.84,1.47,1.3,2.23l.68,1.13a16.82,16.82,0,0,1,.88,1.82,11.34,11.34,0,0,0,.84,1.71c.33.51.63,1,.92,1.56s.71,1.25,1.1,1.81a9,9,0,0,0,1.25,1.33,12,12,0,0,1,1.45,1.55A12.52,12.52,0,0,1,444,112a10.17,10.17,0,0,0,1,1.58c.52.64,1.06,1.26,1.61,1.87.32.37.65.73,1,1.1l.8,1c.58.68,1.16,1.37,1.77,2a13.83,13.83,0,0,0,1.42,1.29c.5.42,1,.85,1.51,1.35s.79.85,1.18,1.28,1,1.09,1.49,1.6a17.48,17.48,0,0,0,1.49,1.24l.53.41c-.1-.36-.21-.71-.32-1.06a13,13,0,0,0-.78-1.73,14.87,14.87,0,0,1-.89-2,11.76,11.76,0,0,1-.47-2.19,9.23,9.23,0,0,0-.37-1.8,9.55,9.55,0,0,0-.86-1.63,12.73,12.73,0,0,1-1-2l-.47-1.24c-.32-.85-.63-1.69-1-2.53-.23-.58-.44-1.17-.65-1.75s-.49-1.36-.77-2a17,17,0,0,1-.66-2,16.53,16.53,0,0,0-.61-1.84,16,16,0,0,0-.93-1.7,17.24,17.24,0,0,1-1-1.85,13.4,13.4,0,0,1-.7-2.08,11.6,11.6,0,0,0-.6-1.78c-.29-.6-.63-1.19-1-1.81s-.67-1.15-1-1.74a21.75,21.75,0,0,0-2.28-3.72,11,11,0,0,0-3.07-2.81A4.23,4.23,0,0,0,436.29,84.88Z"/><rect class="cls-5" x="385.49" y="63.75" width="21.18" height="21.18" transform="translate(240.81 -297.55) rotate(56.71)"/><rect class="cls-3" x="298.26" y="53.52" width="14.12" height="14.12" transform="translate(101.42 -174.61) rotate(37.85)"/><rect class="cls-3" x="442.06" y="199.62" width="14.12" height="14.12" transform="translate(221.34 -232.12) rotate(37.85)"/><path d="M488.36,285.77h-.49a1.25,1.25,0,0,1,0-2.49h0a45.68,45.68,0,0,0,16.61-2.87,1.25,1.25,0,1,1,.88,2.33A48.72,48.72,0,0,1,488.36,285.77Z"/><path d="M490.45,300.37q-1.26,0-2.52-.06a1.25,1.25,0,0,1-1.18-1.3,1.21,1.21,0,0,1,1.31-1.18A48,48,0,0,0,507,295a1.26,1.26,0,0,1,1.61.73,1.24,1.24,0,0,1-.73,1.6A50,50,0,0,1,490.45,300.37Z"/><path d="M494.85,317a1.25,1.25,0,0,1-.06-2.49,33.89,33.89,0,0,0,13.17-3.4,1.24,1.24,0,1,1,1.1,2.23A36.44,36.44,0,0,1,494.91,317Z"/><path d="M462.11,295.49a1.25,1.25,0,1,1,0-2.49,11.81,11.81,0,0,0,9-3.71c2.93-3.21,4.23-8.41,3.64-14.64a1.25,1.25,0,0,1,2.48-.23c.66,7-.82,12.75-4.28,16.55A14.25,14.25,0,0,1,462.11,295.49Z"/><path d="M486.14,317.15H486a8.46,8.46,0,0,1-6.47-4.11c-2-3.11-2.33-7.4-1-11.67a11.07,11.07,0,0,1-5.15-5.59,13.36,13.36,0,0,1,.5-11.2,1.25,1.25,0,0,1,2.24,1.09,10.91,10.91,0,0,0-.46,9.13,8.24,8.24,0,0,0,4.8,4.67l1.25.4-.46,1.22c-1.46,3.92-1.3,7.89.42,10.63a6,6,0,0,0,4.6,3,1.24,1.24,0,0,1-.12,2.48Z"/><path d="M34.33,286.61c.66.54.7,1.08.13,1.61l-3.77,3.4a1.09,1.09,0,0,1-1.67.06q-1.8-2.16-8.1-5.81c-.87-.58-1-1.11-.31-1.61l3.71-2.78a1.86,1.86,0,0,1,2.22,0A35.06,35.06,0,0,1,34.33,286.61Zm-3.27,10.21c.45-.87.92-1,1.42-.38l3.46,4.15a1.76,1.76,0,0,1,.19,2Q33,309.19,27.9,318c-.41.79-.9.89-1.48.31l-4-4.08a1.41,1.41,0,0,1-.24-1.91A125.22,125.22,0,0,0,31.06,296.82Zm6.8-26.34a.88.88,0,0,1,.06,1.54l-3.71,3.34a1,1,0,0,1-1.61.06q-1.84-2-8.47-5.75c-.91-.57-1-1.11-.37-1.61l3.77-2.78a2,2,0,0,1,2.29-.06A32.56,32.56,0,0,1,37.86,270.48Zm30.85,27.45a3.24,3.24,0,0,1,2.17.8L73,300.65a1.28,1.28,0,0,1,.25,1.85q-2.1,4.28-9,8.85a66,66,0,0,0,12.06,2.53c1,.08,1.22.41.68,1l-4.27,4.33a2.13,2.13,0,0,1-2.1.62,54,54,0,0,1-14.28-4.33,69.83,69.83,0,0,1-16.82,4.58c-.91.16-1.46-.15-1.67-.93l-1.24-4c-.2-.78.13-1.24,1-1.36a65.18,65.18,0,0,0,11.5-2.48,33.3,33.3,0,0,1-7.66-7.35H39.1c-.83,0-1.16-.4-1-1.18l.8-3.4a1.35,1.35,0,0,1,1.48-1.17Zm3.77-14.84a2.63,2.63,0,0,1,3,3v7.05a2.62,2.62,0,0,1-3,3H41.94a2.62,2.62,0,0,1-3-3v-7.05a2.63,2.63,0,0,1,3-3Zm-2.84-18.86a2.63,2.63,0,0,1,3,3V278a2.63,2.63,0,0,1-3,3H45.22a2.63,2.63,0,0,1-3-3V267.2a2.63,2.63,0,0,1,3-3ZM49.3,291.62v-4.08H46.82a1.42,1.42,0,0,0-1.6,1.61V290a1.41,1.41,0,0,0,1.6,1.61Zm16.07-21c0-1.44-.53-2.16-1.6-2.16h-13c-1.07,0-1.61.72-1.61,2.16Zm-1.6,6.18c1.07,0,1.6-.74,1.6-2.22H49.17c0,1.48.54,2.22,1.61,2.22Zm-1.49,28.14c.74-.66.58-1-.49-1H51.65c-1.08,0-1.26.31-.56.92a29,29,0,0,0,5.63,3.47A24.69,24.69,0,0,0,62.28,304.92ZM59,291.62v-4.08H54.8v4.08Zm8.22,0A1.42,1.42,0,0,0,68.84,290v-.86a1.43,1.43,0,0,0-1.61-1.61H64.51v4.08Z"/><path d="M85.28,318.58c-.82,0-1.13-.39-.92-1.17l.68-2.48a1.44,1.44,0,0,1,1.54-1.17H139q1.25,0,.93,1.17l-.68,2.48a1.44,1.44,0,0,1-1.54,1.17Zm30.12-28.26H139c.82,0,1.13.4.92,1.18l-.68,2.16a1.44,1.44,0,0,1-1.54,1.18H85.35c-.83,0-1.14-.39-.93-1.18l.68-2.16a1.45,1.45,0,0,1,1.54-1.18H108v-2.16H89.74c-.83,0-1.12-.39-.87-1.18l.56-1.54a1.54,1.54,0,0,1,1.6-1.18h17V282.1H91.65c-.82,0-1.11-.39-.86-1.17l.55-1.49A1.55,1.55,0,0,1,93,278.27h15V276H85.53c-.82,0-1.11-.39-.86-1.17l.55-1.61a1.55,1.55,0,0,1,1.61-1.18H108v-2H92c-.82,0-1.11-.39-.86-1.17l.55-1.55a1.54,1.54,0,0,1,1.61-1.17H108v-2.41c0-.83.39-1.18,1.17-1.06l5.07.93A1.29,1.29,0,0,1,115.4,265v1.12h15.27a2.62,2.62,0,0,1,3,3v3h4.94c.83,0,1.12.4.87,1.18l-.56,1.61a1.54,1.54,0,0,1-1.61,1.17h-3.64v3.09a2.63,2.63,0,0,1-3,3H115.4v2.16h19.41c.83,0,1.11.4.87,1.18l-.56,1.54a1.54,1.54,0,0,1-1.61,1.18H115.4ZM91,299.85a2.63,2.63,0,0,1,3-3h36.79q2.91,0,2.91,3v9a2.63,2.63,0,0,1-3,3H93.94q-2.91,0-2.91-3Zm8.78.55c-1,0-1.54.72-1.54,2.17h10.2V300.4ZM98.27,306v.68c0,1.07.51,1.6,1.54,1.6h8.66V306Zm28-3.4c0-1.45-.54-2.17-1.61-2.17h-9.4v2.17Zm-1.61,5.68a1.42,1.42,0,0,0,1.61-1.6V306h-11v2.28ZM115.4,270v2h10.88c0-1.36-.54-2-1.61-2Zm0,6v2.23h9.27c1.07,0,1.61-.75,1.61-2.23Z"/></g></svg>