<svg xmlns="http://www.w3.org/2000/svg" viewBox="0 0 102.83 102.83"><defs><style>.cls-1{fill:#27b5f7;}.cls-2{fill:#fff;}.cls-3{fill:#211815;}.cls-4{fill:#f8c341;}.cls-5{fill:#f56977;}</style></defs><g id="圖"><path class="cls-1" d="M70.45,52a1.89,1.89,0,0,1-1.89,1.89A2.48,2.48,0,0,0,66.05,56a2.38,2.38,0,0,0,2.37,2.62H72a3.17,3.17,0,0,0,3.17-3.17V42.28H70.45Z"/><path class="cls-1" d="M82.41,51.21a1.9,1.9,0,0,1-1.89,1.9A2.46,2.46,0,0,0,78,55.24a2.37,2.37,0,0,0,2.37,2.62H84a3.17,3.17,0,0,0,3.17-3.17V42.34H82.41Z"/><polygon class="cls-1" points="78.69 19.71 75.33 18.28 72.1 16.64 68.72 15.35 65.37 14 62.12 12.4 58.8 10.97 55.43 9.66 52.17 8.08 48.88 6.88 48.84 10.63 48.88 14.48 48.74 18.33 48.73 22.18 48.81 26.03 48.85 29.88 48.68 33.73 48.63 37.59 48.79 41.44 48.79 45.29 48.62 49.14 48.59 52.99 48.66 56.8 51.99 55.49 55.32 54.09 58.66 52.72 61.96 51.23 65.29 49.84 68.65 48.51 71.98 47.09 75.31 45.67 78.62 44.31 82.21 45.17 85.82 46.05 89.35 47.26 92.95 48.19 96.55 49.06 96.67 45.29 96.51 41.49 96.63 37.69 96.5 33.89 96.63 30.1 96.68 26.3 96.54 22.5 96.61 18.7 96.7 14.87 93.07 15.81 89.52 16.91 85.89 17.75 82.28 18.62 78.69 19.71"/><path class="cls-2" d="M73,28.9c0,2.32-.61,4.82-3.12,4.81s-3.1-2.41-3.1-4.83,1.41-3.52,3.12-3.51S73,26.58,73,28.9Z"/><path class="cls-3" d="M72.46,29.12c0,1.53-.41,3.19-2.07,3.18s-2.06-1.59-2-3.2.93-2.33,2.07-2.32A2.06,2.06,0,0,1,72.46,29.12Z"/><path class="cls-2" d="M88.94,29c0,2.32-.62,4.82-3.13,4.81s-3.1-2.41-3.09-4.83,1.4-3.51,3.12-3.51S89,26.63,88.94,29Z"/><path class="cls-3" d="M88.43,29.17c0,1.53-.41,3.19-2.07,3.19s-2.06-1.6-2-3.21.93-2.33,2.07-2.32A2.07,2.07,0,0,1,88.43,29.17Z"/><path d="M78.57,38.35a7,7,0,0,1-3.65-1.12.48.48,0,0,1,.56-.79c.13.09,3.29,2.26,6.15-.27a.48.48,0,0,1,.68,0,.49.49,0,0,1,0,.69A5.44,5.44,0,0,1,78.57,38.35Z"/><path class="cls-4" d="M49.67,70.71a1.89,1.89,0,0,1-1.89,1.89,2.47,2.47,0,0,0-2.5,2.13,2.39,2.39,0,0,0,2.37,2.63h3.61a3.17,3.17,0,0,0,3.18-3.17V61H49.68Z"/><path class="cls-4" d="M61.64,70.5a1.89,1.89,0,0,1-1.89,1.89,2.48,2.48,0,0,0-2.51,2.13,2.39,2.39,0,0,0,2.37,2.63h3.62A3.17,3.17,0,0,0,66.4,74V61.08H61.64Z"/><polygon class="cls-4" points="57.91 38.46 54.56 37.02 51.33 35.39 47.95 34.09 44.6 32.74 41.35 31.14 38.03 29.72 34.66 28.41 31.4 26.83 28.1 25.63 28.07 29.37 28.11 33.23 27.96 37.08 27.96 40.93 28.04 44.78 28.08 48.63 27.91 52.48 27.86 56.33 28.02 60.18 28.02 64.03 27.84 67.88 27.82 71.74 27.89 75.55 31.22 74.24 34.55 72.83 37.89 71.47 41.18 69.97 44.52 68.58 47.88 67.25 51.21 65.83 54.53 64.42 57.85 63.05 61.44 63.91 65.05 64.79 68.58 66 72.18 66.93 75.78 67.81 75.89 64.03 75.74 60.23 75.86 56.44 75.72 52.64 75.86 48.84 75.91 45.04 75.77 41.24 75.83 37.45 75.93 33.62 72.3 34.56 68.75 35.66 65.12 36.5 61.51 37.36 57.91 38.46"/><path class="cls-2" d="M52.2,47.64c0,2.32-.62,4.82-3.12,4.81S46,50,46,47.62s1.41-3.51,3.12-3.51S52.21,45.33,52.2,47.64Z"/><path class="cls-3" d="M51.15,47.07c0,1.54-.41,3.2-2.07,3.19s-2.06-1.6-2-3.2a2,2,0,0,1,2.07-2.33A2.07,2.07,0,0,1,51.15,47.07Z"/><path class="cls-2" d="M68.17,47.69c0,2.32-.62,4.82-3.13,4.82s-3.1-2.42-3.09-4.84,1.4-3.51,3.12-3.5S68.17,45.38,68.17,47.69Z"/><path class="cls-3" d="M67.12,47.13c0,1.53-.41,3.19-2.07,3.19s-2.06-1.6-2-3.21.93-2.33,2.06-2.32A2.07,2.07,0,0,1,67.12,47.13Z"/><path d="M57.8,57.09A7.15,7.15,0,0,1,54.15,56,.48.48,0,0,1,54,55.3a.47.47,0,0,1,.67-.11c.13.09,3.29,2.25,6.15-.28a.49.49,0,0,1,.64.73A5.44,5.44,0,0,1,57.8,57.09Z"/><path class="cls-5" d="M28.9,88.64A1.88,1.88,0,0,1,27,90.53a2.47,2.47,0,0,0-2.5,2.14,2.38,2.38,0,0,0,2.37,2.62h3.61a3.17,3.17,0,0,0,3.17-3.17V79.77H28.9Z"/><path class="cls-5" d="M40.86,88.7A1.88,1.88,0,0,1,39,90.59a2.48,2.48,0,0,0-2.5,2.14,2.38,2.38,0,0,0,2.37,2.62h3.61a3.17,3.17,0,0,0,3.18-3.17V79.82H40.87Z"/><polygon class="cls-5" points="37.14 57.2 33.78 55.77 30.56 54.13 27.18 52.83 23.82 51.49 20.58 49.89 17.26 48.46 13.88 47.15 10.63 45.57 7.33 44.37 7.29 48.12 7.34 51.97 7.19 55.82 7.18 59.67 7.27 63.52 7.3 67.37 7.14 71.22 7.08 75.07 7.25 78.92 7.25 82.78 7.07 86.63 7.05 90.48 7.12 94.29 10.44 92.98 13.77 91.58 17.12 90.21 20.41 88.71 23.75 87.33 27.11 85.99 30.44 84.58 33.76 83.16 37.08 81.8 40.66 82.66 44.28 83.53 47.8 84.75 51.41 85.68 55 86.55 55.12 82.77 54.97 78.98 55.08 75.18 54.95 71.38 55.08 67.58 55.14 63.79 55 59.99 55.06 56.19 55.15 52.36 51.53 53.3 47.97 54.4 44.35 55.24 40.73 56.11 37.14 57.2"/><path class="cls-2" d="M31.43,66.39c0,2.31-.62,4.82-3.13,4.81s-3.1-2.41-3.09-4.83,1.4-3.52,3.12-3.51S31.43,64.07,31.43,66.39Z"/><path class="cls-3" d="M30.38,66.6c0,1.54-.41,3.2-2.07,3.19s-2.06-1.6-2-3.2a2,2,0,0,1,2.06-2.33A2.08,2.08,0,0,1,30.38,66.6Z"/><path class="cls-2" d="M47.39,66.44c0,2.32-.61,4.82-3.12,4.81s-3.1-2.41-3.09-4.83,1.4-3.52,3.12-3.51S47.4,64.12,47.39,66.44Z"/><path class="cls-3" d="M46.35,66.65c0,1.54-.41,3.2-2.08,3.19s-2.05-1.59-2.05-3.2.93-2.33,2.07-2.33A2.08,2.08,0,0,1,46.35,66.65Z"/><path d="M37,75.84a7,7,0,0,1-3.65-1.12.48.48,0,0,1-.12-.67.49.49,0,0,1,.68-.12c.13.09,3.29,2.26,6.14-.27a.49.49,0,0,1,.69,0,.48.48,0,0,1,0,.68A5.49,5.49,0,0,1,37,75.84Z"/></g></svg>