<svg xmlns="http://www.w3.org/2000/svg" viewBox="0 0 308 340"><defs><style>.cls-1{fill:#f56977;}.cls-2{fill:#27b5f7;}.cls-3{fill:#f8c341;}.cls-4{fill:#fff;}.cls-5{fill:#211815;}.cls-6{fill:#231815;}</style></defs><g id="圖"><polygon class="cls-1" points="87.15 31.69 84.79 36.86 82.15 42.19 78.65 47.09 76.07 52.45 74.52 58.32 71.87 63.65 67.91 68.32 66.27 74.15 63.76 79.55 60.84 84.73 57.61 89.77 55.66 95.44 53.28 100.9 49.78 105.81 47.32 111.23 44.55 116.5 42.06 121.91 39.48 127.28 36.43 133.15 42.87 130.99 48.03 127.42 53.63 124.91 59.59 123.22 65.53 121.53 70.96 118.6 76.36 115.6 82.47 114.28 87.85 111.25 93.35 108.5 99.04 106.19 104.65 103.69 110.4 101.51 116.47 100.11 121.75 96.84 127.31 94.2 132.86 91.54 138.2 89.73 134.41 85.79 131.39 80.45 127.18 76.16 123.04 71.81 118.73 67.6 114.9 62.97 110.81 58.57 106.74 54.15 102.92 49.51 98.71 45.21 94.77 40.67 91.63 35.4 87.15 31.69"/><polygon class="cls-2" points="148.32 60.28 157.93 57.77 167.98 55.51 177.94 52.88 188.07 50.98 198.13 48.77 208.14 46.34 218.18 44.02 228.22 41.71 237.92 38 247.88 35.3 258.25 33.44 259.23 42.92 261.83 51.77 264.97 60.49 267.18 69.43 267.79 78.76 271.68 88.04 260.63 88.87 250.7 91.64 241.08 95.67 230.98 97.73 220.98 100.21 210.99 102.71 200.61 103.58 190.72 106.54 180.77 109.2 170.91 112.29 160.49 114.03 157.81 104.94 155.62 96 153.63 87 151.06 78.15 150.89 68.73 148.32 60.28"/><polygon class="cls-3" points="35.27 184.63 37.89 168.71 49.33 157.36 64.39 152.24 79.67 156.22 91.33 166.62 97.62 181.42 94 197.37 83.01 209.34 67.55 213.71 51.48 211.43 39.28 200.35 35.27 184.63"/><path d="M124.26,186a.68.68,0,0,1-.2,0l-2.91-.53-3-.25-.15,0-2.94-.65-2.93-.57-2.91-.33-3-.52-3-.63-3-.77-2.9-.59-3-.84-2.91-1-2.83-.78-2.91-.88L82.9,176.5l-8.55-2.58-2.89-.74-3.11-1a1.09,1.09,0,0,1,0-2.07l3.15-1a.5.5,0,0,1,.13,0l6.11-1.22,3-.8a.69.69,0,0,1,.2,0l3.66-.31-.26-.08-2.86-.26-.12,0-2.91-.59L75.47,165l-2.86-.44-3-.62-2.89-.84-5.81-.92-.11,0-2.89-.75-2.86-.6-5.83-.78-.11,0-2.89-.72-2.85-.47-5.85-1.42-2.73-.62a1.07,1.07,0,0,1-.82-1.3,1.09,1.09,0,0,1,1.3-.82L40.94,156l2.9.72,2.85.47,2.92.73,5.84.79,3,.63,2.88.75,5.84.93.13,0,2.88.84,2.83.59,2.89.45,3,.7,2.83.57,2.92.26.23.05,2.8.9,2.93.6a1.09,1.09,0,0,1-.06,2.15l-3.15.46-6.2.54-2.92.8-6,1.2,2.7.68,2.92.85,5.77,1.78,2.89,1.12,2.8.85,2.88.8,2.91,1,2.84.8,2.87.58,3,.77,2.9.62,2.92.5,2.93.33,3,.59,2.9.64,2.93.24.11,0,3,.55a1.07,1.07,0,0,1,.87,1.26A1.09,1.09,0,0,1,124.26,186Z"/><path d="M252.62,171.17a1.17,1.17,0,0,1-1.13-.85l-1-3.27a.83.83,0,0,1,0-.15l-.53-3.27-2.08-6.38L245.46,151l-2.27-6.45-1.32-3-1.68-2.89a1.2,1.2,0,0,1-.11-.23l-1-3.18-1.32-2.74-3-5.31-1.89-2.36-2.56-3,.33,2.35.63,3,.52,3.17.36,3.2c0,.05,0,.1,0,.14l-.07,5.67a1.09,1.09,0,0,1-.18.61l-1.34,2.13a1.18,1.18,0,0,1-1.08.55l-4.2-.33a1.37,1.37,0,0,1-.35-.08L221.87,141a1.36,1.36,0,0,1-.38-.24l-2.4-2.31-2.38-2.36a1.12,1.12,0,0,1-.24-.33l-1.43-3-.06-.16-1-3.15-.8-3.27a1.09,1.09,0,0,1,0-.26l-.05-3.34a1.19,1.19,0,0,1,.1-.49l1.22-2.79a.72.72,0,0,1,.11-.19l1.65-2.42a1.14,1.14,0,0,1,.55-.44l3.41-1.31a1.22,1.22,0,0,1,.6-.06l3.66.57a.86.86,0,0,1,.23.06L226,116l-.1-.21a1.06,1.06,0,0,1-.09-.25l-.74-3-1.2-2.85L222.46,107l-1.68-2.63-3.44-5.22-2-2.41-1.87-2.54L211.4,91.9l-2.08-2.34-2.27-2-2.61-1.67-2.66-1.86-2.51-1.42.25,1.73.39,3.13.23,3.17.36,3,.31,3.13a.75.75,0,0,1,0,.15l-.1,5.74a1.1,1.1,0,0,1-.14.53l-1.23,2.32a1.19,1.19,0,0,1-.8.6l-2.6.54a1.15,1.15,0,0,1-.61,0l-2.57-.85a1,1,0,0,1-.31-.15l-2.3-1.61a1.3,1.3,0,0,1-.3-.32l-1.7-2.58a.76.76,0,0,1-.09-.18l-1.23-2.81-1-3a1.29,1.29,0,0,1,0-.19L185.28,92a2.53,2.53,0,0,1,0-.28l.26-3.08a1.1,1.1,0,0,1,.06-.26l1.18-3.68a1.27,1.27,0,0,1,.2-.36l2.34-3a1.16,1.16,0,0,1,.4-.33l2.91-1.44a.74.74,0,0,1,.54-.12l3,0-.17-.65L194.82,76a.88.88,0,0,1,0-.15L194,72.94l-1.48-2.6-1.58-2.65-1.46-2.75-1.7-2.37-2.25-2-2.19-2.25L181,56.47l-2.7-1.28-.1,0-2.11-1.25,1.31,2.28,1.66,2.55,1.58,2.78a1.66,1.66,0,0,1,.12.31l.7,3,0,.14.32,3.11a1.2,1.2,0,0,1-.07.53l-1.05,2.89a1.08,1.08,0,0,1-.16.3l-1.77,2.43a1.34,1.34,0,0,1-.2.21l-2.35,1.94a1.14,1.14,0,0,1-.64.26l-3.05.27a1.15,1.15,0,0,1-.52-.07l-2.58-1a1.13,1.13,0,0,1-.35-.21L167,73.9a.91.91,0,0,1-.17-.17l-1.68-2.19L163,68.87a1.18,1.18,0,0,1-.13-.18l-1.63-3.07a.31.31,0,0,1-.05-.1l-1.34-3.21a1.3,1.3,0,0,1-.09-.39l-.18-3.47a1,1,0,0,1,0-.39l.95-3.35a1.19,1.19,0,0,1,.3-.51L163.13,52a1.12,1.12,0,0,1,.49-.3l3-.89.11,0,3.06-.61a1.37,1.37,0,0,1,.35,0l1.05.11-.71-1-1.8-2.58-6.31-7.16-2-2.56-2.07-2.24-2.47-1.92-.09-.08-6.93-6.64a1.16,1.16,0,0,1,0-1.65,1.17,1.17,0,0,1,1.66,0l2.3,2.23L157.35,31l2.5,1.94L160,33l2.17,2.35.07.09,2,2.54,6.3,7.14a.44.44,0,0,1,.08.11l1.83,2.63,1.87,2.57.08.13.1.19,2,.62.26.11,2.65,1.57,2.79,1.32a1.2,1.2,0,0,1,.24.15l2.42,2a.81.81,0,0,1,.1.09l2.17,2.24,2.29,2a1,1,0,0,1,.17.19l1.83,2.55a.57.57,0,0,1,.08.13L193,66.54l1.56,2.62,1.56,2.75a1.19,1.19,0,0,1,.11.26l.83,3,1.2,2.82.06.17.49,1.91,1.1.3a1.36,1.36,0,0,1,.28.11L203,82l.1.06L205.74,84l2.64,1.68.14.11,2.4,2.08.1.1,2.11,2.38,2.15,2.28.09.11,1.88,2.55,2,2.42.07.09,5.19,8a.47.47,0,0,1,.05.1l1.43,2.84,1.26,3a.7.7,0,0,1,.06.17l.74,3,1.37,2.74a1.34,1.34,0,0,1,.07.18l1,.63a1,1,0,0,1,.26.23l4,4.76,2,2.46a.91.91,0,0,1,.11.16l3,5.46,1.39,2.87a.47.47,0,0,1,.06.15l1,3.14,1.65,2.84.06.11,1.38,3.11,2.29,6.51,2.44,6.29,2.13,6.52a1.21,1.21,0,0,1,.05.18l.53,3.29.94,3.21a1.17,1.17,0,0,1-.8,1.45A1.26,1.26,0,0,1,252.62,171.17Zm-27-31.17,3.31.26.79-1.26.06-5.24-.35-3.08-.49-3.07-.64-3-.45-3.16-.51-2.2-.75-.47-2.68-1-3.24-.5-2.78,1.06-1.38,2-1.08,2.46.05,2.95.75,3.08.92,3,1.31,2.75,4.45,4.34Zm-32-36.32,2.1.69,1.76-.37.84-1.57,0-2.35.08-3.07-.31-3-.35-3.08-.24-3.17-.38-3-.4-2.75-.55-.15-2.83,0L191,82.94l-2.05,2.63-1.08,3.35-.24,2.81.45,2.81,1,2.81,1.15,2.64,1.51,2.3ZM170.47,73.79l2.14.79,2.43-.21,2-1.62,1.59-2.17.9-2.49-.28-2.77-.65-2.81-1.46-2.57-1.65-2.54-1.63-2.83-1-1.8-2.77-.3-2.83.56-2.67.79-1.82,1.82-.82,2.88.16,3.07,1.24,3,1.56,2.91L167,70.09l1.62,2.11Z"/><path d="M127.76,146.42a1.14,1.14,0,0,1-1-.51l-1.74-2.63-2-2.36L118.9,136l-2.09-2.41-2-2.54a1,1,0,0,1-.08-.11l-1.64-2.69-2-2.39-2.13-2.35-.07-.09L107,120.83l-2-2.5L102.87,116l-2.05-2.58-1.72-1.9-.35,2.32-.28,3.23-.53,3.34-.3,3.22-1,6.59L96,133.43a1.16,1.16,0,0,1-1,.91,1.14,1.14,0,0,1-1.16-.74l-1.09-2.93-1.28-2.95s0-.1,0-.14l-.87-3.07-1.32-2.9a.42.42,0,0,1,0-.1l-1.06-3-1.32-2.93-1.51-2.83-.06-.15-1.11-3.08-.64-1.57-.71-.07-3.24,0h-.12L76,107.44l-3.26-.17-3.31-.3H66.19a1.14,1.14,0,0,1-1.14-1.09,1.15,1.15,0,0,1,1-1.2l3.32-.28,3.17-.64,3-1.1,2.87-1.6,1.8-.88-2.66-5.57-1.25-3-1.7-2.7-.07-.12-1.39-3-1.15-3.08L70.5,80l-1.42-3a1.13,1.13,0,0,1,.39-1.44,1.15,1.15,0,0,1,1.49.18l2.1,2.33,2.14,2.25,2.45,2a1.31,1.31,0,0,1,.22.25l1.74,2.61,2.19,2.21L84,89.78l2,2.54,2.33,2.36,1.26-.93,2.82-1.94,2.83-1.87a.27.27,0,0,1,.1-.06l3-1.58,3-1.82a1.14,1.14,0,0,1,1.25,0,1.12,1.12,0,0,1,.46,1.17l-.71,3.44-.61,3.22-.49,3.16-.09,3.25a1.35,1.35,0,0,1,0,.28l-.87,3.09-.25,3.19,0,.19,0,.09,6,1,3.29.15.16,0,3.27.62,3.31.88a1.15,1.15,0,0,1-.59,2.22l-3.23-.87-3.11-.58-3.27-.15h-.13l-4.9-.8,1.75,1.92,2,2.57,2.13,2.29,2,2.6,1.9,2.55,2.12,2.34,2.08,2.5a1.13,1.13,0,0,1,.1.13l1.65,2.7,1.95,2.44,2.07,2.39,4.12,4.94,2.08,2.41a.47.47,0,0,1,.09.12l1.78,2.69a1.13,1.13,0,0,1-.32,1.58A1.16,1.16,0,0,1,127.76,146.42ZM93.53,126.88l1,2.21.89-5.7.3-3.23.53-3.33.28-3.21.49-3.34a.52.52,0,0,1,0-.11l.19-.77-1.26-.25L92.67,109l-3.36-.28h-.1L86,108.15l.21.51,1.1,3,1.49,2.83,1.38,3a.3.3,0,0,1,0,.1l1.06,3,1.33,2.92.06.17Zm-4-20.44,3.27.28,2.48.11-.63-.78-2.13-2.3-.08-.1-3.82-5.17-.6-.7-2.4,1.89-.1.07-2.39,1.5.55,1.4,1.3,3.12,1.23.11Zm4.72-4.2,2.14,2.32,1.41,1.75.19-2.47a1.7,1.7,0,0,1,0-.22l.86-3.07L99,97.37a.77.77,0,0,1,0-.15L99.53,94l.8-4.16-.83.5-3,1.58-2.77,1.83-3.86,2.71.55.62Zm-14.73,3.28,2.89,0-1.32-3.23-1.57.78-2.91,1.61-.16.07-.94.34.69,0Zm-2.9-17.77,1.71,2.73a.56.56,0,0,1,.09.17l1.26,3,2.58,5.42,2-1.26,2.26-1.77-2.15-2.17-.09-.1-2-2.51L80.15,89l-2.24-2.27a.75.75,0,0,1-.14-.17L76.06,84l-1.58-1.3L75.31,85Z"/><path class="cls-1" d="M224.19,293.17a5.49,5.49,0,0,1-5.81,5.16,7.18,7.18,0,0,0-7.63,5.75,6.91,6.91,0,0,0,6.41,8l10.48.62a9.21,9.21,0,0,0,9.75-8.65L239.68,266l-13.8-.82Z"/><path class="cls-1" d="M182,280.2a5.48,5.48,0,0,1-7.17,3,7.2,7.2,0,0,0-9.09,2.95,6.93,6.93,0,0,0,3.44,9.68l9.71,4a9.22,9.22,0,0,0,12-5l14.61-35.32-12.77-5.28Z"/><polygon class="cls-1" points="235.91 196.05 227.69 189.35 220 182.18 211.62 175.84 203.34 169.38 195.57 162.31 187.44 155.66 179.09 149.28 171.27 142.26 163.03 136.26 159.91 146.68 156.94 157.46 153.43 168.09 150.31 178.83 147.45 189.64 144.46 200.42 140.89 211.03 137.64 221.74 135.01 232.62 131.91 243.37 128.31 253.97 125.14 264.7 122.28 275.41 132.61 274.42 143.03 273.18 153.47 272.06 163.86 270.53 174.29 269.34 184.74 268.32 195.16 267.05 205.59 265.77 215.93 264.64 225.25 269.92 234.64 275.28 243.5 281.5 252.8 287 262.14 292.33 265.51 281.88 268.13 271.15 271.51 260.65 274.2 249.95 277.63 239.46 280.83 228.91 283.5 218.19 286.73 207.64 290.07 197.03 279.19 196.73 268.38 196.95 257.6 196.37 246.81 195.88 235.91 196.05"/><path class="cls-4" d="M212.57,217.08C210.68,223.54,207,230,200,228s-6.71-9.22-4.75-16,6.75-8.67,11.53-7.28S214.45,210.62,212.57,217.08Z"/><path class="cls-5" d="M209.47,216.84c-1.25,4.28-3.71,8.59-8.35,7.24S196.67,218,198,213.49s4.47-5.76,7.64-4.83S210.72,212.56,209.47,216.84Z"/><path class="cls-4" d="M257.09,230.07c-1.89,6.46-5.6,13-12.59,10.92s-6.72-9.23-4.75-16,6.75-8.67,11.53-7.28S259,223.61,257.09,230.07Z"/><path class="cls-5" d="M254,229.83c-1.25,4.28-3.71,8.59-8.35,7.24s-4.45-6.12-3.15-10.59,4.48-5.76,7.65-4.83S255.24,225.55,254,229.83Z"/><path class="cls-6" d="M222.2,248.46a13.81,13.81,0,0,1-12.67-8.37,1.63,1.63,0,0,1,3.06-1.12A10.51,10.51,0,0,0,228,243.46a1.63,1.63,0,0,1,2,2.59A13.58,13.58,0,0,1,222.2,248.46Z"/></g></svg>