<svg xmlns="http://www.w3.org/2000/svg" viewBox="0 0 340 220"><defs><style>.cls-1{fill:#d3d4d4;}.cls-2{fill:#ccf1ff;}.cls-3{fill:#f8c341;}.cls-4{fill:#fff;}.cls-11,.cls-5,.cls-6{fill:none;stroke-linecap:round;stroke-miterlimit:10;}.cls-5{stroke:#fff;stroke-width:2.83px;}.cls-11,.cls-6{stroke:#000;}.cls-6{stroke-width:1.57px;}.cls-7{fill:#e6e6e7;}.cls-8{fill:#f56977;}.cls-9{fill:#27b5f7;}.cls-10{fill:#211815;}.cls-11{stroke-width:1.44px;}</style></defs><g id="圖"><rect class="cls-1" x="34.81" y="20.48" width="268.79" height="179.04" rx="6"/><rect class="cls-2" x="88.64" y="-15.44" width="161.13" height="250.88" rx="3" transform="translate(279.2 -59.2) rotate(90)"/><rect class="cls-3" x="125.52" y="151.22" width="87.37" height="21.49" rx="4"/><path class="cls-1" d="M317.77,220H20.63l11-15.88a10.69,10.69,0,0,1,8.78-4.6H298a10.66,10.66,0,0,1,8.77,4.6Z"/><rect class="cls-4" x="59.66" y="42.78" width="40.66" height="12.28" rx="2"/><line class="cls-5" x1="183.25" y1="51.47" x2="202.78" y2="51.47"/><line class="cls-5" x1="183.25" y1="46.8" x2="202.78" y2="46.8"/><line class="cls-5" x1="211.11" y1="51.47" x2="230.65" y2="51.47"/><line class="cls-5" x1="211.11" y1="46.8" x2="230.65" y2="46.8"/><line class="cls-5" x1="238.98" y1="51.47" x2="258.52" y2="51.47"/><line class="cls-5" x1="238.98" y1="46.8" x2="258.52" y2="46.8"/><rect class="cls-4" x="266.84" y="42.78" width="12.28" height="12.28" rx="2"/><path d="M133.27,165.4l.64-1.34a4.18,4.18,0,0,0,2.65.88c.67,0,1.49-.31,1.49-.95s-.72-.78-1.43-1c-1.51-.34-3.06-.85-3.06-2.54s1.45-2.32,3-2.32a5.07,5.07,0,0,1,2.95.86l-.63,1.34a4.38,4.38,0,0,0-2.32-.65c-.42,0-1.22.16-1.22.77s.58.71,1.38.9c1.43.34,3.15.87,3.15,2.6s-1.69,2.51-3.31,2.51A4.74,4.74,0,0,1,133.27,165.4Z"/><path d="M142.08,163.15v-4.86h1.75v4.77a1.74,1.74,0,1,0,3.48,0v-4.77h1.75v4.86a3.49,3.49,0,0,1-7,0Z"/><path d="M151.52,158.29h3.81c1.33,0,2.52.56,2.52,2.11a1.77,1.77,0,0,1-.8,1.43,2,2,0,0,1,1.53,2c0,1.7-1.35,2.49-3.13,2.49h-3.93Zm3.69,3.09c.61,0,.9-.3.9-.79s-.29-.81-.94-.81h-1.91v1.6Zm.16,3.48c.83,0,1.39-.29,1.39-1s-.52-1.05-1.29-1.05h-2.21v2.07Z"/><path d="M160.52,165.4l.63-1.34a4.21,4.21,0,0,0,2.66.88c.67,0,1.49-.31,1.49-.95s-.72-.78-1.43-1c-1.51-.34-3.06-.85-3.06-2.54s1.45-2.32,3-2.32a5.07,5.07,0,0,1,2.95.86l-.64,1.34a4.35,4.35,0,0,0-2.31-.65c-.43,0-1.22.16-1.22.77s.58.71,1.38.9c1.43.34,3.15.87,3.15,2.6s-1.69,2.51-3.31,2.51A4.74,4.74,0,0,1,160.52,165.4Z"/><path d="M169.11,162.31a4.11,4.11,0,0,1,4.26-4.14,4.18,4.18,0,0,1,2.82,1l-1.07,1.17a2.38,2.38,0,0,0-1.65-.61,2.58,2.58,0,0,0-.07,5.16,2.53,2.53,0,0,0,1.93-.83l1.09,1.22a4.31,4.31,0,0,1-3,1.2A4.13,4.13,0,0,1,169.11,162.31Z"/><path d="M178.32,158.29h3.46c2.38,0,3.62,1.4,3.62,3.13a2.87,2.87,0,0,1-1.53,2.56l1.68,2.38h-2l-1.25-1.89a5.2,5.2,0,0,1-.68.06h-1.56v1.83h-1.74Zm3.51,4.74a1.63,1.63,0,1,0,0-3.26h-1.78V163Z"/><path d="M187.59,158.29h1.75v8.07h-1.75Z"/><path d="M191.87,158.29h3.81c1.34,0,2.52.56,2.52,2.11a1.74,1.74,0,0,1-.8,1.43,2,2,0,0,1,1.53,2c0,1.7-1.34,2.49-3.12,2.49h-3.94Zm3.69,3.09c.61,0,.91-.3.91-.79s-.3-.81-.95-.81h-1.9v1.6Zm.16,3.48c.84,0,1.4-.29,1.4-1s-.53-1.05-1.3-1.05h-2.2v2.07Z"/><path d="M201.18,158.29h6.32v1.49h-4.57v1.65h4.33v1.48h-4.33v2h4.74v1.5h-6.49Z"/><line class="cls-6" x1="43.76" y1="199.52" x2="294.64" y2="199.52"/><path class="cls-7" d="M301.11,210.86a10.65,10.65,0,0,0-8.77-4.59H46.07a10.68,10.68,0,0,0-8.78,4.59L31,220H307.43Z"/><polygon class="cls-8" points="207.11 162.08 207.22 162.89 207.76 163.71 207.98 164.63 208.01 165.61 208.51 166.44 208.68 167.38 208.89 168.31 209.45 169.12 209.64 170.05 210.03 170.92 210.19 171.86 210.43 172.78 210.6 173.72 211.06 174.56 211.53 175.41 211.63 176.37 211.99 177.25 212.21 178.17 212.42 179.1 212.91 179.94 213.03 180.91 213.42 181.79 213.88 180.95 214.33 180.1 214.78 179.25 215.35 178.48 215.88 177.68 216.44 176.9 216.64 175.9 217.17 175.09 217.75 174.28 218.34 175.1 218.99 175.82 219.7 176.48 220.48 177.08 221.01 177.92 221.86 178.46 222.55 179.15 223.08 180.07 223.71 179.38 224.4 178.84 224.96 178.27 224.4 177.65 223.89 176.87 223.31 176.16 222.61 175.56 222.14 174.75 221.44 174.15 220.87 173.43 220.17 172.82 219.44 172.05 220.48 171.82 221.34 171.45 222.24 171.26 223.16 171.11 224 170.69 224.85 170.32 225.85 170.41 226.67 169.91 227.62 169.69 226.65 169.44 225.85 168.87 224.92 168.63 224.01 168.32 223.13 167.95 222.28 167.51 221.25 167.53 220.46 166.94 219.47 166.84 218.69 166.23 217.78 165.94 216.89 165.59 216.03 165.18 215.1 164.93 214.19 164.64 213.23 164.47 212.35 164.09 211.53 163.56 210.62 163.28 209.72 162.95 208.8 162.67 207.85 162.47 207.11 162.08"/><path class="cls-9" d="M184.08,131a2.43,2.43,0,0,0,2.47,2.39,3.19,3.19,0,0,1,3.27,2.69,3.07,3.07,0,0,1-3,3.43l-4.65.07a4.08,4.08,0,0,1-4.15-4l-.29-16.91,6.12-.1Z"/><path class="cls-9" d="M160.69,127.32a2.43,2.43,0,0,1-3.11,1.47,3.18,3.18,0,0,0-4,1.51,3.05,3.05,0,0,0,1.74,4.2l4.38,1.56a4.08,4.08,0,0,0,5.21-2.47l5.69-16-5.77-2Z"/><polygon class="cls-9" points="179.53 87.53 175.61 84.95 171.89 82.14 167.91 79.73 163.96 77.27 160.22 74.51 156.33 71.95 152.36 69.52 148.59 66.79 144.69 64.52 143.79 69.25 142.98 74.14 141.92 78.98 141.04 83.86 140.27 88.75 139.44 93.64 138.36 98.48 137.42 103.34 136.75 108.25 135.88 113.13 134.78 117.97 133.88 122.84 133.11 127.69 137.61 126.78 142.15 125.76 146.7 124.78 151.2 123.64 155.74 122.63 160.3 121.71 164.84 120.67 169.37 119.63 173.87 118.66 178.22 120.56 182.6 122.49 186.79 124.82 191.14 126.82 195.5 128.74 196.5 123.98 197.17 119.14 198.18 114.36 198.87 109.52 199.9 104.74 200.83 99.94 201.51 95.1 202.45 90.31 203.44 85.48 198.63 85.84 193.88 86.43 189.1 86.67 184.33 86.95 179.53 87.53"/><path class="cls-4" d="M170.21,97.86c-.53,2.93-1.87,6-5,5.38s-3.38-3.75-2.82-6.82,2.57-4.13,4.74-3.73S170.75,94.93,170.21,97.86Z"/><path class="cls-10" d="M168.84,97.9c-.36,1.94-1.24,3.95-3.35,3.57s-2.24-2.5-1.87-4.53,1.71-2.74,3.15-2.47S169.19,96,168.84,97.9Z"/><path class="cls-4" d="M190.42,101.54c-.53,2.94-1.87,6-5,5.39s-3.38-3.76-2.82-6.82,2.58-4.13,4.75-3.74S191,98.61,190.42,101.54Z"/><path class="cls-10" d="M189,101.58c-.35,1.94-1.24,4-3.34,3.57s-2.24-2.49-1.87-4.52,1.7-2.74,3.14-2.48S189.4,99.64,189,101.58Z"/><path class="cls-11" d="M170.18,107.77a7,7,0,0,0,8.91,1.62"/><path class="cls-6" d="M210.09,147.57s1.14-2.68,1.91-4.77"/><path class="cls-6" d="M213.58,149.65s2.41-2.47,4.66-4.88"/><path class="cls-6" d="M216.19,152.62c1.32-.52,4.53-1.94,4.53-1.94"/></g></svg>