<svg xmlns="http://www.w3.org/2000/svg" xmlns:xlink="http://www.w3.org/1999/xlink" viewBox="0 0 300 190"><defs><style>.cls-1,.cls-12,.cls-9{fill:none;}.cls-2{clip-path:url(#clip-path);}.cls-3{fill:#fae7e7;}.cls-11,.cls-4{fill:#fff;}.cls-5{fill:#c8c8c8;}.cls-6{fill:#f56977;}.cls-7{fill:#f0f0f0;}.cls-8{fill:#f8c341;}.cls-11,.cls-12,.cls-9{stroke:#000;stroke-linecap:round;stroke-miterlimit:10;}.cls-9{stroke-width:1.57px;}.cls-10{fill:#211815;}.cls-11,.cls-12{stroke-width:0.95px;}</style><clipPath id="clip-path"><rect class="cls-1" width="300" height="190"/></clipPath></defs><g id="圖"><g class="cls-2"><path class="cls-3" d="M223.08,66.12c-2-20.72-15.48-26.64-28.15-25.06-13.18,1.64-21.15,11.55-20.41,32.4.39,11,7.78,21,17,22.89a.46.46,0,0,1,.14.07A2.68,2.68,0,0,1,193,98.85l-.17,7.37a6.63,6.63,0,0,0,7.61,5.42l10.47-1.76a5.68,5.68,0,0,0,4.66-6.54l-2.77-7.87a2.72,2.72,0,0,1,.39-2.57,3,3,0,0,1,.23-.25C220.19,86.67,224.12,77.1,223.08,66.12Z"/><polygon class="cls-4" points="97.52 71.43 31.08 67.98 90.07 59.97 81.01 46.03 18.83 68.97 108.73 88.66 97.52 71.43"/><polygon class="cls-5" points="90.07 59.97 90.07 71.04 31.08 67.98 90.07 59.97"/><polygon class="cls-4" points="156.36 33.5 116.76 28.08 152.48 26.26 147.76 17.46 109.38 28.06 162.2 44.38 156.36 33.5"/><polygon class="cls-5" points="152.48 26.26 151.92 32.89 116.76 28.08 152.48 26.26"/><path class="cls-3" d="M140.21,164.87c6.62,2,11.27,1.06,17.28-4.31l37-41.53-4-9.34-39.25,31.6a4.14,4.14,0,0,1-5.41.9L135.39,136c-8.18-5.4-17.35-11-21-20.31,0,0-9.3-13.16-20.91-9.13,0,0-12.82,5-15.34,12.26s-1.33,12.37,4.92,11.45a9.36,9.36,0,0,0-3.38,8.16c.61,5.15,7.15,9.33,9.32,8,0,0,5.51,7.23,8.25,1.4,0,0,3.64,3.74,6.65.5C103.93,148.34,122.93,159.69,140.21,164.87Z"/><polygon class="cls-6" points="81.83 141.01 76.5 136 109.57 99.25 114.89 104.27 81.83 141.01"/><polygon class="cls-7" points="81.83 141.01 71.92 146.55 76.5 136 81.83 141.01"/><polygon points="74.42 140.81 77.32 143.54 71.92 146.55 74.42 140.81"/><path class="cls-3" d="M103.3,125.91s-7.65-2-10.81-1.27-6.73,3.7-7.15,7.09,3.45,6.75,9.07,4.68a8.25,8.25,0,0,1,3.3.51s2.81,8.86,12.2,7.12"/><path class="cls-8" d="M187.39,104.46s-22.2,16.73-34.78,29.07c-1.87,1.83-4.25,7.12-2.52,8.9,2.85,2.95,7.2,7.51,11.45,12.21,1.41,1.56,4.74,1,6.41-.46l13.31-11.8Z"/><path class="cls-8" d="M252.24,113c-12-11.86-34.19-13.53-37.07-13.69-12,4.91-21,4.23-22.76,2.95-12.87,4.73-17.23,13.45-17.23,13.45-10.19,37.93,10.19,97.39,10.19,97.39H275.8C270.71,160.08,270.54,131,252.24,113Z"/><path class="cls-3" d="M256.4,169.54a1.2,1.2,0,0,1,.81,1.16c0,7.8-1.46,11.63-1.46,11.63-4.45,9.46-15.34,23.17-23.77,29.83a4.06,4.06,0,0,1-2.55.89H166.77a4.44,4.44,0,0,1-4.3-4.61c.11-8.59,2.61-20.61,16.77-24.9,0,0,12.8-4,29.14,6.33a4,4,0,0,0,4.1.15c6.67-3.55,24.23-15.8,24.6-17.23,1.12-4.42,1.41-5.75,1.41-5.75a1.17,1.17,0,0,1,1.29-1.1A122.32,122.32,0,0,1,256.4,169.54Z"/><ellipse cx="182.08" cy="61" rx="2.72" ry="1.29" transform="translate(105.99 237.31) rotate(-85.18)"/><ellipse cx="196.25" cy="62.2" rx="2.72" ry="1.29" transform="translate(117.77 252.52) rotate(-85.18)"/><line class="cls-9" x1="189.68" y1="56.44" x2="188.12" y2="68.14"/><path class="cls-9" d="M183.62,74.87S191,78,195.5,71.11"/><path class="cls-6" d="M68.66,66.76a1.82,1.82,0,0,1-2,1.68,2.44,2.44,0,0,0-.79,4.8l3.23.45a3.08,3.08,0,0,0,3.28-2.82l1.85-13.31L70,57Z"/><path class="cls-6" d="M56.46,65a1.84,1.84,0,0,1-2,1.68,2.44,2.44,0,0,0-.79,4.8l3.23.45a3.06,3.06,0,0,0,3.28-2.82l1.85-13.31-4.25-.59Z"/><polygon class="cls-6" points="68.77 35.23 65.95 33.53 63.27 31.67 60.41 30.09 57.58 28.47 54.88 26.64 52.09 24.95 49.24 23.36 46.53 21.55 43.73 20.07 43.23 23.41 42.8 26.85 42.19 30.27 41.7 33.71 41.3 37.16 40.85 40.61 40.23 44.03 39.7 47.46 39.37 50.92 38.89 54.36 38.26 57.78 37.76 61.22 37.35 64.64 40.48 63.88 43.63 63.04 46.79 62.23 49.91 61.3 53.07 60.48 56.23 59.7 59.38 58.85 62.53 58 65.66 57.2 68.76 58.41 71.88 59.64 74.88 61.16 77.98 62.44 81.08 63.67 81.66 60.31 81.99 56.9 82.56 53.52 82.92 50.11 83.51 46.73 84.03 43.35 84.38 39.94 84.9 36.55 85.46 33.14 82.11 33.53 78.79 34.07 75.45 34.37 72.12 34.7 68.77 35.23"/><path class="cls-4" d="M62.53,42.73c-.3,2.06-1.15,4.22-3.39,3.91S56.67,44.1,57,41.94s1.69-3,3.23-2.75S62.82,40.66,62.53,42.73Z"/><path class="cls-10" d="M61,42.71c-.2,1.37-.76,2.8-2.25,2.59s-1.64-1.68-1.43-3.12a1.83,1.83,0,0,1,2.13-1.82A1.87,1.87,0,0,1,61,42.71Z"/><path class="cls-4" d="M76.78,44.75c-.29,2.07-1.14,4.23-3.39,3.91s-2.47-2.54-2.16-4.7,1.69-3,3.22-2.74S77.08,42.69,76.78,44.75Z"/><path class="cls-10" d="M75.24,44.74c-.19,1.37-.76,2.8-2.24,2.59s-1.64-1.69-1.44-3.12a1.87,1.87,0,1,1,3.68.53Z"/><polygon class="cls-4" points="44.63 68.68 80.1 70.52 79.25 76.74 48.51 72.71 44.63 68.68"/><path class="cls-11" d="M67.44,49.43a2.9,2.9,0,0,1,0,1.06c-.21,1.2-1.07,2-1.91,1.91S64.17,51.15,64.38,50a3.08,3.08,0,0,1,.31-.9"/><path class="cls-12" d="M63.76,48.56a6,6,0,0,0,4.53.74"/></g><path class="cls-9" d="M98.44,124.93a31,31,0,0,1,6.59,1.51"/><path class="cls-9" d="M89.12,136.52c.92.88,2.38.78,3.63.54s2.62-.58,3.75,0c1.38.71,1.83,2.41,2.75,3.66a7.07,7.07,0,0,0,4.36,2.55,17.83,17.83,0,0,0,5.16.08"/><path class="cls-9" d="M90.28,144.45a7.46,7.46,0,0,0,1.06-1.25,6,6,0,0,0-.16-6"/></g></svg>