<svg xmlns="http://www.w3.org/2000/svg" viewBox="0 0 340 220"><defs><style>.cls-1{fill:#d3d4d4;}.cls-2{fill:#ccf1ff;}.cls-3{fill:#27b5f7;}.cls-4{fill:#fff;}.cls-5{fill:#211815;}.cls-6,.cls-8{fill:none;stroke-linecap:round;stroke-miterlimit:10;}.cls-6{stroke:#fff;stroke-width:2.83px;}.cls-7{fill:#231815;}.cls-8{stroke:#000;stroke-width:1.57px;}.cls-9{fill:#e6e6e7;}.cls-10{fill:#f56977;}</style></defs><g id="圖"><rect class="cls-1" x="34.81" y="20.48" width="268.79" height="179.04" rx="6"/><rect class="cls-2" x="88.64" y="-15.44" width="161.13" height="250.88" rx="3" transform="translate(279.2 -59.2) rotate(90)"/><path class="cls-3" d="M182.09,130a2.43,2.43,0,0,1-2.43,2.44,3.2,3.2,0,0,0-3.21,2.76,3.07,3.07,0,0,0,3.06,3.37l4.65,0a4.1,4.1,0,0,0,4.07-4.1l-.06-16.91-6.12,0Z"/><path class="cls-3" d="M164.49,130a2.43,2.43,0,0,1-2.42,2.44,3.19,3.19,0,0,0-3.21,2.76,3.07,3.07,0,0,0,3.06,3.37l4.65,0a4.08,4.08,0,0,0,4.06-4.1l0-16.93-6.12,0Z"/><polygon class="cls-3" points="175.91 87.07 171.58 85.24 167.42 83.15 163.07 81.49 158.75 79.77 154.57 77.73 150.29 75.91 145.95 74.24 141.75 72.22 137.5 70.69 137.47 75.51 137.55 80.46 137.37 85.42 137.38 90.37 137.5 95.32 137.56 100.28 137.37 105.23 137.31 110.19 137.54 115.14 137.56 120.09 137.35 125.05 137.33 130 137.44 134.91 141.71 133.21 145.99 131.39 150.29 129.62 154.51 127.68 158.8 125.88 163.12 124.15 167.39 122.32 171.67 120.48 175.92 118.71 180.54 119.8 185.2 120.92 189.74 122.46 194.37 123.64 199.01 124.75 199.14 119.89 198.93 115.01 199.06 110.12 198.88 105.24 199.03 100.35 199.08 95.47 198.89 90.58 198.95 85.69 199.06 80.77 194.39 81.99 189.83 83.42 185.17 84.52 180.52 85.65 175.91 87.07"/><path class="cls-4" d="M168.59,98.91c0,3-.77,6.2-4,6.2s-4-3.09-4-6.2,1.8-4.53,4-4.53S168.59,95.93,168.59,98.91Z"/><path class="cls-5" d="M167.43,100.11c0,1.4-.37,2.92-1.88,2.92s-1.89-1.46-1.89-2.92A1.86,1.86,0,0,1,165.55,98,1.89,1.89,0,0,1,167.43,100.11Z"/><path class="cls-4" d="M189.13,98.91c0,3-.77,6.2-4,6.2s-4-3.09-4-6.2,1.79-4.53,4-4.53S189.13,95.93,189.13,98.91Z"/><path class="cls-5" d="M187.94,100.16c0,1.4-.36,2.92-1.88,2.92s-1.88-1.45-1.88-2.92S185,98,186.06,98A1.89,1.89,0,0,1,187.94,100.16Z"/><rect class="cls-4" x="125.52" y="151.22" width="87.37" height="21.49" rx="4"/><path class="cls-1" d="M317.77,220H20.63l11-15.88a10.69,10.69,0,0,1,8.78-4.6H298a10.66,10.66,0,0,1,8.77,4.6Z"/><rect class="cls-4" x="59.66" y="42.78" width="40.66" height="12.28" rx="2"/><line class="cls-6" x1="183.25" y1="51.47" x2="202.78" y2="51.47"/><line class="cls-6" x1="183.25" y1="46.8" x2="202.78" y2="46.8"/><line class="cls-6" x1="211.11" y1="51.47" x2="230.65" y2="51.47"/><line class="cls-6" x1="211.11" y1="46.8" x2="230.65" y2="46.8"/><line class="cls-6" x1="238.98" y1="51.47" x2="258.52" y2="51.47"/><line class="cls-6" x1="238.98" y1="46.8" x2="258.52" y2="46.8"/><rect class="cls-4" x="266.84" y="42.78" width="12.28" height="12.28" rx="2"/><path class="cls-7" d="M133.27,165.4l.64-1.34a4.18,4.18,0,0,0,2.65.88c.67,0,1.49-.31,1.49-.95s-.72-.78-1.43-1c-1.51-.34-3.06-.85-3.06-2.54s1.45-2.32,3-2.32a5.14,5.14,0,0,1,2.95.85l-.63,1.35a4.38,4.38,0,0,0-2.32-.65c-.42,0-1.22.16-1.22.77s.58.71,1.38.9c1.43.34,3.15.87,3.15,2.6s-1.69,2.51-3.31,2.51A4.74,4.74,0,0,1,133.27,165.4Z"/><path class="cls-7" d="M142.08,163.15v-4.86h1.75v4.77a1.74,1.74,0,1,0,3.48,0v-4.77h1.75v4.86a3.49,3.49,0,0,1-7,0Z"/><path class="cls-7" d="M151.52,158.29h3.81c1.33,0,2.52.56,2.52,2.1a1.77,1.77,0,0,1-.8,1.44,2,2,0,0,1,1.53,2c0,1.7-1.35,2.49-3.13,2.49h-3.93Zm3.69,3.09c.61,0,.9-.3.9-.79s-.29-.81-.94-.81h-1.91v1.6Zm.16,3.48c.83,0,1.39-.29,1.39-1s-.52-1.05-1.29-1.05h-2.21v2.07Z"/><path class="cls-7" d="M160.52,165.4l.63-1.34a4.21,4.21,0,0,0,2.66.88c.67,0,1.49-.31,1.49-.95s-.72-.78-1.43-1c-1.51-.34-3.06-.85-3.06-2.54s1.45-2.32,3-2.32a5.14,5.14,0,0,1,2.95.85l-.64,1.35a4.35,4.35,0,0,0-2.31-.65c-.43,0-1.22.16-1.22.77s.58.71,1.38.9c1.43.34,3.15.87,3.15,2.6s-1.69,2.51-3.31,2.51A4.74,4.74,0,0,1,160.52,165.4Z"/><path class="cls-7" d="M169.11,162.31a4.11,4.11,0,0,1,4.26-4.14,4.18,4.18,0,0,1,2.82,1l-1.07,1.17a2.38,2.38,0,0,0-1.65-.61,2.58,2.58,0,0,0-.07,5.16,2.53,2.53,0,0,0,1.93-.83l1.09,1.22a4.31,4.31,0,0,1-3,1.2A4.13,4.13,0,0,1,169.11,162.31Z"/><path class="cls-7" d="M178.32,158.29h3.46c2.38,0,3.62,1.4,3.62,3.13a2.87,2.87,0,0,1-1.53,2.56l1.68,2.38h-2l-1.25-1.89a5.2,5.2,0,0,1-.68.06h-1.56v1.83h-1.74Zm3.51,4.74a1.63,1.63,0,1,0,0-3.26h-1.78V163Z"/><path class="cls-7" d="M187.59,158.29h1.75v8.07h-1.75Z"/><path class="cls-7" d="M191.87,158.29h3.81c1.34,0,2.52.56,2.52,2.1a1.75,1.75,0,0,1-.8,1.44,2,2,0,0,1,1.53,2c0,1.7-1.34,2.49-3.12,2.49h-3.94Zm3.69,3.09c.61,0,.91-.3.91-.79s-.3-.81-.95-.81h-1.9v1.6Zm.16,3.48c.84,0,1.4-.29,1.4-1s-.53-1.05-1.3-1.05h-2.2v2.07Z"/><path class="cls-7" d="M201.18,158.29h6.32v1.49h-4.57v1.65h4.33v1.48h-4.33v2h4.74v1.5h-6.49Z"/><line class="cls-8" x1="43.76" y1="199.52" x2="294.64" y2="199.52"/><path class="cls-9" d="M301.11,210.86a10.65,10.65,0,0,0-8.77-4.59H46.07a10.68,10.68,0,0,0-8.78,4.59L31,220H307.43Z"/><polygon class="cls-10" points="233.12 137.56 233.22 138.37 233.77 139.19 233.99 140.11 234.02 141.09 234.52 141.93 234.69 142.87 234.9 143.79 235.46 144.6 235.65 145.53 236.03 146.4 236.2 147.34 236.43 148.26 236.61 149.2 237.07 150.04 237.54 150.89 237.63 151.85 237.99 152.73 238.21 153.66 238.42 154.59 238.92 155.43 239.04 156.39 239.42 157.28 239.89 156.43 240.34 155.58 240.79 154.74 241.35 153.96 241.89 153.16 242.45 152.38 242.65 151.38 243.18 150.57 243.75 149.77 244.35 150.58 245 151.3 245.71 151.97 246.49 152.56 247.02 153.4 247.87 153.94 248.56 154.63 249.09 155.55 249.72 154.86 250.4 154.32 250.97 153.75 250.4 153.13 249.9 152.35 249.32 151.64 248.61 151.04 248.15 150.24 247.45 149.63 246.87 148.91 246.18 148.3 245.44 147.53 246.49 147.31 247.34 146.94 248.25 146.74 249.17 146.59 250 146.17 250.86 145.8 251.86 145.89 252.68 145.39 253.63 145.17 252.66 144.92 251.85 144.35 250.92 144.12 250.02 143.81 249.14 143.44 248.29 142.99 247.26 143.01 246.46 142.42 245.48 142.32 244.69 141.72 243.79 141.42 242.9 141.07 242.03 140.66 241.11 140.41 240.2 140.12 239.24 139.95 238.36 139.57 237.54 139.04 236.62 138.77 235.72 138.44 234.81 138.15 233.86 137.95 233.12 137.56"/><line class="cls-8" x1="169.78" y1="110" x2="180.51" y2="110"/><path class="cls-4" d="M149.09,87.16h0l-2.34-5.43-2.33,5.43h0a3.86,3.86,0,0,0-.33,1.54,2.71,2.71,0,1,0,5.31,0A3.86,3.86,0,0,0,149.09,87.16Z"/></g></svg>