<?xml version="1.0" encoding="utf-8"?>
<!-- Generator: Adobe Illustrator 24.1.3, SVG Export Plug-In . SVG Version: 6.00 Build 0)  -->
<svg version="1.1" id="圖層_1" xmlns="http://www.w3.org/2000/svg" xmlns:xlink="http://www.w3.org/1999/xlink" x="0px" y="0px"
	 viewBox="0 0 592.7 120.2" style="enable-background:new 0 0 592.7 120.2;" xml:space="preserve">
<style type="text/css">
	.st0{fill:#F56977;}
	.st1{fill:#FFFFFF;}
	.st2{fill:#211815;}
	.st3{fill:#231815;}
</style>
<path d="M453.1,19.3l-0.1,0.2c-0.4,0.9-1.3,1.5-2.3,1.5h-17.3v30.2h50.7V21.1h-23.4c-0.9,0-1.5-0.9-1.1-1.7l0.1-0.2
	c0.4-0.9,1.3-1.5,2.3-1.5h25.8v-6h-11.6c-0.7,0-1.2-0.5-1.2-1.2V6.9h-6.8v3.5c0,0.7-0.5,1.2-1.2,1.2h-16.3c-0.7,0-1.2-0.5-1.2-1.2
	V6.9h-6.8v3.5c0,0.7-0.5,1.2-1.2,1.2h-11.6v6H452C452.9,17.6,453.4,18.5,453.1,19.3z M478.1,43.9c0,0.7-0.5,1.2-1.2,1.2h-35.9
	c-0.7,0-1.2-0.5-1.2-1.2v-0.1c0-0.7,0.5-1.2,1.2-1.2h35.9c0.7,0,1.2,0.5,1.2,1.2V43.9z M478.1,36.5c0,0.7-0.5,1.2-1.2,1.2h-35.9
	c-0.7,0-1.2-0.5-1.2-1.2V36c0-0.7,0.5-1.2,1.2-1.2h35.9c0.7,0,1.2,0.5,1.2,1.2V36.5z M476.9,27.2c0.7,0,1.2,0.5,1.2,1.2v0.3
	c0,0.7-0.5,1.2-1.2,1.2h-35.9c-0.7,0-1.2-0.5-1.2-1.2v-0.3c0-0.7,0.5-1.2,1.2-1.2H476.9z"/>
<path d="M419.9,24.2h7.4c0-10.2-4.4-14.6-15.2-14.6v7.2c3.8,0,4.8,0.4,6,1.5C418.9,19,419.9,19.7,419.9,24.2z"/>
<path d="M478,63.7c-0.7,0-1.2-0.5-1.2-1.2v-1c0-0.7,0.5-1.2,1.2-1.2h9.9v-6.4h-46.4c-13,0-13.3-3.9-13.3-8.2v-8.9
	c0-5.4-4.4-9.8-9.8-9.8h-7.5v7.1h6.4c2,0,3.7,1.6,3.7,3.7v6.8c0,5.7-3.1,8.4-10.2,8.4v7.2c5.6,0,9.9-1.5,12.8-4.4
	c0.5-0.5,1.2-0.5,1.7,0c4.1,3.8,10.8,4.4,16.3,4.4h27.2c0.7,0,1.2,0.5,1.2,1.2v1.1c0,0.7-0.5,1.1-1.2,1.1l-57.8,0.1v6.4h8.4
	c1,0,1.8,0.8,1.8,1.7c0.5,8.1,3.6,12.1,12.2,12.1h4.9v-6.6h-4.5c-4,0-5.1-2.8-5.4-5.9c-0.1-0.7,0.5-1.3,1.2-1.3h39.2
	c0.7,0,1.2,0.5,1.2,1.2v2.2c0,2-1.6,3.7-3.7,3.7l-17.6,0v6.7l19.5,0c4.7,0,8.5-3.8,8.5-8.5v-4c0-0.7,0.5-1.2,1.2-1.2h10.3v-6.5H478z
	"/>
<path d="M390.6,69.6c-0.6-0.7-0.7-1.8-0.2-2.6c4.5-6.8,8.5-19.5,8.8-28.7l0.1-3.7h-28.9c-0.7,0-1.2-0.5-1.2-1.2v-16
	c0-0.7,0.5-1.2,1.2-1.2h18.9c0.7,0,1.2,0.5,1.2,1.2V20c0,2-1.6,3.7-3.7,3.7h-11v7.2h12.1c5.4,0,9.8-4.4,9.8-9.8V9.2h-36.1V84h7.3
	l0-40.9c0-0.6,0.5-1.1,1.1-1.1c0.6,0,1.1,0.4,1.1,1c0.7,7.8,3.5,17.6,8.1,24.4c0.6,0.9,0.5,2-0.2,2.8c-3.1,3.5-6.1,5.9-9.3,7.9
	l3.2,6c3.6-2.2,7.9-5.6,11.3-9.5c0.5-0.5,1.3-0.5,1.8,0c3.6,3.9,6.9,6.9,10.4,9.5l4.1-5.6C397.1,75.9,393.9,73.2,390.6,69.6z
	 M385.8,61.6c-0.5,0.8-1.6,0.8-2.1,0c-2.5-4.2-5-12.4-5.7-18.7c-0.1-0.7,0.5-1.3,1.2-1.3h11.4c0.7,0,1.3,0.7,1.2,1.4
	C390.8,49.5,388.3,57.3,385.8,61.6z"/>
<path d="M344.7,62.7v-4.8c0-0.7,0.5-1.2,1.2-1.2h13.3v-6.8h-5.8c-0.7,0-1.3-0.6-1.2-1.3l1.2-11.3c0.1-0.6,0.6-1.1,1.2-1.1h4.7v-7
	h-13.4c-0.7,0-1.2-0.5-1.2-1.2v-6.2c0-0.7,0.5-1.2,1.2-1.2h12.9v-6.7h-12.9c-0.7,0-1.2-0.5-1.2-1.2V6.4h-7.7v6.1
	c0,0.7-0.5,1.2-1.2,1.2h-11.9v6.7h11.9c0.7,0,1.2,0.5,1.2,1.2v6.2c0,0.7-0.5,1.2-1.2,1.2h-13.3v7h4.8c0.6,0,1.2,0.5,1.2,1.1
	l1.1,11.3c0.1,0.7-0.5,1.3-1.2,1.3h-5.9v6.8h13.4c0.7,0,1.2,0.5,1.2,1.2v4.8c0,0.7-0.5,1.2-1.2,1.2h-12.3v6.8h12.3
	c0.7,0,1.2,0.5,1.2,1.2v12.2h7.7V72c0-0.7,0.5-1.2,1.2-1.2h13.4v-6.8h-13.4C345.3,63.9,344.7,63.4,344.7,62.7z M343.6,49.8h-5.4
	c-0.6,0-1.2-0.5-1.2-1.1l-1.1-11.3c-0.1-0.7,0.5-1.3,1.2-1.3h7.7c0.7,0,1.3,0.6,1.2,1.3l-1.2,11.3C344.7,49.3,344.2,49.8,343.6,49.8
	z"/>
<path d="M531.5,42.9c4.5-1.8,8.9-4,13.3-6.4c1-0.5,2-0.8,3.1-0.8h27.4v-7l-17.8,0c-0.6,0-0.8-0.8-0.3-1.1
	c7.2-5.1,11.9-9.6,17.8-16.6l-6.1-4.6c-1.1,1.4-2.4,2.8-3.6,4.2c-0.7,0.8-1.7,1.2-2.7,1.2h-21.9c-0.7,0-1.2-0.5-1.2-1.2V6.4h-7.7
	v4.3c0,0.7-0.5,1.2-1.2,1.2h-24.9v7h24.8c0.7,0,1.2,0.5,1.2,1.2v7.5c0,0.7-0.5,1.2-1.2,1.2h-32.8v7h29.8c0.7,0,0.8,0.9,0.2,1.2
	c-10.5,4.2-22.4,7.3-31.9,8.5l0.8,7.1c2.9-0.3,5.5-0.8,8.6-1.5c0.8-0.2,1.5,0.4,1.5,1.2l0,32.8h7.6v-2c0-0.7,0.5-1.2,1.2-1.2h47.2
	c0.7,0,1.2,0.5,1.2,1.2v2h7.3V44h-39.3C531.1,44,530.9,43.1,531.5,42.9z M539.5,20.1c0-0.7,0.5-1.2,1.2-1.2H556
	c0.6,0,0.8,0.7,0.4,1.1c-4,3.2-7.8,5.1-12.6,7.9c-1,0.6-1.9,0.8-3,0.9c-0.7,0-1.2-0.6-1.2-1.2V20.1z M563.8,73.6
	c0,0.7-0.5,1.2-1.2,1.2h-47.2c-0.7,0-1.2-0.5-1.2-1.2v-6.3c0-0.7,0.5-1.2,1.2-1.2h47.2c0.7,0,1.2,0.5,1.2,1.2V73.6z M562.5,51.1
	c0.7,0,1.2,0.5,1.2,1.2v5.3c0,0.7-0.5,1.2-1.2,1.2h-47.2c-0.7,0-1.2-0.5-1.2-1.2v-5.3c0-0.7,0.5-1.2,1.2-1.2H562.5z"/>
<path d="M289.1,63c-0.7,0-1.2-0.5-1.2-1.2v-21c0-0.7,0.5-1.2,1.2-1.2h21.3v-7.6h-21.3c-0.7,0-1.2-0.5-1.2-1.2V21
	c0-0.7,0.5-1.2,1.2-1.2h23.2v-7.6h-55.4c-0.7,0-1.3-0.7-1.2-1.4c0.4-2.6,0.4-4.4,0.4-4.6h-8.2c0,0,0,4.6-1.6,9.1
	c-1.9,5.4-4.7,6.3-9.4,6.6v8.2c6.1,0,12.6-2.7,15.8-8.5c0.6-1.2,1.8-1.9,3.1-1.9l22.4,0c0.7,0,1.2,0.5,1.2,1.2v9.7
	c0,0.7-0.5,1.2-1.2,1.2h-21.8c-5.4,0-9.8,4.4-9.8,9.8v20.1c0,0.7-0.5,1.2-1.2,1.2h-9.9v7.7h42.7c0.7,0,1.2,0.5,1.2,1.2v13h8.5v-13
	c0-0.7,0.5-1.2,1.2-1.2h24.5V63H289.1z M279.3,61.8c0,0.7-0.5,1.2-1.2,1.2h-22c-0.7,0-1.2-0.5-1.2-1.2V43.2c0-2,1.6-3.7,3.7-3.7
	h19.6c0.7,0,1.2,0.5,1.2,1.2V61.8z"/>
<path d="M208.7,13.5l-6.5,5c1.8,1.9,3.9,4.7,6.1,7.9c1.5,2.2,2.3,4.7,2.2,7.4c-0.2,5.3-1.2,10.6-3.5,16.5
	c-3.7,9.3-8.7,14.3-18.9,19.3c-10.6,5.1-24.6,5.6-35.5,5.6v8.3c11.5,0,26.2-0.5,38.1-5.6c19-8.1,24.9-22.4,26.7-34.9
	c0.2-1.1,1.7-1.4,2.3-0.4c1.9,3.2,3.4,6,4.3,7.8l7.1-3.2C227.7,40.2,215.7,20.7,208.7,13.5z"/>
<path d="M167.9,59.7h15.5c5.4,0,9.8-4.4,9.8-9.8V6.5h-8.7v41.3c0,2-1.6,3.7-3.7,3.7h-13V59.7z"/>
<path d="M173,17.5l-8-2.4c-3,10.8-8.2,20.3-16.9,30.6l6.7,5C164.1,39.5,169.7,29.3,173,17.5z"/>
<path d="M159.1,103.9v15.9h4.2v-15.9c0-1,0.8-1.8,1.8-1.8h5.6v-3.5h-18.9v3.5h5.6C158.3,102.1,159.1,102.9,159.1,103.9z"/>
<path d="M181,107.1c-1,0-1.8-0.8-1.8-1.8v-6.7H175v21.2h4.2v-7.4c0-1,0.8-1.8,1.8-1.8h6.3c1,0,1.8,0.8,1.8,1.8v7.4h4.2V98.6H189v6.7
	c0,1-0.8,1.8-1.8,1.8H181z"/>
<path d="M203.2,114.5v-2.2c0-1,0.8-1.8,1.8-1.8h9.9v-3.5H205c-1,0-1.8-0.8-1.8-1.8v-1.4c0-1,0.8-1.8,1.8-1.8h10.5v-3.5h-16.5v21.2
	H216v-3.5h-11C204,116.3,203.2,115.5,203.2,114.5z"/>
<path d="M244.2,113.7c0.1-0.3,0.2-0.5,0.4-0.7c2.1-1.4,3.3-3.7,3.3-6.3c0-4.9-3.7-8.1-9.5-8.1h-9v21.2h4.2v-3.2c0-1,0.8-1.8,1.8-1.8
	h2.7c0.3,0,0.6,0,0.9,0c0.7-0.1,1.3,0.2,1.7,0.8l2.8,4.2h4.7l-3.8-5.3C244.2,114.3,244.1,114,244.2,113.7z M238.6,111.4h-3.3
	c-1,0-1.8-0.8-1.8-1.8v-5.8c0-1,0.8-1.8,1.8-1.8h3.3c2.8,0,4.9,2,4.9,4.7C243.5,109.4,241.4,111.4,238.6,111.4z"/>
<path d="M257.3,114.5v-2.2c0-1,0.8-1.8,1.8-1.8h9.9v-3.5h-9.9c-1,0-1.8-0.8-1.8-1.8v-1.4c0-1,0.8-1.8,1.8-1.8h10.5v-3.5h-16.5v21.2
	h16.9v-3.5h-11C258.1,116.3,257.3,115.5,257.3,114.5z"/>
<path d="M275.3,98.6v21.2h4.2v-3.2c0-1,0.8-1.8,1.8-1.8h3.1c5.8,0,9.5-3.2,9.5-8.1c0-4.9-3.7-8.1-9.4-8.1H275.3z M289.4,106.7
	c0,2.7-2,4.6-4.9,4.6h-3.3c-1,0-1.8-0.8-1.8-1.8v-5.7c0-1,0.8-1.8,1.8-1.8h3.4C287.4,102.1,289.4,104.1,289.4,106.7z"/>
<path d="M308.6,98.3c-6.4,0-11.2,4.7-11.2,10.9c0,6.2,4.8,11,11.2,11s11.2-4.7,11.2-11C319.8,103,315,98.3,308.6,98.3z M308.6,116.4
	c-3.9,0-6.9-3.1-6.9-7.2c0-4,3-7.2,6.9-7.2c3.9,0,6.8,3.1,6.8,7.2C315.5,113.3,312.5,116.4,308.6,116.4z"/>
<path d="M339.4,113.7c0.1-0.3,0.2-0.5,0.4-0.7c2.1-1.4,3.3-3.7,3.3-6.3c0-4.9-3.7-8.1-9.5-8.1h-9v21.2h4.2v-3.2c0-1,0.8-1.8,1.8-1.8
	h2.7c0.3,0,0.6,0,0.9,0c0.7-0.1,1.3,0.2,1.7,0.8l2.8,4.2h4.7l-3.8-5.3C339.4,114.3,339.4,114,339.4,113.7z M333.9,111.4h-3.3
	c-1,0-1.8-0.8-1.8-1.8v-5.8c0-1,0.8-1.8,1.8-1.8h3.3c2.8,0,4.9,2,4.9,4.7C338.8,109.4,336.7,111.4,333.9,111.4z"/>
<path d="M353.4,103.9v15.9h4.2v-15.9c0-1,0.8-1.8,1.8-1.8h5.6v-3.5h-18.9v3.5h5.6C352.6,102.1,353.4,102.9,353.4,103.9z"/>
<path d="M373.8,114.5v-2.2c0-1,0.8-1.8,1.8-1.8h9.9v-3.5h-9.9c-1,0-1.8-0.8-1.8-1.8v-1.4c0-1,0.8-1.8,1.8-1.8h10.5v-3.5h-16.5v21.2
	h16.9v-3.5h-11C374.6,116.3,373.8,115.5,373.8,114.5z"/>
<path d="M406,113.7c0.1-0.3,0.2-0.5,0.4-0.7c2.1-1.4,3.3-3.7,3.3-6.3c0-4.9-3.7-8.1-9.5-8.1h-9v21.2h4.2v-3.2c0-1,0.8-1.8,1.8-1.8
	h2.7c0.3,0,0.6,0,0.9,0c0.7-0.1,1.3,0.2,1.7,0.8l2.8,4.2h4.7l-3.8-5.3C406.1,114.3,406,114,406,113.7z M400.5,111.4h-3.3
	c-1,0-1.8-0.8-1.8-1.8v-5.8c0-1,0.8-1.8,1.8-1.8h3.3c2.8,0,4.9,2,4.9,4.7C405.4,109.4,403.3,111.4,400.5,111.4z"/>
<path d="M428.8,110.5h8.1v-3.5h-8.1c-1,0-1.8-0.8-1.8-1.8v-1.4c0-1,0.8-1.8,1.8-1.8h9.8v-3.5h-15.7v21.2h4.2v-7.5
	C427.1,111.3,427.9,110.5,428.8,110.5z"/>
<path d="M452.5,98.3c-6.4,0-11.2,4.7-11.2,10.9c0,6.2,4.8,11,11.2,11c6.4,0,11.2-4.7,11.2-11C463.7,103,458.9,98.3,452.5,98.3z
	 M452.5,116.4c-3.9,0-6.9-3.1-6.9-7.2c0-4,3-7.2,6.9-7.2c3.9,0,6.8,3.1,6.8,7.2C459.3,113.3,456.4,116.4,452.5,116.4z"/>
<path d="M482.5,113.7c0.1-0.3,0.2-0.5,0.4-0.7c2.1-1.4,3.3-3.7,3.3-6.3c0-4.9-3.7-8.1-9.5-8.1h-9v21.2h4.2v-3.2c0-1,0.8-1.8,1.8-1.8
	h2.7c0.3,0,0.6,0,0.9,0c0.7-0.1,1.3,0.2,1.7,0.8l2.8,4.2h4.7l-3.8-5.3C482.5,114.3,482.4,114,482.5,113.7z M476.9,111.4h-3.3
	c-1,0-1.8-0.8-1.8-1.8v-5.8c0-1,0.8-1.8,1.8-1.8h3.3c2.8,0,4.9,2,4.9,4.7C481.8,109.4,479.7,111.4,476.9,111.4z"/>
<path d="M512.1,107.1l6.5-8.5h-4.8l-6.9,9.1c-0.3,0.3-0.5,0.7-0.8,1.1c-0.2,0.3-0.6,0.4-0.9,0.3c-0.3-0.1-0.6-0.4-0.6-0.8v-9.7h-4.2
	v21.2h4.2v-2.4c0-0.8,0.3-1.5,0.7-2.1l1.8-2.2c0.3-0.4,0.8-0.7,1.4-0.6c0.5,0,1,0.3,1.4,0.7l4.7,6.6h4.9l-7.4-10.3
	C511.5,108.8,511.5,107.8,512.1,107.1z"/>
<rect x="523.6" y="98.6" width="4.2" height="21.2"/>
<path d="M534.3,98.6v21.2h8.3c6.5,0,11.2-4.5,11.2-10.6s-4.7-10.6-11.2-10.6H534.3z M549.4,109.2c0,4.1-2.8,7-6.9,7h-2
	c-1.1,0-2-0.9-2-2v-10c0-1.1,0.9-2,2-2h2C546.5,102.2,549.4,105.1,549.4,109.2z"/>
<path d="M564.7,106.9c-2.1-0.5-3.8-1-3.8-2.5c0-1.8,2.2-2.2,3.4-2.2c2.2,0,4.3,0.6,6,1.6l1.5-3.2c-2.3-1.5-4.6-2.1-7.5-2.1
	c-5.3,0-7.7,3-7.7,5.9c0,4.3,4.1,5.6,7.9,6.5l0.1,0c1.9,0.5,3.8,0.9,3.8,2.7c0,1.7-2.1,2.7-4.1,2.7c-3.3,0-5.3-1.1-6.9-2.2l-1.5,3.2
	c1.2,0.9,3.6,2.7,8.4,2.7c4.2,0,8.5-2,8.5-6.4C572.8,109.4,568.9,107.9,564.7,106.9z"/>
<path class="st0" d="M130.7,78.3l0.2-8.6l-0.3-8.6l0.3-8.6l0.1-8.6l-0.3-8.6l0.1-8.6l0.2-8.7l-8.2,2.2l-8.1,2.5l-8.2,1.9l-8.2,2
	L90,28.9l-7.6-3.2L75,22l-7.7-2.9l-7.6-3l-7.4-3.6l-7.6-3.2l-7.7-3l-7.4-3.6L22.2,0l-0.1,8.5l0.1,8.7L22,26l0,8.7l0.2,8.7l0.1,8.7
	L22,61l-0.1,8.7l0.4,8.7l0,8.7L21.9,96l0,8.8l0.2,8.7l7.5-3l7.6-3.2l7.6-3.1l7.5-3.4l7.6-3.2l7.6-3.1l2.4-1l0,11.3
	c0,2.4-1.9,4.3-4.3,4.3c-2.8,0-5.4,2.1-5.7,4.9c-0.3,3.2,2.2,6,5.4,5.9l8.2,0c4,0,7.2-3.3,7.2-7.2l-0.1-23.8l1.9-0.8l7.5-3.1
	l8.2,1.9l2.7,0.6l0.1,17.3c0,2.4-1.9,4.3-4.3,4.3c-2.8,0-5.4,2.1-5.7,4.9c-0.3,3.2,2.2,6,5.4,5.9l8.2,0c4,0,7.2-3.3,7.2-7.2l-0.1-22
	l2.7,0.9l8.2,2.1l8.2,2l0.2-8.6L130.7,78.3z"/>
<g>
	<g>
		<g>
			<g>
				<g>
					<path class="st1" d="M77.1,49.8c0,5.3-1.4,11-7.1,11c-5.7,0-7.1-5.5-7.1-11s3.2-8,7.1-8C73.9,41.8,77.1,44.6,77.1,49.8z"/>
				</g>
				<g>
					<path class="st2" d="M74.7,50.3c0,3.5-0.9,7.3-4.7,7.3s-4.7-3.6-4.7-7.3c0-3.6,2.1-5.3,4.7-5.3C72.6,45,74.7,46.8,74.7,50.3z"
						/>
				</g>
			</g>
			<g>
				<g>
					<path class="st1" d="M113.4,49.8c0,5.3-1.4,11-7.1,11s-7.1-5.5-7.1-11s3.2-8,7.1-8C110.2,41.8,113.4,44.6,113.4,49.8z"/>
				</g>
				<g>
					<path class="st2" d="M111,50.3c0,3.5-0.9,7.3-4.7,7.3s-4.7-3.6-4.7-7.3c0-3.6,2.1-5.3,4.7-5.3C108.9,45,111,46.8,111,50.3z"/>
				</g>
			</g>
		</g>
	</g>
</g>
<path class="st3" d="M88.2,71.7c-5.4,0-8.2-3.8-8.3-3.9c-0.4-0.6-0.3-1.4,0.3-1.8c0.6-0.4,1.4-0.3,1.8,0.3c0.1,0.1,2.2,2.9,6.3,2.9
	c4,0,6.2-2.8,6.3-2.9c0.4-0.6,1.2-0.7,1.8-0.3c0.6,0.4,0.7,1.2,0.3,1.8C96.4,67.9,93.5,71.7,88.2,71.7z"/>
</svg>
