<?xml version="1.0" encoding="utf-8"?>
<!-- Generator: Adobe Illustrator 24.1.3, SVG Export Plug-In . SVG Version: 6.00 Build 0)  -->
<svg version="1.1" xmlns="http://www.w3.org/2000/svg" xmlns:xlink="http://www.w3.org/1999/xlink" x="0px" y="0px"
	 viewBox="0 0 592.7 203.7" style="enable-background:new 0 0 592.7 203.7;" xml:space="preserve">
<style type="text/css">
	.st0{fill:#F56977;}
	.st1{fill:#FFFFFF;}
	.st2{fill:#211815;}
	.st3{fill:#231815;}
	.st4{fill:#232323;}
</style>
<g id="圖層_1">
	<path d="M453.1,19.3l-0.1,0.2c-0.4,0.9-1.3,1.5-2.3,1.5h-17.3v30.2h50.7V21.1h-23.4c-0.9,0-1.5-0.9-1.1-1.7l0.1-0.2
		c0.4-0.9,1.3-1.5,2.3-1.5h25.8v-6h-11.6c-0.7,0-1.2-0.5-1.2-1.2V6.9h-6.8v3.5c0,0.7-0.5,1.2-1.2,1.2h-16.3c-0.7,0-1.2-0.5-1.2-1.2
		V6.9h-6.8v3.5c0,0.7-0.5,1.2-1.2,1.2h-11.6v6H452C452.9,17.6,453.4,18.5,453.1,19.3z M478.1,43.9c0,0.7-0.5,1.2-1.2,1.2H441
		c-0.7,0-1.2-0.5-1.2-1.2v-0.1c0-0.7,0.5-1.2,1.2-1.2h35.9C477.6,42.6,478.1,43.1,478.1,43.9L478.1,43.9z M478.1,36.5
		c0,0.7-0.5,1.2-1.2,1.2H441c-0.7,0-1.2-0.5-1.2-1.2V36c0-0.7,0.5-1.2,1.2-1.2h35.9c0.7,0,1.2,0.5,1.2,1.2V36.5z M476.9,27.2
		c0.7,0,1.2,0.5,1.2,1.2v0.3c0,0.7-0.5,1.2-1.2,1.2H441c-0.7,0-1.2-0.5-1.2-1.2v-0.3c0-0.7,0.5-1.2,1.2-1.2H476.9z"/>
	<path d="M419.9,24.2h7.4c0-10.2-4.4-14.6-15.2-14.6v7.2c3.8,0,4.8,0.4,6,1.5C418.9,19,419.9,19.7,419.9,24.2z"/>
	<path d="M478,63.7c-0.7,0-1.2-0.5-1.2-1.2v-1c0-0.7,0.5-1.2,1.2-1.2h9.9v-6.4h-46.4c-13,0-13.3-3.9-13.3-8.2v-8.9
		c0-5.4-4.4-9.8-9.8-9.8h-7.5v7.1h6.4c2,0,3.7,1.6,3.7,3.7v6.8c0,5.7-3.1,8.4-10.2,8.4v7.2c5.6,0,9.9-1.5,12.8-4.4
		c0.5-0.5,1.2-0.5,1.7,0c4.1,3.8,10.8,4.4,16.3,4.4h27.2c0.7,0,1.2,0.5,1.2,1.2v1.1c0,0.7-0.5,1.1-1.2,1.1L411,63.7v6.4h8.4
		c1,0,1.8,0.8,1.8,1.7c0.5,8.1,3.6,12.1,12.2,12.1h4.9v-6.6h-4.5c-4,0-5.1-2.8-5.4-5.9c-0.1-0.7,0.5-1.3,1.2-1.3h39.2
		c0.7,0,1.2,0.5,1.2,1.2v2.2c0,2-1.6,3.7-3.7,3.7h-17.6v6.7h19.5c4.7,0,8.5-3.8,8.5-8.5v-4c0-0.7,0.5-1.2,1.2-1.2h10.3v-6.5
		L478,63.7L478,63.7z"/>
	<path d="M390.6,69.6c-0.6-0.7-0.7-1.8-0.2-2.6c4.5-6.8,8.5-19.5,8.8-28.7l0.1-3.7h-28.9c-0.7,0-1.2-0.5-1.2-1.2v-16
		c0-0.7,0.5-1.2,1.2-1.2h18.9c0.7,0,1.2,0.5,1.2,1.2V20c0,2-1.6,3.7-3.7,3.7h-11v7.2h12.1c5.4,0,9.8-4.4,9.8-9.8V9.2h-36.1V84h7.3
		V43.1c0-0.6,0.5-1.1,1.1-1.1s1.1,0.4,1.1,1c0.7,7.8,3.5,17.6,8.1,24.4c0.6,0.9,0.5,2-0.2,2.8c-3.1,3.5-6.1,5.9-9.3,7.9l3.2,6
		c3.6-2.2,7.9-5.6,11.3-9.5c0.5-0.5,1.3-0.5,1.8,0c3.6,3.9,6.9,6.9,10.4,9.5l4.1-5.6C397.1,75.9,393.9,73.2,390.6,69.6z M385.8,61.6
		c-0.5,0.8-1.6,0.8-2.1,0c-2.5-4.2-5-12.4-5.7-18.7c-0.1-0.7,0.5-1.3,1.2-1.3h11.4c0.7,0,1.3,0.7,1.2,1.4
		C390.8,49.5,388.3,57.3,385.8,61.6z"/>
	<path d="M344.7,62.7v-4.8c0-0.7,0.5-1.2,1.2-1.2h13.3v-6.8h-5.8c-0.7,0-1.3-0.6-1.2-1.3l1.2-11.3c0.1-0.6,0.6-1.1,1.2-1.1h4.7v-7
		h-13.4c-0.7,0-1.2-0.5-1.2-1.2v-6.2c0-0.7,0.5-1.2,1.2-1.2h12.9v-6.7h-12.9c-0.7,0-1.2-0.5-1.2-1.2V6.4H337v6.1
		c0,0.7-0.5,1.2-1.2,1.2h-11.9v6.7h11.9c0.7,0,1.2,0.5,1.2,1.2v6.2c0,0.7-0.5,1.2-1.2,1.2h-13.3v7h4.8c0.6,0,1.2,0.5,1.2,1.1
		l1.1,11.3c0.1,0.7-0.5,1.3-1.2,1.3h-5.9v6.8h13.4c0.7,0,1.2,0.5,1.2,1.2v4.8c0,0.7-0.5,1.2-1.2,1.2h-12.3v6.8h12.3
		c0.7,0,1.2,0.5,1.2,1.2v12.2h7.7V72c0-0.7,0.5-1.2,1.2-1.2h13.4V64H346C345.3,63.9,344.7,63.4,344.7,62.7z M343.6,49.8h-5.4
		c-0.6,0-1.2-0.5-1.2-1.1l-1.1-11.3c-0.1-0.7,0.5-1.3,1.2-1.3h7.7c0.7,0,1.3,0.6,1.2,1.3l-1.2,11.3
		C344.7,49.3,344.2,49.8,343.6,49.8z"/>
	<path d="M531.5,42.9c4.5-1.8,8.9-4,13.3-6.4c1-0.5,2-0.8,3.1-0.8h27.4v-7h-17.8c-0.6,0-0.8-0.8-0.3-1.1c7.2-5.1,11.9-9.6,17.8-16.6
		l-6.1-4.6c-1.1,1.4-2.4,2.8-3.6,4.2c-0.7,0.8-1.7,1.2-2.7,1.2h-21.9c-0.7,0-1.2-0.5-1.2-1.2V6.4h-7.7v4.3c0,0.7-0.5,1.2-1.2,1.2
		h-24.9v7h24.8c0.7,0,1.2,0.5,1.2,1.2v7.5c0,0.7-0.5,1.2-1.2,1.2h-32.8v7h29.8c0.7,0,0.8,0.9,0.2,1.2c-10.5,4.2-22.4,7.3-31.9,8.5
		l0.8,7.1c2.9-0.3,5.5-0.8,8.6-1.5c0.8-0.2,1.5,0.4,1.5,1.2v32.8h7.6v-2c0-0.7,0.5-1.2,1.2-1.2h47.2c0.7,0,1.2,0.5,1.2,1.2v2h7.3V44
		h-39.3C531.1,44,530.9,43.1,531.5,42.9z M539.5,20.1c0-0.7,0.5-1.2,1.2-1.2H556c0.6,0,0.8,0.7,0.4,1.1c-4,3.2-7.8,5.1-12.6,7.9
		c-1,0.6-1.9,0.8-3,0.9c-0.7,0-1.2-0.6-1.2-1.2v-7.5H539.5z M563.8,73.6c0,0.7-0.5,1.2-1.2,1.2h-47.2c-0.7,0-1.2-0.5-1.2-1.2v-6.3
		c0-0.7,0.5-1.2,1.2-1.2h47.2c0.7,0,1.2,0.5,1.2,1.2V73.6z M562.5,51.1c0.7,0,1.2,0.5,1.2,1.2v5.3c0,0.7-0.5,1.2-1.2,1.2h-47.2
		c-0.7,0-1.2-0.5-1.2-1.2v-5.3c0-0.7,0.5-1.2,1.2-1.2H562.5z"/>
	<path d="M289.1,63c-0.7,0-1.2-0.5-1.2-1.2v-21c0-0.7,0.5-1.2,1.2-1.2h21.3V32h-21.3c-0.7,0-1.2-0.5-1.2-1.2V21
		c0-0.7,0.5-1.2,1.2-1.2h23.2v-7.6h-55.4c-0.7,0-1.3-0.7-1.2-1.4c0.4-2.6,0.4-4.4,0.4-4.6h-8.2c0,0,0,4.6-1.6,9.1
		c-1.9,5.4-4.7,6.3-9.4,6.6v8.2c6.1,0,12.6-2.7,15.8-8.5c0.6-1.2,1.8-1.9,3.1-1.9h22.4c0.7,0,1.2,0.5,1.2,1.2v9.7
		c0,0.7-0.5,1.2-1.2,1.2h-21.8c-5.4,0-9.8,4.4-9.8,9.8v20.1c0,0.7-0.5,1.2-1.2,1.2h-9.9v7.7h42.7c0.7,0,1.2,0.5,1.2,1.2v13h8.5v-13
		c0-0.7,0.5-1.2,1.2-1.2h24.5V63H289.1z M279.3,61.8c0,0.7-0.5,1.2-1.2,1.2h-22c-0.7,0-1.2-0.5-1.2-1.2V43.2c0-2,1.6-3.7,3.7-3.7
		h19.6c0.7,0,1.2,0.5,1.2,1.2v21.1H279.3z"/>
	<path d="M208.7,13.5l-6.5,5c1.8,1.9,3.9,4.7,6.1,7.9c1.5,2.2,2.3,4.7,2.2,7.4c-0.2,5.3-1.2,10.6-3.5,16.5
		c-3.7,9.3-8.7,14.3-18.9,19.3c-10.6,5.1-24.6,5.6-35.5,5.6v8.3c11.5,0,26.2-0.5,38.1-5.6c19-8.1,24.9-22.4,26.7-34.9
		c0.2-1.1,1.7-1.4,2.3-0.4c1.9,3.2,3.4,6,4.3,7.8l7.1-3.2C227.7,40.2,215.7,20.7,208.7,13.5z"/>
	<path d="M167.9,59.7h15.5c5.4,0,9.8-4.4,9.8-9.8V6.5h-8.7v41.3c0,2-1.6,3.7-3.7,3.7h-13L167.9,59.7L167.9,59.7z"/>
	<path d="M173,17.5l-8-2.4c-3,10.8-8.2,20.3-16.9,30.6l6.7,5C164.1,39.5,169.7,29.3,173,17.5z"/>
	<path d="M159.1,103.9v15.9h4.2v-15.9c0-1,0.8-1.8,1.8-1.8h5.6v-3.5h-18.9v3.5h5.6C158.3,102.1,159.1,102.9,159.1,103.9z"/>
	<path d="M181,107.1c-1,0-1.8-0.8-1.8-1.8v-6.7H175v21.2h4.2v-7.4c0-1,0.8-1.8,1.8-1.8h6.3c1,0,1.8,0.8,1.8,1.8v7.4h4.2V98.6H189
		v6.7c0,1-0.8,1.8-1.8,1.8H181z"/>
	<path d="M203.2,114.5v-2.2c0-1,0.8-1.8,1.8-1.8h9.9V107H205c-1,0-1.8-0.8-1.8-1.8v-1.4c0-1,0.8-1.8,1.8-1.8h10.5v-3.5H199v21.2h17
		v-3.5h-11C204,116.3,203.2,115.5,203.2,114.5z"/>
	<path d="M244.2,113.7c0.1-0.3,0.2-0.5,0.4-0.7c2.1-1.4,3.3-3.7,3.3-6.3c0-4.9-3.7-8.1-9.5-8.1h-9v21.2h4.2v-3.2
		c0-1,0.8-1.8,1.8-1.8h2.7c0.3,0,0.6,0,0.9,0c0.7-0.1,1.3,0.2,1.7,0.8l2.8,4.2h4.7l-3.8-5.3C244.2,114.3,244.1,114,244.2,113.7z
		 M238.6,111.4h-3.3c-1,0-1.8-0.8-1.8-1.8v-5.8c0-1,0.8-1.8,1.8-1.8h3.3c2.8,0,4.9,2,4.9,4.7C243.5,109.4,241.4,111.4,238.6,111.4z"
		/>
	<path d="M257.3,114.5v-2.2c0-1,0.8-1.8,1.8-1.8h9.9V107h-9.9c-1,0-1.8-0.8-1.8-1.8v-1.4c0-1,0.8-1.8,1.8-1.8h10.5v-3.5h-16.5v21.2
		H270v-3.5h-11C258.1,116.3,257.3,115.5,257.3,114.5z"/>
	<path d="M275.3,98.6v21.2h4.2v-3.2c0-1,0.8-1.8,1.8-1.8h3.1c5.8,0,9.5-3.2,9.5-8.1s-3.7-8.1-9.4-8.1
		C284.5,98.6,275.3,98.6,275.3,98.6z M289.4,106.7c0,2.7-2,4.6-4.9,4.6h-3.3c-1,0-1.8-0.8-1.8-1.8v-5.7c0-1,0.8-1.8,1.8-1.8h3.4
		C287.4,102.1,289.4,104.1,289.4,106.7z"/>
	<path d="M308.6,98.3c-6.4,0-11.2,4.7-11.2,10.9c0,6.2,4.8,11,11.2,11s11.2-4.7,11.2-11C319.8,103,315,98.3,308.6,98.3z
		 M308.6,116.4c-3.9,0-6.9-3.1-6.9-7.2c0-4,3-7.2,6.9-7.2s6.8,3.1,6.8,7.2C315.5,113.3,312.5,116.4,308.6,116.4z"/>
	<path d="M339.4,113.7c0.1-0.3,0.2-0.5,0.4-0.7c2.1-1.4,3.3-3.7,3.3-6.3c0-4.9-3.7-8.1-9.5-8.1h-9v21.2h4.2v-3.2
		c0-1,0.8-1.8,1.8-1.8h2.7c0.3,0,0.6,0,0.9,0c0.7-0.1,1.3,0.2,1.7,0.8l2.8,4.2h4.7l-3.8-5.3C339.4,114.3,339.4,114,339.4,113.7z
		 M333.9,111.4h-3.3c-1,0-1.8-0.8-1.8-1.8v-5.8c0-1,0.8-1.8,1.8-1.8h3.3c2.8,0,4.9,2,4.9,4.7C338.8,109.4,336.7,111.4,333.9,111.4z"
		/>
	<path d="M353.4,103.9v15.9h4.2v-15.9c0-1,0.8-1.8,1.8-1.8h5.6v-3.5h-18.9v3.5h5.6C352.6,102.1,353.4,102.9,353.4,103.9z"/>
	<path d="M373.8,114.5v-2.2c0-1,0.8-1.8,1.8-1.8h9.9V107h-9.9c-1,0-1.8-0.8-1.8-1.8v-1.4c0-1,0.8-1.8,1.8-1.8h10.5v-3.5h-16.5v21.2
		h16.9v-3.5h-11C374.6,116.3,373.8,115.5,373.8,114.5z"/>
	<path d="M406,113.7c0.1-0.3,0.2-0.5,0.4-0.7c2.1-1.4,3.3-3.7,3.3-6.3c0-4.9-3.7-8.1-9.5-8.1h-9v21.2h4.2v-3.2c0-1,0.8-1.8,1.8-1.8
		h2.7c0.3,0,0.6,0,0.9,0c0.7-0.1,1.3,0.2,1.7,0.8l2.8,4.2h4.7l-3.8-5.3C406.1,114.3,406,114,406,113.7z M400.5,111.4h-3.3
		c-1,0-1.8-0.8-1.8-1.8v-5.8c0-1,0.8-1.8,1.8-1.8h3.3c2.8,0,4.9,2,4.9,4.7C405.4,109.4,403.3,111.4,400.5,111.4z"/>
	<path d="M428.8,110.5h8.1V107h-8.1c-1,0-1.8-0.8-1.8-1.8v-1.4c0-1,0.8-1.8,1.8-1.8h9.8v-3.5h-15.7v21.2h4.2v-7.5
		C427.1,111.3,427.9,110.5,428.8,110.5z"/>
	<path d="M452.5,98.3c-6.4,0-11.2,4.7-11.2,10.9c0,6.2,4.8,11,11.2,11c6.4,0,11.2-4.7,11.2-11C463.7,103,458.9,98.3,452.5,98.3z
		 M452.5,116.4c-3.9,0-6.9-3.1-6.9-7.2c0-4,3-7.2,6.9-7.2s6.8,3.1,6.8,7.2S456.4,116.4,452.5,116.4z"/>
	<path d="M482.5,113.7c0.1-0.3,0.2-0.5,0.4-0.7c2.1-1.4,3.3-3.7,3.3-6.3c0-4.9-3.7-8.1-9.5-8.1h-9v21.2h4.2v-3.2
		c0-1,0.8-1.8,1.8-1.8h2.7c0.3,0,0.6,0,0.9,0c0.7-0.1,1.3,0.2,1.7,0.8l2.8,4.2h4.7l-3.8-5.3C482.5,114.3,482.4,114,482.5,113.7z
		 M476.9,111.4h-3.3c-1,0-1.8-0.8-1.8-1.8v-5.8c0-1,0.8-1.8,1.8-1.8h3.3c2.8,0,4.9,2,4.9,4.7C481.8,109.4,479.7,111.4,476.9,111.4z"
		/>
	<path d="M512.1,107.1l6.5-8.5h-4.8l-6.9,9.1c-0.3,0.3-0.5,0.7-0.8,1.1c-0.2,0.3-0.6,0.4-0.9,0.3s-0.6-0.4-0.6-0.8v-9.7h-4.2v21.2
		h4.2v-2.4c0-0.8,0.3-1.5,0.7-2.1l1.8-2.2c0.3-0.4,0.8-0.7,1.4-0.6c0.5,0,1,0.3,1.4,0.7l4.7,6.6h4.9l-7.4-10.3
		C511.5,108.8,511.5,107.8,512.1,107.1z"/>
	<rect x="523.6" y="98.6" width="4.2" height="21.2"/>
	<path d="M534.3,98.6v21.2h8.3c6.5,0,11.2-4.5,11.2-10.6s-4.7-10.6-11.2-10.6C542.6,98.6,534.3,98.6,534.3,98.6z M549.4,109.2
		c0,4.1-2.8,7-6.9,7h-2c-1.1,0-2-0.9-2-2v-10c0-1.1,0.9-2,2-2h2C546.5,102.2,549.4,105.1,549.4,109.2z"/>
	<path d="M564.7,106.9c-2.1-0.5-3.8-1-3.8-2.5c0-1.8,2.2-2.2,3.4-2.2c2.2,0,4.3,0.6,6,1.6l1.5-3.2c-2.3-1.5-4.6-2.1-7.5-2.1
		c-5.3,0-7.7,3-7.7,5.9c0,4.3,4.1,5.6,7.9,6.5h0.1c1.9,0.5,3.8,0.9,3.8,2.7c0,1.7-2.1,2.7-4.1,2.7c-3.3,0-5.3-1.1-6.9-2.2l-1.5,3.2
		c1.2,0.9,3.6,2.7,8.4,2.7c4.2,0,8.5-2,8.5-6.4C572.8,109.4,568.9,107.9,564.7,106.9z"/>
	<path class="st0" d="M130.7,78.3l0.2-8.6l-0.3-8.6l0.3-8.6l0.1-8.6l-0.3-8.6l0.1-8.6L131,18l-8.2,2.2l-8.1,2.5l-8.2,1.9l-8.2,2
		L90,28.9l-7.6-3.2L75,22l-7.7-2.9l-7.6-3l-7.4-3.6l-7.6-3.2l-7.7-3l-7.4-3.6L22.2,0l-0.1,8.5l0.1,8.7L22,26v8.7l0.2,8.7l0.1,8.7
		L22,61l-0.1,8.7l0.4,8.7v8.7L21.9,96v8.8l0.2,8.7l7.5-3l7.6-3.2l7.6-3.1l7.5-3.4l7.6-3.2l7.6-3.1l2.4-1v11.3c0,2.4-1.9,4.3-4.3,4.3
		c-2.8,0-5.4,2.1-5.7,4.9c-0.3,3.2,2.2,6,5.4,5.9h8.2c4,0,7.2-3.3,7.2-7.2l-0.1-23.8l1.9-0.8L90,85l8.2,1.9l2.7,0.6l0.1,17.3
		c0,2.4-1.9,4.3-4.3,4.3c-2.8,0-5.4,2.1-5.7,4.9c-0.3,3.2,2.2,6,5.4,5.9h8.2c4,0,7.2-3.3,7.2-7.2l-0.1-22l2.7,0.9l8.2,2.1l8.2,2
		l0.2-8.6L130.7,78.3z"/>
	<g>
		<g>
			<g>
				<g>
					<g>
						<path class="st1" d="M77.1,49.8c0,5.3-1.4,11-7.1,11s-7.1-5.5-7.1-11s3.2-8,7.1-8S77.1,44.6,77.1,49.8z"/>
					</g>
					<g>
						<path class="st2" d="M74.7,50.3c0,3.5-0.9,7.3-4.7,7.3s-4.7-3.6-4.7-7.3c0-3.6,2.1-5.3,4.7-5.3S74.7,46.8,74.7,50.3z"/>
					</g>
				</g>
				<g>
					<g>
						<path class="st1" d="M113.4,49.8c0,5.3-1.4,11-7.1,11s-7.1-5.5-7.1-11s3.2-8,7.1-8C110.2,41.8,113.4,44.6,113.4,49.8z"/>
					</g>
					<g>
						<path class="st2" d="M111,50.3c0,3.5-0.9,7.3-4.7,7.3s-4.7-3.6-4.7-7.3c0-3.6,2.1-5.3,4.7-5.3S111,46.8,111,50.3z"/>
					</g>
				</g>
			</g>
		</g>
	</g>
	<path class="st3" d="M88.2,71.7c-5.4,0-8.2-3.8-8.3-3.9c-0.4-0.6-0.3-1.4,0.3-1.8c0.6-0.4,1.4-0.3,1.8,0.3c0.1,0.1,2.2,2.9,6.3,2.9
		c4,0,6.2-2.8,6.3-2.9c0.4-0.6,1.2-0.7,1.8-0.3c0.6,0.4,0.7,1.2,0.3,1.8C96.4,67.9,93.5,71.7,88.2,71.7z"/>
</g>
<g id="圖層_3">
	<path class="st4" d="M140.3,175.3h8.6v2.4h-8.6V175.3z M140.3,170.3h8.6v2.4h-8.6V170.3z M137.2,167.4v13.2h14.9v-13.2H137.2z
		 M137,183.1v3.1h15.4v-3.1H137z M135.1,188.9v3.1h18.3v-3.1H135.1z M126.7,167.8v3.2h9.4v-3.2H126.7z M127,176v3.1h8.6V176H127z
		 M126.4,186.8l0.8,3.5c2.7-0.9,6.1-2,9.3-3.1l-0.6-3.3C132.5,185,128.9,186.1,126.4,186.8z M129.9,169.1V187l3.2-0.5v-17.4H129.9z
		 M143.2,168.6v10.7h-0.3v11h3.5v-11h-0.3v-10.7H143.2z M171.3,173.5v2.5h7.9v-2.5H171.3z M171.3,178.1v2.4h7.9v-2.4H171.3z
		 M171.3,182.9v2.5h7.9v-2.5H171.3z M183.6,179.7v2.9h10.7v-2.9H183.6z M172.7,168.8v2.6h4.5v-2.6H172.7z M181.5,167.7v2.8H192v-2.8
		H181.5z M181.5,185.1v2.9h13.4v-2.9H181.5z M186.8,177.1v15.6h3.2v-15.6H186.8z M174.4,174.8v9h2.3v-9H174.4z M191.1,167.7v0.4
		c-0.1,4.1-0.3,5.6-0.6,6c-0.2,0.3-0.4,0.3-0.8,0.3c-0.4,0-1.1,0-2-0.1c0.4,0.7,0.7,1.9,0.8,2.7c1.1,0.1,2.2,0,2.9-0.1
		c0.7-0.1,1.3-0.3,1.7-0.9c0.6-0.7,0.9-2.7,1-7.3c0-0.4,0.1-1.1,0.1-1.1H191.1z M183,177.3c-0.4,2.3-1.2,4.6-2.3,6.1
		c0.7,0.3,1.9,0.9,2.5,1.3c1.1-1.7,2-4.3,2.6-6.9L183,177.3z M172,166.2c-0.8,3.4-2.3,6.7-4.2,8.8c0.7,0.5,1.9,1.5,2.4,2
		c2-2.4,3.8-6.2,4.8-10.2L172,166.2z M170.1,173.5v7.5c0,3.2-0.2,7.4-2.1,10.4c0.7,0.3,1.9,1,2.4,1.5c2.1-3.2,2.4-8.3,2.4-11.9v-7.5
		H170.1z M178.3,173.5v16c0,0.3-0.1,0.5-0.5,0.5c-0.3,0-1.5,0-2.6,0c0.4,0.8,0.9,2.1,1,2.9c1.7,0,2.9-0.1,3.8-0.5
		c0.9-0.5,1.1-1.4,1.1-2.7v-16.1H178.3z M184.9,168.6c-0.3,3.1-0.9,5.5-4.3,6.9c0.7,0.5,1.4,1.6,1.8,2.3c4.2-1.9,5.2-5,5.5-9.2
		H184.9z M176.4,168.8v0.5c-0.3,1.3-1,3.4-1.7,4.7c0.6,0.3,1.5,0.9,2.1,1.3c0.9-1.4,2-3.7,2.6-5.4l-1.9-1.2l-0.4,0.1H176.4z
		 M210,173v3.3h25.9V173H210z M213.9,167v24.3h21.3V188h-17.8v-21H213.9z M221.3,166.4v18.4h10.9v-18.1h-3.6v15h-3.9v-15.3H221.3z
		 M257.9,174.5h13.4v2.1h-13.4V174.5z M257.9,169.9h13.4v2h-13.4V169.9z M254.5,167.2v12.1h20.3v-12.1H254.5z M268.4,177.5l-2.9,1
		c2.3,3.4,6,6.1,10.1,7.5c0.5-0.9,1.5-2.2,2.3-2.9C274,182.1,270.3,180,268.4,177.5z M260.7,177.5c-1.9,2.6-5.6,4.8-9.4,5.9
		c0.7,0.7,1.8,2,2.3,2.8c4-1.4,7.9-4.2,10.2-7.5L260.7,177.5z M258.7,182.7v1.8c0,1.8-0.6,4.2-5.3,5.8c0.7,0.7,1.9,1.9,2.3,2.8
		c5.7-2.1,6.5-5.7,6.5-8.4v-2H258.7z M262.8,168.6v9.4h3.4v-9.4H262.8z M267.3,182.7v10h3.5v-10H267.3z M327.3,167.7
		c2,1.5,4.5,3.7,5.7,5.1l2.7-1.3c-1.3-1.5-3.9-3.6-5.9-5L327.3,167.7z M319.2,174.5c0.7,1.2,1.4,2.9,1.6,3.9l2.5-0.8
		c-0.3-1-1-2.7-1.7-3.9L319.2,174.5z M333.5,174.3c1.1,1.4,2.2,3.3,2.6,4.6l2.5-1.1c-0.5-1.3-1.7-3.1-2.8-4.5L333.5,174.3z
		 M326.2,179.3c-1.9,1.3-5.6,2.6-8.4,3.2c0.7,0.6,1.4,1.4,1.8,2c2.9-0.9,6.6-2.3,9-4L326.2,179.3z M329.2,181.9
		c-2.6,2-7.5,3.5-11.9,4.2c0.7,0.7,1.3,1.7,1.7,2.4c4.7-1,9.6-2.8,12.7-5.3L329.2,181.9z M332.3,184.7c-3.1,3.2-9.6,4.8-16.4,5.4
		c0.6,0.8,1.2,1.9,1.5,2.8c7.3-1,13.9-2.9,17.6-6.8L332.3,184.7z M324.6,173.3c-2.2,4.1-6.9,6.8-12.3,8.3c0.6,0.7,1.5,2,1.8,2.7
		c5.8-1.9,10.9-5.2,13.6-10.1L324.6,173.3z M326.9,174.7l-2.8,1.1c3,3.7,8,6.7,13.3,8.2c0.5-0.8,1.4-2,2.1-2.6
		C334.4,180.2,329.4,177.7,326.9,174.7z M316.6,172.5c0-0.5,1.8-1.3,1.8-1.3v0c2.3-0.9,4.8-2.2,7-3.7l-3-1.4c-1.7,1.4-4.1,2.7-4.9,3
		c-0.7,0.4-1.3,0.6-1.9,0.7C315.9,170.5,316.4,171.9,316.6,172.5z M316.6,172.5c1.2-0.4,2.9-0.3,17.4-0.9c-0.3-0.6-0.9-1.6-1.3-2.3
		l-14.3,0.3l-1.8,0.9L316.6,172.5z M314.7,178.6c0-0.5,1.6-1.4,1.6-1.4v-0.1c1-0.9,2.3-2.4,3-3.7l-3-1.2c-0.5,1.4-1.4,2.6-1.7,2.9
		c-0.3,0.4-0.7,0.7-1,0.7C314,176.7,314.5,178,314.7,178.6z M314.7,178.6c0.6-0.2,1.6-0.4,7-0.7c-0.3-0.6-0.9-1.6-1.2-2.3l-4.5,0.2
		l-1.2,0.8L314.7,178.6z M329,178.5c0-0.5,1.6-1.4,1.6-1.4V177c0.9-0.9,2-2.3,2.7-3.6l-3-1.1c-0.4,1.3-1.2,2.5-1.4,2.8
		c-0.3,0.4-0.7,0.6-0.9,0.7C328.3,176.6,328.8,177.9,329,178.5z M329,178.5c0.6-0.2,1.6-0.4,7.1-0.7c-0.3-0.6-0.9-1.6-1.3-2.3
		l-4.7,0.2l-1.2,0.8L329,178.5z M371.8,167.5v2.9h5.2v-2.9H371.8z M365.5,168.4v2.8h5.7v-2.8H365.5z M372.1,172.8v2.8h4.8v-2.8
		H372.1z M371.9,178v2.8h4.8V178H371.9z M357.9,172.8v2.8h4.8v-2.8H357.9z M358.1,178v2.8h4.7V178H358.1z M375.1,167.5
		c0,5.4-0.2,12.6-0.5,16.9h3.2c0.3-4.3,0.5-11.3,0.5-16.9H375.1z M361.7,166.3c-1.5,0.7-3.7,1.6-5.5,2.1c0.3,0.7,0.7,1.7,0.8,2.4
		c1.9-0.4,4.1-1,6.1-1.7L361.7,166.3z M363.8,166.4v9.5h6v-2.6h-3.1v-6.9H363.8z M354.2,183.1v3.1h26.2v-3.1H354.2z M369.5,188.3
		c2.8,1.3,6,3.2,7.8,4.5l2.2-2.6c-1.9-1.2-5.3-2.9-8.2-4.2L369.5,188.3z M362.3,186.1c-1.9,1.4-5.4,3.2-8,4.2
		c0.7,0.7,1.5,1.8,1.9,2.6c2.8-1.1,6.3-2.9,8.8-4.5L362.3,186.1z M356.3,168.4l0.5,15.7h3l-0.5-14.8L356.3,168.4z M364.2,176.6
		c-0.1,1.5-0.3,2.9-1,4c0.6,0.3,1.7,1,2.2,1.4c0.8-1.2,1.2-3.1,1.4-4.9L364.2,176.6z M368.1,173.3v7.2c0,0.3-0.1,0.3-0.3,0.3
		c-0.3,0-1.1,0-1.8,0c0.3,0.6,0.6,1.4,0.7,2.1c1.4,0,2.5,0,3.2-0.4c0.8-0.3,1-0.9,1-2v-7.2H368.1z M396.1,177.5v3.4h25.4v-3.4H396.1
		z M398.3,170.5v3.4h21.2v-3.4H398.3z M406.9,166.2v26.6h3.6v-26.6H406.9z M406.3,179.4c-2.3,3.7-6.8,7.3-11.2,9.2
		c0.8,0.7,1.9,2.1,2.5,2.9c4.5-2.3,8.9-6.4,11.6-10.9L406.3,179.4z M411.2,179.4l-2.8,1.2c2.7,4.5,7.1,8.7,11.5,11
		c0.6-0.9,1.7-2.3,2.5-3C417.9,186.8,413.5,183.1,411.2,179.4z M438.1,169.8v3.3h24.7v-3.3H438.1z M448.4,166.2v26.6h3.6v-26.6
		H448.4z M448.8,179c-2.4,4.1-7.1,7.9-12,9.8c0.8,0.7,1.9,2.1,2.4,2.9c5-2.3,9.6-6.7,12.4-11.7L448.8,179z M451.8,179.3l-2.8,1.1
		c2.8,4.8,7.3,9.1,12.2,11.4c0.6-1,1.7-2.4,2.5-3.1C458.9,186.8,454.2,183.2,451.8,179.3z M441.5,178c1.3,1.2,3.1,2.8,3.9,3.8
		l2.2-2.4c-0.9-1-2.8-2.5-4-3.6L441.5,178z M442.6,173.2c-0.8,3.5-2.5,6.5-5,8.3c0.8,0.5,2.1,1.6,2.6,2.2c2.6-2.2,4.7-5.8,5.7-9.9
		L442.6,173.2z M455.1,178.1c1.8,1.5,4.4,3.6,5.6,4.9l2.4-2.4c-1.3-1.2-4-3.2-5.8-4.6L455.1,178.1z M456,173.2
		c-0.6,2.9-1.9,5.5-3.8,7.1c0.8,0.4,2.2,1.2,2.9,1.8c1.9-1.9,3.5-4.9,4.2-8.3L456,173.2z"/>
</g>
</svg>
