<svg width="43" height="43" viewBox="0 0 43 43" fill="none" xmlns="http://www.w3.org/2000/svg">
<path d="M12.1094 24.1758V33.9623C12.1083 34.3 12.1738 34.6347 12.3023 34.947C12.4308 35.2594 12.6197 35.5433 12.8581 35.7825C13.0966 36.0218 13.3799 36.2116 13.6918 36.3411C14.0037 36.4706 14.3382 36.5372 14.6759 36.5372H28.3248C28.663 36.5372 28.9978 36.4706 29.3102 36.3412C29.6226 36.2118 29.9065 36.0221 30.1456 35.783C30.3847 35.5439 30.5744 35.2601 30.7038 34.9477C30.8332 34.6353 30.8998 34.3004 30.8998 33.9623V24.1758" stroke="#8E8E8E" stroke-width="2.2" stroke-miterlimit="10" stroke-linecap="round"/>
<path d="M21.5014 29.2924V15.6855L16.6797 20.5073" stroke="#8E8E8E" stroke-width="2.2" stroke-linecap="round" stroke-linejoin="round"/>
<path d="M21.5 15.6855L26.3217 20.5073" stroke="#8E8E8E" stroke-width="2.2" stroke-linecap="round" stroke-linejoin="round"/>
</svg>
