<svg xmlns="http://www.w3.org/2000/svg" viewBox="0 0 175 193"><defs><style>.cls-1{fill:#fae7e7;}.cls-2{fill:#d3d4d4;}.cls-3{fill:#f8c341;}.cls-4{fill:#27b5f7;}.cls-5{fill:#f56977;}</style></defs><g id="圖"><path class="cls-1" d="M60.61,100l32.78,26.62c1.6.67,3.19,1.12,4-.48l4.06-7.1c2.68-5.22,5.66-10.68,7.07-16.4a46.53,46.53,0,0,0,.63-14.34v-.08c-.39-3.88-1.86-9.78-1.86-13.92,0-2.85,4.82-2.46,7.54,1.69C116,77.76,116,84.2,119,81.23c1.57-1.57,3.54-4.9,7.61-3.74s2.33,3.5,4.66,4.2c4.19,1.26,2,5.18,4.65,6.33s.62,4.44,4,5.69c4.21,1.56-.73,9.5-3.38,12.15S130.1,114,126.22,119c-3.49,5.7-10.44,16.41-17.88,24.44-4.06,4.38-9.14,5.56-14.43,3L52.76,117Z"/><path class="cls-1" d="M26.23,68.3C26.23,49.63,35.75,43,47.5,43S68.77,49.63,68.77,68.3c0,9.77-4.65,18.24-11.45,22.46l-.12.08a2.36,2.36,0,0,0-.81,2.32l1.23,6.4a5.86,5.86,0,0,1-5.84,5.84h-9.4a5,5,0,0,1-5-5l1.26-7.27a2.4,2.4,0,0,0-.72-2.18,1.33,1.33,0,0,0-.24-.19C30.87,86.52,26.23,78.06,26.23,68.3Z"/><path class="cls-2" d="M73.41,104.67A111.61,111.61,0,0,1,86.31,116c1.49,1.55,3.91,5.69,2.6,7.38-2.18,2.82-5.86,9.79-9.08,14.25-1.08,1.48-3.49-1.32-5-2.41l-11.66-8.81Z"/><path class="cls-2" d="M19.7,106.08c8.12-8.34,15.5-10.64,17.93-10.78,10.08,4.16,18.55,1.88,20,.79a58.07,58.07,0,0,1,17.69,10.1c2.42,2,18.34,44.84,18.18,86.81H10.74S10,179.51,8.86,158l-2,.26C5.79,137,9.74,116.32,19.7,106.08Z"/><ellipse cx="54.78" cy="63.68" rx="1.2" ry="2.53"/><ellipse cx="41.59" cy="63.68" rx="1.2" ry="2.53"/><path d="M48.19,69.86a.8.8,0,0,1-.8-.8V58.87a.8.8,0,0,1,.8-.8.79.79,0,0,1,.79.8V69.06A.79.79,0,0,1,48.19,69.86Z"/><path d="M44.07,76.22a10.87,10.87,0,0,1-1.33-.07.79.79,0,0,1-.69-.89.81.81,0,0,1,.89-.69c.07,0,6.55.77,10.19-4.09a.79.79,0,1,1,1.27,1C51.24,75.67,46.4,76.22,44.07,76.22Z"/><path class="cls-1" d="M12,156.19a1,1,0,0,0-.69,1c0,2.18.2,8.58,2.73,14,3.75,8,11.44,15.44,18.54,21.08a3.47,3.47,0,0,0,2.15.75H87.53a3.74,3.74,0,0,0,3.62-3.9C91.06,181.83,89,171.66,77,168c0,0-10.78-3.38-24.56,5.36a3.41,3.41,0,0,1-3.46.13c-5.62-3-20-10.77-20.37-12a22.94,22.94,0,0,1-1.55-7.5,1,1,0,0,0-1.08-.92A100.79,100.79,0,0,0,12,156.19Z"/><path d="M86.11,192.53a.79.79,0,0,1-.78-.63,47.27,47.27,0,0,0-5.42-14.22.8.8,0,0,1,1.38-.81,49,49,0,0,1,5.6,14.7.8.8,0,0,1-.62,1Z"/><path d="M79,192.81a.8.8,0,0,1-.79-.69,30.74,30.74,0,0,0-4.57-12.18.8.8,0,0,1,1.34-.87,32.54,32.54,0,0,1,4.81,12.83.8.8,0,0,1-.68.9Z"/><path d="M71.24,192.57a.8.8,0,0,1-.78-.65A30.8,30.8,0,0,0,66.62,182a.79.79,0,0,1,1.36-.82,32.13,32.13,0,0,1,4,10.45.78.78,0,0,1-.63.93Z"/><path d="M56.62,192.53a.85.85,0,0,1-.31-.06.8.8,0,0,1-.42-1.05,8.47,8.47,0,0,1,1.78-2.88,3.59,3.59,0,0,1,3.68-.91,4.61,4.61,0,0,1,1.77,1.43,6,6,0,0,1,1.36,2.33.79.79,0,1,1-1.53.41,5,5,0,0,0-1.05-1.72,3.11,3.11,0,0,0-1.13-1,2,2,0,0,0-2,.57,7.08,7.08,0,0,0-1.42,2.36A.79.79,0,0,1,56.62,192.53Z"/><path d="M29.43,150a.81.81,0,0,1-.8-.72c-1-9.84-.79-17.86.64-25.23a.8.8,0,1,1,1.56.31c-1.39,7.21-1.58,15.08-.61,24.76a.81.81,0,0,1-.71.88Z"/><path d="M122.7,90.13a.8.8,0,0,1-.62-1.3c.2-.24,1.94-2.39,2.34-2.82l.47-.51c1.42-1.51,2-2.08,3.63-3.74a.79.79,0,0,1,1.13,0,.78.78,0,0,1,0,1.12c-1.66,1.64-2.18,2.2-3.58,3.7l-.47.51c-.31.33-1.74,2.09-2.27,2.73A.79.79,0,0,1,122.7,90.13Z"/><path d="M127.19,95.36a.77.77,0,0,1-.55-.22.79.79,0,0,1,0-1.12L128,92.5c.5-.56.86-1,1.49-1.57L133,87.46a.8.8,0,1,1,1.12,1.14l-3.56,3.47c-.59.58-.92,1-1.42,1.5-.35.38-.77.86-1.41,1.54A.83.83,0,0,1,127.19,95.36Z"/><path d="M132.67,99.83a.79.79,0,0,1-.6-1.31,33.39,33.39,0,0,1,5-4.85.8.8,0,0,1,1,1.23,32.39,32.39,0,0,0-4.8,4.66A.8.8,0,0,1,132.67,99.83Z"/><path d="M120.19,106a1,1,0,0,1-.23,0,.8.8,0,0,1-.53-1,22.23,22.23,0,0,0-3-19,.8.8,0,0,1,1.31-.92,23.87,23.87,0,0,1,3.2,20.34A.79.79,0,0,1,120.19,106Z"/><path d="M130.12,102.58H130a7.72,7.72,0,0,1-5.88-4.8l0,0a5.67,5.67,0,0,1-3.7-1.67.8.8,0,0,1,1.13-1.12,4.12,4.12,0,0,0,2.63,1.2,1.55,1.55,0,0,1,.76.16,1.6,1.6,0,0,1,.69.91,6.17,6.17,0,0,0,4.65,3.79.8.8,0,0,1,.65.92A.79.79,0,0,1,130.12,102.58Z"/><polygon class="cls-3" points="129.82 161.08 122.33 150.78 123.48 137.82 134.23 130.13 146.84 132.64 154.94 142.59 152.43 155.14 142.79 164.22 129.82 161.08"/><path d="M110.49,161a.8.8,0,0,1-.47-1.44l2.32-1.72,4.84-3.76L121.7,150l2.38-2,2.6-1.72,2.23-2,2.33-2,2.45-1.93,2.49-1.85,4.55-3.93a.81.81,0,0,1,1,0,.79.79,0,0,1,.21,1L140.64,138l-1.08,2.67a.37.37,0,0,1-.05.11L138,143.27l-.66,2.77a.17.17,0,0,1,0,.1l-.26.71,3.05-1.94,2.37-1.65,2.47-1.6,2.53-1.51,2.27-1.69,2.61-1.51,2.28-1.59,2-2,.08-.07,2.34-1.73,2.15-1.86,2.07-2,2.2-1.95,2.09-2a.78.78,0,0,1,1.12,0,.79.79,0,0,1,0,1.13l-2.11,2-2.2,1.95-2.08,2-2.22,1.93-2.35,1.73-2.05,2-.11.09-2.39,1.65-2.58,1.5-2.27,1.69L145.8,143l-2.42,1.56L141,146.24l-5.09,3.21a.8.8,0,0,1-.93,0,.81.81,0,0,1-.24-.9l1.09-2.87.67-2.85a.92.92,0,0,1,.09-.23l1.52-2.5.74-1.83-1.68,1.44-2.51,1.87-2.4,1.9-2.29,2-2.26,2.07-.1.07L125,149.27l-2.29,1.92-4.54,4.09-4.89,3.81L111,160.83A.8.8,0,0,1,110.49,161Z"/><polygon class="cls-4" points="100.64 66.83 97.17 63.22 93 60.67 89.98 56.8 85.82 54.25 82.72 50.47 78.7 47.74 75.2 44.43 71.65 41.15 67.43 38.2 71.27 34.17 74.6 30.07 78.56 26.49 81.71 22.41 84.98 25.76 88.77 28.74 92.73 31.52 96.12 34.97 99.54 38.38 103.45 41.23 107.06 44.42 110.66 47.64 114.74 50.6 111.2 54.77 107.16 58.26 104.45 62.91 100.64 66.83"/><path d="M78.35,95.13a.81.81,0,0,1-.53-.2.8.8,0,0,1-.07-1.13l1.48-1.64,1.26-1.72,1.44-1.69L83.1,87l1.31-1.82,1.24-1.81,1.15-1.84,1.12-1.89,1-1.91,1.15-1.93.9-1.88,1.14-3.74-.46.56L90,72.34l-1.73,1.53-2,1.54-3,1.24L81.45,74l-.25-2.35.31-2.14.61-2.32,1.2-1.89,1.51-1.58,1.82-1.42,3.7-.39,2,1.38,1.21,2,.06.42,1-1.33,1.08-1.87.77-2.09.88-2.13,1-2,.38-2.16.62-2.21.22-2.2.3-2.22-.18-2.1-.14-.82-.27.3L97.7,46.38l-1.59,1.48-1.76,1.46-2,1.21-3,1.09-2-2.09-.07-2.76,1-2,1.08-1.92,1.43-1.66,2-1.11,2-.74,2.33.1,2.21,1.22.58.89.77-.92.94-1.84,2.06-3.68.67-1.89.59-4.07-.16-2-.22-1.1-.23.64-2.16,4.15-2.14,1.53L98,33l-2.57-.22-1.85-1.88-.46-2.48.39-2.49.93-2.25,1.24-2,1.54-1.94,2.55-1.09,2.49.57,2,1.62.56.91,1.12-3.85.45-2.11,1.1-4.31.27-2.11.13-2.15.24-2.24a.78.78,0,0,1,.88-.7.8.8,0,0,1,.71.88l-.24,2.19-.13,2.17L109,11.72l-1.12,4.39-.45,2.12-1.3,4.43-.47,1,.35,1.09.44,2.18.19,2.32L106,33.68l-.77,2.14-2.08,3.72-1.06,2L100.87,43l.36,2.14.2,2.34-.32,2.36-.24,2.39-.63,2.2-.45,2.39-1,2.07L98,61l-.84,2.25L95.9,65.28l-2,2.64-.07,2.24L92.46,74.5l-1,2-1.16,2-1,1.91L88.16,82.3,87,84.19,85.72,86l-1.31,1.81-1.24,1.9-1.43,1.68-1.28,1.73-1.52,1.7A.76.76,0,0,1,78.35,95.13ZM83,73.44l.83,1.24,1.69-.7,1.71-1.33,1.66-1.48,1.62-1.56,1.72-2.15L92,65.81l-.86-1.41-1.2-.84-2.65.28-1.41,1.1-1.33,1.4-1,1.58-.46,1.89-.27,1.87Zm5.92-24.58.89.91,1.94-.71L93.46,48l1.59-1.34,1.54-1.43,1.49-1.49.85-.94-.62-.94L96.78,41,95.14,41l-1.69.61-1.61.89-1.19,1.38-.94,1.69-.83,1.62Zm7.21-17.63,1.67.14,1.73-.52,1.5-1.12L103,26l.73-2,.26-.53-.06-.18-1-1.57-1.4-1.11-1.64-.37-1.7.73-1.26,1.58-1.12,1.86-.82,2-.28,1.95L95,30.12Z"/><polygon class="cls-5" points="126.69 30.08 129.76 33.87 131.95 37.76 133.97 41.74 136.48 45.45 138.97 49.16 140.8 53.26 143.17 57.05 145.31 60.97 147.26 65.01 149.75 68.72 152.64 72.19 154.78 76.12 156.74 80.16 159.08 83.46 159.68 79.59 160.71 75.34 161.04 70.98 162.46 66.79 163.19 62.49 163.44 58.1 164.41 53.84 164.9 49.49 165.54 45.17 167.22 41.03 167.17 36.59 167.7 32.25 169.49 28.13 169.74 23.79 165.54 24.45 161.28 25.12 157.01 25.81 152.7 26.18 148.38 26.48 144.18 27.55 139.85 27.83 135.71 29.31 131.32 29.17 126.69 30.08"/><path d="M130.88,70.22a.83.83,0,0,1-.49-.17.8.8,0,0,1-.14-1.12L132,66.68l1.37-2.5,1.73-2.44,1.57-2.4,1.35-2.4-.17-1.42-1.92.41-3,.36-5.83.54-5.65.79a.8.8,0,0,1-.53-1.46l2.28-1.48,2.14-1.84.08-.06,2.35-1.53,2-2a.58.58,0,0,1,.12-.1l2.35-1.53,2-1.95.09-.08,1.81-1.29,0-.51-1.87-8.38-.71-2.78a.8.8,0,0,1,1.54-.41l.71,2.58L139,39.19l1.61,1.48.35-.35,2.28-1.86,2.16-1.86,2-2,4.22-3.92,2.42-1.94a.8.8,0,0,1,1.21,1l-1.37,2.75-1.41,2.57-1.27,2.57a.75.75,0,0,1-.07.12L149.41,40l-1.28,2.52L146.63,45l-.2.52,1,.76.09.08,2,2L151.74,50a.43.43,0,0,1,.12.11l2,2.27a.79.79,0,0,1,.14.82.81.81,0,0,1-.68.5l-3.09.24-2.84.4-2.92.17-2.81.58h-.1l-.75.06-1.17,2.09.08.66.42,2.84.37,2.88.08,3a.8.8,0,1,1-1.59,0l-.08-2.89-.57-4.21-.35.62-1.62,2.47L134.69,65l-1.35,2.48-.06.1-1.77,2.31A.81.81,0,0,1,130.88,70.22Zm-4.53-16.13-1.75,1.5,2.32-.34,5.85-.54,2.87-.35,1.93-.42-.73-4.34-.54-2.82s0-.07,0-.11l0-.44-.92.66-2,2a.38.38,0,0,1-.12.09l-2.35,1.53-2,2a.4.4,0,0,1-.12.1Zm11.52-7.55.54,2.78.74,4.37.77,0,2.79-4.19,1.43-2.4.36-.93-.25-.18L142,44.17l-1.38-1.3-.61.61-.09.07-2.15,1.57Zm8,.55-.23.6a.34.34,0,0,1-.06.12l-1.48,2.49L142,53.4l2.2-.45.12,0,2.91-.17,2.82-.4,1.56-.12-.89-1-2.2-1.64-.09-.08-2-2Zm-4-5.33L143.07,43l2,1.6.07-.18.06-.13,1.51-2.48L148,39.25a.83.83,0,0,1,.08-.12l1.72-2.28,1.25-2.53,1-1.85-3.57,3.31-2,2-2.22,1.9Zm-5.16-3.11,1,4.61,1.31-1,.52-.51-1.6-1.48-.11-.11Z"/></g></svg>