<svg fill="none" height="36" viewBox="0 0 36 36" width="36" xmlns="http://www.w3.org/2000/svg" xmlns:xlink="http://www.w3.org/1999/xlink"><clipPath id="a"><path d="m0 0h36v36h-36z"/></clipPath><g clip-path="url(#a)"><path d="m36 18c0-9.94113-8.0589-18-18-18-9.94113 0-18 8.05887-18 18 0 9.9411 8.05887 18 18 18 9.9411 0 18-8.0589 18-18z" fill="#fff"/><path d="m18 0c-3.5601 0-7.0402 1.05568-10.00026 3.03355-2.96008 1.97786-5.26719 4.78908-6.62956 8.07815-1.36238091 3.2891-1.718841 6.9083-1.024307 10.3999.694537 3.4917 2.408867 6.699 4.926217 9.2163 2.51734 2.5174 5.72461 4.2317 9.21631 4.9262 3.4916.6946 7.1108.3381 10.3999-1.0243 3.2891-1.3623 6.1003-3.6695 8.0782-6.6295 1.9778-2.9601 3.0335-6.4402 3.0335-10.0003 0-4.7739-1.8964-9.35227-5.2721-12.72792-3.3756-3.37566-7.954-5.27208-12.7279-5.27208z" fill="#8e8e8e"/><g fill="#fff"><path d="m21.3182 21.7409h-6.6293c-.1869 0-.3661.0742-.4982.2063-.1321.1322-.2063.3114-.2063.4982 0 .1869.0742.366.2063.4982.1321.1321.3113.2063.4982.2063h6.6293c.1869 0 .3661-.0742.4982-.2063.1321-.1322.2063-.3113.2063-.4982 0-.1868-.0742-.366-.2063-.4982-.1321-.1321-.3113-.2063-.4982-.2063z"/><path d="m21.3182 24.8477h-6.6293c-.1869 0-.3661.0743-.4982.2064s-.2063.3113-.2063.4981c0 .1869.0742.3661.2063.4982s.3113.2063.4982.2063h6.6293c.1869 0 .3661-.0742.4982-.2063s.2063-.3113.2063-.4982c0-.1868-.0742-.366-.2063-.4981s-.3113-.2064-.4982-.2064z"/><path d="m26.0172 11.5609h-.8172v-2.21921c0-.53438-.2123-1.04687-.5901-1.42473-.3779-.37787-.8904-.59015-1.4248-.59015h-10.3702c-.5344 0-1.0469.21228-1.4248.59015-.3778.37786-.5901.89035-.5901 1.42473v2.21921h-.81722c-.71504.0018-1.40027.2867-1.90588.7923-.50562.5056-.79049 1.1909-.79235 1.9059v8.1863c.00186.7151.28673 1.4003.79235 1.9059.50561.5056 1.19084.7905 1.90588.7923h.81722v2.3319c0 .5344.2123 1.0469.5901 1.4248.3779.3778.8904.5901 1.4248.5901h10.3702c.2646 0 .5266-.0521.7711-.1534.2444-.1012.4666-.2496.6537-.4367s.3355-.4092.4367-.6537c.1013-.2445.1534-.5065.1534-.7711v-2.3319h.8172c.7151-.0018 1.4003-.2867 1.9059-.7923s.7905-1.1908.7924-1.9059v-8.1863c-.0019-.715-.2868-1.4003-.7924-1.9059s-1.1908-.7905-1.9059-.7923zm-14.1604-2.21921c0-.25411.1009-.49782.2806-.6775s.4234-.28063.6775-.28063h10.3702c.2541 0 .4978.10095.6775.28063s.2807.42339.2807.6775v2.21921h-12.2865zm12.2865 18.13381c0 .2542-.101.4979-.2807.6775-.1797.1797-.4234.2807-.6775.2807h-10.3702c-.2541 0-.4978-.101-.6775-.2807-.1797-.1796-.2806-.4233-.2806-.6775v-7.2281c0-.2541.1009-.4978.2806-.6775s.4234-.2807.6775-.2807h10.3702c.2541 0 .4978.101.6775.2807s.2807.4234.2807.6775zm1.5005-12.7796h-2.7193c-.2173-.0196-.4193-.1197-.5665-.2807-.1471-.161-.2287-.3712-.2287-.5894 0-.2181.0816-.4283.2287-.5893.1472-.161.3492-.2612.5665-.2807h2.7193c.2173.0195.4193.1197.5665.2807s.2288.3712.2288.5893c0 .2182-.0816.4284-.2288.5894s-.3492.2611-.5665.2807z"/></g></g></svg>