<svg xmlns="http://www.w3.org/2000/svg" viewBox="0 0 350 90"><defs><style>.cls-1{fill:#e3e3e3;}.cls-2{fill:#c8c8c8;}.cls-3{fill:#d4f0fd;}.cls-4{fill:#fff;}</style></defs><g id="圖"><path d="M63.26,42.16V46.7a1.67,1.67,0,0,1-1.19,1.7l-3.79,1.39-.57,19.94a4.38,4.38,0,0,1-2,2.46c-1.59,1.1-3.87,1.58-6.81,1.45-1.14,0-1.75-.35-1.83-1.19l-.5-4.67c-.09-.85.31-1.27,1.19-1.27h2.4c.68,0,1-.29,1-1V52.25l-4.48,1.58c-.76.25-1.16,0-1.2-.88l-.44-5a1.49,1.49,0,0,1,1.14-1.64l5-1.45V33.77H45.72c-.84,0-1.2-.4-1.07-1.2l1-4.55a1.31,1.31,0,0,1,1.45-1.2h4.16V16.22c0-.84.4-1.2,1.2-1.07l4.67,1a1.3,1.3,0,0,1,1.2,1.45v9.27h4.23c.84,0,1.2.41,1.07,1.2l-.95,4.55a1.3,1.3,0,0,1-1.45,1.2h-2.9v8.77l3.79-1.27C62.86,41,63.26,41.32,63.26,42.16Zm31.55,6.75a3.24,3.24,0,0,1,2.21.82l1.9,1.64a1.48,1.48,0,0,1,.37,2q-2.15,5.61-9.27,11a69.56,69.56,0,0,0,12.18,3.09c.84.09,1,.42.38,1l-3.92,3.91a2.32,2.32,0,0,1-2.21.63,52.19,52.19,0,0,1-13.37-4.54,64.84,64.84,0,0,1-17.23,5.17c-.92.17-1.49-.14-1.7-.94l-1-3.79c-.21-.8.15-1.26,1.07-1.39a57.91,57.91,0,0,0,12.18-3,33.66,33.66,0,0,1-7.51-7.07c-.67-.93-.44-1.62.69-2.08H67.24c-.84,0-1.18-.4-1-1.2l.82-3.79a1.38,1.38,0,0,1,1.51-1.2h11V44.49H69.2a2.68,2.68,0,0,1-3-3V24.36a3.93,3.93,0,0,1,3-3.91A10.35,10.35,0,0,0,73,18.56c1.86-1.3,3.47-1.26,4.86.12l1.71,1.65V16.16c0-.84.4-1.2,1.2-1.07L85,16a1.31,1.31,0,0,1,1.2,1.46V38.62H92.1A1.45,1.45,0,0,0,93.74,37V34.65H89.51c-.84,0-1.18-.4-1-1.2l.82-2.9a1.39,1.39,0,0,1,1.52-1.2h2.9V27a1.45,1.45,0,0,0-1.64-1.64H89.32c-.84,0-1.17-.4-1-1.2l.82-3.53a1.39,1.39,0,0,1,1.52-1.2H97.4a2.68,2.68,0,0,1,3,3v19a2.68,2.68,0,0,1-3,3H86.23v4.67ZM72.6,37a1.45,1.45,0,0,0,1.64,1.64h5.37V22.28l-5.49,2.27a2.17,2.17,0,0,0-1.52,2.21v2.59h3.66c.8,0,1.12.4.95,1.2l-.82,2.9a1.39,1.39,0,0,1-1.52,1.2H72.6ZM89.2,56.54c.67-.79.46-1.19-.63-1.19H77c-1.1,0-1.31.35-.63,1.07a26.71,26.71,0,0,0,6.81,4.86A21.55,21.55,0,0,0,89.2,56.54Z"/><path d="M164,54.9c.85,0,1.18.4,1,1.2l-.82,3.79a1.38,1.38,0,0,1-1.51,1.2h-9.78v5.36a9.33,9.33,0,0,1-.7,4.1,4.53,4.53,0,0,1-2.58,2.21c-1.81.72-4.8,1-9,1-1.18,0-1.81-.36-1.9-1.2l-.44-4c-.08-.84.38-1.24,1.39-1.2,1.39,0,2.88,0,4.48-.06a2.3,2.3,0,0,0,1.07-.25.91.91,0,0,0,.26-.76V61.09H127l4.6,4.1c.63.55.61,1-.06,1.45l-4,2.59a1.18,1.18,0,0,1-1.7-.19,8.65,8.65,0,0,0-3.16-3q-4.1-3.09-1.83-5H109.2c-.84,0-1.18-.4-1-1.2L109,56.1a1.39,1.39,0,0,1,1.52-1.2h35V52h-5.3a2.68,2.68,0,0,1-3-3V41c0-2,1-3,3-3h18.86a2.68,2.68,0,0,1,3,3V49c0,2-1,3-3,3h-6.18v2.9ZM110,53.45c-.3,0-.4-.42-.32-1.26l.57-3.15a1.32,1.32,0,0,1,1.39-1.33l6.62-.32V43.23h-6.94c-.84,0-1.15-.4-.94-1.2l.69-2.77a1.48,1.48,0,0,1,1.58-1.2h20.13c.84,0,1.15.4.94,1.2L133,42a1.48,1.48,0,0,1-1.58,1.2h-6.12v3.85l8.39-.44c.84,0,1.12.38.82,1.13L133.12,51q-.45,1.14-2.4,1.26Q114.06,53.14,110,53.45Zm44.36-36.6a2.68,2.68,0,0,1,3,3V33q0,3-3,3H116c-.85,0-1.16-.4-1-1.2l.69-2.52a1.48,1.48,0,0,1,1.58-1.2h31A1.44,1.44,0,0,0,150,29.41v-.76H118.22c-.84,0-1.15-.39-.94-1.19l.69-2.15a1.48,1.48,0,0,1,1.58-1.2H150v-.69a1.44,1.44,0,0,0-1.64-1.64h-32c-.84,0-1.16-.4-1-1.2l.7-2.53a1.48,1.48,0,0,1,1.58-1.2Zm-8.52,26a1.45,1.45,0,0,0-1.64,1.64v1a1.44,1.44,0,0,0,1.64,1.64h7.32a1.45,1.45,0,0,0,1.64-1.64v-1a1.45,1.45,0,0,0-1.64-1.64Z"/><path d="M228.33,26.7l-.94,4.92a1.31,1.31,0,0,1-1.46,1.2h-7.06a66.7,66.7,0,0,1-13,22.59A57.22,57.22,0,0,0,228.33,66q1.39.31.51,1.2L224.1,72a2,2,0,0,1-2.14.51A52.22,52.22,0,0,1,201.33,62.1a1.84,1.84,0,0,0-2.59-.13q-9,7.38-23,11.3c-.88.29-1.47.06-1.77-.7l-2.2-5.11c-.3-.76,0-1.26.88-1.51a57.63,57.63,0,0,0,21.77-10.42A71,71,0,0,1,181,32.82h-8.65c-.84,0-1.2-.4-1.07-1.2l1-4.92a1.3,1.3,0,0,1,1.45-1.2h24l-3.09-7.76q-.45-1.14.75-1.26l6.13-.89a1.56,1.56,0,0,1,1.7,1l2,4.36q1.26,2.84-1.71,3.78l-2.46.76h26.19C228.1,25.5,228.46,25.9,228.33,26.7Zm-17.92,6.12H188.77A54,54,0,0,0,200.13,50.3,51.38,51.38,0,0,0,210.41,32.82Z"/><path d="M290.23,61.4c.84,0,1.18.4,1,1.2l-.82,3.54a1.38,1.38,0,0,1-1.51,1.19H266.63v5.18c0,.84-.4,1.2-1.2,1.07l-5.55-.94a1.31,1.31,0,0,1-1.2-1.46V67.33H235.4c-.84,0-1.18-.4-1-1.19l.82-3.54a1.38,1.38,0,0,1,1.51-1.2h22V58.5H243.92a2.68,2.68,0,0,1-3-3V41a2.68,2.68,0,0,1,3-3h37.79a2.68,2.68,0,0,1,3,3V55.47a2.68,2.68,0,0,1-3,3H266.63v2.9Zm-.31-31.67c.84,0,1.17.4,1,1.2l-.82,3.53a1.39,1.39,0,0,1-1.52,1.2H235.65c-.84,0-1.18-.4-1-1.2l.82-3.53a1.39,1.39,0,0,1,1.52-1.2h11.35q-1.58-3.8,2.15-4.48l1.39-.32H239.56c-.84,0-1.17-.4-1-1.2l.82-3.47a1.36,1.36,0,0,1,1.46-1.2h18.1l-1-2.27c-.3-.76,0-1.13.82-1.13l5.49-.32a1.91,1.91,0,0,1,1.83,1.14l1.19,2.58h19c.84,0,1.17.4,1,1.2l-.82,3.47a1.39,1.39,0,0,1-1.52,1.2H274l1.57.32c2.49.38,3.07,1.87,1.77,4.48ZM249.85,42.92a1.44,1.44,0,0,0-1.64,1.64v1.32H277V44.56a1.44,1.44,0,0,0-1.64-1.64Zm-1.64,7.63v1.39a1.45,1.45,0,0,0,1.64,1.64H275.4A1.45,1.45,0,0,0,277,51.94V50.55Zm23-25.62H254.27l2.14,4.8h12.81Z"/><rect class="cls-1" x="303.13" y="52.26" width="6.62" height="8.75" transform="translate(-1.71 103.07) rotate(-19.04)"/><rect class="cls-2" x="305.58" y="60.46" width="8.39" height="11.67" rx="0.75" transform="translate(-4.68 104.69) rotate(-19.04)"/><circle class="cls-2" cx="299.21" cy="35.66" r="19.83"/><path class="cls-3" d="M304.11,49.88a15,15,0,1,1,9.31-19.13A15.06,15.06,0,0,1,304.11,49.88Z"/><path class="cls-4" d="M306.18,46.73a.78.78,0,0,1-.7-.42.79.79,0,0,1,.33-1.06,10.22,10.22,0,0,0,5.05-7.09,12.11,12.11,0,0,0-1.53-8.91.79.79,0,1,1,1.34-.82,13.65,13.65,0,0,1,1.73,10,11.78,11.78,0,0,1-5.86,8.17A.69.69,0,0,1,306.18,46.73Z"/><path class="cls-4" d="M308.14,27.49a.79.79,0,0,1-.67-.37,3.12,3.12,0,0,0-.83-.82.79.79,0,0,1,.85-1.32,4.57,4.57,0,0,1,1.32,1.32.78.78,0,0,1-.26,1.08A.74.74,0,0,1,308.14,27.49Z"/><path d="M292.52,35.59l1.24-5.32c.25-1.2-.26-1.81-1.52-1.81H286a15.09,15.09,0,0,0-1.75,8.93h6A2.08,2.08,0,0,0,292.52,35.59Z"/></g></svg>