<svg xmlns="http://www.w3.org/2000/svg" viewBox="0 0 360 169"><defs><style>.cls-1{fill:#fae7e7;}.cls-2{fill:none;stroke:#000;stroke-linecap:round;stroke-linejoin:round;stroke-width:1.48px;}.cls-3{fill:#f56977;}.cls-4{fill:#efefef;}.cls-5{fill:#fff;}.cls-6{fill:#27b5f7;}.cls-7{fill:#f8c341;}</style></defs><g id="圖"><path class="cls-1" d="M203.88,119c-3.57-.63-7.23,3.2-12.78,4.33-13.95,2.85-32.82,4.78-35.21,8.41,0,0,.47,16,13.37,14.58.63-1.28,20.29-2.27,28.22-1.48a3.36,3.36,0,0,1,2.36.88C207.91,154.92,222,142.46,222,133c0,0,1-7.93-6.23-5.21C215.79,127.77,216.45,121.23,203.88,119Z"/><path class="cls-2" d="M207.28,126.16a16.8,16.8,0,0,1-3.35-2.34,9.07,9.07,0,0,1-6.68,3.71"/><path class="cls-1" d="M218.79,146.17a14.4,14.4,0,0,0,6.52-8.86c1.11-4.3,1-9.44-2.19-10.33-1.83-.51-3.15,1.35-3.43,1.8-.45.72-.89.47-1.34,1.19a15.52,15.52,0,0,1-1.82,2.52c-.72.78-1.6,1.4-2.33,2.17a16.53,16.53,0,0,0-2.65,4.38c-.69,1.47-4,6.73-1.72,7.74a7.09,7.09,0,0,0,3,.3A12.2,12.2,0,0,0,218.79,146.17Z"/><path class="cls-2" d="M215.19,129.21a4.46,4.46,0,0,0-4.75,2,6,6,0,0,0-3.12-.09,3.15,3.15,0,0,0-2.21,2.05c-.52,1.75-1.35,6.2-2.49,7.35"/><path class="cls-1" d="M90.69,38.1c1.11-22.62,15.5-29.73,29.36-28.64,14.4,1.14,23.54,11.51,23.78,34.2.12,12-7.42,23.15-17.32,25.72a.55.55,0,0,0-.15.08A2.91,2.91,0,0,0,125,72.17l.56,8a7.21,7.21,0,0,1-8,6.27L106.11,85a6.18,6.18,0,0,1-5.39-6.88l2.62-8.69a2.93,2.93,0,0,0-.55-2.76,2.28,2.28,0,0,0-.27-.27C94.86,60.28,90.11,50.08,90.69,38.1Z"/><path class="cls-2" d="M134.54,50.13c-2.15,2.61-7.43,2.66-9.57,1.61"/><path class="cls-2" d="M128.25,31.8s.46,8.54.77,12.86"/><ellipse cx="136.28" cy="37.96" rx="3.22" ry="1.36" transform="translate(95.37 173.37) rotate(-88.76)"/><ellipse cx="119.84" cy="38.59" rx="3.68" ry="1.55" transform="translate(78.65 157.56) rotate(-88.76)"/><path class="cls-3" d="M140.56,84.48c.26-.41,17.52,20.43,24.32,31.65,1.24,2,3.31,6.83,1.67,8.46-2.72,2.7-6.86,6.86-10.93,11.16-1.35,1.44-4.27.8-5.66-.62l-11.05-11.52Z"/><path class="cls-3" d="M83.86,82.11c9.6-11,16.51-9.44,19.56-9.4,12.41,6.24,23.11,4.07,25,2.81l.53.25c15.1,7,25.6,22.42,27.56,40.12,2.46,22.16,2,36.62,1.64,53.11h-85c-.24-6.27-.66-16.47-.87-22.2l-3.52-.14C67.82,117.4,72.08,95.62,83.86,82.11Z"/><path class="cls-1" d="M87.94,153.58s-.14-3.37-.19-5.84A1.66,1.66,0,0,0,86.22,146c-3,0-13.92.78-13.92.78v8.26A81.49,81.49,0,0,0,75,168.93H95.72C93.66,165.36,88.76,156.51,87.94,153.58Z"/><path class="cls-2" d="M92.33,142.44A164.34,164.34,0,0,1,93,111.79"/><polygon class="cls-4" points="229.36 24.77 230.58 26.01 231.88 27.13 233.05 28.42 233.52 30.12 233.21 31.81 232.52 33.35 231.66 34.84 230.52 36.12 229.49 37.5 228.58 38.97 227.49 40.29 226.34 41.6 225.49 43.1 224.8 44.69 224.38 46.38 223.92 48.05 224.06 49.79 223.82 51.5 223.77 53.23 223.62 54.96 223.7 56.72 223.11 58.38 222.82 60.09 222.36 61.78 221.88 63.46 220.96 64.96 220.39 66.62 219.27 67.98 218.17 69.33 217.12 70.7 216.01 72.07 214.51 73 212.91 73.67 211.3 74.26 209.64 74.72 207.92 75.06 206.18 74.88 204.51 74.37 202.81 74.03 201.12 73.58 199.6 72.75 198.16 71.78 196.62 70.97 195.49 69.63 194.16 68.53 193.05 67.21 192.16 65.74 191.2 64.31 190.62 62.68 189.82 61.13 189.47 59.44 189.22 57.74 189.05 56.03 188.8 54.32 188.69 52.59 188.97 50.87 189.26 49.17 189.22 47.42 189.77 45.77 189.93 44.03 190.58 42.42 191 40.74 191.86 39.17 192.45 37.5 193.11 35.85 194.1 34.37 195.22 32.99 196.17 31.49 197.24 30.07 198.57 28.89 199.74 27.55 201.15 26.46 202.74 25.64 204.17 24.6 205.68 23.65 207.37 23.08 209.04 22.53 210.74 22.03 212.4 21.36 214.17 21.18 215.94 21.14 217.71 21.17 219.47 21.31 221.2 21.6 222.98 21.73 224.62 22.42 226.22 23.15 227.91 23.75 229.36 24.77"/><circle class="cls-5" cx="222.05" cy="30.75" r="3.85"/><path class="cls-6" d="M202.32,56.84c2.91.31,6.05,2.24,5.73,5.14s-4,5.7-6.88,5.38a5.29,5.29,0,1,1,1.15-10.52Z"/><path class="cls-7" d="M201.57,42.28c2.76,1,5.69,3.63,4.73,6.39s-5.44,4.57-8.2,3.61a5.29,5.29,0,0,1,3.47-10Z"/><path class="cls-3" d="M209.13,29.81c2.76,1,5.26,5.14,4.3,7.9s-5,3.06-7.77,2.1a5.29,5.29,0,1,1,3.47-10Z"/><polyline class="cls-2" points="212.13 68.5 213.61 67.64 214.74 66.36 216.04 65.22 216.99 63.79 217.84 62.31 218.4 60.7 218.75 59.03 219.42 57.44 219.34 55.71"/><ellipse class="cls-3" cx="191.25" cy="95.99" rx="4.54" ry="3.27" transform="translate(28.95 235.45) rotate(-67.32)"/><path class="cls-3" d="M193.43,92l-.72,1.06L173.4,80a.61.61,0,0,1-.11-.85h0a.62.62,0,0,1,.83-.21Z"/><path class="cls-3" d="M181.15,78.4c-1.42.35-4.35,2-7.05.54v0l4.76,3.23s4-4,7.05-1.9a7,7,0,0,1,2.74,3.8.45.45,0,0,0,.63.23h0a.59.59,0,0,0,.34-.64,8,8,0,0,0-3-5C184.5,77.31,182.66,78,181.15,78.4Z"/><ellipse class="cls-3" cx="232.96" cy="59.08" rx="2.55" ry="3.54" transform="translate(22.7 175.5) rotate(-43.2)"/><path class="cls-3" d="M235.08,61.89l-.52-.84L250,51.47a.48.48,0,0,1,.64.19h0a.48.48,0,0,1-.12.66Z"/><ellipse class="cls-3" cx="232.84" cy="59.07" rx="1.15" ry="2.71" transform="translate(45.14 208.97) rotate(-52.85)"/><polyline class="cls-2" points="203.99 112.89 203.98 111.31 203.69 109.76 203.58 108.18 203.63 106.6 203.87 105.04 204.25 103.52 204.75 102.02 205.6 100.69 206.62 99.5 207.75 98.43 208.8 97.25 210.1 96.36 211.43 95.52 212.54 94.76 213.83 94.33 215.09 93.83 216.61 93.79 217.95 94.43 219.2 95.2 219.84 96.52 220.4 98.18 220.19 99.94 219.07 101.26 217.72 102.29 216.19 102.99 214.66 103.07 213.19 102.48 212.76 100.94 212.66 99.39 212.7 97.83 213.27 96.37 213.48 94.83 213.99 93.36 214.46 91.88 215.34 90.57 215.77 89.05 216.6 87.73 217.5 86.46 218.42 85.21 219.16 83.84 220.22 82.69 221.22 81.51 222.24 80.34 223.09 79.01"/><polyline class="cls-2" points="162.11 34.53 163.67 35.15 165.25 35.78 166.66 36.73 168 37.77 169.14 39.02 170.44 40.1 171.55 41.37 172.55 42.74 173.23 44.3 174.12 45.73 174.53 47.37 175.07 48.96 175.11 50.73 174.21 52.09 172.69 52.82 170.98 53.23 169.3 52.73 167.95 51.74 166.85 50.54 166.94 48.89 167.86 47.58 169.43 46.66 171.24 46.87 172.93 47.47 174.53 48.31 175.74 49.53 176.88 50.81 177.93 52.15 178.71 53.68 179.73 55.06 180.47 56.67 181.12 58.31 181.88 59.91 182.42 61.59 182.79 63.32 183.3 65 183.7 66.71 184.28 68.39"/></g></svg>