<svg xmlns="http://www.w3.org/2000/svg" viewBox="0 0 270.26 71.93"><defs><style>.cls-1{fill:#232323;}.cls-2{fill:#e5e5e5;}.cls-3{fill:#fff;}.cls-4{fill:#f8c341;}.cls-5{fill:none;}</style></defs><g id="框"><path class="cls-1" d="M83.27,45.39H97.82c.48,0,.69.23.61.68l-.54,3a.75.75,0,0,1-.83.69H66.44c-.48,0-.69-.23-.61-.69l.54-3a.75.75,0,0,1,.83-.68H78.65V18.92c0-.48.22-.69.68-.62l3.25.54a.76.76,0,0,1,.69.84v8.84h12c.48,0,.69.23.62.69l-.55,3a.74.74,0,0,1-.83.68H83.27Z"/><path class="cls-1" d="M118.08,23.72c.48,0,.67.23.58.69l-.47,2a.79.79,0,0,1-.87.68H105.69c-.48,0-.67-.22-.58-.68l.47-2a.8.8,0,0,1,.87-.69h4.73l-2-3.94c-.21-.41-.09-.67.37-.79l2.27-.58a.87.87,0,0,1,1,.43L114,20.9a1.52,1.52,0,0,1-.72,2.35l-.87.47ZM138,36.65l-.55,2.42a.75.75,0,0,1-.83.68h-4.51a22.58,22.58,0,0,0,6.5,6.65c.41.24.43.5.07.79l-2.38,1.92a.76.76,0,0,1-1.05,0,23.86,23.86,0,0,1-4.87-5.85v7.47c0,.48-.23.69-.69.61l-2.82-.54a.75.75,0,0,1-.68-.83V43.62c-1.93,2.81-3.61,4.68-5.06,5.59a1.49,1.49,0,0,1-2.31-.36c-.63-.77-1.14-.66-1.55.33l-1.12.32h-7.91a1.52,1.52,0,0,1-1.73-1.73V40.29a1.53,1.53,0,0,1,1.73-1.73h7.91a1.53,1.53,0,0,1,1.73,1.73v5.1c0,.62.25.77.76.43a19,19,0,0,0,5.78-6.07h-5.2c-.48,0-.69-.23-.62-.68l.55-2.42A.74.74,0,0,1,120,36h6.21V33.83h-4.91a1.53,1.53,0,0,1-1.74-1.73V20.87a1.54,1.54,0,0,1,1.74-1.74h14.26a1.53,1.53,0,0,1,1.73,1.74V32.1a1.53,1.53,0,0,1-1.73,1.73h-5.16V36h7C137.84,36,138.05,36.19,138,36.65Zm-21.06-7.91c.48,0,.68.23.58.69L117,31.3a.79.79,0,0,1-.87.69h-8.88c-.48,0-.67-.23-.58-.69l.47-1.87a.8.8,0,0,1,.87-.69Zm-9.64,8.12c-.48,0-.67-.22-.58-.68l.47-1.88a.8.8,0,0,1,.87-.69h8.88c.48,0,.68.23.58.69L117,36.18a.79.79,0,0,1-.87.68ZM113.2,46a.83.83,0,0,0,.94-.94V42.93a.83.83,0,0,0-.94-.94H111a.83.83,0,0,0-.94.94V45.1A.83.83,0,0,0,111,46Zm11.09-23.55a.83.83,0,0,0-.94.94v1.41h3V22.49Zm-.94,5.63V29.5a.83.83,0,0,0,.94.94h2.09V28.12Zm9.93-3.28V23.43a.83.83,0,0,0-.94-.94H130.1v2.35Zm-.94,5.6a.83.83,0,0,0,.94-.94V28.12H130.1v2.32Z"/><path class="cls-1" d="M152.24,24.91l5.6.36c1.18.07,1.69.81,1.55,2.21A39.91,39.91,0,0,1,156.07,41a24.8,24.8,0,0,1,3.57,3.68c.27.29.23.6-.11.94l-2.16,2.2c-.34.34-.64.34-.91,0a20.11,20.11,0,0,0-2.56-2.85,20.4,20.4,0,0,1-6.46,6.14c-.41.26-.73.19-.94-.22l-1.37-2.49a.69.69,0,0,1,.29-1c1.82-.87,3.61-2.65,5.34-5.35a52.17,52.17,0,0,0-4.48-3.68,2,2,0,0,1-.72-2.28,65.77,65.77,0,0,0,1.77-7.18h-1.84c-.48,0-.69-.23-.62-.69l.55-2.56a.74.74,0,0,1,.83-.69h1.84l.9-6.39c0-.46.3-.64.76-.54l2.78.76a.67.67,0,0,1,.58.86ZM155,29.86c.1-.68-.16-1-.79-1h-2.74c-.44,2.28-.91,4.32-1.41,6.1a1.34,1.34,0,0,0,.5,1.48l2.21,1.7A30.25,30.25,0,0,0,155,29.86ZM177.7,32.6c.48,0,.68.23.61.69L177.77,36a.75.75,0,0,1-.83.68H171.2V46.83a6,6,0,0,1-.43,2.56,2.94,2.94,0,0,1-1.56,1.41,13.44,13.44,0,0,1-5.34.69c-.65,0-1-.23-1.12-.69l-.58-2.67c-.1-.46.07-.68.51-.68h3.25a.88.88,0,0,0,.61-.15.67.67,0,0,0,.18-.54V36.68h-6.9c-.48,0-.68-.23-.61-.68l.54-2.71a.75.75,0,0,1,.83-.69h6.14V29.17a21.12,21.12,0,0,0,3.79-4.4c.41-.6.3-.91-.32-.91h-8.92c-.48,0-.69-.22-.62-.68l.55-2.53A.74.74,0,0,1,162,20l12.2-.21a1.5,1.5,0,0,1,1.19.54L176.9,22a.87.87,0,0,1,.08,1.15,34.93,34.93,0,0,1-5.78,6.75V32.6Z"/><path class="cls-1" d="M192,24.91l5.6.36c1.18.07,1.7.81,1.55,2.21A39.68,39.68,0,0,1,195.79,41a24.28,24.28,0,0,1,3.57,3.68c.27.29.23.6-.1.94l-2.17,2.2q-.51.51-.9,0a20.47,20.47,0,0,0-2.57-2.85,20.4,20.4,0,0,1-6.46,6.14.58.58,0,0,1-.94-.22l-1.37-2.49a.69.69,0,0,1,.29-1Q187.89,46,190.48,42A52.17,52.17,0,0,0,186,38.31a2,2,0,0,1-.72-2.28,63.48,63.48,0,0,0,1.77-7.18h-1.84c-.48,0-.69-.23-.61-.69l.54-2.56a.75.75,0,0,1,.83-.69h1.84l.9-6.39c0-.46.3-.64.76-.54l2.78.76a.67.67,0,0,1,.58.86Zm2.75,4.95c.09-.68-.17-1-.8-1h-2.74c-.44,2.28-.9,4.32-1.41,6.1a1.33,1.33,0,0,0,.51,1.48l2.2,1.7A30.28,30.28,0,0,0,194.71,29.86Zm22.71,2.74c.48,0,.69.23.61.69L217.49,36a.75.75,0,0,1-.83.68h-5.74V46.83a5.88,5.88,0,0,1-.43,2.56,2.94,2.94,0,0,1-1.56,1.41,13.44,13.44,0,0,1-5.34.69c-.65,0-1-.23-1.12-.69l-.58-2.67c-.09-.46.08-.68.51-.68h3.25a.86.86,0,0,0,.61-.15.67.67,0,0,0,.18-.54V36.68h-6.89c-.49,0-.69-.23-.62-.68l.54-2.71a.75.75,0,0,1,.83-.69h6.14V29.17a21.12,21.12,0,0,0,3.79-4.4c.41-.6.3-.91-.32-.91H201c-.48,0-.69-.22-.61-.68l.54-2.53a.75.75,0,0,1,.83-.69l12.2-.21a1.52,1.52,0,0,1,1.2.54l1.48,1.7a.88.88,0,0,1,.07,1.15,34.93,34.93,0,0,1-5.78,6.75V32.6Z"/><path class="cls-1" d="M236.49,40.33c.45-.09.68.1.68.58l-.1,2.49a.79.79,0,0,1-.55.87l-6.17,1.62-5.49,1.41c-.19.05-.29-.17-.29-.65l-.14-2.85a.81.81,0,0,1,.72-.87l3.5-.72V34.73h-3.18c-.48,0-.68-.23-.61-.68l.54-2.57a.75.75,0,0,1,.83-.68h2.42V24.41h-3.54c-.48,0-.68-.23-.61-.69l.54-2.6a.75.75,0,0,1,.83-.69H236c.48,0,.69.23.62.69l-.55,2.6a.75.75,0,0,1-.83.69H232.8V30.8h2.86c.48,0,.68.23.61.68l-.54,2.57a.75.75,0,0,1-.83.68h-2.1v6.5Zm16.1,7h1.27c.29,0,.48-.3.58-.9a17,17,0,0,0,.18-3c0-.73.21-.94.57-.65l2.6,2a1.49,1.49,0,0,1,.47,1.37,7.57,7.57,0,0,1-1,3.65,3.2,3.2,0,0,1-3,1.55h-2.46c-1.63,0-2.73-.39-3.28-1.16s-.8-2.14-.8-4.19V34.55H245.3c-.1,1.88-.24,3.47-.43,4.77a22,22,0,0,1-.91,4,11.15,11.15,0,0,1-1.73,3.43,12.39,12.39,0,0,1-2.78,2.64A8.11,8.11,0,0,1,237,50.77a2,2,0,0,1-2.71-1c-.92-1-.66-1.85.76-2.42l1.3-.51a2.85,2.85,0,0,1,.94-.9,7.18,7.18,0,0,0,1.55-1.52,8.18,8.18,0,0,0,1.37-2.74,18.23,18.23,0,0,0,.69-3.18l.29-3.94h-3.36c-.48,0-.69-.23-.62-.68l.55-2.75a.72.72,0,0,1,.79-.68H257c.48,0,.69.23.62.68L257,33.87a.74.74,0,0,1-.83.68H252V47.08A.68.68,0,0,0,252.59,47.3Zm2.53-27c.48,0,.69.22.62.68l-.55,2.71a.75.75,0,0,1-.83.69H239.23c-.48,0-.68-.23-.61-.69l.54-2.71a.74.74,0,0,1,.83-.68Z"/><rect class="cls-2" x="11.84" y="19.57" width="26.24" height="31.97" rx="5.78" transform="translate(-11.53 11.99) rotate(-22.08)"/><rect class="cls-3" x="24.65" y="20.76" width="26.24" height="31.97" rx="7.02" transform="translate(16.65 -11.53) rotate(22.15)"/><circle class="cls-3" cx="37.77" cy="36.75" r="7.37"/><path d="M37.77,44.77l-.46,0a8,8,0,0,1-7.55-8.46.66.66,0,0,1,.69-.61.64.64,0,0,1,.61.68,6.72,6.72,0,0,0,13.42.77.65.65,0,0,1,1.3.07A8,8,0,0,1,37.77,44.77Z"/><rect class="cls-4" x="27.16" y="19.57" width="26.24" height="31.97" rx="5.78" transform="translate(16.38 -12.57) rotate(22.15)"/><circle class="cls-3" cx="40.28" cy="35.56" r="7.37"/><path d="M44.66,42.13a.64.64,0,0,1-.52-.26.64.64,0,0,1,.13-.91,6.78,6.78,0,0,0,2.72-5,.65.65,0,0,1,1.3.07,8.11,8.11,0,0,1-3.24,6A.71.71,0,0,1,44.66,42.13Z"/><rect class="cls-5" width="270.26" height="71.93"/></g></svg>