<svg xmlns="http://www.w3.org/2000/svg" viewBox="0 0 270.26 71.93"><defs><style>.cls-1{fill:#232323;}.cls-2{fill:#ededed;}.cls-3{fill:#f76977;}.cls-4{fill:#ffe9e9;}.cls-5{fill:none;}</style></defs><g id="框"><path class="cls-1" d="M72.61,18.55q.26-.68.87-.36l2.46,1.38a.69.69,0,0,1,.36,1,52.8,52.8,0,0,1-2.82,5.89V50.69c0,.48-.23.69-.68.62l-2.89-.54a.75.75,0,0,1-.69-.83V33a24.68,24.68,0,0,1-1.81,2.23q-.47.48-.72-.18l-1.33-3.5a1,1,0,0,1,.21-1.15,26.31,26.31,0,0,0,3.76-5.1A34.23,34.23,0,0,0,72.61,18.55ZM85.18,47.08h7.3a2.14,2.14,0,0,0,2-.9,7.85,7.85,0,0,0,.69-3c.07-.7.3-.91.69-.65l2.52,1.92a1.16,1.16,0,0,1,.44,1.26,6.17,6.17,0,0,1-1.45,3.72Q96.16,50.94,92.8,51h-8c-2.58,0-4.32-.45-5.24-1.34s-1.37-2.54-1.37-5V34.73l-2.06.8c-.43.17-.69,0-.79-.44l-.69-2.67a.75.75,0,0,1,.54-.94l3-1.19v-7.8c0-.48.23-.69.69-.61l2.89.54a.75.75,0,0,1,.68.83v5.38L86,27.26V18.63c0-.48.22-.69.68-.62l2.64.54a.75.75,0,0,1,.68.84v6.32l5-2.39,1.37.54a1.76,1.76,0,0,1,1.23,2.21l-.15.54a100.85,100.85,0,0,1,0,10.69,3.57,3.57,0,0,1-2.06,3.25,7.07,7.07,0,0,1-3.1.54c-.63,0-.94-.28-.94-.76l0-2.42c0-.48.23-.72.68-.72h.54c.49,0,.8-.29.94-.87a54.4,54.4,0,0,0,.18-6.14c0-1.06-.25-1.48-.83-1.26L90,30.07V42.21c0,.48-.22.68-.68.61l-2.64-.54a.74.74,0,0,1-.68-.83V31.66L82.47,33V44.59a3,3,0,0,0,.47,2.06A3.71,3.71,0,0,0,85.18,47.08Z"/><path class="cls-1" d="M112.05,18.12l2.49,1.23a.73.73,0,0,1,.36,1L112.66,26V50.73c0,.48-.23.69-.68.61l-2.71-.54a.75.75,0,0,1-.69-.83V33.4a22.83,22.83,0,0,1-1.8,2.45c-.29.34-.51.28-.65-.18l-1.2-3.75a1.26,1.26,0,0,1,.18-1.2q3.72-4.29,6-12.06Q111.44,17.81,112.05,18.12Zm11.55,1.55a1.54,1.54,0,0,1,1.74,1.74V31.7a1.53,1.53,0,0,1-1.74,1.73h-4.47V50.66c0,.48-.23.68-.69.61l-2.6-.54a.75.75,0,0,1-.69-.83V21.41a1.54,1.54,0,0,1,1.74-1.74Zm-1.51,4.19a.84.84,0,0,0-.94-.94h-1.09a.83.83,0,0,0-.93.94V25h3Zm-3,6.32h2a.83.83,0,0,0,.94-.94V28.05h-3ZM136,19.67a1.54,1.54,0,0,1,1.74,1.74V46.47a6.72,6.72,0,0,1-.44,2.74,2.79,2.79,0,0,1-1.51,1.41q-1.69.8-6.11.76c-.69,0-1.07-.19-1.12-.65L128.08,48c-.05-.46.18-.67.69-.65.94.05,2.22,0,3.86,0a1.11,1.11,0,0,0,.72-.18,1,1,0,0,0,.22-.73v-13h-4.88A1.53,1.53,0,0,1,127,31.7V21.41a1.53,1.53,0,0,1,1.73-1.74Zm-2.38,4.19a.83.83,0,0,0-.94-.94H131.3a.83.83,0,0,0-.94.94V25h3.21Zm-3.21,5.38a.83.83,0,0,0,.94.94h2.27V28.05h-3.21Z"/><path class="cls-1" d="M167.37,23.32h8.38a1.56,1.56,0,0,1,1.77,1.77l0,.4q-.36,12.42-.83,17.33c-.29,3.25-.79,5.33-1.52,6.25a5.22,5.22,0,0,1-3.46,2,28,28,0,0,1-4.7.08q-1,0-1.08-.69l-.54-2.74c-.07-.46.11-.68.54-.65.67.07,2,.11,4.08.11a2.16,2.16,0,0,0,1.59-.62c.51-.58.9-2.31,1.19-5.2s.51-7.18.65-12.82c0-.86-.24-1.3-.87-1.3h-6.78a22.34,22.34,0,0,1-2.24,4.3c-.63.94-1.3,1.13-2,.58a8.32,8.32,0,0,0-1.69-1.19V46a1.53,1.53,0,0,1-1.74,1.73H148A1.53,1.53,0,0,1,146.25,46V25.31A1.53,1.53,0,0,1,148,23.57h2.35l.93-5.12a.56.56,0,0,1,.8-.51l3.07,1a.57.57,0,0,1,.43.86l-1.37,3.79h3.86a1.54,1.54,0,0,1,1.74,1.74v4.11a32.69,32.69,0,0,0,4.66-10.79c.14-.56.43-.75.86-.58l2.6,1.16a.67.67,0,0,1,.44.93Zm-11.48,9.86V28.27a.83.83,0,0,0-.94-.94h-3.87a.83.83,0,0,0-.93.94v4.91ZM150.15,43a.83.83,0,0,0,.93.94H155a.83.83,0,0,0,.94-.94V36.9h-5.74Zm21.08-3.76c.2.34.08.6-.36.8l-2.6,1.19c-.43.19-.74.12-.94-.22a49.44,49.44,0,0,0-4-6.53c-.33-.56-.27-.89.18-1l2.57-.68a1.11,1.11,0,0,1,1.22.58A48.11,48.11,0,0,1,171.23,39.28Z"/><path class="cls-1" d="M218.07,24.87l-.54,2.68a.75.75,0,0,1-.83.68h-.83A39.46,39.46,0,0,1,211.35,42a16.69,16.69,0,0,0,6.54,5.48c.46.22.52.49.18.8l-2.64,2.42a.87.87,0,0,1-1.15.07,16.11,16.11,0,0,1-5.67-5.06,20.25,20.25,0,0,1-6.39,4.88c-1.16.6-2,.42-2.42-.54.07-.1-.46-.84-1.59-2.24h-8.34v1.41c0,.48-.23.68-.69.61l-2.6-.54a.74.74,0,0,1-.68-.83V35.67a1.53,1.53,0,0,1,1.73-1.73h3.07V28.38h-5.56c-.48,0-.69-.23-.62-.69l.55-2.64a.74.74,0,0,1,.83-.68h4.8V18.48c0-.48.23-.68.68-.61l2.93.54a.75.75,0,0,1,.69.83v5.13h5.2c.48,0,.68.23.61.68l-.54,2.64a.75.75,0,0,1-.83.69H195v5.56h2.49c1,0,1.37-.51,1.15-1.52q3.83-4.11,5.31-13.72.18-.94.87-.72l2.89,1a.67.67,0,0,1,.5.9l-1,4.34h10.29C217.94,24.19,218.14,24.42,218.07,24.87ZM194.71,43.76a.83.83,0,0,0,.94-.94V38.89a.83.83,0,0,0-.94-.94h-3.9a.83.83,0,0,0-.94.94v4.87Zm5.45-8.88c-.29-.24-.43-.05-.43.58V46c0,.63.28.8.86.51A16.6,16.6,0,0,0,206.23,42a40.59,40.59,0,0,1-3.11-8.17l-.58.8A1.4,1.4,0,0,1,200.16,34.88Zm11.41-6.65h-5.71a39.78,39.78,0,0,0,3,9.61A33.92,33.92,0,0,0,211.57,28.23Z"/><path class="cls-1" d="M257,38.16c.48,0,.68.23.58.69l-.47,1.91a.79.79,0,0,1-.87.69h-2.27V47c0,.48-.23.69-.69.61l-3-.54a.75.75,0,0,1-.69-.83h-6.5v1.12a4.91,4.91,0,0,1-.43,2.35A2.81,2.81,0,0,1,241.15,51a15.88,15.88,0,0,1-5.35.58c-.7,0-1.09-.19-1.19-.65l-.51-2c-.09-.45.08-.67.51-.65h3.18a1.07,1.07,0,0,0,.68-.21.94.94,0,0,0,.22-.69V46.25H228.43c-.48,0-.67-.23-.57-.68l.47-1.74a.78.78,0,0,1,.86-.68h9.5v-1.7H225.11c-.48,0-.67-.23-.58-.69l.47-1.91a.8.8,0,0,1,.87-.69h12.82V36.61h-10q-.72,0-.54-.69l.4-1.51a.84.84,0,0,1,.9-.69h9.21V32.13h-8.05a1.53,1.53,0,0,1-1.74-1.73V26.72A1.54,1.54,0,0,1,230.64,25h8.05V23.5H225.94c-.48,0-.67-.23-.58-.68l.47-2a.8.8,0,0,1,.87-.68h12V18.48c0-.48.23-.68.69-.61l3,.54a.75.75,0,0,1,.69.83v.87h13.07c.48,0,.68.23.58.68l-.47,2a.8.8,0,0,1-.87.68H243.06V25h8.52a1.54,1.54,0,0,1,1.74,1.74V30.4a1.53,1.53,0,0,1-1.74,1.73h-8.52v1.59h9.14a1.53,1.53,0,0,1,1.73,1.74v2.7ZM233,28.63c0,.53.31.79.94.79h4.73V27.69H234A.83.83,0,0,0,233,28.63Zm15.89-.14c0-.53-.31-.8-.94-.8h-4.91v1.73H248A.83.83,0,0,0,248.91,28.49Zm-5.85,8.12v1.55h6.5v-.61c0-.63-.3-.94-.9-.94Zm6.5,6.54v-1.7h-6.5v1.7Z"/><rect class="cls-2" x="19.3" y="16.31" width="31.7" height="40.04" transform="translate(7.13 -5.75) rotate(10.4)"/><rect class="cls-3" x="14.59" y="15.91" width="30.03" height="38.79" transform="translate(6.86 -4.76) rotate(10.4)"/><path class="cls-3" d="M40.87,58.12l-.19,0L11.15,52.68a1,1,0,0,1-.83-1.19l7-38.15a1,1,0,0,1,.43-.66,1,1,0,0,1,.77-.17l29.53,5.42a1,1,0,0,1,.83,1.2l-7,38.15a1.06,1.06,0,0,1-.43.66A1,1,0,0,1,40.87,58.12ZM12.53,50.85,40,55.9l6.63-36.14-27.51-5Z"/><ellipse class="cls-4" cx="30.11" cy="34.04" rx="10.33" ry="9.08" transform="translate(-8.8 57.52) rotate(-79.6)"/><path d="M29.7,36.63h-.08a.48.48,0,0,1-.41-.57l.95-5.73a.49.49,0,0,1,.57-.41.49.49,0,0,1,.41.58l-.95,5.72A.49.49,0,0,1,29.7,36.63Z"/><ellipse cx="33.89" cy="33.57" rx="1.13" ry="0.48" transform="translate(-5.24 60.84) rotate(-79.6)"/><path d="M33.72,35.18H33.6a.76.76,0,0,1-.49-.33,2.44,2.44,0,0,1,.5-2.74.74.74,0,0,1,.58-.14.75.75,0,0,1,.48.33,2,2,0,0,1,.18,1.45h0a2.8,2.8,0,0,1-.35.95A.94.94,0,0,1,33.72,35.18Zm.64-1.53h0Z"/><ellipse cx="26.75" cy="32.25" rx="1.13" ry="0.48" transform="translate(-9.8 52.74) rotate(-79.6)"/><path d="M26.58,33.87h-.13c-.56-.11-.84-.84-.66-1.78s.68-1.53,1.25-1.43.84.82.67,1.78h0A2,2,0,0,1,27,33.72.71.71,0,0,1,26.58,33.87Zm.63-1.53h0Z"/><path d="M30.57,39.5a4,4,0,0,1-2.22-.71.5.5,0,1,1,.59-.81h0a2.61,2.61,0,0,0,3.28-.17.5.5,0,0,1,.71,0,.5.5,0,0,1,0,.71A3.34,3.34,0,0,1,30.57,39.5Z"/><line class="cls-3" x1="55.01" y1="20.25" x2="48.01" y2="58.4"/><path class="cls-3" d="M48,59.43l-.19,0A1,1,0,0,1,47,58.22l7-38.15a1,1,0,0,1,1.19-.83,1,1,0,0,1,.83,1.2L49,58.59A1,1,0,0,1,48,59.43Z"/><rect class="cls-5" width="270.26" height="71.93"/></g></svg>