<svg xmlns="http://www.w3.org/2000/svg" viewBox="0 0 360 169"><defs><style>.cls-1{fill:#d3d4d4;}.cls-2{fill:#27b5f7;}.cls-3{fill:#f0f0f0;}.cls-4,.cls-5,.cls-6,.cls-7,.cls-8,.cls-9{fill:none;}.cls-11,.cls-4,.cls-5,.cls-6,.cls-7,.cls-8,.cls-9{stroke:#000;stroke-linecap:round;stroke-linejoin:round;}.cls-4{stroke-width:5.67px;}.cls-5{stroke-width:1.51px;}.cls-6{stroke-width:3.25px;}.cls-7{stroke-width:0.86px;}.cls-8{stroke-width:2.78px;}.cls-11,.cls-9{stroke-width:0.74px;}.cls-10{fill:#f56977;}.cls-11,.cls-12{fill:#fff;}.cls-13{fill:#211815;}</style></defs><g id="_12" data-name="12"><polygon class="cls-1" points="42.74 144.57 41.03 144.31 39.37 143.88 37.61 143.87 35.98 143.23 34.29 142.94 32.58 142.75 30.88 142.44 29.26 141.76 27.52 141.67 25.85 141.24 24.17 140.86 22.46 140.62 20.76 140.3 19.09 139.8 17.83 138.9 16.97 137.68 16.87 136.17 17.34 134.47 17.69 132.75 18.03 131.02 18.25 129.26 18.84 127.59 18.82 125.78 19.55 124.14 19.84 122.4 20.13 120.66 20.36 118.9 20.73 117.18 20.98 115.43 21.32 113.7 21.97 112.04 22.36 110.32 22.65 108.58 23.01 106.85 23.48 105.15 23.86 103.42 24.29 101.71 24.51 99.96 24.91 98.24 25.17 96.49 25.8 94.82 25.89 93.04 26.27 91.32 26.53 89.57 27.07 87.88 27.35 86.14 27.54 84.38 28.31 82.74 28.56 81 28.83 79.25 29.39 77.57 29.71 75.83 30.06 74.1 30.2 72.33 30.6 70.61 31.16 68.93 31.66 67.23 32 65.5 32.1 63.72 32.67 62.03 32.78 60.25 33.2 58.53 33.75 56.85 34.05 55.1 34.43 53.38 34.78 51.65 35.26 49.94 35.54 48.2 35.89 46.47 36.19 44.72 36.64 43.01 37 41.27 37.34 39.53 37.55 37.76 38.27 36.33 39.72 35.76 41.26 35.24 42.94 35.59 44.61 36 46.21 36.77 47.97 36.78 49.6 37.33 51.27 37.76 53 37.91 54.63 38.53 56.34 38.75 58.01 39.19 59.68 39.62 61.45 39.58 63.08 40.27 64.8 40.47 66.2 41.16 66.99 42.49 67.07 44.02 66.57 45.72 66.23 47.45 66.26 49.25 65.41 50.87 65.1 52.61 64.71 54.33 64.75 56.13 64.01 57.78 63.96 59.57 63.51 61.28 63.24 63.02 62.7 64.71 62.34 66.44 61.81 68.13 61.58 69.88 61.42 71.64 61.04 73.37 60.54 75.07 60.24 76.8 59.78 78.51 59.47 80.25 59.21 81.99 58.9 83.73 58.1 85.36 57.84 87.11 57.65 88.87 57.14 90.57 56.85 92.31 56.72 94.09 56.13 95.76 55.81 97.49 55.62 99.25 54.97 100.91 54.89 102.7 54.36 104.39 53.75 106.06 53.45 107.8 53.37 109.59 52.64 111.23 52.47 113 52.12 114.73 51.83 116.48 51.3 118.17 51.11 119.93 50.61 121.64 50.52 123.42 50.15 125.15 49.33 126.78 49.05 128.52 48.68 130.25 48.29 131.97 47.94 133.71 47.9 135.51 47.49 137.23 46.89 138.91 46.74 140.69 46.23 142.4 45.43 143.67 44.31 144.78 42.74 144.57"/><polyline class="cls-2" points="147.47 161.97 143.71 162 139.97 161.65 136.34 160.57 132.66 159.96 129.03 159.03 125.6 157.53 122.18 156.06 118.64 154.77 115.6 152.56 112.35 150.68 109.26 148.54 106.43 146.06 104.16 143.04 101.41 140.49 99.16 137.49 97.01 134.42 95.19 131.15 93.17 127.98 91.74 124.51 90.45 121 89.17 117.47 88.25 113.83 87.71 110.12 86.99 106.44 86.67 102.7 86.98 98.95 86.63 95.15 87.43 91.41 87.8 87.65 88.33 83.88 89.78 80.35 90.81 76.7 92.03 73.1 94.12 69.9 95.65 66.42 97.78 63.28 100.12 60.3 102.32 57.19 104.92 54.41 107.8 51.93 110.93 49.78 113.86 47.38 116.9 45.09 120.33 43.46 123.77 41.87 127.14 40.11 130.74 38.91 134.48 38.2 138.11 37.07 141.88 36.59 145.68 36.53 149.45 36.09 153.25 36.15 156.99 36.92 160.77 37.23 164.51 37.87 168.15 38.95 171.64 40.45 175.23 41.68 178.7 43.24 182.03 45.06 185.18 47.19 188 49.74 190.96 52.1 193.73 54.68 196.48 57.29 198.72 60.35 201.2 63.23 203.2 66.46 205.08 69.76 206.7 73.18 208.19 76.67 209.13 80.35 210.59 83.88 210.91 87.68 211.67 91.39 211.87 95.17 211.91 98.95 212.26 102.75 211.83 106.53 210.95 110.22 210.55 114.01 209.2 117.57 208.33 121.28 206.69 124.71 204.78 127.99 203.1 131.38 201.04 134.56 199.03 137.79 196.36 140.51 193.77 143.27 191.13 146 188.24 148.46 185.02 150.49 181.81 152.48 178.63 154.55 175.24 156.24 171.61 157.36 168.07 158.68 164.46 159.81 160.79 160.78 157.05 161.47 153.24 161.47 149.45 161.82"/><polyline class="cls-3" points="147.89 148.67 144.92 148.7 141.97 148.42 139.11 147.57 136.21 147.09 133.35 146.36 130.64 145.17 127.94 144.01 125.15 143 122.75 141.25 120.19 139.77 117.76 138.08 115.52 136.13 113.73 133.74 111.56 131.73 109.79 129.36 108.09 126.95 106.65 124.37 105.06 121.87 103.93 119.13 102.92 116.36 101.91 113.58 101.19 110.71 100.76 107.78 100.19 104.88 99.93 101.93 100.18 98.97 99.91 95.97 100.53 93.03 100.83 90.05 101.25 87.08 102.39 84.3 103.2 81.42 104.17 78.58 105.81 76.06 107.02 73.31 108.7 70.84 110.55 68.48 112.28 66.03 114.33 63.84 116.6 61.88 119.07 60.19 121.39 58.3 123.78 56.49 126.49 55.2 129.19 53.95 131.85 52.56 134.7 51.61 137.64 51.06 140.51 50.16 143.48 49.79 146.47 49.74 149.45 49.4 152.45 49.44 155.4 50.05 158.38 50.29 161.33 50.79 164.2 51.65 166.95 52.83 169.78 53.8 172.52 55.03 175.15 56.47 177.63 58.15 179.86 60.16 182.19 62.02 184.37 64.05 186.54 66.11 188.31 68.53 190.26 70.8 191.85 73.34 193.32 75.94 194.6 78.65 195.78 81.4 196.52 84.3 197.67 87.08 197.93 90.08 198.53 93.01 198.68 95.99 198.71 98.97 198.99 101.97 198.65 104.94 197.96 107.86 197.64 110.85 196.58 113.66 195.88 116.58 194.6 119.29 193.09 121.87 191.77 124.55 190.14 127.05 188.56 129.61 186.45 131.75 184.41 133.93 182.32 136.07 180.04 138.02 177.51 139.61 174.97 141.19 172.47 142.82 169.79 144.15 166.93 145.04 164.13 146.08 161.28 146.97 158.39 147.74 155.44 148.28 152.44 148.28 149.45 148.55"/><line class="cls-4" x1="149.45" y1="99.04" x2="157.39" y2="73.34"/><line class="cls-4" x1="149.45" y1="99.04" x2="163.37" y2="112.96"/><line class="cls-5" x1="115.88" y1="99.04" x2="105.69" y2="99.04"/><line class="cls-5" x1="149.45" y1="132.61" x2="149.45" y2="142.8"/><line class="cls-5" x1="183.03" y1="99.04" x2="193.21" y2="99.04"/><line class="cls-5" x1="149.45" y1="65.47" x2="149.45" y2="55.28"/><line class="cls-5" x1="115.88" y1="99.04" x2="105.69" y2="99.04"/><line class="cls-5" x1="149.45" y1="132.61" x2="149.45" y2="142.8"/><line class="cls-5" x1="183.03" y1="99.04" x2="193.21" y2="99.04"/><line class="cls-5" x1="149.45" y1="65.47" x2="149.45" y2="55.28"/><line class="cls-5" x1="115.88" y1="99.04" x2="105.69" y2="99.04"/><line class="cls-5" x1="149.45" y1="132.61" x2="149.45" y2="142.8"/><line class="cls-5" x1="183.03" y1="99.04" x2="193.21" y2="99.04"/><line class="cls-5" x1="149.45" y1="65.47" x2="149.45" y2="55.28"/><polyline class="cls-2" points="33.61 124.85 31.5 124.43 29.45 123.78 27.55 122.75 25.55 121.97 23.63 121.02 21.89 119.77 20.15 118.54 18.31 117.4 16.88 115.8 15.28 114.36 13.81 112.79 12.52 111.07 11.6 109.11 10.36 107.35 9.46 105.41 8.62 103.44 7.99 101.39 7.23 99.37 6.84 97.26 6.54 95.14 6.24 93.01 6.16 90.87 6.3 88.72 6.33 86.58 6.59 84.44 7.21 82.38 7.47 80.21 8.36 78.21 9.01 76.14 9.76 74.1 10.99 72.29 12 70.37 13.11 68.5 14.66 66.96 15.93 65.19 17.5 63.68 19.16 62.29 20.76 60.81 22.55 59.56 24.46 58.51 26.47 57.68 28.39 56.69 30.36 55.76 32.48 55.26 34.59 54.77 36.69 54.19 38.85 53.95 41.03 53.99 43.2 53.79 45.36 53.97 47.5 54.38 49.66 54.59 51.78 55.07 53.78 55.95 55.87 56.57 57.89 57.37 59.8 58.41 61.57 59.66 63.44 60.78 65.19 62.06 66.85 63.48 68.36 65.05 69.64 66.81 71.01 68.48 72.25 70.25 73.49 72.04 74.38 74.03 75.42 75.93 76.16 77.98 76.82 80.05 77.32 82.16 77.75 84.29 77.83 86.46 78.23 88.61 77.96 90.78 77.95 92.94 77.61 95.09 77.18 97.21 76.93 99.38 76.24 101.44 75.31 103.41 74.63 105.48 73.46 107.32 72.52 109.29 71.2 111.02 69.74 112.63 68.4 114.33 66.87 115.86 65.36 117.44 63.54 118.64 61.76 119.88 59.96 121.09 58.05 122.13 56.01 122.88 53.97 123.61 51.95 124.4 49.84 124.94 47.68 125.14 45.54 125.46 43.38 125.66 41.21 125.77 39.03 125.71 36.9 125.26 34.74 125"/><polyline class="cls-3" points="35.42 117.45 33.76 117.12 32.14 116.61 30.64 115.8 29.07 115.18 27.55 114.43 26.18 113.44 24.8 112.47 23.36 111.58 22.23 110.31 20.97 109.18 19.8 107.94 18.79 106.58 18.07 105.04 17.09 103.65 16.38 102.12 15.71 100.56 15.21 98.95 14.62 97.36 14.31 95.69 14.07 94.02 13.84 92.34 13.77 90.65 13.88 88.96 13.91 87.27 14.12 85.58 14.61 83.96 14.81 82.24 15.51 80.67 16.02 79.04 16.61 77.42 17.58 76 18.38 74.49 19.26 73.01 20.48 71.79 21.48 70.4 22.72 69.21 24.03 68.11 25.29 66.94 26.7 65.96 28.2 65.13 29.79 64.48 31.31 63.69 32.86 62.96 34.53 62.57 36.2 62.19 37.85 61.73 39.56 61.53 41.27 61.57 42.98 61.41 44.69 61.55 46.38 61.88 48.08 62.04 49.76 62.42 51.34 63.11 52.98 63.6 54.57 64.23 56.08 65.05 57.48 66.04 58.95 66.92 60.34 67.93 61.64 69.05 62.83 70.29 63.84 71.68 64.92 73 65.9 74.39 66.88 75.81 67.58 77.37 68.4 78.87 68.98 80.48 69.5 82.12 69.9 83.78 70.23 85.46 70.3 87.18 70.62 88.87 70.4 90.58 70.39 92.29 70.12 93.98 69.79 95.65 69.59 97.36 69.05 98.99 68.31 100.54 67.78 102.18 66.85 103.63 66.11 105.18 65.07 106.54 63.92 107.81 62.86 109.16 61.65 110.37 60.46 111.61 59.03 112.56 57.63 113.53 56.2 114.49 54.7 115.31 53.09 115.9 51.48 116.48 49.88 117.1 48.23 117.52 46.52 117.68 44.83 117.93 43.13 118.09 41.42 118.18 39.7 118.13 38.02 117.78 36.31 117.57"/><line class="cls-6" x1="42.19" y1="89.84" x2="30.38" y2="82"/><line class="cls-6" x1="42.19" y1="89.84" x2="52.1" y2="87.56"/><line class="cls-7" x1="23.39" y1="85.86" x2="17.68" y2="84.65"/><line class="cls-7" x1="38.21" y1="108.65" x2="37" y2="114.35"/><line class="cls-7" x1="60.99" y1="93.83" x2="66.7" y2="95.04"/><line class="cls-7" x1="46.18" y1="71.04" x2="47.39" y2="65.34"/><line class="cls-7" x1="23.39" y1="85.86" x2="17.68" y2="84.65"/><line class="cls-7" x1="38.21" y1="108.65" x2="37" y2="114.35"/><line class="cls-7" x1="60.99" y1="93.83" x2="66.7" y2="95.04"/><line class="cls-7" x1="46.18" y1="71.04" x2="47.39" y2="65.34"/><line class="cls-7" x1="23.39" y1="85.86" x2="17.68" y2="84.65"/><line class="cls-7" x1="38.21" y1="108.65" x2="37" y2="114.35"/><line class="cls-7" x1="60.99" y1="93.83" x2="66.7" y2="95.04"/><line class="cls-7" x1="46.18" y1="71.04" x2="47.39" y2="65.34"/><line class="cls-7" x1="22.13" y1="128.18" x2="44.71" y2="132.51"/><line class="cls-7" x1="20.85" y1="134.31" x2="43.43" y2="138.64"/><line class="cls-7" x1="40.61" y1="41.52" x2="63.11" y2="46.29"/><line class="cls-7" x1="39.21" y1="47.63" x2="61.71" y2="52.39"/><polyline class="cls-2" points="256.27 163.07 254.46 163.42 252.63 163.58 250.78 163.38 248.95 163.41 247.12 163.29 245.33 162.87 243.54 162.46 241.72 162.16 240.06 161.36 238.33 160.74 236.65 159.98 235.06 159.04 233.69 157.78 232.14 156.8 230.79 155.55 229.48 154.26 228.31 152.85 227.05 151.5 226.05 149.95 225.12 148.37 224.19 146.78 223.42 145.11 222.83 143.37 222.16 141.65 221.67 139.88 221.49 138.04 220.98 136.24 221.03 134.36 220.87 132.51 220.8 130.65 221.18 128.81 221.36 126.97 221.63 125.12 222.35 123.39 222.78 121.57 223.53 119.87 224.39 118.22 225.18 116.53 226.18 114.95 227.35 113.5 228.67 112.18 229.87 110.77 231.13 109.39 232.65 108.3 234.16 107.23 235.63 106.08 237.26 105.18 239 104.51 240.65 103.64 242.43 103.07 244.25 102.7 246.04 102.16 247.88 101.85 249.75 101.89 251.6 101.7 253.46 101.67 255.32 101.87 257.13 102.29 258.98 102.56 260.79 103 262.56 103.59 264.27 104.33 265.86 105.32 267.49 106.19 269.06 107.19 270.62 108.2 271.97 109.48 273.42 110.65 274.68 112.03 275.87 113.45 276.96 114.96 277.99 116.51 278.77 118.2 279.79 119.78 280.28 121.58 280.98 123.3 281.41 125.11 281.76 126.93 282.27 128.73 282.4 130.59 282.31 132.46 282.45 134.32 282.11 136.16 282.02 138.03 281.54 139.83 280.91 141.58 280.4 143.37 279.69 145.08 279 146.82 277.96 148.37 276.95 149.93 275.92 151.48 274.75 152.93 273.37 154.19 272 155.44 270.65 156.72 269.16 157.83 267.51 158.7 265.92 159.65 264.28 160.51 262.6 161.31 260.85 161.98 259.01 162.32 257.22 162.82"/><polyline class="cls-3" points="255.29 156.61 253.87 156.89 252.42 157.02 250.96 156.86 249.51 156.89 248.07 156.79 246.66 156.46 245.25 156.14 243.81 155.9 242.5 155.27 241.14 154.78 239.81 154.18 238.56 153.44 237.49 152.45 236.26 151.67 235.19 150.69 234.16 149.67 233.24 148.55 232.25 147.49 231.46 146.27 230.72 145.02 229.99 143.77 229.38 142.45 228.92 141.08 228.39 139.73 228 138.32 227.86 136.88 227.46 135.45 227.5 133.98 227.38 132.51 227.31 131.04 227.62 129.6 227.75 128.14 227.97 126.68 228.54 125.32 228.88 123.89 229.47 122.54 230.15 121.24 230.77 119.91 231.56 118.67 232.48 117.52 233.53 116.48 234.47 115.37 235.46 114.28 236.66 113.42 237.85 112.57 239.01 111.67 240.3 110.96 241.67 110.43 242.97 109.74 244.38 109.3 245.81 109 247.22 108.58 248.67 108.33 250.15 108.36 251.61 108.21 253.08 108.19 254.54 108.35 255.97 108.68 257.43 108.89 258.85 109.24 260.25 109.7 261.6 110.29 262.85 111.07 264.14 111.76 265.38 112.54 266.61 113.34 267.67 114.35 268.82 115.28 269.81 116.36 270.75 117.48 271.61 118.67 272.42 119.9 273.04 121.23 273.84 122.47 274.23 123.9 274.78 125.25 275.12 126.68 275.4 128.11 275.8 129.53 275.9 131 275.82 132.47 275.94 133.94 275.67 135.39 275.6 136.86 275.22 138.29 274.72 139.67 274.32 141.08 273.76 142.43 273.22 143.8 272.4 145.02 271.6 146.25 270.79 147.47 269.86 148.62 268.78 149.61 267.7 150.59 266.63 151.61 265.46 152.49 264.16 153.17 262.9 153.92 261.61 154.6 260.28 155.23 258.91 155.75 257.46 156.02 256.04 156.42"/><line class="cls-8" x1="251.64" y1="132.53" x2="263.45" y2="136.3"/><line class="cls-8" x1="251.64" y1="132.53" x2="245.32" y2="139.47"/><line class="cls-9" x1="235.44" y1="135.51" x2="230.52" y2="136.42"/><line class="cls-9" x1="254.62" y1="148.73" x2="255.53" y2="153.64"/><line class="cls-9" x1="267.84" y1="129.54" x2="272.75" y2="128.64"/><line class="cls-9" x1="248.65" y1="116.33" x2="247.75" y2="111.41"/><line class="cls-9" x1="235.44" y1="135.51" x2="230.52" y2="136.42"/><line class="cls-9" x1="254.62" y1="148.73" x2="255.53" y2="153.64"/><line class="cls-9" x1="267.84" y1="129.54" x2="272.75" y2="128.64"/><line class="cls-9" x1="248.65" y1="116.33" x2="247.75" y2="111.41"/><line class="cls-9" x1="235.44" y1="135.51" x2="230.52" y2="136.42"/><line class="cls-9" x1="254.62" y1="148.73" x2="255.53" y2="153.64"/><line class="cls-9" x1="267.84" y1="129.54" x2="272.75" y2="128.64"/><line class="cls-9" x1="248.65" y1="116.33" x2="247.75" y2="111.41"/></g><g id="圖"><path class="cls-10" d="M237.41,81.19a1.91,1.91,0,0,1-2.64.6,2.5,2.5,0,0,0-3.3.46,2.42,2.42,0,0,0,.6,3.53l3.09,2a3.22,3.22,0,0,0,4.44-1l7.14-11.25-4.07-2.58Z"/><path class="cls-10" d="M253.63,87.73a1.92,1.92,0,0,0,1.58,2.2,2.52,2.52,0,0,1,2.15,2.55,2.41,2.41,0,0,1-2.8,2.23l-3.61-.6a3.21,3.21,0,0,1-2.65-3.69l2.17-13.15,4.75.78Z"/><polygon class="cls-10" points="257.58 53.61 254.96 51 252.54 48.25 249.85 45.76 247.2 43.23 244.75 40.51 242.16 37.92 239.48 35.42 237.01 32.71 234.36 30.34 232.92 33.85 231.51 37.49 229.93 41.05 228.47 44.67 227.1 48.33 225.69 51.96 224.09 55.52 222.59 59.12 221.3 62.81 219.85 66.43 218.24 69.99 216.77 73.6 215.4 77.22 219.02 77.23 222.68 77.16 226.34 77.13 230 76.96 233.66 76.91 237.32 76.92 240.98 76.84 244.64 76.76 248.27 76.72 251.32 78.88 254.39 81.06 257.25 83.53 260.29 85.75 263.35 87.93 264.88 84.42 266.16 80.79 267.69 77.26 269 73.64 270.55 70.12 272.03 66.57 273.32 62.94 274.81 59.39 276.34 55.83 272.57 55.34 268.81 55.05 265.09 54.47 261.37 53.93 257.58 53.61"/><ellipse class="cls-11" cx="251.41" cy="69.51" rx="2.4" ry="1.69" transform="translate(105.6 285.8) rotate(-71.47)"/><path class="cls-12" d="M249.07,60.09c-.89,2.29-2.44,4.54-4.93,3.58s-2.16-3.57-1.23-6,2.73-3,4.43-2.29S250,57.79,249.07,60.09Z"/><path class="cls-13" d="M248,59.9c-.59,1.52-1.62,3-3.27,2.38s-1.43-2.37-.81-4a2.16,2.16,0,0,1,2.94-1.52A2.2,2.2,0,0,1,248,59.9Z"/><path class="cls-12" d="M264.89,66.22c-.89,2.29-2.44,4.54-4.93,3.58s-2.15-3.57-1.23-6,2.73-2.95,4.44-2.29S265.78,63.92,264.89,66.22Z"/><path class="cls-13" d="M263.77,66c-.59,1.52-1.62,3-3.27,2.38s-1.43-2.37-.81-4a2.16,2.16,0,0,1,2.94-1.52A2.2,2.2,0,0,1,263.77,66Z"/></g></svg>