<svg xmlns="http://www.w3.org/2000/svg" viewBox="0 0 360 169"><defs><style>.cls-1{fill:#fae7e7;}.cls-2{fill:#27b5f7;}.cls-3,.cls-5,.cls-6,.cls-7,.cls-8,.cls-9{fill:none;}.cls-3,.cls-4,.cls-5,.cls-6,.cls-7,.cls-8,.cls-9{stroke:#000;stroke-linecap:round;stroke-linejoin:round;}.cls-3,.cls-4{stroke-width:1.51px;}.cls-4{fill:#fff;}.cls-5{stroke-width:1.41px;}.cls-6{stroke-width:1.49px;}.cls-7{stroke-width:1.58px;}.cls-8{stroke-width:1.54px;}.cls-9{stroke-width:1.62px;}.cls-10{fill:#f8c341;}</style></defs><g id="圖"><path class="cls-1" d="M154,124c2.47,13.19,1.91,17.35-2.92,45h-6.54a378.72,378.72,0,0,1-10.67-42.52c-.59-3-1.15-6.07-.41-9,1.27-5,5.79-13.38,10.19-9.23S151.57,110.77,154,124Z"/><path class="cls-2" d="M148.52,104.84c1.22,1.69,2.49,3.5,2.6,5.58a8.08,8.08,0,0,1-1.28,4.4A19.09,19.09,0,0,1,139,123a2.54,2.54,0,0,1-1.69.12,2.6,2.6,0,0,1-1.15-1.31,117.81,117.81,0,0,1-6.25-15c-1.22-3.37-12.08-36.65-3.76-30.07,4.54,3.58,10.08,11.72,12.26,14.53C141.9,95.65,145.21,100.25,148.52,104.84Z"/><path class="cls-1" d="M70.73,36.66C69.19,13.77,82.85,4.93,96.91,4.41c14.63-.54,25,8.82,27.93,31.63,1.53,12.07-4.75,24.16-14.41,27.9a.61.61,0,0,0-.14.1,2.93,2.93,0,0,0-1,2.88l1.5,8a7.32,7.32,0,0,1-7.32,7.25l-11.71-.06a6.25,6.25,0,0,1-6.22-6.29l1.62-9A3,3,0,0,0,86.25,64a2.42,2.42,0,0,0-.3-.23C77.51,58.49,71.54,48.78,70.73,36.66Z"/><path class="cls-2" d="M65.34,85.58c10.58-13.88,16-15,19.37-15.44,14.33,4.53,25.9.83,27.85-.71l.61.18c17.37,4.9,22.67,19,26.68,36.6,5,22,7.66,46.09,9,62.79h-89C58.48,159.34,54.81,99.38,65.34,85.58Z"/><ellipse cx="114.31" cy="27.15" rx="1.42" ry="3.01" transform="translate(-1.88 9.71) rotate(-4.82)"/><ellipse cx="98.64" cy="28.47" rx="1.42" ry="3.01" transform="translate(-2.04 8.4) rotate(-4.82)"/><line class="cls-3" x1="105.91" y1="22.09" x2="108.42" y2="35.04"/><path class="cls-4" d="M109.24,42.9a4.78,4.78,0,0,0-.65-2.16,1.82,1.82,0,0,0-2-.82,2.48,2.48,0,0,0-1.32,2c-.38,1.75-1,6.07,1.64,6.26C109.85,48.36,109.46,44.76,109.24,42.9Z"/><path class="cls-1" d="M102,103.51c-3.46-1.12-7.36.69-9.31,4.29-.5.92-1,1.79-1.28,2.5-2.1,4.52-.54,9.75,3.46,11.59a84.32,84.32,0,0,0,15,5.31l10.34-19.4C115.77,107.7,107.53,105.3,102,103.51Z"/><path class="cls-1" d="M119.74,126c4.17-4.3,8.08-16.34,9.71-22,2-7,3.3-14.2,5.51-21.15.75-2.38,1.62-4.72,2.3-7.13a51.13,51.13,0,0,0,.34-25.31,3.15,3.15,0,0,0-2.41-2.64,2.17,2.17,0,0,0-2.23.94A4.41,4.41,0,0,0,131.77,47a2.79,2.79,0,0,0-3.59.28,3.68,3.68,0,0,0-4.68-1.6c-1.76.84-1.28,4-1.81,3-.27-.47-2-3.11-4.44-1.73a4.4,4.4,0,0,0-1.84,4.32c.09.63,3.36,6.57,2.22,9.19-.8,1.85-2.62-2.58-3.92-5.45-.51-1.13-4-2.33-4.46,2.15s.58,10,3.21,16.11c.67,1.55,1.68,3,2.19,4.55.93,2.91.31,6-.32,8.89-1.76,8.14-2.45,16.54-7,23.67-1.85,2.88-3.83,5.77-2.8,9.36.77,2.66-3.1,2.82,2,5.81S117.25,128.56,119.74,126Z"/><path class="cls-3" d="M122.33,50.22a53.9,53.9,0,0,1,1.88,9.69"/><path class="cls-5" d="M128.1,48.9a41.42,41.42,0,0,1,1.47,11.29"/><path class="cls-3" d="M133.29,50a33.6,33.6,0,0,1,1.31,9.9"/><path class="cls-6" d="M113.47,54.77c-2-2.19-6.16-.75-4.08,7.4"/><path class="cls-5" d="M117.72,57.18c-.81-2.82-1.76-4.43-2.15-6.51a4.87,4.87,0,0,1,.44-3.76,2.78,2.78,0,0,1,2.54-1.07,4.56,4.56,0,0,1,2.79,2.06c0-1.74.68-2.63,1.59-2.74"/><path class="cls-7" d="M148.09,77.74,244,121.23"/><path class="cls-8" d="M153,44c15.85-2.45,38.93-5,54.78-7.46l47.28-7.3"/><path class="cls-9" d="M153,90.64q15.38,12,29.66,25.08"/><path class="cls-9" d="M142.57,36.34l16-6.27L181.69,21"/><path class="cls-10" d="M184.34,76.36l-.89,1.76-1.71.86-2,.24-2-.41-1.76-1-1.7-1.08-1.27-1.61-.23-2,.56-1.56,1.27-1.16,1.73-.38,1.71.41,1.72.59,1.57.91,1.44,1.1,1,1.51ZM174.11,50.51h2.14l2.06-.08,2.05-.29,2.06-.18,2,0,0,1.81-.09,1.91-.4,1.88-.2,1.89,0,1.92-.11,1.9-.41,1.88L183,65l-.22,1.9,0,1.89-2.07-.37-2.12-.3-2.1-.46-2.16-.32,0-1.91V63.59l-.12-1.85.14-1.86.08-1.86-.12-1.85-.08-1.86,0-1.87Z"/><path class="cls-10" d="M247,61.54l-.42,1.84-1,1.62-1.15,1.51-1.54,1.1-1.51,1.17-1.75.77-1.79.64-1.82.55-1.81.59-1.85.46-1.9.16-1.9.13-1.88.38-1.91-.09-1.91.22L221,72.4l-1.86,0L217.91,74,217,75.7l-2-.25L213,75l-1.94-.52-2-.25-2-.29-2-.49-2-.22-2-.42-.17-2-.46-1.92L200,67,199.82,65l2,.28,2,.16,2-.15,2,.09h2l2-.19,2-.45,1.82-.93.74-1.84-.46-1.7-1.42-1.14-1.76-.46L211,58.09l-1.81-.16-2.22.13-2,.82L203,60l-1.9-.56-1.87-.57-1.86-.59-1.85-.65-1.87-.57-1.89-.53-1.82-.69,1.18-1.48,1.33-1.4,1.6-1.09,1.72-.87,1.75-.8,1.73-.87,1.87-.53,1.86-.55,1.9-.37,2-.05,1.89-.54,1.94-.12,2,.11,1.95-.18h2l2-.21,2,.25,2-.06,2,.1,1.92.44,2,.15,1.92.35,1.88.53,1.87.53,1.9.47,1.88.57,1.67,1,1.77.82,1.65,1,1.35,1.42L245.49,56l.9,1.73.41,1.89ZM221.41,86.87l-.71,1.77-1.6,1-1.82.63-1.95,0-2,.1-1.93-.36-1.89-.5L207.7,89l-1.92-.61-1.87-.79-1.67-1.16-1.55-1.27-1.6-1.25-1-1.78-.61-1.92.92-1.86,1.67-1.22,2.06-.3,2.06-.22,2.08,0,2.05.45,1.83.62,1.87.48,1.82.66,1.67,1,1.73.88,1.52,1.21L220,83.42,221.07,85Z"/><path class="cls-6" d="M98.12,100.07A89.73,89.73,0,0,1,86,93.86"/></g></svg>