<svg xmlns="http://www.w3.org/2000/svg" viewBox="0 0 270.26 71.93"><defs><style>.cls-1{fill:#e5e5e5;}.cls-2{fill:#a1a1a1;}.cls-3{fill:#f8c341;}.cls-4{fill:#fff;}.cls-5{fill:#232323;}.cls-6{fill:none;}</style></defs><g id="框"><path class="cls-1" d="M15.48,53.86,21,57.62a1.7,1.7,0,0,0,2.31-.37L36.74,39.66a1.71,1.71,0,0,0-.39-2.44l-7.49-5.1a1.7,1.7,0,0,0-2.41.52L15,51.58A1.69,1.69,0,0,0,15.48,53.86Z"/><rect class="cls-2" x="30.05" y="11.63" width="20.48" height="23.56" rx="8.8" transform="translate(60.39 65.44) rotate(-145.71)"/><rect class="cls-3" x="13.25" y="22.02" width="39.73" height="23.81" rx="1.77" transform="translate(41.37 80.6) rotate(-145.71)"/><path d="M47.11,24.6a.64.64,0,0,1-.65-.61s-.25-3.35-3.49-9a.65.65,0,0,1,1.13-.65c3.42,6,3.65,9.45,3.65,9.6a.64.64,0,0,1-.61.68Z"/><path d="M40.63,21.3a.65.65,0,0,1-.64-.55,22.42,22.42,0,0,0-1.64-5.44.65.65,0,0,1,.27-.88.67.67,0,0,1,.88.27,23.22,23.22,0,0,1,1.77,5.84.65.65,0,0,1-.53.75Z"/><path d="M43.1,21.22A.65.65,0,0,1,43,19.93a42.66,42.66,0,0,1,6.14-.73.65.65,0,0,1,.67.62.63.63,0,0,1-.62.67,45.68,45.68,0,0,0-5.93.72Z"/><polygon class="cls-4" points="37.09 31.37 35.96 29.61 32.05 23.53 23.99 35.36 24.01 35.36 33.12 37.19 33.28 37.37 36.59 41.22 42.11 33.12 42.12 33.11 37.09 31.37"/><path class="cls-5" d="M79.62,18.59c0-.38.23-.53.69-.43l3.43.76c.45.09.68.45.68,1.08a84.06,84.06,0,0,1-.68,11.59A23,23,0,0,0,89,41.85,17.75,17.75,0,0,0,98.29,47q.83.18.36.69l-2.71,2.78a1.07,1.07,0,0,1-1.23.25,17.65,17.65,0,0,1-7.22-4.08,23.07,23.07,0,0,1-5.56-8,20.51,20.51,0,0,1-11.77,12.1,1.83,1.83,0,0,1-2.6-.58l-.4-.54q-1.72-1.72.36-2.6l3.11-1.77a19.93,19.93,0,0,0,3.75-3.14,15.44,15.44,0,0,0,2.5-3.72,22.33,22.33,0,0,0,1.55-4.08,28,28,0,0,0,.79-4.55c.17-1.71.28-3.27.33-4.7l.07-5Zm-9,7.22q.23-.93.84-.57l2.78,1.62c.4.24.52.68.36,1.3a20.26,20.26,0,0,1-3.4,8.23c-.19.27-.48.27-.86,0l-2.71-1.77a.6.6,0,0,1-.22-.93A17.85,17.85,0,0,0,70.66,25.81Zm21.92-.1c.17-.56.46-.71.87-.47l3.07,2c.41.24.49.64.25,1.19a70.13,70.13,0,0,1-3.93,7.88c-.17.28-.45.3-.83,0l-2.28-1.48a.74.74,0,0,1-.25-1.05A35.43,35.43,0,0,0,92.58,25.71Z"/><path class="cls-5" d="M106.23,42.53c.08-.72.33-1,.76-.79l1.88.94a1,1,0,0,1,.54,1.15,27,27,0,0,1-1.26,6.72c-.1.38-.35.47-.76.25l-1.77-1c-.41-.22-.55-.49-.43-.83A21.83,21.83,0,0,0,106.23,42.53Zm12-3.9c.08.39-.13.59-.61.62l-2,.21c-.48,0-.77-.24-.87-.79q-7.11,1-8.27,1.55c-.17.07-.3-.12-.39-.58L105.48,37a.87.87,0,0,1,.36-1c.09.15.74-.48,2-1.88L110,31.23l-3.61.69c-.24.07-.41-.12-.5-.58l-.58-2.57a1.05,1.05,0,0,1,.36-1.11c-.07.28.28-.14,1-1.27a28,28,0,0,0,2-3.61,28.67,28.67,0,0,0,1.81-4.44c.14-.46.41-.57.79-.33l2.42,1.59a.72.72,0,0,1,.29,1,33.86,33.86,0,0,1-3.43,6.25q-.61.9.33.87l1.48-.15,2.24-4.22c.21-.41.49-.46.83-.15l2.24,2a.83.83,0,0,1,.18,1.08,50.29,50.29,0,0,1-4.08,6.14l1-.29c1.1-.31,1.86.2,2.27,1.55A21.75,21.75,0,0,1,118.22,38.63ZM110.31,43c-.07-.68.14-1,.62-.94l1.66.21a.94.94,0,0,1,.87.87,35.07,35.07,0,0,1,.5,5.27c0,.46-.2.69-.68.69L111.51,49c-.49,0-.73-.2-.73-.61A35.49,35.49,0,0,0,110.31,43Zm1.16-7.73c-.29.34-.12.47.51.4l2.09-.26c-.12-.53-.34-1.36-.65-2.49C112.36,34.19,111.71,35,111.47,35.24ZM114,42c-.12-.46.06-.7.54-.73l1.59-.11a.82.82,0,0,1,.91.65l.9,2.89c.12.46-.06.7-.54.73l-1.67.18a.81.81,0,0,1-.9-.65Zm9.43-5.13a1.94,1.94,0,0,1,1.26.43l1.26.94a1.16,1.16,0,0,1,.33,1.3,14.32,14.32,0,0,1-6.61,9.86.54.54,0,0,1-.9-.22L117.57,47a.7.7,0,0,1,.26-1,6.82,6.82,0,0,0,1.84-1.84l1.77-3c.31-.53.15-.8-.47-.8h-1.59c-.48,0-.68-.23-.58-.68l.47-2.1a.79.79,0,0,1,.87-.68Zm11.37-1a.52.52,0,0,1,.9,0l1.77,2a.61.61,0,0,1-.14,1l-3.61,2.89a13.62,13.62,0,0,0,4.66,4.69c.41.2.43.45.07.76l-2.31,2.06a.78.78,0,0,1-1.09,0q-1.9-1.23-4.08-5.17v3.11a6,6,0,0,1-.36,2.31,2.57,2.57,0,0,1-1.22,1.33,9.28,9.28,0,0,1-4.19.65c-.68,0-1-.2-1-.68L124,48.42c0-.48.27-.72.8-.72a11.73,11.73,0,0,0,1.48,0c.41,0,.61-.17.61-.5V34.73h-5.16A1.52,1.52,0,0,1,120,33V23.32a1.53,1.53,0,0,1,1.73-1.73h3.39l1-3.14a.6.6,0,0,1,.87-.47l3.17,1.08c.46.15.58.43.36.87l-.93,1.66h6a1.53,1.53,0,0,1,1.73,1.73V33a1.52,1.52,0,0,1-1.73,1.73h-4.59v1.16L132,38.78Zm-9.89-11a.83.83,0,0,0-.94.94v.87h9.17v-.87a.83.83,0,0,0-.94-.94Zm-.94,4.8v1a.83.83,0,0,0,.94.94h7.29a.83.83,0,0,0,.94-.94v-1Z"/><path class="cls-5" d="M161.56,36.32l-.51,2.24a.77.77,0,0,1-.87.69h-4.47L155.42,49a2.25,2.25,0,0,1-1.09,1.19,4.13,4.13,0,0,1-2.34.51c-1.4.07-2.27-.4-2.6-1.41-.44-1.32.07-2,1.51-2l.44,0a.41.41,0,0,0,.5-.5V39.25h-5.92c-.48,0-.67-.23-.58-.69l.47-2.24a.79.79,0,0,1,.87-.68h5.16V32.85H145.7c-.48,0-.67-.22-.57-.68L145.6,30a.78.78,0,0,1,.86-.68h2.06l-.61-2.06a1.48,1.48,0,0,1,1.22-2.1l1.27-.32h-4.15c-.49,0-.68-.23-.58-.69l.47-2.13a.78.78,0,0,1,.86-.68h4.7l-.83-2.21c-.17-.43,0-.66.47-.68L154,18.3a.91.91,0,0,1,1,.65l1,2.39h5c.48,0,.67.22.58.68l-.47,2.13a.8.8,0,0,1-.87.69h-3.07L158,25c1.42.26,1.86,1.06,1.3,2.38l-.79,1.92h3c.48,0,.67.22.58.68l-.47,2.17a.79.79,0,0,1-.87.68h-5v2.79h5.23C161.42,35.64,161.63,35.86,161.56,36.32ZM147.29,41.2c.24-.65.57-.86,1-.62l1.73,1a.82.82,0,0,1,.29,1.16,12,12,0,0,1-2.56,4.37c-.27.31-.56.3-.87,0l-1.41-1.48a.72.72,0,0,1,0-1.05A7.52,7.52,0,0,0,147.29,41.2Zm8.92-16.36H150.9a6,6,0,0,1,.87,2.35,1.64,1.64,0,0,1-1.37,2.13h4.26Zm5.49,19.5a.54.54,0,0,1-.32.87l-1.92.72a.69.69,0,0,1-1-.4L156.65,42c-.22-.41-.1-.68.36-.8l1.8-.54a.87.87,0,0,1,1.05.43Zm15.93-14.7c.48,0,.68.23.61.69l-.54,2.6a.75.75,0,0,1-.83.68H175v17c0,.48-.23.69-.69.62l-2.81-.55a.75.75,0,0,1-.69-.83V33.61l-3.54.26q0,12-3.32,16.72c-.17.31-.41.3-.72,0l-1.95-2.17a.89.89,0,0,1-.15-1.12A6.34,6.34,0,0,0,162,45a38.3,38.3,0,0,0,1.26-11.15v-11c0-1.1.7-1.79,2.1-2.06a32.91,32.91,0,0,0,8.34-2.42.72.72,0,0,1,.94.29L176.47,21c.29.37.24.62-.14.76a44.18,44.18,0,0,1-7.88,2c-.79.15-1.19.54-1.19,1.16v4.73Z"/><path class="cls-5" d="M200.05,29.46a1.53,1.53,0,0,1-1.73,1.73h-8V50.77c0,.48-.23.68-.69.61l-2.82-.54a.75.75,0,0,1-.68-.83V20.87a1.53,1.53,0,0,1,1.73-1.74h10.4a1.56,1.56,0,0,1,1.77,1.77Zm-4-6.54a.83.83,0,0,0-.94-.93h-3.79a.83.83,0,0,0-.94.93v.91H196Zm-5.67,5.42h4.73a.83.83,0,0,0,.94-.94v-.83h-5.67Zm24.48-9.21a1.56,1.56,0,0,1,1.77,1.77l-.32,28.21a2.8,2.8,0,0,1-1.2,1.44,4.52,4.52,0,0,1-2.81.72q-2.2.1-2.49-1.62a7,7,0,0,0-.76-2.31l-1.16.07v2c0,.48-.23.68-.69.61l-2.49-.54a.75.75,0,0,1-.68-.83v-.87l-11.16.87c-.63,0-.92-.17-.87-.65l.33-1.91a.75.75,0,0,1,.79-.76l1.48-.11V35.64h-1.37q-.72,0-.54-.69l.4-1.59a.84.84,0,0,1,.9-.69h15.31q.72,0,.54.69L209.4,35a.84.84,0,0,1-.9.69h-.65v8.63l1.45-.11a1.46,1.46,0,0,1,1.77,1.66l-.11.43c-.12.63.15.94.83.94q.57,0,.57-.69V31.19h-8.19a1.53,1.53,0,0,1-1.74-1.73V20.87a1.54,1.54,0,0,1,1.74-1.74ZM204,35.64h-5.67V37H204Zm-5.67,3.79v1.51H204V39.43Zm0,5.52,5.67-.4V43.33h-5.67Zm14-22a.82.82,0,0,0-.93-.93h-4a.82.82,0,0,0-.93.93v.91h5.84Zm-5.84,4.48a.83.83,0,0,0,.93.94h4.91V26.57h-5.84Z"/><path class="cls-5" d="M244.58,24.19c-.32-.34-.26-.59.18-.76l3-1.16a1.24,1.24,0,0,1,1.34.44,47.11,47.11,0,0,1,8.31,9.39q.28.39-.33.72l-3,1.62a.65.65,0,0,1-1-.25,15.28,15.28,0,0,0-1.27-1.8q-20.65,1-22.93,1.26l-1.37.32a.62.62,0,0,1-.83-.54L226,30.29a.86.86,0,0,1,.4-1c.12.1.83-.48,2.13-1.73a37.73,37.73,0,0,0,3.86-4.23,39.31,39.31,0,0,0,3.87-5.52.63.63,0,0,1,1-.26l2.92,1.85c.41.24.49.54.22.9a46.08,46.08,0,0,1-6.68,7.8c-.53.5-.48.76.15.76l14.69-.47ZM229.84,51.42a1.53,1.53,0,0,1-1.73-1.74V38.38a1.53,1.53,0,0,1,1.73-1.73h22.25a1.53,1.53,0,0,1,1.73,1.73v11.3a1.53,1.53,0,0,1-1.73,1.74ZM249,41.92A.83.83,0,0,0,248,41h-14.3a.83.83,0,0,0-.94.94v4.22a.83.83,0,0,0,.94.94H248a.83.83,0,0,0,.94-.94Z"/><rect class="cls-6" width="270.26" height="71.93"/></g></svg>