<svg xmlns="http://www.w3.org/2000/svg" viewBox="0 0 360 169"><defs><style>.cls-1{fill:#f0f0f0;}.cls-2{fill:#d3d4d4;}.cls-10,.cls-11,.cls-12,.cls-3,.cls-4,.cls-5,.cls-9{fill:none;stroke-linecap:round;}.cls-3,.cls-9{stroke:#000;}.cls-10,.cls-11,.cls-12,.cls-3,.cls-4,.cls-5{stroke-linejoin:round;}.cls-3,.cls-4{stroke-width:0.97px;}.cls-10,.cls-11,.cls-12,.cls-4,.cls-5{stroke:#fff;}.cls-5{stroke-width:1.83px;}.cls-6{fill:#27b5f7;}.cls-7{fill:#fff;}.cls-8{fill:#211815;}.cls-9{stroke-miterlimit:10;stroke-width:0.74px;}.cls-10{stroke-width:2.43px;}.cls-11{stroke-width:1.29px;}.cls-12{stroke-width:1.09px;}</style></defs><g id="圖"><polygon class="cls-1" points="82.28 123.57 8.28 114.58 36.29 18.32 110.29 27.31 82.28 123.57"/><polygon class="cls-2" points="145.23 143.84 82.28 123.57 110.29 27.31 173.24 47.58 145.23 143.84"/><polygon class="cls-1" points="224.66 160.81 145.23 143.84 173.24 47.58 252.68 64.55 224.66 160.81"/><polyline class="cls-3" points="109.66 29.67 109.2 31.11 108.76 32.56 108.39 34.02 107.89 35.45 107.53 36.92 107.11 38.38 106.71 39.83 106.3 41.29 105.89 42.74 105.35 44.16 104.9 45.6 104.59 47.09 104.06 48.51 103.73 49.99 103.25 51.42 102.9 52.9 102.48 54.36 102.01 55.79 101.57 57.24 101.16 58.7 100.82 60.17 100.35 61.61 99.88 63.05 99.53 64.53 99.12 65.98 98.68 67.43 98.12 68.85 97.69 70.3 97.41 71.79 97 73.24 96.5 74.66 96.01 76.09 95.6 77.55 95.27 79.03 94.76 80.46 94.32 81.91 93.97 83.38 93.52 84.82 93.16 86.29 92.66 87.72 92.24 89.18 91.84 90.64 91.39 92.08 90.97 93.54 90.64 95.02 90.23 96.48 89.76 97.92 89.33 99.38 88.84 100.81 88.51 102.29 88.04 103.74 87.58 105.19 87.21 106.66 86.74 108.1 86.29 109.54 85.85 111 85.58 112.5 85.15 113.95 84.59 115.37 84.22 116.85 83.8 118.31 83.44 119.79 82.94 121.23"/><polyline class="cls-3" points="172.66 49.79 172.19 51.23 171.76 52.68 171.38 54.15 170.88 55.58 170.52 57.05 170.1 58.51 169.69 59.97 169.29 61.43 168.87 62.89 168.34 64.31 167.88 65.76 167.58 67.25 167.04 68.67 166.71 70.15 166.23 71.59 165.88 73.07 165.46 74.53 164.99 75.97 164.55 77.42 164.14 78.88 163.79 80.36 163.33 81.8 162.86 83.25 162.5 84.72 162.09 86.18 161.65 87.63 161.09 89.05 160.66 90.51 160.38 92 159.97 93.45 159.46 94.88 158.97 96.31 158.56 97.78 158.23 99.26 157.72 100.69 157.28 102.14 156.93 103.62 156.48 105.06 156.11 106.54 155.62 107.97 155.2 109.43 154.79 110.9 154.35 112.35 153.93 113.8 153.59 115.29 153.18 116.75 152.71 118.2 152.28 119.65 151.78 121.09 151.45 122.58 150.99 124.03 150.53 125.48 150.15 126.95 149.69 128.4 149.23 129.84 148.79 131.3 148.52 132.81 148.09 134.27 147.53 135.69 147.16 137.17 146.74 138.63 146.38 140.12 145.88 141.56"/><polygon class="cls-4" points="57.12 48.84 55.64 48.75 54.18 48.51 52.7 48.35 51.22 48.25 49.76 47.98 48.28 47.91 46.81 47.68 45.35 47.43 43.87 47.28 42.38 47.21 40.92 46.92 39.43 46.82 37.95 46.65 36.45 46.5 36.91 45.09 37.26 43.67 37.72 42.28 38.03 40.85 38.44 39.44 39 38.09 39.38 36.68 39.79 35.27 40.21 33.87 40.61 32.47 40.91 31.03 41.34 29.63 41.82 28.24 42.16 26.81 42.61 25.42 44.07 25.64 45.56 25.69 47.03 25.85 48.5 26.07 49.97 26.29 51.44 26.48 52.92 26.6 54.4 26.71 55.87 26.89 57.34 27.14 58.82 27.25 60.3 27.42 61.78 27.62 63.27 27.76 62.84 29.18 62.52 30.6 62.08 32 61.69 33.41 61.23 34.8 60.8 36.19 60.36 37.58 59.98 39 59.57 40.4 59.17 41.81 58.83 43.23 58.34 44.62 57.9 46.02 57.6 47.46 57.12 48.84"/><polygon class="cls-4" points="76.73 115.5 75.23 115.26 73.73 115.12 72.23 114.96 70.73 114.77 69.23 114.61 67.74 114.45 66.24 114.34 64.76 114.1 63.24 114.07 61.76 113.78 60.26 113.65 58.76 113.51 57.26 113.39 55.76 113.23 54.26 113.11 52.76 112.96 51.27 112.69 49.78 112.52 48.27 112.39 46.78 112.22 45.28 112.02 43.78 111.86 42.28 111.67 40.78 111.56 39.28 111.39 37.77 111.26 36.28 111 34.77 110.94 33.27 110.77 31.77 110.64 30.28 110.42 28.77 110.28 27.26 110.18 25.78 109.88 24.27 109.75 22.76 109.62 21.26 109.39 19.75 109.24 18.27 109.1 18.61 107.71 19.03 106.31 19.5 104.92 19.96 103.53 20.36 102.12 20.68 100.7 21.15 99.32 21.47 97.88 21.9 96.49 22.37 95.1 22.76 93.69 23.17 92.28 23.58 90.87 24.03 89.47 24.39 88.07 25.87 88.23 27.37 88.38 28.87 88.56 30.36 88.73 31.86 88.88 33.36 88.99 34.86 89.15 36.34 89.42 37.85 89.43 39.35 89.59 40.85 89.77 42.33 90.08 43.84 90.12 45.33 90.35 46.82 90.54 48.33 90.63 49.82 90.88 51.32 91 52.81 91.19 54.31 91.37 55.83 91.4 57.31 91.68 58.82 91.78 60.32 91.94 61.82 92.13 63.32 92.29 64.81 92.5 66.31 92.65 67.83 92.68 69.31 93.01 70.81 93.16 72.31 93.33 73.83 93.35 75.32 93.64 76.83 93.7 78.33 93.89 79.84 94.02 81.34 94.24 82.85 94.4 82.38 95.78 82.02 97.2 81.68 98.63 81.27 100.03 80.81 101.42 80.42 102.83 79.99 104.22 79.6 105.63 79.22 107.04 78.83 108.45 78.28 109.82 77.9 111.23 77.55 112.66 77.09 114.06 76.73 115.5"/><polyline class="cls-4" points="68.11 29.25 69.62 29.52 71.14 29.62 72.65 29.89 74.18 30.02 75.69 30.25 77.22 30.39 78.73 30.62 80.25 30.79 81.77 30.95 83.31 31.02 84.82 31.26 86.33 31.54 87.86 31.64 89.38 31.76 90.89 32.1 92.42 32.21 93.94 32.39 95.46 32.55 96.99 32.68 98.5 32.97 100.04 33.11 101.56 33.37"/><polyline class="cls-4" points="66.98 33.15 68.52 33.22 70.02 33.52 71.54 33.68 73.06 33.84 74.57 34.08 76.1 34.18 77.62 34.39 79.14 34.57 80.66 34.77 82.17 35.04 83.7 35.12 85.22 35.34 86.73 35.58 88.25 35.67 89.77 35.92 91.3 35.98 92.81 36.3 94.33 36.5 95.86 36.58 97.38 36.85 98.92 36.9 100.44 37.18"/><polyline class="cls-4" points="65.87 36.94 67.38 37.18 68.9 37.31 70.42 37.48 71.93 37.79 73.45 37.95 74.98 38.03 76.49 38.3 78.02 38.37 79.52 38.71 81.05 38.86 82.57 39.04 84.1 39.17 85.62 39.34 87.14 39.51 88.66 39.69 90.17 39.91 91.69 40.1 93.22 40.3 94.74 40.43 96.27 40.62 97.8 40.76 99.31 41.08"/><polyline class="cls-4" points="64.75 40.77 66.25 41.09 67.78 41.2 69.29 41.41 70.81 41.64 72.34 41.71 73.85 41.96 75.38 42.09 76.89 42.35 78.41 42.53 79.93 42.65 81.46 42.81 82.97 43.05 84.49 43.21 86.01 43.39 87.53 43.58 89.04 43.85 90.57 43.95 92.1 44.11 93.61 44.41 95.13 44.58 96.67 44.66 98.2 44.83"/><polyline class="cls-4" points="63.62 44.75 65.15 44.8 66.67 44.97 68.17 45.26 69.69 45.49 71.22 45.54 72.73 45.76 74.25 45.95 75.78 46.09 77.3 46.29 78.8 46.59 80.33 46.69 81.85 46.93 83.36 47.11 84.89 47.2 86.41 47.45 87.92 47.69 89.45 47.77 90.98 47.93 92.49 48.24 94.03 48.32 95.56 48.47 97.07 48.75"/><polyline class="cls-4" points="62.5 48.51 64.03 48.67 65.53 48.94 67.05 49.08 68.56 49.35 70.09 49.5 71.61 49.66 73.14 49.76 74.65 49.97 76.17 50.13 77.68 50.46 79.22 50.51 80.73 50.78 82.25 50.95 83.76 51.18 85.3 51.23 86.8 51.5 88.33 51.68 89.85 51.84 91.37 52.07 92.91 52.16 94.43 52.33 95.96 52.5"/><polyline class="cls-4" points="31.94 62.04 33.43 62.28 34.93 62.37 36.42 62.6 37.92 62.71 39.41 62.92 40.9 63.03 42.39 63.23 43.88 63.38 45.38 63.51 46.88 63.56 48.37 63.77 49.86 64.03 51.36 64.11 52.86 64.2 54.33 64.51 55.84 64.6 57.33 64.75 58.83 64.88 60.33 64.99 61.81 65.25 63.32 65.37 64.81 65.59 66.31 65.7 67.8 65.92 69.3 66 70.79 66.23 72.29 66.39 73.79 66.57 75.29 66.72 76.78 66.89 78.28 67.04 79.79 67.05 81.28 67.25 82.78 67.42 84.29 67.53 85.77 67.82 87.28 67.93 88.79 68.08 90.29 68.27"/><polyline class="cls-4" points="30.7 66.32 32.21 66.37 33.69 66.64 35.19 66.78 36.69 66.91 38.18 67.13 39.68 67.2 41.16 67.38 42.66 67.54 44.15 67.72 45.63 67.96 47.14 68.01 48.63 68.2 50.12 68.42 51.62 68.48 53.1 68.71 54.61 68.74 56.1 69.04 57.59 69.21 59.09 69.27 60.58 69.5 62.09 69.53 63.58 69.78 65.08 69.92 66.56 70.16 68.07 70.25 69.56 70.48 71.06 70.59 72.56 70.8 74.06 70.91 75.55 71.11 77.05 71.26 78.55 71.39 80.06 71.44 81.55 71.66 83.04 71.91 84.55 71.99 86.06 72.08 87.55 72.39 89.06 72.48"/><polyline class="cls-4" points="29.48 70.49 30.97 70.71 32.47 70.82 33.96 70.96 35.45 71.24 36.94 71.38 38.44 71.42 39.92 71.67 41.43 71.72 42.91 72.03 44.41 72.16 45.9 72.31 47.4 72.42 48.89 72.56 50.39 72.7 51.88 72.86 53.37 73.05 54.87 73.22 56.36 73.39 57.86 73.49 59.36 73.66 60.86 73.77 62.34 74.07 63.84 74.19 65.35 74.25 66.83 74.52 68.33 74.65 69.83 74.79 71.33 75.01 72.83 75.08 74.33 75.26 75.82 75.42 77.32 75.6 78.81 75.84 80.32 75.9 81.82 76.08 83.31 76.3 84.82 76.36 86.32 76.59 87.84 76.63"/><polyline class="cls-4" points="28.25 74.7 29.73 74.99 31.23 75.08 32.72 75.27 34.21 75.47 35.72 75.52 37.2 75.74 38.7 75.84 40.18 76.08 41.68 76.23 43.18 76.33 44.68 76.46 46.17 76.67 47.66 76.81 49.15 76.96 50.65 77.12 52.13 77.37 53.64 77.45 55.14 77.58 56.62 77.85 58.11 78 59.62 78.05 61.12 78.2 62.62 78.37 64.11 78.59 65.61 78.69 67.11 78.84 68.59 79.12 70.09 79.26 71.6 79.31 73.09 79.55 74.6 79.59 76.08 79.91 77.58 80.04 79.08 80.2 80.59 80.3 82.09 80.44 83.59 80.58 85.1 80.74 86.6 80.94"/><polyline class="cls-4" points="27 79.06 28.51 79.09 30.01 79.22 31.49 79.5 32.98 79.7 34.49 79.72 35.98 79.92 37.47 80.08 38.96 80.19 40.46 80.37 41.94 80.64 43.44 80.71 44.93 80.93 46.42 81.09 47.92 81.15 49.41 81.38 50.9 81.59 52.41 81.64 53.91 81.78 55.39 82.07 56.89 82.12 58.4 82.24 59.88 82.49 61.38 82.58 62.87 82.87 64.37 82.96 65.87 83.14 67.36 83.34 68.87 83.39 70.36 83.62 71.86 83.72 73.35 83.96 74.85 84.11 76.35 84.21 77.86 84.34 79.35 84.55 80.85 84.69 82.36 84.85 83.86 85.01 85.36 85.26"/><polyline class="cls-4" points="25.78 83.2 27.28 83.33 28.77 83.58 30.26 83.7 31.75 83.94 33.25 84.06 34.74 84.19 36.24 84.27 37.73 84.46 39.23 84.59 40.71 84.89 42.22 84.92 43.7 85.17 45.19 85.31 46.68 85.51 48.19 85.53 49.67 85.78 51.17 85.94 52.67 86.07 54.16 86.27 55.66 86.34 57.16 86.48 58.66 86.63 60.14 86.93 61.65 86.97 63.15 87.1 64.64 87.38 66.13 87.58 67.64 87.6 69.14 87.8 70.63 87.96 72.13 88.07 73.63 88.25 75.11 88.52 76.62 88.6 78.12 88.81 79.62 88.97 81.13 89.04 82.63 89.27 84.13 89.47"/><line class="cls-5" x1="34.36" y1="53.74" x2="93.33" y2="60.45"/><polygon class="cls-4" points="142.05 68.55 143.4 68.98 144.78 69.46 146.19 69.87 147.58 70.31 148.95 70.82 150.33 71.3 151.74 71.71 153.15 72.08 154.54 72.54 155.91 73.09 157.31 73.5 158.71 73.95 160.15 74.27 161.5 74.75 161.89 73.38 162.31 71.98 162.78 70.59 163.16 69.18 163.5 67.76 163.97 66.37 164.33 64.96 164.72 63.55 165.13 62.15 165.59 60.75 166.04 59.36 166.5 57.97 166.82 56.53 167.29 55.14 167.63 53.74 166.26 53.3 164.89 52.79 163.46 52.44 162.09 51.91 160.72 51.43 159.3 51.08 157.91 50.62 156.53 50.12 155.14 49.65 153.72 49.29 152.3 48.92 150.95 48.32 149.55 47.87 148.11 47.46 147.67 48.89 147.29 50.3 146.86 51.7 146.57 53.14 146.07 54.51 145.68 55.92 145.33 57.34 144.94 58.75 144.42 60.12 144.1 61.55 143.66 62.95 143.25 64.35 142.88 65.77 142.48 67.19 142.05 68.55"/><polygon class="cls-4" points="89.47 118.65 90.87 119.18 92.27 119.71 93.7 120.15 95.12 120.61 96.52 121.15 97.94 121.61 99.34 122.12 100.78 122.55 102.19 123.09 103.63 123.5 104.99 124.13 106.44 124.52 107.84 125.05 109.28 125.48 110.68 126.01 112.1 126.49 113.52 126.98 114.92 127.52 116.36 127.95 117.73 128.58 119.15 129.06 120.56 129.58 122.03 129.93 123.41 130.54 124.84 130.97 126.26 131.47 127.69 131.92 129.09 132.47 130.52 132.93 131.94 133.42 133.33 134 134.77 134.43 136.17 134.98 137.61 135.42 139.04 135.88 140.46 136.39 141.87 136.92 143.28 137.4 143.68 136.02 144.1 134.62 144.47 133.21 144.94 131.82 145.38 130.42 145.68 128.99 146.15 127.61 146.5 126.19 146.89 124.78 147.41 123.41 147.84 122 148.23 120.59 148.65 119.19 148.94 117.74 149.37 116.39 148.01 115.87 146.61 115.33 145.21 114.81 143.76 114.43 142.36 113.91 140.94 113.46 139.53 112.95 138.16 112.34 136.7 111.97 135.28 111.49 133.86 111 132.5 110.38 131.05 109.96 129.63 109.49 128.2 109.04 126.79 108.52 125.38 108.03 123.99 107.45 122.58 106.96 121.13 106.54 119.76 105.92 118.32 105.47 116.87 105.08 115.47 104.53 114.09 103.94 112.65 103.51 111.24 102.98 109.81 102.5 108.41 101.99 106.95 101.61 105.56 101.02 104.14 100.55 102.7 100.11 101.31 99.53 99.86 99.1 98.44 98.6 97 98.15 95.63 97.62 95.26 99 94.83 100.4 94.39 101.79 93.91 103.18 93.61 104.61 93.16 106 92.66 107.38 92.26 108.78 91.94 110.21 91.6 111.64 91.16 113.03 90.68 114.42 90.36 115.86 89.89 117.25 89.47 118.65"/><polyline class="cls-4" points="143.02 46.88 141.6 46.29 140.13 45.85 138.71 45.27 137.24 44.81 135.81 44.25 134.35 43.78 132.91 43.23 131.46 42.72 130 42.24 128.51 41.83 127.08 41.27 125.66 40.67 124.19 40.23 122.71 39.78 121.31 39.13 119.84 38.68 118.38 38.17 116.92 37.69 115.45 37.23 114.03 36.61 112.55 36.14"/><polyline class="cls-4" points="141.92 50.69 140.43 50.28 139.02 49.66 137.57 49.18 136.11 48.69 134.68 48.12 133.2 47.69 131.76 47.16 130.31 46.65 128.86 46.12 127.44 45.53 125.96 45.11 124.52 44.58 123.09 44.01 121.61 43.59 120.18 43.01 118.69 42.62 117.28 41.98 115.83 41.45 114.34 41.04 112.91 40.45 111.41 40.05"/><polyline class="cls-4" points="140.77 54.6 139.35 54.04 137.88 53.58 136.43 53.08 135.02 52.45 133.56 51.96 132.08 51.55 130.66 50.95 129.17 50.56 127.77 49.9 126.31 49.41 124.86 48.9 123.39 48.45 121.94 47.95 120.48 47.46 119.03 46.95 117.59 46.4 116.14 45.88 114.69 45.35 113.22 44.9 111.76 44.38 110.29 43.9"/><polyline class="cls-4" points="139.65 58.48 138.24 57.84 136.77 57.4 135.33 56.86 133.9 56.31 132.41 55.9 130.98 55.33 129.51 54.87 128.09 54.29 126.64 53.78 125.17 53.33 123.71 52.84 122.28 52.28 120.82 51.79 119.37 51.28 117.92 50.77 116.5 50.17 115.02 49.74 113.55 49.25 112.14 48.63 110.68 48.13 109.19 47.71"/><polyline class="cls-4" points="138.56 62.22 137.08 61.83 135.62 61.34 134.21 60.72 132.77 60.16 131.28 59.78 129.84 59.23 128.4 58.72 126.93 58.25 125.49 57.72 124.07 57.1 122.59 56.67 121.16 56.11 119.72 55.6 118.23 55.17 116.81 54.6 115.37 54.04 113.88 53.62 112.42 53.13 111.01 52.5 109.52 52.09 108.05 51.61"/><polyline class="cls-4" points="137.41 66.15 135.96 65.67 134.54 65.08 133.08 64.6 131.65 64.01 130.19 63.53 128.74 63.05 127.26 62.61 125.82 62.07 124.36 61.59 122.96 60.94 121.46 60.55 120.04 59.96 118.59 59.46 117.15 58.91 115.66 58.53 114.23 57.93 112.78 57.42 111.32 56.93 109.88 56.38 108.39 55.95 106.93 55.45"/><polyline class="cls-4" points="156.99 90.38 155.61 89.81 154.17 89.38 152.79 88.82 151.37 88.37 149.98 87.83 148.56 87.38 147.17 86.84 145.76 86.35 144.34 85.88 142.89 85.49 141.5 84.94 140.12 84.36 138.69 83.94 137.26 83.5 135.9 82.86 134.46 82.43 133.05 81.94 131.63 81.47 130.2 81.03 128.82 80.43 127.4 79.97 126.01 79.41 124.58 78.96 123.19 78.41 121.75 77.98 120.36 77.42 118.95 76.92 117.54 76.41 116.13 75.92 114.72 75.41 113.3 74.92 111.84 74.57 110.44 74.03 109.03 73.52 107.6 73.07 106.22 72.44 104.79 71.99 103.37 71.5"/><polyline class="cls-4" points="155.77 94.58 154.32 94.18 152.95 93.58 151.54 93.11 150.13 92.64 148.74 92.08 147.31 91.67 145.91 91.15 144.5 90.66 143.09 90.14 141.71 89.57 140.27 89.17 138.87 88.65 137.48 88.09 136.04 87.69 134.65 87.13 133.2 86.75 131.84 86.12 130.43 85.61 128.99 85.22 127.6 84.64 126.14 84.27 124.76 83.69 123.35 83.21 121.96 82.63 120.52 82.21 119.13 81.64 117.7 81.19 116.31 80.64 114.88 80.19 113.49 79.65 112.07 79.16 110.65 78.69 109.19 78.3 107.8 77.75 106.42 77.16 104.97 76.74 103.53 76.3 102.16 75.66"/><polyline class="cls-4" points="154.52 98.87 153.13 98.31 151.7 97.87 150.29 97.39 148.93 96.78 147.52 96.3 146.07 95.91 144.7 95.33 143.25 94.94 141.89 94.3 140.47 93.83 139.06 93.34 137.63 92.89 136.22 92.41 134.81 91.94 133.39 91.44 131.99 90.91 130.59 90.41 129.18 89.89 127.75 89.45 126.34 88.95 124.92 88.5 123.55 87.87 122.13 87.4 120.68 87 119.3 86.4 117.88 85.93 116.46 85.45 115.07 84.9 113.63 84.48 112.23 83.96 110.81 83.47 109.41 82.95 108.02 82.38 106.57 81.97 105.16 81.45 103.77 80.89 102.31 80.49 100.92 79.92"/><polyline class="cls-4" points="153.28 103.12 151.91 102.5 150.48 102.07 149.08 101.55 147.69 101.02 146.25 100.62 144.87 100.06 143.44 99.63 142.06 99.06 140.65 98.56 139.22 98.12 137.8 97.65 136.41 97.11 134.99 96.63 133.58 96.14 132.17 95.64 130.79 95.06 129.35 94.64 127.93 94.17 126.56 93.57 125.15 93.08 123.7 92.68 122.28 92.2 120.87 91.69 119.48 91.14 118.05 90.69 116.63 90.21 115.26 89.59 113.84 89.11 112.39 88.72 111.01 88.14 109.56 87.75 108.2 87.11 106.78 86.64 105.36 86.14 103.93 85.7 102.5 85.21 101.08 84.73 99.66 84.23"/><polyline class="cls-4" points="152.09 107.24 150.63 106.86 149.22 106.39 147.85 105.78 146.46 105.25 145.01 104.88 143.62 104.35 142.21 103.85 140.79 103.4 139.38 102.88 138.01 102.28 136.57 101.87 135.19 101.31 133.78 100.82 132.34 100.41 130.95 99.85 129.55 99.31 128.11 98.91 126.69 98.43 125.33 97.82 123.88 97.42 122.45 96.96 121.07 96.37 119.64 95.94 118.27 95.32 116.83 94.89 115.43 94.37 114.03 93.83 112.58 93.44 111.19 92.88 109.76 92.44 108.37 91.86 106.96 91.37 105.52 90.93 104.1 90.46 102.7 89.91 101.28 89.43 99.86 88.94 98.44 88.44"/><polyline class="cls-4" points="150.82 111.56 149.41 111.08 148.03 110.5 146.61 110.05 145.23 109.47 143.82 109.01 142.4 108.55 140.97 108.13 139.57 107.6 138.15 107.13 136.78 106.5 135.33 106.13 133.95 105.55 132.54 105.06 131.15 104.53 129.69 104.16 128.31 103.58 126.9 103.08 125.48 102.61 124.08 102.08 122.64 101.67 121.22 101.18 119.81 100.7 118.44 100.06 116.99 99.69 115.57 99.21 114.19 98.6 112.8 98.07 111.34 97.7 109.94 97.16 108.53 96.66 107.1 96.21 105.69 95.69 104.32 95.09 102.87 94.67 101.48 94.12 100.06 93.62 98.61 93.21 97.21 92.64"/><line class="cls-5" x1="159.41" y1="82.05" x2="104.95" y2="63.39"/><path class="cls-6" d="M187.29,88.81a1.55,1.55,0,0,1-1.82,1,2.07,2.07,0,0,0-2.34,1A1.62,1.62,0,0,0,184.45,93l2.78.58a2.58,2.58,0,0,0,3.05-1.64l2.54-8.9-3.66-.76Z"/><path class="cls-6" d="M200.2,91.56a1.3,1.3,0,0,0,1.07,1.6A1.71,1.71,0,0,1,202.76,95a1.91,1.91,0,0,1-2.34,1.37l-2.78-.6a2.17,2.17,0,0,1-1.79-2.68l2.64-8.88,3.65.8Z"/><polygon class="cls-6" points="200.06 67.58 197.76 66.07 195.59 64.44 193.24 63.02 190.91 61.57 188.72 59.97 186.44 58.47 184.1 57.04 181.9 55.45 179.59 54.11 178.84 56.63 178.13 59.25 177.28 61.83 176.53 64.43 175.85 67.05 175.13 69.66 174.26 72.24 173.48 74.84 172.86 77.47 172.12 80.08 171.24 82.65 170.48 85.26 169.8 87.85 172.61 87.5 175.45 87.08 178.28 86.7 181.11 86.21 183.94 85.81 186.79 85.45 189.62 85.03 192.46 84.6 195.27 84.22 197.86 85.37 200.48 86.55 202.96 87.94 205.55 89.14 208.15 90.31 208.97 87.78 209.59 85.18 210.41 82.63 211.04 80.04 211.87 77.5 212.65 74.93 213.27 72.34 214.05 69.78 214.86 67.2 211.89 67.26 208.94 67.43 205.99 67.42 203.04 67.42 200.06 67.58"/><path class="cls-7" d="M193.89,72.88c-.45,1.56-1.4,3.16-3.33,2.75s-1.92-2.13-1.45-3.77A2.47,2.47,0,0,1,192.19,70,2.12,2.12,0,0,1,193.89,72.88Z"/><path class="cls-8" d="M193.19,73.55c-.3,1-.93,2.09-2.21,1.82s-1.27-1.41-1-2.5a1.64,1.64,0,0,1,2-1.24A1.41,1.41,0,0,1,193.19,73.55Z"/><path class="cls-7" d="M206.17,75.48c-.45,1.57-1.4,3.16-3.33,2.75s-1.92-2.13-1.45-3.76a2.46,2.46,0,0,1,3.08-1.87A2.11,2.11,0,0,1,206.17,75.48Z"/><path class="cls-8" d="M205.47,76.15c-.3,1-.93,2.1-2.21,1.83s-1.27-1.42-1-2.5a1.63,1.63,0,0,1,2-1.24A1.4,1.4,0,0,1,205.47,76.15Z"/><path class="cls-9" d="M194.08,78.61a4.75,4.75,0,0,0,5.25.88"/><line class="cls-9" x1="199.11" y1="78.76" x2="199.55" y2="80.21"/><polyline class="cls-10" points="221.83 65.75 223.24 66.01 224.62 66.34 226.03 66.57 227.44 66.81 228.84 67.12 230.22 67.48 231.63 67.73 233.03 68.05 234.42 68.4 235.81 68.73"/><polyline class="cls-10" points="220.82 69.16 222.23 69.43 223.63 69.76 225.04 69.99 226.46 70.23 227.86 70.54 229.25 70.9 230.66 71.15 232.06 71.47 233.45 71.82 234.85 72.15 236.28 72.36 237.66 72.77 239.07 73.02 240.48 73.31 241.9 73.6 243.3 73.94"/><line class="cls-11" x1="218.83" y1="74.23" x2="242.29" y2="79.24"/><line class="cls-11" x1="217.68" y1="78.18" x2="241.14" y2="83.19"/><line class="cls-11" x1="216.53" y1="82.12" x2="239.99" y2="87.14"/><line class="cls-11" x1="215.38" y1="86.07" x2="238.84" y2="91.08"/><line class="cls-11" x1="213.08" y1="93.96" x2="236.55" y2="98.98"/><line class="cls-11" x1="211.93" y1="97.91" x2="235.4" y2="102.92"/><line class="cls-11" x1="214.23" y1="90.02" x2="237.69" y2="95.03"/><line class="cls-12" x1="161.58" y1="115.71" x2="178.2" y2="119.26"/><line class="cls-12" x1="162.74" y1="111.72" x2="179.36" y2="115.27"/><line class="cls-12" x1="163.9" y1="107.74" x2="180.52" y2="111.29"/><line class="cls-12" x1="165.06" y1="103.75" x2="181.68" y2="107.3"/><line class="cls-12" x1="166.22" y1="99.76" x2="182.84" y2="103.32"/><line class="cls-12" x1="167.38" y1="95.78" x2="184" y2="99.33"/><line class="cls-12" x1="160.42" y1="119.7" x2="177.04" y2="123.25"/><line class="cls-12" x1="159.26" y1="123.68" x2="175.88" y2="127.23"/><line class="cls-12" x1="158.1" y1="127.67" x2="174.72" y2="131.22"/><line class="cls-12" x1="155.78" y1="135.64" x2="172.4" y2="139.19"/><line class="cls-12" x1="154.62" y1="139.63" x2="171.24" y2="143.18"/><line class="cls-12" x1="156.94" y1="131.65" x2="173.56" y2="135.2"/><line class="cls-12" x1="182.44" y1="120.17" x2="199.06" y2="123.72"/><line class="cls-12" x1="183.6" y1="116.18" x2="200.22" y2="119.73"/><line class="cls-12" x1="184.76" y1="112.19" x2="201.38" y2="115.74"/><line class="cls-12" x1="185.92" y1="108.21" x2="202.54" y2="111.76"/><line class="cls-12" x1="187.08" y1="104.22" x2="203.7" y2="107.77"/><line class="cls-12" x1="188.24" y1="100.24" x2="204.86" y2="103.79"/><line class="cls-12" x1="181.28" y1="124.15" x2="197.9" y2="127.7"/><line class="cls-12" x1="180.12" y1="128.14" x2="196.74" y2="131.69"/><line class="cls-12" x1="178.96" y1="132.12" x2="195.58" y2="135.67"/><line class="cls-12" x1="176.64" y1="140.1" x2="193.26" y2="143.65"/><line class="cls-12" x1="175.48" y1="144.08" x2="192.1" y2="147.63"/><line class="cls-12" x1="177.8" y1="136.11" x2="194.42" y2="139.66"/><polygon class="cls-4" points="208.63 104.72 210.5 105.07 212.38 105.55 214.31 105.87 216.19 106.36 218.09 106.77 219.99 107.2 221.9 107.59 223.79 108.02 225.7 108.41 227.65 108.63 229.54 109.09 231.45 109.51 233.44 109.91 232.75 111.77 232.28 113.62 231.75 115.45 231.19 117.27 230.66 119.09 230.1 120.92 229.66 122.78 229.01 124.58 228.46 126.4 228.08 128.28 227.54 130.11 226.99 131.94 226.41 133.75 225.91 135.6 225.39 137.43 224.85 139.26 224.27 141.08 223.66 142.89 223.31 144.78 222.75 146.61 222.09 148.4 221.52 150.23 220.98 152.07 220.52 153.88 218.62 153.63 216.74 153.16 214.84 152.72 212.94 152.28 211.04 151.9 209.12 151.54 207.22 151.15 205.31 150.76 203.41 150.35 201.51 149.9 199.62 149.45 197.7 149.06 195.84 148.62 196.37 146.83 196.96 145.02 197.37 143.15 198.02 141.36 198.47 139.51 198.97 137.67 199.52 135.84 200.08 134.02 200.55 132.17 201.07 130.33 201.74 128.54 202.21 126.69 202.71 124.85 203.33 123.04 203.69 121.16 204.28 119.34 204.79 117.5 205.38 115.69 205.83 113.83 206.51 112.04 207 110.19 207.52 108.35 208.1 106.52 208.63 104.72"/></g></svg>