<svg xmlns="http://www.w3.org/2000/svg" viewBox="0 0 231.3 71.93"><defs><style>.cls-1{fill:#27b5f7;}.cls-2{fill:#fff;}.cls-3{fill:#232323;}.cls-4{fill:none;}</style></defs><g id="框"><circle class="cls-1" cx="32.05" cy="36.86" r="21.39" transform="translate(-14.27 52.36) rotate(-67.5)"/><path d="M11.05,33.32h-.13a.66.66,0,0,1-.51-.77,21.88,21.88,0,0,1,6.24-11.18.65.65,0,1,1,.9.93A20.55,20.55,0,0,0,11.69,32.8.66.66,0,0,1,11.05,33.32Z"/><path class="cls-2" d="M33,29.77a1.13,1.13,0,0,0-1.79-.92l-4.79,3.41H21.7a1.36,1.36,0,0,0-1.36,1.37v5.94a1.36,1.36,0,0,0,1.36,1.37h4.73l4.79,3.41A1.13,1.13,0,0,0,33,43.43V39.57h0V33.63h0Z"/><path class="cls-2" d="M42.24,30.29A.73.73,0,0,0,41,31a11.16,11.16,0,0,1,0,11.14.73.73,0,0,0,.27,1,.68.68,0,0,0,.36.1.73.73,0,0,0,.64-.36,12.62,12.62,0,0,0,0-12.62Z"/><path class="cls-2" d="M36.66,32.67a.73.73,0,0,0-.27,1,5.79,5.79,0,0,1,0,5.84.73.73,0,0,0,.27,1,.68.68,0,0,0,.36.1.72.72,0,0,0,.64-.37,7.26,7.26,0,0,0,0-7.32A.73.73,0,0,0,36.66,32.67Z"/><path class="cls-3" d="M76.44,23.72c.48,0,.68.23.58.69l-.47,2a.77.77,0,0,1-.83.68H65.93c-.48,0-.67-.22-.57-.68l.47-2a.79.79,0,0,1,.86-.69h4L68.25,20c-.27-.38-.17-.61.28-.68l2.71-.58a1.05,1.05,0,0,1,1.09.47L73.63,21c.81,1.18.49,2.09-1,2.74Zm-.54,10c.48,0,.67.23.58.68L76,36.21a.8.8,0,0,1-.87.69H67c-.48,0-.68-.23-.58-.69l.47-1.84a.79.79,0,0,1,.87-.68Zm-1.41,5a1.53,1.53,0,0,1,1.74,1.73v7.41a1.53,1.53,0,0,1-1.74,1.73H68.35a1.53,1.53,0,0,1-1.73-1.73V40.4a1.53,1.53,0,0,1,1.73-1.73Zm1.63-9.21-.47,1.88a.8.8,0,0,1-.87.69H67.45c-.48,0-.67-.23-.58-.69l.47-1.88a.79.79,0,0,1,.87-.68h7.33C76,28.78,76.21,29,76.12,29.46ZM72.8,43a.83.83,0,0,0-.94-.94h-1a.83.83,0,0,0-.94.94v2.27a.83.83,0,0,0,.94.94h1a.83.83,0,0,0,.94-.94Zm24.37,1.44a1.53,1.53,0,0,1-1.73,1.73H92.51l5.74,2.35q.66.25.15.72l-1.77,1.56a.89.89,0,0,1-1.08.18,39.09,39.09,0,0,0-3.65-1.7q-2.54-1.08-1.05-3.11H84.64l.61.4c1.23.75,1.22,1.48,0,2.21L83.3,49.86a17.65,17.65,0,0,1-3.72,1.41.82.82,0,0,1-1-.36l-1.12-1.59c-.27-.38-.16-.65.32-.79a17.1,17.1,0,0,0,5.38-2.39h-2a1.53,1.53,0,0,1-1.73-1.73V37a1.53,1.53,0,0,1,1.73-1.73H95.44A1.53,1.53,0,0,1,97.17,37ZM85.87,23.25V22h-7c-.49,0-.67-.23-.55-.68l.4-1.27a.84.84,0,0,1,.9-.68h6.29v-.91c0-.48.23-.68.68-.61l2.82.54c.46.07.69.4.69,1H97.6c.49,0,.67.23.55.68l-.4,1.27a.84.84,0,0,1-.9.68H90.06v1.23h6.57q.72,0,.54.69l-.4,1.12a.84.84,0,0,1-.9.68H80.05c-.48,0-.66-.23-.54-.68l.4-1.12a.84.84,0,0,1,.9-.69ZM80,34.41a1.53,1.53,0,0,1-1.73-1.73V28.52A1.53,1.53,0,0,1,80,26.79H96.41a1.53,1.53,0,0,1,1.74,1.73v4.16a1.53,1.53,0,0,1-1.74,1.73Zm2.57-5.53a.83.83,0,0,0-.94.94v1.55a.83.83,0,0,0,.94.94h1.58V28.88Zm1.62,8.63c-.63,0-.94.36-.94,1.09h10c0-.73-.32-1.09-.94-1.09Zm-.94,2.68v1.08h10V40.19Zm0,2.63V44h9c.62,0,.94-.39.94-1.16ZM86.7,32.31h2.71V28.88H86.7Zm7,0a.83.83,0,0,0,.94-.94V29.82a.84.84,0,0,0-.94-.94H92v3.43Z"/><path class="cls-3" d="M115.44,24.51V27h5.06c.48,0,.67.23.58.68l-.47,2.24a.8.8,0,0,1-.87.69h-2.06c1.45.36,1.84,1.18,1.19,2.45L118,34.81h1.77c.48,0,.67.23.57.68l-.47,2.24a.79.79,0,0,1-.86.69h-3.58v2.89h5.06c.48,0,.67.23.58.68l-.47,2.21a.8.8,0,0,1-.87.68h-4.3v5.74c0,.48-.23.69-.68.62l-2.6-.54a.76.76,0,0,1-.69-.84v-5h-5.53c-.48,0-.67-.23-.57-.68l.47-2.21a.78.78,0,0,1,.86-.68h4.77V38.42h-4.66c-.48,0-.67-.23-.58-.69l.47-2.24a.8.8,0,0,1,.87-.68h1.08L108,32.89c-.39-1.1.09-1.86,1.44-2.27H106c-.48,0-.67-.23-.58-.69l.47-2.24a.8.8,0,0,1,.87-.68h4.73v-2.5H107c-.49,0-.68-.22-.58-.68l.47-2.17a.78.78,0,0,1,.86-.68h3.76V18.59c0-.48.23-.68.69-.61l2.6.54a.75.75,0,0,1,.68.83V21h4.23c.48,0,.67.22.58.68l-.47,2.17a.79.79,0,0,1-.87.68Zm-5,10.3h4l1.73-4.19h-5.52l.79,2A1.46,1.46,0,0,1,110.42,34.81Zm24.23-3.33a2.27,2.27,0,0,1,1.3.4l1.3,1a1,1,0,0,1,.44,1.15,30.86,30.86,0,0,1-3.47,10,15,15,0,0,0,4.3,3.54c.43.21.47.48.11.79l-2.39,2.06a.83.83,0,0,1-1.12.07,14.07,14.07,0,0,1-3.21-3,12.47,12.47,0,0,1-2.78,3,1.57,1.57,0,0,1-2.46-.14l-.57-.69V50.7c0,.48-.23.68-.69.61l-2.53-.54a.75.75,0,0,1-.69-.83V21a1.53,1.53,0,0,1,1.74-1.73h11.48a1.5,1.5,0,0,1,1.7,1.7v5.09a5,5,0,0,1-.4,2.24,2.58,2.58,0,0,1-1.41,1.22,13.75,13.75,0,0,1-4.91.62c-.7,0-1.08-.23-1.15-.69l-.4-2.27c-.07-.46.12-.68.58-.65h3c.49,0,.73-.21.73-.54V24a.84.84,0,0,0-.94-.94H127a.83.83,0,0,0-.93.94v7.69Zm-8.55,5.2V46.83c0,.63.21.76.65.4a14.85,14.85,0,0,0,2.7-3.11A35.53,35.53,0,0,1,126.1,36.68Zm7.07-.61c.2-.67,0-1-.65-1H130c-.63,0-.83.31-.61.94a24.2,24.2,0,0,0,2.16,4.44A21.3,21.3,0,0,0,133.17,36.07Z"/><path class="cls-3" d="M161.56,36.32l-.51,2.24a.77.77,0,0,1-.87.69h-4.47L155.42,49a2.31,2.31,0,0,1-1.09,1.2,4.2,4.2,0,0,1-2.34.5c-1.4.07-2.27-.4-2.6-1.41-.44-1.32.07-2,1.51-2l.44,0a.41.41,0,0,0,.5-.5V39.25h-5.92c-.48,0-.67-.23-.58-.69l.47-2.24a.8.8,0,0,1,.87-.68h5.16V32.86H145.7q-.72,0-.57-.69L145.6,30a.78.78,0,0,1,.86-.68h2.06l-.61-2.06a1.48,1.48,0,0,1,1.22-2.1l1.27-.32h-4.15c-.49,0-.68-.23-.58-.69l.47-2.13a.78.78,0,0,1,.86-.68h4.7l-.83-2.21c-.17-.43,0-.66.47-.68L154,18.3a.91.91,0,0,1,1,.65l1,2.39h5c.48,0,.67.23.58.68l-.47,2.13a.8.8,0,0,1-.87.69h-3.07L158,25c1.42.27,1.86,1.06,1.3,2.38l-.79,1.92h3c.48,0,.67.23.58.68l-.47,2.17a.8.8,0,0,1-.87.69h-5v2.78h5.23C161.42,35.64,161.63,35.87,161.56,36.32ZM147.29,41.2c.24-.65.57-.86,1-.62l1.73,1a.83.83,0,0,1,.29,1.16,12,12,0,0,1-2.56,4.37c-.27.31-.56.3-.87,0l-1.41-1.48a.71.71,0,0,1,0-1A7.63,7.63,0,0,0,147.29,41.2Zm8.92-16.36H150.9a6,6,0,0,1,.87,2.35,1.64,1.64,0,0,1-1.37,2.13h4.26Zm5.49,19.5a.54.54,0,0,1-.32.87l-1.92.72a.69.69,0,0,1-1-.4L156.65,42c-.22-.41-.1-.68.36-.8l1.8-.54a.87.87,0,0,1,1.05.43Zm15.93-14.7c.48,0,.68.23.61.69l-.54,2.6a.74.74,0,0,1-.83.68H175v17c0,.48-.23.69-.69.62l-2.81-.54a.76.76,0,0,1-.69-.84V33.61l-3.54.26q0,12-3.32,16.72c-.17.31-.41.3-.72,0l-1.95-2.17a.89.89,0,0,1-.15-1.12A6.25,6.25,0,0,0,162,45a38.42,38.42,0,0,0,1.26-11.16v-11c0-1.1.7-1.79,2.1-2.06a32.91,32.91,0,0,0,8.34-2.42.72.72,0,0,1,.94.29L176.47,21c.29.36.24.61-.14.75a44.94,44.94,0,0,1-7.88,2c-.79.14-1.19.53-1.19,1.15v4.73Z"/><path class="cls-3" d="M200.05,29.46a1.53,1.53,0,0,1-1.73,1.74h-8V50.77c0,.48-.23.68-.69.61l-2.82-.54a.75.75,0,0,1-.68-.83V20.87a1.53,1.53,0,0,1,1.73-1.74h10.4a1.56,1.56,0,0,1,1.77,1.77Zm-4-6.53a.83.83,0,0,0-.94-.94h-3.79a.83.83,0,0,0-.94.94v.9H196Zm-5.67,5.41h4.73a.83.83,0,0,0,.94-.94v-.83h-5.67Zm24.48-9.21a1.56,1.56,0,0,1,1.77,1.77l-.33,28.21a2.74,2.74,0,0,1-1.19,1.44,4.52,4.52,0,0,1-2.81.72c-1.47.07-2.3-.47-2.5-1.62a6.65,6.65,0,0,0-.75-2.31l-1.16.07v2c0,.48-.23.68-.68.61l-2.5-.54a.75.75,0,0,1-.68-.83v-.87l-11.16.87c-.63,0-.92-.17-.87-.65l.33-1.91a.75.75,0,0,1,.79-.76l1.48-.11V35.64h-1.37q-.72,0-.54-.69l.4-1.59a.84.84,0,0,1,.9-.68h15.31c.48,0,.66.22.54.68L209.4,35a.84.84,0,0,1-.9.69h-.65v8.63l1.45-.11a1.47,1.47,0,0,1,1.77,1.66l-.11.43c-.12.63.15.94.83.94.38,0,.57-.25.57-.68V31.2h-8.19a1.54,1.54,0,0,1-1.74-1.74V20.87a1.54,1.54,0,0,1,1.74-1.74ZM204,35.64h-5.67V37H204Zm-5.67,3.79V41H204V39.43Zm0,5.52,5.67-.39V43.33h-5.67Zm14-22a.83.83,0,0,0-.93-.94h-4a.83.83,0,0,0-.94.94v.9h5.85Zm-5.85,4.47a.83.83,0,0,0,.94.94h4.91V26.57h-5.85Z"/><rect class="cls-4" width="231.3" height="71.93"/></g></svg>