<svg xmlns="http://www.w3.org/2000/svg" viewBox="0 0 231.3 71.93"><defs><style>.cls-1{fill:#27b5f7;}.cls-2{fill:#fff;}.cls-3{fill:#232323;}.cls-4{fill:none;}</style></defs><g id="框"><path class="cls-1" d="M52.87,34.82a21,21,0,1,0-34.1,16.4h0s.14.12.41.32a21.18,21.18,0,0,0,4.27,2.51A42.8,42.8,0,0,0,40.78,58.1a13.28,13.28,0,0,1-2.09-3.42A21,21,0,0,0,52.87,34.82Z"/><path class="cls-2" d="M20.4,34.18c.25.4.42.69.63,1.1,0-.43-.05-.85-.05-1.37V31.8a10.92,10.92,0,0,0-.07-1.4h1.86a10.92,10.92,0,0,0-.07,1.4v4.91a12.86,12.86,0,0,0,.07,1.38H20.85a10.26,10.26,0,0,0-.66-1.17l-1.62-2.58a11.44,11.44,0,0,1-.63-1.14c0,.42.06.92.06,1.38v2.07a11.09,11.09,0,0,0,.07,1.44H16.2a9.09,9.09,0,0,0,.07-1.45V31.78a9.62,9.62,0,0,0-.07-1.38h1.91a5.68,5.68,0,0,0,.62,1.15Z"/><path class="cls-2" d="M30,38.16a9.91,9.91,0,0,0-1.45-.07H25.82c-.67,0-.92,0-1.29,0a9.33,9.33,0,0,0,.07-1.35V31.72a10.81,10.81,0,0,0-.07-1.35c.36,0,.6,0,1.29,0h2.8a9.39,9.39,0,0,0,1.3-.07v1.73a11.58,11.58,0,0,0-1.3-.06H26.33v1.36h1.9a9.31,9.31,0,0,0,1.32-.07V35a11.85,11.85,0,0,0-1.32-.06h-1.9v1.55H28.6A12.94,12.94,0,0,0,30,36.43Z"/><path class="cls-2" d="M37,38.09a9.64,9.64,0,0,0-.18-1l-.67-2.72C36.06,34,36,33.6,35.9,33a13.38,13.38,0,0,1-.26,1.39L35,37.11a8.38,8.38,0,0,0-.19,1H33.05a8.44,8.44,0,0,0-.22-1l-1.4-5.54c-.12-.48-.25-.9-.33-1.15h2a6.68,6.68,0,0,0,.12,1l.56,2.81c0,.14.09.57.19,1.3.14-.78.2-1.11.25-1.3l.7-2.87a6.62,6.62,0,0,0,.19-1h1.57a6.12,6.12,0,0,0,.2.93l.71,2.85c.07.3.13.6.25,1.35a4,4,0,0,1,.07-.56,7.59,7.59,0,0,1,.12-.8l.55-2.75a5.36,5.36,0,0,0,.13-1h2c-.08.25-.21.68-.32,1.15L39,37.08a6.8,6.8,0,0,0-.22,1Z"/><path class="cls-2" d="M43.58,35.59a1.21,1.21,0,0,0,.23.68,1.24,1.24,0,0,0,1,.43c.68,0,1.08-.31,1.08-.83a.69.69,0,0,0-.37-.64,5.91,5.91,0,0,0-1.31-.38,3.31,3.31,0,0,1-1.41-.54A2.12,2.12,0,0,1,42,32.53c0-1.42,1.09-2.32,2.82-2.32a2.77,2.77,0,0,1,2.44,1.06,2.55,2.55,0,0,1,.44,1.11l-1.86.21c-.11-.6-.42-.85-1.09-.85s-.93.3-.93.73a.63.63,0,0,0,.41.59,5.83,5.83,0,0,0,1.21.31,4.06,4.06,0,0,1,1.43.52,2.11,2.11,0,0,1,.94,1.89,2.41,2.41,0,0,1-.61,1.7,3.11,3.11,0,0,1-2.31.79,3.93,3.93,0,0,1-2-.46A2.09,2.09,0,0,1,42,36.63a3.78,3.78,0,0,1-.2-.86Z"/><path d="M40.78,58.75h0A47.52,47.52,0,0,1,29.25,57a.66.66,0,0,1-.44-.81.65.65,0,0,1,.81-.44A45.46,45.46,0,0,0,40.8,57.45a.66.66,0,0,1,.63.68A.65.65,0,0,1,40.78,58.75Z"/><path class="cls-3" d="M76,20a1.54,1.54,0,0,1,1.74,1.74V42.78A1.54,1.54,0,0,1,76,44.52H68.14a1.54,1.54,0,0,1-1.74-1.74V21.7A1.54,1.54,0,0,1,68.14,20ZM73.7,24.73c0-.63-.3-.94-.9-.94H71.31a.83.83,0,0,0-.93.94v5.42H73.7Zm-3.32,15c0,.63.3.94.9.94h1.48a.83.83,0,0,0,.94-.94V33.9H70.38ZM98.83,29.17l-.54,2.38a.75.75,0,0,1-.83.69H95.22v3.11H98c.49,0,.68.23.58.68l-.47,2.35a.79.79,0,0,1-.86.69h-2v7.87a5.91,5.91,0,0,1-.4,2.45,2.69,2.69,0,0,1-1.41,1.34,13.07,13.07,0,0,1-5,.69c-.65,0-1-.2-1.08-.65l-.55-2.64c-.07-.46.11-.67.55-.65h3a.89.89,0,0,0,.58-.14.63.63,0,0,0,.18-.51V39.07h-12q-.72,0-.57-.69L79,36a.78.78,0,0,1,.86-.68h11.2V32.24H79c-.48,0-.68-.23-.61-.69L79,29.17a.75.75,0,0,1,.83-.69h6.68V25.31H80.27c-.48,0-.69-.23-.61-.69l.54-2.38a.75.75,0,0,1,.83-.69h5.45V18.48c0-.48.23-.68.69-.61l2.85.54a.75.75,0,0,1,.69.83v2.31h6.5c.48,0,.68.23.61.69l-.54,2.38a.75.75,0,0,1-.83.69H90.71v3.17h7.51C98.7,28.48,98.9,28.71,98.83,29.17ZM80.52,42.32c-.45-.56-.45-.89,0-1l2.75-.83a1.27,1.27,0,0,1,1.3.51,12.65,12.65,0,0,1,2.81,4q.25.48-.39.72l-2.64,1.12c-.43.17-.73.08-.9-.29A13.73,13.73,0,0,0,80.52,42.32Z"/><path class="cls-3" d="M115.69,20a1.54,1.54,0,0,1,1.74,1.74V42.78a1.54,1.54,0,0,1-1.74,1.74h-7.83a1.53,1.53,0,0,1-1.73-1.74V21.7A1.53,1.53,0,0,1,107.86,20Zm-2.27,4.77c0-.63-.3-.94-.9-.94H111a.83.83,0,0,0-.94.94v5.42h3.32Zm-3.32,15c0,.63.3.94.9.94h1.48a.83.83,0,0,0,.94-.94V33.9H110.1Zm28.45-10.58L138,31.55a.75.75,0,0,1-.83.69h-2.24v3.11h2.75c.48,0,.67.23.57.68l-.46,2.35a.8.8,0,0,1-.87.69h-2v7.87a6.1,6.1,0,0,1-.39,2.45,2.76,2.76,0,0,1-1.41,1.34,13.16,13.16,0,0,1-5.06.69c-.65,0-1-.2-1.08-.65l-.54-2.64c-.08-.46.1-.67.54-.65h3a.89.89,0,0,0,.58-.14.63.63,0,0,0,.18-.51V39.07H118.84c-.48,0-.68-.23-.58-.69l.47-2.35a.79.79,0,0,1,.87-.68h11.19V32.24h-12c-.48,0-.68-.23-.61-.69l.54-2.38a.75.75,0,0,1,.83-.69h6.68V25.31H120c-.48,0-.68-.23-.61-.69l.54-2.38a.75.75,0,0,1,.83-.69h5.45V18.48c0-.48.23-.68.69-.61l2.85.54a.75.75,0,0,1,.69.83v2.31h6.5c.48,0,.68.23.61.69L137,24.62a.75.75,0,0,1-.83.69h-5.74v3.17h7.51C138.42,28.48,138.63,28.71,138.55,29.17Zm-18.3,13.15c-.46-.56-.46-.89,0-1l2.74-.83a1.26,1.26,0,0,1,1.3.51,12.87,12.87,0,0,1,2.82,4c.16.32,0,.56-.4.72l-2.64,1.12c-.43.17-.73.08-.9-.29A13.65,13.65,0,0,0,120.25,42.32Z"/><path class="cls-3" d="M159,27.65a.61.61,0,0,1,.94-.28l2.27,1.26a.64.64,0,0,1,.29,1,29.82,29.82,0,0,1-5.78,7.7,34.1,34.1,0,0,1-8.2,6.24.57.57,0,0,1-.9-.29l-1.3-2.6a.63.63,0,0,1,.36-.93,25.94,25.94,0,0,0,7.69-5.64c-4.18.31-6.57.6-7.15.87-.16,0-.28-.16-.36-.61l-.54-2.68a1,1,0,0,1,.47-1c-.14.21.22-.11,1.08-1L151,25.89h-5.2c-.48,0-.68-.23-.61-.69l.54-2.56a.75.75,0,0,1,.83-.69h7.11l-1.33-2.89c-.19-.43,0-.65.43-.65l3-.22a1.23,1.23,0,0,1,1.11.65,8.92,8.92,0,0,1,1.3,3.11h6.36c.48,0,.69.23.61.69l-.54,2.56a.75.75,0,0,1-.83.69H156L152.31,30c-.41.46-.3.67.33.65l4.73-.26Zm2.27,6.76a.64.64,0,0,1,1-.26l2.31,1.41a.6.6,0,0,1,.25.94,32.65,32.65,0,0,1-4.51,5.82,49.75,49.75,0,0,1,5.41,4.87c.22.19.14.42-.25.69l-2.27,1.51a.67.67,0,0,1-1,0A48.4,48.4,0,0,0,157.51,45a42.06,42.06,0,0,1-9.39,6.25.59.59,0,0,1-.94-.29l-1.3-2.67a.63.63,0,0,1,.4-.94,32.32,32.32,0,0,0,8.38-5.24A26.87,26.87,0,0,0,161.23,34.41Zm6.32-12.64,2.67.54a.75.75,0,0,1,.69.83V41.23c0,.48-.23.69-.69.62l-2.67-.55a.74.74,0,0,1-.69-.83V22.38C166.86,21.9,167.09,21.7,167.55,21.77Zm5.63-2.89c0-.48.23-.69.69-.61l2.89.54a.75.75,0,0,1,.69.83V46.47a6.53,6.53,0,0,1-.44,2.71,2.69,2.69,0,0,1-1.44,1.41,14,14,0,0,1-5.67.75c-.7,0-1.07-.19-1.12-.65l-.4-2.67c0-.46.19-.68.72-.68.75,0,1.81,0,3.18,0a.78.78,0,0,0,.9-.87Z"/><path class="cls-3" d="M198.68,27.65a.62.62,0,0,1,.94-.28l2.27,1.26a.64.64,0,0,1,.29,1,29.59,29.59,0,0,1-5.78,7.7,34.06,34.06,0,0,1-8.19,6.24.58.58,0,0,1-.91-.29l-1.3-2.6a.63.63,0,0,1,.36-.93,26,26,0,0,0,7.7-5.64c-4.19.31-6.58.6-7.15.87-.17,0-.29-.16-.36-.61L186,31.66a1,1,0,0,1,.47-1c-.14.21.22-.11,1.09-1l3.17-3.75h-5.2c-.48,0-.68-.23-.61-.69l.54-2.56a.75.75,0,0,1,.83-.69h7.12l-1.34-2.89c-.19-.43,0-.65.43-.65l3-.22a1.26,1.26,0,0,1,1.12.65A9.32,9.32,0,0,1,198,22h6.35c.48,0,.69.23.62.69l-.55,2.56a.74.74,0,0,1-.83.69h-7.83L192,30c-.41.46-.3.67.33.65l4.73-.26ZM201,34.41a.64.64,0,0,1,1-.26l2.31,1.41a.6.6,0,0,1,.25.94A32.18,32.18,0,0,1,200,42.32a51.29,51.29,0,0,1,5.42,4.87c.21.19.13.42-.26.69l-2.27,1.51a.67.67,0,0,1-1,0A47.16,47.16,0,0,0,197.23,45a42.24,42.24,0,0,1-9.38,6.25c-.44.24-.75.14-.94-.29l-1.3-2.67a.63.63,0,0,1,.39-.94,32.32,32.32,0,0,0,8.38-5.24A26.87,26.87,0,0,0,201,34.41Zm6.32-12.64,2.68.54a.75.75,0,0,1,.68.83V41.23c0,.48-.23.69-.68.62l-2.68-.55a.74.74,0,0,1-.68-.83V22.38C206.59,21.9,206.82,21.7,207.27,21.77Zm5.64-2.89c0-.48.23-.69.68-.61l2.89.54a.75.75,0,0,1,.69.83V46.47a6.53,6.53,0,0,1-.44,2.71,2.69,2.69,0,0,1-1.44,1.41,14,14,0,0,1-5.67.75c-.7,0-1.07-.19-1.12-.65L208.1,48c0-.46.2-.68.73-.68.74,0,1.8,0,3.17,0,.61,0,.91-.29.91-.87Z"/><rect class="cls-4" width="231.3" height="71.93"/></g></svg>