<svg xmlns="http://www.w3.org/2000/svg" viewBox="0 0 360 169"><defs><style>.cls-1{fill:#fae7e7;}.cls-2{fill:none;stroke:#000;stroke-linecap:round;stroke-linejoin:round;stroke-width:1.42px;}.cls-3{fill:#27b5f7;}.cls-4{fill:#f8c341;}</style></defs><g id="圖"><path class="cls-1" d="M96.57,38.56c1-22.89,12.74-29.1,26.8-29.19,15.48-.1,26.6,11.47,27,34.43.21,12.15-7.33,23.48-17.33,26.14l-.16.09a3,3,0,0,0-1.33,2.75l.63,8.09a7.3,7.3,0,0,1-8,6.4L112.52,86A6.26,6.26,0,0,1,107,79l2.58-8.81a3,3,0,0,0-.58-2.8,1.59,1.59,0,0,0-.26-.26C101,61,96.07,50.69,96.57,38.56Z"/><path class="cls-1" d="M204.5,86.24c-.16.38-.52.61-.27,1a6,6,0,0,1,.34,6.83,1,1,0,0,0,.13,1.06c1,1.2,3,4.43-.36,8.17a1,1,0,0,0,0,1.3,5.19,5.19,0,0,1,1.24,4.7c-.79,3.29-3.44,4.58-5.44,5.19a46.69,46.69,0,0,1-10.78,1.8s-11.3,2.19-17-11.79c-3.6-8.79,0-22.54,8-25.26,2.11-.71,4.67-.93,6.35,0l.34.22c.07-.11.32-.24,1-.35a49.1,49.1,0,0,0,5.6-1.06s8-2.37,10.39,2.36A7.15,7.15,0,0,1,204.5,86.24Z"/><path class="cls-2" d="M187.77,93.52c-.2,1.29.15,3.1,2.3,5.18,0,0-3,3,.86,7.4"/><path class="cls-2" d="M200.73,87.32a60.69,60.69,0,0,1-6.22,2.23"/><path class="cls-2" d="M200.53,96.09a41.41,41.41,0,0,1-7.69,2.84"/><path class="cls-2" d="M199.32,105.1s-3,1.37-4.84,1.18"/><path class="cls-1" d="M191,80.52s2.85-6.17,1.65-11-4.22-4.86-5.94-4.21c-2.67,1-3.77,4.77-4.84,9s-6.71,8.94-6.71,8.94"/><path class="cls-2" d="M188.48,86.27s2.21,9.38-6.78,12.29"/><path class="cls-1" d="M195.26,112.54s-18.39,27.55-31.79,30.84-13.06-11.09-13.06-11.09,15.41-13.86,22.43-33.44"/><polygon class="cls-3" points="60.01 148.97 70.74 128.09 74.32 132.7 68.47 150.65 60.01 148.97"/><path class="cls-4" d="M162.33,116.36c-1.91-17.91-12.56-33.35-28-40.09-.18-.08-.36-.17-.54-.24a3.53,3.53,0,0,1-2.18-2.29c-9.36,2.22-22.37-2.37-22.37-2.37l-1,1a4.43,4.43,0,0,1-3,1.36c-3.19.16-8.08,1.31-17.11,9.91C71.27,99.8,72.89,127.83,74.24,169h90.28A473,473,0,0,0,162.33,116.36Z"/><path class="cls-4" d="M77.78,100.49s-8,22.32-10.94,34.36c-.35,1.42-1.21,5.72-1.21,5.72l2.59.31,8.15,1"/><path class="cls-2" d="M101.41,112.73a87.7,87.7,0,0,0-8.08,29.55"/><line class="cls-2" x1="107.92" y1="75.97" x2="126.9" y2="81.73"/><path class="cls-2" d="M130.17,82.68S144.47,106.3,142,167.5"/><line class="cls-2" x1="132.49" y1="81.06" x2="134.61" y2="77.86"/><line class="cls-2" x1="153.58" y1="109.44" x2="145.23" y2="111.34"/><path class="cls-3" d="M145.21,82.62c-1.53,6.69-11.33,47.75-27.07,77.76l-13.37.2s16.43-23,35.56-80.52a1.24,1.24,0,0,1,1.91-.69l2.44,1.78A1.42,1.42,0,0,1,145.21,82.62Z"/><polygon class="cls-3" points="118.14 160.38 58.25 148.61 51.71 169 116.52 169 118.14 160.38"/><path class="cls-1" d="M86.23,151.66s.39-3.82.74-6.62a1.9,1.9,0,0,0-1.45-2.19c-3.38-.52-11.15-1.64-17.36-2l-2,9.6s-.28,11,.89,17.72l6.83.81H92.07C90.33,164.63,86.67,155.11,86.23,151.66Z"/><path class="cls-2" d="M115.69,165.05s-3-2.93-9.39-2.65l-2.36,6.53"/><ellipse cx="116.6" cy="35.84" rx="1.5" ry="3.17"/><ellipse cx="133.12" cy="35.84" rx="1.5" ry="3.17"/><line class="cls-2" x1="124.94" y1="29.82" x2="124.94" y2="43.46"/><path class="cls-2" d="M119.73,51.75s8.8,2.9,13.39-5.51"/></g></svg>