<svg fill="none" height="53" viewBox="0 0 46 53" width="46" xmlns="http://www.w3.org/2000/svg"><path d="m9.32484 6.72904h26.23246c2.0819 0 3.7696 1.68768 3.7696 3.76956v33.0607c0 2.0819-1.6877 3.7696-3.7696 3.7696h-26.23246c-2.08186 0-3.76954-1.6877-3.76954-3.7696v-33.0607c0-2.08188 1.68768-3.76956 3.76954-3.76956z" fill="#fff" stroke="#8e8e8e" stroke-width="2"/><path d="m12.9299 18.3981c1.8881 0 3.4188-1.5306 3.4188-3.4188 0-1.8881-1.5307-3.4187-3.4188-3.4187s-3.41879 1.5306-3.41879 3.4187c0 1.8882 1.53069 3.4188 3.41879 3.4188z" fill="#27b5f7"/><path d="m19.7489 14.9793h14.5881" stroke="#8e8e8e" stroke-linecap="round" stroke-miterlimit="10" stroke-width="2"/><path d="m12.9299 30.4431c1.8881 0 3.4188-1.5307 3.4188-3.4188s-1.5307-3.4188-3.4188-3.4188-3.41879 1.5307-3.41879 3.4188 1.53069 3.4188 3.41879 3.4188z" fill="#f8c341"/><path d="m19.7489 27.0243h14.5881" stroke="#8e8e8e" stroke-linecap="round" stroke-miterlimit="10" stroke-width="2"/><path d="m12.9299 42.4974c1.8881 0 3.4188-1.5307 3.4188-3.4188 0-1.8882-1.5307-3.4188-3.4188-3.4188s-3.41879 1.5306-3.41879 3.4188c0 1.8881 1.53069 3.4188 3.41879 3.4188z" fill="#f76977"/><path d="m19.7489 39.0786h14.5881" stroke="#8e8e8e" stroke-linecap="round" stroke-miterlimit="10" stroke-width="2"/></svg>