<svg xmlns="http://www.w3.org/2000/svg" viewBox="0 0 270.26 71.93"><defs><style>.cls-1{fill:#232323;}.cls-2{fill:#f8c341;}.cls-3{fill:#fff;}.cls-4{fill:none;}</style></defs><g id="框"><path class="cls-1" d="M70.3,27.22c.1-.48.37-.64.8-.47l3.36,1.34c.43.17.57.56.43,1.19Q72.79,38.64,69.47,43c-.19.27-.48.27-.86,0l-2.64-2a.61.61,0,0,1-.22-.94,19.06,19.06,0,0,0,2.64-5.52A41,41,0,0,0,70.3,27.22ZM79.91,19c0-.48.23-.69.69-.62l3.28.55a.75.75,0,0,1,.69.83V46.11a6.78,6.78,0,0,1-.51,3,3.18,3.18,0,0,1-1.69,1.55,14.1,14.1,0,0,1-5.46.76c-1.47,0-2.39-.43-2.78-1.44L73.77,49c-.51-1.35,0-2,1.41-2l1.33.07c1.26,0,2,0,2.32,0a1.31,1.31,0,0,0,.83-.22.92.92,0,0,0,.25-.72Zm8.92,9.35c-.22-.43-.1-.68.36-.76l3.21-.68a.89.89,0,0,1,1,.5A63.86,63.86,0,0,1,97,34.66a35.46,35.46,0,0,1,2.42,7c.1.39-.08.64-.54.76l-3.46.9c-.46.12-.73,0-.8-.43a35.1,35.1,0,0,0-2.06-6.54A66.92,66.92,0,0,0,88.83,28.34Z"/><path class="cls-1" d="M116.17,23.72q.72,0,.57.69l-.47,2a.77.77,0,0,1-.83.68h-9.78c-.48,0-.68-.23-.58-.68l.47-2a.79.79,0,0,1,.87-.69h4L108,20c-.27-.38-.17-.61.29-.68L111,18.7a1,1,0,0,1,1.08.47l1.3,1.8q1.23,1.77-1,2.75Zm-.55,10c.48,0,.68.23.58.68l-.47,1.84a.79.79,0,0,1-.87.69h-8.12c-.48,0-.67-.23-.58-.69l.47-1.84a.8.8,0,0,1,.87-.68Zm-1.4,5A1.53,1.53,0,0,1,116,40.4v7.4a1.53,1.53,0,0,1-1.73,1.74h-6.14a1.54,1.54,0,0,1-1.74-1.74V40.4a1.53,1.53,0,0,1,1.74-1.73Zm1.62-9.21-.47,1.88a.79.79,0,0,1-.87.68h-7.33c-.48,0-.67-.22-.57-.68l.46-1.88a.8.8,0,0,1,.87-.69h7.33C115.74,28.77,115.94,29,115.84,29.46ZM112.52,43a.83.83,0,0,0-.94-.94h-1a.83.83,0,0,0-.93.94v2.27a.83.83,0,0,0,.93.94h1a.83.83,0,0,0,.94-.94Zm24.37,1.44a1.53,1.53,0,0,1-1.73,1.73h-2.93L138,48.49c.43.17.48.41.14.72l-1.77,1.56a.89.89,0,0,1-1.08.18,36.69,36.69,0,0,0-3.65-1.7c-1.69-.72-2-1.76-1.05-3.11h-6.21l.62.4c1.22.75,1.21,1.48,0,2.2L123,49.86a18.67,18.67,0,0,1-3.72,1.41.84.84,0,0,1-1-.36l-1.12-1.59c-.26-.38-.16-.65.33-.79a17.2,17.2,0,0,0,5.38-2.39H120.9a1.53,1.53,0,0,1-1.74-1.73V37a1.53,1.53,0,0,1,1.74-1.73h14.26A1.53,1.53,0,0,1,136.89,37Zm-11.3-21.16V22h-7c-.48,0-.66-.23-.54-.68l.39-1.27a.84.84,0,0,1,.91-.68h6.28v-.91c0-.48.23-.68.69-.61l2.81.54c.46.07.69.4.69,1h7.55c.48,0,.66.22.54.68l-.4,1.27a.84.84,0,0,1-.9.68h-6.79v1.23h6.57q.72,0,.54.69l-.39,1.11a.85.85,0,0,1-.91.69H119.78c-.49,0-.67-.23-.55-.69l.4-1.11a.84.84,0,0,1,.9-.69ZM119.7,34.41A1.53,1.53,0,0,1,118,32.67V28.52a1.53,1.53,0,0,1,1.73-1.73h16.43a1.53,1.53,0,0,1,1.74,1.73v4.15a1.54,1.54,0,0,1-1.74,1.74Zm2.57-5.53a.83.83,0,0,0-.94.94v1.55a.83.83,0,0,0,.94.94h1.59V28.88Zm1.62,8.63c-.62,0-.94.36-.94,1.09h10c0-.73-.31-1.09-.94-1.09ZM123,40.19v1.08h10V40.19Zm0,2.63V44h9c.63,0,.94-.39.94-1.16Zm3.47-10.51h2.71V28.88h-2.71Zm7,0a.83.83,0,0,0,.94-.94V29.82a.83.83,0,0,0-.94-.94h-1.63v3.43Z"/><path class="cls-1" d="M178.17,29.75l-.54,2.53a.75.75,0,0,1-.83.68h-12l-4.4,3h11.88a1.52,1.52,0,0,1,1.7,1.73V49.83a1.5,1.5,0,0,1-1.7,1.69H153.83a1.52,1.52,0,0,1-1.73-1.73V40.47q-3.33,1.45-5.17,2.14c-.36.14-.65,0-.86-.4l-1.38-2.64c-.21-.41-.09-.68.36-.83A58,58,0,0,0,157.51,33H145.56c-.48,0-.69-.23-.61-.68l.54-2.53a.75.75,0,0,1,.83-.69h10.51V25.67h-8.06c-.48,0-.68-.23-.61-.69l.54-2.45a.75.75,0,0,1,.83-.69h7.3V18.52c0-.48.22-.69.68-.61l3,.54a.75.75,0,0,1,.68.83v2.56h6.36c1.15,0,1.73.6,1.73,1.81l3.4-4.19a.61.61,0,0,1,1-.11l2.28,1.7a.62.62,0,0,1,.14,1,49.33,49.33,0,0,1-6.5,7h7.94C178,29.06,178.24,29.29,178.17,29.75ZM169.36,42V40.51a.83.83,0,0,0-.94-.94H156.54V42Zm-12.82,5a.83.83,0,0,0,.94.94h10.94a.84.84,0,0,0,.94-.94V45.31H156.54Zm4.69-21.27v3.39h2.06l4-3.39Z"/><path class="cls-1" d="M191.2,29.68a1.53,1.53,0,0,1,1.74,1.73v12.1a1.76,1.76,0,0,0,.72,1.48l.65.36a10.33,10.33,0,0,0,4,1.37,45.79,45.79,0,0,0,6.07.33,78.35,78.35,0,0,0,12.39-.73q2-.32,1.41,1.77l-.29,1a2.14,2.14,0,0,1-2.21,1.62q-5.37.41-11.48.4a39.8,39.8,0,0,1-6.32-.4,12.13,12.13,0,0,1-4.26-1.51c-.39-.24-.86-.56-1.41-.94s-1-.69-1.3-.9a1.65,1.65,0,0,0-.83-.33q-1.12,0-2.89,3.58c-.36.74-.64.9-.83.46l-1.59-3.61a1.1,1.1,0,0,1,.26-1.26,6.75,6.75,0,0,1,2.81-2.35,1.49,1.49,0,0,0,.94-1.41V34.55a.83.83,0,0,0-.94-.94h-2.45c-.49,0-.69-.23-.62-.68l.54-2.57a.75.75,0,0,1,.83-.68Zm2.75-6c.22.26.12.52-.29.76l-2.49,1.44c-.41.24-.72.21-.94-.11a42.64,42.64,0,0,0-3.76-4.8c-.41-.53-.39-.87,0-1l2.64-1c.43-.14.86,0,1.3.55A38.4,38.4,0,0,1,194,23.72Zm9.46,1.62V23.83H195.1q-.72,0-.57-.69l.47-2.09a.79.79,0,0,1,.86-.69h7.55V18.52c0-.48.23-.69.69-.61l2.81.54a.75.75,0,0,1,.69.83v1.08h8.74c.48,0,.67.23.58.69l-.47,2.09a.8.8,0,0,1-.87.69h-8v1.51h6.14a1.53,1.53,0,0,1,1.73,1.74v8.77a1.53,1.53,0,0,1-1.73,1.74H207.6v1.58h9.17c.48,0,.67.23.58.69L216.88,42a.8.8,0,0,1-.87.69H207.6v2.6c0,.48-.23.68-.69.61l-2.81-.54a.75.75,0,0,1-.69-.83V42.68h-8.7c-.48,0-.68-.23-.58-.69l.47-2.13a.79.79,0,0,1,.87-.69h7.94V37.59h-5.85a1.53,1.53,0,0,1-1.73-1.74V27.08a1.53,1.53,0,0,1,1.73-1.74Zm-2.71,3a.84.84,0,0,0-.94.94V30h3.65V28.3Zm-.94,5.39a.83.83,0,0,0,.94.93h2.71v-1.8h-3.65Zm11.59-4.45a.83.83,0,0,0-.93-.94H207.6V30h3.75Zm-.93,5.38a.82.82,0,0,0,.93-.93v-.87H207.6v1.8Z"/><path class="cls-1" d="M225.4,42.53c.07-.72.33-1,.76-.79l1.88.94a1,1,0,0,1,.54,1.15,27,27,0,0,1-1.26,6.72c-.1.38-.35.47-.76.25l-1.77-1c-.41-.22-.56-.49-.44-.83A21.41,21.41,0,0,0,225.4,42.53Zm12-3.9c.07.39-.13.59-.61.62l-1.95.21c-.48,0-.77-.24-.87-.79q-7.11,1-8.27,1.55c-.17.07-.3-.12-.4-.58L224.64,37a.88.88,0,0,1,.37-1c.09.15.74-.48,2-1.88l2.16-2.85-3.61.69c-.24.07-.41-.12-.5-.58l-.58-2.57a1.05,1.05,0,0,1,.36-1.11c-.07.28.27-.14,1.05-1.27a28,28,0,0,0,2-3.61,29.71,29.71,0,0,0,1.81-4.44c.14-.46.41-.57.79-.33l2.42,1.59a.72.72,0,0,1,.29,1,34.46,34.46,0,0,1-3.43,6.25c-.41.6-.3.89.32.87l1.49-.15,2.23-4.22c.22-.41.5-.46.83-.15l2.24,2a.81.81,0,0,1,.18,1.08,48,48,0,0,1-4.08,6.14l1-.29c1.11-.31,1.87.2,2.28,1.55A22.29,22.29,0,0,1,237.39,38.63ZM229.48,43c-.07-.68.13-1,.62-.94l1.66.21a.93.93,0,0,1,.86.87,35,35,0,0,1,.51,5.27c0,.46-.2.69-.69.69L230.67,49c-.48,0-.72-.2-.72-.61A35.49,35.49,0,0,0,229.48,43Zm1.16-7.73c-.29.34-.12.47.5.4l2.1-.26c-.12-.53-.34-1.36-.65-2.49C231.53,34.19,230.88,35,230.64,35.24ZM233.13,42c-.12-.46.06-.7.54-.73l1.59-.11a.81.81,0,0,1,.9.65l.91,2.89c.12.46-.06.7-.55.73l-1.66.18a.81.81,0,0,1-.9-.65Zm9.42-5.13a2,2,0,0,1,1.27.43l1.26.94a1.18,1.18,0,0,1,.33,1.3,14.32,14.32,0,0,1-6.61,9.86.54.54,0,0,1-.9-.22L236.74,47a.7.7,0,0,1,.25-1,6.65,6.65,0,0,0,1.85-1.84l1.76-3c.32-.53.16-.8-.46-.8h-1.59c-.49,0-.68-.23-.58-.68l.47-2.1a.78.78,0,0,1,.86-.68Zm11.38-1a.52.52,0,0,1,.9,0l1.77,2a.61.61,0,0,1-.14,1l-3.61,2.89a13.62,13.62,0,0,0,4.66,4.69c.4.2.43.45.07.76l-2.31,2.06a.78.78,0,0,1-1.09,0q-1.91-1.23-4.08-5.17v3.11a6,6,0,0,1-.36,2.31,2.63,2.63,0,0,1-1.23,1.33,9.23,9.23,0,0,1-4.19.65c-.67,0-1-.2-1-.68l-.18-2.42c0-.48.27-.72.8-.72a11.76,11.76,0,0,0,1.48,0c.41,0,.61-.17.61-.5V34.73h-5.16A1.53,1.53,0,0,1,239.12,33V23.32a1.53,1.53,0,0,1,1.74-1.73h3.39l1-3.14a.59.59,0,0,1,.86-.47l3.18,1.08c.46.15.58.43.36.87l-.94,1.66h6a1.53,1.53,0,0,1,1.73,1.73V33a1.53,1.53,0,0,1-1.73,1.73H250.1v1.16l1.09,2.89ZM244,24.8a.83.83,0,0,0-.94.94v.87h9.17v-.87a.83.83,0,0,0-.94-.94Zm-.94,4.8v1a.83.83,0,0,0,.94.94h7.29a.83.83,0,0,0,.94-.94v-1Z"/><ellipse class="cls-2" cx="32.62" cy="31.89" rx="21.2" ry="17.87"/><path class="cls-3" d="M43.52,26.06H20a.74.74,0,1,1,0-1.48H43.52a.74.74,0,1,1,0,1.48Z"/><path class="cls-3" d="M43.52,32.55H20a.74.74,0,1,1,0-1.48H43.52a.74.74,0,0,1,0,1.48Z"/><path class="cls-3" d="M32.5,39H20a.74.74,0,1,1,0-1.48H32.5a.74.74,0,0,1,0,1.48Z"/><path class="cls-2" d="M21.64,46.35s-.5,8,5.63,11.45c.72.4,1.49-.37,1.26-1.27A9.47,9.47,0,0,1,30,48.14"/><rect class="cls-4" width="270.26" height="71.93"/></g></svg>