<svg xmlns="http://www.w3.org/2000/svg" xmlns:xlink="http://www.w3.org/1999/xlink" viewBox="0 0 360 169"><defs><style>.cls-1,.cls-5,.cls-6{fill:none;}.cls-2{clip-path:url(#clip-path);}.cls-3{fill:#fae7e7;}.cls-4{fill:#f8c341;}.cls-5,.cls-6{stroke:#000;stroke-linecap:round;stroke-linejoin:round;}.cls-5{stroke-width:1.51px;}.cls-6{stroke-width:1.97px;}</style><clipPath id="clip-path"><rect class="cls-1" x="1.88" y="-1.88" width="360" height="170.88"/></clipPath></defs><g id="圖層_3" data-name="圖層 3"><g class="cls-2"><path class="cls-3" d="M92.72,52.27c-.17-22.14,14.14-29.79,28.37-29.4,14.79.4,24.75,10.08,26.3,32.23.82,11.72-6.25,23-16.23,26l-.15.09a2.79,2.79,0,0,0-1.21,2.71l1,7.79A7.22,7.22,0,0,1,123,98.16l-11.81-.8a6.18,6.18,0,0,1-5.9-6.45l2.17-8.61a2.8,2.8,0,0,0-.72-2.68,1.93,1.93,0,0,0-.29-.24C98.26,73.73,92.82,64,92.72,52.27Z"/><path class="cls-4" d="M77.11,99.46c9.66-9.92,26.75-12.67,29.65-12.83,12,5,22.08,2.24,23.83.94,17.23,6.34,23.83,14.62,23.83,14.62,10.22,38.19,8.6,98.07,8.6,98.07H68.24C65,149.13,59.09,118,77.11,99.46Z"/><path class="cls-3" d="M73.77,156.44a1.21,1.21,0,0,0-.82,1.17c0,2.6.23,10.22,3.25,16.66,4.46,9.53,13.61,18.38,22.06,25.09a4.1,4.1,0,0,0,2.56.9h62.87a4.45,4.45,0,0,0,4.3-4.64c-.11-8.65-2.61-20.76-16.82-25.08,0,0-12.83-4-29.23,6.37a4,4,0,0,1-4.11.16c-6.69-3.58-23.78-12.82-24.25-14.22a27.16,27.16,0,0,1-1.85-8.93,1.17,1.17,0,0,0-1.29-1.1A120.66,120.66,0,0,0,73.77,156.44Z"/><ellipse cx="133.13" cy="46.36" rx="1.66" ry="3.51" transform="translate(-1.16 3.49) rotate(-1.5)"/><ellipse cx="114.84" cy="46.84" rx="1.66" ry="3.51" transform="translate(-1.18 3.01) rotate(-1.5)"/><line class="cls-5" x1="123.72" y1="39.93" x2="124.11" y2="55.04"/><path class="cls-5" d="M130.12,64.07s-9.66,3.47-15-5.72"/><path class="cls-3" d="M231.28,80.56a38.35,38.35,0,0,0,6-2.19,36.82,36.82,0,0,0,6.11-3.83c.83-.61,1.9-.38,2.43-1.14,1.43-2.09,0-3.74-2.93-4a43.89,43.89,0,0,0-10.53.74c-8.72,1.68-12,2.44-19.34,2.91-3.64.24-12,.89-15.48,6.93-.94,1.62-1.34,4.44-1.95,6s-.25,4.16,1.23,5.2a8.08,8.08,0,0,0,3.41,1.1c5.86.86,10.76,3.88,14.14-1.07C217.27,86.93,225.6,82.11,231.28,80.56Z"/><path class="cls-3" d="M200.44,75.88c2-.88,3.12-5.34,12.05-5.64,2.15-.08,3.4-.78,5.46-1.21,1.81-.38,5-1.25,7.12.21.54.37,1.78,2.91-3.25,5.14"/><path class="cls-3" d="M232.55,83.28c2.12-.34,4.29-.56,6.35-1.08a37,37,0,0,0,6.78-2.68A9,9,0,0,0,248.24,78c1.81-1.8.41-4.71-2.44-5.5s-6.06.3-9,.94c-7.12,1.53-13.71,0-21.08-.8-3.66-.42-10-3.58-16.14,3.28-1.25,1.4-1.41,2.5-2,4.09-1.4,3.61-2.56,6.29-1.27,7.58a8.06,8.06,0,0,0,3.19,1.7c5.69,1.9,13.33,2.1,18.94-.11,2-.78,2.95-2.15,4.65-3.15C225.58,84.47,229.39,83.78,232.55,83.28Z"/><path class="cls-3" d="M229.17,87.74c2.1-.46,9.32-3.85,17.32-5a3.12,3.12,0,0,0,.75-6.06c-2.9-.8-6.05.3-9,.94-7.13,1.53-13.72.05-21.09-.8-3.66-.42-12.08-1.27-16.68,4-1.23,1.42-2.15,4.13-3,5.58s-1,4,.28,5.33a8,8,0,0,0,3.2,1.7c5.68,1.9,10,5.75,14.28,1.49C218.86,91.21,222.76,89.14,229.17,87.74Z"/><path class="cls-5" d="M213,72.62A8.73,8.73,0,0,1,211,76.49"/><path class="cls-3" d="M197.4,81.46c-4.14,6.64-10.89,25.09-13.31,28.89s-8.07.88-11-.74a66.72,66.72,0,0,1-9.67-6l-14.8,15.72c5.91,5,13.33,8.65,20.25,12.15s15.77,7.81,24.13,2.67c6.11-3.76,14.44-22.37,17.52-28.84,3.52-7.39,3.59-13.58,16.65-22.21"/><path class="cls-5" d="M220.69,73a12.29,12.29,0,0,1-8.19,1.82"/><path class="cls-5" d="M246.44,76.35c-4.69-.11-12.75.92-17.27,3"/><path class="cls-5" d="M243.56,72.33c-3.59-.51-9.48.45-13.39,1.94"/><path class="cls-4" d="M130.59,87.57s29.88,11.54,37.4,15-10.77,35-10.77,35l-27.93-20.48Z"/></g><path class="cls-6" d="M158.27,128.45s-1.56-13.48-7.19-21.95"/></g><g id="圖"><ellipse class="cls-4" cx="184.99" cy="41.01" rx="25.25" ry="18.1" transform="translate(-1.01 4.84) rotate(-1.5)"/><path class="cls-4" d="M172.61,53.53s-3.28,7.48-11.35,7.12a1.08,1.08,0,0,1-.73-1.84A8.45,8.45,0,0,0,163,50.49"/></g></svg>