<svg xmlns="http://www.w3.org/2000/svg" viewBox="0 0 360 169"><defs><style>.cls-1{fill:#f56977;}.cls-2{fill:#d3d4d4;}.cls-3{fill:#f0f0f0;}.cls-4{fill:#f8c341;}.cls-5{fill:#27b5f7;}.cls-6,.cls-9{fill:none;stroke:#000;stroke-linecap:round;}.cls-6{stroke-linejoin:round;stroke-width:1.05px;}.cls-7{fill:#fff;}.cls-8{fill:#211815;}.cls-9{stroke-miterlimit:10;stroke-width:1.2px;}</style></defs><g id="圖"><path class="cls-1" d="M19.27,50.8H126.85a0,0,0,0,1,0,0V155.24a0,0,0,0,1,0,0H19.27a3,3,0,0,1-3-3V53.8A3,3,0,0,1,19.27,50.8Z"/><path class="cls-1" d="M126.85,50.8H234.43a3,3,0,0,1,3,3v98.43a3,3,0,0,1-3,3H126.85a0,0,0,0,1,0,0V50.8A0,0,0,0,1,126.85,50.8Z"/><path class="cls-2" d="M126.85,132h105a0,0,0,0,1,0,0v17.4a1,1,0,0,1-1,1h-103a1,1,0,0,1-1-1V132A0,0,0,0,1,126.85,132Z"/><path class="cls-3" d="M126.85,47.26h102a3,3,0,0,1,3,3v85.39a0,0,0,0,1,0,0h-105a0,0,0,0,1,0,0V47.26A0,0,0,0,1,126.85,47.26Z"/><path class="cls-2" d="M22.82,132h103a1,1,0,0,1,1,1v17.4a0,0,0,0,1,0,0h-105a0,0,0,0,1,0,0V133a1,1,0,0,1,1-1Z" transform="translate(148.67 282.31) rotate(-180)"/><path class="cls-3" d="M21.82,47.26h105a0,0,0,0,1,0,0v85.39a3,3,0,0,1-3,3h-102a0,0,0,0,1,0,0V47.26a0,0,0,0,1,0,0Z" transform="translate(148.67 182.91) rotate(-180)"/><polygon class="cls-4" points="166.87 53.81 165.27 54.67 163.62 55.4 161.86 55.79 160.18 56.43 158.43 56.85 156.82 57.72 155.05 58.07 153.29 58.49 151.62 59.13 149.92 59.73 148.3 60.54 146.65 61.27 144.86 61.6 143.19 62.28 141.41 62.62 139.72 63.26 137.96 64.08 137.74 62.06 137.81 60.15 138.36 58.25 138.24 56.35 138.12 54.44 137.94 52.54 137.96 50.64 137.84 48.73 138.06 46.83 137.91 44.93 137.99 43.02 137.99 41.12 137.87 39.21 137.77 37.3 138.03 35.38 139.81 34.71 141.58 34.09 143.41 33.65 145.23 33.16 147.03 32.62 148.84 32.1 150.58 31.36 152.29 30.56 154.02 29.82 155.82 29.27 157.5 28.41 159.32 27.88 161.09 27.23 162.66 26.13 164.49 25.57 165.91 24.22 167.68 23.55 169.18 22.4 170.98 21.71 172.38 20.43 174.03 19.46 175.12 17.88 176.78 16.58 176.34 18.49 176.39 20.34 176.7 22.19 176.78 24.04 176.66 25.88 176.43 27.73 176.25 29.57 176.37 31.42 176.35 33.27 176.41 35.12 176.5 36.97 176.59 38.83 176.31 40.69 176.64 42.66 176.3 44.62 175.13 46.28 174.24 47.98 173.06 49.49 171.98 51.13 170.44 52.33 168.8 53.4 166.87 53.81"/><polygon class="cls-5" points="194.65 93.31 196.45 93.6 198.19 94.03 199.83 94.8 201.55 95.32 203.19 96.06 204.99 96.36 206.61 97.17 208.26 97.92 209.97 98.43 211.68 98.99 213.46 99.35 215.21 99.78 216.83 100.62 218.56 101.1 220.18 101.92 221.91 102.45 223.56 102.79 223.34 101.01 223.41 99.11 223.97 97.21 223.84 95.31 223.72 93.4 223.55 91.5 223.56 89.59 223.44 87.69 223.67 85.79 223.51 83.89 223.59 81.98 223.6 80.08 223.47 78.17 223.38 76.26 223.63 74.36 221.81 73.97 219.99 73.48 218.24 72.78 216.49 72.09 214.73 71.42 212.99 70.69 211.19 70.14 209.38 69.62 207.6 69 205.92 68.14 204.13 67.55 202.5 66.58 200.84 65.69 199.01 65.17 197.46 64.05 195.55 63.65 194.03 62.49 192.31 61.7 190.94 60.35 189.27 59.46 187.96 58.09 186.28 57.14 185.41 55.67 184.97 57.45 185.02 59.3 185.33 61.15 185.41 62.99 185.29 64.84 185.05 66.69 184.88 68.53 185 70.38 184.98 72.23 185.04 74.08 185.13 75.93 185.22 77.79 184.94 79.64 185.53 81.56 186 83.42 186.15 85.43 187.07 87.19 188.16 88.85 189.76 90.05 191.27 91.28 192.99 92.2 194.65 93.31"/><polyline class="cls-6" points="140.83 126.39 142.66 126.38 144.5 126.35 146.33 126.48 148.16 126.44 150 126.39 151.84 126.54 153.67 126.5 155.5 126.51 157.34 126.45 159.17 126.46 161.01 126.48 162.84 126.43 164.68 126.5 166.51 126.46 168.35 126.5 170.19 126.44 172.02 126.5 173.85 126.51 175.69 126.48 177.52 126.38 179.35 126.41 181.18 126.43 183.02 126.54 184.85 126.45 186.69 126.43 188.52 126.42 190.36 126.54 192.2 126.44 194.03 126.55 195.87 126.49 197.71 126.51 199.54 126.46 201.38 126.46 203.22 126.35 205.06 126.47 206.9 126.55 208.73 126.35 210.57 126.41 212.41 126.45 214.25 126.35 216.09 126.44 217.93 126.45 219.77 126.38 221.61 126.44 223.46 126.44"/><polyline class="cls-6" points="140.83 120.02 142.66 120 144.5 119.97 146.33 120.11 148.16 120.06 150 120.02 151.84 120.16 153.67 120.13 155.5 120.13 157.34 120.08 159.17 120.08 161.01 120.11 162.84 120.05 164.68 120.12 166.51 120.08 168.35 120.13 170.19 120.06 172.02 120.13 173.85 120.14 175.69 120.11 177.52 120.01 179.35 120.04 181.18 120.06 183.02 120.17 184.85 120.08 186.69 120.06 188.52 120.05 190.36 120.17 192.2 120.06 194.03 120.17 195.87 120.12 197.71 120.14 199.54 120.08 201.38 120.08 203.22 119.98 205.06 120.09 206.9 120.17 208.73 119.97 210.57 120.03 212.41 120.08 214.25 119.97 216.09 120.06 217.93 120.08 219.77 120.01 221.61 120.06 223.46 120.07"/><polyline class="cls-6" points="140.83 113.64 142.66 113.63 144.5 113.6 146.33 113.73 148.16 113.69 150 113.64 151.84 113.79 153.67 113.75 155.5 113.76 157.34 113.7 159.17 113.71 161.01 113.73 162.84 113.67 164.68 113.75 166.51 113.71 168.35 113.75 170.19 113.69 172.02 113.75 173.85 113.76 175.69 113.73 177.52 113.63 179.35 113.66 181.18 113.68 183.02 113.79 184.85 113.7 186.69 113.68 188.52 113.67 190.36 113.79 192.2 113.69 194.03 113.8 195.87 113.74 197.71 113.76 199.54 113.71 201.38 113.71 203.22 113.6 205.06 113.72 206.9 113.8 208.73 113.6 210.57 113.66 212.41 113.7 214.25 113.6 216.09 113.69 217.93 113.7 219.77 113.63 221.61 113.69 223.46 113.69"/><polyline class="cls-6" points="140.83 107.27 142.66 107.25 144.5 107.22 146.33 107.36 148.16 107.31 150 107.27 151.84 107.41 153.67 107.38 155.5 107.38 157.34 107.32 159.17 107.33 161.01 107.35 162.84 107.3 164.68 107.37 166.51 107.33 168.35 107.37 170.19 107.31 172.02 107.37 173.85 107.39 175.69 107.36 177.52 107.26 179.35 107.29 181.18 107.3 183.02 107.42 184.85 107.32 186.69 107.31 188.52 107.3 190.36 107.41 192.2 107.31 194.03 107.42 195.87 107.36 197.71 107.38 199.54 107.33 201.38 107.33 203.22 107.23 205.06 107.34 206.9 107.42 208.73 107.22 210.57 107.28 212.41 107.33 214.25 107.22 216.09 107.31 217.93 107.33 219.77 107.26 221.61 107.31 223.46 107.31"/><polyline class="cls-6" points="140.83 100.89 142.66 100.87 144.48 100.85 146.31 100.98 148.14 100.94 149.97 100.89 151.79 101.04 153.62 101 155.45 101 157.28 100.95 159.11 100.96 160.94 100.98 162.78 100.92 164.61 101 166.43 100.95 168.26 101 170.09 100.94 171.93 101 173.76 101.01 175.59 100.98 177.43 100.88 179.26 100.91 181.1 100.93"/><polyline class="cls-6" points="140.83 94.51 142.66 94.5 144.48 94.47 146.31 94.6 148.14 94.56 149.97 94.52 151.79 94.66 153.62 94.63 155.45 94.63 157.28 94.57 159.11 94.58 160.94 94.6 162.78 94.55 164.61 94.62 166.43 94.58 168.26 94.62 170.09 94.56 171.93 94.62 173.76 94.64 175.59 94.6 177.43 94.51 179.26 94.53 181.1 94.55"/><polyline class="cls-6" points="140.83 88.14 142.66 88.12 144.48 88.1 146.31 88.23 148.14 88.18 149.97 88.14 151.79 88.29 153.62 88.25 155.45 88.25 157.28 88.2 159.11 88.21 160.94 88.23 162.78 88.17 164.61 88.25 166.43 88.2 168.26 88.25 170.09 88.19 171.93 88.25 173.76 88.26 175.59 88.23 177.43 88.13 179.26 88.16 181.1 88.18"/><polyline class="cls-6" points="140.83 81.76 142.66 81.75 144.48 81.72 146.31 81.85 148.14 81.81 149.97 81.76 151.79 81.91 153.62 81.88 155.45 81.88 157.28 81.82 159.11 81.83 160.94 81.85 162.78 81.8 164.61 81.87 166.43 81.83 168.26 81.87 170.09 81.81 171.93 81.87 173.76 81.89 175.59 81.85 177.43 81.75 179.26 81.78 181.1 81.8"/><polyline class="cls-6" points="140.83 75.39 142.66 75.37 144.48 75.34 146.31 75.48 148.14 75.43 149.97 75.39 151.79 75.53 153.62 75.5 155.45 75.5 157.28 75.45 159.11 75.46 160.94 75.48 162.78 75.42 164.61 75.49 166.43 75.45 168.26 75.5 170.09 75.43 171.93 75.5 173.76 75.51 175.59 75.48 177.43 75.38 179.26 75.41 181.1 75.43"/><polyline class="cls-6" points="140.83 69.01 142.66 69 144.48 68.97 146.31 69.1 148.14 69.06 149.97 69.01 151.79 69.16 153.62 69.12 155.45 69.13 157.28 69.07 159.11 69.08 160.94 69.1 162.78 69.05 164.61 69.12 166.43 69.08 168.26 69.12 170.09 69.06 171.93 69.12 173.76 69.13 175.59 69.1 177.43 69 179.26 69.03 181.1 69.05"/><polyline class="cls-6" points="28.74 126.39 30.56 126.38 32.39 126.35 34.21 126.48 36.04 126.44 37.86 126.39 39.69 126.54 41.51 126.5 43.34 126.51 45.16 126.45 46.98 126.46 48.8 126.48 50.62 126.43 52.44 126.5 54.27 126.46 56.09 126.5 57.91 126.44 59.74 126.5 61.56 126.51 63.39 126.48 65.21 126.38 67.04 126.41 68.87 126.43 70.69 126.54 72.52 126.45 74.35 126.43 76.17 126.42 78 126.54 79.82 126.44 81.65 126.55 83.48 126.49 85.31 126.51 87.14 126.46 88.97 126.46 90.8 126.35 92.63 126.47 94.47 126.55"/><polyline class="cls-6" points="28.74 120.02 30.58 120 32.42 119.97 34.26 120.11 36.09 120.06 37.93 120.02 39.76 120.16 41.6 120.13 43.44 120.13 45.28 120.08 47.12 120.08 48.96 120.11 50.8 120.05 52.64 120.12 54.48 120.08 56.32 120.13 58.16 120.06 60 120.13 61.85 120.14 63.69 120.11 65.53 120.01 67.38 120.04 69.21 120.06 71.06 120.17 72.9 120.08 74.74 120.06 76.59 120.05 78.43 120.17 80.28 120.06 82.13 120.17 83.98 120.12"/><polyline class="cls-6" points="28.74 113.64 30.61 113.63 32.48 113.6 34.35 113.73 36.22 113.69 38.09 113.64 39.96 113.79 41.83 113.75 43.7 113.76 45.57 113.7 47.45 113.71 49.32 113.73 51.19 113.67 53.06 113.75 54.93 113.71 56.8 113.75 58.68 113.69 60.55 113.75 62.42 113.76 64.31 113.73 66.18 113.63"/><polyline class="cls-6" points="28.74 107.27 30.62 107.25 32.49 107.22 34.36 107.36 36.24 107.31 38.11 107.27 39.99 107.41 41.87 107.38 43.74 107.38 45.62 107.32 47.5 107.33 49.38 107.35"/><polyline class="cls-6" points="28.74 100.89 30.55 100.87 32.38 100.85 34.2 100.98 36.02 100.94"/><polyline class="cls-6" points="28.74 94.51 30.55 94.5 32.38 94.47 34.2 94.6 36.02 94.56"/><path class="cls-1" d="M200.21,50.29a1.45,1.45,0,0,1-1.79,1,1.92,1.92,0,0,0-2.31,1.08,1.84,1.84,0,0,0,1.23,2.44l2.69.74a2.45,2.45,0,0,0,3-1.71l2.71-9.8-3.54-1Z"/><path class="cls-1" d="M210.82,55.19a1.45,1.45,0,0,0,.48,2,1.93,1.93,0,0,1,.78,2.42,1.84,1.84,0,0,1-2.62.77l-2.38-1.46a2.46,2.46,0,0,1-.8-3.38l5.32-8.66,3.13,1.93Z"/><polygon class="cls-1" points="214.57 30.96 212.59 28.95 210.76 26.84 208.73 24.92 206.72 22.98 204.87 20.89 202.91 18.9 200.88 16.97 199.01 14.89 197.01 13.07 195.89 15.74 194.79 18.5 193.56 21.21 192.43 23.96 191.37 26.74 190.26 29.51 189.02 32.21 187.85 34.95 186.85 37.75 185.72 40.51 184.47 43.21 183.32 45.95 182.26 48.7 185.02 48.73 187.81 48.71 190.6 48.71 193.4 48.6 196.19 48.58 198.98 48.61 201.77 48.57 204.56 48.53 207.33 48.53 209.65 50.19 211.97 51.87 214.14 53.77 216.44 55.49 218.76 57.17 219.95 54.5 220.95 51.74 222.14 49.06 223.16 46.3 224.36 43.63 225.51 40.93 226.52 38.17 227.68 35.48 228.87 32.77 226 32.38 223.13 32.12 220.3 31.66 217.46 31.23 214.57 30.96"/><path class="cls-7" d="M207.8,35.86c-.68,1.65-1.85,3.26-3.64,2.52s-1.51-2.63-.8-4.36,2-2.1,3.26-1.59A2.41,2.41,0,0,1,207.8,35.86Z"/><path class="cls-8" d="M207,35.7c-.46,1.1-1.23,2.17-2.42,1.68s-1-1.75-.53-2.89a1.57,1.57,0,0,1,2.16-1.06A1.6,1.6,0,0,1,207,35.7Z"/><path class="cls-7" d="M219.2,40.56c-.68,1.66-1.85,3.27-3.64,2.53s-1.51-2.63-.8-4.36,2-2.1,3.26-1.6A2.42,2.42,0,0,1,219.2,40.56Z"/><path class="cls-8" d="M218.39,40.41c-.45,1.1-1.23,2.16-2.42,1.67s-1-1.74-.52-2.89a1.56,1.56,0,0,1,2.15-1A1.59,1.59,0,0,1,218.39,40.41Z"/><path class="cls-9" d="M207,42.08l.84,1.35a1.43,1.43,0,0,0,1.59.63l1.41-.39"/><path class="cls-3" d="M41.1,13v88.39c27.63,3.16,85.75,34.29,85.75,34.29V47.26C116.44,40.43,71.5,10.5,41.1,13Z"/><polyline class="cls-6" points="43.1 100.05 44.82 100.45 46.57 100.69 48.29 101.05 50.04 101.31 51.71 101.9 53.42 102.3 55.14 102.71 56.83 103.24 58.49 103.82 60.15 104.41 61.85 104.88 63.51 105.48 65.15 106.13 66.82 106.7 68.47 107.33 70.11 107.97 71.7 108.76 73.32 109.45 74.96 110.1 76.6 110.75 78.24 111.4 79.87 112.08 81.44 112.9 83.08 113.56 84.67 114.34 86.26 115.12 87.9 115.79 89.45 116.64 91.05 117.41 92.63 118.19 94.31 118.79 95.86 119.65 97.46 120.39 98.98 121.31 100.58 122.06 102.15 122.87 103.78 123.56 105.36 124.36 106.92 125.18 108.46 126.06 110.06 126.79 111.56 127.75 113.15 128.51 114.77 129.22 116.33 130.06 117.85 130.95 119.38 131.84 121 132.53 122.51 133.43"/><polyline class="cls-6" points="43.18 15.23 43.01 16.97 43.07 18.71 43.05 20.45 43.18 22.19 43.01 23.93 43.06 25.67 43.14 27.41 43.12 29.15 43.07 30.89 43.04 32.63 43.15 34.38 43.13 36.12 43.09 37.86 43.14 39.6 43.15 41.34 43.16 43.09 43.03 44.83 43 46.57 43.05 48.3 43.08 50.04 43.15 51.78 43.17 53.52 43.07 55.26 43.15 57.01 43.09 58.74 43.05 60.48 43.14 62.23 43.04 63.97 43.03 65.71 43.01 67.46 43.2 69.2 43.12 70.94 43.16 72.69 43.02 74.43 43.06 76.18 43.05 77.92 43.17 79.66 43.18 81.41 43.16 83.15 43.09 84.9 43.18 86.64 43.02 88.39 43.08 90.14 43.2 91.89 43.19 93.64"/><polyline class="cls-6" points="126.89 49.61 126.9 51.45 126.9 53.3 126.77 55.15 126.78 56.99 126.94 58.84 126.94 60.69 126.75 62.54 126.89 64.39 126.91 66.23 126.87 68.08 126.79 69.93 126.89 71.78 126.92 73.62 126.8 75.47 126.83 77.32 126.81 79.17 126.83 81.02 126.84 82.86 126.76 84.7 126.75 86.55 126.92 88.39 126.94 90.24 126.84 92.09 126.75 93.94 126.83 95.78 126.91 97.63 126.76 99.48 126.86 101.33 126.91 103.17 126.9 105.02 126.92 106.87 126.89 108.72 126.75 110.57 126.88 112.42 126.91 114.28 126.95 116.13 126.94 117.97 126.93 119.83 126.77 121.67 126.81 123.53 126.83 125.38 126.89 127.23 126.87 129.09 126.89 130.95 126.9 132.8"/><polyline class="cls-6" points="126.83 147.94 126.79 146.26 126.8 144.58 126.94 142.9 126.82 141.21 126.84 139.53 126.93 137.84"/><polygon class="cls-5" points="110.82 27.7 109.03 27.41 107.28 26.98 105.64 26.21 103.92 25.68 102.28 24.95 100.48 24.65 98.86 23.84 97.22 23.09 95.5 22.58 93.79 22.02 92.01 21.66 90.26 21.23 88.65 20.39 86.91 19.91 85.29 19.09 83.56 18.56 81.91 18.22 82.13 20 82.06 21.9 81.51 23.8 81.63 25.7 81.75 27.61 81.92 29.51 81.91 31.41 82.03 33.32 81.81 35.22 81.97 37.12 81.88 39.03 81.88 40.93 82 42.84 82.1 44.75 81.84 46.65 83.66 47.04 85.48 47.53 87.23 48.23 88.98 48.92 90.74 49.59 92.48 50.32 94.28 50.86 96.09 51.39 97.87 52.01 99.55 52.87 101.34 53.45 102.97 54.43 104.63 55.32 106.47 55.84 108.01 56.96 109.92 57.36 111.44 58.52 113.17 59.3 114.53 60.66 116.2 61.55 117.51 62.92 119.19 63.87 120.06 65.34 120.5 63.56 120.46 61.71 120.14 59.86 120.06 58.02 120.18 56.17 120.42 54.32 120.59 52.48 120.47 50.63 120.49 48.78 120.43 46.93 120.35 45.08 120.26 43.22 120.53 41.37 119.94 39.45 119.47 37.59 119.32 35.58 118.41 33.82 117.31 32.16 115.71 30.96 114.2 29.73 112.48 28.81 110.82 27.7"/><polygon class="cls-4" points="58.97 95.86 60.77 96.16 62.51 96.59 64.15 97.36 65.87 97.88 67.51 98.62 69.31 98.92 70.93 99.73 72.58 100.48 74.29 100.99 76 101.55 77.78 101.91 79.53 102.34 81.14 103.18 82.88 103.66 84.5 104.48 86.23 105.01 87.88 105.35 87.66 103.57 87.73 101.67 88.28 99.77 88.16 97.86 88.04 95.96 87.87 94.06 87.88 92.15 87.76 90.25 87.99 88.35 87.83 86.44 87.91 84.54 87.92 82.64 87.79 80.73 87.69 78.82 87.95 76.92 86.13 76.53 84.31 76.04 82.56 75.34 80.81 74.65 79.05 73.98 77.31 73.25 75.51 72.7 73.7 72.18 71.92 71.56 70.24 70.7 68.45 70.11 66.82 69.14 65.16 68.24 63.33 67.72 61.78 66.61 59.87 66.2 58.35 65.05 56.63 64.26 55.26 62.91 53.59 62.02 52.28 60.65 50.6 59.7 49.73 58.23 49.29 60.01 49.34 61.86 49.65 63.7 49.73 65.55 49.61 67.4 49.37 69.25 49.2 71.09 49.32 72.94 49.3 74.79 49.36 76.64 49.44 78.49 49.53 80.35 49.26 82.2 49.85 84.12 50.32 85.97 50.47 87.99 51.38 89.75 52.48 91.41 54.08 92.6 55.59 93.84 57.31 94.76 58.97 95.86"/></g></svg>