<svg width="28" height="28" viewBox="0 0 28 28" fill="none" xmlns="http://www.w3.org/2000/svg">
<path d="M15.3425 2.63014L18.3069 8.04384C18.4182 8.24896 18.5747 8.42609 18.7646 8.56184C18.9544 8.69758 19.1726 8.78839 19.4027 8.8274L25.4685 9.96713C25.741 10.02 25.9944 10.145 26.2021 10.3292C26.4098 10.5133 26.5642 10.7499 26.6493 11.0141C26.7344 11.2784 26.747 11.5606 26.6858 11.8313C26.6246 12.1021 26.4918 12.3515 26.3014 12.5534L22.0658 17.0466C21.9081 17.213 21.7894 17.4124 21.7183 17.6304C21.6472 17.8484 21.6255 18.0795 21.6548 18.3069L22.4658 24.4274C22.4992 24.7018 22.4588 24.9801 22.3485 25.2336C22.2383 25.4871 22.0623 25.7065 21.8387 25.8692C21.6152 26.0318 21.3523 26.1317 21.0772 26.1586C20.802 26.1854 20.5247 26.1382 20.274 26.0219L14.663 23.3863C14.4563 23.2864 14.2296 23.2344 14 23.2344C13.7704 23.2344 13.5437 23.2864 13.337 23.3863L7.75891 26.0219C7.50827 26.1401 7.23044 26.1888 6.95453 26.1627C6.67863 26.1367 6.4148 26.0369 6.1907 25.8739C5.9666 25.7109 5.79047 25.4906 5.68076 25.2361C5.57105 24.9816 5.53181 24.7023 5.56713 24.4274L6.3507 18.3069C6.38117 18.0794 6.36006 17.848 6.28892 17.6299C6.21777 17.4117 6.09843 17.2123 5.93974 17.0466L1.7096 12.5534C1.51909 12.3511 1.38644 12.1013 1.32554 11.8302C1.26464 11.5591 1.27772 11.2765 1.36341 11.0122C1.4491 10.7478 1.60425 10.5114 1.81264 10.3275C2.02102 10.1437 2.27498 10.0192 2.54796 9.96713L8.61371 8.8274C8.84328 8.78687 9.06086 8.69546 9.25049 8.55987C9.44013 8.42428 9.597 8.24796 9.7096 8.04384L12.6685 2.63014C12.8054 2.39718 13.0008 2.20402 13.2353 2.06981C13.4698 1.93561 13.7353 1.86501 14.0055 1.86501C14.2757 1.86501 14.5412 1.93561 14.7757 2.06981C15.0102 2.20402 15.2056 2.39718 15.3425 2.63014V2.63014Z" fill="#F8C341"/>
</svg>
