<svg width="41" height="40" viewBox="0 0 41 40" fill="none" xmlns="http://www.w3.org/2000/svg">
<path d="M39.5 20C39.5 9.50659 30.9934 1 20.5 1C10.0066 1 1.5 9.50659 1.5 20C1.5 30.4934 10.0066 39 20.5 39C30.9934 39 39.5 30.4934 39.5 20Z" fill="#1DC121" stroke="white" stroke-width="2"/>
<path d="M16.3109 15.0354H14.9931C14.9453 15.0338 14.8977 15.0418 14.8531 15.059C14.8085 15.0762 14.7678 15.1022 14.7335 15.1354C14.6991 15.1686 14.6718 15.2084 14.6532 15.2524C14.6346 15.2965 14.625 15.3438 14.625 15.3916V23.5838C14.625 23.6814 14.6638 23.775 14.7328 23.8441C14.8018 23.9131 14.8954 23.9519 14.9931 23.9519H16.3109C16.3587 23.9519 16.406 23.9423 16.45 23.9237C16.4941 23.905 16.5339 23.8777 16.5671 23.8434C16.6003 23.809 16.6263 23.7683 16.6435 23.7238C16.6607 23.6792 16.6687 23.6316 16.6671 23.5838V15.3916C16.6688 15.3443 16.6607 15.2973 16.6434 15.2533C16.6261 15.2093 16.5999 15.1694 16.5665 15.136C16.5331 15.1026 16.4931 15.0764 16.4492 15.0591C16.4052 15.0418 16.3582 15.0337 16.3109 15.0354Z" fill="white"/>
<path d="M25.4058 15.0355H24.0642C24.0164 15.0339 23.9688 15.0419 23.9242 15.0591C23.8796 15.0763 23.839 15.1023 23.8046 15.1355C23.7703 15.1687 23.743 15.2085 23.7243 15.2526C23.7057 15.2966 23.6961 15.3439 23.6961 15.3917V20.2595L19.9443 15.1542H18.2821C18.2344 15.1526 18.1868 15.1606 18.1422 15.1778C18.0976 15.195 18.0569 15.221 18.0225 15.2542C17.9882 15.2875 17.9609 15.3273 17.9423 15.3713C17.9236 15.4153 17.914 15.4626 17.9141 15.5104V23.7026C17.9141 23.8002 17.9528 23.8939 18.0219 23.9629C18.0909 24.0319 18.1845 24.0707 18.2821 24.0707H19.6C19.6976 24.0707 19.7912 24.0319 19.8603 23.9629C19.9293 23.8939 19.9681 23.8002 19.9681 23.7026V18.8348L23.7199 23.9163L23.8149 23.9995H25.4058C25.5034 23.9995 25.597 23.9607 25.6661 23.8917C25.7351 23.8226 25.7739 23.729 25.7739 23.6314V15.4392C25.7809 15.3875 25.7764 15.335 25.7609 15.2853C25.7454 15.2356 25.7192 15.1899 25.6841 15.1514C25.649 15.1129 25.6059 15.0825 25.5578 15.0625C25.5097 15.0425 25.4578 15.0333 25.4058 15.0355Z" fill="white"/>
<path d="M13.1279 21.8627H9.56608V15.3564C9.56611 15.3086 9.55652 15.2613 9.53788 15.2173C9.51924 15.1733 9.49194 15.1335 9.4576 15.1002C9.42325 15.067 9.38257 15.041 9.33798 15.0238C9.29339 15.0067 9.24579 14.9986 9.19803 15.0002H7.8564C7.80918 14.9986 7.76212 15.0066 7.71815 15.0239C7.67419 15.0413 7.63426 15.0674 7.60085 15.1008C7.56744 15.1343 7.54126 15.1742 7.52395 15.2182C7.50663 15.2621 7.49855 15.3092 7.50021 15.3564V23.5486C7.49837 23.6409 7.53243 23.7303 7.59519 23.798C7.62735 23.8317 7.66603 23.8586 7.70889 23.877C7.75175 23.8954 7.79789 23.9048 7.84452 23.9048H13.1161C13.2137 23.9048 13.3073 23.866 13.3763 23.797C13.4453 23.728 13.4841 23.6344 13.4841 23.5368V22.2308C13.4841 22.1331 13.4453 22.0395 13.3763 21.9705C13.3073 21.9015 13.2137 21.8627 13.1161 21.8627" fill="white"/>
<path d="M32.659 17.0423C32.7073 17.0423 32.7552 17.0328 32.7998 17.0143C32.8445 16.9958 32.885 16.9687 32.9192 16.9345C32.9534 16.9003 32.9805 16.8598 32.999 16.8151C33.0175 16.7705 33.027 16.7226 33.027 16.6743V15.3564C33.027 15.3086 33.0175 15.2613 32.9988 15.2173C32.9802 15.1733 32.9529 15.1335 32.9185 15.1002C32.8842 15.067 32.8435 15.041 32.7989 15.0238C32.7543 15.0066 32.7067 14.9986 32.659 15.0002H27.3874C27.2952 14.9984 27.2058 15.0324 27.1381 15.0952C27.0739 15.1629 27.036 15.2513 27.0312 15.3445V23.5368C27.0338 23.6304 27.072 23.7196 27.1381 23.7861C27.1693 23.821 27.2078 23.8487 27.2509 23.8672C27.294 23.8856 27.3406 23.8944 27.3874 23.8929H32.659C32.7073 23.8929 32.7552 23.8834 32.7998 23.8649C32.8445 23.8464 32.885 23.8193 32.9192 23.7851C32.9534 23.751 32.9805 23.7104 32.999 23.6657C33.0175 23.6211 33.027 23.5732 33.027 23.5249V22.2307C33.027 22.1824 33.0175 22.1346 32.999 22.0899C32.9805 22.0452 32.9534 22.0047 32.9192 21.9705C32.885 21.9363 32.8445 21.9092 32.7998 21.8907C32.7552 21.8722 32.7073 21.8627 32.659 21.8627H29.0971V20.4854H32.659C32.7073 20.4854 32.7552 20.4759 32.7998 20.4574C32.8445 20.4389 32.885 20.4118 32.9192 20.3776C32.9534 20.3435 32.9805 20.3029 32.999 20.2582C33.0175 20.2136 33.027 20.1657 33.027 20.1174V18.7995C33.027 18.7512 33.0175 18.7033 32.999 18.6587C32.9805 18.614 32.9534 18.5734 32.9192 18.5392C32.885 18.5051 32.8445 18.478 32.7998 18.4595C32.7552 18.441 32.7073 18.4314 32.659 18.4314H29.0971V17.0423H32.659Z" fill="white"/>
</svg>
