<svg fill="none" height="36" viewBox="0 0 36 36" width="36" xmlns="http://www.w3.org/2000/svg" xmlns:xlink="http://www.w3.org/1999/xlink"><clipPath id="a"><path d="m0 0h36v36h-36z"/></clipPath><g clip-path="url(#a)"><path d="m36 18c0-9.94112-8.0589-18-18-18-9.94112 0-18 8.05888-18 18 0 9.9411 8.05888 18 18 18 9.9411 0 18-8.0589 18-18z" fill="#fff"/><path clip-rule="evenodd" d="m18 0c-3.5601 0-7.0402 1.05568-10.00026 3.03355-2.96008 1.97786-5.26719 4.78908-6.62956 8.07815-1.36238091 3.2891-1.718841 6.9083-1.024307 10.3999.694537 3.4917 2.408867 6.699 4.926217 9.2163 2.51734 2.5174 5.72461 4.2317 9.21631 4.9262 3.4916.6946 7.1108.3381 10.3999-1.0243 3.2891-1.3623 6.1003-3.6695 8.0782-6.6295 1.9778-2.9601 3.0335-6.4402 3.0335-10.0003 0-4.7739-1.8964-9.35227-5.2721-12.72792-3.3756-3.37566-7.954-5.27208-12.7279-5.27208zm9.9476 14.1534v.6129c0 6.3405-4.8047 13.604-13.5969 13.604-2.5905-.0035-5.12582-.7491-7.30568-2.1488.37893.0426.75997.0638 1.14129.0634 2.14109-.0012 4.21989-.7206 5.90369-2.043-.9927-.024-1.9533-.3564-2.7486-.951-.7953-.5945-1.38583-1.4219-1.68973-2.3672.71563.1363 1.45303.1074 2.15573-.0846-1.0822-.2168-2.05573-.8023-2.75459-1.6566-.69887-.8543-1.0798-1.9245-1.07785-3.0283v-.0634c.66178.3719 1.40401.5774 2.16284.5988-1.0125-.6759-1.72918-1.7124-2.00406-2.8983-.27489-1.1859-.08728-2.432.52459-3.4845 1.201 1.4786 2.70007 2.6876 4.39937 3.5482 1.6994.8606 3.561 1.3536 5.4636 1.4468-.0796-.3562-.1197-.72-.1197-1.085-.0003-.959.2876-1.896.8265-2.6894.5389-.7933 1.3038-1.4064 2.1955-1.75956.8917-.35318 1.8689-.43017 2.8049-.22099s1.7874.69485 2.4439 1.39405c1.0698-.212 2.0963-.6026 3.0364-1.15538-.362 1.10708-1.1128 2.04568-2.1135 2.64188.9485-.1119 1.8748-.366 2.7476-.7538-.6447.9624-1.4558 1.8022-2.3953 2.4798z" fill="#1eaceb" fill-rule="evenodd"/></g></svg>