<svg fill="none" height="36" viewBox="0 0 36 36" width="36" xmlns="http://www.w3.org/2000/svg" xmlns:xlink="http://www.w3.org/1999/xlink"><clipPath id="a"><path d="m0 0h36v36h-36z"/></clipPath><g clip-path="url(#a)"><path d="m36 18c0-9.94113-8.0589-18-18-18-9.94113 0-18 8.05887-18 18 0 9.9411 8.05887 18 18 18 9.9411 0 18-8.0589 18-18z" fill="#fff"/><path d="m18 0c-3.5601 0-7.0402 1.05568-10.00026 3.03355-2.96008 1.97786-5.26719 4.78908-6.62956 8.07815-1.36238091 3.2891-1.718841 6.9083-1.024307 10.3999.694537 3.4917 2.408867 6.699 4.926217 9.2163 2.51734 2.5174 5.72461 4.2317 9.21631 4.9262 3.4916.6946 7.1108.3381 10.3999-1.0243 3.2891-1.3623 6.1003-3.6695 8.0782-6.6295 1.9778-2.9601 3.0335-6.4402 3.0335-10.0003 0-4.7739-1.8964-9.35227-5.2721-12.72792-3.3756-3.37566-7.954-5.27208-12.7279-5.27208z" fill="#8e8e8e"/><g fill="#fff"><path d="m16.908 22.4877h-5.3401l-1.0004 3.0645h-3.27594l5.53034-14.8508h2.818l5.5585 14.8508h-3.2407zm-4.537-2.4728h3.7127l-1.8669-5.5586z"/><path d="m26.7711 15.3793h-3.3676l-.6411 1.9162h-2.036l3.4662-9.31351h1.7753l3.5225 9.31351h-2.043zm-2.818-1.557h2.3248l-1.1695-3.5225z"/></g></g></svg>