<svg width="41" height="40" viewBox="0 0 41 40" fill="none" xmlns="http://www.w3.org/2000/svg">
<rect width="41" height="40"/>
<rect x="-1533" y="-7946" width="7620" height="16624" stroke="black" stroke-width="20"/>
<rect width="320" height="568" transform="translate(-113 -438)"/>
<path d="M38.5 20C38.5 10.0589 30.4411 2 20.5 2C10.5589 2 2.5 10.0589 2.5 20C2.5 29.9411 10.5589 38 20.5 38C30.4411 38 38.5 29.9411 38.5 20Z" fill="white"/>
<mask id="path-3-outside-1_1326_2" maskUnits="userSpaceOnUse" x="0.5" y="0" width="40" height="40" fill="black">
<rect fill="white" x="0.5" width="40" height="40"/>
<path fill-rule="evenodd" clip-rule="evenodd" d="M20.5 2C16.9399 2 13.4598 3.05568 10.4997 5.03355C7.53966 7.01141 5.23255 9.82263 3.87018 13.1117C2.5078 16.4008 2.15134 20.02 2.84587 23.5116C3.54041 27.0033 5.25474 30.2106 7.77209 32.7279C10.2894 35.2453 13.4967 36.9596 16.9884 37.6541C20.48 38.3487 24.0992 37.9922 27.3883 36.6298C30.6774 35.2675 33.4886 32.9603 35.4665 30.0003C37.4443 27.0402 38.5 23.5601 38.5 20C38.5 15.2261 36.6036 10.6477 33.2279 7.27208C29.8523 3.89642 25.2739 2 20.5 2V2ZM30.4476 16.1534C30.4476 16.3577 30.4476 16.562 30.4476 16.7663C30.4476 23.1068 25.6429 30.3703 16.8507 30.3703C14.2602 30.3668 11.7249 29.6212 9.54502 28.2215C9.92395 28.2641 10.305 28.2853 10.6863 28.2849C12.8274 28.2837 14.9062 27.5643 16.59 26.2419C15.5973 26.2179 14.6367 25.8855 13.8414 25.2909C13.0461 24.6964 12.4556 23.869 12.1517 22.9237C12.8673 23.06 13.6047 23.0311 14.3074 22.8391C13.2252 22.6223 12.2517 22.0368 11.5528 21.1825C10.8539 20.3282 10.473 19.258 10.475 18.1542V18.0908C11.1367 18.4627 11.879 18.6682 12.6378 18.6896C11.6253 18.0137 10.9086 16.9772 10.6337 15.7913C10.3589 14.6054 10.5465 13.3593 11.1583 12.3068C12.3593 13.7854 13.8584 14.9944 15.5577 15.855C17.2571 16.7156 19.1187 17.2086 21.0213 17.3018C20.9417 16.9456 20.9016 16.5818 20.9016 16.2168C20.9013 15.2578 21.1892 14.3208 21.7281 13.5274C22.267 12.7341 23.0319 12.121 23.9236 11.7678C24.8153 11.4147 25.7925 11.3377 26.7285 11.5469C27.6645 11.756 28.5159 12.2417 29.1724 12.9409C30.2422 12.7289 31.2687 12.3383 32.2088 11.7855C31.8468 12.8926 31.096 13.8312 30.0953 14.4274C31.0438 14.3155 31.9701 14.0614 32.8429 13.6736C32.1982 14.636 31.3871 15.4758 30.4476 16.1534Z"/>
</mask>
<path fill-rule="evenodd" clip-rule="evenodd" d="M20.5 2C16.9399 2 13.4598 3.05568 10.4997 5.03355C7.53966 7.01141 5.23255 9.82263 3.87018 13.1117C2.5078 16.4008 2.15134 20.02 2.84587 23.5116C3.54041 27.0033 5.25474 30.2106 7.77209 32.7279C10.2894 35.2453 13.4967 36.9596 16.9884 37.6541C20.48 38.3487 24.0992 37.9922 27.3883 36.6298C30.6774 35.2675 33.4886 32.9603 35.4665 30.0003C37.4443 27.0402 38.5 23.5601 38.5 20C38.5 15.2261 36.6036 10.6477 33.2279 7.27208C29.8523 3.89642 25.2739 2 20.5 2V2ZM30.4476 16.1534C30.4476 16.3577 30.4476 16.562 30.4476 16.7663C30.4476 23.1068 25.6429 30.3703 16.8507 30.3703C14.2602 30.3668 11.7249 29.6212 9.54502 28.2215C9.92395 28.2641 10.305 28.2853 10.6863 28.2849C12.8274 28.2837 14.9062 27.5643 16.59 26.2419C15.5973 26.2179 14.6367 25.8855 13.8414 25.2909C13.0461 24.6964 12.4556 23.869 12.1517 22.9237C12.8673 23.06 13.6047 23.0311 14.3074 22.8391C13.2252 22.6223 12.2517 22.0368 11.5528 21.1825C10.8539 20.3282 10.473 19.258 10.475 18.1542V18.0908C11.1367 18.4627 11.879 18.6682 12.6378 18.6896C11.6253 18.0137 10.9086 16.9772 10.6337 15.7913C10.3589 14.6054 10.5465 13.3593 11.1583 12.3068C12.3593 13.7854 13.8584 14.9944 15.5577 15.855C17.2571 16.7156 19.1187 17.2086 21.0213 17.3018C20.9417 16.9456 20.9016 16.5818 20.9016 16.2168C20.9013 15.2578 21.1892 14.3208 21.7281 13.5274C22.267 12.7341 23.0319 12.121 23.9236 11.7678C24.8153 11.4147 25.7925 11.3377 26.7285 11.5469C27.6645 11.756 28.5159 12.2417 29.1724 12.9409C30.2422 12.7289 31.2687 12.3383 32.2088 11.7855C31.8468 12.8926 31.096 13.8312 30.0953 14.4274C31.0438 14.3155 31.9701 14.0614 32.8429 13.6736C32.1982 14.636 31.3871 15.4758 30.4476 16.1534Z" fill="#1EACEB"/>
<path fill-rule="evenodd" clip-rule="evenodd" d="M20.5 2C16.9399 2 13.4598 3.05568 10.4997 5.03355C7.53966 7.01141 5.23255 9.82263 3.87018 13.1117C2.5078 16.4008 2.15134 20.02 2.84587 23.5116C3.54041 27.0033 5.25474 30.2106 7.77209 32.7279C10.2894 35.2453 13.4967 36.9596 16.9884 37.6541C20.48 38.3487 24.0992 37.9922 27.3883 36.6298C30.6774 35.2675 33.4886 32.9603 35.4665 30.0003C37.4443 27.0402 38.5 23.5601 38.5 20C38.5 15.2261 36.6036 10.6477 33.2279 7.27208C29.8523 3.89642 25.2739 2 20.5 2V2ZM30.4476 16.1534C30.4476 16.3577 30.4476 16.562 30.4476 16.7663C30.4476 23.1068 25.6429 30.3703 16.8507 30.3703C14.2602 30.3668 11.7249 29.6212 9.54502 28.2215C9.92395 28.2641 10.305 28.2853 10.6863 28.2849C12.8274 28.2837 14.9062 27.5643 16.59 26.2419C15.5973 26.2179 14.6367 25.8855 13.8414 25.2909C13.0461 24.6964 12.4556 23.869 12.1517 22.9237C12.8673 23.06 13.6047 23.0311 14.3074 22.8391C13.2252 22.6223 12.2517 22.0368 11.5528 21.1825C10.8539 20.3282 10.473 19.258 10.475 18.1542V18.0908C11.1367 18.4627 11.879 18.6682 12.6378 18.6896C11.6253 18.0137 10.9086 16.9772 10.6337 15.7913C10.3589 14.6054 10.5465 13.3593 11.1583 12.3068C12.3593 13.7854 13.8584 14.9944 15.5577 15.855C17.2571 16.7156 19.1187 17.2086 21.0213 17.3018C20.9417 16.9456 20.9016 16.5818 20.9016 16.2168C20.9013 15.2578 21.1892 14.3208 21.7281 13.5274C22.267 12.7341 23.0319 12.121 23.9236 11.7678C24.8153 11.4147 25.7925 11.3377 26.7285 11.5469C27.6645 11.756 28.5159 12.2417 29.1724 12.9409C30.2422 12.7289 31.2687 12.3383 32.2088 11.7855C31.8468 12.8926 31.096 13.8312 30.0953 14.4274C31.0438 14.3155 31.9701 14.0614 32.8429 13.6736C32.1982 14.636 31.3871 15.4758 30.4476 16.1534Z" stroke="white" stroke-width="4" mask="url(#path-3-outside-1_1326_2)"/>
</svg>
