<svg width="41" height="40" viewBox="0 0 41 40" fill="none" xmlns="http://www.w3.org/2000/svg">
<path d="M39.5 20C39.5 9.50659 30.9934 1 20.5 1C10.0066 1 1.5 9.50659 1.5 20C1.5 30.4934 10.0066 39 20.5 39C30.9934 39 39.5 30.4934 39.5 20Z" fill="white" stroke="white" stroke-width="2"/>
<path d="M20.5176 2.00001C15.9857 1.99431 11.6186 3.69878 8.28867 6.77285C4.95878 9.84692 2.91139 14.0642 2.55558 18.5821C2.19977 23.1 3.56174 27.5859 6.36936 31.1433C9.17698 34.7007 13.2235 37.0678 17.7004 37.7716V25.1998H13.1365V19.995H17.7075V16.0297C17.7075 11.5222 20.3909 9.02897 24.504 9.02897C25.8537 9.04759 27.2002 9.16529 28.5326 9.38112V13.8112H26.2648C24.0251 13.8112 23.3278 15.2198 23.3278 16.6284V20.002H28.3213L27.5255 25.1998H23.2996V37.7716C27.7735 37.0683 31.8177 34.7039 34.6252 31.1502C37.4327 27.5965 38.7969 23.1149 38.4458 18.5997C38.0946 14.0845 36.0539 9.8677 32.7307 6.79081C29.4076 3.71392 25.0465 2.00319 20.5176 2.00001Z" fill="#057EEC"/>
</svg>
