<svg width="41" height="40" viewBox="0 0 41 40" fill="none" xmlns="http://www.w3.org/2000/svg">
<path d="M39.5 20C39.5 9.50659 30.9934 1 20.5 1C10.0066 1 1.5 9.50659 1.5 20C1.5 30.4934 10.0066 39 20.5 39C30.9934 39 39.5 30.4934 39.5 20Z" fill="#F8C341" stroke="white" stroke-width="2"/>
<path d="M26.8042 22.2334L28.0934 20.9371C29.2248 19.8058 29.8603 18.2713 29.8603 16.6714C29.8603 15.0714 29.2248 13.537 28.0934 12.4056C26.9621 11.2743 25.4276 10.6387 23.8277 10.6387C22.2277 10.6387 20.6933 11.2743 19.5619 12.4056L18.2656 13.7019" stroke="white" stroke-width="2.5" stroke-miterlimit="10" stroke-linecap="round"/>
<path d="M14.2038 17.7676L12.9076 19.0639C11.7762 20.1952 11.1406 21.7296 11.1406 23.3296C11.1406 24.9296 11.7762 26.464 12.9076 27.5954C14.0389 28.7267 15.5733 29.3623 17.1733 29.3623C18.7733 29.3623 20.3077 28.7267 21.4391 27.5954L22.7353 26.3061" stroke="white" stroke-width="2.5" stroke-miterlimit="10" stroke-linecap="round"/>
<path d="M23.1212 17.3867L17.8867 22.6212" stroke="white" stroke-width="2.5" stroke-miterlimit="10" stroke-linecap="round"/>
</svg>
